<?xml version="1.0" encoding="UTF-8"?>
<!DOCTYPE svg PUBLIC "-//W3C//DTD SVG 1.1//EN"
    "http://www.w3.org/Graphics/SVG/1.1/DTD/svg11.dtd">
<svg xmlns="http://www.w3.org/2000/svg" xmlns:xlink="http://www.w3.org/1999/xlink" version="1.1" width="241.14412322194661" height="500" viewBox="-36.46099143115835 -138.6 72.92198286231665 151.2"><g><rect x="-36.46099143115835" y="-138.6" width="72.92198286231665" height="151.2" fill="#CBD4C2" /><path d="M 0,0 l -1.8369701987210297e-16,-1.0 l -1.8369701987210297e-16,-1.0 l -1.8369701987210297e-16,-1.0 l -1.8369701987210297e-16,-1.0 l -1.8369701987210297e-16,-1.0 l -1.8369701987210297e-16,-1.0 l -1.8369701987210297e-16,-1.0 l -1.8369701987210297e-16,-1.0 l -1.8369701987210297e-16,-1.0 l -1.8369701987210297e-16,-1.0 l -1.8369701987210297e-16,-1.0 l -1.8369701987210297e-16,-1.0 l -1.8369701987210297e-16,-1.0 l -1.8369701987210297e-16,-1.0 l -1.8369701987210297e-16,-1.0 l -1.8369701987210297e-16,-1.0 l -1.8369701987210297e-16,-1.0 l -1.8369701987210297e-16,-1.0 l -1.8369701987210297e-16,-1.0 l -1.8369701987210297e-16,-1.0 l -1.8369701987210297e-16,-1.0 l -1.8369701987210297e-16,-1.0 l -1.8369701987210297e-16,-1.0 l -1.8369701987210297e-16,-1.0 l -1.8369701987210297e-16,-1.0 l -1.8369701987210297e-16,-1.0 l -1.8369701987210297e-16,-1.0 l -1.8369701987210297e-16,-1.0 l -1.8369701987210297e-16,-1.0 l -1.8369701987210297e-16,-1.0 l -1.8369701987210297e-16,-1.0 l -1.8369701987210297e-16,-1.0 l 0.4336590845875438,-0.9010770213220918 l 0.4336590845875438,-0.9010770213220918 l 0.4336590845875438,-0.9010770213220918 l 0.4336590845875438,-0.9010770213220918 l 0.4336590845875438,-0.9010770213220918 l 0.4336590845875438,-0.9010770213220918 l 0.4336590845875438,-0.9010770213220918 l 0.4336590845875438,-0.9010770213220918 l 0.4336590845875438,-0.9010770213220918 l 0.4336590845875438,-0.9010770213220918 l 0.4336590845875438,-0.9010770213220918 l 0.4336590845875438,-0.9010770213220918 l 0.4336590845875438,-0.9010770213220918 l 0.4336590845875438,-0.9010770213220918 l 0.4336590845875438,-0.9010770213220918 l 0.4336590845875438,-0.9010770213220918 l 0.7815204724188182,-0.623879596709387 l 0.7815204724188182,-0.623879596709387 l 0.7815204724188182,-0.623879596709387 l 0.7815204724188182,-0.623879596709387 l 0.7815204724188182,-0.623879596709387 l 0.7815204724188182,-0.623879596709387 l 0.7815204724188182,-0.623879596709387 l 0.7815204724188182,-0.623879596709387 l 0.9747611941912214,-0.22325011601095265 l 0.9747611941912214,-0.22325011601095265 l 0.9747611941912214,-0.22325011601095265 l 0.9747611941912214,-0.22325011601095265 l 0.9751493543055636,0.22154849761946563 l 0.9751493543055636,0.22154849761946563 l 0.7826081568524152,0.6225146366376179 m 0.0,0.0 m 0.0,0.0 l 0.7826081568524152,0.6225146366376179 m -1.5652163137048305,-1.245029273275236 l 0.9747611941912214,-0.22325011601095265 m 0.0,0.0 m 0.0,0.0 l 0.9747611941912214,-0.22325011601095265 m -1.9495223883824409,0.44650023202190425 l 0.9751493543055636,0.22154849761946563 l 0.9751493543055636,0.22154849761946563 l 0.9751493543055636,0.22154849761946563 m 0.0,0.0 m 0.0,0.0 l 0.9751493543055636,0.22154849761946563 m -5.850896125833387,-1.3292909857167956 l 0.7815204724188182,-0.623879596709387 l 0.7815204724188182,-0.623879596709387 l 0.9747611941912214,-0.22325011601095265 m 0.0,0.0 m 0.0,0.0 l 0.9747611941912214,-0.22325011601095265 m -1.9495223883824409,0.44650023202190425 l 0.4336590845875438,-0.9010770213220918 m 0.0,0.0 m 0.0,0.0 l 0.4336590845875438,-0.9010770213220918 m -0.8673181691750855,1.8021540426441902 l 0.7815204724188182,-0.623879596709387 l 0.7815204724188182,-0.623879596709387 l 0.7815204724188182,-0.623879596709387 m 0.0,0.0 m 0.0,0.0 l 0.7815204724188182,-0.623879596709387 m -4.689122834512915,3.7432775802563185 l 0.9747611941912214,-0.22325011601095265 l 0.9747611941912214,-0.22325011601095265 l 0.9747611941912214,-0.22325011601095265 l 0.9747611941912214,-0.22325011601095265 l 0.9747611941912214,-0.22325011601095265 l 0.9747611941912214,-0.22325011601095265 l 0.9751493543055636,0.22154849761946563 m 0.0,0.0 m 0.0,0.0 l 0.9751493543055636,0.22154849761946563 m -1.950298708611129,-0.44309699523893187 l 0.7815204724188182,-0.623879596709387 m 0.0,0.0 m 0.0,0.0 l 0.7815204724188182,-0.623879596709387 m -1.5630409448376383,1.2477591934187728 l 0.9747611941912214,-0.22325011601095265 l 0.9747611941912214,-0.22325011601095265 l 0.9747611941912214,-0.22325011601095265 m 0.0,0.0 m 0.0,0.0 l 0.9747611941912214,-0.22325011601095265 m -13.64665671867709,3.1255016241533298 l 0.4336590845875438,-0.9010770213220918 l 0.4336590845875438,-0.9010770213220918 l 0.4336590845875438,-0.9010770213220918 l 0.4336590845875438,-0.9010770213220918 l 0.7815204724188182,-0.623879596709387 l 0.7815204724188182,-0.623879596709387 l 0.9747611941912214,-0.22325011601095265 m 0.0,0.0 m 0.0,0.0 l 0.9747611941912214,-0.22325011601095265 m -1.9495223883824409,0.44650023202190425 l 0.4336590845875438,-0.9010770213220918 m 0.0,0.0 m 0.0,0.0 l 0.4336590845875438,-0.9010770213220918 m -0.8673181691750855,1.8021540426441902 l 0.7815204724188182,-0.623879596709387 l 0.7815204724188182,-0.623879596709387 l 0.7815204724188182,-0.623879596709387 m 0.0,0.0 m 0.0,0.0 l 0.7815204724188182,-0.623879596709387 m -4.6891228345129115,3.7432775802563185 l -1.8369701987210297e-16,-1.0 l -1.8369701987210297e-16,-1.0 l 0.4336590845875438,-0.9010770213220918 m 0.0,0.0 m 0.0,0.0 l 0.4336590845875438,-0.9010770213220918 m -0.8673181691750891,1.8021540426441902 l -0.43365908458754415,-0.9010770213220917 m 0.0,0.0 m 0.0,0.0 l -0.43365908458754415,-0.9010770213220917 m 0.8673181691750891,1.8021540426441902 l -1.8369701987210297e-16,-1.0 l -1.8369701987210297e-16,-1.0 l -1.8369701987210297e-16,-1.0 m 0.0,0.0 m 0.0,0.0 l -1.8369701987210297e-16,-1.0 m 0.0,6.0 l 0.4336590845875438,-0.9010770213220918 l 0.4336590845875438,-0.9010770213220918 l 0.4336590845875438,-0.9010770213220918 l 0.4336590845875438,-0.9010770213220918 l 0.4336590845875438,-0.9010770213220918 l 0.4336590845875438,-0.9010770213220918 l 0.7815204724188182,-0.623879596709387 m 0.0,0.0 m 0.0,0.0 l 0.7815204724188182,-0.623879596709387 m -1.5630409448376383,1.2477591934187728 l -1.8369701987210297e-16,-1.0 m 0.0,0.0 m 0.0,0.0 l -1.8369701987210297e-16,-1.0 m 0.0,2.0 l 0.4336590845875438,-0.9010770213220918 l 0.4336590845875438,-0.9010770213220918 l 0.4336590845875438,-0.9010770213220918 m 0.0,0.0 m 0.0,0.0 l 0.4336590845875438,-0.9010770213220918 m -6.071227184225609,12.615078298509331 l 0.7815204724188182,-0.623879596709387 l 0.7815204724188182,-0.623879596709387 l 0.7815204724188182,-0.623879596709387 l 0.7815204724188182,-0.623879596709387 l 0.7815204724188182,-0.623879596709387 l 0.7815204724188182,-0.623879596709387 l 0.7815204724188182,-0.623879596709387 l 0.7815204724188182,-0.623879596709387 l 0.7815204724188182,-0.623879596709387 l 0.7815204724188182,-0.623879596709387 l 0.7815204724188182,-0.623879596709387 l 0.7815204724188182,-0.623879596709387 l 0.9747611941912214,-0.22325011601095265 l 0.9747611941912214,-0.22325011601095265 l 0.9751493543055636,0.22154849761946563 m 0.0,0.0 m 0.0,0.0 l 0.9751493543055636,0.22154849761946563 m -1.950298708611129,-0.44309699523893187 l 0.7815204724188182,-0.623879596709387 m 0.0,0.0 m 0.0,0.0 l 0.7815204724188182,-0.623879596709387 m -1.5630409448376383,1.2477591934187728 l 0.9747611941912214,-0.22325011601095265 l 0.9747611941912214,-0.22325011601095265 l 0.9747611941912214,-0.22325011601095265 m 0.0,0.0 m 0.0,0.0 l 0.9747611941912214,-0.22325011601095265 m -5.8485671651473226,1.3395006960657128 l 0.4336590845875438,-0.9010770213220918 l 0.4336590845875438,-0.9010770213220918 l 0.7815204724188182,-0.623879596709387 m 0.0,0.0 m 0.0,0.0 l 0.7815204724188182,-0.623879596709387 m -1.5630409448376383,1.2477591934187728 l -1.8369701987210297e-16,-1.0 m 0.0,0.0 m 0.0,0.0 l -1.8369701987210297e-16,-1.0 m 0.0,2.0 l 0.4336590845875438,-0.9010770213220918 l 0.4336590845875438,-0.9010770213220918 l 0.4336590845875438,-0.9010770213220918 m 0.0,0.0 m 0.0,0.0 l 0.4336590845875438,-0.9010770213220918 m -2.6019545075252566,5.406462127932571 l 0.7815204724188182,-0.623879596709387 l 0.7815204724188182,-0.623879596709387 l 0.7815204724188182,-0.623879596709387 l 0.7815204724188182,-0.623879596709387 l 0.7815204724188182,-0.623879596709387 l 0.7815204724188182,-0.623879596709387 l 0.9747611941912214,-0.22325011601095265 m 0.0,0.0 m 0.0,0.0 l 0.9747611941912214,-0.22325011601095265 m -1.9495223883824409,0.44650023202190425 l 0.4336590845875438,-0.9010770213220918 m 0.0,0.0 m 0.0,0.0 l 0.4336590845875438,-0.9010770213220918 m -0.8673181691750855,1.8021540426441902 l 0.7815204724188182,-0.623879596709387 l 0.7815204724188182,-0.623879596709387 l 0.7815204724188182,-0.623879596709387 m 0.0,0.0 m 0.0,0.0 l 0.7815204724188182,-0.623879596709387 m -23.445614172564554,18.716387901281593 l -1.8369701987210297e-16,-1.0 l -1.8369701987210297e-16,-1.0 l -1.8369701987210297e-16,-1.0 l -1.8369701987210297e-16,-1.0 l -1.8369701987210297e-16,-1.0 l -1.8369701987210297e-16,-1.0 l -1.8369701987210297e-16,-1.0 l -1.8369701987210297e-16,-1.0 l 0.4336590845875438,-0.9010770213220918 l 0.4336590845875438,-0.9010770213220918 l 0.4336590845875438,-0.9010770213220918 l 0.4336590845875438,-0.9010770213220918 l 0.7815204724188182,-0.623879596709387 l 0.7815204724188182,-0.623879596709387 l 0.9747611941912214,-0.22325011601095265 m 0.0,0.0 m 0.0,0.0 l 0.9747611941912214,-0.22325011601095265 m -1.9495223883824444,0.44650023202190425 l 0.4336590845875438,-0.9010770213220918 m 0.0,0.0 m 0.0,0.0 l 0.4336590845875438,-0.9010770213220918 m -0.8673181691750891,1.8021540426441902 l 0.7815204724188182,-0.623879596709387 l 0.7815204724188182,-0.623879596709387 l 0.7815204724188182,-0.623879596709387 m 0.0,0.0 m 0.0,0.0 l 0.7815204724188182,-0.623879596709387 m -4.689122834512904,3.7432775802563185 l -1.8369701987210297e-16,-1.0 l -1.8369701987210297e-16,-1.0 l 0.4336590845875438,-0.9010770213220918 m 0.0,0.0 m 0.0,0.0 l 0.4336590845875438,-0.9010770213220918 m -0.8673181691750891,1.8021540426441902 l -0.43365908458754415,-0.9010770213220917 m 0.0,0.0 m 0.0,0.0 l -0.43365908458754415,-0.9010770213220917 m 0.8673181691750891,1.8021540426441902 l -1.8369701987210297e-16,-1.0 l -1.8369701987210297e-16,-1.0 l -1.8369701987210297e-16,-1.0 m 0.0,0.0 m 0.0,0.0 l -1.8369701987210297e-16,-1.0 m 0.0,6.0 l 0.4336590845875438,-0.9010770213220918 l 0.4336590845875438,-0.9010770213220918 l 0.4336590845875438,-0.9010770213220918 l 0.4336590845875438,-0.9010770213220918 l 0.4336590845875438,-0.9010770213220918 l 0.4336590845875438,-0.9010770213220918 l 0.7815204724188182,-0.623879596709387 m 0.0,0.0 m 0.0,0.0 l 0.7815204724188182,-0.623879596709387 m -1.5630409448376348,1.2477591934187728 l -1.8369701987210297e-16,-1.0 m 0.0,0.0 m 0.0,0.0 l -1.8369701987210297e-16,-1.0 m 0.0,2.0 l 0.4336590845875438,-0.9010770213220918 l 0.4336590845875438,-0.9010770213220918 l 0.4336590845875438,-0.9010770213220918 m 0.0,0.0 m 0.0,0.0 l 0.4336590845875438,-0.9010770213220918 m -6.071227184225621,12.615078298509331 l -0.43365908458754415,-0.9010770213220917 l -0.43365908458754415,-0.9010770213220917 l -0.43365908458754415,-0.9010770213220917 l -0.43365908458754415,-0.9010770213220917 l -1.8369701987210297e-16,-1.0 l -1.8369701987210297e-16,-1.0 l 0.4336590845875438,-0.9010770213220918 m 0.0,0.0 m 0.0,0.0 l 0.4336590845875438,-0.9010770213220918 m -0.8673181691750873,1.8021540426441902 l -0.43365908458754415,-0.9010770213220917 m 0.0,0.0 m 0.0,0.0 l -0.43365908458754415,-0.9010770213220917 m 0.8673181691750891,1.8021540426441902 l -1.8369701987210297e-16,-1.0 l -1.8369701987210297e-16,-1.0 l -1.8369701987210297e-16,-1.0 m 0.0,0.0 m 0.0,0.0 l -1.8369701987210297e-16,-1.0 m 0.0,6.0 l -0.7815204724188187,-0.6238795967093863 l -0.7815204724188187,-0.6238795967093863 l -0.43365908458754415,-0.9010770213220917 m 0.0,0.0 m 0.0,0.0 l -0.43365908458754415,-0.9010770213220917 m 0.8673181691750882,1.8021540426441902 l -0.9747611941912218,-0.22325011601095143 m 0.0,0.0 m 0.0,0.0 l -0.9747611941912218,-0.22325011601095143 m 1.9495223883824435,0.44650023202190425 l -0.7815204724188187,-0.6238795967093863 l -0.7815204724188187,-0.6238795967093863 l -0.7815204724188187,-0.6238795967093863 m 0.0,0.0 m 0.0,0.0 l -0.7815204724188187,-0.6238795967093863 m 4.6891228345129115,3.7432775802563185 l -0.43365908458754415,-0.9010770213220917 l -0.43365908458754415,-0.9010770213220917 l -0.43365908458754415,-0.9010770213220917 l -0.43365908458754415,-0.9010770213220917 l -0.43365908458754415,-0.9010770213220917 l -0.43365908458754415,-0.9010770213220917 l -1.8369701987210297e-16,-1.0 m 0.0,0.0 m 0.0,0.0 l -1.8369701987210297e-16,-1.0 m 0.0,2.0 l -0.7815204724188187,-0.6238795967093863 m 0.0,0.0 m 0.0,0.0 l -0.7815204724188187,-0.6238795967093863 m 1.5630409448376374,1.2477591934187728 l -0.43365908458754415,-0.9010770213220917 l -0.43365908458754415,-0.9010770213220917 l -0.43365908458754415,-0.9010770213220917 m 0.0,0.0 m 0.0,0.0 l -0.43365908458754415,-0.9010770213220917 m 6.07122718422562,12.615078298509331 l -1.8369701987210297e-16,-1.0 l -1.8369701987210297e-16,-1.0 l -1.8369701987210297e-16,-1.0 l -1.8369701987210297e-16,-1.0 l -1.8369701987210297e-16,-1.0 l -1.8369701987210297e-16,-1.0 l -1.8369701987210297e-16,-1.0 l -1.8369701987210297e-16,-1.0 l -1.8369701987210297e-16,-1.0 l -1.8369701987210297e-16,-1.0 l -1.8369701987210297e-16,-1.0 l -1.8369701987210297e-16,-1.0 l 0.4336590845875438,-0.9010770213220918 l 0.4336590845875438,-0.9010770213220918 l 0.7815204724188182,-0.623879596709387 m 0.0,0.0 m 0.0,0.0 l 0.7815204724188182,-0.623879596709387 m -1.5630409448376357,1.2477591934187728 l -1.8369701987210297e-16,-1.0 m 0.0,0.0 m 0.0,0.0 l -1.8369701987210297e-16,-1.0 m 0.0,2.0 l 0.4336590845875438,-0.9010770213220918 l 0.4336590845875438,-0.9010770213220918 l 0.4336590845875438,-0.9010770213220918 m 0.0,0.0 m 0.0,0.0 l 0.4336590845875438,-0.9010770213220918 m -2.6019545075252646,5.406462127932571 l -0.43365908458754415,-0.9010770213220917 l -0.43365908458754415,-0.9010770213220917 l -1.8369701987210297e-16,-1.0 m 0.0,0.0 m 0.0,0.0 l -1.8369701987210297e-16,-1.0 m 0.0,2.0 l -0.7815204724188187,-0.6238795967093863 m 0.0,0.0 m 0.0,0.0 l -0.7815204724188187,-0.6238795967093863 m 1.5630409448376374,1.2477591934187728 l -0.43365908458754415,-0.9010770213220917 l -0.43365908458754415,-0.9010770213220917 l -0.43365908458754415,-0.9010770213220917 m 0.0,0.0 m 0.0,0.0 l -0.43365908458754415,-0.9010770213220917 m 2.6019545075252672,5.406462127932571 l -1.8369701987210297e-16,-1.0 l -1.8369701987210297e-16,-1.0 l -1.8369701987210297e-16,-1.0 l -1.8369701987210297e-16,-1.0 l -1.8369701987210297e-16,-1.0 l -1.8369701987210297e-16,-1.0 l 0.4336590845875438,-0.9010770213220918 m 0.0,0.0 m 0.0,0.0 l 0.4336590845875438,-0.9010770213220918 m -0.8673181691750873,1.8021540426441902 l -0.43365908458754415,-0.9010770213220917 m 0.0,0.0 m 0.0,0.0 l -0.43365908458754415,-0.9010770213220917 m 0.8673181691750891,1.8021540426441902 l -1.8369701987210297e-16,-1.0 l -1.8369701987210297e-16,-1.0 l -1.8369701987210297e-16,-1.0 m 0.0,0.0 m 0.0,0.0 l -1.8369701987210297e-16,-1.0 m 0.0,30.0 l 0.4336590845875438,-0.9010770213220918 l 0.4336590845875438,-0.9010770213220918 l 0.4336590845875438,-0.9010770213220918 l 0.4336590845875438,-0.9010770213220918 l 0.4336590845875438,-0.9010770213220918 l 0.4336590845875438,-0.9010770213220918 l 0.4336590845875438,-0.9010770213220918 l 0.4336590845875438,-0.9010770213220918 l 0.4336590845875438,-0.9010770213220918 l 0.4336590845875438,-0.9010770213220918 l 0.4336590845875438,-0.9010770213220918 l 0.4336590845875438,-0.9010770213220918 l 0.4336590845875438,-0.9010770213220918 l 0.4336590845875438,-0.9010770213220918 l 0.4336590845875438,-0.9010770213220918 l 0.4336590845875438,-0.9010770213220918 l 0.4336590845875438,-0.9010770213220918 l 0.4336590845875438,-0.9010770213220918 l 0.4336590845875438,-0.9010770213220918 l 0.4336590845875438,-0.9010770213220918 l 0.4336590845875438,-0.9010770213220918 l 0.4336590845875438,-0.9010770213220918 l 0.4336590845875438,-0.9010770213220918 l 0.4336590845875438,-0.9010770213220918 l 0.7815204724188182,-0.623879596709387 l 0.7815204724188182,-0.623879596709387 l 0.7815204724188182,-0.623879596709387 l 0.7815204724188182,-0.623879596709387 l 0.9747611941912214,-0.22325011601095265 l 0.9747611941912214,-0.22325011601095265 l 0.9751493543055636,0.22154849761946563 m 0.0,0.0 m 0.0,0.0 l 0.9751493543055636,0.22154849761946563 m -1.950298708611129,-0.44309699523893187 l 0.7815204724188182,-0.623879596709387 m 0.0,0.0 m 0.0,0.0 l 0.7815204724188182,-0.623879596709387 m -1.5630409448376383,1.2477591934187728 l 0.9747611941912214,-0.22325011601095265 l 0.9747611941912214,-0.22325011601095265 l 0.9747611941912214,-0.22325011601095265 m 0.0,0.0 m 0.0,0.0 l 0.9747611941912214,-0.22325011601095265 m -5.8485671651473226,1.3395006960657554 l 0.4336590845875438,-0.9010770213220918 l 0.4336590845875438,-0.9010770213220918 l 0.7815204724188182,-0.623879596709387 m 0.0,0.0 m 0.0,0.0 l 0.7815204724188182,-0.623879596709387 m -1.5630409448376383,1.2477591934187728 l -1.8369701987210297e-16,-1.0 m 0.0,0.0 m 0.0,0.0 l -1.8369701987210297e-16,-1.0 m 0.0,2.0 l 0.4336590845875438,-0.9010770213220918 l 0.4336590845875438,-0.9010770213220918 l 0.4336590845875438,-0.9010770213220918 m 0.0,0.0 m 0.0,0.0 l 0.4336590845875438,-0.9010770213220918 m -2.6019545075252566,5.406462127932571 l 0.7815204724188182,-0.623879596709387 l 0.7815204724188182,-0.623879596709387 l 0.7815204724188182,-0.623879596709387 l 0.7815204724188182,-0.623879596709387 l 0.7815204724188182,-0.623879596709387 l 0.7815204724188182,-0.623879596709387 l 0.9747611941912214,-0.22325011601095265 m 0.0,0.0 m 0.0,0.0 l 0.9747611941912214,-0.22325011601095265 m -1.9495223883824409,0.44650023202191846 l 0.4336590845875438,-0.9010770213220918 m 0.0,0.0 m 0.0,0.0 l 0.4336590845875438,-0.9010770213220918 m -0.8673181691750855,1.8021540426441902 l 0.7815204724188182,-0.623879596709387 l 0.7815204724188182,-0.623879596709387 l 0.7815204724188182,-0.623879596709387 m 0.0,0.0 m 0.0,0.0 l 0.7815204724188182,-0.623879596709387 m -10.941286613863468,8.73431435393141 l -1.8369701987210297e-16,-1.0 l -1.8369701987210297e-16,-1.0 l -1.8369701987210297e-16,-1.0 l -1.8369701987210297e-16,-1.0 l 0.4336590845875438,-0.9010770213220918 l 0.4336590845875438,-0.9010770213220918 l 0.7815204724188182,-0.623879596709387 m 0.0,0.0 m 0.0,0.0 l 0.7815204724188182,-0.623879596709387 m -1.5630409448376383,1.2477591934187728 l -1.8369701987210297e-16,-1.0 m 0.0,0.0 m 0.0,0.0 l -1.8369701987210297e-16,-1.0 m 0.0,2.0 l 0.4336590845875438,-0.9010770213220918 l 0.4336590845875438,-0.9010770213220918 l 0.4336590845875438,-0.9010770213220918 m 0.0,0.0 m 0.0,0.0 l 0.4336590845875438,-0.9010770213220918 m -2.6019545075252566,5.406462127932571 l -0.43365908458754415,-0.9010770213220917 l -0.43365908458754415,-0.9010770213220917 l -1.8369701987210297e-16,-1.0 m 0.0,0.0 m 0.0,0.0 l -1.8369701987210297e-16,-1.0 m 0.0,2.0 l -0.7815204724188187,-0.6238795967093863 m 0.0,0.0 m 0.0,0.0 l -0.7815204724188187,-0.6238795967093863 m 1.5630409448376383,1.2477591934187728 l -0.43365908458754415,-0.9010770213220917 l -0.43365908458754415,-0.9010770213220917 l -0.43365908458754415,-0.9010770213220917 m 0.0,0.0 m 0.0,0.0 l -0.43365908458754415,-0.9010770213220917 m 2.601954507525262,5.406462127932571 l -1.8369701987210297e-16,-1.0 l -1.8369701987210297e-16,-1.0 l -1.8369701987210297e-16,-1.0 l -1.8369701987210297e-16,-1.0 l -1.8369701987210297e-16,-1.0 l -1.8369701987210297e-16,-1.0 l 0.4336590845875438,-0.9010770213220918 m 0.0,0.0 m 0.0,0.0 l 0.4336590845875438,-0.9010770213220918 m -0.8673181691750855,1.8021540426441902 l -0.43365908458754415,-0.9010770213220917 m 0.0,0.0 m 0.0,0.0 l -0.43365908458754415,-0.9010770213220917 m 0.8673181691750855,1.8021540426441902 l -1.8369701987210297e-16,-1.0 l -1.8369701987210297e-16,-1.0 l -1.8369701987210297e-16,-1.0 m 0.0,0.0 m 0.0,0.0 l -1.8369701987210297e-16,-1.0 m 0.0,14.0 l 0.4336590845875438,-0.9010770213220918 l 0.4336590845875438,-0.9010770213220918 l 0.4336590845875438,-0.9010770213220918 l 0.4336590845875438,-0.9010770213220918 l 0.4336590845875438,-0.9010770213220918 l 0.4336590845875438,-0.9010770213220918 l 0.4336590845875438,-0.9010770213220918 l 0.4336590845875438,-0.9010770213220918 l 0.4336590845875438,-0.9010770213220918 l 0.4336590845875438,-0.9010770213220918 l 0.4336590845875438,-0.9010770213220918 l 0.4336590845875438,-0.9010770213220918 l 0.7815204724188182,-0.623879596709387 l 0.7815204724188182,-0.623879596709387 l 0.9747611941912214,-0.22325011601095265 m 0.0,0.0 m 0.0,0.0 l 0.9747611941912214,-0.22325011601095265 m -1.9495223883824409,0.44650023202191846 l 0.4336590845875438,-0.9010770213220918 m 0.0,0.0 m 0.0,0.0 l 0.4336590845875438,-0.9010770213220918 m -0.8673181691750855,1.8021540426441902 l 0.7815204724188182,-0.623879596709387 l 0.7815204724188182,-0.623879596709387 l 0.7815204724188182,-0.623879596709387 m 0.0,0.0 m 0.0,0.0 l 0.7815204724188182,-0.623879596709387 m -4.689122834512915,3.7432775802563185 l -1.8369701987210297e-16,-1.0 l -1.8369701987210297e-16,-1.0 l 0.4336590845875438,-0.9010770213220918 m 0.0,0.0 m 0.0,0.0 l 0.4336590845875438,-0.9010770213220918 m -0.8673181691750855,1.8021540426441902 l -0.43365908458754415,-0.9010770213220917 m 0.0,0.0 m 0.0,0.0 l -0.43365908458754415,-0.9010770213220917 m 0.8673181691750855,1.8021540426441902 l -1.8369701987210297e-16,-1.0 l -1.8369701987210297e-16,-1.0 l -1.8369701987210297e-16,-1.0 m 0.0,0.0 m 0.0,0.0 l -1.8369701987210297e-16,-1.0 m 0.0,6.0 l 0.4336590845875438,-0.9010770213220918 l 0.4336590845875438,-0.9010770213220918 l 0.4336590845875438,-0.9010770213220918 l 0.4336590845875438,-0.9010770213220918 l 0.4336590845875438,-0.9010770213220918 l 0.4336590845875438,-0.9010770213220918 l 0.7815204724188182,-0.623879596709387 m 0.0,0.0 m 0.0,0.0 l 0.7815204724188182,-0.623879596709387 m -1.5630409448376383,1.2477591934187728 l -1.8369701987210297e-16,-1.0 m 0.0,0.0 m 0.0,0.0 l -1.8369701987210297e-16,-1.0 m 0.0,2.0 l 0.4336590845875438,-0.9010770213220918 l 0.4336590845875438,-0.9010770213220918 l 0.4336590845875438,-0.9010770213220918 m 0.0,0.0 m 0.0,0.0 l 0.4336590845875438,-0.9010770213220918 m -26.8868632444277,55.8667753219699 l -0.43365908458754415,-0.9010770213220917 l -0.43365908458754415,-0.9010770213220917 l -0.43365908458754415,-0.9010770213220917 l -0.43365908458754415,-0.9010770213220917 l -0.43365908458754415,-0.9010770213220917 l -0.43365908458754415,-0.9010770213220917 l -0.43365908458754415,-0.9010770213220917 l -0.43365908458754415,-0.9010770213220917 l -0.43365908458754415,-0.9010770213220917 l -0.43365908458754415,-0.9010770213220917 l -0.43365908458754415,-0.9010770213220917 l -0.43365908458754415,-0.9010770213220917 l -0.43365908458754415,-0.9010770213220917 l -0.43365908458754415,-0.9010770213220917 l -0.43365908458754415,-0.9010770213220917 l -0.43365908458754415,-0.9010770213220917 l -1.8369701987210297e-16,-1.0 l -1.8369701987210297e-16,-1.0 l -1.8369701987210297e-16,-1.0 l -1.8369701987210297e-16,-1.0 l -1.8369701987210297e-16,-1.0 l -1.8369701987210297e-16,-1.0 l -1.8369701987210297e-16,-1.0 l -1.8369701987210297e-16,-1.0 l 0.4336590845875438,-0.9010770213220918 l 0.4336590845875438,-0.9010770213220918 l 0.4336590845875438,-0.9010770213220918 l 0.4336590845875438,-0.9010770213220918 l 0.7815204724188182,-0.623879596709387 l 0.7815204724188182,-0.623879596709387 l 0.9747611941912214,-0.22325011601095265 m 0.0,0.0 m 0.0,0.0 l 0.9747611941912214,-0.22325011601095265 m -1.9495223883824426,0.44650023202190425 l 0.4336590845875438,-0.9010770213220918 m 0.0,0.0 m 0.0,0.0 l 0.4336590845875438,-0.9010770213220918 m -0.8673181691750873,1.8021540426441902 l 0.7815204724188182,-0.623879596709387 l 0.7815204724188182,-0.623879596709387 l 0.7815204724188182,-0.623879596709387 m 0.0,0.0 m 0.0,0.0 l 0.7815204724188182,-0.623879596709387 m -4.68912283451291,3.7432775802563185 l -1.8369701987210297e-16,-1.0 l -1.8369701987210297e-16,-1.0 l 0.4336590845875438,-0.9010770213220918 m 0.0,0.0 m 0.0,0.0 l 0.4336590845875438,-0.9010770213220918 m -0.8673181691750873,1.8021540426441902 l -0.43365908458754415,-0.9010770213220917 m 0.0,0.0 m 0.0,0.0 l -0.43365908458754415,-0.9010770213220917 m 0.8673181691750891,1.8021540426441902 l -1.8369701987210297e-16,-1.0 l -1.8369701987210297e-16,-1.0 l -1.8369701987210297e-16,-1.0 m 0.0,0.0 m 0.0,0.0 l -1.8369701987210297e-16,-1.0 m 0.0,6.0 l 0.4336590845875438,-0.9010770213220918 l 0.4336590845875438,-0.9010770213220918 l 0.4336590845875438,-0.9010770213220918 l 0.4336590845875438,-0.9010770213220918 l 0.4336590845875438,-0.9010770213220918 l 0.4336590845875438,-0.9010770213220918 l 0.7815204724188182,-0.623879596709387 m 0.0,0.0 m 0.0,0.0 l 0.7815204724188182,-0.623879596709387 m -1.5630409448376366,1.2477591934187728 l -1.8369701987210297e-16,-1.0 m 0.0,0.0 m 0.0,0.0 l -1.8369701987210297e-16,-1.0 m 0.0,2.0 l 0.4336590845875438,-0.9010770213220918 l 0.4336590845875438,-0.9010770213220918 l 0.4336590845875438,-0.9010770213220918 m 0.0,0.0 m 0.0,0.0 l 0.4336590845875438,-0.9010770213220918 m -6.071227184225612,12.615078298509331 l -0.43365908458754415,-0.9010770213220917 l -0.43365908458754415,-0.9010770213220917 l -0.43365908458754415,-0.9010770213220917 l -0.43365908458754415,-0.9010770213220917 l -1.8369701987210297e-16,-1.0 l -1.8369701987210297e-16,-1.0 l 0.4336590845875438,-0.9010770213220918 m 0.0,0.0 m 0.0,0.0 l 0.4336590845875438,-0.9010770213220918 m -0.8673181691750882,1.8021540426441902 l -0.43365908458754415,-0.9010770213220917 m 0.0,0.0 m 0.0,0.0 l -0.43365908458754415,-0.9010770213220917 m 0.8673181691750891,1.8021540426441902 l -1.8369701987210297e-16,-1.0 l -1.8369701987210297e-16,-1.0 l -1.8369701987210297e-16,-1.0 m 0.0,0.0 m 0.0,0.0 l -1.8369701987210297e-16,-1.0 m 0.0,6.0 l -0.7815204724188187,-0.6238795967093863 l -0.7815204724188187,-0.6238795967093863 l -0.43365908458754415,-0.9010770213220917 m 0.0,0.0 m 0.0,0.0 l -0.43365908458754415,-0.9010770213220917 m 0.8673181691750891,1.8021540426441902 l -0.9747611941912218,-0.22325011601095143 m 0.0,0.0 m 0.0,0.0 l -0.9747611941912218,-0.22325011601095143 m 1.9495223883824444,0.44650023202190425 l -0.7815204724188187,-0.6238795967093863 l -0.7815204724188187,-0.6238795967093863 l -0.7815204724188187,-0.6238795967093863 m 0.0,0.0 m 0.0,0.0 l -0.7815204724188187,-0.6238795967093863 m 4.689122834512915,3.7432775802563185 l -0.43365908458754415,-0.9010770213220917 l -0.43365908458754415,-0.9010770213220917 l -0.43365908458754415,-0.9010770213220917 l -0.43365908458754415,-0.9010770213220917 l -0.43365908458754415,-0.9010770213220917 l -0.43365908458754415,-0.9010770213220917 l -1.8369701987210297e-16,-1.0 m 0.0,0.0 m 0.0,0.0 l -1.8369701987210297e-16,-1.0 m 0.0,2.0 l -0.7815204724188187,-0.6238795967093863 m 0.0,0.0 m 0.0,0.0 l -0.7815204724188187,-0.6238795967093863 m 1.5630409448376383,1.2477591934187728 l -0.43365908458754415,-0.9010770213220917 l -0.43365908458754415,-0.9010770213220917 l -0.43365908458754415,-0.9010770213220917 m 0.0,0.0 m 0.0,0.0 l -0.43365908458754415,-0.9010770213220917 m 6.071227184225624,12.615078298509331 l -1.8369701987210297e-16,-1.0 l -1.8369701987210297e-16,-1.0 l -1.8369701987210297e-16,-1.0 l -1.8369701987210297e-16,-1.0 l -1.8369701987210297e-16,-1.0 l -1.8369701987210297e-16,-1.0 l -1.8369701987210297e-16,-1.0 l -1.8369701987210297e-16,-1.0 l -1.8369701987210297e-16,-1.0 l -1.8369701987210297e-16,-1.0 l -1.8369701987210297e-16,-1.0 l -1.8369701987210297e-16,-1.0 l 0.4336590845875438,-0.9010770213220918 l 0.4336590845875438,-0.9010770213220918 l 0.7815204724188182,-0.623879596709387 m 0.0,0.0 m 0.0,0.0 l 0.7815204724188182,-0.623879596709387 m -1.5630409448376366,1.2477591934187728 l -1.8369701987210297e-16,-1.0 m 0.0,0.0 m 0.0,0.0 l -1.8369701987210297e-16,-1.0 m 0.0,2.0 l 0.4336590845875438,-0.9010770213220918 l 0.4336590845875438,-0.9010770213220918 l 0.4336590845875438,-0.9010770213220918 m 0.0,0.0 m 0.0,0.0 l 0.4336590845875438,-0.9010770213220918 m -2.601954507525262,5.406462127932571 l -0.43365908458754415,-0.9010770213220917 l -0.43365908458754415,-0.9010770213220917 l -1.8369701987210297e-16,-1.0 m 0.0,0.0 m 0.0,0.0 l -1.8369701987210297e-16,-1.0 m 0.0,2.0 l -0.7815204724188187,-0.6238795967093863 m 0.0,0.0 m 0.0,0.0 l -0.7815204724188187,-0.6238795967093863 m 1.5630409448376383,1.2477591934187728 l -0.43365908458754415,-0.9010770213220917 l -0.43365908458754415,-0.9010770213220917 l -0.43365908458754415,-0.9010770213220917 m 0.0,0.0 m 0.0,0.0 l -0.43365908458754415,-0.9010770213220917 m 2.6019545075252672,5.406462127932571 l -1.8369701987210297e-16,-1.0 l -1.8369701987210297e-16,-1.0 l -1.8369701987210297e-16,-1.0 l -1.8369701987210297e-16,-1.0 l -1.8369701987210297e-16,-1.0 l -1.8369701987210297e-16,-1.0 l 0.4336590845875438,-0.9010770213220918 m 0.0,0.0 m 0.0,0.0 l 0.4336590845875438,-0.9010770213220918 m -0.8673181691750873,1.8021540426441902 l -0.43365908458754415,-0.9010770213220917 m 0.0,0.0 m 0.0,0.0 l -0.43365908458754415,-0.9010770213220917 m 0.8673181691750891,1.8021540426441902 l -1.8369701987210297e-16,-1.0 l -1.8369701987210297e-16,-1.0 l -1.8369701987210297e-16,-1.0 m 0.0,0.0 m 0.0,0.0 l -1.8369701987210297e-16,-1.0 m 0.0,30.0 l -0.7815204724188187,-0.6238795967093863 l -0.7815204724188187,-0.6238795967093863 l -0.7815204724188187,-0.6238795967093863 l -0.7815204724188187,-0.6238795967093863 l -0.7815204724188187,-0.6238795967093863 l -0.7815204724188187,-0.6238795967093863 l -0.7815204724188187,-0.6238795967093863 l -0.7815204724188187,-0.6238795967093863 l -0.43365908458754415,-0.9010770213220917 l -0.43365908458754415,-0.9010770213220917 l -0.43365908458754415,-0.9010770213220917 l -0.43365908458754415,-0.9010770213220917 l -1.8369701987210297e-16,-1.0 l -1.8369701987210297e-16,-1.0 l 0.4336590845875438,-0.9010770213220918 m 0.0,0.0 m 0.0,0.0 l 0.4336590845875438,-0.9010770213220918 m -0.8673181691750891,1.8021540426441902 l -0.43365908458754415,-0.9010770213220917 m 0.0,0.0 m 0.0,0.0 l -0.43365908458754415,-0.9010770213220917 m 0.8673181691750891,1.8021540426441902 l -1.8369701987210297e-16,-1.0 l -1.8369701987210297e-16,-1.0 l -1.8369701987210297e-16,-1.0 m 0.0,0.0 m 0.0,0.0 l -1.8369701987210297e-16,-1.0 m 0.0,6.0 l -0.7815204724188187,-0.6238795967093863 l -0.7815204724188187,-0.6238795967093863 l -0.43365908458754415,-0.9010770213220917 m 0.0,0.0 m 0.0,0.0 l -0.43365908458754415,-0.9010770213220917 m 0.8673181691750855,1.8021540426441902 l -0.9747611941912218,-0.22325011601095143 m 0.0,0.0 m 0.0,0.0 l -0.9747611941912218,-0.22325011601095143 m 1.9495223883824409,0.44650023202190425 l -0.7815204724188187,-0.6238795967093863 l -0.7815204724188187,-0.6238795967093863 l -0.7815204724188187,-0.6238795967093863 m 0.0,0.0 m 0.0,0.0 l -0.7815204724188187,-0.6238795967093863 m 4.689122834512913,3.7432775802563185 l -0.43365908458754415,-0.9010770213220917 l -0.43365908458754415,-0.9010770213220917 l -0.43365908458754415,-0.9010770213220917 l -0.43365908458754415,-0.9010770213220917 l -0.43365908458754415,-0.9010770213220917 l -0.43365908458754415,-0.9010770213220917 l -1.8369701987210297e-16,-1.0 m 0.0,0.0 m 0.0,0.0 l -1.8369701987210297e-16,-1.0 m 0.0,2.0 l -0.7815204724188187,-0.6238795967093863 m 0.0,0.0 m 0.0,0.0 l -0.7815204724188187,-0.6238795967093863 m 1.5630409448376383,1.2477591934187728 l -0.43365908458754415,-0.9010770213220917 l -0.43365908458754415,-0.9010770213220917 l -0.43365908458754415,-0.9010770213220917 m 0.0,0.0 m 0.0,0.0 l -0.43365908458754415,-0.9010770213220917 m 6.071227184225611,12.615078298509331 l -0.9747611941912218,-0.22325011601095143 l -0.9747611941912218,-0.22325011601095143 l -0.9747611941912218,-0.22325011601095143 l -0.9747611941912218,-0.22325011601095143 l -0.7815204724188187,-0.6238795967093863 l -0.7815204724188187,-0.6238795967093863 l -0.43365908458754415,-0.9010770213220917 m 0.0,0.0 m 0.0,0.0 l -0.43365908458754415,-0.9010770213220917 m 0.8673181691750855,1.8021540426441902 l -0.9747611941912218,-0.22325011601095143 m 0.0,0.0 m 0.0,0.0 l -0.9747611941912218,-0.22325011601095143 m 1.9495223883824409,0.44650023202190425 l -0.7815204724188187,-0.6238795967093863 l -0.7815204724188187,-0.6238795967093863 l -0.7815204724188187,-0.6238795967093863 m 0.0,0.0 m 0.0,0.0 l -0.7815204724188187,-0.6238795967093863 m 4.689122834512915,3.7432775802563185 l -0.9751493543055633,0.2215484976194673 l -0.9751493543055633,0.2215484976194673 l -0.9747611941912218,-0.22325011601095143 m 0.0,0.0 m 0.0,0.0 l -0.9747611941912218,-0.22325011601095143 m 1.9495223883824409,0.44650023202190425 l -0.7826081568524139,0.6225146366376196 m 0.0,0.0 m 0.0,0.0 l -0.7826081568524139,0.6225146366376196 m 1.5652163137048305,-1.245029273275236 l -0.9751493543055633,0.2215484976194673 l -0.9751493543055633,0.2215484976194673 l -0.9751493543055633,0.2215484976194673 m 0.0,0.0 m 0.0,0.0 l -0.9751493543055633,0.2215484976194673 m 5.850896125833387,-1.3292909857167956 l -0.9747611941912218,-0.22325011601095143 l -0.9747611941912218,-0.22325011601095143 l -0.9747611941912218,-0.22325011601095143 l -0.9747611941912218,-0.22325011601095143 l -0.9747611941912218,-0.22325011601095143 l -0.9747611941912218,-0.22325011601095143 l -0.7815204724188187,-0.6238795967093863 m 0.0,0.0 m 0.0,0.0 l -0.7815204724188187,-0.6238795967093863 m 1.5630409448376383,1.2477591934187728 l -0.9751493543055633,0.2215484976194673 m 0.0,0.0 m 0.0,0.0 l -0.9751493543055633,0.2215484976194673 m 1.950298708611129,-0.44309699523893187 l -0.9747611941912218,-0.22325011601095143 l -0.9747611941912218,-0.22325011601095143 l -0.9747611941912218,-0.22325011601095143 m 0.0,0.0 m 0.0,0.0 l -0.9747611941912218,-0.22325011601095143 m 13.646656718677091,3.1255016241533298 l -0.7815204724188187,-0.6238795967093863 l -0.7815204724188187,-0.6238795967093863 l -0.7815204724188187,-0.6238795967093863 l -0.7815204724188187,-0.6238795967093863 l -0.7815204724188187,-0.6238795967093863 l -0.7815204724188187,-0.6238795967093863 l -0.7815204724188187,-0.6238795967093863 l -0.7815204724188187,-0.6238795967093863 l -0.7815204724188187,-0.6238795967093863 l -0.7815204724188187,-0.6238795967093863 l -0.7815204724188187,-0.6238795967093863 l -0.7815204724188187,-0.6238795967093863 l -0.43365908458754415,-0.9010770213220917 l -0.43365908458754415,-0.9010770213220917 l -1.8369701987210297e-16,-1.0 m 0.0,0.0 m 0.0,0.0 l -1.8369701987210297e-16,-1.0 m 0.0,2.0 l -0.7815204724188187,-0.6238795967093863 m 0.0,0.0 m 0.0,0.0 l -0.7815204724188187,-0.6238795967093863 m 1.5630409448376383,1.2477591934187728 l -0.43365908458754415,-0.9010770213220917 l -0.43365908458754415,-0.9010770213220917 l -0.43365908458754415,-0.9010770213220917 m 0.0,0.0 m 0.0,0.0 l -0.43365908458754415,-0.9010770213220917 m 2.6019545075252566,5.406462127932571 l -0.9747611941912218,-0.22325011601095143 l -0.9747611941912218,-0.22325011601095143 l -0.7815204724188187,-0.6238795967093863 m 0.0,0.0 m 0.0,0.0 l -0.7815204724188187,-0.6238795967093863 m 1.5630409448376383,1.2477591934187728 l -0.9751493543055633,0.2215484976194673 m 0.0,0.0 m 0.0,0.0 l -0.9751493543055633,0.2215484976194673 m 1.950298708611129,-0.44309699523893187 l -0.9747611941912218,-0.22325011601095143 l -0.9747611941912218,-0.22325011601095143 l -0.9747611941912218,-0.22325011601095143 m 0.0,0.0 m 0.0,0.0 l -0.9747611941912218,-0.22325011601095143 m 5.8485671651473226,1.3395006960657128 l -0.7815204724188187,-0.6238795967093863 l -0.7815204724188187,-0.6238795967093863 l -0.7815204724188187,-0.6238795967093863 l -0.7815204724188187,-0.6238795967093863 l -0.7815204724188187,-0.6238795967093863 l -0.7815204724188187,-0.6238795967093863 l -0.43365908458754415,-0.9010770213220917 m 0.0,0.0 m 0.0,0.0 l -0.43365908458754415,-0.9010770213220917 m 0.8673181691750855,1.8021540426441902 l -0.9747611941912218,-0.22325011601095143 m 0.0,0.0 m 0.0,0.0 l -0.9747611941912218,-0.22325011601095143 m 1.9495223883824409,0.44650023202190425 l -0.7815204724188187,-0.6238795967093863 l -0.7815204724188187,-0.6238795967093863 l -0.7815204724188187,-0.6238795967093863 m 0.0,0.0 m 0.0,0.0 l -0.7815204724188187,-0.6238795967093863 m 23.445614172564575,18.716387901281593 l -0.43365908458754415,-0.9010770213220917 l -0.43365908458754415,-0.9010770213220917 l -0.43365908458754415,-0.9010770213220917 l -0.43365908458754415,-0.9010770213220917 l -0.43365908458754415,-0.9010770213220917 l -0.43365908458754415,-0.9010770213220917 l -0.43365908458754415,-0.9010770213220917 l -0.43365908458754415,-0.9010770213220917 l -0.43365908458754415,-0.9010770213220917 l -0.43365908458754415,-0.9010770213220917 l -0.43365908458754415,-0.9010770213220917 l -0.43365908458754415,-0.9010770213220917 l -0.43365908458754415,-0.9010770213220917 l -0.43365908458754415,-0.9010770213220917 l -0.43365908458754415,-0.9010770213220917 l -0.43365908458754415,-0.9010770213220917 l -0.43365908458754415,-0.9010770213220917 l -0.43365908458754415,-0.9010770213220917 l -0.43365908458754415,-0.9010770213220917 l -0.43365908458754415,-0.9010770213220917 l -0.43365908458754415,-0.9010770213220917 l -0.43365908458754415,-0.9010770213220917 l -0.43365908458754415,-0.9010770213220917 l -0.43365908458754415,-0.9010770213220917 l -1.8369701987210297e-16,-1.0 l -1.8369701987210297e-16,-1.0 l -1.8369701987210297e-16,-1.0 l -1.8369701987210297e-16,-1.0 l 0.4336590845875438,-0.9010770213220918 l 0.4336590845875438,-0.9010770213220918 l 0.7815204724188182,-0.623879596709387 m 0.0,0.0 m 0.0,0.0 l 0.7815204724188182,-0.623879596709387 m -1.5630409448376348,1.2477591934187728 l -1.8369701987210297e-16,-1.0 m 0.0,0.0 m 0.0,0.0 l -1.8369701987210297e-16,-1.0 m 0.0,2.0 l 0.4336590845875438,-0.9010770213220918 l 0.4336590845875438,-0.9010770213220918 l 0.4336590845875438,-0.9010770213220918 m 0.0,0.0 m 0.0,0.0 l 0.4336590845875438,-0.9010770213220918 m -2.601954507525262,5.406462127932571 l -0.43365908458754415,-0.9010770213220917 l -0.43365908458754415,-0.9010770213220917 l -1.8369701987210297e-16,-1.0 m 0.0,0.0 m 0.0,0.0 l -1.8369701987210297e-16,-1.0 m 0.0,2.0 l -0.7815204724188187,-0.6238795967093863 m 0.0,0.0 m 0.0,0.0 l -0.7815204724188187,-0.6238795967093863 m 1.5630409448376383,1.2477591934187728 l -0.43365908458754415,-0.9010770213220917 l -0.43365908458754415,-0.9010770213220917 l -0.43365908458754415,-0.9010770213220917 m 0.0,0.0 m 0.0,0.0 l -0.43365908458754415,-0.9010770213220917 m 2.6019545075252566,5.406462127932571 l -1.8369701987210297e-16,-1.0 l -1.8369701987210297e-16,-1.0 l -1.8369701987210297e-16,-1.0 l -1.8369701987210297e-16,-1.0 l -1.8369701987210297e-16,-1.0 l -1.8369701987210297e-16,-1.0 l 0.4336590845875438,-0.9010770213220918 m 0.0,0.0 m 0.0,0.0 l 0.4336590845875438,-0.9010770213220918 m -0.8673181691750855,1.8021540426441902 l -0.43365908458754415,-0.9010770213220917 m 0.0,0.0 m 0.0,0.0 l -0.43365908458754415,-0.9010770213220917 m 0.8673181691750855,1.8021540426441902 l -1.8369701987210297e-16,-1.0 l -1.8369701987210297e-16,-1.0 l -1.8369701987210297e-16,-1.0 m 0.0,0.0 m 0.0,0.0 l -1.8369701987210297e-16,-1.0 m 0.0,14.0 l -0.7815204724188187,-0.6238795967093863 l -0.7815204724188187,-0.6238795967093863 l -0.7815204724188187,-0.6238795967093863 l -0.7815204724188187,-0.6238795967093863 l -0.43365908458754415,-0.9010770213220917 l -0.43365908458754415,-0.9010770213220917 l -1.8369701987210297e-16,-1.0 m 0.0,0.0 m 0.0,0.0 l -1.8369701987210297e-16,-1.0 m 0.0,2.0 l -0.7815204724188187,-0.6238795967093863 m 0.0,0.0 m 0.0,0.0 l -0.7815204724188187,-0.6238795967093863 m 1.5630409448376383,1.2477591934187728 l -0.43365908458754415,-0.9010770213220917 l -0.43365908458754415,-0.9010770213220917 l -0.43365908458754415,-0.9010770213220917 m 0.0,0.0 m 0.0,0.0 l -0.43365908458754415,-0.9010770213220917 m 2.6019545075252566,5.406462127932571 l -0.9747611941912218,-0.22325011601095143 l -0.9747611941912218,-0.22325011601095143 l -0.7815204724188187,-0.6238795967093863 m 0.0,0.0 m 0.0,0.0 l -0.7815204724188187,-0.6238795967093863 m 1.5630409448376383,1.2477591934187728 l -0.9751493543055633,0.2215484976194673 m 0.0,0.0 m 0.0,0.0 l -0.9751493543055633,0.2215484976194673 m 1.950298708611129,-0.44309699523893187 l -0.9747611941912218,-0.22325011601095143 l -0.9747611941912218,-0.22325011601095143 l -0.9747611941912218,-0.22325011601095143 m 0.0,0.0 m 0.0,0.0 l -0.9747611941912218,-0.22325011601095143 m 5.8485671651473226,1.3395006960656701 l -0.7815204724188187,-0.6238795967093863 l -0.7815204724188187,-0.6238795967093863 l -0.7815204724188187,-0.6238795967093863 l -0.7815204724188187,-0.6238795967093863 l -0.7815204724188187,-0.6238795967093863 l -0.7815204724188187,-0.6238795967093863 l -0.43365908458754415,-0.9010770213220917 m 0.0,0.0 m 0.0,0.0 l -0.43365908458754415,-0.9010770213220917 m 0.8673181691750855,1.8021540426441902 l -0.9747611941912218,-0.22325011601095143 m 0.0,0.0 m 0.0,0.0 l -0.9747611941912218,-0.22325011601095143 m 1.9495223883824409,0.44650023202189004 l -0.7815204724188187,-0.6238795967093863 l -0.7815204724188187,-0.6238795967093863 l -0.7815204724188187,-0.6238795967093863 m 0.0,0.0 m 0.0,0.0 l -0.7815204724188187,-0.6238795967093863 m 10.941286613863468,8.73431435393141 l -0.43365908458754415,-0.9010770213220917 l -0.43365908458754415,-0.9010770213220917 l -0.43365908458754415,-0.9010770213220917 l -0.43365908458754415,-0.9010770213220917 l -0.43365908458754415,-0.9010770213220917 l -0.43365908458754415,-0.9010770213220917 l -0.43365908458754415,-0.9010770213220917 l -0.43365908458754415,-0.9010770213220917 l -0.43365908458754415,-0.9010770213220917 l -0.43365908458754415,-0.9010770213220917 l -0.43365908458754415,-0.9010770213220917 l -0.43365908458754415,-0.9010770213220917 l -1.8369701987210297e-16,-1.0 l -1.8369701987210297e-16,-1.0 l 0.4336590845875438,-0.9010770213220918 m 0.0,0.0 m 0.0,0.0 l 0.4336590845875438,-0.9010770213220918 m -0.8673181691750855,1.8021540426441902 l -0.43365908458754415,-0.9010770213220917 m 0.0,0.0 m 0.0,0.0 l -0.43365908458754415,-0.9010770213220917 m 0.8673181691750855,1.8021540426441902 l -1.8369701987210297e-16,-1.0 l -1.8369701987210297e-16,-1.0 l -1.8369701987210297e-16,-1.0 m 0.0,0.0 m 0.0,0.0 l -1.8369701987210297e-16,-1.0 m 0.0,6.0 l -0.7815204724188187,-0.6238795967093863 l -0.7815204724188187,-0.6238795967093863 l -0.43365908458754415,-0.9010770213220917 m 0.0,0.0 m 0.0,0.0 l -0.43365908458754415,-0.9010770213220917 m 0.8673181691750855,1.8021540426441902 l -0.9747611941912218,-0.22325011601095143 m 0.0,0.0 m 0.0,0.0 l -0.9747611941912218,-0.22325011601095143 m 1.9495223883824409,0.44650023202189004 l -0.7815204724188187,-0.6238795967093863 l -0.7815204724188187,-0.6238795967093863 l -0.7815204724188187,-0.6238795967093863 m 0.0,0.0 m 0.0,0.0 l -0.7815204724188187,-0.6238795967093863 m 4.689122834512915,3.7432775802563185 l -0.43365908458754415,-0.9010770213220917 l -0.43365908458754415,-0.9010770213220917 l -0.43365908458754415,-0.9010770213220917 l -0.43365908458754415,-0.9010770213220917 l -0.43365908458754415,-0.9010770213220917 l -0.43365908458754415,-0.9010770213220917 l -1.8369701987210297e-16,-1.0 m 0.0,0.0 m 0.0,0.0 l -1.8369701987210297e-16,-1.0 m 0.0,2.0 l -0.7815204724188187,-0.6238795967093863 m 0.0,0.0 m 0.0,0.0 l -0.7815204724188187,-0.6238795967093863 m 1.5630409448376383,1.2477591934187728 l -0.43365908458754415,-0.9010770213220917 l -0.43365908458754415,-0.9010770213220917 l -0.43365908458754415,-0.9010770213220917 m 0.0,0.0 m 0.0,0.0 l -0.43365908458754415,-0.9010770213220917 m 26.886863244427712,55.8667753219699 l -1.8369701987210297e-16,-1.0 l -1.8369701987210297e-16,-1.0 l -1.8369701987210297e-16,-1.0 l -1.8369701987210297e-16,-1.0 l -1.8369701987210297e-16,-1.0 l -1.8369701987210297e-16,-1.0 l -1.8369701987210297e-16,-1.0 l -1.8369701987210297e-16,-1.0 l -1.8369701987210297e-16,-1.0 l -1.8369701987210297e-16,-1.0 l -1.8369701987210297e-16,-1.0 l -1.8369701987210297e-16,-1.0 l -1.8369701987210297e-16,-1.0 l -1.8369701987210297e-16,-1.0 l -1.8369701987210297e-16,-1.0 l -1.8369701987210297e-16,-1.0 l -1.8369701987210297e-16,-1.0 l -1.8369701987210297e-16,-1.0 l -1.8369701987210297e-16,-1.0 l -1.8369701987210297e-16,-1.0 l -1.8369701987210297e-16,-1.0 l -1.8369701987210297e-16,-1.0 l -1.8369701987210297e-16,-1.0 l -1.8369701987210297e-16,-1.0 l -1.8369701987210297e-16,-1.0 l -1.8369701987210297e-16,-1.0 l -1.8369701987210297e-16,-1.0 l -1.8369701987210297e-16,-1.0 l -1.8369701987210297e-16,-1.0 l -1.8369701987210297e-16,-1.0 l -1.8369701987210297e-16,-1.0 l -1.8369701987210297e-16,-1.0 l -1.8369701987210297e-16,-1.0 l -1.8369701987210297e-16,-1.0 l -1.8369701987210297e-16,-1.0 l -1.8369701987210297e-16,-1.0 l -1.8369701987210297e-16,-1.0 l -1.8369701987210297e-16,-1.0 l -1.8369701987210297e-16,-1.0 l -1.8369701987210297e-16,-1.0 l -1.8369701987210297e-16,-1.0 l -1.8369701987210297e-16,-1.0 l -1.8369701987210297e-16,-1.0 l -1.8369701987210297e-16,-1.0 l -1.8369701987210297e-16,-1.0 l -1.8369701987210297e-16,-1.0 l -1.8369701987210297e-16,-1.0 l -1.8369701987210297e-16,-1.0 l 0.4336590845875438,-0.9010770213220918 l 0.4336590845875438,-0.9010770213220918 l 0.4336590845875438,-0.9010770213220918 l 0.4336590845875438,-0.9010770213220918 l 0.4336590845875438,-0.9010770213220918 l 0.4336590845875438,-0.9010770213220918 l 0.4336590845875438,-0.9010770213220918 l 0.4336590845875438,-0.9010770213220918 l 0.7815204724188182,-0.623879596709387 l 0.7815204724188182,-0.623879596709387 l 0.7815204724188182,-0.623879596709387 l 0.7815204724188182,-0.623879596709387 l 0.9747611941912214,-0.22325011601095265 l 0.9747611941912214,-0.22325011601095265 l 0.9751493543055636,0.22154849761946563 m 0.0,0.0 m 0.0,0.0 l 0.9751493543055636,0.22154849761946563 m -1.9502987086111272,-0.44309699523893187 l 0.7815204724188182,-0.623879596709387 m 0.0,0.0 m 0.0,0.0 l 0.7815204724188182,-0.623879596709387 m -1.5630409448376348,1.2477591934187728 l 0.9747611941912214,-0.22325011601095265 l 0.9747611941912214,-0.22325011601095265 l 0.9747611941912214,-0.22325011601095265 m 0.0,0.0 m 0.0,0.0 l 0.9747611941912214,-0.22325011601095265 m -5.848567165147331,1.3395006960657554 l 0.4336590845875438,-0.9010770213220918 l 0.4336590845875438,-0.9010770213220918 l 0.7815204724188182,-0.623879596709387 m 0.0,0.0 m 0.0,0.0 l 0.7815204724188182,-0.623879596709387 m -1.5630409448376348,1.2477591934187728 l -1.8369701987210297e-16,-1.0 m 0.0,0.0 m 0.0,0.0 l -1.8369701987210297e-16,-1.0 m 0.0,2.0 l 0.4336590845875438,-0.9010770213220918 l 0.4336590845875438,-0.9010770213220918 l 0.4336590845875438,-0.9010770213220918 m 0.0,0.0 m 0.0,0.0 l 0.4336590845875438,-0.9010770213220918 m -2.6019545075252637,5.406462127932571 l 0.7815204724188182,-0.623879596709387 l 0.7815204724188182,-0.623879596709387 l 0.7815204724188182,-0.623879596709387 l 0.7815204724188182,-0.623879596709387 l 0.7815204724188182,-0.623879596709387 l 0.7815204724188182,-0.623879596709387 l 0.9747611941912214,-0.22325011601095265 m 0.0,0.0 m 0.0,0.0 l 0.9747611941912214,-0.22325011601095265 m -1.9495223883824444,0.44650023202191846 l 0.4336590845875438,-0.9010770213220918 m 0.0,0.0 m 0.0,0.0 l 0.4336590845875438,-0.9010770213220918 m -0.8673181691750891,1.8021540426441902 l 0.7815204724188182,-0.623879596709387 l 0.7815204724188182,-0.623879596709387 l 0.7815204724188182,-0.623879596709387 m 0.0,0.0 m 0.0,0.0 l 0.7815204724188182,-0.623879596709387 m -10.941286613863449,8.73431435393141 l -1.8369701987210297e-16,-1.0 l -1.8369701987210297e-16,-1.0 l -1.8369701987210297e-16,-1.0 l -1.8369701987210297e-16,-1.0 l 0.4336590845875438,-0.9010770213220918 l 0.4336590845875438,-0.9010770213220918 l 0.7815204724188182,-0.623879596709387 m 0.0,0.0 m 0.0,0.0 l 0.7815204724188182,-0.623879596709387 m -1.5630409448376366,1.2477591934187728 l -1.8369701987210297e-16,-1.0 m 0.0,0.0 m 0.0,0.0 l -1.8369701987210297e-16,-1.0 m 0.0,2.0 l 0.4336590845875438,-0.9010770213220918 l 0.4336590845875438,-0.9010770213220918 l 0.4336590845875438,-0.9010770213220918 m 0.0,0.0 m 0.0,0.0 l 0.4336590845875438,-0.9010770213220918 m -2.6019545075252624,5.406462127932571 l -0.43365908458754415,-0.9010770213220917 l -0.43365908458754415,-0.9010770213220917 l -1.8369701987210297e-16,-1.0 m 0.0,0.0 m 0.0,0.0 l -1.8369701987210297e-16,-1.0 m 0.0,2.0 l -0.7815204724188187,-0.6238795967093863 m 0.0,0.0 m 0.0,0.0 l -0.7815204724188187,-0.6238795967093863 m 1.5630409448376374,1.2477591934187728 l -0.43365908458754415,-0.9010770213220917 l -0.43365908458754415,-0.9010770213220917 l -0.43365908458754415,-0.9010770213220917 m 0.0,0.0 m 0.0,0.0 l -0.43365908458754415,-0.9010770213220917 m 2.6019545075252646,5.406462127932571 l -1.8369701987210297e-16,-1.0 l -1.8369701987210297e-16,-1.0 l -1.8369701987210297e-16,-1.0 l -1.8369701987210297e-16,-1.0 l -1.8369701987210297e-16,-1.0 l -1.8369701987210297e-16,-1.0 l 0.4336590845875438,-0.9010770213220918 m 0.0,0.0 m 0.0,0.0 l 0.4336590845875438,-0.9010770213220918 m -0.8673181691750877,1.8021540426441902 l -0.43365908458754415,-0.9010770213220917 m 0.0,0.0 m 0.0,0.0 l -0.43365908458754415,-0.9010770213220917 m 0.8673181691750882,1.8021540426441902 l -1.8369701987210297e-16,-1.0 l -1.8369701987210297e-16,-1.0 l -1.8369701987210297e-16,-1.0 m 0.0,0.0 m 0.0,0.0 l -1.8369701987210297e-16,-1.0 m 0.0,14.0 l 0.4336590845875438,-0.9010770213220918 l 0.4336590845875438,-0.9010770213220918 l 0.4336590845875438,-0.9010770213220918 l 0.4336590845875438,-0.9010770213220918 l 0.4336590845875438,-0.9010770213220918 l 0.4336590845875438,-0.9010770213220918 l 0.4336590845875438,-0.9010770213220918 l 0.4336590845875438,-0.9010770213220918 l 0.4336590845875438,-0.9010770213220918 l 0.4336590845875438,-0.9010770213220918 l 0.4336590845875438,-0.9010770213220918 l 0.4336590845875438,-0.9010770213220918 l 0.7815204724188182,-0.623879596709387 l 0.7815204724188182,-0.623879596709387 l 0.9747611941912214,-0.22325011601095265 m 0.0,0.0 m 0.0,0.0 l 0.9747611941912214,-0.22325011601095265 m -1.9495223883824444,0.44650023202191846 l 0.4336590845875438,-0.9010770213220918 m 0.0,0.0 m 0.0,0.0 l 0.4336590845875438,-0.9010770213220918 m -0.8673181691750891,1.8021540426441902 l 0.7815204724188182,-0.623879596709387 l 0.7815204724188182,-0.623879596709387 l 0.7815204724188182,-0.623879596709387 m 0.0,0.0 m 0.0,0.0 l 0.7815204724188182,-0.623879596709387 m -4.689122834512904,3.7432775802563185 l -1.8369701987210297e-16,-1.0 l -1.8369701987210297e-16,-1.0 l 0.4336590845875438,-0.9010770213220918 m 0.0,0.0 m 0.0,0.0 l 0.4336590845875438,-0.9010770213220918 m -0.8673181691750891,1.8021540426441902 l -0.43365908458754415,-0.9010770213220917 m 0.0,0.0 m 0.0,0.0 l -0.43365908458754415,-0.9010770213220917 m 0.8673181691750891,1.8021540426441902 l -1.8369701987210297e-16,-1.0 l -1.8369701987210297e-16,-1.0 l -1.8369701987210297e-16,-1.0 m 0.0,0.0 m 0.0,0.0 l -1.8369701987210297e-16,-1.0 m 0.0,6.0 l 0.4336590845875438,-0.9010770213220918 l 0.4336590845875438,-0.9010770213220918 l 0.4336590845875438,-0.9010770213220918 l 0.4336590845875438,-0.9010770213220918 l 0.4336590845875438,-0.9010770213220918 l 0.4336590845875438,-0.9010770213220918 l 0.7815204724188182,-0.623879596709387 m 0.0,0.0 m 0.0,0.0 l 0.7815204724188182,-0.623879596709387 m -1.5630409448376348,1.2477591934187728 l -1.8369701987210297e-16,-1.0 m 0.0,0.0 m 0.0,0.0 l -1.8369701987210297e-16,-1.0 m 0.0,2.0 l 0.4336590845875438,-0.9010770213220918 l 0.4336590845875438,-0.9010770213220918 l 0.4336590845875438,-0.9010770213220918 m 0.0,0.0 m 0.0,0.0 l 0.4336590845875438,-0.9010770213220918 m -13.00977253762632,27.032310639662853 l -0.43365908458754415,-0.9010770213220917 l -0.43365908458754415,-0.9010770213220917 l -0.43365908458754415,-0.9010770213220917 l -0.43365908458754415,-0.9010770213220917 l -0.43365908458754415,-0.9010770213220917 l -0.43365908458754415,-0.9010770213220917 l -0.43365908458754415,-0.9010770213220917 l -0.43365908458754415,-0.9010770213220917 l -1.8369701987210297e-16,-1.0 l -1.8369701987210297e-16,-1.0 l -1.8369701987210297e-16,-1.0 l -1.8369701987210297e-16,-1.0 l 0.4336590845875438,-0.9010770213220918 l 0.4336590845875438,-0.9010770213220918 l 0.7815204724188182,-0.623879596709387 m 0.0,0.0 m 0.0,0.0 l 0.7815204724188182,-0.623879596709387 m -1.5630409448376366,1.2477591934187728 l -1.8369701987210297e-16,-1.0 m 0.0,0.0 m 0.0,0.0 l -1.8369701987210297e-16,-1.0 m 0.0,2.0 l 0.4336590845875438,-0.9010770213220918 l 0.4336590845875438,-0.9010770213220918 l 0.4336590845875438,-0.9010770213220918 m 0.0,0.0 m 0.0,0.0 l 0.4336590845875438,-0.9010770213220918 m -2.601954507525263,5.406462127932571 l -0.43365908458754415,-0.9010770213220917 l -0.43365908458754415,-0.9010770213220917 l -1.8369701987210297e-16,-1.0 m 0.0,0.0 m 0.0,0.0 l -1.8369701987210297e-16,-1.0 m 0.0,2.0 l -0.7815204724188187,-0.6238795967093863 m 0.0,0.0 m 0.0,0.0 l -0.7815204724188187,-0.6238795967093863 m 1.5630409448376383,1.2477591934187728 l -0.43365908458754415,-0.9010770213220917 l -0.43365908458754415,-0.9010770213220917 l -0.43365908458754415,-0.9010770213220917 m 0.0,0.0 m 0.0,0.0 l -0.43365908458754415,-0.9010770213220917 m 2.6019545075252664,5.406462127932571 l -1.8369701987210297e-16,-1.0 l -1.8369701987210297e-16,-1.0 l -1.8369701987210297e-16,-1.0 l -1.8369701987210297e-16,-1.0 l -1.8369701987210297e-16,-1.0 l -1.8369701987210297e-16,-1.0 l 0.4336590845875438,-0.9010770213220918 m 0.0,0.0 m 0.0,0.0 l 0.4336590845875438,-0.9010770213220918 m -0.8673181691750873,1.8021540426441902 l -0.43365908458754415,-0.9010770213220917 m 0.0,0.0 m 0.0,0.0 l -0.43365908458754415,-0.9010770213220917 m 0.8673181691750882,1.8021540426441902 l -1.8369701987210297e-16,-1.0 l -1.8369701987210297e-16,-1.0 l -1.8369701987210297e-16,-1.0 m 0.0,0.0 m 0.0,0.0 l -1.8369701987210297e-16,-1.0 m 0.0,14.0 l -0.7815204724188187,-0.6238795967093863 l -0.7815204724188187,-0.6238795967093863 l -0.7815204724188187,-0.6238795967093863 l -0.7815204724188187,-0.6238795967093863 l -0.43365908458754415,-0.9010770213220917 l -0.43365908458754415,-0.9010770213220917 l -1.8369701987210297e-16,-1.0 m 0.0,0.0 m 0.0,0.0 l -1.8369701987210297e-16,-1.0 m 0.0,2.0 l -0.7815204724188187,-0.6238795967093863 m 0.0,0.0 m 0.0,0.0 l -0.7815204724188187,-0.6238795967093863 m 1.5630409448376383,1.2477591934187728 l -0.43365908458754415,-0.9010770213220917 l -0.43365908458754415,-0.9010770213220917 l -0.43365908458754415,-0.9010770213220917 m 0.0,0.0 m 0.0,0.0 l -0.43365908458754415,-0.9010770213220917 m 2.6019545075252672,5.406462127932571 l -0.9747611941912218,-0.22325011601095143 l -0.9747611941912218,-0.22325011601095143 l -0.7815204724188187,-0.6238795967093863 m 0.0,0.0 m 0.0,0.0 l -0.7815204724188187,-0.6238795967093863 m 1.5630409448376383,1.2477591934187728 l -0.9751493543055633,0.2215484976194673 m 0.0,0.0 m 0.0,0.0 l -0.9751493543055633,0.2215484976194673 m 1.9502987086111254,-0.44309699523893187 l -0.9747611941912218,-0.22325011601095143 l -0.9747611941912218,-0.22325011601095143 l -0.9747611941912218,-0.22325011601095143 m 0.0,0.0 m 0.0,0.0 l -0.9747611941912218,-0.22325011601095143 m 5.848567165147333,1.3395006960656701 l -0.7815204724188187,-0.6238795967093863 l -0.7815204724188187,-0.6238795967093863 l -0.7815204724188187,-0.6238795967093863 l -0.7815204724188187,-0.6238795967093863 l -0.7815204724188187,-0.6238795967093863 l -0.7815204724188187,-0.6238795967093863 l -0.43365908458754415,-0.9010770213220917 m 0.0,0.0 m 0.0,0.0 l -0.43365908458754415,-0.9010770213220917 m 0.8673181691750891,1.8021540426441902 l -0.9747611941912218,-0.22325011601095143 m 0.0,0.0 m 0.0,0.0 l -0.9747611941912218,-0.22325011601095143 m 1.9495223883824444,0.44650023202189004 l -0.7815204724188187,-0.6238795967093863 l -0.7815204724188187,-0.6238795967093863 l -0.7815204724188187,-0.6238795967093863 m 0.0,0.0 m 0.0,0.0 l -0.7815204724188187,-0.6238795967093863 m 10.941286613863468,8.73431435393141 l -0.43365908458754415,-0.9010770213220917 l -0.43365908458754415,-0.9010770213220917 l -0.43365908458754415,-0.9010770213220917 l -0.43365908458754415,-0.9010770213220917 l -0.43365908458754415,-0.9010770213220917 l -0.43365908458754415,-0.9010770213220917 l -0.43365908458754415,-0.9010770213220917 l -0.43365908458754415,-0.9010770213220917 l -0.43365908458754415,-0.9010770213220917 l -0.43365908458754415,-0.9010770213220917 l -0.43365908458754415,-0.9010770213220917 l -0.43365908458754415,-0.9010770213220917 l -1.8369701987210297e-16,-1.0 l -1.8369701987210297e-16,-1.0 l 0.4336590845875438,-0.9010770213220918 m 0.0,0.0 m 0.0,0.0 l 0.4336590845875438,-0.9010770213220918 m -0.8673181691750882,1.8021540426441902 l -0.43365908458754415,-0.9010770213220917 m 0.0,0.0 m 0.0,0.0 l -0.43365908458754415,-0.9010770213220917 m 0.8673181691750891,1.8021540426441902 l -1.8369701987210297e-16,-1.0 l -1.8369701987210297e-16,-1.0 l -1.8369701987210297e-16,-1.0 m 0.0,0.0 m 0.0,0.0 l -1.8369701987210297e-16,-1.0 m 0.0,6.0 l -0.7815204724188187,-0.6238795967093863 l -0.7815204724188187,-0.6238795967093863 l -0.43365908458754415,-0.9010770213220917 m 0.0,0.0 m 0.0,0.0 l -0.43365908458754415,-0.9010770213220917 m 0.8673181691750891,1.8021540426441902 l -0.9747611941912218,-0.22325011601095143 m 0.0,0.0 m 0.0,0.0 l -0.9747611941912218,-0.22325011601095143 m 1.9495223883824444,0.44650023202189004 l -0.7815204724188187,-0.6238795967093863 l -0.7815204724188187,-0.6238795967093863 l -0.7815204724188187,-0.6238795967093863 m 0.0,0.0 m 0.0,0.0 l -0.7815204724188187,-0.6238795967093863 m 4.689122834512915,3.7432775802563185 l -0.43365908458754415,-0.9010770213220917 l -0.43365908458754415,-0.9010770213220917 l -0.43365908458754415,-0.9010770213220917 l -0.43365908458754415,-0.9010770213220917 l -0.43365908458754415,-0.9010770213220917 l -0.43365908458754415,-0.9010770213220917 l -1.8369701987210297e-16,-1.0 m 0.0,0.0 m 0.0,0.0 l -1.8369701987210297e-16,-1.0 m 0.0,2.0 l -0.7815204724188187,-0.6238795967093863 m 0.0,0.0 m 0.0,0.0 l -0.7815204724188187,-0.6238795967093863 m 1.5630409448376383,1.2477591934187728 l -0.43365908458754415,-0.9010770213220917 l -0.43365908458754415,-0.9010770213220917 l -0.43365908458754415,-0.9010770213220917 m 0.0,0.0 m 0.0,0.0 l -0.43365908458754415,-0.9010770213220917 m 13.009772537626333,27.032310639662853 l -1.8369701987210297e-16,-1.0 l -1.8369701987210297e-16,-1.0 l -1.8369701987210297e-16,-1.0 l -1.8369701987210297e-16,-1.0 l -1.8369701987210297e-16,-1.0 l -1.8369701987210297e-16,-1.0 l -1.8369701987210297e-16,-1.0 l -1.8369701987210297e-16,-1.0 l -1.8369701987210297e-16,-1.0 l -1.8369701987210297e-16,-1.0 l -1.8369701987210297e-16,-1.0 l -1.8369701987210297e-16,-1.0 l -1.8369701987210297e-16,-1.0 l -1.8369701987210297e-16,-1.0 l -1.8369701987210297e-16,-1.0 l -1.8369701987210297e-16,-1.0 l -1.8369701987210297e-16,-1.0 l -1.8369701987210297e-16,-1.0 l -1.8369701987210297e-16,-1.0 l -1.8369701987210297e-16,-1.0 l -1.8369701987210297e-16,-1.0 l -1.8369701987210297e-16,-1.0 l -1.8369701987210297e-16,-1.0 l -1.8369701987210297e-16,-1.0 l 0.4336590845875438,-0.9010770213220918 l 0.4336590845875438,-0.9010770213220918 l 0.4336590845875438,-0.9010770213220918 l 0.4336590845875438,-0.9010770213220918 l 0.7815204724188182,-0.623879596709387 l 0.7815204724188182,-0.623879596709387 l 0.9747611941912214,-0.22325011601095265 m 0.0,0.0 m 0.0,0.0 l 0.9747611941912214,-0.22325011601095265 m -1.9495223883824426,0.44650023202191846 l 0.4336590845875438,-0.9010770213220918 m 0.0,0.0 m 0.0,0.0 l 0.4336590845875438,-0.9010770213220918 m -0.8673181691750873,1.8021540426441902 l 0.7815204724188182,-0.623879596709387 l 0.7815204724188182,-0.623879596709387 l 0.7815204724188182,-0.623879596709387 m 0.0,0.0 m 0.0,0.0 l 0.7815204724188182,-0.623879596709387 m -4.68912283451291,3.7432775802563185 l -1.8369701987210297e-16,-1.0 l -1.8369701987210297e-16,-1.0 l 0.4336590845875438,-0.9010770213220918 m 0.0,0.0 m 0.0,0.0 l 0.4336590845875438,-0.9010770213220918 m -0.8673181691750875,1.8021540426441902 l -0.43365908458754415,-0.9010770213220917 m 0.0,0.0 m 0.0,0.0 l -0.43365908458754415,-0.9010770213220917 m 0.8673181691750882,1.8021540426441902 l -1.8369701987210297e-16,-1.0 l -1.8369701987210297e-16,-1.0 l -1.8369701987210297e-16,-1.0 m 0.0,0.0 m 0.0,0.0 l -1.8369701987210297e-16,-1.0 m 1.3322676295501878e-15,6.0 l 0.4336590845875438,-0.9010770213220918 l 0.4336590845875438,-0.9010770213220918 l 0.4336590845875438,-0.9010770213220918 l 0.4336590845875438,-0.9010770213220918 l 0.4336590845875438,-0.9010770213220918 l 0.4336590845875438,-0.9010770213220918 l 0.7815204724188182,-0.623879596709387 m 0.0,0.0 m 0.0,0.0 l 0.7815204724188182,-0.623879596709387 m -1.5630409448376366,1.2477591934187728 l -1.8369701987210297e-16,-1.0 m 0.0,0.0 m 0.0,0.0 l -1.8369701987210297e-16,-1.0 m 0.0,2.0 l 0.4336590845875438,-0.9010770213220918 l 0.4336590845875438,-0.9010770213220918 l 0.4336590845875438,-0.9010770213220918 m 0.0,0.0 m 0.0,0.0 l 0.4336590845875438,-0.9010770213220918 m -6.071227184225613,12.615078298509331 l -0.43365908458754415,-0.9010770213220917 l -0.43365908458754415,-0.9010770213220917 l -0.43365908458754415,-0.9010770213220917 l -0.43365908458754415,-0.9010770213220917 l -1.8369701987210297e-16,-1.0 l -1.8369701987210297e-16,-1.0 l 0.4336590845875438,-0.9010770213220918 m 0.0,0.0 m 0.0,0.0 l 0.4336590845875438,-0.9010770213220918 m -0.8673181691750877,1.8021540426441902 l -0.43365908458754415,-0.9010770213220917 m 0.0,0.0 m 0.0,0.0 l -0.43365908458754415,-0.9010770213220917 m 0.8673181691750884,1.8021540426441902 l -1.8369701987210297e-16,-1.0 l -1.8369701987210297e-16,-1.0 l -1.8369701987210297e-16,-1.0 m 0.0,0.0 m 0.0,0.0 l -1.8369701987210297e-16,-1.0 m 1.3322676295501878e-15,6.0 l -0.7815204724188187,-0.6238795967093863 l -0.7815204724188187,-0.6238795967093863 l -0.43365908458754415,-0.9010770213220917 m 0.0,0.0 m 0.0,0.0 l -0.43365908458754415,-0.9010770213220917 m 0.8673181691750886,1.8021540426441902 l -0.9747611941912218,-0.22325011601095143 m 0.0,0.0 m 0.0,0.0 l -0.9747611941912218,-0.22325011601095143 m 1.949522388382444,0.44650023202189004 l -0.7815204724188187,-0.6238795967093863 l -0.7815204724188187,-0.6238795967093863 l -0.7815204724188187,-0.6238795967093863 m 0.0,0.0 m 0.0,0.0 l -0.7815204724188187,-0.6238795967093863 m 4.689122834512913,3.7432775802563185 l -0.43365908458754415,-0.9010770213220917 l -0.43365908458754415,-0.9010770213220917 l -0.43365908458754415,-0.9010770213220917 l -0.43365908458754415,-0.9010770213220917 l -0.43365908458754415,-0.9010770213220917 l -0.43365908458754415,-0.9010770213220917 l -1.8369701987210297e-16,-1.0 m 0.0,0.0 m 0.0,0.0 l -1.8369701987210297e-16,-1.0 m 0.0,2.0 l -0.7815204724188187,-0.6238795967093863 m 0.0,0.0 m 0.0,0.0 l -0.7815204724188187,-0.6238795967093863 m 1.5630409448376374,1.2477591934187728 l -0.43365908458754415,-0.9010770213220917 l -0.43365908458754415,-0.9010770213220917 l -0.43365908458754415,-0.9010770213220917 m 0.0,0.0 m 0.0,0.0 l -0.43365908458754415,-0.9010770213220917 m 6.071227184225619,12.615078298509331 l -1.8369701987210297e-16,-1.0 l -1.8369701987210297e-16,-1.0 l -1.8369701987210297e-16,-1.0 l -1.8369701987210297e-16,-1.0 l -1.8369701987210297e-16,-1.0 l -1.8369701987210297e-16,-1.0 l -1.8369701987210297e-16,-1.0 l -1.8369701987210297e-16,-1.0 l -1.8369701987210297e-16,-1.0 l -1.8369701987210297e-16,-1.0 l -1.8369701987210297e-16,-1.0 l -1.8369701987210297e-16,-1.0 l 0.4336590845875438,-0.9010770213220918 l 0.4336590845875438,-0.9010770213220918 l 0.7815204724188182,-0.623879596709387 m 0.0,0.0 m 0.0,0.0 l 0.7815204724188182,-0.623879596709387 m -1.5630409448376361,1.2477591934187728 l -1.8369701987210297e-16,-1.0 m 0.0,0.0 m 0.0,0.0 l -1.8369701987210297e-16,-1.0 m 4.440892098500626e-16,2.0 l 0.4336590845875438,-0.9010770213220918 l 0.4336590845875438,-0.9010770213220918 l 0.4336590845875438,-0.9010770213220918 m 0.0,0.0 m 0.0,0.0 l 0.4336590845875438,-0.9010770213220918 m -2.601954507525263,5.406462127932571 l -0.43365908458754415,-0.9010770213220917 l -0.43365908458754415,-0.9010770213220917 l -1.8369701987210297e-16,-1.0 m 0.0,0.0 m 0.0,0.0 l -1.8369701987210297e-16,-1.0 m 4.440892098500626e-16,2.0 l -0.7815204724188187,-0.6238795967093863 m 0.0,0.0 m 0.0,0.0 l -0.7815204724188187,-0.6238795967093863 m 1.5630409448376374,1.2477591934187728 l -0.43365908458754415,-0.9010770213220917 l -0.43365908458754415,-0.9010770213220917 l -0.43365908458754415,-0.9010770213220917 m 0.0,0.0 m 0.0,0.0 l -0.43365908458754415,-0.9010770213220917 m 2.601954507525265,5.406462127932571 l -1.8369701987210297e-16,-1.0 l -1.8369701987210297e-16,-1.0 l -1.8369701987210297e-16,-1.0 l -1.8369701987210297e-16,-1.0 l -1.8369701987210297e-16,-1.0 l -1.8369701987210297e-16,-1.0 l 0.4336590845875438,-0.9010770213220918 m 0.0,0.0 m 0.0,0.0 l 0.4336590845875438,-0.9010770213220918 m -0.8673181691750876,1.8021540426441902 l -0.43365908458754415,-0.9010770213220917 m 0.0,0.0 m 0.0,0.0 l -0.43365908458754415,-0.9010770213220917 m 0.8673181691750883,1.8021540426441902 l -1.8369701987210297e-16,-1.0 l -1.8369701987210297e-16,-1.0 l -1.8369701987210297e-16,-1.0 m 0.0,0.0 m 0.0,0.0 l -1.8369701987210297e-16,-1.0 " style="stroke-linecap:square;stroke:#50514F;stroke-width:0.2px;fill:none" /></g></svg>