<?xml version="1.0" encoding="UTF-8"?>
<!DOCTYPE svg PUBLIC "-//W3C//DTD SVG 1.1//EN"
    "http://www.w3.org/Graphics/SVG/1.1/DTD/svg11.dtd">
<svg xmlns="http://www.w3.org/2000/svg" xmlns:xlink="http://www.w3.org/1999/xlink" version="1.1" width="167.4595887879038" height="500" viewBox="-18.132503438140773 -89.1 32.5541440603685 97.19999999999999"><g><rect x="-18.132503438140773" y="-89.1" width="32.5541440603685" height="97.19999999999999" fill="#CBD4C2" /><path d="M 0,0 l -1.8369701987210297e-16,-1.0 l 0.4336590845875438,-0.9010770213220918 m -0.4336590845875438,0.9010770213220918 l -1.8369701987210297e-16,-1.0 l -0.43365908458754415,-0.9010770213220917 m 0.43365908458754415,0.9010770213220916 l -1.8369701987210297e-16,-1.0 l 0.4336590845875438,-0.9010770213220918 l 0.7815204724188182,-0.623879596709387 m -0.7815204724188183,0.6238795967093873 l 0.4336590845875438,-0.9010770213220918 l -1.8369701987210297e-16,-1.0 m 2.220446049250313e-16,1.0 l 0.4336590845875438,-0.9010770213220918 m -1.3009772537626314,2.7032310639662747 l -1.8369701987210297e-16,-1.0 l 0.4336590845875438,-0.9010770213220918 m -0.4336590845875438,0.9010770213220916 l -1.8369701987210297e-16,-1.0 l -0.43365908458754415,-0.9010770213220917 m 0.43365908458754415,0.9010770213220916 l -1.8369701987210297e-16,-1.0 l -0.43365908458754415,-0.9010770213220917 l -1.8369701987210297e-16,-1.0 m 1.6653345369377348e-16,1.0 l -0.43365908458754415,-0.9010770213220917 l -0.7815204724188187,-0.6238795967093863 m 0.7815204724188188,0.6238795967093864 l -0.43365908458754415,-0.9010770213220917 m 1.3009772537626325,2.7032310639662747 l -1.8369701987210297e-16,-1.0 l 0.4336590845875438,-0.9010770213220918 m -0.4336590845875438,0.9010770213220916 l -1.8369701987210297e-16,-1.0 l -0.43365908458754415,-0.9010770213220917 m 0.43365908458754415,0.9010770213220916 l -1.8369701987210297e-16,-1.0 l 0.4336590845875438,-0.9010770213220918 l 0.7815204724188182,-0.623879596709387 m -0.7815204724188183,0.6238795967093864 l 0.4336590845875438,-0.9010770213220918 l -1.8369701987210297e-16,-1.0 m 2.220446049250313e-16,1.0 l 0.4336590845875438,-0.9010770213220918 l 0.7815204724188182,-0.623879596709387 l 0.9747611941912214,-0.22325011601095265 m -0.9747611941912213,0.22325011601095213 l 0.7815204724188182,-0.623879596709387 l 0.4336590845875438,-0.9010770213220918 m -0.43365908458754365,0.9010770213220916 l 0.7815204724188182,-0.623879596709387 m -2.344561417256455,1.8716387901281593 l 0.4336590845875438,-0.9010770213220918 l 0.7815204724188182,-0.623879596709387 m -0.7815204724188183,0.6238795967093864 l 0.4336590845875438,-0.9010770213220918 l -1.8369701987210297e-16,-1.0 m 0.0,1.0 l 0.4336590845875438,-0.9010770213220918 l -1.8369701987210297e-16,-1.0 l 0.4336590845875438,-0.9010770213220918 m -0.43365908458754365,0.9010770213220916 l -1.8369701987210297e-16,-1.0 l -0.43365908458754415,-0.9010770213220917 m 0.4336590845875441,0.9010770213220916 l -1.8369701987210297e-16,-1.0 m 0.0,3.0 l 0.4336590845875438,-0.9010770213220918 l 0.7815204724188182,-0.623879596709387 m -0.7815204724188183,0.6238795967093864 l 0.4336590845875438,-0.9010770213220918 l -1.8369701987210297e-16,-1.0 m 0.0,1.0 l 0.4336590845875438,-0.9010770213220918 m -3.9029317612878938,8.109693191898824 l -1.8369701987210297e-16,-1.0 l 0.4336590845875438,-0.9010770213220918 m -0.4336590845875438,0.9010770213220916 l -1.8369701987210297e-16,-1.0 l -0.43365908458754415,-0.9010770213220917 m 0.43365908458754415,0.9010770213220916 l -1.8369701987210297e-16,-1.0 l 0.4336590845875438,-0.9010770213220918 l 0.7815204724188182,-0.623879596709387 m -0.7815204724188181,0.6238795967093864 l 0.4336590845875438,-0.9010770213220918 l -1.8369701987210297e-16,-1.0 m 2.220446049250313e-16,1.0 l 0.4336590845875438,-0.9010770213220918 m -1.3009772537626314,2.7032310639662747 l -1.8369701987210297e-16,-1.0 l 0.4336590845875438,-0.9010770213220918 m -0.4336590845875438,0.9010770213220916 l -1.8369701987210297e-16,-1.0 l -0.43365908458754415,-0.9010770213220917 m 0.43365908458754415,0.9010770213220916 l -1.8369701987210297e-16,-1.0 l -0.43365908458754415,-0.9010770213220917 l -1.8369701987210297e-16,-1.0 m 1.6653345369377348e-16,1.0 l -0.43365908458754415,-0.9010770213220917 l -0.7815204724188187,-0.6238795967093863 m 0.7815204724188187,0.6238795967093864 l -0.43365908458754415,-0.9010770213220917 m 1.3009772537626325,2.7032310639662747 l -1.8369701987210297e-16,-1.0 l 0.4336590845875438,-0.9010770213220918 m -0.4336590845875438,0.9010770213220916 l -1.8369701987210297e-16,-1.0 l -0.43365908458754415,-0.9010770213220917 m 0.43365908458754415,0.9010770213220916 l -1.8369701987210297e-16,-1.0 l -0.43365908458754415,-0.9010770213220917 l -1.8369701987210297e-16,-1.0 m 1.6653345369377348e-16,1.0 l -0.43365908458754415,-0.9010770213220917 l -0.7815204724188187,-0.6238795967093863 m 0.7815204724188188,0.6238795967093864 l -0.43365908458754415,-0.9010770213220917 l -1.8369701987210297e-16,-1.0 l 0.4336590845875438,-0.9010770213220918 m -0.4336590845875439,0.9010770213220916 l -1.8369701987210297e-16,-1.0 l -0.43365908458754415,-0.9010770213220917 m 0.4336590845875441,0.9010770213220916 l -1.8369701987210297e-16,-1.0 m 6.661338147750939e-16,3.0 l -0.43365908458754415,-0.9010770213220917 l -1.8369701987210297e-16,-1.0 m 2.220446049250313e-16,1.0 l -0.43365908458754415,-0.9010770213220917 l -0.7815204724188187,-0.6238795967093863 m 0.7815204724188187,0.6238795967093864 l -0.43365908458754415,-0.9010770213220917 l -0.7815204724188187,-0.6238795967093863 l -0.43365908458754415,-0.9010770213220917 m 0.4336590845875441,0.9010770213220916 l -0.7815204724188187,-0.6238795967093863 l -0.9747611941912218,-0.22325011601095143 m 0.9747611941912222,0.22325011601095213 l -0.7815204724188187,-0.6238795967093863 m 2.3445614172564566,1.8716387901281593 l -0.43365908458754415,-0.9010770213220917 l -1.8369701987210297e-16,-1.0 m 0.0,1.0 l -0.43365908458754415,-0.9010770213220917 l -0.7815204724188187,-0.6238795967093863 m 0.7815204724188192,0.6238795967093864 l -0.43365908458754415,-0.9010770213220917 m 3.9029317612878973,8.109693191898824 l -1.8369701987210297e-16,-1.0 l 0.4336590845875438,-0.9010770213220918 m -0.4336590845875438,0.9010770213220916 l -1.8369701987210297e-16,-1.0 l -0.43365908458754415,-0.9010770213220917 m 0.43365908458754415,0.9010770213220916 l -1.8369701987210297e-16,-1.0 l 0.4336590845875438,-0.9010770213220918 l 0.7815204724188182,-0.623879596709387 m -0.7815204724188182,0.6238795967093864 l 0.4336590845875438,-0.9010770213220918 l -1.8369701987210297e-16,-1.0 m 2.220446049250313e-16,1.0 l 0.4336590845875438,-0.9010770213220918 m -1.3009772537626314,2.7032310639662747 l -1.8369701987210297e-16,-1.0 l 0.4336590845875438,-0.9010770213220918 m -0.4336590845875438,0.9010770213220916 l -1.8369701987210297e-16,-1.0 l -0.43365908458754415,-0.9010770213220917 m 0.43365908458754415,0.9010770213220916 l -1.8369701987210297e-16,-1.0 l -0.43365908458754415,-0.9010770213220917 l -1.8369701987210297e-16,-1.0 m 1.6653345369377348e-16,1.0 l -0.43365908458754415,-0.9010770213220917 l -0.7815204724188187,-0.6238795967093863 m 0.7815204724188187,0.6238795967093864 l -0.43365908458754415,-0.9010770213220917 m 1.3009772537626323,2.7032310639662747 l -1.8369701987210297e-16,-1.0 l 0.4336590845875438,-0.9010770213220918 m -0.4336590845875438,0.9010770213220916 l -1.8369701987210297e-16,-1.0 l -0.43365908458754415,-0.9010770213220917 m 0.43365908458754415,0.9010770213220916 l -1.8369701987210297e-16,-1.0 l 0.4336590845875438,-0.9010770213220918 l 0.7815204724188182,-0.623879596709387 m -0.7815204724188182,0.6238795967093864 l 0.4336590845875438,-0.9010770213220918 l -1.8369701987210297e-16,-1.0 m 2.220446049250313e-16,1.0 l 0.4336590845875438,-0.9010770213220918 l 0.7815204724188182,-0.623879596709387 l 0.9747611941912214,-0.22325011601095265 m -0.9747611941912213,0.22325011601095213 l 0.7815204724188182,-0.623879596709387 l 0.4336590845875438,-0.9010770213220918 m -0.43365908458754365,0.9010770213220916 l 0.7815204724188182,-0.623879596709387 m -2.344561417256455,1.8716387901281593 l 0.4336590845875438,-0.9010770213220918 l 0.7815204724188182,-0.623879596709387 m -0.7815204724188181,0.6238795967093864 l 0.4336590845875438,-0.9010770213220918 l -1.8369701987210297e-16,-1.0 m 0.0,1.0000000000000036 l 0.4336590845875438,-0.9010770213220918 l -1.8369701987210297e-16,-1.0 l 0.4336590845875438,-0.9010770213220918 m -0.43365908458754365,0.9010770213220951 l -1.8369701987210297e-16,-1.0 l -0.43365908458754415,-0.9010770213220917 m 0.4336590845875441,0.9010770213220951 l -1.8369701987210297e-16,-1.0 m 0.0,3.0 l 0.4336590845875438,-0.9010770213220918 l 0.7815204724188182,-0.623879596709387 m -0.7815204724188183,0.6238795967093864 l 0.4336590845875438,-0.9010770213220918 l -1.8369701987210297e-16,-1.0 m 0.0,1.0 l 0.4336590845875438,-0.9010770213220918 l 0.7815204724188182,-0.623879596709387 l 0.9747611941912214,-0.22325011601095265 m -0.9747611941912213,0.22325011601095213 l 0.7815204724188182,-0.623879596709387 l 0.4336590845875438,-0.9010770213220918 m -0.43365908458754365,0.9010770213220951 l 0.7815204724188182,-0.623879596709387 l 0.9747611941912214,-0.22325011601095265 l 0.9751493543055636,0.22154849761946563 m -0.9751493543055627,-0.22154849761946593 l 0.9747611941912214,-0.22325011601095265 l 0.7815204724188182,-0.623879596709387 m -0.7815204724188174,0.6238795967093864 l 0.9747611941912214,-0.22325011601095265 m -2.9242835825736657,0.6697503480328564 l 0.7815204724188182,-0.623879596709387 l 0.9747611941912214,-0.22325011601095265 m -0.9747611941912222,0.22325011601095213 l 0.7815204724188182,-0.623879596709387 l 0.4336590845875438,-0.9010770213220918 m -0.43365908458754365,0.9010770213220951 l 0.7815204724188182,-0.623879596709387 l 0.4336590845875438,-0.9010770213220918 l 0.7815204724188182,-0.623879596709387 m -0.7815204724188174,0.6238795967093864 l 0.4336590845875438,-0.9010770213220918 l -1.8369701987210297e-16,-1.0 m 0.0,1.0 l 0.4336590845875438,-0.9010770213220918 m -1.3009772537626336,2.7032310639662853 l 0.7815204724188182,-0.623879596709387 l 0.9747611941912214,-0.22325011601095265 m -0.9747611941912222,0.22325011601095213 l 0.7815204724188182,-0.623879596709387 l 0.4336590845875438,-0.9010770213220918 m -0.43365908458754454,0.9010770213220951 l 0.7815204724188182,-0.623879596709387 m -7.033684251769362,5.614916370384478 l 0.4336590845875438,-0.9010770213220918 l 0.7815204724188182,-0.623879596709387 m -0.7815204724188183,0.6238795967093864 l 0.4336590845875438,-0.9010770213220918 l -1.8369701987210297e-16,-1.0 m 0.0,1.0 l 0.4336590845875438,-0.9010770213220918 l 0.7815204724188182,-0.623879596709387 l 0.9747611941912214,-0.22325011601095265 m -0.9747611941912213,0.22325011601095213 l 0.7815204724188182,-0.623879596709387 l 0.4336590845875438,-0.9010770213220918 m -0.43365908458754365,0.9010770213220951 l 0.7815204724188182,-0.623879596709387 m -2.344561417256455,1.8716387901281593 l 0.4336590845875438,-0.9010770213220918 l 0.7815204724188182,-0.623879596709387 m -0.7815204724188183,0.6238795967093864 l 0.4336590845875438,-0.9010770213220918 l -1.8369701987210297e-16,-1.0 m 0.0,1.0 l 0.4336590845875438,-0.9010770213220918 l -1.8369701987210297e-16,-1.0 l 0.4336590845875438,-0.9010770213220918 m -0.43365908458754365,0.9010770213220951 l -1.8369701987210297e-16,-1.0 l -0.43365908458754415,-0.9010770213220917 m 0.43365908458754454,0.9010770213220951 l -1.8369701987210297e-16,-1.0 m 0.0,3.0 l 0.4336590845875438,-0.9010770213220918 l 0.7815204724188182,-0.623879596709387 m -0.7815204724188183,0.6238795967093864 l 0.4336590845875438,-0.9010770213220918 l -1.8369701987210297e-16,-1.0 m 0.0,1.0 l 0.4336590845875438,-0.9010770213220918 l -1.8369701987210297e-16,-1.0 l 0.4336590845875438,-0.9010770213220918 m -0.43365908458754454,0.9010770213220951 l -1.8369701987210297e-16,-1.0 l -0.43365908458754415,-0.9010770213220917 m 0.43365908458754454,0.9010770213220951 l -1.8369701987210297e-16,-1.0 l 0.4336590845875438,-0.9010770213220918 l 0.7815204724188182,-0.623879596709387 m -0.7815204724188174,0.6238795967093864 l 0.4336590845875438,-0.9010770213220918 l -1.8369701987210297e-16,-1.0 m 0.0,1.0 l 0.4336590845875438,-0.9010770213220918 m -1.3009772537626336,2.7032310639662853 l -1.8369701987210297e-16,-1.0 l 0.4336590845875438,-0.9010770213220918 m -0.43365908458754454,0.9010770213220951 l -1.8369701987210297e-16,-1.0 l -0.43365908458754415,-0.9010770213220917 m 0.43365908458754454,0.9010770213220951 l -1.8369701987210297e-16,-1.0 l -0.43365908458754415,-0.9010770213220917 l -1.8369701987210297e-16,-1.0 m 0.0,1.0 l -0.43365908458754415,-0.9010770213220917 l -0.7815204724188187,-0.6238795967093863 m 0.7815204724188192,0.6238795967093864 l -0.43365908458754415,-0.9010770213220917 m 1.3009772537626336,2.7032310639662853 l -1.8369701987210297e-16,-1.0 l 0.4336590845875438,-0.9010770213220918 m -0.43365908458754454,0.9010770213220951 l -1.8369701987210297e-16,-1.0 l -0.43365908458754415,-0.9010770213220917 m 0.43365908458754454,0.9010770213220951 l -1.8369701987210297e-16,-1.0 m 0.0,9.0 l 0.4336590845875438,-0.9010770213220918 l 0.7815204724188182,-0.623879596709387 m -0.7815204724188174,0.6238795967093864 l 0.4336590845875438,-0.9010770213220918 l -1.8369701987210297e-16,-1.0 m 0.0,1.0 l 0.4336590845875438,-0.9010770213220918 l 0.7815204724188182,-0.623879596709387 l 0.9747611941912214,-0.22325011601095265 m -0.9747611941912222,0.22325011601095213 l 0.7815204724188182,-0.623879596709387 l 0.4336590845875438,-0.9010770213220918 m -0.43365908458754454,0.9010770213220951 l 0.7815204724188182,-0.623879596709387 m -2.344561417256452,1.8716387901281593 l 0.4336590845875438,-0.9010770213220918 l 0.7815204724188182,-0.623879596709387 m -0.7815204724188174,0.6238795967093864 l 0.4336590845875438,-0.9010770213220918 l -1.8369701987210297e-16,-1.0 m 0.0,1.0 l 0.4336590845875438,-0.9010770213220918 l -1.8369701987210297e-16,-1.0 l 0.4336590845875438,-0.9010770213220918 m -0.43365908458754454,0.9010770213220951 l -1.8369701987210297e-16,-1.0 l -0.43365908458754415,-0.9010770213220917 m 0.43365908458754454,0.9010770213220951 l -1.8369701987210297e-16,-1.0 m 0.0,3.0 l 0.4336590845875438,-0.9010770213220918 l 0.7815204724188182,-0.623879596709387 m -0.7815204724188174,0.6238795967093864 l 0.4336590845875438,-0.9010770213220918 l -1.8369701987210297e-16,-1.0 m 0.0,1.0 l 0.4336590845875438,-0.9010770213220918 m -11.708795283863688,24.329079575696547 l -1.8369701987210297e-16,-1.0 l 0.4336590845875438,-0.9010770213220918 m -0.4336590845875438,0.9010770213220916 l -1.8369701987210297e-16,-1.0 l -0.43365908458754415,-0.9010770213220917 m 0.43365908458754415,0.9010770213220916 l -1.8369701987210297e-16,-1.0 l 0.4336590845875438,-0.9010770213220918 l 0.7815204724188182,-0.623879596709387 m -0.7815204724188183,0.6238795967093864 l 0.4336590845875438,-0.9010770213220918 l -1.8369701987210297e-16,-1.0 m 2.220446049250313e-16,1.0 l 0.4336590845875438,-0.9010770213220918 m -1.3009772537626316,2.703231063966278 l -1.8369701987210297e-16,-1.0 l 0.4336590845875438,-0.9010770213220918 m -0.4336590845875438,0.9010770213220916 l -1.8369701987210297e-16,-1.0 l -0.43365908458754415,-0.9010770213220917 m 0.43365908458754415,0.9010770213220951 l -1.8369701987210297e-16,-1.0 l -0.43365908458754415,-0.9010770213220917 l -1.8369701987210297e-16,-1.0 m 1.6653345369377348e-16,1.0 l -0.43365908458754415,-0.9010770213220917 l -0.7815204724188187,-0.6238795967093863 m 0.7815204724188187,0.6238795967093864 l -0.43365908458754415,-0.9010770213220917 m 1.3009772537626325,2.7032310639662853 l -1.8369701987210297e-16,-1.0 l 0.4336590845875438,-0.9010770213220918 m -0.4336590845875438,0.9010770213220951 l -1.8369701987210297e-16,-1.0 l -0.43365908458754415,-0.9010770213220917 m 0.43365908458754415,0.9010770213220951 l -1.8369701987210297e-16,-1.0 l 0.4336590845875438,-0.9010770213220918 l 0.7815204724188182,-0.623879596709387 m -0.7815204724188181,0.6238795967093864 l 0.4336590845875438,-0.9010770213220918 l -1.8369701987210297e-16,-1.0 m 2.220446049250313e-16,1.0 l 0.4336590845875438,-0.9010770213220918 l 0.7815204724188182,-0.623879596709387 l 0.9747611941912214,-0.22325011601095265 m -0.9747611941912213,0.22325011601095213 l 0.7815204724188182,-0.623879596709387 l 0.4336590845875438,-0.9010770213220918 m -0.43365908458754365,0.9010770213220951 l 0.7815204724188182,-0.623879596709387 m -2.344561417256455,1.8716387901281593 l 0.4336590845875438,-0.9010770213220918 l 0.7815204724188182,-0.623879596709387 m -0.7815204724188183,0.6238795967093864 l 0.4336590845875438,-0.9010770213220918 l -1.8369701987210297e-16,-1.0 m 0.0,1.0 l 0.4336590845875438,-0.9010770213220918 l -1.8369701987210297e-16,-1.0 l 0.4336590845875438,-0.9010770213220918 m -0.43365908458754365,0.9010770213220951 l -1.8369701987210297e-16,-1.0 l -0.43365908458754415,-0.9010770213220917 m 0.4336590845875441,0.9010770213220951 l -1.8369701987210297e-16,-1.0 m 0.0,3.0 l 0.4336590845875438,-0.9010770213220918 l 0.7815204724188182,-0.623879596709387 m -0.7815204724188183,0.6238795967093864 l 0.4336590845875438,-0.9010770213220918 l -1.8369701987210297e-16,-1.0 m 0.0,1.0 l 0.4336590845875438,-0.9010770213220918 m -3.9029317612878938,8.109693191898856 l -1.8369701987210297e-16,-1.0 l 0.4336590845875438,-0.9010770213220918 m -0.4336590845875438,0.9010770213220951 l -1.8369701987210297e-16,-1.0 l -0.43365908458754415,-0.9010770213220917 m 0.43365908458754415,0.9010770213220951 l -1.8369701987210297e-16,-1.0 l 0.4336590845875438,-0.9010770213220918 l 0.7815204724188182,-0.623879596709387 m -0.7815204724188182,0.6238795967093864 l 0.4336590845875438,-0.9010770213220918 l -1.8369701987210297e-16,-1.0 m 2.220446049250313e-16,1.0 l 0.4336590845875438,-0.9010770213220918 m -1.3009772537626314,2.7032310639662853 l -1.8369701987210297e-16,-1.0 l 0.4336590845875438,-0.9010770213220918 m -0.4336590845875438,0.9010770213220951 l -1.8369701987210297e-16,-1.0 l -0.43365908458754415,-0.9010770213220917 m 0.43365908458754415,0.9010770213220951 l -1.8369701987210297e-16,-1.0 l -0.43365908458754415,-0.9010770213220917 l -1.8369701987210297e-16,-1.0 m 1.6653345369377348e-16,1.0 l -0.43365908458754415,-0.9010770213220917 l -0.7815204724188187,-0.6238795967093863 m 0.7815204724188187,0.6238795967093864 l -0.43365908458754415,-0.9010770213220917 m 1.3009772537626323,2.7032310639662853 l -1.8369701987210297e-16,-1.0 l 0.4336590845875438,-0.9010770213220918 m -0.4336590845875438,0.9010770213220951 l -1.8369701987210297e-16,-1.0 l -0.43365908458754415,-0.9010770213220917 m 0.43365908458754415,0.9010770213220951 l -1.8369701987210297e-16,-1.0 l -0.43365908458754415,-0.9010770213220917 l -1.8369701987210297e-16,-1.0 m 1.6653345369377348e-16,1.0 l -0.43365908458754415,-0.9010770213220917 l -0.7815204724188187,-0.6238795967093863 m 0.7815204724188187,0.6238795967093864 l -0.43365908458754415,-0.9010770213220917 l -1.8369701987210297e-16,-1.0 l 0.4336590845875438,-0.9010770213220918 m -0.4336590845875439,0.9010770213220951 l -1.8369701987210297e-16,-1.0 l -0.43365908458754415,-0.9010770213220917 m 0.4336590845875441,0.9010770213220951 l -1.8369701987210297e-16,-1.0 m 6.661338147750939e-16,3.0 l -0.43365908458754415,-0.9010770213220917 l -1.8369701987210297e-16,-1.0 m 2.220446049250313e-16,1.0 l -0.43365908458754415,-0.9010770213220917 l -0.7815204724188187,-0.6238795967093863 m 0.7815204724188187,0.6238795967093864 l -0.43365908458754415,-0.9010770213220917 l -0.7815204724188187,-0.6238795967093863 l -0.43365908458754415,-0.9010770213220917 m 0.4336590845875441,0.9010770213220951 l -0.7815204724188187,-0.6238795967093863 l -0.9747611941912218,-0.22325011601095143 m 0.9747611941912222,0.22325011601095213 l -0.7815204724188187,-0.6238795967093863 m 2.344561417256457,1.8716387901281593 l -0.43365908458754415,-0.9010770213220917 l -1.8369701987210297e-16,-1.0 m 0.0,1.0 l -0.43365908458754415,-0.9010770213220917 l -0.7815204724188187,-0.6238795967093863 m 0.7815204724188187,0.6238795967093864 l -0.43365908458754415,-0.9010770213220917 m 3.902931761287897,8.109693191898856 l -1.8369701987210297e-16,-1.0 l 0.4336590845875438,-0.9010770213220918 m -0.4336590845875438,0.9010770213220951 l -1.8369701987210297e-16,-1.0 l -0.43365908458754415,-0.9010770213220917 m 0.43365908458754415,0.9010770213220951 l -1.8369701987210297e-16,-1.0 l 0.4336590845875438,-0.9010770213220918 l 0.7815204724188182,-0.623879596709387 m -0.7815204724188181,0.6238795967093864 l 0.4336590845875438,-0.9010770213220918 l -1.8369701987210297e-16,-1.0 m 2.220446049250313e-16,1.0 l 0.4336590845875438,-0.9010770213220918 m -1.3009772537626316,2.7032310639662853 l -1.8369701987210297e-16,-1.0 l 0.4336590845875438,-0.9010770213220918 m -0.4336590845875438,0.9010770213220951 l -1.8369701987210297e-16,-1.0 l -0.43365908458754415,-0.9010770213220917 m 0.43365908458754415,0.9010770213220951 l -1.8369701987210297e-16,-1.0 l -0.43365908458754415,-0.9010770213220917 l -1.8369701987210297e-16,-1.0 m 1.6653345369377348e-16,1.0 l -0.43365908458754415,-0.9010770213220917 l -0.7815204724188187,-0.6238795967093863 m 0.7815204724188187,0.6238795967093864 l -0.43365908458754415,-0.9010770213220917 m 1.3009772537626325,2.7032310639662853 l -1.8369701987210297e-16,-1.0 l 0.4336590845875438,-0.9010770213220918 m -0.4336590845875438,0.9010770213220951 l -1.8369701987210297e-16,-1.0 l -0.43365908458754415,-0.9010770213220917 m 0.43365908458754415,0.9010770213220951 l -1.8369701987210297e-16,-1.0 l -0.43365908458754415,-0.9010770213220917 l -1.8369701987210297e-16,-1.0 m 1.6653345369377348e-16,1.0 l -0.43365908458754415,-0.9010770213220917 l -0.7815204724188187,-0.6238795967093863 m 0.7815204724188187,0.6238795967093864 l -0.43365908458754415,-0.9010770213220917 l -1.8369701987210297e-16,-1.0 l 0.4336590845875438,-0.9010770213220918 m -0.4336590845875439,0.9010770213220951 l -1.8369701987210297e-16,-1.0 l -0.43365908458754415,-0.9010770213220917 m 0.4336590845875441,0.9010770213220951 l -1.8369701987210297e-16,-1.0 m 6.661338147750939e-16,3.0 l -0.43365908458754415,-0.9010770213220917 l -1.8369701987210297e-16,-1.0 m 2.220446049250313e-16,1.0 l -0.43365908458754415,-0.9010770213220917 l -0.7815204724188187,-0.6238795967093863 m 0.7815204724188187,0.6238795967093864 l -0.43365908458754415,-0.9010770213220917 l -0.7815204724188187,-0.6238795967093863 l -0.43365908458754415,-0.9010770213220917 m 0.4336590845875441,0.9010770213220951 l -0.7815204724188187,-0.6238795967093863 l -0.9747611941912218,-0.22325011601095143 m 0.9747611941912222,0.22325011601095213 l -0.7815204724188187,-0.6238795967093863 m 2.344561417256457,1.8716387901281593 l -0.43365908458754415,-0.9010770213220917 l -1.8369701987210297e-16,-1.0 m 0.0,1.0 l -0.43365908458754415,-0.9010770213220917 l -0.7815204724188187,-0.6238795967093863 m 0.7815204724188187,0.6238795967093864 l -0.43365908458754415,-0.9010770213220917 l -1.8369701987210297e-16,-1.0 l 0.4336590845875438,-0.9010770213220918 m -0.43365908458754365,0.9010770213220951 l -1.8369701987210297e-16,-1.0 l -0.43365908458754415,-0.9010770213220917 m 0.43365908458754454,0.9010770213220951 l -1.8369701987210297e-16,-1.0 l 0.4336590845875438,-0.9010770213220918 l 0.7815204724188182,-0.623879596709387 m -0.7815204724188183,0.6238795967093864 l 0.4336590845875438,-0.9010770213220918 l -1.8369701987210297e-16,-1.0 m 0.0,1.0 l 0.4336590845875438,-0.9010770213220918 m -1.300977253762631,2.7032310639662853 l -1.8369701987210297e-16,-1.0 l 0.4336590845875438,-0.9010770213220918 m -0.43365908458754365,0.9010770213220951 l -1.8369701987210297e-16,-1.0 l -0.43365908458754415,-0.9010770213220917 m 0.43365908458754454,0.9010770213220951 l -1.8369701987210297e-16,-1.0 l -0.43365908458754415,-0.9010770213220917 l -1.8369701987210297e-16,-1.0 m 0.0,1.0 l -0.43365908458754415,-0.9010770213220917 l -0.7815204724188187,-0.6238795967093863 m 0.7815204724188183,0.6238795967093864 l -0.43365908458754415,-0.9010770213220917 m 1.3009772537626336,2.7032310639662853 l -1.8369701987210297e-16,-1.0 l 0.4336590845875438,-0.9010770213220918 m -0.43365908458754365,0.9010770213220951 l -1.8369701987210297e-16,-1.0 l -0.43365908458754415,-0.9010770213220917 m 0.43365908458754454,0.9010770213220951 l -1.8369701987210297e-16,-1.0 m 0.0,9.0 l -0.43365908458754415,-0.9010770213220917 l -1.8369701987210297e-16,-1.0 m 0.0,1.0 l -0.43365908458754415,-0.9010770213220917 l -0.7815204724188187,-0.6238795967093863 m 0.7815204724188183,0.6238795967093864 l -0.43365908458754415,-0.9010770213220917 l -1.8369701987210297e-16,-1.0 l 0.4336590845875438,-0.9010770213220918 m -0.43365908458754365,0.9010770213220951 l -1.8369701987210297e-16,-1.0 l -0.43365908458754415,-0.9010770213220917 m 0.43365908458754454,0.9010770213220951 l -1.8369701987210297e-16,-1.0 m 0.0,3.0 l -0.43365908458754415,-0.9010770213220917 l -1.8369701987210297e-16,-1.0 m 0.0,1.0 l -0.43365908458754415,-0.9010770213220917 l -0.7815204724188187,-0.6238795967093863 m 0.7815204724188183,0.6238795967093864 l -0.43365908458754415,-0.9010770213220917 l -0.7815204724188187,-0.6238795967093863 l -0.43365908458754415,-0.9010770213220917 m 0.43365908458754454,0.9010770213220951 l -0.7815204724188187,-0.6238795967093863 l -0.9747611941912218,-0.22325011601095143 m 0.9747611941912222,0.22325011601094502 l -0.7815204724188187,-0.6238795967093863 m 2.3445614172564566,1.8716387901281593 l -0.43365908458754415,-0.9010770213220917 l -1.8369701987210297e-16,-1.0 m 0.0,1.0 l -0.43365908458754415,-0.9010770213220917 l -0.7815204724188187,-0.6238795967093863 m 0.7815204724188183,0.6238795967093864 l -0.43365908458754415,-0.9010770213220917 l -0.7815204724188187,-0.6238795967093863 l -0.43365908458754415,-0.9010770213220917 m 0.43365908458754454,0.9010770213220951 l -0.7815204724188187,-0.6238795967093863 l -0.9747611941912218,-0.22325011601095143 m 0.9747611941912222,0.22325011601094502 l -0.7815204724188187,-0.6238795967093863 l -0.43365908458754415,-0.9010770213220917 l -1.8369701987210297e-16,-1.0 m 0.0,1.0 l -0.43365908458754415,-0.9010770213220917 l -0.7815204724188187,-0.6238795967093863 m 0.7815204724188192,0.6238795967093864 l -0.43365908458754415,-0.9010770213220917 m 1.3009772537626336,2.7032310639662853 l -0.7815204724188187,-0.6238795967093863 l -0.43365908458754415,-0.9010770213220917 m 0.43365908458754454,0.9010770213220951 l -0.7815204724188187,-0.6238795967093863 l -0.9747611941912218,-0.22325011601095143 m 0.9747611941912222,0.22325011601094502 l -0.7815204724188187,-0.6238795967093863 l -0.9747611941912218,-0.22325011601095143 l -0.7815204724188187,-0.6238795967093863 m 0.7815204724188192,0.6238795967093864 l -0.9747611941912218,-0.22325011601095143 l -0.9751493543055633,0.2215484976194673 m 0.9751493543055627,-0.22154849761946593 l -0.9747611941912218,-0.22325011601095143 m 2.9242835825736666,0.6697503480328351 l -0.7815204724188187,-0.6238795967093863 l -0.43365908458754415,-0.9010770213220917 m 0.43365908458754454,0.9010770213220951 l -0.7815204724188187,-0.6238795967093863 l -0.9747611941912218,-0.22325011601095143 m 0.9747611941912222,0.22325011601094502 l -0.7815204724188187,-0.6238795967093863 m 7.033684251769372,5.614916370384478 l -0.43365908458754415,-0.9010770213220917 l -1.8369701987210297e-16,-1.0 m 0.0,1.0 l -0.43365908458754415,-0.9010770213220917 l -0.7815204724188187,-0.6238795967093863 m 0.7815204724188192,0.6238795967093864 l -0.43365908458754415,-0.9010770213220917 l -1.8369701987210297e-16,-1.0 l 0.4336590845875438,-0.9010770213220918 m -0.43365908458754454,0.9010770213220951 l -1.8369701987210297e-16,-1.0 l -0.43365908458754415,-0.9010770213220917 m 0.43365908458754454,0.9010770213220951 l -1.8369701987210297e-16,-1.0 m 0.0,3.0 l -0.43365908458754415,-0.9010770213220917 l -1.8369701987210297e-16,-1.0 m 0.0,1.0 l -0.43365908458754415,-0.9010770213220917 l -0.7815204724188187,-0.6238795967093863 m 0.7815204724188192,0.6238795967093864 l -0.43365908458754415,-0.9010770213220917 l -0.7815204724188187,-0.6238795967093863 l -0.43365908458754415,-0.9010770213220917 m 0.43365908458754454,0.9010770213220951 l -0.7815204724188187,-0.6238795967093863 l -0.9747611941912218,-0.22325011601095143 m 0.9747611941912222,0.22325011601094502 l -0.7815204724188187,-0.6238795967093863 m 2.3445614172564575,1.8716387901281593 l -0.43365908458754415,-0.9010770213220917 l -1.8369701987210297e-16,-1.0 m 0.0,1.0 l -0.43365908458754415,-0.9010770213220917 l -0.7815204724188187,-0.6238795967093863 m 0.7815204724188192,0.6238795967093864 l -0.43365908458754415,-0.9010770213220917 m 11.708795283863697,24.329079575696568 l -1.8369701987210297e-16,-1.0 l 0.4336590845875438,-0.9010770213220918 m -0.4336590845875438,0.9010770213220951 l -1.8369701987210297e-16,-1.0 l -0.43365908458754415,-0.9010770213220917 m 0.43365908458754415,0.9010770213220951 l -1.8369701987210297e-16,-1.0 l 0.4336590845875438,-0.9010770213220918 l 0.7815204724188182,-0.623879596709387 m -0.7815204724188182,0.6238795967093864 l 0.4336590845875438,-0.9010770213220918 l -1.8369701987210297e-16,-1.0 m 2.220446049250313e-16,1.0 l 0.4336590845875438,-0.9010770213220918 m -1.3009772537626314,2.7032310639662853 l -1.8369701987210297e-16,-1.0 l 0.4336590845875438,-0.9010770213220918 m -0.4336590845875438,0.9010770213220951 l -1.8369701987210297e-16,-1.0 l -0.43365908458754415,-0.9010770213220917 m 0.43365908458754415,0.9010770213220951 l -1.8369701987210297e-16,-1.0 l -0.43365908458754415,-0.9010770213220917 l -1.8369701987210297e-16,-1.0 m 1.6653345369377348e-16,1.0 l -0.43365908458754415,-0.9010770213220917 l -0.7815204724188187,-0.6238795967093863 m 0.7815204724188187,0.6238795967093864 l -0.43365908458754415,-0.9010770213220917 m 1.3009772537626323,2.7032310639662853 l -1.8369701987210297e-16,-1.0 l 0.4336590845875438,-0.9010770213220918 m -0.4336590845875438,0.9010770213220951 l -1.8369701987210297e-16,-1.0 l -0.43365908458754415,-0.9010770213220917 m 0.43365908458754415,0.9010770213220951 l -1.8369701987210297e-16,-1.0 l 0.4336590845875438,-0.9010770213220918 l 0.7815204724188182,-0.623879596709387 m -0.7815204724188181,0.6238795967093864 l 0.4336590845875438,-0.9010770213220918 l -1.8369701987210297e-16,-1.0 m 2.220446049250313e-16,1.0 l 0.4336590845875438,-0.9010770213220918 l 0.7815204724188182,-0.623879596709387 l 0.9747611941912214,-0.22325011601095265 m -0.9747611941912213,0.22325011601095923 l 0.7815204724188182,-0.623879596709387 l 0.4336590845875438,-0.9010770213220918 m -0.43365908458754365,0.9010770213220951 l 0.7815204724188182,-0.623879596709387 m -2.344561417256455,1.8716387901281593 l 0.4336590845875438,-0.9010770213220918 l 0.7815204724188182,-0.623879596709387 m -0.7815204724188181,0.6238795967093864 l 0.4336590845875438,-0.9010770213220918 l -1.8369701987210297e-16,-1.0 m 0.0,1.0 l 0.4336590845875438,-0.9010770213220918 l -1.8369701987210297e-16,-1.0 l 0.4336590845875438,-0.9010770213220918 m -0.43365908458754365,0.9010770213220951 l -1.8369701987210297e-16,-1.0 l -0.43365908458754415,-0.9010770213220917 m 0.4336590845875441,0.9010770213220951 l -1.8369701987210297e-16,-1.0 m 0.0,3.0 l 0.4336590845875438,-0.9010770213220918 l 0.7815204724188182,-0.623879596709387 m -0.7815204724188183,0.6238795967093864 l 0.4336590845875438,-0.9010770213220918 l -1.8369701987210297e-16,-1.0 m 0.0,1.0 l 0.4336590845875438,-0.9010770213220918 m -3.9029317612878938,8.109693191898856 l -1.8369701987210297e-16,-1.0 l 0.4336590845875438,-0.9010770213220918 m -0.4336590845875438,0.9010770213220951 l -1.8369701987210297e-16,-1.0 l -0.43365908458754415,-0.9010770213220917 m 0.43365908458754415,0.9010770213220951 l -1.8369701987210297e-16,-1.0 l 0.4336590845875438,-0.9010770213220918 l 0.7815204724188182,-0.623879596709387 m -0.7815204724188183,0.6238795967093864 l 0.4336590845875438,-0.9010770213220918 l -1.8369701987210297e-16,-1.0 m 2.220446049250313e-16,1.0 l 0.4336590845875438,-0.9010770213220918 m -1.3009772537626316,2.7032310639662853 l -1.8369701987210297e-16,-1.0 l 0.4336590845875438,-0.9010770213220918 m -0.4336590845875438,0.9010770213220951 l -1.8369701987210297e-16,-1.0 l -0.43365908458754415,-0.9010770213220917 m 0.43365908458754415,0.9010770213220951 l -1.8369701987210297e-16,-1.0 l -0.43365908458754415,-0.9010770213220917 l -1.8369701987210297e-16,-1.0 m 1.6653345369377348e-16,1.0 l -0.43365908458754415,-0.9010770213220917 l -0.7815204724188187,-0.6238795967093863 m 0.7815204724188188,0.6238795967093864 l -0.43365908458754415,-0.9010770213220917 m 1.3009772537626325,2.7032310639662853 l -1.8369701987210297e-16,-1.0 l 0.4336590845875438,-0.9010770213220918 m -0.4336590845875438,0.9010770213220951 l -1.8369701987210297e-16,-1.0 l -0.43365908458754415,-0.9010770213220917 m 0.43365908458754415,0.9010770213220951 l -1.8369701987210297e-16,-1.0 l -0.43365908458754415,-0.9010770213220917 l -1.8369701987210297e-16,-1.0 m 1.6653345369377348e-16,1.0 l -0.43365908458754415,-0.9010770213220917 l -0.7815204724188187,-0.6238795967093863 m 0.7815204724188187,0.6238795967093864 l -0.43365908458754415,-0.9010770213220917 l -1.8369701987210297e-16,-1.0 l 0.4336590845875438,-0.9010770213220918 m -0.4336590845875439,0.9010770213220951 l -1.8369701987210297e-16,-1.0 l -0.43365908458754415,-0.9010770213220917 m 0.4336590845875441,0.9010770213220951 l -1.8369701987210297e-16,-1.0 m 6.661338147750939e-16,3.0 l -0.43365908458754415,-0.9010770213220917 l -1.8369701987210297e-16,-1.0 m 2.220446049250313e-16,1.0 l -0.43365908458754415,-0.9010770213220917 l -0.7815204724188187,-0.6238795967093863 m 0.7815204724188187,0.6238795967093864 l -0.43365908458754415,-0.9010770213220917 l -0.7815204724188187,-0.6238795967093863 l -0.43365908458754415,-0.9010770213220917 m 0.4336590845875441,0.9010770213220951 l -0.7815204724188187,-0.6238795967093863 l -0.9747611941912218,-0.22325011601095143 m 0.9747611941912213,0.22325011601094502 l -0.7815204724188187,-0.6238795967093863 m 2.3445614172564557,1.8716387901281593 l -0.43365908458754415,-0.9010770213220917 l -1.8369701987210297e-16,-1.0 m 0.0,1.0 l -0.43365908458754415,-0.9010770213220917 l -0.7815204724188187,-0.6238795967093863 m 0.7815204724188183,0.6238795967093864 l -0.43365908458754415,-0.9010770213220917 m 3.902931761287897,8.109693191898856 l -1.8369701987210297e-16,-1.0 l 0.4336590845875438,-0.9010770213220918 m -0.4336590845875438,0.9010770213220951 l -1.8369701987210297e-16,-1.0 l -0.43365908458754415,-0.9010770213220917 m 0.43365908458754415,0.9010770213220951 l -1.8369701987210297e-16,-1.0 l 0.4336590845875438,-0.9010770213220918 l 0.7815204724188182,-0.623879596709387 m -0.7815204724188181,0.6238795967093864 l 0.4336590845875438,-0.9010770213220918 l -1.8369701987210297e-16,-1.0 m 2.220446049250313e-16,1.0 l 0.4336590845875438,-0.9010770213220918 m -1.3009772537626314,2.7032310639662853 l -1.8369701987210297e-16,-1.0 l 0.4336590845875438,-0.9010770213220918 m -0.4336590845875438,0.9010770213220951 l -1.8369701987210297e-16,-1.0 l -0.43365908458754415,-0.9010770213220917 m 0.43365908458754415,0.9010770213220951 l -1.8369701987210297e-16,-1.0 l -0.43365908458754415,-0.9010770213220917 l -1.8369701987210297e-16,-1.0 m 1.6653345369377348e-16,1.0 l -0.43365908458754415,-0.9010770213220917 l -0.7815204724188187,-0.6238795967093863 m 0.7815204724188187,0.6238795967093864 l -0.43365908458754415,-0.9010770213220917 m 1.3009772537626323,2.7032310639662853 l -1.8369701987210297e-16,-1.0 l 0.4336590845875438,-0.9010770213220918 m -0.4336590845875438,0.9010770213220951 l -1.8369701987210297e-16,-1.0 l -0.43365908458754415,-0.9010770213220917 m 0.43365908458754415,0.9010770213220951 l -1.8369701987210297e-16,-1.0 " style="stroke-linecap:square;stroke:#50514F;stroke-width:0.2px;fill:none" /></g></svg>