<?xml version="1.0" encoding="UTF-8"?>
<!DOCTYPE svg PUBLIC "-//W3C//DTD SVG 1.1//EN"
    "http://www.w3.org/Graphics/SVG/1.1/DTD/svg11.dtd">
<svg xmlns="http://www.w3.org/2000/svg" xmlns:xlink="http://www.w3.org/1999/xlink" version="1.1" width="340.2983393487984" height="500" viewBox="-41.33058532544514 -88.18292104331908 65.47309437811133 96.19955022907536"><g><rect x="-41.33058532544514" y="-88.18292104331908" width="65.47309437811133" height="96.19955022907536" fill="#CBD4C2" /><path d="M 0,0 l 6.123233995736766e-17,-1.0 l 6.123233995736766e-17,-1.0 l 6.123233995736766e-17,-1.0 l 6.123233995736766e-17,-1.0 l 6.123233995736766e-17,-1.0 l 6.123233995736766e-17,-1.0 l 6.123233995736766e-17,-1.0 l 6.123233995736766e-17,-1.0 l 6.123233995736766e-17,-1.0 l 6.123233995736766e-17,-1.0 l 6.123233995736766e-17,-1.0 l 6.123233995736766e-17,-1.0 l 6.123233995736766e-17,-1.0 l 6.123233995736766e-17,-1.0 l 6.123233995736766e-17,-1.0 l 6.123233995736766e-17,-1.0 l 0.38268343236508984,-0.9238795325112867 l 0.38268343236508984,-0.9238795325112867 l 0.38268343236508984,-0.9238795325112867 l 0.38268343236508984,-0.9238795325112867 l 0.38268343236508984,-0.9238795325112867 l 0.38268343236508984,-0.9238795325112867 l 0.38268343236508984,-0.9238795325112867 l 0.38268343236508984,-0.9238795325112867 l 0.7071067811865477,-0.7071067811865475 l 0.7071067811865477,-0.7071067811865475 l 0.7071067811865477,-0.7071067811865475 l 0.7071067811865477,-0.7071067811865475 l 0.9238795325112868,-0.3826834323650896 l 0.9238795325112868,-0.3826834323650896 l 1.0,1.6653345369377348e-16 l 0.0,0.0 l 0.0,0.0 l 0.9999999999999999,1.6653345369377348e-16 l 0.9238795325112867,-0.38268343236508956 l -0.9238795325112861,0.38268343236508784 l -1.9999999999999991,0.0 l 0.9238795325112868,-0.3826834323650896 l 0.0,0.0 l 0.0,0.0 l 0.9238795325112868,-0.3826834323650896 l 0.7071067811865477,-0.7071067811865475 l -0.7071067811865479,0.7071067811865461 l -1.847759065022573,0.7653668647301828 l 0.9238795325112868,-0.3826834323650896 l 0.9238795325112868,-0.3826834323650896 l 0.7071067811865477,-0.7071067811865475 l 0.7071067811865477,-0.7071067811865475 l 0.7071067811865477,-0.7071067811865475 l 0.0,0.0 l 0.0,0.0 l 0.7071067811865477,-0.7071067811865475 l 0.38268343236508995,-0.9238795325112867 l -0.3826834323650896,0.9238795325112861 l -2.8284271247461916,2.8284271247461845 l 1.0,1.6653345369377348e-16 l 0.0,0.0 l 0.0,0.0 l 0.9999999999999999,1.6653345369377348e-16 l 0.9238795325112867,-0.38268343236508956 l -0.9238795325112861,0.38268343236508784 l -5.695518130045147,1.5307337294603656 l 0.7071067811865477,-0.7071067811865475 l 0.7071067811865477,-0.7071067811865475 l 0.9238795325112868,-0.3826834323650896 l 0.0,0.0 l 0.0,0.0 l 0.9238795325112868,-0.3826834323650896 l 0.7071067811865477,-0.7071067811865475 l -0.7071067811865479,0.7071067811865461 l -1.847759065022573,0.7653668647301828 l 0.7071067811865477,-0.7071067811865475 l 0.0,0.0 l 0.0,0.0 l 0.7071067811865477,-0.7071067811865475 l 0.38268343236508995,-0.9238795325112867 l -0.3826834323650896,0.9238795325112861 l -1.414213562373095,1.4142135623730923 l 0.7071067811865477,-0.7071067811865475 l 0.7071067811865477,-0.7071067811865475 l 0.38268343236508995,-0.9238795325112867 l 0.38268343236508995,-0.9238795325112867 l 0.38268343236508995,-0.9238795325112867 l 0.0,0.0 l 0.0,0.0 l 0.38268343236508995,-0.9238795325112867 l 1.1102230246251565e-16,-1.0 l 0.0,1.0 l -1.5307337294603585,3.6955181300451443 l 0.9238795325112868,-0.3826834323650896 l 0.0,0.0 l 0.0,0.0 l 0.9238795325112868,-0.3826834323650896 l 0.7071067811865477,-0.7071067811865475 l -0.7071067811865479,0.7071067811865461 l -4.676186189768763,3.5937939894763673 l 0.7071067811865477,-0.7071067811865475 l 0.7071067811865477,-0.7071067811865475 l 0.7071067811865477,-0.7071067811865475 l 0.7071067811865477,-0.7071067811865475 l 0.38268343236508995,-0.9238795325112867 l 0.38268343236508995,-0.9238795325112867 l 0.38268343236508995,-0.9238795325112867 l 0.38268343236508995,-0.9238795325112867 l 0.38268343236508995,-0.9238795325112867 l 0.38268343236508995,-0.9238795325112867 l 0.7071067811865477,-0.7071067811865475 l 0.0,0.0 l 0.0,0.0 l 0.7071067811865477,-0.7071067811865475 l 0.38268343236508995,-0.9238795325112867 l -0.3826834323650896,0.9238795325112861 l -1.4142135623730958,1.4142135623730923 l 0.38268343236508995,-0.9238795325112867 l 0.0,0.0 l 0.0,0.0 l 0.38268343236508995,-0.9238795325112867 l 1.1102230246251565e-16,-1.0 l 0.0,1.0 l -0.7653668647301792,1.8477590650225721 l 0.38268343236508995,-0.9238795325112867 l 0.38268343236508995,-0.9238795325112867 l 1.1102230246251565e-16,-1.0 l 1.1102230246251565e-16,-1.0 l 1.1102230246251565e-16,-1.0 l 0.0,0.0 l 0.0,0.0 l 5.551115123125783e-17,-1.0 l -0.3826834323650897,-0.9238795325112867 l 0.3826834323650896,0.9238795325112861 l 0.0,4.0 l 0.7071067811865477,-0.7071067811865475 l 0.0,0.0 l 0.0,0.0 l 0.7071067811865477,-0.7071067811865475 l 0.38268343236508995,-0.9238795325112867 l -0.3826834323650896,0.9238795325112861 l -4.475681021293813,8.80524982246338 l 0.9238795325112868,-0.3826834323650896 l 0.9238795325112868,-0.3826834323650896 l 1.0,1.6653345369377348e-16 l 0.0,0.0 l 0.0,0.0 l 0.9999999999999999,1.6653345369377348e-16 l 0.9238795325112867,-0.38268343236508956 l -0.9238795325112861,0.38268343236508784 l -2.0,0.0 l 0.9238795325112868,-0.3826834323650896 l 0.0,0.0 l 0.0,0.0 l 0.9238795325112868,-0.3826834323650896 l 0.7071067811865477,-0.7071067811865475 l -0.7071067811865479,0.7071067811865461 l -1.8477590650225721,0.7653668647301828 l 0.9238795325112868,-0.3826834323650896 l 0.9238795325112868,-0.3826834323650896 l 0.7071067811865477,-0.7071067811865475 l 0.7071067811865477,-0.7071067811865475 l 0.7071067811865477,-0.7071067811865475 l 0.0,0.0 l 0.0,0.0 l 0.7071067811865477,-0.7071067811865475 l 0.38268343236508995,-0.9238795325112867 l -0.3826834323650896,0.9238795325112861 l -2.8284271247461916,2.8284271247461845 l 1.0,1.6653345369377348e-16 l 0.0,0.0 l 0.0,0.0 l 0.9999999999999999,1.6653345369377348e-16 l 0.9238795325112867,-0.38268343236508956 l -0.9238795325112861,0.38268343236508784 l -11.352372379537528,7.187587978952735 l 0.38268343236508995,-0.9238795325112867 l 0.38268343236508995,-0.9238795325112867 l 0.38268343236508995,-0.9238795325112867 l 0.38268343236508995,-0.9238795325112867 l 0.7071067811865477,-0.7071067811865475 l 0.7071067811865477,-0.7071067811865475 l 0.9238795325112868,-0.3826834323650896 l 0.0,0.0 l 0.0,0.0 l 0.9238795325112868,-0.3826834323650896 l 0.7071067811865477,-0.7071067811865475 l -0.7071067811865479,0.7071067811865461 l -1.847759065022574,0.7653668647301828 l 0.7071067811865477,-0.7071067811865475 l 0.0,0.0 l 0.0,0.0 l 0.7071067811865477,-0.7071067811865475 l 0.38268343236508995,-0.9238795325112867 l -0.3826834323650896,0.9238795325112861 l -1.4142135623730958,1.4142135623730923 l 0.7071067811865477,-0.7071067811865475 l 0.7071067811865477,-0.7071067811865475 l 0.38268343236508995,-0.9238795325112867 l 0.38268343236508995,-0.9238795325112867 l 0.38268343236508995,-0.9238795325112867 l 0.0,0.0 l 0.0,0.0 l 0.38268343236508995,-0.9238795325112867 l 1.1102230246251565e-16,-1.0 l 0.0,1.0 l -1.5307337294603585,3.6955181300451443 l 0.9238795325112868,-0.3826834323650896 l 0.0,0.0 l 0.0,0.0 l 0.9238795325112868,-0.3826834323650896 l 0.7071067811865477,-0.7071067811865475 l -0.7071067811865479,0.7071067811865461 l -4.676186189768764,3.5937939894763673 l 0.38268343236508995,-0.9238795325112867 l 0.38268343236508995,-0.9238795325112867 l 0.7071067811865477,-0.7071067811865475 l 0.0,0.0 l 0.0,0.0 l 0.7071067811865477,-0.7071067811865475 l 0.38268343236508995,-0.9238795325112867 l -0.3826834323650896,0.9238795325112861 l -1.4142135623730958,1.4142135623730923 l 0.38268343236508995,-0.9238795325112867 l 0.0,0.0 l 0.0,0.0 l 0.38268343236508995,-0.9238795325112867 l 1.1102230246251565e-16,-1.0 l 0.0,1.0 l -0.7653668647301792,1.8477590650225721 l 0.38268343236508995,-0.9238795325112867 l 0.38268343236508995,-0.9238795325112867 l 1.1102230246251565e-16,-1.0 l 1.1102230246251565e-16,-1.0 l 1.1102230246251565e-16,-1.0 l 0.0,0.0 l 0.0,0.0 l 5.551115123125783e-17,-1.0 l -0.3826834323650897,-0.9238795325112867 l 0.3826834323650896,0.9238795325112861 l 0.0,4.0 l 0.7071067811865477,-0.7071067811865475 l 0.0,0.0 l 0.0,0.0 l 0.7071067811865477,-0.7071067811865475 l 0.38268343236508995,-0.9238795325112867 l -0.3826834323650896,0.9238795325112861 l -2.9449472918334543,5.1097316924182365 l 0.38268343236508995,-0.9238795325112867 l 0.38268343236508995,-0.9238795325112867 l 0.38268343236508995,-0.9238795325112867 l 0.38268343236508995,-0.9238795325112867 l 1.1102230246251565e-16,-1.0 l 1.1102230246251565e-16,-1.0 l 1.1102230246251565e-16,-1.0 l 1.1102230246251565e-16,-1.0 l 1.1102230246251565e-16,-1.0 l 1.1102230246251565e-16,-1.0 l 0.3826834323650899,-0.9238795325112867 l 0.0,0.0 l 0.0,0.0 l 0.38268343236508995,-0.9238795325112867 l 1.1102230246251565e-16,-1.0 l 0.0,1.0 l -0.7653668647301792,1.8477590650225721 l 5.551115123125783e-17,-1.0 l 0.0,0.0 l 0.0,0.0 l 5.551115123125783e-17,-1.0 l -0.3826834323650897,-0.9238795325112867 l 0.3826834323650896,0.9238795325112861 l 0.0,2.0 l 5.551115123125783e-17,-1.0 l 5.551115123125783e-17,-1.0 l -0.3826834323650897,-0.9238795325112867 l -0.3826834323650897,-0.9238795325112867 l -0.3826834323650897,-0.9238795325112867 l 0.0,0.0 l 0.0,0.0 l -0.3826834323650897,-0.9238795325112867 l -0.7071067811865475,-0.7071067811865475 l 0.7071067811865475,0.7071067811865461 l 1.5307337294603585,3.6955181300451443 l 0.38268343236508984,-0.9238795325112867 l 0.0,0.0 l 0.0,0.0 l 0.38268343236508995,-0.9238795325112867 l 1.1102230246251565e-16,-1.0 l 0.0,1.0 l -0.7653668647301792,9.847759065022572 l 0.7071067811865477,-0.7071067811865475 l 0.7071067811865477,-0.7071067811865475 l 0.9238795325112868,-0.3826834323650896 l 0.0,0.0 l 0.0,0.0 l 0.9238795325112868,-0.3826834323650896 l 0.7071067811865477,-0.7071067811865475 l -0.7071067811865479,0.7071067811865461 l -1.8477590650225721,0.7653668647301828 l 0.7071067811865477,-0.7071067811865475 l 0.0,0.0 l 0.0,0.0 l 0.7071067811865477,-0.7071067811865475 l 0.38268343236508995,-0.9238795325112867 l -0.3826834323650896,0.9238795325112861 l -1.4142135623730958,1.4142135623730923 l 0.7071067811865477,-0.7071067811865475 l 0.7071067811865477,-0.7071067811865475 l 0.38268343236508995,-0.9238795325112867 l 0.38268343236508995,-0.9238795325112867 l 0.38268343236508995,-0.9238795325112867 l 0.0,0.0 l 0.0,0.0 l 0.38268343236508995,-0.9238795325112867 l 1.1102230246251565e-16,-1.0 l 0.0,1.0 l -1.5307337294603585,3.6955181300451443 l 0.9238795325112868,-0.3826834323650896 l 0.0,0.0 l 0.0,0.0 l 0.9238795325112868,-0.3826834323650896 l 0.7071067811865477,-0.7071067811865475 l -0.7071067811865479,0.7071067811865461 l -7.737653648689482,10.984830249566656 l 0.38268343236508995,-0.9238795325112867 l 0.38268343236508995,-0.9238795325112867 l 0.38268343236508995,-0.9238795325112867 l 0.38268343236508995,-0.9238795325112867 l 0.38268343236508995,-0.9238795325112867 l 0.38268343236508995,-0.9238795325112867 l 0.38268343236508995,-0.9238795325112867 l 0.38268343236508995,-0.9238795325112867 l 1.1102230246251565e-16,-1.0 l 1.1102230246251565e-16,-1.0 l 1.1102230246251565e-16,-1.0 l 1.1102230246251565e-16,-1.0 l 1.1102230246251565e-16,-1.0 l 1.1102230246251565e-16,-1.0 l 1.1102230246251565e-16,-1.0 l 1.1102230246251565e-16,-1.0 l 1.1102230246251565e-16,-1.0 l 1.1102230246251565e-16,-1.0 l 1.1102230246251565e-16,-1.0 l 1.1102230246251565e-16,-1.0 l 0.3826834323650899,-0.9238795325112867 l 0.3826834323650899,-0.9238795325112867 l 0.7071067811865477,-0.7071067811865475 l 0.0,0.0 l 0.0,0.0 l 0.7071067811865477,-0.7071067811865475 l 0.38268343236508995,-0.9238795325112867 l -0.3826834323650896,0.9238795325112861 l -1.4142135623730958,1.4142135623730923 l 0.38268343236508995,-0.9238795325112867 l 0.0,0.0 l 0.0,0.0 l 0.38268343236508995,-0.9238795325112867 l 1.1102230246251565e-16,-1.0 l 0.0,1.0 l -0.7653668647301792,1.8477590650225721 l 0.38268343236508995,-0.9238795325112867 l 0.38268343236508995,-0.9238795325112867 l 1.1102230246251565e-16,-1.0 l 1.1102230246251565e-16,-1.0 l 1.1102230246251565e-16,-1.0 l 0.0,0.0 l 0.0,0.0 l 5.551115123125783e-17,-1.0 l -0.3826834323650897,-0.9238795325112867 l 0.3826834323650896,0.9238795325112861 l 0.0,4.0 l 0.7071067811865477,-0.7071067811865475 l 0.0,0.0 l 0.0,0.0 l 0.7071067811865477,-0.7071067811865475 l 0.38268343236508995,-0.9238795325112867 l -0.3826834323650896,0.9238795325112861 l -2.9449472918334543,5.1097316924182365 l 5.551115123125783e-17,-1.0 l 5.551115123125783e-17,-1.0 l 0.38268343236508984,-0.9238795325112867 l 0.0,0.0 l 0.0,0.0 l 0.38268343236508995,-0.9238795325112867 l 1.1102230246251565e-16,-1.0 l 0.0,1.0 l -0.7653668647301792,1.8477590650225721 l 5.551115123125783e-17,-1.0 l 0.0,0.0 l 0.0,0.0 l 5.551115123125783e-17,-1.0 l -0.3826834323650897,-0.9238795325112867 l 0.3826834323650896,0.9238795325112861 l 0.0,2.0 l 5.551115123125783e-17,-1.0 l 5.551115123125783e-17,-1.0 l -0.3826834323650897,-0.9238795325112867 l -0.3826834323650897,-0.9238795325112867 l -0.3826834323650897,-0.9238795325112867 l 0.0,0.0 l 0.0,0.0 l -0.3826834323650897,-0.9238795325112867 l -0.7071067811865475,-0.7071067811865475 l 0.7071067811865475,0.7071067811865461 l 1.5307337294603585,3.6955181300451443 l 0.38268343236508984,-0.9238795325112867 l 0.0,0.0 l 0.0,0.0 l 0.38268343236508995,-0.9238795325112867 l 1.1102230246251565e-16,-1.0 l 0.0,1.0 l -0.7653668647301792,5.847759065022572 l 5.551115123125783e-17,-1.0 l 5.551115123125783e-17,-1.0 l 5.551115123125783e-17,-1.0 l 5.551115123125783e-17,-1.0 l -0.3826834323650897,-0.9238795325112867 l -0.3826834323650897,-0.9238795325112867 l -0.3826834323650897,-0.9238795325112867 l -0.3826834323650897,-0.9238795325112867 l -0.3826834323650897,-0.9238795325112867 l -0.3826834323650897,-0.9238795325112867 l 5.551115123125783e-17,-1.0 l 0.0,0.0 l 0.0,0.0 l 5.551115123125783e-17,-1.0 l -0.3826834323650897,-0.9238795325112867 l 0.3826834323650896,0.9238795325112861 l 0.0,2.0 l -0.3826834323650897,-0.9238795325112867 l 0.0,0.0 l 0.0,0.0 l -0.3826834323650897,-0.9238795325112867 l -0.7071067811865475,-0.7071067811865475 l 0.7071067811865475,0.7071067811865461 l 0.7653668647301792,1.8477590650225721 l -0.3826834323650897,-0.9238795325112867 l -0.3826834323650897,-0.9238795325112867 l -0.7071067811865475,-0.7071067811865475 l -0.7071067811865475,-0.7071067811865475 l -0.7071067811865475,-0.7071067811865475 l 0.0,0.0 l 0.0,0.0 l -0.7071067811865475,-0.7071067811865475 l -0.9238795325112866,-0.3826834323650897 l 0.9238795325112866,0.3826834323650914 l 2.82842712474619,2.8284271247461845 l 5.551115123125783e-17,-1.0 l 0.0,0.0 l 0.0,0.0 l 5.551115123125783e-17,-1.0 l -0.3826834323650897,-0.9238795325112867 l 0.3826834323650896,0.9238795325112861 l 3.061467458920717,9.391036260090289 l 0.38268343236508984,-0.9238795325112867 l 0.38268343236508984,-0.9238795325112867 l 0.7071067811865477,-0.7071067811865475 l 0.0,0.0 l 0.0,0.0 l 0.7071067811865477,-0.7071067811865475 l 0.38268343236508995,-0.9238795325112867 l -0.3826834323650896,0.9238795325112861 l -1.4142135623730958,1.4142135623730923 l 0.38268343236508995,-0.9238795325112867 l 0.0,0.0 l 0.0,0.0 l 0.38268343236508995,-0.9238795325112867 l 1.1102230246251565e-16,-1.0 l 0.0,1.0 l -0.7653668647301792,1.8477590650225721 l 0.38268343236508995,-0.9238795325112867 l 0.38268343236508995,-0.9238795325112867 l 1.1102230246251565e-16,-1.0 l 1.1102230246251565e-16,-1.0 l 1.1102230246251565e-16,-1.0 l 0.0,0.0 l 0.0,0.0 l 5.551115123125783e-17,-1.0 l -0.3826834323650897,-0.9238795325112867 l 0.3826834323650896,0.9238795325112861 l 0.0,4.0 l 0.7071067811865477,-0.7071067811865475 l 0.0,0.0 l 0.0,0.0 l 0.7071067811865477,-0.7071067811865475 l 0.38268343236508995,-0.9238795325112867 l -0.3826834323650896,0.9238795325112861 l -2.9449472918334543,21.109731692418237 l 0.7071067811865477,-0.7071067811865475 l 0.7071067811865477,-0.7071067811865475 l 0.7071067811865477,-0.7071067811865475 l 0.7071067811865477,-0.7071067811865475 l 0.9238795325112868,-0.3826834323650896 l 0.9238795325112868,-0.3826834323650896 l 1.0,1.6653345369377348e-16 l 0.0,0.0 l 0.0,0.0 l 0.9999999999999999,1.6653345369377348e-16 l 0.9238795325112867,-0.38268343236508956 l -0.9238795325112861,0.3826834323650914 l -2.0,0.0 l 0.9238795325112868,-0.3826834323650896 l 0.0,0.0 l 0.0,0.0 l 0.9238795325112868,-0.3826834323650896 l 0.7071067811865477,-0.7071067811865475 l -0.7071067811865479,0.7071067811865461 l -1.8477590650225721,0.7653668647301828 l 0.9238795325112868,-0.3826834323650896 l 0.9238795325112868,-0.3826834323650896 l 0.7071067811865477,-0.7071067811865475 l 0.7071067811865477,-0.7071067811865475 l 0.7071067811865477,-0.7071067811865475 l 0.0,0.0 l 0.0,0.0 l 0.7071067811865477,-0.7071067811865475 l 0.38268343236508995,-0.9238795325112867 l -0.3826834323650896,0.9238795325112861 l -2.8284271247461916,2.8284271247461845 l 1.0,1.6653345369377348e-16 l 0.0,0.0 l 0.0,0.0 l 0.9999999999999999,1.6653345369377348e-16 l 0.9238795325112867,-0.38268343236508956 l -0.9238795325112861,0.3826834323650914 l -5.695518130045144,1.5307337294603656 l 0.7071067811865477,-0.7071067811865475 l 0.7071067811865477,-0.7071067811865475 l 0.9238795325112868,-0.3826834323650896 l 0.0,0.0 l 0.0,0.0 l 0.9238795325112868,-0.3826834323650896 l 0.7071067811865477,-0.7071067811865475 l -0.7071067811865479,0.7071067811865461 l -1.8477590650225721,0.7653668647301828 l 0.7071067811865477,-0.7071067811865475 l 0.0,0.0 l 0.0,0.0 l 0.7071067811865477,-0.7071067811865475 l 0.38268343236508995,-0.9238795325112867 l -0.3826834323650896,0.9238795325112861 l -1.4142135623730958,1.4142135623730923 l 0.7071067811865477,-0.7071067811865475 l 0.7071067811865477,-0.7071067811865475 l 0.38268343236508995,-0.9238795325112867 l 0.38268343236508995,-0.9238795325112867 l 0.38268343236508995,-0.9238795325112867 l 0.0,0.0 l 0.0,0.0 l 0.38268343236508995,-0.9238795325112867 l 1.1102230246251565e-16,-1.0 l 0.0,1.0 l -1.5307337294603585,3.6955181300451443 l 0.9238795325112868,-0.3826834323650896 l 0.0,0.0 l 0.0,0.0 l 0.9238795325112868,-0.3826834323650896 l 0.7071067811865477,-0.7071067811865475 l -0.7071067811865479,0.7071067811865461 l -4.676186189768764,3.5937939894763673 l 0.7071067811865477,-0.7071067811865475 l 0.7071067811865477,-0.7071067811865475 l 0.7071067811865477,-0.7071067811865475 l 0.7071067811865477,-0.7071067811865475 l 0.38268343236508995,-0.9238795325112867 l 0.38268343236508995,-0.9238795325112867 l 0.38268343236508995,-0.9238795325112867 l 0.38268343236508995,-0.9238795325112867 l 0.38268343236508995,-0.9238795325112867 l 0.38268343236508995,-0.9238795325112867 l 0.7071067811865477,-0.7071067811865475 l 0.0,0.0 l 0.0,0.0 l 0.7071067811865477,-0.7071067811865475 l 0.38268343236508995,-0.9238795325112867 l -0.3826834323650896,0.9238795325112861 l -1.4142135623730958,1.4142135623730923 l 0.38268343236508995,-0.9238795325112867 l 0.0,0.0 l 0.0,0.0 l 0.38268343236508995,-0.9238795325112867 l 1.1102230246251565e-16,-1.0 l 0.0,1.0 l -0.7653668647301792,1.8477590650225721 l 0.38268343236508995,-0.9238795325112867 l 0.38268343236508995,-0.9238795325112867 l 1.1102230246251565e-16,-1.0 l 1.1102230246251565e-16,-1.0 l 1.1102230246251565e-16,-1.0 l 0.0,0.0 l 0.0,0.0 l 5.551115123125783e-17,-1.0 l -0.3826834323650897,-0.9238795325112867 l 0.3826834323650896,0.9238795325112861 l 0.0,4.0 l 0.7071067811865477,-0.7071067811865475 l 0.0,0.0 l 0.0,0.0 l 0.7071067811865477,-0.7071067811865475 l 0.38268343236508995,-0.9238795325112867 l -0.3826834323650914,0.9238795325112861 l -4.475681021293813,8.80524982246338 l 0.9238795325112868,-0.3826834323650896 l 0.9238795325112868,-0.3826834323650896 l 1.0,1.6653345369377348e-16 l 0.0,0.0 l 0.0,0.0 l 0.9999999999999999,1.6653345369377348e-16 l 0.9238795325112867,-0.38268343236508956 l -0.9238795325112861,0.3826834323650914 l -2.0,0.0 l 0.9238795325112868,-0.3826834323650896 l 0.0,0.0 l 0.0,0.0 l 0.9238795325112868,-0.3826834323650896 l 0.7071067811865477,-0.7071067811865475 l -0.7071067811865461,0.7071067811865461 l -1.8477590650225721,0.7653668647301828 l 0.9238795325112868,-0.3826834323650896 l 0.9238795325112868,-0.3826834323650896 l 0.7071067811865477,-0.7071067811865475 l 0.7071067811865477,-0.7071067811865475 l 0.7071067811865477,-0.7071067811865475 l 0.0,0.0 l 0.0,0.0 l 0.7071067811865477,-0.7071067811865475 l 0.38268343236508995,-0.9238795325112867 l -0.3826834323650914,0.9238795325112861 l -2.8284271247461845,2.8284271247461845 l 1.0,1.6653345369377348e-16 l 0.0,0.0 l 0.0,0.0 l 0.9999999999999999,1.6653345369377348e-16 l 0.9238795325112867,-0.38268343236508956 l -0.9238795325112861,0.3826834323650914 l -17.475307297378965,21.96966049913331 l 5.551115123125783e-17,-1.0 l 5.551115123125783e-17,-1.0 l 5.551115123125783e-17,-1.0 l 5.551115123125783e-17,-1.0 l 5.551115123125783e-17,-1.0 l 5.551115123125783e-17,-1.0 l 5.551115123125783e-17,-1.0 l 5.551115123125783e-17,-1.0 l 0.38268343236508984,-0.9238795325112867 l 0.38268343236508984,-0.9238795325112867 l 0.38268343236508984,-0.9238795325112867 l 0.38268343236508984,-0.9238795325112867 l 0.7071067811865477,-0.7071067811865475 l 0.7071067811865477,-0.7071067811865475 l 0.9238795325112868,-0.3826834323650896 l 0.0,0.0 l 0.0,0.0 l 0.9238795325112868,-0.3826834323650896 l 0.7071067811865477,-0.7071067811865475 l -0.7071067811865479,0.7071067811865461 l -1.847759065022574,0.7653668647301828 l 0.7071067811865477,-0.7071067811865475 l 0.0,0.0 l 0.0,0.0 l 0.7071067811865477,-0.7071067811865475 l 0.38268343236508995,-0.9238795325112867 l -0.3826834323650896,0.9238795325112861 l -1.4142135623730958,1.4142135623730923 l 0.7071067811865477,-0.7071067811865475 l 0.7071067811865477,-0.7071067811865475 l 0.38268343236508995,-0.9238795325112867 l 0.38268343236508995,-0.9238795325112867 l 0.38268343236508995,-0.9238795325112867 l 0.0,0.0 l 0.0,0.0 l 0.38268343236508995,-0.9238795325112867 l 1.1102230246251565e-16,-1.0 l 0.0,1.0 l -1.5307337294603585,3.6955181300451443 l 0.9238795325112868,-0.3826834323650896 l 0.0,0.0 l 0.0,0.0 l 0.9238795325112868,-0.3826834323650896 l 0.7071067811865477,-0.7071067811865475 l -0.7071067811865479,0.7071067811865461 l -4.676186189768765,3.5937939894763673 l 0.38268343236508995,-0.9238795325112867 l 0.38268343236508995,-0.9238795325112867 l 0.7071067811865477,-0.7071067811865475 l 0.0,0.0 l 0.0,0.0 l 0.7071067811865477,-0.7071067811865475 l 0.38268343236508995,-0.9238795325112867 l -0.3826834323650896,0.9238795325112861 l -1.4142135623730954,1.4142135623730923 l 0.38268343236508995,-0.9238795325112867 l 0.0,0.0 l 0.0,0.0 l 0.38268343236508995,-0.9238795325112867 l 1.1102230246251565e-16,-1.0 l 0.0,1.0 l -0.7653668647301801,1.8477590650225721 l 0.38268343236508995,-0.9238795325112867 l 0.38268343236508995,-0.9238795325112867 l 1.1102230246251565e-16,-1.0 l 1.1102230246251565e-16,-1.0 l 1.1102230246251565e-16,-1.0 l 0.0,0.0 l 0.0,0.0 l 5.551115123125783e-17,-1.0 l -0.3826834323650897,-0.9238795325112867 l 0.3826834323650896,0.9238795325112861 l 0.0,4.0 l 0.7071067811865477,-0.7071067811865475 l 0.0,0.0 l 0.0,0.0 l 0.7071067811865477,-0.7071067811865475 l 0.38268343236508995,-0.9238795325112867 l -0.3826834323650896,0.9238795325112861 l -2.944947291833455,5.1097316924182365 l 0.38268343236508995,-0.9238795325112867 l 0.38268343236508995,-0.9238795325112867 l 0.38268343236508995,-0.9238795325112867 l 0.38268343236508995,-0.9238795325112867 l 1.1102230246251565e-16,-1.0 l 1.1102230246251565e-16,-1.0 l 1.1102230246251565e-16,-1.0 l 1.1102230246251565e-16,-1.0 l 1.1102230246251565e-16,-1.0 l 1.1102230246251565e-16,-1.0 l 0.3826834323650899,-0.9238795325112867 l 0.0,0.0 l 0.0,0.0 l 0.38268343236508995,-0.9238795325112867 l 1.1102230246251565e-16,-1.0 l 0.0,1.0 l -0.7653668647301801,1.8477590650225721 l 5.551115123125783e-17,-1.0 l 0.0,0.0 l 0.0,0.0 l 5.551115123125783e-17,-1.0 l -0.3826834323650897,-0.9238795325112867 l 0.3826834323650896,0.9238795325112861 l 0.0,2.0 l 5.551115123125783e-17,-1.0 l 5.551115123125783e-17,-1.0 l -0.3826834323650897,-0.9238795325112867 l -0.3826834323650897,-0.9238795325112867 l -0.3826834323650897,-0.9238795325112867 l 0.0,0.0 l 0.0,0.0 l -0.3826834323650897,-0.9238795325112867 l -0.7071067811865475,-0.7071067811865475 l 0.7071067811865475,0.7071067811865461 l 1.5307337294603585,3.6955181300451443 l 0.38268343236508984,-0.9238795325112867 l 0.0,0.0 l 0.0,0.0 l 0.38268343236508995,-0.9238795325112867 l 1.1102230246251565e-16,-1.0 l 0.0,1.0 l -0.7653668647301801,9.847759065022572 l 0.7071067811865477,-0.7071067811865475 l 0.7071067811865477,-0.7071067811865475 l 0.9238795325112868,-0.3826834323650896 l 0.0,0.0 l 0.0,0.0 l 0.9238795325112868,-0.3826834323650896 l 0.7071067811865477,-0.7071067811865475 l -0.7071067811865479,0.7071067811865461 l -1.847759065022574,0.7653668647301828 l 0.7071067811865477,-0.7071067811865475 l 0.0,0.0 l 0.0,0.0 l 0.7071067811865477,-0.7071067811865475 l 0.38268343236508995,-0.9238795325112867 l -0.3826834323650896,0.9238795325112861 l -1.4142135623730958,1.4142135623730923 l 0.7071067811865477,-0.7071067811865475 l 0.7071067811865477,-0.7071067811865475 l 0.38268343236508995,-0.9238795325112867 l 0.38268343236508995,-0.9238795325112867 l 0.38268343236508995,-0.9238795325112867 l 0.0,0.0 l 0.0,0.0 l 0.38268343236508995,-0.9238795325112867 l 1.1102230246251565e-16,-1.0 l 0.0,1.0 l -1.5307337294603585,3.6955181300451443 l 0.9238795325112868,-0.3826834323650896 l 0.0,0.0 l 0.0,0.0 l 0.9238795325112868,-0.3826834323650896 l 0.7071067811865477,-0.7071067811865475 l -0.7071067811865479,0.7071067811865461 l -7.737653648689484,10.984830249566656 l 5.551115123125783e-17,-1.0 l 5.551115123125783e-17,-1.0 l 5.551115123125783e-17,-1.0 l 5.551115123125783e-17,-1.0 l 0.38268343236508984,-0.9238795325112867 l 0.38268343236508984,-0.9238795325112867 l 0.7071067811865477,-0.7071067811865475 l 0.0,0.0 l 0.0,0.0 l 0.7071067811865477,-0.7071067811865475 l 0.38268343236508995,-0.9238795325112867 l -0.38268343236509006,0.9238795325112861 l -1.4142135623730954,1.4142135623730923 l 0.38268343236508995,-0.9238795325112867 l 0.0,0.0 l 0.0,0.0 l 0.38268343236508995,-0.9238795325112867 l 1.1102230246251565e-16,-1.0 l 0.0,1.0 l -0.7653668647301798,1.8477590650225721 l 0.38268343236508995,-0.9238795325112867 l 0.38268343236508995,-0.9238795325112867 l 1.1102230246251565e-16,-1.0 l 1.1102230246251565e-16,-1.0 l 1.1102230246251565e-16,-1.0 l 0.0,0.0 l 0.0,0.0 l 5.551115123125783e-17,-1.0 l -0.3826834323650897,-0.9238795325112867 l 0.3826834323650896,0.9238795325112861 l 0.0,4.0 l 0.7071067811865477,-0.7071067811865475 l 0.0,0.0 l 0.0,0.0 l 0.7071067811865477,-0.7071067811865475 l 0.38268343236508995,-0.9238795325112867 l -0.38268343236509006,0.9238795325112861 l -2.944947291833455,5.1097316924182365 l 5.551115123125783e-17,-1.0 l 5.551115123125783e-17,-1.0 l 0.38268343236508984,-0.9238795325112867 l 0.0,0.0 l 0.0,0.0 l 0.38268343236508995,-0.9238795325112867 l 1.1102230246251565e-16,-1.0 l -1.1102230246251565e-16,1.0 l -0.7653668647301798,1.8477590650225721 l 5.551115123125783e-17,-1.0 l 0.0,0.0 l 0.0,0.0 l 5.551115123125783e-17,-1.0 l -0.3826834323650897,-0.9238795325112867 l 0.3826834323650897,0.9238795325112861 l -1.1102230246251585e-16,2.0 l 5.551115123125783e-17,-1.0 l 5.551115123125783e-17,-1.0 l -0.3826834323650897,-0.9238795325112867 l -0.3826834323650897,-0.9238795325112867 l -0.3826834323650897,-0.9238795325112867 l 0.0,0.0 l 0.0,0.0 l -0.3826834323650897,-0.9238795325112867 l -0.7071067811865475,-0.7071067811865475 l 0.7071067811865475,0.7071067811865461 l 1.530733729460359,3.6955181300451443 l 0.38268343236508984,-0.9238795325112867 l 0.0,0.0 l 0.0,0.0 l 0.38268343236508995,-0.9238795325112867 l 1.1102230246251565e-16,-1.0 l -1.1102230246251565e-16,1.0 l -0.76536686473018,5.847759065022572 l 5.551115123125783e-17,-1.0 l 5.551115123125783e-17,-1.0 l 5.551115123125783e-17,-1.0 l 5.551115123125783e-17,-1.0 l -0.3826834323650897,-0.9238795325112867 l -0.3826834323650897,-0.9238795325112867 l -0.3826834323650897,-0.9238795325112867 l -0.3826834323650897,-0.9238795325112867 l -0.3826834323650897,-0.9238795325112867 l -0.3826834323650897,-0.9238795325112867 l 5.551115123125783e-17,-1.0 l 0.0,0.0 l 0.0,0.0 l 5.551115123125783e-17,-1.0 l -0.3826834323650897,-0.9238795325112867 l 0.3826834323650896,0.9238795325112861 l 0.0,2.0 l -0.3826834323650897,-0.9238795325112867 l 0.0,0.0 l 0.0,0.0 l -0.3826834323650897,-0.9238795325112867 l -0.7071067811865475,-0.7071067811865475 l 0.7071067811865475,0.7071067811865461 l 0.7653668647301792,1.8477590650225721 l -0.3826834323650897,-0.9238795325112867 l -0.3826834323650897,-0.9238795325112867 l -0.7071067811865475,-0.7071067811865475 l -0.7071067811865475,-0.7071067811865475 l -0.7071067811865475,-0.7071067811865475 l 0.0,0.0 l 0.0,0.0 l -0.7071067811865475,-0.7071067811865475 l -0.9238795325112866,-0.3826834323650897 l 0.923879532511287,0.3826834323650914 l 2.828427124746191,2.8284271247461845 l 5.551115123125783e-17,-1.0 l 0.0,0.0 l 0.0,0.0 l 5.551115123125783e-17,-1.0 l -0.3826834323650897,-0.9238795325112867 l 0.3826834323650896,0.9238795325112861 l 3.0614674589207174,9.391036260090289 l 0.38268343236508984,-0.9238795325112867 l 0.38268343236508984,-0.9238795325112867 l 0.7071067811865477,-0.7071067811865475 l 0.0,0.0 l 0.0,0.0 l 0.7071067811865477,-0.7071067811865475 l 0.38268343236508995,-0.9238795325112867 l -0.38268343236509006,0.9238795325112861 l -1.4142135623730954,1.4142135623730923 l 0.38268343236508995,-0.9238795325112867 l 0.0,0.0 l 0.0,0.0 l 0.38268343236508995,-0.9238795325112867 l 1.1102230246251565e-16,-1.0 l 0.0,1.0 l -0.76536686473018,1.8477590650225721 l 0.38268343236508995,-0.9238795325112867 l 0.38268343236508995,-0.9238795325112867 l 1.1102230246251565e-16,-1.0 l 1.1102230246251565e-16,-1.0 l 1.1102230246251565e-16,-1.0 l 0.0,0.0 l 0.0,0.0 l 5.551115123125783e-17,-1.0 l -0.3826834323650897,-0.9238795325112867 l 0.3826834323650896,0.9238795325112861 l 0.0,4.0 l 0.7071067811865477,-0.7071067811865475 l 0.0,0.0 l 0.0,0.0 l 0.7071067811865477,-0.7071067811865475 l 0.38268343236508995,-0.9238795325112867 l -0.38268343236509006,0.9238795325112861 l -2.9449472918334556,13.109731692418237 l 5.551115123125783e-17,-1.0 l 5.551115123125783e-17,-1.0 l 5.551115123125783e-17,-1.0 l 5.551115123125783e-17,-1.0 l 5.551115123125783e-17,-1.0 l 5.551115123125783e-17,-1.0 l 5.551115123125783e-17,-1.0 l 5.551115123125783e-17,-1.0 l -0.3826834323650897,-0.9238795325112867 l -0.3826834323650897,-0.9238795325112867 l -0.3826834323650897,-0.9238795325112867 l -0.3826834323650897,-0.9238795325112867 l -0.3826834323650897,-0.9238795325112867 l -0.3826834323650897,-0.9238795325112867 l -0.3826834323650897,-0.9238795325112867 l -0.3826834323650897,-0.9238795325112867 l -0.3826834323650897,-0.9238795325112867 l -0.3826834323650897,-0.9238795325112867 l -0.3826834323650897,-0.9238795325112867 l -0.3826834323650897,-0.9238795325112867 l 5.551115123125783e-17,-1.0 l 5.551115123125783e-17,-1.0 l 0.38268343236508984,-0.9238795325112867 l 0.0,0.0 l 0.0,0.0 l 0.38268343236508995,-0.9238795325112867 l 1.1102230246251565e-16,-1.0 l 0.0,1.0 l -0.7653668647301797,1.8477590650225721 l 5.551115123125783e-17,-1.0 l 0.0,0.0 l 0.0,0.0 l 5.551115123125783e-17,-1.0 l -0.3826834323650897,-0.9238795325112867 l 0.3826834323650896,0.9238795325112861 l 0.0,2.0 l 5.551115123125783e-17,-1.0 l 5.551115123125783e-17,-1.0 l -0.3826834323650897,-0.9238795325112867 l -0.3826834323650897,-0.9238795325112867 l -0.3826834323650897,-0.9238795325112867 l 0.0,0.0 l 0.0,0.0 l -0.3826834323650897,-0.9238795325112867 l -0.7071067811865475,-0.7071067811865475 l 0.707106781186547,0.7071067811865461 l 1.5307337294603585,3.6955181300451443 l 0.38268343236508984,-0.9238795325112867 l 0.0,0.0 l 0.0,0.0 l 0.38268343236508995,-0.9238795325112867 l 1.1102230246251565e-16,-1.0 l 0.0,1.0 l -0.7653668647301797,5.847759065022572 l -0.3826834323650897,-0.9238795325112867 l -0.3826834323650897,-0.9238795325112867 l 5.551115123125783e-17,-1.0 l 0.0,0.0 l 0.0,0.0 l 5.551115123125783e-17,-1.0 l -0.3826834323650897,-0.9238795325112867 l 0.3826834323650896,0.9238795325112861 l 0.0,2.0 l -0.3826834323650897,-0.9238795325112867 l 0.0,0.0 l 0.0,0.0 l -0.3826834323650897,-0.9238795325112867 l -0.7071067811865475,-0.7071067811865475 l 0.707106781186547,0.7071067811865461 l 0.7653668647301792,1.8477590650225721 l -0.3826834323650897,-0.9238795325112867 l -0.3826834323650897,-0.9238795325112867 l -0.7071067811865475,-0.7071067811865475 l -0.7071067811865475,-0.7071067811865475 l -0.7071067811865475,-0.7071067811865475 l 0.0,0.0 l 0.0,0.0 l -0.7071067811865475,-0.7071067811865475 l -0.9238795325112866,-0.3826834323650897 l 0.9238795325112861,0.3826834323650914 l 2.8284271247461907,2.8284271247461845 l 5.551115123125783e-17,-1.0 l 0.0,0.0 l 0.0,0.0 l 5.551115123125783e-17,-1.0 l -0.3826834323650897,-0.9238795325112867 l 0.3826834323650896,0.9238795325112861 l 1.5307337294603585,5.695518130045144 l -0.3826834323650897,-0.9238795325112867 l -0.3826834323650897,-0.9238795325112867 l -0.3826834323650897,-0.9238795325112867 l -0.3826834323650897,-0.9238795325112867 l -0.7071067811865475,-0.7071067811865475 l -0.7071067811865475,-0.7071067811865475 l -0.7071067811865475,-0.7071067811865475 l -0.7071067811865475,-0.7071067811865475 l -0.7071067811865475,-0.7071067811865475 l -0.7071067811865475,-0.7071067811865475 l -0.3826834323650897,-0.9238795325112866 l 0.0,0.0 l 0.0,0.0 l -0.38268343236508967,-0.9238795325112865 l -0.7071067811865474,-0.7071067811865472 l 0.7071067811865479,0.7071067811865461 l 0.7653668647301792,1.8477590650225721 l -0.7071067811865475,-0.7071067811865475 l 0.0,0.0 l 0.0,0.0 l -0.7071067811865475,-0.7071067811865475 l -0.9238795325112866,-0.3826834323650897 l 0.9238795325112861,0.3826834323650914 l 1.4142135623730958,1.4142135623730923 l -0.7071067811865475,-0.7071067811865475 l -0.7071067811865475,-0.7071067811865475 l -0.9238795325112866,-0.3826834323650897 l -0.9238795325112866,-0.3826834323650897 l -0.9238795325112866,-0.3826834323650897 l 0.0,0.0 l 0.0,0.0 l -0.9238795325112866,-0.3826834323650897 l -0.9999999999999998,0.0 l 0.9999999999999982,0.0 l 3.6955181300451443,1.5307337294603656 l -0.3826834323650897,-0.9238795325112866 l 0.0,0.0 l 0.0,0.0 l -0.38268343236508967,-0.9238795325112865 l -0.7071067811865474,-0.7071067811865472 l 0.7071067811865479,0.7071067811865461 l 6.422221114222562,7.504613314514941 l 5.551115123125783e-17,-1.0 l 5.551115123125783e-17,-1.0 l 0.38268343236508984,-0.9238795325112867 l 0.0,0.0 l 0.0,0.0 l 0.38268343236508995,-0.9238795325112867 l 1.1102230246251565e-16,-1.0 l 0.0,1.0 l -0.7653668647301792,1.8477590650225721 l 5.551115123125783e-17,-1.0 l 0.0,0.0 l 0.0,0.0 l 5.551115123125783e-17,-1.0 l -0.3826834323650897,-0.9238795325112867 l 0.3826834323650896,0.9238795325112861 l 0.0,2.0 l 5.551115123125783e-17,-1.0 l 5.551115123125783e-17,-1.0 l -0.3826834323650897,-0.9238795325112867 l -0.3826834323650897,-0.9238795325112867 l -0.3826834323650897,-0.9238795325112867 l 0.0,0.0 l 0.0,0.0 l -0.3826834323650897,-0.9238795325112867 l -0.7071067811865475,-0.7071067811865475 l 0.707106781186547,0.7071067811865461 l 1.5307337294603585,3.6955181300451443 l 0.38268343236508984,-0.9238795325112867 l 0.0,0.0 l 0.0,0.0 l 0.38268343236508995,-0.9238795325112867 l 1.1102230246251565e-16,-1.0 l 0.0,1.0 l 5.3575680531112555,20.62983158520315 l 0.38268343236508984,-0.9238795325112867 l 0.38268343236508984,-0.9238795325112867 l 0.38268343236508984,-0.9238795325112867 l 0.38268343236508984,-0.9238795325112867 l 0.7071067811865477,-0.7071067811865475 l 0.7071067811865477,-0.7071067811865475 l 0.9238795325112868,-0.3826834323650896 l 0.0,0.0 l 0.0,0.0 l 0.9238795325112868,-0.3826834323650896 l 0.7071067811865477,-0.7071067811865475 l -0.7071067811865479,0.7071067811865461 l -1.847759065022574,0.7653668647301828 l 0.7071067811865477,-0.7071067811865475 l 0.0,0.0 l 0.0,0.0 l 0.7071067811865477,-0.7071067811865475 l 0.38268343236508995,-0.9238795325112867 l -0.3826834323650896,0.9238795325112861 l -1.4142135623730958,1.4142135623730923 l 0.7071067811865477,-0.7071067811865475 l 0.7071067811865477,-0.7071067811865475 l 0.38268343236508995,-0.9238795325112867 l 0.38268343236508995,-0.9238795325112867 l 0.38268343236508995,-0.9238795325112867 l 0.0,0.0 l 0.0,0.0 l 0.38268343236508995,-0.9238795325112867 l 1.1102230246251565e-16,-1.0 l 0.0,1.0 l -1.5307337294603585,3.6955181300451443 l 0.9238795325112868,-0.3826834323650896 l 0.0,0.0 l 0.0,0.0 l 0.9238795325112868,-0.3826834323650896 l 0.7071067811865477,-0.7071067811865475 l -0.7071067811865479,0.7071067811865461 l -4.6761861897687655,3.5937939894763673 l 0.38268343236508995,-0.9238795325112867 l 0.38268343236508995,-0.9238795325112867 l 0.7071067811865477,-0.7071067811865475 l 0.0,0.0 l 0.0,0.0 l 0.7071067811865477,-0.7071067811865475 l 0.38268343236508995,-0.9238795325112867 l -0.3826834323650896,0.9238795325112861 l -1.4142135623730958,1.4142135623730923 l 0.38268343236508995,-0.9238795325112867 l 0.0,0.0 l 0.0,0.0 l 0.38268343236508995,-0.9238795325112867 l 1.1102230246251565e-16,-1.0 l 0.0,1.0 l -0.7653668647301801,1.8477590650225721 l 0.38268343236508995,-0.9238795325112867 l 0.38268343236508995,-0.9238795325112867 l 1.1102230246251565e-16,-1.0 l 1.1102230246251565e-16,-1.0 l 1.1102230246251565e-16,-1.0 l 0.0,0.0 l 0.0,0.0 l 5.551115123125783e-17,-1.0 l -0.3826834323650897,-0.9238795325112867 l 0.3826834323650896,0.9238795325112861 l 0.0,4.0 l 0.7071067811865477,-0.7071067811865475 l 0.0,0.0 l 0.0,0.0 l 0.7071067811865477,-0.7071067811865475 l 0.38268343236508995,-0.9238795325112867 l -0.3826834323650896,0.9238795325112861 l -2.944947291833456,5.1097316924182365 l 0.38268343236508995,-0.9238795325112867 l 0.38268343236508995,-0.9238795325112867 l 0.38268343236508995,-0.9238795325112867 l 0.38268343236508995,-0.9238795325112867 l 1.1102230246251565e-16,-1.0 l 1.1102230246251565e-16,-1.0 l 1.1102230246251565e-16,-1.0 l 1.1102230246251565e-16,-1.0 l 1.1102230246251565e-16,-1.0 l 1.1102230246251565e-16,-1.0 l 0.3826834323650899,-0.9238795325112867 l 0.0,0.0 l 0.0,0.0 l 0.38268343236508995,-0.9238795325112867 l 1.1102230246251565e-16,-1.0 l 0.0,1.0 l -0.7653668647301801,1.8477590650225721 l 5.551115123125783e-17,-1.0 l 0.0,0.0 l 0.0,0.0 l 5.551115123125783e-17,-1.0 l -0.3826834323650897,-0.9238795325112867 l 0.3826834323650896,0.9238795325112861 l 0.0,2.0 l 5.551115123125783e-17,-1.0 l 5.551115123125783e-17,-1.0 l -0.3826834323650897,-0.9238795325112867 l -0.3826834323650897,-0.9238795325112867 l -0.3826834323650897,-0.9238795325112867 l 0.0,0.0 l 0.0,0.0 l -0.3826834323650897,-0.9238795325112867 l -0.7071067811865475,-0.7071067811865475 l 0.7071067811865475,0.7071067811865461 l 1.5307337294603585,3.6955181300451443 l 0.38268343236508984,-0.9238795325112867 l 0.0,0.0 l 0.0,0.0 l 0.38268343236508995,-0.9238795325112867 l 1.1102230246251565e-16,-1.0 l 0.0,1.0 l -0.7653668647301797,9.847759065022572 l 0.7071067811865477,-0.7071067811865475 l 0.7071067811865477,-0.7071067811865475 l 0.9238795325112868,-0.3826834323650896 l 0.0,0.0 l 0.0,0.0 l 0.9238795325112868,-0.3826834323650896 l 0.7071067811865477,-0.7071067811865475 l -0.7071067811865479,0.7071067811865461 l -1.847759065022574,0.7653668647301828 l 0.7071067811865477,-0.7071067811865475 l 0.0,0.0 l 0.0,0.0 l 0.7071067811865477,-0.7071067811865475 l 0.38268343236508995,-0.9238795325112867 l -0.3826834323650896,0.9238795325112861 l -1.4142135623730958,1.4142135623730923 l 0.7071067811865477,-0.7071067811865475 l 0.7071067811865477,-0.7071067811865475 l 0.38268343236508995,-0.9238795325112867 l 0.38268343236508995,-0.9238795325112867 l 0.38268343236508995,-0.9238795325112867 l 0.0,0.0 l 0.0,0.0 l 0.38268343236508995,-0.9238795325112867 l 1.1102230246251565e-16,-1.0 l 0.0,1.0 l -1.5307337294603585,3.6955181300451443 l 0.9238795325112868,-0.3826834323650896 l 0.0,0.0 l 0.0,0.0 l 0.9238795325112868,-0.3826834323650896 l 0.7071067811865477,-0.7071067811865475 l -0.707106781186547,0.7071067811865461 l -7.737653648689486,26.984830249566656 l 5.551115123125783e-17,-1.0 l 5.551115123125783e-17,-1.0 l 5.551115123125783e-17,-1.0 l 5.551115123125783e-17,-1.0 l 5.551115123125783e-17,-1.0 l 5.551115123125783e-17,-1.0 l 5.551115123125783e-17,-1.0 l 5.551115123125783e-17,-1.0 l 5.551115123125783e-17,-1.0 l 5.551115123125783e-17,-1.0 l 5.551115123125783e-17,-1.0 l 5.551115123125783e-17,-1.0 l 5.551115123125783e-17,-1.0 l 5.551115123125783e-17,-1.0 l 5.551115123125783e-17,-1.0 l 5.551115123125783e-17,-1.0 l -0.3826834323650897,-0.9238795325112867 l -0.3826834323650897,-0.9238795325112867 l -0.3826834323650897,-0.9238795325112867 l -0.3826834323650897,-0.9238795325112867 l -0.3826834323650897,-0.9238795325112867 l -0.3826834323650897,-0.9238795325112867 l -0.3826834323650897,-0.9238795325112867 l -0.3826834323650897,-0.9238795325112867 l -0.3826834323650897,-0.9238795325112867 l -0.3826834323650897,-0.9238795325112867 l -0.3826834323650897,-0.9238795325112867 l -0.3826834323650897,-0.9238795325112867 l -0.3826834323650897,-0.9238795325112867 l -0.3826834323650897,-0.9238795325112867 l -0.3826834323650897,-0.9238795325112867 l -0.3826834323650897,-0.9238795325112867 l -0.3826834323650897,-0.9238795325112867 l -0.3826834323650897,-0.9238795325112867 l -0.3826834323650897,-0.9238795325112867 l -0.3826834323650897,-0.9238795325112867 l -0.3826834323650897,-0.9238795325112867 l -0.3826834323650897,-0.9238795325112867 l -0.3826834323650897,-0.9238795325112867 l -0.3826834323650897,-0.9238795325112867 l 5.551115123125783e-17,-1.0 l 5.551115123125783e-17,-1.0 l 5.551115123125783e-17,-1.0 l 5.551115123125783e-17,-1.0 l 0.38268343236508984,-0.9238795325112867 l 0.38268343236508984,-0.9238795325112867 l 0.7071067811865477,-0.7071067811865475 l 0.0,0.0 l 0.0,0.0 l 0.7071067811865477,-0.7071067811865475 l 0.38268343236508995,-0.9238795325112867 l -0.3826834323650896,0.9238795325112861 l -1.4142135623730958,1.4142135623730923 l 0.38268343236508995,-0.9238795325112867 l 0.0,0.0 l 0.0,0.0 l 0.38268343236508995,-0.9238795325112867 l 1.1102230246251565e-16,-1.0 l 0.0,1.0 l -0.7653668647301792,1.8477590650225721 l 0.38268343236508995,-0.9238795325112867 l 0.38268343236508995,-0.9238795325112867 l 1.1102230246251565e-16,-1.0 l 1.1102230246251565e-16,-1.0 l 1.1102230246251565e-16,-1.0 l 0.0,0.0 l 0.0,0.0 l 5.551115123125783e-17,-1.0 l -0.3826834323650897,-0.9238795325112867 l 0.3826834323650896,0.9238795325112932 l 0.0,4.0 l 0.7071067811865477,-0.7071067811865475 l 0.0,0.0 l 0.0,0.0 l 0.7071067811865477,-0.7071067811865475 l 0.38268343236508995,-0.9238795325112867 l -0.3826834323650896,0.9238795325112932 l -2.9449472918334543,5.1097316924182365 l 5.551115123125783e-17,-1.0 l 5.551115123125783e-17,-1.0 l 0.38268343236508984,-0.9238795325112867 l 0.0,0.0 l 0.0,0.0 l 0.38268343236508995,-0.9238795325112867 l 1.1102230246251565e-16,-1.0 l 0.0,1.0 l -0.7653668647301792,1.8477590650225721 l 5.551115123125783e-17,-1.0 l 0.0,0.0 l 0.0,0.0 l 5.551115123125783e-17,-1.0 l -0.3826834323650897,-0.9238795325112867 l 0.3826834323650896,0.9238795325112861 l 0.0,2.0 l 5.551115123125783e-17,-1.0 l 5.551115123125783e-17,-1.0 l -0.3826834323650897,-0.9238795325112867 l -0.3826834323650897,-0.9238795325112867 l -0.3826834323650897,-0.9238795325112867 l 0.0,0.0 l 0.0,0.0 l -0.3826834323650897,-0.9238795325112867 l -0.7071067811865475,-0.7071067811865475 l 0.7071067811865479,0.7071067811865532 l 1.5307337294603585,3.6955181300451585 l 0.38268343236508984,-0.9238795325112867 l 0.0,0.0 l 0.0,0.0 l 0.38268343236508995,-0.9238795325112867 l 1.1102230246251565e-16,-1.0 l 0.0,1.0 l -0.7653668647301792,5.847759065022572 l 5.551115123125783e-17,-1.0 l 5.551115123125783e-17,-1.0 l 5.551115123125783e-17,-1.0 l 5.551115123125783e-17,-1.0 l -0.3826834323650897,-0.9238795325112867 l -0.3826834323650897,-0.9238795325112867 l -0.3826834323650897,-0.9238795325112867 l -0.3826834323650897,-0.9238795325112867 l -0.3826834323650897,-0.9238795325112867 l -0.3826834323650897,-0.9238795325112867 l 5.551115123125783e-17,-1.0 l 0.0,0.0 l 0.0,0.0 l 5.551115123125783e-17,-1.0 l -0.3826834323650897,-0.9238795325112867 l 0.3826834323650896,0.9238795325112932 l 0.0,2.0 l -0.3826834323650897,-0.9238795325112867 l 0.0,0.0 l 0.0,0.0 l -0.3826834323650897,-0.9238795325112867 l -0.7071067811865475,-0.7071067811865475 l 0.7071067811865479,0.7071067811865532 l 0.7653668647301792,1.8477590650225864 l -0.3826834323650897,-0.9238795325112867 l -0.3826834323650897,-0.9238795325112867 l -0.7071067811865475,-0.7071067811865475 l -0.7071067811865475,-0.7071067811865475 l -0.7071067811865475,-0.7071067811865475 l 0.0,0.0 l 0.0,0.0 l -0.7071067811865475,-0.7071067811865475 l -0.9238795325112866,-0.3826834323650897 l 0.9238795325112861,0.3826834323650843 l 2.8284271247461916,2.828427124746213 l 5.551115123125783e-17,-1.0 l 0.0,0.0 l 0.0,0.0 l 5.551115123125783e-17,-1.0 l -0.3826834323650897,-0.9238795325112867 l 0.3826834323650896,0.9238795325112932 l 3.061467458920717,9.391036260090331 l 0.38268343236508984,-0.9238795325112867 l 0.38268343236508984,-0.9238795325112867 l 0.7071067811865477,-0.7071067811865475 l 0.0,0.0 l 0.0,0.0 l 0.7071067811865477,-0.7071067811865475 l 0.38268343236508995,-0.9238795325112867 l -0.3826834323650896,0.9238795325112932 l -1.4142135623730958,1.4142135623731065 l 0.38268343236508995,-0.9238795325112867 l 0.0,0.0 l 0.0,0.0 l 0.38268343236508995,-0.9238795325112867 l 1.1102230246251565e-16,-1.0 l 0.0,1.0 l -0.7653668647301792,1.8477590650225864 l 0.38268343236508995,-0.9238795325112867 l 0.38268343236508995,-0.9238795325112867 l 1.1102230246251565e-16,-1.0 l 1.1102230246251565e-16,-1.0 l 1.1102230246251565e-16,-1.0 l 0.0,0.0 l 0.0,0.0 l 5.551115123125783e-17,-1.0 l -0.3826834323650897,-0.9238795325112867 l 0.3826834323650896,0.9238795325112932 l 0.0,4.0 l 0.7071067811865477,-0.7071067811865475 l 0.0,0.0 l 0.0,0.0 l 0.7071067811865477,-0.7071067811865475 l 0.38268343236508995,-0.9238795325112867 l -0.3826834323650896,0.9238795325112932 l -2.9449472918334543,13.109731692418265 l -0.3826834323650897,-0.9238795325112867 l -0.3826834323650897,-0.9238795325112867 l -0.3826834323650897,-0.9238795325112867 l -0.3826834323650897,-0.9238795325112867 l 5.551115123125783e-17,-1.0 l 5.551115123125783e-17,-1.0 l 0.38268343236508984,-0.9238795325112867 l 0.0,0.0 l 0.0,0.0 l 0.38268343236508995,-0.9238795325112867 l 1.1102230246251565e-16,-1.0 l 0.0,1.0 l -0.7653668647301792,1.8477590650225721 l 5.551115123125783e-17,-1.0 l 0.0,0.0 l 0.0,0.0 l 5.551115123125783e-17,-1.0 l -0.3826834323650897,-0.9238795325112867 l 0.3826834323650896,0.9238795325112861 l 0.0,2.0 l 5.551115123125783e-17,-1.0 l 5.551115123125783e-17,-1.0 l -0.3826834323650897,-0.9238795325112867 l -0.3826834323650897,-0.9238795325112867 l -0.3826834323650897,-0.9238795325112867 l 0.0,0.0 l 0.0,0.0 l -0.3826834323650897,-0.9238795325112867 l -0.7071067811865475,-0.7071067811865475 l 0.7071067811865479,0.7071067811865532 l 1.5307337294603585,3.6955181300451585 l 0.38268343236508984,-0.9238795325112867 l 0.0,0.0 l 0.0,0.0 l 0.38268343236508995,-0.9238795325112867 l 1.1102230246251565e-16,-1.0 l 0.0,1.0 l -0.7653668647301792,5.847759065022572 l -0.3826834323650897,-0.9238795325112867 l -0.3826834323650897,-0.9238795325112867 l 5.551115123125783e-17,-1.0 l 0.0,0.0 l 0.0,0.0 l 5.551115123125783e-17,-1.0 l -0.3826834323650897,-0.9238795325112867 l 0.3826834323650896,0.9238795325112861 l 0.0,2.0 l -0.3826834323650897,-0.9238795325112867 l 0.0,0.0 l 0.0,0.0 l -0.3826834323650897,-0.9238795325112867 l -0.7071067811865475,-0.7071067811865475 l 0.7071067811865479,0.7071067811865461 l 0.7653668647301792,1.8477590650225721 l -0.3826834323650897,-0.9238795325112867 l -0.3826834323650897,-0.9238795325112867 l -0.7071067811865475,-0.7071067811865475 l -0.7071067811865475,-0.7071067811865475 l -0.7071067811865475,-0.7071067811865475 l 0.0,0.0 l 0.0,0.0 l -0.7071067811865475,-0.7071067811865475 l -0.9238795325112866,-0.3826834323650897 l 0.9238795325112861,0.3826834323650843 l 2.8284271247461916,2.8284271247461845 l 5.551115123125783e-17,-1.0 l 0.0,0.0 l 0.0,0.0 l 5.551115123125783e-17,-1.0 l -0.3826834323650897,-0.9238795325112867 l 0.3826834323650896,0.9238795325112932 l 1.5307337294603585,5.695518130045144 l -0.3826834323650897,-0.9238795325112867 l -0.3826834323650897,-0.9238795325112867 l -0.3826834323650897,-0.9238795325112867 l -0.3826834323650897,-0.9238795325112867 l -0.7071067811865475,-0.7071067811865475 l -0.7071067811865475,-0.7071067811865475 l -0.7071067811865475,-0.7071067811865475 l -0.7071067811865475,-0.7071067811865475 l -0.7071067811865475,-0.7071067811865475 l -0.7071067811865475,-0.7071067811865475 l -0.3826834323650897,-0.9238795325112866 l 0.0,0.0 l 0.0,0.0 l -0.38268343236508967,-0.9238795325112865 l -0.7071067811865474,-0.7071067811865472 l 0.7071067811865461,0.7071067811865532 l 0.7653668647301828,1.8477590650225864 l -0.7071067811865475,-0.7071067811865475 l 0.0,0.0 l 0.0,0.0 l -0.7071067811865475,-0.7071067811865475 l -0.9238795325112866,-0.3826834323650897 l 0.9238795325112861,0.3826834323650843 l 1.4142135623730923,1.4142135623731065 l -0.7071067811865475,-0.7071067811865475 l -0.7071067811865475,-0.7071067811865475 l -0.9238795325112866,-0.3826834323650897 l -0.9238795325112866,-0.3826834323650897 l -0.9238795325112866,-0.3826834323650897 l 0.0,0.0 l 0.0,0.0 l -0.9238795325112866,-0.3826834323650897 l -0.9999999999999998,0.0 l 1.0,0.0 l 3.6955181300451443,1.5307337294603371 l -0.3826834323650897,-0.9238795325112866 l 0.0,0.0 l 0.0,0.0 l -0.38268343236508967,-0.9238795325112865 l -0.7071067811865474,-0.7071067811865472 l 0.7071067811865461,0.7071067811865532 l 6.4222211142225625,7.504613314514984 l 5.551115123125783e-17,-1.0 l 5.551115123125783e-17,-1.0 l 0.38268343236508984,-0.9238795325112867 l 0.0,0.0 l 0.0,0.0 l 0.38268343236508995,-0.9238795325112867 l 1.1102230246251565e-16,-1.0 l 0.0,1.0 l -0.7653668647301792,1.8477590650225864 l 5.551115123125783e-17,-1.0 l 0.0,0.0 l 0.0,0.0 l 5.551115123125783e-17,-1.0 l -0.3826834323650897,-0.9238795325112867 l 0.3826834323650896,0.9238795325112932 l 0.0,2.0 l 5.551115123125783e-17,-1.0 l 5.551115123125783e-17,-1.0 l -0.3826834323650897,-0.9238795325112867 l -0.3826834323650897,-0.9238795325112867 l -0.3826834323650897,-0.9238795325112867 l 0.0,0.0 l 0.0,0.0 l -0.3826834323650897,-0.9238795325112867 l -0.7071067811865475,-0.7071067811865475 l 0.7071067811865479,0.7071067811865532 l 1.5307337294603585,3.6955181300451727 l 0.38268343236508984,-0.9238795325112867 l 0.0,0.0 l 0.0,0.0 l 0.38268343236508995,-0.9238795325112867 l 1.1102230246251565e-16,-1.0 l 0.0,1.0 l 2.2961005941905377,13.238795325112875 l -0.3826834323650897,-0.9238795325112867 l -0.3826834323650897,-0.9238795325112867 l -0.3826834323650897,-0.9238795325112867 l -0.3826834323650897,-0.9238795325112867 l -0.3826834323650897,-0.9238795325112867 l -0.3826834323650897,-0.9238795325112867 l -0.3826834323650897,-0.9238795325112867 l -0.3826834323650897,-0.9238795325112867 l -0.7071067811865475,-0.7071067811865475 l -0.7071067811865475,-0.7071067811865475 l -0.7071067811865475,-0.7071067811865475 l -0.7071067811865475,-0.7071067811865475 l -0.7071067811865475,-0.7071067811865475 l -0.7071067811865475,-0.7071067811865475 l -0.7071067811865475,-0.7071067811865475 l -0.7071067811865475,-0.7071067811865475 l -0.7071067811865475,-0.7071067811865475 l -0.7071067811865475,-0.7071067811865475 l -0.7071067811865475,-0.7071067811865475 l -0.7071067811865475,-0.7071067811865475 l -0.3826834323650897,-0.9238795325112866 l -0.3826834323650897,-0.9238795325112866 l 0.0,-0.9999999999999998 l 0.0,0.0 l 0.0,0.0 l 0.0,-0.9999999999999998 l -0.38268343236508967,-0.9238795325112865 l 0.3826834323650914,0.9238795325112932 l 0.0,2.0 l -0.38268343236508967,-0.9238795325112865 l 0.0,0.0 l 0.0,0.0 l -0.38268343236508967,-0.9238795325112865 l -0.7071067811865474,-0.7071067811865472 l 0.7071067811865461,0.7071067811865532 l 0.7653668647301828,1.8477590650225864 l -0.38268343236508967,-0.9238795325112865 l -0.38268343236508967,-0.9238795325112865 l -0.7071067811865474,-0.7071067811865472 l -0.7071067811865474,-0.7071067811865472 l -0.7071067811865474,-0.7071067811865472 l 0.0,0.0 l 0.0,0.0 l -0.7071067811865472,-0.7071067811865472 l -0.9238795325112863,-0.38268343236508956 l 0.9238795325112861,0.3826834323650843 l 2.8284271247461845,2.828427124746213 l 0.0,-0.9999999999999998 l 0.0,0.0 l 0.0,0.0 l 0.0,-0.9999999999999998 l -0.38268343236508967,-0.9238795325112865 l 0.3826834323650914,0.9238795325112932 l 1.5307337294603656,5.695518130045173 l -0.7071067811865475,-0.7071067811865475 l -0.7071067811865475,-0.7071067811865475 l -0.3826834323650897,-0.9238795325112866 l 0.0,0.0 l 0.0,0.0 l -0.38268343236508967,-0.9238795325112865 l -0.7071067811865474,-0.7071067811865472 l 0.7071067811865461,0.7071067811865532 l 0.7653668647301828,1.8477590650225864 l -0.7071067811865475,-0.7071067811865475 l 0.0,0.0 l 0.0,0.0 l -0.7071067811865475,-0.7071067811865475 l -0.9238795325112866,-0.3826834323650897 l 0.9238795325112861,0.3826834323650843 l 1.4142135623730923,1.4142135623731065 l -0.7071067811865475,-0.7071067811865475 l -0.7071067811865475,-0.7071067811865475 l -0.9238795325112866,-0.3826834323650897 l -0.9238795325112866,-0.3826834323650897 l -0.9238795325112866,-0.3826834323650897 l 0.0,0.0 l 0.0,0.0 l -0.9238795325112866,-0.3826834323650897 l -0.9999999999999998,0.0 l 1.0,0.0 l 3.6955181300451443,1.5307337294603371 l -0.3826834323650897,-0.9238795325112866 l 0.0,0.0 l 0.0,0.0 l -0.38268343236508967,-0.9238795325112865 l -0.7071067811865474,-0.7071067811865472 l 0.7071067811865461,0.7071067811865532 l 3.5937939894763673,4.676186189768799 l -0.7071067811865475,-0.7071067811865475 l -0.7071067811865475,-0.7071067811865475 l -0.7071067811865475,-0.7071067811865475 l -0.7071067811865475,-0.7071067811865475 l -0.9238795325112866,-0.3826834323650897 l -0.9238795325112866,-0.3826834323650897 l -0.9238795325112866,-0.3826834323650897 l -0.9238795325112866,-0.3826834323650897 l -0.9238795325112866,-0.3826834323650897 l -0.9238795325112866,-0.3826834323650897 l -0.7071067811865475,-0.7071067811865475 l 0.0,0.0 l 0.0,0.0 l -0.7071067811865475,-0.7071067811865475 l -0.9238795325112866,-0.3826834323650897 l 0.9238795325112861,0.3826834323650843 l 1.4142135623730923,1.4142135623731065 l -0.9238795325112866,-0.3826834323650897 l 0.0,0.0 l 0.0,0.0 l -0.9238795325112866,-0.3826834323650897 l -0.9999999999999998,0.0 l 1.0,0.0 l 1.8477590650225721,0.7653668647301686 l -0.9238795325112866,-0.3826834323650897 l -0.9238795325112866,-0.3826834323650897 l -0.9999999999999998,0.0 l -0.9999999999999998,0.0 l -0.9999999999999998,0.0 l 0.0,0.0 l 0.0,0.0 l -0.9999999999999998,0.0 l -0.9238795325112865,0.38268343236508967 l 0.9238795325112861,-0.3826834323650843 l 3.9999999999999964,0.0 l -0.7071067811865475,-0.7071067811865475 l 0.0,0.0 l 0.0,0.0 l -0.7071067811865475,-0.7071067811865475 l -0.9238795325112866,-0.3826834323650897 l 0.9238795325112861,0.3826834323650843 l 8.805249822463384,4.475681021293781 l -0.3826834323650897,-0.9238795325112866 l -0.3826834323650897,-0.9238795325112866 l 0.0,-0.9999999999999998 l 0.0,0.0 l 0.0,0.0 l 0.0,-0.9999999999999998 l -0.38268343236508967,-0.9238795325112865 l 0.3826834323650914,0.9238795325112932 l 0.0,2.0 l -0.38268343236508967,-0.9238795325112865 l 0.0,0.0 l 0.0,0.0 l -0.38268343236508967,-0.9238795325112865 l -0.7071067811865474,-0.7071067811865472 l 0.7071067811865461,0.7071067811865532 l 0.7653668647301828,1.8477590650225864 l -0.38268343236508967,-0.9238795325112865 l -0.38268343236508967,-0.9238795325112865 l -0.7071067811865474,-0.7071067811865472 l -0.7071067811865474,-0.7071067811865472 l -0.7071067811865474,-0.7071067811865472 l 0.0,0.0 l 0.0,0.0 l -0.7071067811865472,-0.7071067811865472 l -0.9238795325112863,-0.38268343236508956 l 0.9238795325112861,0.3826834323650843 l 2.8284271247461845,2.828427124746213 l 0.0,-0.9999999999999998 l 0.0,0.0 l 0.0,0.0 l 0.0,-0.9999999999999998 l -0.38268343236508967,-0.9238795325112865 l 0.3826834323650914,0.9238795325112932 l 12.844442228445114,17.009226629029996 l 5.551115123125783e-17,-1.0 l 5.551115123125783e-17,-1.0 l 5.551115123125783e-17,-1.0 l 5.551115123125783e-17,-1.0 l 0.38268343236508984,-0.9238795325112867 l 0.38268343236508984,-0.9238795325112867 l 0.7071067811865477,-0.7071067811865475 l 0.0,0.0 l 0.0,0.0 l 0.7071067811865477,-0.7071067811865475 l 0.38268343236508995,-0.9238795325112867 l -0.3826834323650896,0.9238795325112932 l -1.4142135623730958,1.4142135623731065 l 0.38268343236508995,-0.9238795325112867 l 0.0,0.0 l 0.0,0.0 l 0.38268343236508995,-0.9238795325112867 l 1.1102230246251565e-16,-1.0 l 0.0,1.0 l -0.7653668647301792,1.8477590650225864 l 0.38268343236508995,-0.9238795325112867 l 0.38268343236508995,-0.9238795325112867 l 1.1102230246251565e-16,-1.0 l 1.1102230246251565e-16,-1.0 l 1.1102230246251565e-16,-1.0 l 0.0,0.0 l 0.0,0.0 l 5.551115123125783e-17,-1.0 l -0.3826834323650897,-0.9238795325112867 l 0.3826834323650896,0.9238795325112932 l 0.0,4.0 l 0.7071067811865477,-0.7071067811865475 l 0.0,0.0 l 0.0,0.0 l 0.7071067811865477,-0.7071067811865475 l 0.38268343236508995,-0.9238795325112867 l -0.3826834323650896,0.9238795325112932 l -2.9449472918334543,5.109731692418279 l 5.551115123125783e-17,-1.0 l 5.551115123125783e-17,-1.0 l 0.38268343236508984,-0.9238795325112867 l 0.0,0.0 l 0.0,0.0 l 0.38268343236508995,-0.9238795325112867 l 1.1102230246251565e-16,-1.0 l 0.0,1.0 l -0.7653668647301792,1.8477590650225864 l 5.551115123125783e-17,-1.0 l 0.0,0.0 l 0.0,0.0 l 5.551115123125783e-17,-1.0 l -0.3826834323650897,-0.9238795325112867 l 0.3826834323650896,0.9238795325112932 l 0.0,2.0 l 5.551115123125783e-17,-1.0 l 5.551115123125783e-17,-1.0 l -0.3826834323650897,-0.9238795325112867 l -0.3826834323650897,-0.9238795325112867 l -0.3826834323650897,-0.9238795325112867 l 0.0,0.0 l 0.0,0.0 l -0.3826834323650897,-0.9238795325112867 l -0.7071067811865475,-0.7071067811865475 l 0.7071067811865479,0.7071067811865532 l 1.5307337294603585,3.6955181300451727 l 0.38268343236508984,-0.9238795325112867 l 0.0,0.0 l 0.0,0.0 l 0.38268343236508995,-0.9238795325112867 l 1.1102230246251565e-16,-1.0 l 0.0,1.0 l -0.7653668647301792,5.847759065022586 l 5.551115123125783e-17,-1.0 l 5.551115123125783e-17,-1.0 l 5.551115123125783e-17,-1.0 l 5.551115123125783e-17,-1.0 l -0.3826834323650897,-0.9238795325112867 l -0.3826834323650897,-0.9238795325112867 l -0.3826834323650897,-0.9238795325112867 l -0.3826834323650897,-0.9238795325112867 l -0.3826834323650897,-0.9238795325112867 l -0.3826834323650897,-0.9238795325112867 l 5.551115123125783e-17,-1.0 l 0.0,0.0 l 0.0,0.0 l 5.551115123125783e-17,-1.0 l -0.3826834323650897,-0.9238795325112867 l 0.3826834323650896,0.9238795325112932 l 0.0,2.0 l -0.3826834323650897,-0.9238795325112867 l 0.0,0.0 l 0.0,0.0 l -0.3826834323650897,-0.9238795325112867 l -0.7071067811865475,-0.7071067811865475 l 0.7071067811865461,0.7071067811865532 l 0.7653668647301792,1.8477590650225864 l -0.3826834323650897,-0.9238795325112867 l -0.3826834323650897,-0.9238795325112867 l -0.7071067811865475,-0.7071067811865475 l -0.7071067811865475,-0.7071067811865475 l -0.7071067811865475,-0.7071067811865475 l 0.0,0.0 l 0.0,0.0 l -0.7071067811865475,-0.7071067811865475 l -0.9238795325112866,-0.3826834323650897 l 0.9238795325112861,0.3826834323650843 l 2.8284271247461845,2.828427124746213 l 5.551115123125783e-17,-1.0 l 0.0,0.0 l 0.0,0.0 l 5.551115123125783e-17,-1.0 l -0.3826834323650897,-0.9238795325112867 l 0.3826834323650896,0.9238795325112932 l 3.061467458920717,9.391036260090345 l 0.38268343236508984,-0.9238795325112867 l 0.38268343236508984,-0.9238795325112867 l 0.7071067811865477,-0.7071067811865475 l 0.0,0.0 l 0.0,0.0 l 0.7071067811865477,-0.7071067811865475 l 0.38268343236508995,-0.9238795325112867 l -0.3826834323650896,0.9238795325112932 l -1.4142135623730958,1.4142135623731065 l 0.38268343236508995,-0.9238795325112867 l 0.0,0.0 l 0.0,0.0 l 0.38268343236508995,-0.9238795325112867 l 1.1102230246251565e-16,-1.0 l 0.0,1.0 l -0.7653668647301792,1.8477590650225864 l 0.38268343236508995,-0.9238795325112867 l 0.38268343236508995,-0.9238795325112867 l 1.1102230246251565e-16,-1.0 l 1.1102230246251565e-16,-1.0 l 1.1102230246251565e-16,-1.0 l 0.0,0.0 l 0.0,0.0 l 5.551115123125783e-17,-1.0 l -0.3826834323650897,-0.9238795325112867 l 0.3826834323650896,0.9238795325112932 l 0.0,4.0 l 0.7071067811865477,-0.7071067811865475 l 0.0,0.0 l 0.0,0.0 l 0.7071067811865477,-0.7071067811865475 l 0.38268343236508995,-0.9238795325112867 l -0.3826834323650896,0.9238795325112932 l 9.300922543849415,42.67387673277943 l 0.38268343236508984,-0.9238795325112867 l 0.38268343236508984,-0.9238795325112867 l 0.38268343236508984,-0.9238795325112867 l 0.38268343236508984,-0.9238795325112867 l 0.38268343236508984,-0.9238795325112867 l 0.38268343236508984,-0.9238795325112867 l 0.38268343236508984,-0.9238795325112867 l 0.38268343236508984,-0.9238795325112867 l 0.7071067811865477,-0.7071067811865475 l 0.7071067811865477,-0.7071067811865475 l 0.7071067811865477,-0.7071067811865475 l 0.7071067811865477,-0.7071067811865475 l 0.9238795325112868,-0.3826834323650896 l 0.9238795325112868,-0.3826834323650896 l 1.0,1.6653345369377348e-16 l 0.0,0.0 l 0.0,0.0 l 0.9999999999999999,1.6653345369377348e-16 l 0.9238795325112867,-0.38268343236508956 l -0.9238795325112861,0.3826834323650914 l -2.0,0.0 l 0.9238795325112868,-0.3826834323650896 l 0.0,0.0 l 0.0,0.0 l 0.9238795325112868,-0.3826834323650896 l 0.7071067811865477,-0.7071067811865475 l -0.7071067811865479,0.7071067811865461 l -1.8477590650225721,0.7653668647301828 l 0.9238795325112868,-0.3826834323650896 l 0.9238795325112868,-0.3826834323650896 l 0.7071067811865477,-0.7071067811865475 l 0.7071067811865477,-0.7071067811865475 l 0.7071067811865477,-0.7071067811865475 l 0.0,0.0 l 0.0,0.0 l 0.7071067811865477,-0.7071067811865475 l 0.38268343236508995,-0.9238795325112867 l -0.3826834323650896,0.9238795325112861 l -2.8284271247461916,2.8284271247461845 l 1.0,1.6653345369377348e-16 l 0.0,0.0 l 0.0,0.0 l 0.9999999999999999,1.6653345369377348e-16 l 0.9238795325112867,-0.38268343236508956 l -0.9238795325112861,0.3826834323650914 l -5.695518130045146,1.5307337294603656 l 0.7071067811865477,-0.7071067811865475 l 0.7071067811865477,-0.7071067811865475 l 0.9238795325112868,-0.3826834323650896 l 0.0,0.0 l 0.0,0.0 l 0.9238795325112868,-0.3826834323650896 l 0.7071067811865477,-0.7071067811865475 l -0.7071067811865479,0.7071067811865461 l -1.8477590650225721,0.7653668647301828 l 0.7071067811865477,-0.7071067811865475 l 0.0,0.0 l 0.0,0.0 l 0.7071067811865477,-0.7071067811865475 l 0.38268343236508995,-0.9238795325112867 l -0.3826834323650896,0.9238795325112861 l -1.4142135623730958,1.4142135623730923 l 0.7071067811865477,-0.7071067811865475 l 0.7071067811865477,-0.7071067811865475 l 0.38268343236508995,-0.9238795325112867 l 0.38268343236508995,-0.9238795325112867 l 0.38268343236508995,-0.9238795325112867 l 0.0,0.0 l 0.0,0.0 l 0.38268343236508995,-0.9238795325112867 l 1.1102230246251565e-16,-1.0 l 0.0,1.0 l -1.5307337294603585,3.6955181300451443 l 0.9238795325112868,-0.3826834323650896 l 0.0,0.0 l 0.0,0.0 l 0.9238795325112868,-0.3826834323650896 l 0.7071067811865477,-0.7071067811865475 l -0.7071067811865479,0.7071067811865461 l -4.676186189768764,3.5937939894763673 l 0.7071067811865477,-0.7071067811865475 l 0.7071067811865477,-0.7071067811865475 l 0.7071067811865477,-0.7071067811865475 l 0.7071067811865477,-0.7071067811865475 l 0.38268343236508995,-0.9238795325112867 l 0.38268343236508995,-0.9238795325112867 l 0.38268343236508995,-0.9238795325112867 l 0.38268343236508995,-0.9238795325112867 l 0.38268343236508995,-0.9238795325112867 l 0.38268343236508995,-0.9238795325112867 l 0.7071067811865477,-0.7071067811865475 l 0.0,0.0 l 0.0,0.0 l 0.7071067811865477,-0.7071067811865475 l 0.38268343236508995,-0.9238795325112867 l -0.3826834323650896,0.9238795325112861 l -1.4142135623730958,1.4142135623730923 l 0.38268343236508995,-0.9238795325112867 l 0.0,0.0 l 0.0,0.0 l 0.38268343236508995,-0.9238795325112867 l 1.1102230246251565e-16,-1.0 l 0.0,1.0 l -0.7653668647301792,1.8477590650225721 l 0.38268343236508995,-0.9238795325112867 l 0.38268343236508995,-0.9238795325112867 l 1.1102230246251565e-16,-1.0 l 1.1102230246251565e-16,-1.0 l 1.1102230246251565e-16,-1.0 l 0.0,0.0 l 0.0,0.0 l 5.551115123125783e-17,-1.0 l -0.3826834323650897,-0.9238795325112867 l 0.3826834323650896,0.9238795325112861 l 0.0,4.0 l 0.7071067811865477,-0.7071067811865475 l 0.0,0.0 l 0.0,0.0 l 0.7071067811865477,-0.7071067811865475 l 0.38268343236508995,-0.9238795325112867 l -0.3826834323650896,0.9238795325112861 l -4.475681021293813,8.80524982246338 l 0.9238795325112868,-0.3826834323650896 l 0.9238795325112868,-0.3826834323650896 l 1.0,1.6653345369377348e-16 l 0.0,0.0 l 0.0,0.0 l 0.9999999999999999,1.6653345369377348e-16 l 0.9238795325112867,-0.38268343236508956 l -0.9238795325112861,0.3826834323650914 l -2.0,0.0 l 0.9238795325112868,-0.3826834323650896 l 0.0,0.0 l 0.0,0.0 l 0.9238795325112868,-0.3826834323650896 l 0.7071067811865477,-0.7071067811865475 l -0.7071067811865479,0.7071067811865461 l -1.8477590650225721,0.7653668647301828 l 0.9238795325112868,-0.3826834323650896 l 0.9238795325112868,-0.3826834323650896 l 0.7071067811865477,-0.7071067811865475 l 0.7071067811865477,-0.7071067811865475 l 0.7071067811865477,-0.7071067811865475 l 0.0,0.0 l 0.0,0.0 l 0.7071067811865477,-0.7071067811865475 l 0.38268343236508995,-0.9238795325112867 l -0.3826834323650896,0.9238795325112861 l -2.8284271247461916,2.8284271247461845 l 1.0,1.6653345369377348e-16 l 0.0,0.0 l 0.0,0.0 l 0.9999999999999999,1.6653345369377348e-16 l 0.9238795325112867,-0.38268343236508956 l -0.9238795325112861,0.3826834323650914 l -11.352372379537528,7.187587978952735 l 0.38268343236508995,-0.9238795325112867 l 0.38268343236508995,-0.9238795325112867 l 0.38268343236508995,-0.9238795325112867 l 0.38268343236508995,-0.9238795325112867 l 0.7071067811865477,-0.7071067811865475 l 0.7071067811865477,-0.7071067811865475 l 0.9238795325112868,-0.3826834323650896 l 0.0,0.0 l 0.0,0.0 l 0.9238795325112868,-0.3826834323650896 l 0.7071067811865477,-0.7071067811865475 l -0.707106781186547,0.7071067811865461 l -1.847759065022574,0.7653668647301828 l 0.7071067811865477,-0.7071067811865475 l 0.0,0.0 l 0.0,0.0 l 0.7071067811865477,-0.7071067811865475 l 0.38268343236508995,-0.9238795325112867 l -0.3826834323650896,0.9238795325112861 l -1.4142135623730958,1.4142135623730923 l 0.7071067811865477,-0.7071067811865475 l 0.7071067811865477,-0.7071067811865475 l 0.38268343236508995,-0.9238795325112867 l 0.38268343236508995,-0.9238795325112867 l 0.38268343236508995,-0.9238795325112867 l 0.0,0.0 l 0.0,0.0 l 0.38268343236508995,-0.9238795325112867 l 1.1102230246251565e-16,-1.0 l 0.0,1.0 l -1.5307337294603593,3.6955181300451443 l 0.9238795325112868,-0.3826834323650896 l 0.0,0.0 l 0.0,0.0 l 0.9238795325112868,-0.3826834323650896 l 0.7071067811865477,-0.7071067811865475 l -0.7071067811865479,0.7071067811865461 l -4.676186189768765,3.5937939894763673 l 0.38268343236508995,-0.9238795325112867 l 0.38268343236508995,-0.9238795325112867 l 0.7071067811865477,-0.7071067811865475 l 0.0,0.0 l 0.0,0.0 l 0.7071067811865477,-0.7071067811865475 l 0.38268343236508995,-0.9238795325112867 l -0.3826834323650896,0.9238795325112861 l -1.4142135623730958,1.4142135623730923 l 0.38268343236508995,-0.9238795325112867 l 0.0,0.0 l 0.0,0.0 l 0.38268343236508995,-0.9238795325112867 l 1.1102230246251565e-16,-1.0 l 0.0,1.0 l -0.7653668647301792,1.8477590650225721 l 0.38268343236508995,-0.9238795325112867 l 0.38268343236508995,-0.9238795325112867 l 1.1102230246251565e-16,-1.0 l 1.1102230246251565e-16,-1.0 l 1.1102230246251565e-16,-1.0 l 0.0,0.0 l 0.0,0.0 l 5.551115123125783e-17,-1.0 l -0.3826834323650897,-0.9238795325112867 l 0.3826834323650896,0.9238795325112861 l 0.0,4.0 l 0.7071067811865477,-0.7071067811865475 l 0.0,0.0 l 0.0,0.0 l 0.7071067811865477,-0.7071067811865475 l 0.38268343236508995,-0.9238795325112867 l -0.3826834323650896,0.9238795325112861 l -2.9449472918334543,5.1097316924182365 l 0.38268343236508995,-0.9238795325112867 l 0.38268343236508995,-0.9238795325112867 l 0.38268343236508995,-0.9238795325112867 l 0.38268343236508995,-0.9238795325112867 l 1.1102230246251565e-16,-1.0 l 1.1102230246251565e-16,-1.0 l 1.1102230246251565e-16,-1.0 l 1.1102230246251565e-16,-1.0 l 1.1102230246251565e-16,-1.0 l 1.1102230246251565e-16,-1.0 l 0.3826834323650899,-0.9238795325112867 l 0.0,0.0 l 0.0,0.0 l 0.38268343236508995,-0.9238795325112867 l 1.1102230246251565e-16,-1.0 l 0.0,1.0 l -0.7653668647301792,1.8477590650225721 l 5.551115123125783e-17,-1.0 l 0.0,0.0 l 0.0,0.0 l 5.551115123125783e-17,-1.0 l -0.3826834323650897,-0.9238795325112867 l 0.3826834323650896,0.9238795325112861 l 0.0,2.0 l 5.551115123125783e-17,-1.0 l 5.551115123125783e-17,-1.0 l -0.3826834323650897,-0.9238795325112867 l -0.3826834323650897,-0.9238795325112867 l -0.3826834323650897,-0.9238795325112867 l 0.0,0.0 l 0.0,0.0 l -0.3826834323650897,-0.9238795325112867 l -0.7071067811865475,-0.7071067811865475 l 0.7071067811865475,0.7071067811865461 l 1.5307337294603585,3.6955181300451443 l 0.38268343236508984,-0.9238795325112867 l 0.0,0.0 l 0.0,0.0 l 0.38268343236508995,-0.9238795325112867 l 1.1102230246251565e-16,-1.0 l 0.0,1.0 l -0.7653668647301792,9.847759065022572 l 0.7071067811865477,-0.7071067811865475 l 0.7071067811865477,-0.7071067811865475 l 0.9238795325112868,-0.3826834323650896 l 0.0,0.0 l 0.0,0.0 l 0.9238795325112868,-0.3826834323650896 l 0.7071067811865477,-0.7071067811865475 l -0.7071067811865479,0.7071067811865461 l -1.847759065022573,0.7653668647301828 l 0.7071067811865477,-0.7071067811865475 l 0.0,0.0 l 0.0,0.0 l 0.7071067811865477,-0.7071067811865475 l 0.38268343236508995,-0.9238795325112867 l -0.3826834323650896,0.9238795325112861 l -1.414213562373095,1.4142135623730923 l 0.7071067811865477,-0.7071067811865475 l 0.7071067811865477,-0.7071067811865475 l 0.38268343236508995,-0.9238795325112867 l 0.38268343236508995,-0.9238795325112867 l 0.38268343236508995,-0.9238795325112867 l 0.0,0.0 l 0.0,0.0 l 0.38268343236508995,-0.9238795325112867 l 1.1102230246251565e-16,-1.0 l 0.0,1.0 l -1.5307337294603585,3.6955181300451443 l 0.9238795325112868,-0.3826834323650896 l 0.0,0.0 l 0.0,0.0 l 0.9238795325112868,-0.3826834323650896 l 0.7071067811865477,-0.7071067811865475 l -0.7071067811865479,0.7071067811865461 l -7.737653648689481,10.984830249566656 l 0.38268343236508995,-0.9238795325112867 l 0.38268343236508995,-0.9238795325112867 l 0.38268343236508995,-0.9238795325112867 l 0.38268343236508995,-0.9238795325112867 l 0.38268343236508995,-0.9238795325112867 l 0.38268343236508995,-0.9238795325112867 l 0.38268343236508995,-0.9238795325112867 l 0.38268343236508995,-0.9238795325112867 l 1.1102230246251565e-16,-1.0 l 1.1102230246251565e-16,-1.0 l 1.1102230246251565e-16,-1.0 l 1.1102230246251565e-16,-1.0 l 1.1102230246251565e-16,-1.0 l 1.1102230246251565e-16,-1.0 l 1.1102230246251565e-16,-1.0 l 1.1102230246251565e-16,-1.0 l 1.1102230246251565e-16,-1.0 l 1.1102230246251565e-16,-1.0 l 1.1102230246251565e-16,-1.0 l 1.1102230246251565e-16,-1.0 l 0.3826834323650899,-0.9238795325112867 l 0.3826834323650899,-0.9238795325112867 l 0.7071067811865477,-0.7071067811865475 l 0.0,0.0 l 0.0,0.0 l 0.7071067811865477,-0.7071067811865475 l 0.38268343236508995,-0.9238795325112867 l -0.3826834323650896,0.9238795325112861 l -1.414213562373095,1.4142135623730923 l 0.38268343236508995,-0.9238795325112867 l 0.0,0.0 l 0.0,0.0 l 0.38268343236508995,-0.9238795325112867 l 1.1102230246251565e-16,-1.0 l 0.0,1.0 l -0.7653668647301792,1.8477590650225721 l 0.38268343236508995,-0.9238795325112867 l 0.38268343236508995,-0.9238795325112867 l 1.1102230246251565e-16,-1.0 l 1.1102230246251565e-16,-1.0 l 1.1102230246251565e-16,-1.0 l 0.0,0.0 l 0.0,0.0 l 5.551115123125783e-17,-1.0 l -0.3826834323650897,-0.9238795325112867 l 0.3826834323650896,0.9238795325112932 l 0.0,4.0 l 0.7071067811865477,-0.7071067811865475 l 0.0,0.0 l 0.0,0.0 l 0.7071067811865477,-0.7071067811865475 l 0.38268343236508995,-0.9238795325112867 l -0.3826834323650896,0.9238795325112932 l -2.9449472918334534,5.1097316924182365 l 5.551115123125783e-17,-1.0 l 5.551115123125783e-17,-1.0 l 0.38268343236508984,-0.9238795325112867 l 0.0,0.0 l 0.0,0.0 l 0.38268343236508995,-0.9238795325112867 l 1.1102230246251565e-16,-1.0 l 0.0,1.0 l -0.7653668647301792,1.8477590650225721 l 5.551115123125783e-17,-1.0 l 0.0,0.0 l 0.0,0.0 l 5.551115123125783e-17,-1.0 l -0.3826834323650897,-0.9238795325112867 l 0.3826834323650896,0.9238795325112861 l 0.0,2.0 l 5.551115123125783e-17,-1.0 l 5.551115123125783e-17,-1.0 l -0.3826834323650897,-0.9238795325112867 l -0.3826834323650897,-0.9238795325112867 l -0.3826834323650897,-0.9238795325112867 l 0.0,0.0 l 0.0,0.0 l -0.3826834323650897,-0.9238795325112867 l -0.7071067811865475,-0.7071067811865475 l 0.7071067811865475,0.7071067811865532 l 1.5307337294603585,3.6955181300451585 l 0.38268343236508984,-0.9238795325112867 l 0.0,0.0 l 0.0,0.0 l 0.38268343236508995,-0.9238795325112867 l 1.1102230246251565e-16,-1.0 l 0.0,1.0 l -0.7653668647301792,5.847759065022572 l 5.551115123125783e-17,-1.0 l 5.551115123125783e-17,-1.0 l 5.551115123125783e-17,-1.0 l 5.551115123125783e-17,-1.0 l -0.3826834323650897,-0.9238795325112867 l -0.3826834323650897,-0.9238795325112867 l -0.3826834323650897,-0.9238795325112867 l -0.3826834323650897,-0.9238795325112867 l -0.3826834323650897,-0.9238795325112867 l -0.3826834323650897,-0.9238795325112867 l 5.551115123125783e-17,-1.0 l 0.0,0.0 l 0.0,0.0 l 5.551115123125783e-17,-1.0 l -0.3826834323650897,-0.9238795325112867 l 0.3826834323650896,0.9238795325112932 l 0.0,2.0 l -0.3826834323650897,-0.9238795325112867 l 0.0,0.0 l 0.0,0.0 l -0.3826834323650897,-0.9238795325112867 l -0.7071067811865475,-0.7071067811865475 l 0.7071067811865475,0.7071067811865532 l 0.7653668647301792,1.8477590650225864 l -0.3826834323650897,-0.9238795325112867 l -0.3826834323650897,-0.9238795325112867 l -0.7071067811865475,-0.7071067811865475 l -0.7071067811865475,-0.7071067811865475 l -0.7071067811865475,-0.7071067811865475 l 0.0,0.0 l 0.0,0.0 l -0.7071067811865475,-0.7071067811865475 l -0.9238795325112866,-0.3826834323650897 l 0.9238795325112866,0.3826834323650843 l 2.82842712474619,2.828427124746213 l 5.551115123125783e-17,-1.0 l 0.0,0.0 l 0.0,0.0 l 5.551115123125783e-17,-1.0 l -0.3826834323650897,-0.9238795325112867 l 0.3826834323650896,0.9238795325112932 l 3.061467458920717,9.391036260090331 l 0.38268343236508984,-0.9238795325112867 l 0.38268343236508984,-0.9238795325112867 l 0.7071067811865477,-0.7071067811865475 l 0.0,0.0 l 0.0,0.0 l 0.7071067811865477,-0.7071067811865475 l 0.38268343236508995,-0.9238795325112867 l -0.3826834323650896,0.9238795325112932 l -1.414213562373095,1.4142135623731065 l 0.38268343236508995,-0.9238795325112867 l 0.0,0.0 l 0.0,0.0 l 0.38268343236508995,-0.9238795325112867 l 1.1102230246251565e-16,-1.0 l 0.0,1.0 l -0.7653668647301792,1.8477590650225864 l 0.38268343236508995,-0.9238795325112867 l 0.38268343236508995,-0.9238795325112867 l 1.1102230246251565e-16,-1.0 l 1.1102230246251565e-16,-1.0 l 1.1102230246251565e-16,-1.0 l 0.0,0.0 l 0.0,0.0 l 5.551115123125783e-17,-1.0 l -0.3826834323650897,-0.9238795325112867 l 0.3826834323650896,0.9238795325112932 l 0.0,4.0 l 0.7071067811865477,-0.7071067811865475 l 0.0,0.0 l 0.0,0.0 l 0.7071067811865477,-0.7071067811865475 l 0.38268343236508995,-0.9238795325112867 l -0.3826834323650896,0.9238795325112932 l -2.9449472918334534,21.109731692418265 l 0.7071067811865477,-0.7071067811865475 l 0.7071067811865477,-0.7071067811865475 l 0.7071067811865477,-0.7071067811865475 l 0.7071067811865477,-0.7071067811865475 l 0.9238795325112868,-0.3826834323650896 l 0.9238795325112868,-0.3826834323650896 l 1.0,1.6653345369377348e-16 l 0.0,0.0 l 0.0,0.0 l 0.9999999999999999,1.6653345369377348e-16 l 0.9238795325112867,-0.38268343236508956 l -0.9238795325112861,0.3826834323650914 l -2.0,0.0 l 0.9238795325112868,-0.3826834323650896 l 0.0,0.0 l 0.0,0.0 l 0.9238795325112868,-0.3826834323650896 l 0.7071067811865477,-0.7071067811865475 l -0.7071067811865479,0.7071067811865461 l -1.8477590650225721,0.7653668647301828 l 0.9238795325112868,-0.3826834323650896 l 0.9238795325112868,-0.3826834323650896 l 0.7071067811865477,-0.7071067811865475 l 0.7071067811865477,-0.7071067811865475 l 0.7071067811865477,-0.7071067811865475 l 0.0,0.0 l 0.0,0.0 l 0.7071067811865477,-0.7071067811865475 l 0.38268343236508995,-0.9238795325112867 l -0.3826834323650896,0.9238795325112861 l -2.8284271247461916,2.8284271247461845 l 1.0,1.6653345369377348e-16 l 0.0,0.0 l 0.0,0.0 l 0.9999999999999999,1.6653345369377348e-16 l 0.9238795325112867,-0.38268343236508956 l -0.9238795325112861,0.3826834323650914 l -5.695518130045144,1.5307337294603656 l 0.7071067811865477,-0.7071067811865475 l 0.7071067811865477,-0.7071067811865475 l 0.9238795325112868,-0.3826834323650896 l 0.0,0.0 l 0.0,0.0 l 0.9238795325112868,-0.3826834323650896 l 0.7071067811865477,-0.7071067811865475 l -0.7071067811865479,0.7071067811865461 l -1.8477590650225721,0.7653668647301828 l 0.7071067811865477,-0.7071067811865475 l 0.0,0.0 l 0.0,0.0 l 0.7071067811865477,-0.7071067811865475 l 0.38268343236508995,-0.9238795325112867 l -0.3826834323650896,0.9238795325112861 l -1.4142135623730958,1.4142135623730923 l 0.7071067811865477,-0.7071067811865475 l 0.7071067811865477,-0.7071067811865475 l 0.38268343236508995,-0.9238795325112867 l 0.38268343236508995,-0.9238795325112867 l 0.38268343236508995,-0.9238795325112867 l 0.0,0.0 l 0.0,0.0 l 0.38268343236508995,-0.9238795325112867 l 1.1102230246251565e-16,-1.0 l 0.0,1.0 l -1.5307337294603585,3.6955181300451443 l 0.9238795325112868,-0.3826834323650896 l 0.0,0.0 l 0.0,0.0 l 0.9238795325112868,-0.3826834323650896 l 0.7071067811865477,-0.7071067811865475 l -0.7071067811865479,0.7071067811865461 l -4.676186189768764,3.5937939894763673 l 0.7071067811865477,-0.7071067811865475 l 0.7071067811865477,-0.7071067811865475 l 0.7071067811865477,-0.7071067811865475 l 0.7071067811865477,-0.7071067811865475 l 0.38268343236508995,-0.9238795325112867 l 0.38268343236508995,-0.9238795325112867 l 0.38268343236508995,-0.9238795325112867 l 0.38268343236508995,-0.9238795325112867 l 0.38268343236508995,-0.9238795325112867 l 0.38268343236508995,-0.9238795325112867 l 0.7071067811865477,-0.7071067811865475 l 0.0,0.0 l 0.0,0.0 l 0.7071067811865477,-0.7071067811865475 l 0.38268343236508995,-0.9238795325112867 l -0.3826834323650896,0.9238795325112861 l -1.4142135623730958,1.4142135623730923 l 0.38268343236508995,-0.9238795325112867 l 0.0,0.0 l 0.0,0.0 l 0.38268343236508995,-0.9238795325112867 l 1.1102230246251565e-16,-1.0 l 0.0,1.0 l -0.7653668647301792,1.8477590650225721 l 0.38268343236508995,-0.9238795325112867 l 0.38268343236508995,-0.9238795325112867 l 1.1102230246251565e-16,-1.0 l 1.1102230246251565e-16,-1.0 l 1.1102230246251565e-16,-1.0 l 0.0,0.0 l 0.0,0.0 l 5.551115123125783e-17,-1.0 l -0.3826834323650897,-0.9238795325112867 l 0.3826834323650896,0.9238795325112932 l 0.0,4.0 l 0.7071067811865477,-0.7071067811865475 l 0.0,0.0 l 0.0,0.0 l 0.7071067811865477,-0.7071067811865475 l 0.38268343236508995,-0.9238795325112867 l -0.3826834323650914,0.9238795325112861 l -4.475681021293813,8.80524982246338 l 0.9238795325112868,-0.3826834323650896 l 0.9238795325112868,-0.3826834323650896 l 1.0,1.6653345369377348e-16 l 0.0,0.0 l 0.0,0.0 l 0.9999999999999999,1.6653345369377348e-16 l 0.9238795325112867,-0.38268343236508956 l -0.9238795325112861,0.3826834323650914 l -2.0,0.0 l 0.9238795325112868,-0.3826834323650896 l 0.0,0.0 l 0.0,0.0 l 0.9238795325112868,-0.3826834323650896 l 0.7071067811865477,-0.7071067811865475 l -0.7071067811865461,0.7071067811865461 l -1.8477590650225721,0.7653668647301828 l 0.9238795325112868,-0.3826834323650896 l 0.9238795325112868,-0.3826834323650896 l 0.7071067811865477,-0.7071067811865475 l 0.7071067811865477,-0.7071067811865475 l 0.7071067811865477,-0.7071067811865475 l 0.0,0.0 l 0.0,0.0 l 0.7071067811865477,-0.7071067811865475 l 0.38268343236508995,-0.9238795325112867 l -0.3826834323650914,0.9238795325112861 l -2.8284271247461845,2.8284271247461845 l 1.0,1.6653345369377348e-16 l 0.0,0.0 l 0.0,0.0 l 0.9999999999999999,1.6653345369377348e-16 l 0.9238795325112867,-0.38268343236508956 l -0.9238795325112861,0.3826834323650914 " style="stroke-linecap:square;stroke:#50514F;stroke-width:0.2px;fill:none" /></g></svg>