<?xml version="1.0" encoding="UTF-8"?>
<!DOCTYPE svg PUBLIC "-//W3C//DTD SVG 1.1//EN"
    "http://www.w3.org/Graphics/SVG/1.1/DTD/svg11.dtd">
<svg xmlns="http://www.w3.org/2000/svg" xmlns:xlink="http://www.w3.org/1999/xlink" version="1.1" width="224.06070946840396" height="500" viewBox="-7.256770239812555 -34.1 16.670116784449256 37.2"><g><rect x="-7.256770239812555" y="-34.1" width="16.670116784449256" height="37.2" fill="#CBD4C2" /><path d="M 0,0 l 6.123233995736766e-17,-1.0 l -0.34202014332566866,-0.9396926207859084 l 0.34202014332566866,0.9396926207859084 l 6.123233995736766e-17,-1.0 l 0.34202014332566877,-0.9396926207859084 l -0.34202014332566877,0.9396926207859084 l 6.123233995736766e-17,-1.0 l -6.123233995736765e-17,1.0 l -0.34202014332566866,-0.9396926207859084 l -0.6427876096865393,-0.7660444431189781 l 0.6427876096865393,0.7660444431189783 l -0.34202014332566866,-0.9396926207859084 l 5.551115123125783e-17,-1.0 l -1.1102230246251565e-16,1.0 l -0.34202014332566866,-0.9396926207859084 l 0.34202014332566855,0.939692620785908 l 0.6840402866513373,1.8793852415718169 l 6.123233995736766e-17,-1.0 l -0.34202014332566866,-0.9396926207859084 l 0.34202014332566866,0.9396926207859084 l 6.123233995736766e-17,-1.0 l 0.34202014332566877,-0.9396926207859084 l -0.34202014332566877,0.9396926207859089 l 6.123233995736766e-17,-1.0 l -6.123233995736767e-17,1.0 l 0.34202014332566877,-0.9396926207859084 l 5.551115123125783e-17,-1.0 l -5.551115123125783e-17,1.0 l 0.34202014332566877,-0.9396926207859084 l 0.6427876096865395,-0.7660444431189781 l -0.6427876096865395,0.7660444431189779 l 0.34202014332566877,-0.9396926207859084 l -0.3420201433256689,0.9396926207859089 l -0.6840402866513375,1.8793852415718177 l 6.123233995736766e-17,-1.0 l -0.34202014332566866,-0.9396926207859084 l 0.34202014332566866,0.9396926207859089 l 6.123233995736766e-17,-1.0 l 0.34202014332566877,-0.9396926207859084 l -0.34202014332566877,0.9396926207859089 l 6.123233995736766e-17,-1.0 l -6.123233995736767e-17,1.0 l -1.2246467991473535e-16,2.0 l -0.34202014332566866,-0.9396926207859084 l -0.6427876096865393,-0.7660444431189781 l 0.6427876096865393,0.7660444431189779 l -0.34202014332566866,-0.9396926207859084 l 5.551115123125783e-17,-1.0 l 0.0,1.0 l -0.34202014332566866,-0.9396926207859084 l 0.34202014332566866,0.9396926207859089 l -0.6427876096865393,-0.7660444431189781 l -0.8660254037844386,-0.5000000000000002 l 0.8660254037844386,0.5 l -0.6427876096865393,-0.7660444431189781 l -0.34202014332566866,-0.9396926207859084 l 0.34202014332566866,0.9396926207859089 l -0.6427876096865393,-0.7660444431189781 l 0.6427876096865395,0.7660444431189788 l 1.2855752193730785,1.5320888862379558 l -0.34202014332566866,-0.9396926207859084 l -0.6427876096865393,-0.7660444431189781 l 0.6427876096865393,0.7660444431189779 l -0.34202014332566866,-0.9396926207859084 l 5.551115123125783e-17,-1.0 l 0.0,1.0 l -0.34202014332566866,-0.9396926207859084 l 0.34202014332566866,0.9396926207859089 l 5.551115123125783e-17,-1.0 l -0.34202014332566866,-0.9396926207859084 l 0.34202014332566866,0.9396926207859089 l 5.551115123125783e-17,-1.0 l 0.34202014332566877,-0.9396926207859084 l -0.34202014332566866,0.9396926207859089 l 5.551115123125783e-17,-1.0 l 0.0,1.0 l 0.0,2.0 l -0.34202014332566866,-0.9396926207859084 l -0.6427876096865393,-0.7660444431189781 l 0.6427876096865393,0.7660444431189788 l -0.34202014332566866,-0.9396926207859084 l 5.551115123125783e-17,-1.0 l 0.0,1.0 l -0.34202014332566866,-0.9396926207859084 l 0.34202014332566844,0.9396926207859089 l 0.6840402866513371,1.8793852415718177 l 1.3680805733026746,3.7587704831436355 l 6.123233995736766e-17,-1.0 l -0.34202014332566866,-0.9396926207859084 l 0.34202014332566866,0.9396926207859089 l 6.123233995736766e-17,-1.0 l 0.34202014332566877,-0.9396926207859084 l -0.34202014332566877,0.9396926207859089 l 6.123233995736766e-17,-1.0 l -6.123233995736767e-17,1.0 l -0.34202014332566866,-0.9396926207859084 l -0.6427876096865393,-0.7660444431189781 l 0.6427876096865393,0.7660444431189779 l -0.34202014332566866,-0.9396926207859084 l 5.551115123125783e-17,-1.0 l 0.0,1.0 l -0.34202014332566866,-0.9396926207859084 l 0.34202014332566866,0.9396926207859089 l 0.6840402866513372,1.8793852415718177 l 6.123233995736766e-17,-1.0 l -0.34202014332566866,-0.9396926207859084 l 0.34202014332566866,0.9396926207859089 l 6.123233995736766e-17,-1.0 l 0.34202014332566877,-0.9396926207859084 l -0.34202014332566877,0.9396926207859089 l 6.123233995736766e-17,-1.0 l -6.123233995736767e-17,1.0 l 0.34202014332566877,-0.9396926207859084 l 5.551115123125783e-17,-1.0 l -5.551115123125783e-17,1.0 l 0.34202014332566877,-0.9396926207859084 l 0.6427876096865395,-0.7660444431189781 l -0.6427876096865395,0.7660444431189788 l 0.34202014332566877,-0.9396926207859084 l -0.34202014332566866,0.9396926207859089 l -0.6840402866513375,1.8793852415718177 l 6.123233995736766e-17,-1.0 l -0.34202014332566866,-0.9396926207859084 l 0.34202014332566866,0.9396926207859089 l 6.123233995736766e-17,-1.0 l 0.34202014332566877,-0.9396926207859084 l -0.34202014332566877,0.9396926207859089 l 6.123233995736766e-17,-1.0 l -6.123233995736767e-17,1.0 l -1.2246467991473535e-16,2.0 l 0.34202014332566877,-0.9396926207859084 l 5.551115123125783e-17,-1.0 l -5.551115123125783e-17,1.0 l 0.34202014332566877,-0.9396926207859084 l 0.6427876096865395,-0.7660444431189781 l -0.6427876096865395,0.7660444431189788 l 0.34202014332566877,-0.9396926207859084 l -0.34202014332566866,0.9396926207859089 l 5.551115123125783e-17,-1.0 l -0.34202014332566866,-0.9396926207859084 l 0.34202014332566866,0.9396926207859089 l 5.551115123125783e-17,-1.0 l 0.34202014332566877,-0.9396926207859084 l -0.34202014332566866,0.9396926207859089 l 5.551115123125783e-17,-1.0 l 0.0,1.0 l 0.0,2.0 l 0.34202014332566877,-0.9396926207859084 l 5.551115123125783e-17,-1.0 l 0.0,1.0 l 0.34202014332566877,-0.9396926207859084 l 0.6427876096865395,-0.7660444431189781 l -0.6427876096865397,0.7660444431189788 l 0.34202014332566877,-0.9396926207859084 l -0.3420201433256689,0.9396926207859089 l 0.6427876096865395,-0.7660444431189781 l 0.3420201433256689,-0.9396926207859085 l -0.3420201433256689,0.9396926207859089 l 0.6427876096865395,-0.7660444431189781 l 0.8660254037844388,-0.5000000000000001 l -0.8660254037844388,0.5 l 0.6427876096865395,-0.7660444431189781 l -0.6427876096865397,0.7660444431189788 l -1.2855752193730794,1.5320888862379576 l 0.34202014332566877,-0.9396926207859084 l 5.551115123125783e-17,-1.0 l 0.0,1.0 l 0.34202014332566877,-0.9396926207859084 l 0.6427876096865395,-0.7660444431189781 l -0.6427876096865397,0.7660444431189788 l 0.34202014332566877,-0.9396926207859084 l -0.3420201433256689,0.9396926207859089 l -0.6840402866513378,1.8793852415718177 l -1.368080573302675,3.7587704831436355 l 6.123233995736766e-17,-1.0 l -0.34202014332566866,-0.9396926207859084 l 0.34202014332566866,0.9396926207859089 l 6.123233995736766e-17,-1.0 l 0.34202014332566877,-0.9396926207859084 l -0.34202014332566877,0.9396926207859089 l 6.123233995736766e-17,-1.0 l -6.123233995736767e-17,1.0 l -0.34202014332566866,-0.9396926207859084 l -0.6427876096865393,-0.7660444431189781 l 0.6427876096865393,0.7660444431189788 l -0.34202014332566866,-0.9396926207859084 l 5.551115123125783e-17,-1.0 l 0.0,1.0 l -0.34202014332566866,-0.9396926207859084 l 0.34202014332566866,0.9396926207859089 l 0.6840402866513373,1.8793852415718177 l 6.123233995736766e-17,-1.0 l -0.34202014332566866,-0.9396926207859084 l 0.34202014332566866,0.9396926207859089 l 6.123233995736766e-17,-1.0 l 0.34202014332566877,-0.9396926207859084 l -0.34202014332566877,0.9396926207859089 l 6.123233995736766e-17,-1.0 l -6.123233995736767e-17,1.0 l 0.34202014332566877,-0.9396926207859084 l 5.551115123125783e-17,-1.0 l -5.551115123125783e-17,1.0 l 0.34202014332566877,-0.9396926207859084 l 0.6427876096865395,-0.7660444431189781 l -0.6427876096865395,0.7660444431189788 l 0.34202014332566877,-0.9396926207859084 l -0.3420201433256689,0.9396926207859089 l -0.6840402866513374,1.8793852415718177 l 6.123233995736766e-17,-1.0 l -0.34202014332566866,-0.9396926207859084 l 0.34202014332566866,0.9396926207859089 l 6.123233995736766e-17,-1.0 l 0.34202014332566877,-0.9396926207859084 l -0.34202014332566877,0.9396926207859089 l 6.123233995736766e-17,-1.0 l -6.123233995736767e-17,1.0 l -1.2246467991473535e-16,2.0 l -2.449293598294707e-16,4.0 l -0.34202014332566866,-0.9396926207859084 l -0.6427876096865393,-0.7660444431189781 l 0.6427876096865393,0.7660444431189788 l -0.34202014332566866,-0.9396926207859084 l 5.551115123125783e-17,-1.0 l 0.0,1.0 l -0.34202014332566866,-0.9396926207859084 l 0.34202014332566866,0.9396926207859089 l -0.6427876096865393,-0.7660444431189781 l -0.8660254037844386,-0.5000000000000002 l 0.8660254037844388,0.5 l -0.6427876096865393,-0.7660444431189781 l -0.34202014332566866,-0.9396926207859084 l 0.34202014332566844,0.9396926207859089 l -0.6427876096865393,-0.7660444431189781 l 0.6427876096865393,0.7660444431189788 l 1.2855752193730785,1.5320888862379576 l -0.34202014332566866,-0.9396926207859084 l -0.6427876096865393,-0.7660444431189781 l 0.6427876096865393,0.7660444431189788 l -0.34202014332566866,-0.9396926207859084 l 5.551115123125783e-17,-1.0 l 0.0,1.0 l -0.34202014332566866,-0.9396926207859084 l 0.34202014332566866,0.9396926207859089 l 5.551115123125783e-17,-1.0 l -0.34202014332566866,-0.9396926207859084 l 0.34202014332566866,0.9396926207859089 l 5.551115123125783e-17,-1.0 l 0.34202014332566877,-0.9396926207859084 l -0.3420201433256689,0.9396926207859089 l 5.551115123125783e-17,-1.0 l 0.0,1.0 l 0.0,2.0 l -0.34202014332566866,-0.9396926207859084 l -0.6427876096865393,-0.7660444431189781 l 0.642787609686539,0.7660444431189788 l -0.34202014332566866,-0.9396926207859084 l 5.551115123125783e-17,-1.0 l 0.0,1.0 l -0.34202014332566866,-0.9396926207859084 l 0.34202014332566844,0.9396926207859089 l 0.6840402866513373,1.8793852415718177 l -0.6427876096865393,-0.7660444431189781 l -0.8660254037844386,-0.5000000000000002 l 0.8660254037844384,0.5 l -0.6427876096865393,-0.7660444431189781 l -0.34202014332566866,-0.9396926207859084 l 0.3420201433256689,0.9396926207859089 l -0.6427876096865393,-0.7660444431189781 l 0.6427876096865393,0.7660444431189788 l -0.8660254037844386,-0.5000000000000002 l -0.9848077530122081,-0.17364817766693064 l 0.9848077530122081,0.17364817766693008 l -0.8660254037844386,-0.5000000000000002 l -0.6427876096865393,-0.7660444431189782 l 0.6427876096865397,0.7660444431189788 l -0.8660254037844386,-0.5000000000000002 l 0.8660254037844384,0.5 l 1.7320508075688772,1.0 l -0.6427876096865393,-0.7660444431189781 l -0.8660254037844386,-0.5000000000000002 l 0.8660254037844384,0.5 l -0.6427876096865393,-0.7660444431189781 l -0.34202014332566866,-0.9396926207859084 l 0.3420201433256689,0.9396926207859089 l -0.6427876096865393,-0.7660444431189781 l 0.6427876096865393,0.7660444431189788 l -0.34202014332566866,-0.9396926207859084 l -0.6427876096865393,-0.7660444431189781 l 0.6427876096865397,0.7660444431189788 l -0.34202014332566866,-0.9396926207859084 l 5.551115123125783e-17,-1.0 l 0.0,1.0 l -0.34202014332566866,-0.9396926207859084 l 0.34202014332566844,0.9396926207859089 l 0.6840402866513373,1.8793852415718177 l -0.6427876096865393,-0.7660444431189781 l -0.8660254037844386,-0.5000000000000002 l 0.8660254037844384,0.5 l -0.6427876096865393,-0.7660444431189781 l -0.34202014332566866,-0.9396926207859084 l 0.34202014332566844,0.9396926207859089 l -0.6427876096865393,-0.7660444431189781 l 0.6427876096865397,0.7660444431189788 l 1.285575219373079,1.5320888862379576 l 2.571150438746157,3.064177772475915 l -0.34202014332566866,-0.9396926207859084 l -0.6427876096865393,-0.7660444431189781 l 0.642787609686539,0.7660444431189788 l -0.34202014332566866,-0.9396926207859084 l 5.551115123125783e-17,-1.0 l 0.0,1.0 l -0.34202014332566866,-0.9396926207859084 l 0.34202014332566844,0.9396926207859089 l -0.6427876096865393,-0.7660444431189781 l -0.8660254037844386,-0.5000000000000002 l 0.8660254037844388,0.5 l -0.6427876096865393,-0.7660444431189781 l -0.34202014332566866,-0.9396926207859084 l 0.34202014332566844,0.9396926207859089 l -0.6427876096865393,-0.7660444431189781 l 0.6427876096865393,0.7660444431189788 l 1.2855752193730785,1.5320888862379576 l -0.34202014332566866,-0.9396926207859084 l -0.6427876096865393,-0.7660444431189781 l 0.6427876096865393,0.7660444431189788 l -0.34202014332566866,-0.9396926207859084 l 5.551115123125783e-17,-1.0 l 0.0,1.0 l -0.34202014332566866,-0.9396926207859084 l 0.34202014332566844,0.9396926207859089 l 5.551115123125783e-17,-1.0 l -0.34202014332566866,-0.9396926207859084 l 0.34202014332566844,0.9396926207859089 l 5.551115123125783e-17,-1.0 l 0.34202014332566877,-0.9396926207859084 l -0.3420201433256689,0.9396926207859089 l 5.551115123125783e-17,-1.0 l 0.0,1.0 l 0.0,2.0 l -0.34202014332566866,-0.9396926207859084 l -0.6427876096865393,-0.7660444431189781 l 0.6427876096865393,0.7660444431189788 l -0.34202014332566866,-0.9396926207859084 l 5.551115123125783e-17,-1.0 l 0.0,1.0 l -0.34202014332566866,-0.9396926207859084 l 0.34202014332566844,0.9396926207859089 l 0.6840402866513369,1.8793852415718177 l 5.551115123125783e-17,-1.0 l -0.34202014332566866,-0.9396926207859084 l 0.34202014332566844,0.9396926207859089 l 5.551115123125783e-17,-1.0 l 0.34202014332566877,-0.9396926207859084 l -0.3420201433256689,0.9396926207859089 l 5.551115123125783e-17,-1.0 l 0.0,1.0 l -0.34202014332566866,-0.9396926207859084 l -0.6427876096865393,-0.7660444431189781 l 0.6427876096865393,0.7660444431189788 l -0.34202014332566866,-0.9396926207859084 l 5.551115123125783e-17,-1.0 l 0.0,1.0 l -0.34202014332566866,-0.9396926207859084 l 0.34202014332566844,0.9396926207859089 l 0.6840402866513369,1.8793852415718177 l 5.551115123125783e-17,-1.0 l -0.34202014332566866,-0.9396926207859084 l 0.34202014332566844,0.9396926207859089 l 5.551115123125783e-17,-1.0 l 0.34202014332566877,-0.9396926207859084 l -0.3420201433256689,0.9396926207859089 l 5.551115123125783e-17,-1.0 l 0.0,1.0 l 0.34202014332566877,-0.9396926207859084 l 5.551115123125783e-17,-1.0 l 0.0,1.0 l 0.34202014332566877,-0.9396926207859084 l 0.6427876096865395,-0.7660444431189781 l -0.6427876096865395,0.7660444431189788 l 0.34202014332566877,-0.9396926207859084 l -0.3420201433256689,0.9396926207859089 l -0.6840402866513378,1.8793852415718177 l 5.551115123125783e-17,-1.0 l -0.34202014332566866,-0.9396926207859084 l 0.34202014332566844,0.9396926207859089 l 5.551115123125783e-17,-1.0 l 0.34202014332566877,-0.9396926207859084 l -0.3420201433256689,0.9396926207859089 l 5.551115123125783e-17,-1.0 l 0.0,1.0 l 0.0,2.0 l 0.0,4.0 l -0.34202014332566866,-0.9396926207859084 l -0.6427876096865393,-0.7660444431189781 l 0.6427876096865393,0.7660444431189788 l -0.34202014332566866,-0.9396926207859084 l 5.551115123125783e-17,-1.0 l 0.0,1.0 l -0.34202014332566866,-0.9396926207859084 l 0.34202014332566844,0.9396926207859089 l -0.6427876096865393,-0.7660444431189781 l -0.8660254037844386,-0.5000000000000002 l 0.8660254037844384,0.5 l -0.6427876096865393,-0.7660444431189781 l -0.34202014332566866,-0.9396926207859084 l 0.34202014332566844,0.9396926207859089 l -0.6427876096865393,-0.7660444431189781 l 0.6427876096865397,0.7660444431189788 l 1.2855752193730785,1.5320888862379576 l -0.34202014332566866,-0.9396926207859084 l -0.6427876096865393,-0.7660444431189781 l 0.6427876096865397,0.7660444431189788 l -0.34202014332566866,-0.9396926207859084 l 5.551115123125783e-17,-1.0 l 0.0,1.0 l -0.34202014332566866,-0.9396926207859084 l 0.34202014332566844,0.9396926207859089 l 5.551115123125783e-17,-1.0 l -0.34202014332566866,-0.9396926207859084 l 0.34202014332566844,0.9396926207859089 l 5.551115123125783e-17,-1.0 l 0.34202014332566877,-0.9396926207859084 l -0.3420201433256689,0.9396926207859089 l 5.551115123125783e-17,-1.0 l 0.0,1.0 l 0.0,2.0 l -0.34202014332566866,-0.9396926207859084 l -0.6427876096865393,-0.7660444431189781 l 0.6427876096865397,0.7660444431189788 l -0.34202014332566866,-0.9396926207859084 l 5.551115123125783e-17,-1.0 l 0.0,1.0 l -0.34202014332566866,-0.9396926207859084 l 0.34202014332566844,0.9396926207859089 l 0.6840402866513369,1.8793852415718177 l 1.3680805733026737,3.7587704831436355 l 2.736161146605349,7.517540966287271 l 6.123233995736766e-17,-1.0 l -0.34202014332566866,-0.9396926207859084 l 0.34202014332566866,0.9396926207859089 l 6.123233995736766e-17,-1.0 l 0.34202014332566877,-0.9396926207859084 l -0.34202014332566877,0.9396926207859089 l 6.123233995736766e-17,-1.0 l -6.123233995736767e-17,1.0 l -0.34202014332566866,-0.9396926207859084 l -0.6427876096865393,-0.7660444431189781 l 0.6427876096865393,0.7660444431189788 l -0.34202014332566866,-0.9396926207859084 l 5.551115123125783e-17,-1.0 l 0.0,1.0 l -0.34202014332566866,-0.9396926207859084 l 0.34202014332566866,0.9396926207859089 l 0.6840402866513373,1.8793852415718177 l 6.123233995736766e-17,-1.0 l -0.34202014332566866,-0.9396926207859084 l 0.34202014332566866,0.9396926207859089 l 6.123233995736766e-17,-1.0 l 0.34202014332566877,-0.9396926207859084 l -0.34202014332566877,0.9396926207859089 l 6.123233995736766e-17,-1.0 l -6.123233995736767e-17,1.0 l 0.34202014332566877,-0.9396926207859084 l 5.551115123125783e-17,-1.0 l -5.551115123125783e-17,1.0 l 0.34202014332566877,-0.9396926207859084 l 0.6427876096865395,-0.7660444431189781 l -0.6427876096865395,0.7660444431189788 l 0.34202014332566877,-0.9396926207859084 l -0.3420201433256689,0.9396926207859089 l -0.6840402866513374,1.8793852415718177 l 6.123233995736766e-17,-1.0 l -0.34202014332566866,-0.9396926207859084 l 0.34202014332566866,0.9396926207859089 l 6.123233995736766e-17,-1.0 l 0.34202014332566877,-0.9396926207859084 l -0.34202014332566877,0.9396926207859089 l 6.123233995736766e-17,-1.0 l -6.123233995736767e-17,1.0 l -1.2246467991473535e-16,2.0 l -0.34202014332566866,-0.9396926207859084 l -0.6427876096865393,-0.7660444431189781 l 0.6427876096865393,0.7660444431189788 l -0.34202014332566866,-0.9396926207859084 l 5.551115123125783e-17,-1.0 l 0.0,1.0 l -0.34202014332566866,-0.9396926207859084 l 0.34202014332566866,0.9396926207859089 l -0.6427876096865393,-0.7660444431189781 l -0.8660254037844386,-0.5000000000000002 l 0.8660254037844386,0.5 l -0.6427876096865393,-0.7660444431189781 l -0.34202014332566866,-0.9396926207859084 l 0.34202014332566866,0.9396926207859089 l -0.6427876096865393,-0.7660444431189781 l 0.642787609686539,0.7660444431189788 l 1.2855752193730785,1.5320888862379576 l -0.34202014332566866,-0.9396926207859084 l -0.6427876096865393,-0.7660444431189781 l 0.6427876096865393,0.7660444431189788 l -0.34202014332566866,-0.9396926207859084 l 5.551115123125783e-17,-1.0 l 0.0,1.0 l -0.34202014332566866,-0.9396926207859084 l 0.34202014332566866,0.9396926207859089 l 5.551115123125783e-17,-1.0 l -0.34202014332566866,-0.9396926207859084 l 0.34202014332566866,0.9396926207859089 l 5.551115123125783e-17,-1.0 l 0.34202014332566877,-0.9396926207859084 l -0.34202014332566866,0.9396926207859089 l 5.551115123125783e-17,-1.0 l 0.0,1.0 l 0.0,2.0 l -0.34202014332566866,-0.9396926207859084 l -0.6427876096865393,-0.7660444431189781 l 0.6427876096865393,0.7660444431189788 l -0.34202014332566866,-0.9396926207859084 l 5.551115123125783e-17,-1.0 l 0.0,1.0 l -0.34202014332566866,-0.9396926207859084 l 0.34202014332566844,0.9396926207859089 l 0.6840402866513375,1.8793852415718177 l 1.3680805733026746,3.7587704831436355 l 6.123233995736766e-17,-1.0 l -0.34202014332566866,-0.9396926207859084 l 0.34202014332566866,0.9396926207859089 l 6.123233995736766e-17,-1.0 l 0.34202014332566877,-0.9396926207859084 l -0.34202014332566877,0.9396926207859089 l 6.123233995736766e-17,-1.0 l -6.123233995736767e-17,1.0 l -0.34202014332566866,-0.9396926207859084 l -0.6427876096865393,-0.7660444431189781 l 0.6427876096865393,0.7660444431189788 l -0.34202014332566866,-0.9396926207859084 l 5.551115123125783e-17,-1.0 l 0.0,1.0 l -0.34202014332566866,-0.9396926207859084 l 0.34202014332566866,0.9396926207859089 l 0.6840402866513373,1.8793852415718177 l 6.123233995736766e-17,-1.0 l -0.34202014332566866,-0.9396926207859084 l 0.34202014332566866,0.9396926207859089 l 6.123233995736766e-17,-1.0 l 0.34202014332566877,-0.9396926207859084 l -0.34202014332566877,0.9396926207859089 l 6.123233995736766e-17,-1.0 l -6.123233995736757e-17,1.0 l 0.34202014332566877,-0.9396926207859084 l 5.551115123125783e-17,-1.0 l -5.551115123125783e-17,1.0 l 0.34202014332566877,-0.9396926207859084 l 0.6427876096865395,-0.7660444431189781 l -0.6427876096865394,0.7660444431189788 l 0.34202014332566877,-0.9396926207859084 l -0.34202014332566877,0.9396926207859089 l -0.6840402866513375,1.8793852415718177 l 6.123233995736766e-17,-1.0 l -0.34202014332566866,-0.9396926207859084 l 0.34202014332566866,0.9396926207859089 l 6.123233995736766e-17,-1.0 l 0.34202014332566877,-0.9396926207859084 l -0.34202014332566877,0.9396926207859089 l 6.123233995736766e-17,-1.0 l -6.123233995736757e-17,1.0 l -1.2246467991473515e-16,2.0 l 0.34202014332566877,-0.9396926207859084 l 5.551115123125783e-17,-1.0 l -5.551115123125783e-17,1.0 l 0.34202014332566877,-0.9396926207859084 l 0.6427876096865395,-0.7660444431189781 l -0.6427876096865394,0.7660444431189788 l 0.34202014332566877,-0.9396926207859084 l -0.34202014332566877,0.9396926207859089 l 5.551115123125783e-17,-1.0 l -0.34202014332566866,-0.9396926207859084 l 0.34202014332566866,0.9396926207859089 l 5.551115123125783e-17,-1.0 l 0.34202014332566877,-0.9396926207859084 l -0.3420201433256689,0.9396926207859089 l 5.551115123125783e-17,-1.0 l 0.0,1.0 l -1.1102230246251565e-16,2.0 l 0.34202014332566877,-0.9396926207859084 l 5.551115123125783e-17,-1.0 l 0.0,1.0 l 0.34202014332566877,-0.9396926207859084 l 0.6427876096865395,-0.7660444431189781 l -0.6427876096865393,0.7660444431189788 l 0.34202014332566877,-0.9396926207859084 l -0.3420201433256689,0.9396926207859089 l 0.6427876096865395,-0.7660444431189781 l 0.3420201433256689,-0.9396926207859085 l -0.3420201433256689,0.9396926207859089 l 0.6427876096865395,-0.7660444431189781 l 0.8660254037844388,-0.5000000000000001 l -0.8660254037844388,0.5 l 0.6427876096865395,-0.7660444431189781 l -0.6427876096865397,0.7660444431189788 l -1.285575219373079,1.5320888862379576 l 0.34202014332566877,-0.9396926207859084 l 5.551115123125783e-17,-1.0 l 0.0,1.0 l 0.34202014332566877,-0.9396926207859084 l 0.6427876096865395,-0.7660444431189781 l -0.6427876096865393,0.7660444431189788 l 0.34202014332566877,-0.9396926207859084 l -0.3420201433256689,0.9396926207859089 l -0.6840402866513378,1.8793852415718177 l -1.368080573302675,3.7587704831436355 l 6.123233995736766e-17,-1.0 l -0.34202014332566866,-0.9396926207859084 l 0.34202014332566866,0.9396926207859089 l 6.123233995736766e-17,-1.0 l 0.34202014332566877,-0.9396926207859084 l -0.34202014332566877,0.9396926207859089 l 6.123233995736766e-17,-1.0 l -6.123233995736757e-17,1.0 l -0.34202014332566866,-0.9396926207859084 l -0.6427876096865393,-0.7660444431189781 l 0.6427876096865393,0.7660444431189788 l -0.34202014332566866,-0.9396926207859084 l 5.551115123125783e-17,-1.0 l 0.0,1.0 l -0.34202014332566866,-0.9396926207859084 l 0.34202014332566866,0.9396926207859089 l 0.6840402866513373,1.8793852415718177 l 6.123233995736766e-17,-1.0 l -0.34202014332566866,-0.9396926207859084 l 0.34202014332566866,0.9396926207859089 l 6.123233995736766e-17,-1.0 l 0.34202014332566877,-0.9396926207859084 l -0.34202014332566877,0.9396926207859089 l 6.123233995736766e-17,-1.0 l -6.123233995736757e-17,1.0 l 0.34202014332566877,-0.9396926207859084 l 5.551115123125783e-17,-1.0 l -5.551115123125783e-17,1.0 l 0.34202014332566877,-0.9396926207859084 l 0.6427876096865395,-0.7660444431189781 l -0.6427876096865396,0.7660444431189788 l 0.34202014332566877,-0.9396926207859084 l -0.34202014332566877,0.9396926207859089 l -0.6840402866513375,1.8793852415718177 l 6.123233995736766e-17,-1.0 l -0.34202014332566866,-0.9396926207859084 l 0.34202014332566866,0.9396926207859089 l 6.123233995736766e-17,-1.0 l 0.34202014332566877,-0.9396926207859084 l -0.34202014332566877,0.9396926207859089 l 6.123233995736766e-17,-1.0 l -6.123233995736757e-17,1.0 l -1.2246467991473515e-16,2.0 l -2.449293598294703e-16,4.0 l 0.34202014332566877,-0.9396926207859084 l 5.551115123125783e-17,-1.0 l -5.551115123125783e-17,1.0 l 0.34202014332566877,-0.9396926207859084 l 0.6427876096865395,-0.7660444431189781 l -0.6427876096865394,0.7660444431189788 l 0.34202014332566877,-0.9396926207859084 l -0.34202014332566877,0.9396926207859089 l 5.551115123125783e-17,-1.0 l -0.34202014332566866,-0.9396926207859084 l 0.34202014332566866,0.9396926207859089 l 5.551115123125783e-17,-1.0 l 0.34202014332566877,-0.9396926207859084 l -0.3420201433256689,0.9396926207859089 l 5.551115123125783e-17,-1.0 l 0.0,1.0 l -1.1102230246251565e-16,2.0 l 0.34202014332566877,-0.9396926207859084 l 5.551115123125783e-17,-1.0 l 0.0,1.0 l 0.34202014332566877,-0.9396926207859084 l 0.6427876096865395,-0.7660444431189781 l -0.6427876096865393,0.7660444431189788 l 0.34202014332566877,-0.9396926207859084 l -0.3420201433256689,0.9396926207859089 l 0.6427876096865395,-0.7660444431189781 l 0.3420201433256689,-0.9396926207859085 l -0.3420201433256689,0.9396926207859089 l 0.6427876096865395,-0.7660444431189781 l 0.8660254037844388,-0.5000000000000001 l -0.8660254037844388,0.5 l 0.6427876096865395,-0.7660444431189781 l -0.6427876096865397,0.7660444431189788 l -1.285575219373079,1.5320888862379576 l 0.34202014332566877,-0.9396926207859084 l 5.551115123125783e-17,-1.0 l 0.0,1.0 l 0.34202014332566877,-0.9396926207859084 l 0.6427876096865395,-0.7660444431189781 l -0.6427876096865393,0.7660444431189788 l 0.34202014332566877,-0.9396926207859084 l -0.3420201433256689,0.9396926207859089 l -0.6840402866513378,1.8793852415718177 l 5.551115123125783e-17,-1.0 l -0.34202014332566866,-0.9396926207859084 l 0.34202014332566866,0.9396926207859089 l 5.551115123125783e-17,-1.0 l 0.34202014332566877,-0.9396926207859084 l -0.3420201433256689,0.9396926207859089 l 5.551115123125783e-17,-1.0 l 0.0,1.0 l -0.34202014332566866,-0.9396926207859084 l -0.6427876096865393,-0.7660444431189781 l 0.6427876096865393,0.7660444431189788 l -0.34202014332566866,-0.9396926207859084 l 5.551115123125783e-17,-1.0 l 0.0,1.0 l -0.34202014332566866,-0.9396926207859084 l 0.34202014332566866,0.9396926207859089 l 0.6840402866513373,1.8793852415718177 l 5.551115123125783e-17,-1.0 l -0.34202014332566866,-0.9396926207859084 l 0.34202014332566866,0.9396926207859089 l 5.551115123125783e-17,-1.0 l 0.34202014332566877,-0.9396926207859084 l -0.3420201433256689,0.9396926207859089 l 5.551115123125783e-17,-1.0 l 0.0,1.0 l 0.34202014332566877,-0.9396926207859084 l 5.551115123125783e-17,-1.0 l 0.0,1.0 l 0.34202014332566877,-0.9396926207859084 l 0.6427876096865395,-0.7660444431189781 l -0.6427876096865393,0.7660444431189788 l 0.34202014332566877,-0.9396926207859084 l -0.3420201433256689,0.9396926207859089 l -0.6840402866513378,1.8793852415718177 l 5.551115123125783e-17,-1.0 l -0.34202014332566866,-0.9396926207859084 l 0.34202014332566866,0.9396926207859089 l 5.551115123125783e-17,-1.0 l 0.34202014332566877,-0.9396926207859084 l -0.3420201433256689,0.9396926207859089 l 5.551115123125783e-17,-1.0 l 0.0,1.0 l 0.0,2.0 l 0.0,4.0 l 0.34202014332566877,-0.9396926207859084 l 5.551115123125783e-17,-1.0 l 0.0,1.0 l 0.34202014332566877,-0.9396926207859084 l 0.6427876096865395,-0.7660444431189781 l -0.6427876096865393,0.7660444431189788 l 0.34202014332566877,-0.9396926207859084 l -0.3420201433256689,0.9396926207859089 l 5.551115123125783e-17,-1.0 l -0.34202014332566866,-0.9396926207859084 l 0.34202014332566866,0.9396926207859089 l 5.551115123125783e-17,-1.0 l 0.34202014332566877,-0.9396926207859084 l -0.3420201433256689,0.9396926207859089 l 5.551115123125783e-17,-1.0 l 0.0,1.0 l 0.0,2.0 l 0.34202014332566877,-0.9396926207859084 l 5.551115123125783e-17,-1.0 l 0.0,1.0 l 0.34202014332566877,-0.9396926207859084 l 0.6427876096865395,-0.7660444431189781 l -0.6427876096865393,0.7660444431189788 l 0.34202014332566877,-0.9396926207859084 l -0.3420201433256689,0.9396926207859089 l 0.6427876096865395,-0.7660444431189781 l 0.3420201433256689,-0.9396926207859085 l -0.3420201433256689,0.9396926207859089 l 0.6427876096865395,-0.7660444431189781 l 0.8660254037844388,-0.5000000000000001 l -0.8660254037844393,0.5 l 0.6427876096865395,-0.7660444431189781 l -0.6427876096865397,0.7660444431189788 l -1.285575219373079,1.5320888862379576 l 0.34202014332566877,-0.9396926207859084 l 5.551115123125783e-17,-1.0 l 0.0,1.0 l 0.34202014332566877,-0.9396926207859084 l 0.6427876096865395,-0.7660444431189781 l -0.6427876096865393,0.7660444431189788 l 0.34202014332566877,-0.9396926207859084 l -0.3420201433256689,0.9396926207859089 l -0.6840402866513378,1.8793852415718177 l 0.6427876096865395,-0.7660444431189781 l 0.3420201433256689,-0.9396926207859085 l -0.3420201433256689,0.9396926207859089 l 0.6427876096865395,-0.7660444431189781 l 0.8660254037844388,-0.5000000000000001 l -0.8660254037844393,0.5 l 0.6427876096865395,-0.7660444431189781 l -0.6427876096865397,0.7660444431189788 l 0.3420201433256689,-0.9396926207859085 l 1.1102230246251565e-16,-1.0000000000000002 l 0.0,1.0 l 0.3420201433256689,-0.9396926207859085 l 0.6427876096865395,-0.7660444431189781 l -0.6427876096865397,0.7660444431189788 l 0.3420201433256689,-0.9396926207859085 l -0.3420201433256693,0.9396926207859089 l -0.6840402866513386,1.8793852415718177 l 0.6427876096865395,-0.7660444431189781 l 0.3420201433256689,-0.9396926207859085 l -0.3420201433256693,0.9396926207859089 l 0.6427876096865395,-0.7660444431189781 l 0.8660254037844388,-0.5000000000000001 l -0.8660254037844393,0.5 l 0.6427876096865395,-0.7660444431189781 l -0.6427876096865397,0.7660444431189788 l 0.8660254037844388,-0.5000000000000001 l 0.6427876096865395,-0.7660444431189782 l -0.6427876096865397,0.7660444431189788 l 0.8660254037844388,-0.5000000000000001 l 0.9848077530122084,-0.17364817766693041 l -0.984807753012209,0.17364817766693008 l 0.8660254037844388,-0.5000000000000001 l -0.8660254037844393,0.5 l -1.7320508075688785,1.0 l 0.6427876096865395,-0.7660444431189781 l 0.3420201433256689,-0.9396926207859085 l -0.3420201433256693,0.9396926207859089 l 0.6427876096865395,-0.7660444431189781 l 0.8660254037844388,-0.5000000000000001 l -0.8660254037844393,0.5 l 0.6427876096865395,-0.7660444431189781 l -0.6427876096865397,0.7660444431189788 l -1.2855752193730794,1.5320888862379576 l -2.5711504387461583,3.064177772475915 l 0.34202014332566877,-0.9396926207859084 l 5.551115123125783e-17,-1.0 l 0.0,1.0 l 0.34202014332566877,-0.9396926207859084 l 0.6427876096865395,-0.7660444431189781 l -0.6427876096865393,0.7660444431189788 l 0.34202014332566877,-0.9396926207859084 l -0.3420201433256689,0.9396926207859089 l 5.551115123125783e-17,-1.0 l -0.34202014332566866,-0.9396926207859084 l 0.3420201433256689,0.9396926207859089 l 5.551115123125783e-17,-1.0 l 0.34202014332566877,-0.9396926207859084 l -0.3420201433256689,0.9396926207859089 l 5.551115123125783e-17,-1.0 l 0.0,1.0 l 0.0,2.0 l 0.34202014332566877,-0.9396926207859084 l 5.551115123125783e-17,-1.0 l 0.0,1.0 l 0.34202014332566877,-0.9396926207859084 l 0.6427876096865395,-0.7660444431189781 l -0.6427876096865397,0.7660444431189788 l 0.34202014332566877,-0.9396926207859084 l -0.34202014332566844,0.9396926207859089 l 0.6427876096865395,-0.7660444431189781 l 0.3420201433256689,-0.9396926207859085 l -0.3420201433256693,0.9396926207859089 l 0.6427876096865395,-0.7660444431189781 l 0.8660254037844388,-0.5000000000000001 l -0.8660254037844393,0.5 l 0.6427876096865395,-0.7660444431189781 l -0.6427876096865397,0.7660444431189788 l -1.2855752193730794,1.5320888862379576 l 0.34202014332566877,-0.9396926207859084 l 5.551115123125783e-17,-1.0 l 0.0,1.0 l 0.34202014332566877,-0.9396926207859084 l 0.6427876096865395,-0.7660444431189781 l -0.6427876096865397,0.7660444431189788 l 0.34202014332566877,-0.9396926207859084 l -0.34202014332566844,0.9396926207859089 l -0.6840402866513369,1.8793852415718177 l -1.368080573302675,3.7587704831436355 l -2.7361611466053506,7.517540966287271 l 6.123233995736766e-17,-1.0 l -0.34202014332566866,-0.9396926207859084 l 0.34202014332566866,0.9396926207859089 l 6.123233995736766e-17,-1.0 l 0.34202014332566877,-0.9396926207859084 l -0.34202014332566877,0.9396926207859089 l 6.123233995736766e-17,-1.0 l -6.123233995736757e-17,1.0 l -0.34202014332566866,-0.9396926207859084 l -0.6427876096865393,-0.7660444431189781 l 0.6427876096865393,0.7660444431189788 l -0.34202014332566866,-0.9396926207859084 l 5.551115123125783e-17,-1.0 l 0.0,1.0 l -0.34202014332566866,-0.9396926207859084 l 0.34202014332566866,0.9396926207859089 l 0.6840402866513373,1.8793852415718177 l 6.123233995736766e-17,-1.0 l -0.34202014332566866,-0.9396926207859084 l 0.34202014332566866,0.9396926207859089 l 6.123233995736766e-17,-1.0 l 0.34202014332566877,-0.9396926207859084 l -0.34202014332566877,0.9396926207859089 l 6.123233995736766e-17,-1.0 l -6.123233995736757e-17,1.0 l 0.34202014332566877,-0.9396926207859084 l 5.551115123125783e-17,-1.0 l -5.551115123125783e-17,1.0 l 0.34202014332566877,-0.9396926207859084 l 0.6427876096865395,-0.7660444431189781 l -0.6427876096865396,0.7660444431189788 l 0.34202014332566877,-0.9396926207859084 l -0.34202014332566877,0.9396926207859089 l -0.6840402866513375,1.8793852415718177 l 6.123233995736766e-17,-1.0 l -0.34202014332566866,-0.9396926207859084 l 0.34202014332566866,0.9396926207859089 l 6.123233995736766e-17,-1.0 l 0.34202014332566877,-0.9396926207859084 l -0.34202014332566877,0.9396926207859089 l 6.123233995736766e-17,-1.0 l -6.123233995736757e-17,1.0 l -1.2246467991473515e-16,2.0 l -0.34202014332566866,-0.9396926207859084 l -0.6427876096865393,-0.7660444431189781 l 0.6427876096865393,0.7660444431189788 l -0.34202014332566866,-0.9396926207859084 l 5.551115123125783e-17,-1.0 l -1.1102230246251565e-16,1.0 l -0.34202014332566866,-0.9396926207859084 l 0.34202014332566877,0.9396926207859089 l -0.6427876096865393,-0.7660444431189781 l -0.8660254037844386,-0.5000000000000002 l 0.8660254037844388,0.5 l -0.6427876096865393,-0.7660444431189781 l -0.34202014332566866,-0.9396926207859084 l 0.34202014332566844,0.9396926207859089 l -0.6427876096865393,-0.7660444431189781 l 0.6427876096865393,0.7660444431189788 l 1.2855752193730785,1.5320888862379576 l -0.34202014332566866,-0.9396926207859084 l -0.6427876096865393,-0.7660444431189781 l 0.6427876096865393,0.7660444431189788 l -0.34202014332566866,-0.9396926207859084 l 5.551115123125783e-17,-1.0 l 0.0,1.0 l -0.34202014332566866,-0.9396926207859084 l 0.34202014332566866,0.9396926207859089 l 5.551115123125783e-17,-1.0 l -0.34202014332566866,-0.9396926207859084 l 0.34202014332566866,0.9396926207859089 l 5.551115123125783e-17,-1.0 l 0.34202014332566877,-0.9396926207859084 l -0.34202014332566866,0.9396926207859089 l 5.551115123125783e-17,-1.0 l 0.0,1.0 l 0.0,2.0 l -0.34202014332566866,-0.9396926207859084 l -0.6427876096865393,-0.7660444431189781 l 0.6427876096865393,0.7660444431189788 l -0.34202014332566866,-0.9396926207859084 l 5.551115123125783e-17,-1.0 l 0.0,1.0 l -0.34202014332566866,-0.9396926207859084 l 0.34202014332566844,0.9396926207859089 l 0.6840402866513371,1.8793852415718177 l 1.3680805733026749,3.7587704831436355 l 6.123233995736766e-17,-1.0 l -0.34202014332566866,-0.9396926207859084 l 0.34202014332566866,0.9396926207859089 l 6.123233995736766e-17,-1.0 l 0.34202014332566877,-0.9396926207859084 l -0.34202014332566877,0.9396926207859089 l 6.123233995736766e-17,-1.0 l -6.123233995736757e-17,1.0 l -0.34202014332566866,-0.9396926207859084 l -0.6427876096865393,-0.7660444431189781 l 0.6427876096865393,0.7660444431189788 l -0.34202014332566866,-0.9396926207859084 l 5.551115123125783e-17,-1.0 l 0.0,1.0 l -0.34202014332566866,-0.9396926207859084 l 0.34202014332566866,0.9396926207859089 l 0.6840402866513373,1.8793852415718177 l 6.123233995736766e-17,-1.0 l -0.34202014332566866,-0.9396926207859084 l 0.34202014332566866,0.9396926207859089 l 6.123233995736766e-17,-1.0 l 0.34202014332566877,-0.9396926207859084 l -0.34202014332566877,0.9396926207859089 l 6.123233995736766e-17,-1.0 l -6.123233995736757e-17,1.0 l 0.34202014332566877,-0.9396926207859084 l 5.551115123125783e-17,-1.0 l -5.551115123125783e-17,1.0 l 0.34202014332566877,-0.9396926207859084 l 0.6427876096865395,-0.7660444431189781 l -0.6427876096865394,0.7660444431189788 l 0.34202014332566877,-0.9396926207859084 l -0.34202014332566877,0.9396926207859089 l -0.6840402866513375,1.8793852415718177 l 6.123233995736766e-17,-1.0 l -0.34202014332566866,-0.9396926207859084 l 0.34202014332566866,0.9396926207859089 l 6.123233995736766e-17,-1.0 l 0.34202014332566877,-0.9396926207859084 l -0.34202014332566877,0.9396926207859089 l 6.123233995736766e-17,-1.0 l -6.123233995736757e-17,1.0 l -1.2246467991473515e-16,2.0 l 0.34202014332566877,-0.9396926207859084 l 5.551115123125783e-17,-1.0 l -5.551115123125783e-17,1.0 l 0.34202014332566877,-0.9396926207859084 l 0.6427876096865395,-0.7660444431189781 l -0.6427876096865394,0.7660444431189788 l 0.34202014332566877,-0.9396926207859084 l -0.34202014332566877,0.9396926207859089 l 5.551115123125783e-17,-1.0 l -0.34202014332566866,-0.9396926207859084 l 0.34202014332566866,0.9396926207859089 l 5.551115123125783e-17,-1.0 l 0.34202014332566877,-0.9396926207859084 l -0.3420201433256689,0.9396926207859089 l 5.551115123125783e-17,-1.0 l 0.0,1.0 l -1.1102230246251565e-16,2.0 l 0.34202014332566877,-0.9396926207859084 l 5.551115123125783e-17,-1.0 l 0.0,1.0 l 0.34202014332566877,-0.9396926207859084 l 0.6427876096865395,-0.7660444431189781 l -0.6427876096865397,0.7660444431189788 l 0.34202014332566877,-0.9396926207859084 l -0.3420201433256689,0.9396926207859089 l 0.6427876096865395,-0.7660444431189781 l 0.3420201433256689,-0.9396926207859085 l -0.3420201433256689,0.9396926207859089 l 0.6427876096865395,-0.7660444431189781 l 0.8660254037844388,-0.5000000000000001 l -0.8660254037844388,0.5 l 0.6427876096865395,-0.7660444431189781 l -0.6427876096865397,0.7660444431189788 l -1.2855752193730794,1.5320888862379576 l 0.34202014332566877,-0.9396926207859084 l 5.551115123125783e-17,-1.0 l 0.0,1.0 l 0.34202014332566877,-0.9396926207859084 l 0.6427876096865395,-0.7660444431189781 l -0.6427876096865397,0.7660444431189788 l 0.34202014332566877,-0.9396926207859084 l -0.3420201433256689,0.9396926207859089 l -0.6840402866513378,1.8793852415718177 l -1.3680805733026749,3.7587704831436355 l 6.123233995736766e-17,-1.0 l -0.34202014332566866,-0.9396926207859084 l 0.34202014332566866,0.9396926207859089 l 6.123233995736766e-17,-1.0 l 0.34202014332566877,-0.9396926207859084 l -0.34202014332566877,0.9396926207859089 l 6.123233995736766e-17,-1.0 l -6.123233995736757e-17,1.0 l -0.34202014332566866,-0.9396926207859084 l -0.6427876096865393,-0.7660444431189781 l 0.6427876096865393,0.7660444431189788 l -0.34202014332566866,-0.9396926207859084 l 5.551115123125783e-17,-1.0 l 0.0,1.0 l -0.34202014332566866,-0.9396926207859084 l 0.34202014332566866,0.9396926207859089 l 0.6840402866513373,1.8793852415718177 l 6.123233995736766e-17,-1.0 l -0.34202014332566866,-0.9396926207859084 l 0.34202014332566866,0.9396926207859089 l 6.123233995736766e-17,-1.0 l 0.34202014332566877,-0.9396926207859084 l -0.34202014332566877,0.9396926207859089 l 6.123233995736766e-17,-1.0 l -6.123233995736757e-17,1.0 l 0.34202014332566877,-0.9396926207859084 l 5.551115123125783e-17,-1.0 l -5.551115123125783e-17,1.0 l 0.34202014332566877,-0.9396926207859084 l 0.6427876096865395,-0.7660444431189781 l -0.6427876096865395,0.7660444431189788 l 0.34202014332566877,-0.9396926207859084 l -0.34202014332566866,0.9396926207859089 l -0.6840402866513376,1.8793852415718177 l 6.123233995736766e-17,-1.0 l -0.34202014332566866,-0.9396926207859084 l 0.34202014332566866,0.9396926207859089 l 6.123233995736766e-17,-1.0 l 0.34202014332566877,-0.9396926207859084 l -0.34202014332566877,0.9396926207859089 l 6.123233995736766e-17,-1.0 l -6.123233995736757e-17,1.0 l -1.2246467991473535e-16,2.0 l -2.449293598294703e-16,4.0 l -4.898587196589406e-16,8.0 " style="stroke-linecap:square;stroke:#50514F;stroke-width:0.2px;fill:none" /></g></svg>