<?xml version="1.0" encoding="UTF-8"?>
<!DOCTYPE svg PUBLIC "-//W3C//DTD SVG 1.1//EN"
    "http://www.w3.org/Graphics/SVG/1.1/DTD/svg11.dtd">

<svg xmlns="http://www.w3.org/2000/svg" xmlns:xlink="http://www.w3.org/1999/xlink" version="1.1" width="331.2790302519999" height="500" viewBox="-5.720362996454916 -39.7249034670241 28.712787267076482 43.336258327662655">
    <g>
        <rect x="-5.720362996454916" y="-39.7249034670241" width="28.712787267076482" height="43.336258327662655" fill="#CBD4C2" />
        <path style="stroke-linecap:square;fill:none;stroke-width:0.1px;stroke:#50514F" d="M 0.0,0.0 L 6.123233995736766e-17,-1.0 L 1.2246467991473532e-16,-2.0 L 1.8369701987210297e-16,-3.0 L 2.4492935982947064e-16,-4.0 L 0.38268343236509006,-4.923879532511287 L 0.7653668647301799,-5.847759065022574 M 2.4492935982947064e-16,-4.0 " />
        <path style="stroke-linecap:square;fill:none;stroke-width:0.1px;stroke:#50514F" d="M 2.4492935982947064e-16,-4.0 L 3.061616997868383e-16,-5.0 L -0.3826834323650894,-5.923879532511287 L -0.7653668647301791,-6.847759065022574 L -0.765366864730179,-7.847759065022574 L -0.765366864730179,-8.847759065022574 M -0.7653668647301791,-6.847759065022574 " />
        <path style="stroke-linecap:square;fill:none;stroke-width:0.1px;stroke:#50514F" d="M -0.7653668647301791,-6.847759065022574 L -1.1480502970952688,-7.771638597533861 M 3.061616997868383e-16,-5.0 " />
        <path style="stroke-linecap:square;fill:none;stroke-width:0.1px;stroke:#50514F" d="M 3.061616997868383e-16,-5.0 L 3.67394039744206e-16,-6.0 L 4.2862637970157366e-16,-7.0 L 0.3826834323650903,-7.923879532511287 L 0.7653668647301801,-8.847759065022574 L 0.7653668647301801,-9.847759065022574 L 0.7653668647301801,-10.847759065022574 M 0.7653668647301801,-8.847759065022574 " />
        <path style="stroke-linecap:square;fill:none;stroke-width:0.1px;stroke:#50514F" d="M 0.7653668647301801,-8.847759065022574 L 1.14805029709527,-9.77163859753386 M 4.2862637970157366e-16,-7.0 " />
        <path style="stroke-linecap:square;fill:none;stroke-width:0.1px;stroke:#50514F" d="M 4.2862637970157366e-16,-7.0 L 4.898587196589413e-16,-8.0 L 5.51091059616309e-16,-9.0 L -0.38268343236508917,-9.923879532511286 L -0.7653668647301789,-10.847759065022572 M 5.51091059616309e-16,-9.0 " />
        <path style="stroke-linecap:square;fill:none;stroke-width:0.1px;stroke:#50514F" d="M 5.51091059616309e-16,-9.0 L -0.38268343236508917,-9.923879532511286 L -0.7653668647301789,-10.847759065022572 L -1.1480502970952686,-11.771638597533858 L -1.1480502970952686,-12.771638597533858 L -1.1480502970952686,-13.771638597533858 M -1.1480502970952686,-11.771638597533858 " />
        <path style="stroke-linecap:square;fill:none;stroke-width:0.1px;stroke:#50514F" d="M -1.1480502970952686,-11.771638597533858 L -1.5307337294603585,-12.695518130045144 M 5.51091059616309e-16,-9.0 " />
        <path style="stroke-linecap:square;fill:none;stroke-width:0.1px;stroke:#50514F" d="M 5.51091059616309e-16,-9.0 L 6.123233995736766e-16,-10.0 L 6.735557395310443e-16,-11.0 L 0.3826834323650905,-11.923879532511286 L 0.7653668647301803,-12.847759065022572 M 6.735557395310443e-16,-11.0 " />
        <path style="stroke-linecap:square;fill:none;stroke-width:0.1px;stroke:#50514F" d="M 6.735557395310443e-16,-11.0 L 0.3826834323650905,-11.923879532511286 L 0.7653668647301803,-12.847759065022572 L 1.1480502970952702,-13.771638597533858 L 1.8551570782818179,-14.478745378720406 L 2.5622638594683655,-15.185852159906954 M 1.1480502970952702,-13.771638597533858 " />
        <path style="stroke-linecap:square;fill:none;stroke-width:0.1px;stroke:#50514F" d="M 1.1480502970952702,-13.771638597533858 L 1.1480502970952702,-14.771638597533858 L 1.1480502970952702,-15.771638597533858 L 1.1480502970952702,-16.771638597533858 L 1.53073372946036,-17.695518130045144 L 1.9134171618254499,-18.61939766255643 M 1.1480502970952702,-16.771638597533858 " />
        <path style="stroke-linecap:square;fill:none;stroke-width:0.1px;stroke:#50514F" d="M 1.1480502970952702,-16.771638597533858 M 1.1480502970952702,-13.771638597533858 " />
        <path style="stroke-linecap:square;fill:none;stroke-width:0.1px;stroke:#50514F" d="M 1.1480502970952702,-13.771638597533858 L 1.53073372946036,-14.695518130045144 M 6.735557395310443e-16,-11.0 " />
        <path style="stroke-linecap:square;fill:none;stroke-width:0.1px;stroke:#50514F" d="M 6.735557395310443e-16,-11.0 L 7.34788079488412e-16,-12.0 L 7.960204194457796e-16,-13.0 L 8.572527594031473e-16,-14.0 L -0.3826834323650889,-14.923879532511286 L -0.7653668647301786,-15.847759065022572 M 8.572527594031473e-16,-14.0 " />
        <path style="stroke-linecap:square;fill:none;stroke-width:0.1px;stroke:#50514F" d="M 8.572527594031473e-16,-14.0 L -0.3826834323650889,-14.923879532511286 L -0.7653668647301786,-15.847759065022572 L -1.1480502970952684,-16.771638597533858 L -1.8551570782818159,-17.478745378720404 L -2.5622638594683633,-18.18585215990695 M -1.1480502970952684,-16.771638597533858 " />
        <path style="stroke-linecap:square;fill:none;stroke-width:0.1px;stroke:#50514F" d="M -1.1480502970952684,-16.771638597533858 L -1.1480502970952684,-17.771638597533858 L -1.1480502970952684,-18.771638597533858 L -1.1480502970952684,-19.771638597533858 L -1.530733729460358,-20.695518130045144 L -1.9134171618254476,-21.61939766255643 M -1.1480502970952684,-19.771638597533858 " />
        <path style="stroke-linecap:square;fill:none;stroke-width:0.1px;stroke:#50514F" d="M -1.1480502970952684,-19.771638597533858 M -1.1480502970952684,-16.771638597533858 " />
        <path style="stroke-linecap:square;fill:none;stroke-width:0.1px;stroke:#50514F" d="M -1.1480502970952684,-16.771638597533858 L -1.530733729460358,-17.695518130045144 M 8.572527594031473e-16,-14.0 " />
        <path style="stroke-linecap:square;fill:none;stroke-width:0.1px;stroke:#50514F" d="M 8.572527594031473e-16,-14.0 L 9.18485099360515e-16,-15.0 L 9.797174393178826e-16,-16.0 L -0.3826834323650887,-16.923879532511286 L -0.7653668647301785,-17.847759065022572 M 9.797174393178826e-16,-16.0 " />
        <path style="stroke-linecap:square;fill:none;stroke-width:0.1px;stroke:#50514F" d="M 9.797174393178826e-16,-16.0 L 1.0409497792752501e-15,-17.0 L 0.3826834323650909,-17.923879532511286 L 0.7653668647301808,-18.847759065022572 L 1.1480502970952706,-19.771638597533858 M 1.0409497792752501e-15,-17.0 " />
        <path style="stroke-linecap:square;fill:none;stroke-width:0.1px;stroke:#50514F" d="M 1.0409497792752501e-15,-17.0 L 0.3826834323650909,-17.923879532511286 L 0.7653668647301808,-18.847759065022572 L 1.1480502970952706,-19.771638597533858 L 1.8551570782818183,-20.478745378720404 L 2.562263859468366,-21.18585215990695 M 1.1480502970952706,-19.771638597533858 " />
        <path style="stroke-linecap:square;fill:none;stroke-width:0.1px;stroke:#50514F" d="M 1.1480502970952706,-19.771638597533858 L 1.1480502970952706,-20.771638597533858 L 1.1480502970952706,-21.771638597533858 L 1.1480502970952706,-22.771638597533858 L 1.5307337294603605,-23.695518130045144 L 1.9134171618254503,-24.61939766255643 M 1.1480502970952706,-22.771638597533858 " />
        <path style="stroke-linecap:square;fill:none;stroke-width:0.1px;stroke:#50514F" d="M 1.1480502970952706,-22.771638597533858 M 1.1480502970952706,-19.771638597533858 " />
        <path style="stroke-linecap:square;fill:none;stroke-width:0.1px;stroke:#50514F" d="M 1.1480502970952706,-19.771638597533858 L 1.5307337294603605,-20.695518130045144 M 1.0409497792752501e-15,-17.0 " />
        <path style="stroke-linecap:square;fill:none;stroke-width:0.1px;stroke:#50514F" d="M 1.0409497792752501e-15,-17.0 L 1.1021821192326177e-15,-18.0 L 1.1634144591899853e-15,-19.0 L 0.382683432365091,-19.923879532511286 L 0.7653668647301808,-20.847759065022572 M 1.1634144591899853e-15,-19.0 " />
        <path style="stroke-linecap:square;fill:none;stroke-width:0.1px;stroke:#50514F" d="M 1.1634144591899853e-15,-19.0 L 1.2246467991473529e-15,-20.0 L -0.3826834323650885,-20.923879532511286 L -0.7653668647301782,-21.847759065022572 L -0.7653668647301781,-22.847759065022572 L -0.7653668647301781,-23.847759065022572 M -0.7653668647301782,-21.847759065022572 " />
        <path style="stroke-linecap:square;fill:none;stroke-width:0.1px;stroke:#50514F" d="M -0.7653668647301782,-21.847759065022572 L -1.148050297095268,-22.771638597533858 M 1.2246467991473529e-15,-20.0 " />
        <path style="stroke-linecap:square;fill:none;stroke-width:0.1px;stroke:#50514F" d="M 1.2246467991473529e-15,-20.0 L -0.3826834323650885,-20.923879532511286 L -0.7653668647301782,-21.847759065022572 L -0.7653668647301781,-22.847759065022572 L -0.7653668647301781,-23.847759065022572 M -0.7653668647301782,-21.847759065022572 " />
        <path style="stroke-linecap:square;fill:none;stroke-width:0.1px;stroke:#50514F" d="M -0.7653668647301782,-21.847759065022572 L -1.148050297095268,-22.771638597533858 L -1.5307337294603576,-23.695518130045144 L -1.9134171618254472,-24.61939766255643 L -2.6205239430119946,-25.326504443742976 L -3.327630724198542,-26.033611224929523 M -1.9134171618254472,-24.61939766255643 " />
        <path style="stroke-linecap:square;fill:none;stroke-width:0.1px;stroke:#50514F" d="M -1.9134171618254472,-24.61939766255643 L -1.9134171618254472,-25.61939766255643 L -1.9134171618254472,-26.61939766255643 L -1.9134171618254472,-27.61939766255643 L -2.296100594190537,-28.543277195067716 L -2.6787840265556264,-29.467156727579003 M -1.9134171618254472,-27.61939766255643 " />
        <path style="stroke-linecap:square;fill:none;stroke-width:0.1px;stroke:#50514F" d="M -1.9134171618254472,-27.61939766255643 M -1.9134171618254472,-24.61939766255643 " />
        <path style="stroke-linecap:square;fill:none;stroke-width:0.1px;stroke:#50514F" d="M -1.9134171618254472,-24.61939766255643 L -2.296100594190537,-25.543277195067716 M 1.2246467991473529e-15,-20.0 " />
        <path style="stroke-linecap:square;fill:none;stroke-width:0.1px;stroke:#50514F" d="M 1.2246467991473529e-15,-20.0 L 1.2858791391047204e-15,-21.0 L 1.347111479062088e-15,-22.0 L -0.3826834323650884,-22.923879532511286 L -0.7653668647301781,-23.847759065022572 M 1.347111479062088e-15,-22.0 " />
        <path style="stroke-linecap:square;fill:none;stroke-width:0.1px;stroke:#50514F" d="M 1.347111479062088e-15,-22.0 L 1.4083438190194556e-15,-23.0 L 0.3826834323650912,-23.923879532511286 L 0.765366864730181,-24.847759065022572 L 0.765366864730181,-25.847759065022572 L 0.765366864730181,-26.847759065022572 M 0.765366864730181,-24.847759065022572 " />
        <path style="stroke-linecap:square;fill:none;stroke-width:0.1px;stroke:#50514F" d="M 0.765366864730181,-24.847759065022572 L 1.1480502970952708,-25.771638597533858 M 1.4083438190194556e-15,-23.0 " />
        <path style="stroke-linecap:square;fill:none;stroke-width:0.1px;stroke:#50514F" d="M 1.4083438190194556e-15,-23.0 L 0.3826834323650912,-23.923879532511286 L 0.765366864730181,-24.847759065022572 L 0.765366864730181,-25.847759065022572 L 0.765366864730181,-26.847759065022572 M 0.765366864730181,-24.847759065022572 " />
        <path style="stroke-linecap:square;fill:none;stroke-width:0.1px;stroke:#50514F" d="M 0.765366864730181,-24.847759065022572 L 1.1480502970952708,-25.771638597533858 L 1.5307337294603607,-26.695518130045144 L 1.9134171618254505,-27.61939766255643 L 1.9134171618254505,-28.61939766255643 L 1.9134171618254505,-29.61939766255643 M 1.9134171618254505,-27.61939766255643 " />
        <path style="stroke-linecap:square;fill:none;stroke-width:0.1px;stroke:#50514F" d="M 1.9134171618254505,-27.61939766255643 L 2.620523943011998,-28.326504443742976 L 3.3276307241985457,-29.033611224929523 L 4.034737505385094,-29.74071800611607 M 1.9134171618254505,-27.61939766255643 " />
        <path style="stroke-linecap:square;fill:none;stroke-width:0.1px;stroke:#50514F" d="M 1.9134171618254505,-27.61939766255643 L 1.9134171618254505,-28.61939766255643 L 1.9134171618254505,-29.61939766255643 L 1.9134171618254505,-30.61939766255643 L 2.2961005941905404,-31.543277195067716 L 2.67878402655563,-32.467156727579 M 1.9134171618254505,-30.61939766255643 " />
        <path style="stroke-linecap:square;fill:none;stroke-width:0.1px;stroke:#50514F" d="M 1.9134171618254505,-30.61939766255643 M 1.9134171618254505,-27.61939766255643 " />
        <path style="stroke-linecap:square;fill:none;stroke-width:0.1px;stroke:#50514F" d="M 1.9134171618254505,-27.61939766255643 L 2.2961005941905404,-28.543277195067716 L 3.0032073753770883,-29.250383976254263 L 3.710314156563636,-29.95749075744081 L 4.634193689074923,-30.3401741898059 L 5.55807322158621,-30.72285762217099 M 3.710314156563636,-29.95749075744081 " />
        <path style="stroke-linecap:square;fill:none;stroke-width:0.1px;stroke:#50514F" d="M 3.710314156563636,-29.95749075744081 L 4.417420937750184,-30.664597538627355 L 4.800104370115274,-31.58847707113864 L 5.182787802480363,-32.51235660364993 L 5.889894583666911,-33.21946338483647 L 6.597001364853459,-33.92657016602302 M 5.182787802480363,-32.51235660364993 " />
        <path style="stroke-linecap:square;fill:none;stroke-width:0.1px;stroke:#50514F" d="M 5.182787802480363,-32.51235660364993 L 5.565471234845453,-33.43623613616121 M 4.417420937750184,-30.664597538627355 " />
        <path style="stroke-linecap:square;fill:none;stroke-width:0.1px;stroke:#50514F" d="M 4.417420937750184,-30.664597538627355 L 5.124527718936732,-31.3717043198139 L 5.83163450012328,-32.07881110100045 L 6.755514032634567,-32.46149453336554 L 7.679393565145854,-32.84417796573063 M 5.83163450012328,-32.07881110100045 " />
        <path style="stroke-linecap:square;fill:none;stroke-width:0.1px;stroke:#50514F" d="M 5.83163450012328,-32.07881110100045 L 6.755514032634567,-32.46149453336554 L 7.679393565145854,-32.84417796573063 L 8.60327309765714,-33.22686139809572 L 9.60327309765714,-33.22686139809572 L 10.60327309765714,-33.22686139809572 M 8.60327309765714,-33.22686139809572 " />
        <path style="stroke-linecap:square;fill:none;stroke-width:0.1px;stroke:#50514F" d="M 8.60327309765714,-33.22686139809572 L 9.310379878843689,-33.93396817928227 L 10.017486660030237,-34.64107496046881 L 10.724593441216784,-35.34818174165536 L 11.64847297372807,-35.73086517402045 L 12.572352506239357,-36.11354860638554 M 10.724593441216784,-35.34818174165536 " />
        <path style="stroke-linecap:square;fill:none;stroke-width:0.1px;stroke:#50514F" d="M 10.724593441216784,-35.34818174165536 M 8.60327309765714,-33.22686139809572 " />
        <path style="stroke-linecap:square;fill:none;stroke-width:0.1px;stroke:#50514F" d="M 8.60327309765714,-33.22686139809572 L 9.527152630168427,-33.60954483046081 L 10.527152630168427,-33.60954483046081 L 11.527152630168427,-33.60954483046081 L 12.451032162679713,-33.22686139809572 L 13.374911695190999,-32.84417796573063 M 11.527152630168427,-33.60954483046081 " />
        <path style="stroke-linecap:square;fill:none;stroke-width:0.1px;stroke:#50514F" d="M 11.527152630168427,-33.60954483046081 L 12.527152630168427,-33.60954483046081 L 13.451032162679713,-33.992228262825904 L 14.374911695190999,-34.374911695190995 L 15.298791227702285,-34.75759512755609 M 12.527152630168427,-33.60954483046081 " />
        <path style="stroke-linecap:square;fill:none;stroke-width:0.1px;stroke:#50514F" d="M 12.527152630168427,-33.60954483046081 L 13.527152630168427,-33.60954483046081 L 14.451032162679713,-33.22686139809572 L 15.374911695190999,-32.84417796573063 L 16.374911695191,-32.84417796573063 L 17.374911695191,-32.84417796573063 M 15.374911695190999,-32.84417796573063 " />
        <path style="stroke-linecap:square;fill:none;stroke-width:0.1px;stroke:#50514F" d="M 15.374911695190999,-32.84417796573063 L 16.298791227702285,-32.46149453336554 L 17.00589800888883,-31.754387752178992 L 17.713004790075377,-31.047280970992446 L 18.636884322586663,-30.664597538627355 L 19.56076385509795,-30.281914106262263 M 17.713004790075377,-31.047280970992446 " />
        <path style="stroke-linecap:square;fill:none;stroke-width:0.1px;stroke:#50514F" d="M 17.713004790075377,-31.047280970992446 L 18.420111571261923,-30.3401741898059 L 18.80279500362701,-29.416294657294614 L 19.1854784359921,-28.492415124783328 L 19.892585217178645,-27.785308343596782 L 20.59969199836519,-27.078201562410236 M 19.1854784359921,-28.492415124783328 " />
        <path style="stroke-linecap:square;fill:none;stroke-width:0.1px;stroke:#50514F" d="M 19.1854784359921,-28.492415124783328 L 19.568161868357187,-27.568535592272042 L 19.568161868357187,-26.568535592272042 L 19.568161868357187,-25.568535592272042 L 19.950845300722275,-24.644656059760756 L 20.333528733087363,-23.72077652724947 M 19.568161868357187,-25.568535592272042 " />
        <path style="stroke-linecap:square;fill:none;stroke-width:0.1px;stroke:#50514F" d="M 19.568161868357187,-25.568535592272042 L 19.568161868357187,-24.568535592272042 L 19.185478435992096,-23.644656059760756 L 18.802795003627004,-22.72077652724947 L 18.802795003627004,-21.72077652724947 L 18.802795003627004,-20.72077652724947 M 18.802795003627004,-22.72077652724947 " />
        <path style="stroke-linecap:square;fill:none;stroke-width:0.1px;stroke:#50514F" d="M 18.802795003627004,-22.72077652724947 L 18.420111571261913,-21.796896994738184 L 17.713004790075367,-21.089790213551638 L 17.00589800888882,-20.38268343236509 L 16.62321457652373,-19.458803899853805 L 16.240531144158638,-18.53492436734252 M 17.00589800888882,-20.38268343236509 " />
        <path style="stroke-linecap:square;fill:none;stroke-width:0.1px;stroke:#50514F" d="M 17.00589800888882,-20.38268343236509 L 16.298791227702274,-19.675576651178545 L 15.374911695190988,-19.292893218813457 L 14.451032162679702,-18.91020978644837 L 13.743925381493154,-18.203103005261823 L 13.036818600306606,-17.495996224075277 M 14.451032162679702,-18.91020978644837 " />
        <path style="stroke-linecap:square;fill:none;stroke-width:0.1px;stroke:#50514F" d="M 14.451032162679702,-18.91020978644837 L 13.527152630168416,-18.52752635408328 L 12.527152630168416,-18.52752635408328 L 11.527152630168416,-18.52752635408328 L 10.527152630168416,-18.52752635408328 L 9.60327309765713,-18.910209786448373 L 8.679393565145844,-19.292893218813465 L 7.972286783959297,-20.00000000000001 L 7.26518000277275,-20.707106781186557 M 8.679393565145844,-19.292893218813465 " />
        <path style="stroke-linecap:square;fill:none;stroke-width:0.1px;stroke:#50514F" d="M 8.679393565145844,-19.292893218813465 M 10.527152630168416,-18.52752635408328 " />
        <path style="stroke-linecap:square;fill:none;stroke-width:0.1px;stroke:#50514F" d="M 10.527152630168416,-18.52752635408328 M 13.527152630168416,-18.52752635408328 " />
        <path style="stroke-linecap:square;fill:none;stroke-width:0.1px;stroke:#50514F" d="M 13.527152630168416,-18.52752635408328 M 16.298791227702274,-19.675576651178545 " />
        <path style="stroke-linecap:square;fill:none;stroke-width:0.1px;stroke:#50514F" d="M 16.298791227702274,-19.675576651178545 M 18.420111571261913,-21.796896994738184 " />
        <path style="stroke-linecap:square;fill:none;stroke-width:0.1px;stroke:#50514F" d="M 18.420111571261913,-21.796896994738184 M 19.568161868357187,-24.568535592272042 " />
        <path style="stroke-linecap:square;fill:none;stroke-width:0.1px;stroke:#50514F" d="M 19.568161868357187,-24.568535592272042 M 19.568161868357187,-27.568535592272042 " />
        <path style="stroke-linecap:square;fill:none;stroke-width:0.1px;stroke:#50514F" d="M 19.568161868357187,-27.568535592272042 M 18.420111571261923,-30.3401741898059 " />
        <path style="stroke-linecap:square;fill:none;stroke-width:0.1px;stroke:#50514F" d="M 18.420111571261923,-30.3401741898059 M 16.298791227702285,-32.46149453336554 " />
        <path style="stroke-linecap:square;fill:none;stroke-width:0.1px;stroke:#50514F" d="M 16.298791227702285,-32.46149453336554 M 13.527152630168427,-33.60954483046081 " />
        <path style="stroke-linecap:square;fill:none;stroke-width:0.1px;stroke:#50514F" d="M 13.527152630168427,-33.60954483046081 M 9.527152630168427,-33.60954483046081 " />
        <path style="stroke-linecap:square;fill:none;stroke-width:0.1px;stroke:#50514F" d="M 9.527152630168427,-33.60954483046081 M 5.83163450012328,-32.07881110100045 " />
        <path style="stroke-linecap:square;fill:none;stroke-width:0.1px;stroke:#50514F" d="M 5.83163450012328,-32.07881110100045 M 2.2961005941905404,-28.543277195067716 " />
        <path style="stroke-linecap:square;fill:none;stroke-width:0.1px;stroke:#50514F" d="M 2.2961005941905404,-28.543277195067716 M 1.4083438190194556e-15,-23.0 " />
        <path style="stroke-linecap:square;fill:none;stroke-width:0.1px;stroke:#50514F" d="M 1.4083438190194556e-15,-23.0 L 1.4695761589768232e-15,-24.0 " />
    </g>
</svg>
