<?xml version="1.0" encoding="UTF-8"?>
<!DOCTYPE svg PUBLIC "-//W3C//DTD SVG 1.1//EN"
    "http://www.w3.org/Graphics/SVG/1.1/DTD/svg11.dtd">
<svg xmlns="http://www.w3.org/2000/svg" xmlns:xlink="http://www.w3.org/1999/xlink" version="1.1" width="224.06070946840373" height="500" viewBox="-9.413346544636692 -34.1 16.670116784449238 37.2"><g><rect x="-9.413346544636692" y="-34.1" width="16.670116784449238" height="37.2" fill="#CBD4C2" /><path d="M 0,0 l -1.8369701987210297e-16,-1.0 l 0.34202014332566816,-0.9396926207859085 m -0.34202014332566816,0.9396926207859084 l -1.8369701987210297e-16,-1.0 l -0.34202014332566855,-0.9396926207859084 m 0.34202014332566855,0.9396926207859084 l -1.8369701987210297e-16,-1.0 m 1.8369701987210302e-16,1.0 l 0.34202014332566816,-0.9396926207859085 l 0.6427876096865386,-0.7660444431189787 m -0.6427876096865386,0.7660444431189788 l 0.34202014332566816,-0.9396926207859085 l -1.8369701987210297e-16,-1.0 m 2.220446049250313e-16,1.0 l 0.34202014332566816,-0.9396926207859085 m -0.3420201433256682,0.9396926207859089 m -0.6840402866513363,1.8793852415718169 l -1.8369701987210297e-16,-1.0 l 0.34202014332566816,-0.9396926207859085 m -0.34202014332566816,0.9396926207859084 l -1.8369701987210297e-16,-1.0 l -0.34202014332566855,-0.9396926207859084 m 0.34202014332566855,0.9396926207859089 l -1.8369701987210297e-16,-1.0 m 1.8369701987210292e-16,1.0 l -0.34202014332566855,-0.9396926207859084 l -1.8369701987210297e-16,-1.0 m 1.6653345369377348e-16,1.0 l -0.34202014332566855,-0.9396926207859084 l -0.6427876096865388,-0.7660444431189785 m 0.6427876096865388,0.7660444431189788 l -0.34202014332566855,-0.9396926207859084 m 0.34202014332566844,0.9396926207859089 m 0.684040286651337,1.8793852415718177 l -1.8369701987210297e-16,-1.0 l 0.34202014332566816,-0.9396926207859085 m -0.34202014332566816,0.9396926207859089 l -1.8369701987210297e-16,-1.0 l -0.34202014332566855,-0.9396926207859084 m 0.34202014332566855,0.9396926207859089 l -1.8369701987210297e-16,-1.0 m 1.8369701987210292e-16,1.0 m 3.6739403974420584e-16,2.0 l 0.34202014332566816,-0.9396926207859085 l 0.6427876096865386,-0.7660444431189787 m -0.6427876096865386,0.7660444431189788 l 0.34202014332566816,-0.9396926207859085 l -1.8369701987210297e-16,-1.0 m 2.220446049250313e-16,1.0 l 0.34202014332566816,-0.9396926207859085 m -0.3420201433256682,0.9396926207859089 l 0.6427876096865386,-0.7660444431189787 l 0.8660254037844379,-0.5000000000000012 m -0.8660254037844382,0.5000000000000009 l 0.6427876096865386,-0.7660444431189787 l 0.34202014332566816,-0.9396926207859085 m -0.342020143325668,0.9396926207859089 l 0.6427876096865386,-0.7660444431189787 m -0.6427876096865388,0.7660444431189788 m -1.2855752193730772,1.5320888862379576 l 0.34202014332566816,-0.9396926207859085 l 0.6427876096865386,-0.7660444431189787 m -0.6427876096865386,0.7660444431189788 l 0.34202014332566816,-0.9396926207859085 l -1.8369701987210297e-16,-1.0 m 2.220446049250313e-16,1.0 l 0.34202014332566816,-0.9396926207859085 m -0.3420201433256682,0.9396926207859089 l -1.8369701987210297e-16,-1.0 l 0.34202014332566816,-0.9396926207859085 m -0.3420201433256682,0.9396926207859089 l -1.8369701987210297e-16,-1.0 l -0.34202014332566855,-0.9396926207859084 m 0.34202014332566844,0.9396926207859089 l -1.8369701987210297e-16,-1.0 m 2.220446049250313e-16,1.0 m 4.440892098500626e-16,2.0 l 0.34202014332566816,-0.9396926207859085 l 0.6427876096865386,-0.7660444431189787 m -0.6427876096865386,0.7660444431189788 l 0.34202014332566816,-0.9396926207859085 l -1.8369701987210297e-16,-1.0 m 0.0,1.0 l 0.34202014332566816,-0.9396926207859085 m -0.342020143325668,0.9396926207859089 m -0.6840402866513364,1.8793852415718177 m -1.3680805733026726,3.7587704831436355 l -1.8369701987210297e-16,-1.0 l 0.34202014332566816,-0.9396926207859085 m -0.34202014332566816,0.9396926207859089 l -1.8369701987210297e-16,-1.0 l -0.34202014332566855,-0.9396926207859084 m 0.34202014332566855,0.9396926207859089 l -1.8369701987210297e-16,-1.0 m 1.8369701987210292e-16,1.0 l 0.34202014332566816,-0.9396926207859085 l 0.6427876096865386,-0.7660444431189787 m -0.6427876096865386,0.7660444431189788 l 0.34202014332566816,-0.9396926207859085 l -1.8369701987210297e-16,-1.0 m 2.220446049250313e-16,1.0 l 0.34202014332566816,-0.9396926207859085 m -0.3420201433256681,0.9396926207859089 m -0.6840402866513363,1.8793852415718177 l -1.8369701987210297e-16,-1.0 l 0.34202014332566816,-0.9396926207859085 m -0.34202014332566816,0.9396926207859089 l -1.8369701987210297e-16,-1.0 l -0.34202014332566855,-0.9396926207859084 m 0.34202014332566855,0.9396926207859089 l -1.8369701987210297e-16,-1.0 m 1.8369701987210292e-16,1.0 l -0.34202014332566855,-0.9396926207859084 l -1.8369701987210297e-16,-1.0 m 1.6653345369377348e-16,1.0 l -0.34202014332566855,-0.9396926207859084 l -0.6427876096865388,-0.7660444431189785 m 0.6427876096865389,0.7660444431189788 l -0.34202014332566855,-0.9396926207859084 m 0.34202014332566855,0.9396926207859089 m 0.6840402866513371,1.8793852415718177 l -1.8369701987210297e-16,-1.0 l 0.34202014332566816,-0.9396926207859085 m -0.34202014332566816,0.9396926207859089 l -1.8369701987210297e-16,-1.0 l -0.34202014332566855,-0.9396926207859084 m 0.34202014332566855,0.9396926207859089 l -1.8369701987210297e-16,-1.0 m 1.8369701987210312e-16,1.0 m 3.6739403974420604e-16,2.0 l -0.34202014332566855,-0.9396926207859084 l -1.8369701987210297e-16,-1.0 m 1.6653345369377348e-16,1.0 l -0.34202014332566855,-0.9396926207859084 l -0.6427876096865388,-0.7660444431189785 m 0.6427876096865389,0.7660444431189788 l -0.34202014332566855,-0.9396926207859084 m 0.34202014332566855,0.9396926207859089 l -1.8369701987210297e-16,-1.0 l 0.34202014332566816,-0.9396926207859085 m -0.34202014332566816,0.9396926207859089 l -1.8369701987210297e-16,-1.0 l -0.34202014332566855,-0.9396926207859084 m 0.34202014332566855,0.9396926207859089 l -1.8369701987210297e-16,-1.0 m 2.220446049250313e-16,1.0 m 4.440892098500626e-16,2.0 l -0.34202014332566855,-0.9396926207859084 l -1.8369701987210297e-16,-1.0 m 2.220446049250313e-16,1.0 l -0.34202014332566855,-0.9396926207859084 l -0.6427876096865388,-0.7660444431189785 m 0.6427876096865388,0.7660444431189788 l -0.34202014332566855,-0.9396926207859084 m 0.34202014332566844,0.9396926207859089 l -0.6427876096865388,-0.7660444431189785 l -0.34202014332566855,-0.9396926207859084 m 0.34202014332566844,0.9396926207859089 l -0.6427876096865388,-0.7660444431189785 l -0.8660254037844384,-0.5000000000000006 m 0.8660254037844384,0.5 l -0.6427876096865388,-0.7660444431189785 m 0.6427876096865388,0.7660444431189788 m 1.2855752193730776,1.5320888862379576 l -0.34202014332566855,-0.9396926207859084 l -1.8369701987210297e-16,-1.0 m 2.220446049250313e-16,1.0 l -0.34202014332566855,-0.9396926207859084 l -0.6427876096865388,-0.7660444431189785 m 0.6427876096865388,0.7660444431189788 l -0.34202014332566855,-0.9396926207859084 m 0.34202014332566844,0.9396926207859089 m 0.6840402866513369,1.8793852415718177 m 1.368080573302674,3.7587704831436355 l -1.8369701987210297e-16,-1.0 l 0.34202014332566816,-0.9396926207859085 m -0.34202014332566816,0.9396926207859089 l -1.8369701987210297e-16,-1.0 l -0.34202014332566855,-0.9396926207859084 m 0.34202014332566855,0.9396926207859089 l -1.8369701987210297e-16,-1.0 m 1.8369701987210312e-16,1.0 l 0.34202014332566816,-0.9396926207859085 l 0.6427876096865386,-0.7660444431189787 m -0.6427876096865386,0.7660444431189788 l 0.34202014332566816,-0.9396926207859085 l -1.8369701987210297e-16,-1.0 m 2.220446049250313e-16,1.0 l 0.34202014332566816,-0.9396926207859085 m -0.3420201433256682,0.9396926207859089 m -0.6840402866513363,1.8793852415718177 l -1.8369701987210297e-16,-1.0 l 0.34202014332566816,-0.9396926207859085 m -0.34202014332566816,0.9396926207859089 l -1.8369701987210297e-16,-1.0 l -0.34202014332566855,-0.9396926207859084 m 0.34202014332566855,0.9396926207859089 l -1.8369701987210297e-16,-1.0 m 1.8369701987210312e-16,1.0 l -0.34202014332566855,-0.9396926207859084 l -1.8369701987210297e-16,-1.0 m 1.6653345369377348e-16,1.0 l -0.34202014332566855,-0.9396926207859084 l -0.6427876096865388,-0.7660444431189785 m 0.6427876096865388,0.7660444431189788 l -0.34202014332566855,-0.9396926207859084 m 0.34202014332566866,0.9396926207859089 m 0.6840402866513371,1.8793852415718177 l -1.8369701987210297e-16,-1.0 l 0.34202014332566816,-0.9396926207859085 m -0.34202014332566816,0.9396926207859089 l -1.8369701987210297e-16,-1.0 l -0.34202014332566855,-0.9396926207859084 m 0.34202014332566855,0.9396926207859089 l -1.8369701987210297e-16,-1.0 m 1.8369701987210312e-16,1.0 m 3.6739403974420623e-16,2.0 m 7.347880794884123e-16,4.0 l 0.34202014332566816,-0.9396926207859085 l 0.6427876096865386,-0.7660444431189787 m -0.6427876096865386,0.7660444431189788 l 0.34202014332566816,-0.9396926207859085 l -1.8369701987210297e-16,-1.0 m 2.220446049250313e-16,1.0 l 0.34202014332566816,-0.9396926207859085 m -0.3420201433256682,0.9396926207859089 l 0.6427876096865386,-0.7660444431189787 l 0.8660254037844379,-0.5000000000000012 m -0.8660254037844379,0.5000000000000018 l 0.6427876096865386,-0.7660444431189787 l 0.34202014332566816,-0.9396926207859085 m -0.3420201433256682,0.9396926207859089 l 0.6427876096865386,-0.7660444431189787 m -0.6427876096865386,0.7660444431189788 m -1.2855752193730772,1.5320888862379576 l 0.34202014332566816,-0.9396926207859085 l 0.6427876096865386,-0.7660444431189787 m -0.6427876096865386,0.7660444431189788 l 0.34202014332566816,-0.9396926207859085 l -1.8369701987210297e-16,-1.0 m 2.220446049250313e-16,1.0 l 0.34202014332566816,-0.9396926207859085 m -0.3420201433256682,0.9396926207859089 l -1.8369701987210297e-16,-1.0 l 0.34202014332566816,-0.9396926207859085 m -0.3420201433256682,0.9396926207859089 l -1.8369701987210297e-16,-1.0 l -0.34202014332566855,-0.9396926207859084 m 0.34202014332566866,0.9396926207859089 l -1.8369701987210297e-16,-1.0 m 2.220446049250313e-16,1.0 m 4.440892098500626e-16,2.0 l 0.34202014332566816,-0.9396926207859085 l 0.6427876096865386,-0.7660444431189787 m -0.6427876096865388,0.7660444431189788 l 0.34202014332566816,-0.9396926207859085 l -1.8369701987210297e-16,-1.0 m 0.0,1.0 l 0.34202014332566816,-0.9396926207859085 m -0.342020143325668,0.9396926207859089 m -0.6840402866513362,1.8793852415718177 l 0.6427876096865386,-0.7660444431189787 l 0.8660254037844379,-0.5000000000000012 m -0.8660254037844379,0.5000000000000018 l 0.6427876096865386,-0.7660444431189787 l 0.34202014332566816,-0.9396926207859085 m -0.342020143325668,0.9396926207859089 l 0.6427876096865386,-0.7660444431189787 m -0.6427876096865388,0.7660444431189788 l 0.8660254037844379,-0.5000000000000012 l 0.9848077530122078,-0.17364817766693214 m -0.9848077530122077,0.17364817766693186 l 0.8660254037844379,-0.5000000000000012 l 0.6427876096865386,-0.7660444431189787 m -0.6427876096865388,0.7660444431189788 l 0.8660254037844379,-0.5000000000000012 m -0.8660254037844375,0.5000000000000018 m -1.7320508075688759,1.0000000000000036 l 0.6427876096865386,-0.7660444431189787 l 0.8660254037844379,-0.5000000000000012 m -0.8660254037844375,0.5000000000000018 l 0.6427876096865386,-0.7660444431189787 l 0.34202014332566816,-0.9396926207859085 m -0.34202014332566844,0.9396926207859089 l 0.6427876096865386,-0.7660444431189787 m -0.6427876096865388,0.7660444431189788 l 0.34202014332566816,-0.9396926207859085 l 0.6427876096865386,-0.7660444431189787 m -0.6427876096865388,0.7660444431189788 l 0.34202014332566816,-0.9396926207859085 l -1.8369701987210297e-16,-1.0 m 0.0,1.0 l 0.34202014332566816,-0.9396926207859085 m -0.34202014332566844,0.9396926207859089 m -0.6840402866513369,1.8793852415718177 l 0.6427876096865386,-0.7660444431189787 l 0.8660254037844379,-0.5000000000000012 m -0.8660254037844375,0.5 l 0.6427876096865386,-0.7660444431189787 l 0.34202014332566816,-0.9396926207859085 m -0.34202014332566844,0.9396926207859089 l 0.6427876096865386,-0.7660444431189787 m -0.6427876096865388,0.7660444431189788 m -1.2855752193730776,1.5320888862379576 m -2.5711504387461552,3.064177772475915 l 0.34202014332566816,-0.9396926207859085 l 0.6427876096865386,-0.7660444431189787 m -0.6427876096865388,0.7660444431189788 l 0.34202014332566816,-0.9396926207859085 l -1.8369701987210297e-16,-1.0 m 0.0,1.0 l 0.34202014332566816,-0.9396926207859085 m -0.342020143325668,0.9396926207859089 l 0.6427876096865386,-0.7660444431189787 l 0.8660254037844379,-0.5000000000000012 m -0.8660254037844379,0.5000000000000018 l 0.6427876096865386,-0.7660444431189787 l 0.34202014332566816,-0.9396926207859085 m -0.342020143325668,0.9396926207859089 l 0.6427876096865386,-0.7660444431189787 m -0.6427876096865388,0.7660444431189788 m -1.2855752193730772,1.5320888862379576 l 0.34202014332566816,-0.9396926207859085 l 0.6427876096865386,-0.7660444431189787 m -0.6427876096865388,0.7660444431189788 l 0.34202014332566816,-0.9396926207859085 l -1.8369701987210297e-16,-1.0 m 0.0,1.0 l 0.34202014332566816,-0.9396926207859085 m -0.342020143325668,0.9396926207859089 l -1.8369701987210297e-16,-1.0 l 0.34202014332566816,-0.9396926207859085 m -0.342020143325668,0.9396926207859089 l -1.8369701987210297e-16,-1.0 l -0.34202014332566855,-0.9396926207859084 m 0.34202014332566844,0.9396926207859089 l -1.8369701987210297e-16,-1.0 m 0.0,1.0 m 0.0,2.0 l 0.34202014332566816,-0.9396926207859085 l 0.6427876096865386,-0.7660444431189787 m -0.6427876096865388,0.7660444431189788 l 0.34202014332566816,-0.9396926207859085 l -1.8369701987210297e-16,-1.0 m 0.0,1.0 l 0.34202014332566816,-0.9396926207859085 m -0.342020143325668,0.9396926207859089 m -0.684040286651336,1.8793852415718177 l -1.8369701987210297e-16,-1.0 l 0.34202014332566816,-0.9396926207859085 m -0.342020143325668,0.9396926207859089 l -1.8369701987210297e-16,-1.0 l -0.34202014332566855,-0.9396926207859084 m 0.34202014332566844,0.9396926207859089 l -1.8369701987210297e-16,-1.0 m 0.0,1.0 l 0.34202014332566816,-0.9396926207859085 l 0.6427876096865386,-0.7660444431189787 m -0.6427876096865388,0.7660444431189788 l 0.34202014332566816,-0.9396926207859085 l -1.8369701987210297e-16,-1.0 m 0.0,1.0 l 0.34202014332566816,-0.9396926207859085 m -0.342020143325668,0.9396926207859089 m -0.684040286651336,1.8793852415718177 l -1.8369701987210297e-16,-1.0 l 0.34202014332566816,-0.9396926207859085 m -0.342020143325668,0.9396926207859089 l -1.8369701987210297e-16,-1.0 l -0.34202014332566855,-0.9396926207859084 m 0.34202014332566844,0.9396926207859089 l -1.8369701987210297e-16,-1.0 m 0.0,1.0 l -0.34202014332566855,-0.9396926207859084 l -1.8369701987210297e-16,-1.0 m 0.0,1.0 l -0.34202014332566855,-0.9396926207859084 l -0.6427876096865388,-0.7660444431189785 m 0.6427876096865388,0.7660444431189788 l -0.34202014332566855,-0.9396926207859084 m 0.34202014332566844,0.9396926207859089 m 0.6840402866513369,1.8793852415718177 l -1.8369701987210297e-16,-1.0 l 0.34202014332566816,-0.9396926207859085 m -0.342020143325668,0.9396926207859089 l -1.8369701987210297e-16,-1.0 l -0.34202014332566855,-0.9396926207859084 m 0.34202014332566844,0.9396926207859089 l -1.8369701987210297e-16,-1.0 m 0.0,1.0 m 0.0,2.0 m 0.0,4.0 l 0.34202014332566816,-0.9396926207859085 l 0.6427876096865386,-0.7660444431189787 m -0.6427876096865388,0.7660444431189788 l 0.34202014332566816,-0.9396926207859085 l -1.8369701987210297e-16,-1.0 m 0.0,1.0 l 0.34202014332566816,-0.9396926207859085 m -0.342020143325668,0.9396926207859089 l 0.6427876096865386,-0.7660444431189787 l 0.8660254037844379,-0.5000000000000012 m -0.8660254037844384,0.5 l 0.6427876096865386,-0.7660444431189787 l 0.34202014332566816,-0.9396926207859085 m -0.34202014332566844,0.9396926207859089 l 0.6427876096865386,-0.7660444431189787 m -0.6427876096865388,0.7660444431189788 m -1.2855752193730772,1.5320888862379576 l 0.34202014332566816,-0.9396926207859085 l 0.6427876096865386,-0.7660444431189787 m -0.6427876096865388,0.7660444431189788 l 0.34202014332566816,-0.9396926207859085 l -1.8369701987210297e-16,-1.0 m 0.0,1.0 l 0.34202014332566816,-0.9396926207859085 m -0.34202014332566844,0.9396926207859089 l -1.8369701987210297e-16,-1.0 l 0.34202014332566816,-0.9396926207859085 m -0.34202014332566844,0.9396926207859089 l -1.8369701987210297e-16,-1.0 l -0.34202014332566855,-0.9396926207859084 m 0.34202014332566844,0.9396926207859089 l -1.8369701987210297e-16,-1.0 m 0.0,1.0 m 0.0,2.0 l 0.34202014332566816,-0.9396926207859085 l 0.6427876096865386,-0.7660444431189787 m -0.6427876096865388,0.7660444431189788 l 0.34202014332566816,-0.9396926207859085 l -1.8369701987210297e-16,-1.0 m 0.0,1.0 l 0.34202014332566816,-0.9396926207859085 m -0.34202014332566844,0.9396926207859089 m -0.6840402866513369,1.8793852415718177 m -1.3680805733026724,3.7587704831436355 m -2.736161146605345,7.517540966287271 l -1.8369701987210297e-16,-1.0 l 0.34202014332566816,-0.9396926207859085 m -0.34202014332566816,0.9396926207859089 l -1.8369701987210297e-16,-1.0 l -0.34202014332566855,-0.9396926207859084 m 0.34202014332566855,0.9396926207859089 l -1.8369701987210297e-16,-1.0 m 1.8369701987210312e-16,1.0 l 0.34202014332566816,-0.9396926207859085 l 0.6427876096865386,-0.7660444431189787 m -0.6427876096865386,0.7660444431189788 l 0.34202014332566816,-0.9396926207859085 l -1.8369701987210297e-16,-1.0 m 2.220446049250313e-16,1.0 l 0.34202014332566816,-0.9396926207859085 m -0.3420201433256682,0.9396926207859089 m -0.6840402866513363,1.8793852415718177 l -1.8369701987210297e-16,-1.0 l 0.34202014332566816,-0.9396926207859085 m -0.34202014332566816,0.9396926207859089 l -1.8369701987210297e-16,-1.0 l -0.34202014332566855,-0.9396926207859084 m 0.34202014332566855,0.9396926207859089 l -1.8369701987210297e-16,-1.0 m 1.8369701987210312e-16,1.0 l -0.34202014332566855,-0.9396926207859084 l -1.8369701987210297e-16,-1.0 m 1.6653345369377348e-16,1.0 l -0.34202014332566855,-0.9396926207859084 l -0.6427876096865388,-0.7660444431189785 m 0.6427876096865388,0.7660444431189788 l -0.34202014332566855,-0.9396926207859084 m 0.34202014332566866,0.9396926207859089 m 0.6840402866513371,1.8793852415718177 l -1.8369701987210297e-16,-1.0 l 0.34202014332566816,-0.9396926207859085 m -0.34202014332566816,0.9396926207859089 l -1.8369701987210297e-16,-1.0 l -0.34202014332566855,-0.9396926207859084 m 0.34202014332566855,0.9396926207859089 l -1.8369701987210297e-16,-1.0 m 1.8369701987210312e-16,1.0 m 3.6739403974420623e-16,2.0 l 0.34202014332566816,-0.9396926207859085 l 0.6427876096865386,-0.7660444431189787 m -0.6427876096865386,0.7660444431189788 l 0.34202014332566816,-0.9396926207859085 l -1.8369701987210297e-16,-1.0 m 2.220446049250313e-16,1.0 l 0.34202014332566816,-0.9396926207859085 m -0.3420201433256681,0.9396926207859089 l 0.6427876096865386,-0.7660444431189787 l 0.8660254037844379,-0.5000000000000012 m -0.8660254037844379,0.5000000000000018 l 0.6427876096865386,-0.7660444431189787 l 0.34202014332566816,-0.9396926207859085 m -0.3420201433256682,0.9396926207859089 l 0.6427876096865386,-0.7660444431189787 m -0.6427876096865386,0.7660444431189788 m -1.2855752193730772,1.5320888862379576 l 0.34202014332566816,-0.9396926207859085 l 0.6427876096865386,-0.7660444431189787 m -0.6427876096865386,0.7660444431189788 l 0.34202014332566816,-0.9396926207859085 l -1.8369701987210297e-16,-1.0 m 2.220446049250313e-16,1.0 l 0.34202014332566816,-0.9396926207859085 m -0.3420201433256682,0.9396926207859089 l -1.8369701987210297e-16,-1.0 l 0.34202014332566816,-0.9396926207859085 m -0.3420201433256682,0.9396926207859089 l -1.8369701987210297e-16,-1.0 l -0.34202014332566855,-0.9396926207859084 m 0.34202014332566866,0.9396926207859089 l -1.8369701987210297e-16,-1.0 m 2.220446049250313e-16,1.0 m 4.440892098500626e-16,2.0 l 0.34202014332566816,-0.9396926207859085 l 0.6427876096865386,-0.7660444431189787 m -0.6427876096865388,0.7660444431189788 l 0.34202014332566816,-0.9396926207859085 l -1.8369701987210297e-16,-1.0 m 0.0,1.0 l 0.34202014332566816,-0.9396926207859085 m -0.342020143325668,0.9396926207859089 m -0.6840402866513362,1.8793852415718177 m -1.3680805733026726,3.7587704831436355 l -1.8369701987210297e-16,-1.0 l 0.34202014332566816,-0.9396926207859085 m -0.34202014332566816,0.9396926207859089 l -1.8369701987210297e-16,-1.0 l -0.34202014332566855,-0.9396926207859084 m 0.34202014332566855,0.9396926207859089 l -1.8369701987210297e-16,-1.0 m 1.8369701987210312e-16,1.0 l 0.34202014332566816,-0.9396926207859085 l 0.6427876096865386,-0.7660444431189787 m -0.6427876096865386,0.7660444431189788 l 0.34202014332566816,-0.9396926207859085 l -1.8369701987210297e-16,-1.0 m 2.220446049250313e-16,1.0 l 0.34202014332566816,-0.9396926207859085 m -0.3420201433256682,0.9396926207859089 m -0.6840402866513363,1.8793852415718177 l -1.8369701987210297e-16,-1.0 l 0.34202014332566816,-0.9396926207859085 m -0.34202014332566816,0.9396926207859089 l -1.8369701987210297e-16,-1.0 l -0.34202014332566855,-0.9396926207859084 m 0.34202014332566855,0.9396926207859089 l -1.8369701987210297e-16,-1.0 m 1.8369701987210312e-16,1.0 l -0.34202014332566855,-0.9396926207859084 l -1.8369701987210297e-16,-1.0 m 1.6653345369377348e-16,1.0 l -0.34202014332566855,-0.9396926207859084 l -0.6427876096865388,-0.7660444431189785 m 0.6427876096865388,0.7660444431189788 l -0.34202014332566855,-0.9396926207859084 m 0.34202014332566844,0.9396926207859089 m 0.6840402866513371,1.8793852415718177 l -1.8369701987210297e-16,-1.0 l 0.34202014332566816,-0.9396926207859085 m -0.34202014332566816,0.9396926207859089 l -1.8369701987210297e-16,-1.0 l -0.34202014332566855,-0.9396926207859084 m 0.34202014332566855,0.9396926207859089 l -1.8369701987210297e-16,-1.0 m 1.8369701987210312e-16,1.0 m 3.6739403974420623e-16,2.0 l -0.34202014332566855,-0.9396926207859084 l -1.8369701987210297e-16,-1.0 m 1.6653345369377348e-16,1.0 l -0.34202014332566855,-0.9396926207859084 l -0.6427876096865388,-0.7660444431189785 m 0.6427876096865388,0.7660444431189788 l -0.34202014332566855,-0.9396926207859084 m 0.34202014332566844,0.9396926207859089 l -1.8369701987210297e-16,-1.0 l 0.34202014332566816,-0.9396926207859085 m -0.34202014332566816,0.9396926207859089 l -1.8369701987210297e-16,-1.0 l -0.34202014332566855,-0.9396926207859084 m 0.34202014332566844,0.9396926207859089 l -1.8369701987210297e-16,-1.0 m 2.220446049250313e-16,1.0 m 4.440892098500626e-16,2.0 l -0.34202014332566855,-0.9396926207859084 l -1.8369701987210297e-16,-1.0 m 2.220446049250313e-16,1.0 l -0.34202014332566855,-0.9396926207859084 l -0.6427876096865388,-0.7660444431189785 m 0.6427876096865388,0.7660444431189788 l -0.34202014332566855,-0.9396926207859084 m 0.34202014332566844,0.9396926207859089 l -0.6427876096865388,-0.7660444431189785 l -0.34202014332566855,-0.9396926207859084 m 0.34202014332566844,0.9396926207859089 l -0.6427876096865388,-0.7660444431189785 l -0.8660254037844384,-0.5000000000000006 m 0.8660254037844384,0.5 l -0.6427876096865388,-0.7660444431189785 m 0.6427876096865388,0.7660444431189788 m 1.2855752193730776,1.5320888862379576 l -0.34202014332566855,-0.9396926207859084 l -1.8369701987210297e-16,-1.0 m 2.220446049250313e-16,1.0 l -0.34202014332566855,-0.9396926207859084 l -0.6427876096865388,-0.7660444431189785 m 0.6427876096865388,0.7660444431189788 l -0.34202014332566855,-0.9396926207859084 m 0.34202014332566844,0.9396926207859089 m 0.6840402866513369,1.8793852415718177 m 1.368080573302674,3.7587704831436355 l -1.8369701987210297e-16,-1.0 l 0.34202014332566816,-0.9396926207859085 m -0.34202014332566816,0.9396926207859089 l -1.8369701987210297e-16,-1.0 l -0.34202014332566855,-0.9396926207859084 m 0.34202014332566855,0.9396926207859089 l -1.8369701987210297e-16,-1.0 m 1.8369701987210312e-16,1.0 l 0.34202014332566816,-0.9396926207859085 l 0.6427876096865386,-0.7660444431189787 m -0.6427876096865386,0.7660444431189788 l 0.34202014332566816,-0.9396926207859085 l -1.8369701987210297e-16,-1.0 m 2.220446049250313e-16,1.0 l 0.34202014332566816,-0.9396926207859085 m -0.3420201433256681,0.9396926207859089 m -0.6840402866513363,1.8793852415718177 l -1.8369701987210297e-16,-1.0 l 0.34202014332566816,-0.9396926207859085 m -0.34202014332566816,0.9396926207859089 l -1.8369701987210297e-16,-1.0 l -0.34202014332566855,-0.9396926207859084 m 0.34202014332566855,0.9396926207859089 l -1.8369701987210297e-16,-1.0 m 1.8369701987210272e-16,1.0 l -0.34202014332566855,-0.9396926207859084 l -1.8369701987210297e-16,-1.0 m 1.6653345369377348e-16,1.0 l -0.34202014332566855,-0.9396926207859084 l -0.6427876096865388,-0.7660444431189785 m 0.6427876096865389,0.7660444431189788 l -0.34202014332566855,-0.9396926207859084 m 0.34202014332566855,0.9396926207859089 m 0.6840402866513371,1.8793852415718177 l -1.8369701987210297e-16,-1.0 l 0.34202014332566816,-0.9396926207859085 m -0.34202014332566816,0.9396926207859089 l -1.8369701987210297e-16,-1.0 l -0.34202014332566855,-0.9396926207859084 m 0.34202014332566855,0.9396926207859089 l -1.8369701987210297e-16,-1.0 m 1.8369701987210272e-16,1.0 m 3.6739403974420544e-16,2.0 m 7.347880794884125e-16,4.0 l -0.34202014332566855,-0.9396926207859084 l -1.8369701987210297e-16,-1.0 m 1.6653345369377348e-16,1.0 l -0.34202014332566855,-0.9396926207859084 l -0.6427876096865388,-0.7660444431189785 m 0.6427876096865388,0.7660444431189788 l -0.34202014332566855,-0.9396926207859084 m 0.34202014332566844,0.9396926207859089 l -1.8369701987210297e-16,-1.0 l 0.34202014332566816,-0.9396926207859085 m -0.34202014332566816,0.9396926207859089 l -1.8369701987210297e-16,-1.0 l -0.34202014332566855,-0.9396926207859084 m 0.34202014332566844,0.9396926207859089 l -1.8369701987210297e-16,-1.0 m 2.220446049250313e-16,1.0 m 4.440892098500626e-16,2.0 l -0.34202014332566855,-0.9396926207859084 l -1.8369701987210297e-16,-1.0 m 2.220446049250313e-16,1.0 l -0.34202014332566855,-0.9396926207859084 l -0.6427876096865388,-0.7660444431189785 m 0.6427876096865388,0.7660444431189788 l -0.34202014332566855,-0.9396926207859084 m 0.34202014332566844,0.9396926207859089 l -0.6427876096865388,-0.7660444431189785 l -0.34202014332566855,-0.9396926207859084 m 0.34202014332566844,0.9396926207859089 l -0.6427876096865388,-0.7660444431189785 l -0.8660254037844384,-0.5000000000000006 m 0.8660254037844384,0.5 l -0.6427876096865388,-0.7660444431189785 m 0.6427876096865388,0.7660444431189788 m 1.2855752193730776,1.5320888862379576 l -0.34202014332566855,-0.9396926207859084 l -1.8369701987210297e-16,-1.0 m 2.220446049250313e-16,1.0 l -0.34202014332566855,-0.9396926207859084 l -0.6427876096865388,-0.7660444431189785 m 0.6427876096865388,0.7660444431189788 l -0.34202014332566855,-0.9396926207859084 m 0.34202014332566844,0.9396926207859089 m 0.6840402866513369,1.8793852415718177 l -1.8369701987210297e-16,-1.0 l 0.34202014332566816,-0.9396926207859085 m -0.3420201433256682,0.9396926207859089 l -1.8369701987210297e-16,-1.0 l -0.34202014332566855,-0.9396926207859084 m 0.34202014332566844,0.9396926207859089 l -1.8369701987210297e-16,-1.0 m 2.220446049250313e-16,1.0 l 0.34202014332566816,-0.9396926207859085 l 0.6427876096865386,-0.7660444431189787 m -0.6427876096865386,0.7660444431189788 l 0.34202014332566816,-0.9396926207859085 l -1.8369701987210297e-16,-1.0 m 2.220446049250313e-16,1.0 l 0.34202014332566816,-0.9396926207859085 m -0.34202014332566816,0.9396926207859089 m -0.6840402866513364,1.8793852415718177 l -1.8369701987210297e-16,-1.0 l 0.34202014332566816,-0.9396926207859085 m -0.3420201433256682,0.9396926207859089 l -1.8369701987210297e-16,-1.0 l -0.34202014332566855,-0.9396926207859084 m 0.34202014332566844,0.9396926207859089 l -1.8369701987210297e-16,-1.0 m 2.220446049250313e-16,1.0 l -0.34202014332566855,-0.9396926207859084 l -1.8369701987210297e-16,-1.0 m 2.220446049250313e-16,1.0 l -0.34202014332566855,-0.9396926207859084 l -0.6427876096865388,-0.7660444431189785 m 0.6427876096865388,0.7660444431189788 l -0.34202014332566855,-0.9396926207859084 m 0.34202014332566844,0.9396926207859089 m 0.6840402866513369,1.8793852415718177 l -1.8369701987210297e-16,-1.0 l 0.34202014332566816,-0.9396926207859085 m -0.3420201433256682,0.9396926207859089 l -1.8369701987210297e-16,-1.0 l -0.34202014332566855,-0.9396926207859084 m 0.34202014332566844,0.9396926207859089 l -1.8369701987210297e-16,-1.0 m 2.220446049250313e-16,1.0 m 4.440892098500626e-16,2.0 m 8.881784197001252e-16,4.0 l -0.34202014332566855,-0.9396926207859084 l -1.8369701987210297e-16,-1.0 m 2.220446049250313e-16,1.0 l -0.34202014332566855,-0.9396926207859084 l -0.6427876096865388,-0.7660444431189785 m 0.6427876096865388,0.7660444431189788 l -0.34202014332566855,-0.9396926207859084 m 0.34202014332566844,0.9396926207859089 l -1.8369701987210297e-16,-1.0 l 0.34202014332566816,-0.9396926207859085 m -0.3420201433256682,0.9396926207859089 l -1.8369701987210297e-16,-1.0 l -0.34202014332566855,-0.9396926207859084 m 0.34202014332566844,0.9396926207859089 l -1.8369701987210297e-16,-1.0 m 0.0,1.0 m 0.0,2.0 l -0.34202014332566855,-0.9396926207859084 l -1.8369701987210297e-16,-1.0 m 0.0,1.0 l -0.34202014332566855,-0.9396926207859084 l -0.6427876096865388,-0.7660444431189785 m 0.6427876096865388,0.7660444431189788 l -0.34202014332566855,-0.9396926207859084 m 0.34202014332566844,0.9396926207859089 l -0.6427876096865388,-0.7660444431189785 l -0.34202014332566855,-0.9396926207859084 m 0.34202014332566844,0.9396926207859089 l -0.6427876096865388,-0.7660444431189785 l -0.8660254037844384,-0.5000000000000006 m 0.8660254037844384,0.5 l -0.6427876096865388,-0.7660444431189785 m 0.6427876096865388,0.7660444431189788 m 1.285575219373078,1.5320888862379576 l -0.34202014332566855,-0.9396926207859084 l -1.8369701987210297e-16,-1.0 m 0.0,1.0 l -0.34202014332566855,-0.9396926207859084 l -0.6427876096865388,-0.7660444431189785 m 0.6427876096865384,0.7660444431189788 l -0.34202014332566855,-0.9396926207859084 m 0.34202014332566844,0.9396926207859089 m 0.6840402866513369,1.8793852415718177 l -0.6427876096865388,-0.7660444431189785 l -0.34202014332566855,-0.9396926207859084 m 0.34202014332566844,0.9396926207859089 l -0.6427876096865388,-0.7660444431189785 l -0.8660254037844384,-0.5000000000000006 m 0.8660254037844384,0.5 l -0.6427876096865388,-0.7660444431189785 m 0.6427876096865388,0.7660444431189788 l -0.34202014332566855,-0.9396926207859084 l -1.8369701987210297e-16,-1.0 m 0.0,1.0 l -0.34202014332566855,-0.9396926207859084 l -0.6427876096865388,-0.7660444431189785 m 0.6427876096865388,0.7660444431189788 l -0.34202014332566855,-0.9396926207859084 m 0.34202014332566844,0.9396926207859089 m 0.6840402866513369,1.8793852415718177 l -0.6427876096865388,-0.7660444431189785 l -0.34202014332566855,-0.9396926207859084 m 0.34202014332566844,0.9396926207859089 l -0.6427876096865388,-0.7660444431189785 l -0.8660254037844384,-0.5000000000000006 m 0.8660254037844384,0.5 l -0.6427876096865388,-0.7660444431189785 m 0.6427876096865388,0.7660444431189788 l -0.8660254037844384,-0.5000000000000006 l -0.6427876096865388,-0.7660444431189785 m 0.6427876096865388,0.7660444431189788 l -0.8660254037844384,-0.5000000000000006 l -0.9848077530122079,-0.17364817766693091 m 0.9848077530122072,0.17364817766693008 l -0.8660254037844384,-0.5000000000000006 m 0.8660254037844384,0.5 m 1.7320508075688767,1.0 l -0.6427876096865388,-0.7660444431189785 l -0.34202014332566855,-0.9396926207859084 m 0.34202014332566844,0.9396926207859089 l -0.6427876096865388,-0.7660444431189785 l -0.8660254037844384,-0.5000000000000006 m 0.8660254037844384,0.5 l -0.6427876096865388,-0.7660444431189785 m 0.6427876096865388,0.7660444431189788 m 1.2855752193730776,1.5320888862379576 m 2.5711504387461557,3.064177772475915 l -0.34202014332566855,-0.9396926207859084 l -1.8369701987210297e-16,-1.0 m 0.0,1.0 l -0.34202014332566855,-0.9396926207859084 l -0.6427876096865388,-0.7660444431189785 m 0.6427876096865384,0.7660444431189788 l -0.34202014332566855,-0.9396926207859084 m 0.34202014332566844,0.9396926207859089 l -1.8369701987210297e-16,-1.0 l 0.34202014332566816,-0.9396926207859085 m -0.342020143325668,0.9396926207859089 l -1.8369701987210297e-16,-1.0 l -0.34202014332566855,-0.9396926207859084 m 0.34202014332566844,0.9396926207859089 l -1.8369701987210297e-16,-1.0 m 0.0,1.0 m 0.0,2.0 l -0.34202014332566855,-0.9396926207859084 l -1.8369701987210297e-16,-1.0 m 0.0,1.0 l -0.34202014332566855,-0.9396926207859084 l -0.6427876096865388,-0.7660444431189785 m 0.6427876096865388,0.7660444431189788 l -0.34202014332566855,-0.9396926207859084 m 0.34202014332566844,0.9396926207859089 l -0.6427876096865388,-0.7660444431189785 l -0.34202014332566855,-0.9396926207859084 m 0.34202014332566844,0.9396926207859089 l -0.6427876096865388,-0.7660444431189785 l -0.8660254037844384,-0.5000000000000006 m 0.8660254037844384,0.5 l -0.6427876096865388,-0.7660444431189785 m 0.6427876096865388,0.7660444431189788 m 1.2855752193730776,1.5320888862379576 l -0.34202014332566855,-0.9396926207859084 l -1.8369701987210297e-16,-1.0 m 0.0,1.0 l -0.34202014332566855,-0.9396926207859084 l -0.6427876096865388,-0.7660444431189785 m 0.6427876096865388,0.7660444431189788 l -0.34202014332566855,-0.9396926207859084 m 0.34202014332566844,0.9396926207859089 m 0.6840402866513369,1.8793852415718177 m 1.3680805733026742,3.7587704831436355 m 2.7361611466053475,7.517540966287271 l -1.8369701987210297e-16,-1.0 l 0.34202014332566816,-0.9396926207859085 m -0.34202014332566816,0.9396926207859089 l -1.8369701987210297e-16,-1.0 l -0.34202014332566855,-0.9396926207859084 m 0.34202014332566855,0.9396926207859089 l -1.8369701987210297e-16,-1.0 m 1.8369701987210312e-16,1.0 l 0.34202014332566816,-0.9396926207859085 l 0.6427876096865386,-0.7660444431189787 m -0.6427876096865386,0.7660444431189788 l 0.34202014332566816,-0.9396926207859085 l -1.8369701987210297e-16,-1.0 m 2.220446049250313e-16,1.0 l 0.34202014332566816,-0.9396926207859085 m -0.3420201433256681,0.9396926207859089 m -0.6840402866513363,1.8793852415718177 l -1.8369701987210297e-16,-1.0 l 0.34202014332566816,-0.9396926207859085 m -0.34202014332566816,0.9396926207859089 l -1.8369701987210297e-16,-1.0 l -0.34202014332566855,-0.9396926207859084 m 0.34202014332566855,0.9396926207859089 l -1.8369701987210297e-16,-1.0 m 1.8369701987210272e-16,1.0 l -0.34202014332566855,-0.9396926207859084 l -1.8369701987210297e-16,-1.0 m 1.6653345369377348e-16,1.0 l -0.34202014332566855,-0.9396926207859084 l -0.6427876096865388,-0.7660444431189785 m 0.6427876096865389,0.7660444431189788 l -0.34202014332566855,-0.9396926207859084 m 0.34202014332566855,0.9396926207859089 m 0.6840402866513371,1.8793852415718177 l -1.8369701987210297e-16,-1.0 l 0.34202014332566816,-0.9396926207859085 m -0.34202014332566816,0.9396926207859089 l -1.8369701987210297e-16,-1.0 l -0.34202014332566855,-0.9396926207859084 m 0.34202014332566855,0.9396926207859089 l -1.8369701987210297e-16,-1.0 m 1.8369701987210272e-16,1.0 m 3.6739403974420544e-16,2.0 l 0.34202014332566816,-0.9396926207859085 l 0.6427876096865386,-0.7660444431189787 m -0.6427876096865386,0.7660444431189788 l 0.34202014332566816,-0.9396926207859085 l -1.8369701987210297e-16,-1.0 m 2.220446049250313e-16,1.0 l 0.34202014332566816,-0.9396926207859085 m -0.3420201433256682,0.9396926207859089 l 0.6427876096865386,-0.7660444431189787 l 0.8660254037844379,-0.5000000000000012 m -0.8660254037844379,0.5 l 0.6427876096865386,-0.7660444431189787 l 0.34202014332566816,-0.9396926207859085 m -0.3420201433256682,0.9396926207859089 l 0.6427876096865386,-0.7660444431189787 m -0.6427876096865386,0.7660444431189788 m -1.2855752193730772,1.5320888862379576 l 0.34202014332566816,-0.9396926207859085 l 0.6427876096865386,-0.7660444431189787 m -0.6427876096865386,0.7660444431189788 l 0.34202014332566816,-0.9396926207859085 l -1.8369701987210297e-16,-1.0 m 2.220446049250313e-16,1.0 l 0.34202014332566816,-0.9396926207859085 m -0.3420201433256682,0.9396926207859089 l -1.8369701987210297e-16,-1.0 l 0.34202014332566816,-0.9396926207859085 m -0.3420201433256682,0.9396926207859089 l -1.8369701987210297e-16,-1.0 l -0.34202014332566855,-0.9396926207859084 m 0.34202014332566866,0.9396926207859089 l -1.8369701987210297e-16,-1.0 m 2.220446049250313e-16,1.0 m 4.440892098500626e-16,2.0 l 0.34202014332566816,-0.9396926207859085 l 0.6427876096865386,-0.7660444431189787 m -0.6427876096865384,0.7660444431189788 l 0.34202014332566816,-0.9396926207859085 l -1.8369701987210297e-16,-1.0 m 0.0,1.0 l 0.34202014332566816,-0.9396926207859085 m -0.342020143325668,0.9396926207859089 m -0.6840402866513362,1.8793852415718177 m -1.3680805733026729,3.7587704831436355 l -1.8369701987210297e-16,-1.0 l 0.34202014332566816,-0.9396926207859085 m -0.34202014332566816,0.9396926207859089 l -1.8369701987210297e-16,-1.0 l -0.34202014332566855,-0.9396926207859084 m 0.34202014332566855,0.9396926207859089 l -1.8369701987210297e-16,-1.0 m 1.8369701987210272e-16,1.0 l 0.34202014332566816,-0.9396926207859085 l 0.6427876096865386,-0.7660444431189787 m -0.6427876096865386,0.7660444431189788 l 0.34202014332566816,-0.9396926207859085 l -1.8369701987210297e-16,-1.0 m 2.220446049250313e-16,1.0 l 0.34202014332566816,-0.9396926207859085 m -0.3420201433256682,0.9396926207859089 m -0.6840402866513362,1.8793852415718177 l -1.8369701987210297e-16,-1.0 l 0.34202014332566816,-0.9396926207859085 m -0.34202014332566816,0.9396926207859089 l -1.8369701987210297e-16,-1.0 l -0.34202014332566855,-0.9396926207859084 m 0.34202014332566855,0.9396926207859089 l -1.8369701987210297e-16,-1.0 m 1.8369701987210272e-16,1.0 l -0.34202014332566855,-0.9396926207859084 l -1.8369701987210297e-16,-1.0 m 1.6653345369377348e-16,1.0 l -0.34202014332566855,-0.9396926207859084 l -0.6427876096865388,-0.7660444431189785 m 0.6427876096865388,0.7660444431189788 l -0.34202014332566855,-0.9396926207859084 m 0.34202014332566866,0.9396926207859089 m 0.6840402866513371,1.8793852415718177 l -1.8369701987210297e-16,-1.0 l 0.34202014332566816,-0.9396926207859085 m -0.34202014332566816,0.9396926207859089 l -1.8369701987210297e-16,-1.0 l -0.34202014332566855,-0.9396926207859084 m 0.34202014332566855,0.9396926207859089 l -1.8369701987210297e-16,-1.0 m 1.8369701987210272e-16,1.0 m 3.6739403974420544e-16,2.0 l -0.34202014332566855,-0.9396926207859084 l -1.8369701987210297e-16,-1.0 m 1.6653345369377348e-16,1.0 l -0.34202014332566855,-0.9396926207859084 l -0.6427876096865388,-0.7660444431189785 m 0.6427876096865388,0.7660444431189788 l -0.34202014332566855,-0.9396926207859084 m 0.34202014332566866,0.9396926207859089 l -1.8369701987210297e-16,-1.0 l 0.34202014332566816,-0.9396926207859085 m -0.34202014332566816,0.9396926207859089 l -1.8369701987210297e-16,-1.0 l -0.34202014332566855,-0.9396926207859084 m 0.34202014332566866,0.9396926207859089 l -1.8369701987210297e-16,-1.0 m 2.220446049250313e-16,1.0 m 4.440892098500626e-16,2.0 l -0.34202014332566855,-0.9396926207859084 l -1.8369701987210297e-16,-1.0 m 2.220446049250313e-16,1.0 l -0.34202014332566855,-0.9396926207859084 l -0.6427876096865388,-0.7660444431189785 m 0.6427876096865388,0.7660444431189788 l -0.34202014332566855,-0.9396926207859084 m 0.34202014332566844,0.9396926207859089 l -0.6427876096865388,-0.7660444431189785 l -0.34202014332566855,-0.9396926207859084 m 0.34202014332566844,0.9396926207859089 l -0.6427876096865388,-0.7660444431189785 l -0.8660254037844384,-0.5000000000000006 m 0.8660254037844384,0.5 l -0.6427876096865388,-0.7660444431189785 m 0.6427876096865388,0.7660444431189788 m 1.2855752193730776,1.5320888862379576 l -0.34202014332566855,-0.9396926207859084 l -1.8369701987210297e-16,-1.0 m 2.220446049250313e-16,1.0 l -0.34202014332566855,-0.9396926207859084 l -0.6427876096865388,-0.7660444431189785 m 0.6427876096865388,0.7660444431189788 l -0.34202014332566855,-0.9396926207859084 m 0.34202014332566844,0.9396926207859089 m 0.6840402866513369,1.8793852415718177 m 1.3680805733026742,3.7587704831436355 l -1.8369701987210297e-16,-1.0 l 0.34202014332566816,-0.9396926207859085 m -0.34202014332566816,0.9396926207859089 l -1.8369701987210297e-16,-1.0 l -0.34202014332566855,-0.9396926207859084 m 0.34202014332566855,0.9396926207859089 l -1.8369701987210297e-16,-1.0 m 1.8369701987210272e-16,1.0 l 0.34202014332566816,-0.9396926207859085 l 0.6427876096865386,-0.7660444431189787 m -0.6427876096865386,0.7660444431189788 l 0.34202014332566816,-0.9396926207859085 l -1.8369701987210297e-16,-1.0 m 2.220446049250313e-16,1.0 l 0.34202014332566816,-0.9396926207859085 m -0.3420201433256682,0.9396926207859089 m -0.6840402866513363,1.8793852415718177 l -1.8369701987210297e-16,-1.0 l 0.34202014332566816,-0.9396926207859085 m -0.34202014332566816,0.9396926207859089 l -1.8369701987210297e-16,-1.0 l -0.34202014332566855,-0.9396926207859084 m 0.34202014332566855,0.9396926207859089 l -1.8369701987210297e-16,-1.0 m 1.8369701987210272e-16,1.0 l -0.34202014332566855,-0.9396926207859084 l -1.8369701987210297e-16,-1.0 m 1.6653345369377348e-16,1.0 l -0.34202014332566855,-0.9396926207859084 l -0.6427876096865388,-0.7660444431189785 m 0.6427876096865388,0.7660444431189788 l -0.34202014332566855,-0.9396926207859084 m 0.34202014332566844,0.9396926207859089 m 0.6840402866513371,1.8793852415718177 l -1.8369701987210297e-16,-1.0 l 0.34202014332566816,-0.9396926207859085 m -0.34202014332566816,0.9396926207859089 l -1.8369701987210297e-16,-1.0 l -0.34202014332566855,-0.9396926207859084 m 0.34202014332566855,0.9396926207859089 l -1.8369701987210297e-16,-1.0 m 1.8369701987210272e-16,1.0 m 3.6739403974420544e-16,2.0 m 7.347880794884109e-16,4.0 m 1.4695761589768234e-15,8.0 " style="stroke-linecap:square;stroke:#50514F;stroke-width:0.2px;fill:none" /></g></svg>