<?xml version="1.0" encoding="UTF-8"?>
<!DOCTYPE svg PUBLIC "-//W3C//DTD SVG 1.1//EN"
    "http://www.w3.org/Graphics/SVG/1.1/DTD/svg11.dtd">

<svg xmlns="http://www.w3.org/2000/svg" xmlns:xlink="http://www.w3.org/1999/xlink" version="1.1" width="475.3903396798097" height="500" viewBox="-15.92345385792845 -16.637554046995238 19.748764674580066 20.77110431806574">
    <g>
        <rect x="-15.92345385792845" y="-16.637554046995238" width="19.748764674580066" height="20.77110431806574" fill="#CBD4C2" />
        <path style="stroke-linecap:square;fill:none;stroke:#50514F;stroke-width:0.1px" d="M 0.0,0.0 L 6.123233995736766e-17,-1.0 L 1.2246467991473532e-16,-2.0 L 1.8369701987210297e-16,-3.0 L 2.4492935982947064e-16,-4.0 L -0.3826834323650895,-4.923879532511287 L -0.7653668647301792,-5.847759065022574 " />
        <path style="stroke-linecap:square;fill:none;stroke:#50514F;stroke-width:0.1px" d="M 2.4492935982947064e-16,-4.0 L 3.061616997868383e-16,-5.0 L 0.38268343236509017,-5.923879532511287 L 0.76536686473018,-6.847759065022574 " />
        <path style="stroke-linecap:square;fill:none;stroke:#50514F;stroke-width:0.1px" d="M 3.061616997868383e-16,-5.0 L 0.38268343236509017,-5.923879532511287 L 0.3826834323650902,-6.923879532511287 L 0.3826834323650903,-7.923879532511287 " />
        <path style="stroke-linecap:square;fill:none;stroke:#50514F;stroke-width:0.1px" d="M 0.38268343236509017,-5.923879532511287 L 0.76536686473018,-6.847759065022574 L 1.4724736459167276,-7.554865846209122 L 2.179580427103275,-8.26197262739567 " />
        <path style="stroke-linecap:square;fill:none;stroke:#50514F;stroke-width:0.1px" d="M 3.061616997868383e-16,-5.0 L 3.67394039744206e-16,-6.0 L -0.38268343236508934,-6.923879532511287 L -0.765366864730179,-7.847759065022574 " />
        <path style="stroke-linecap:square;fill:none;stroke:#50514F;stroke-width:0.1px" d="M 3.67394039744206e-16,-6.0 L -0.38268343236508934,-6.923879532511287 L -0.3826834323650893,-7.923879532511287 L -0.3826834323650892,-8.923879532511286 " />
        <path style="stroke-linecap:square;fill:none;stroke:#50514F;stroke-width:0.1px" d="M -0.38268343236508934,-6.923879532511287 L -0.765366864730179,-7.847759065022574 L -1.4724736459167265,-8.554865846209122 L -2.179580427103274,-9.26197262739567 " />
        <path style="stroke-linecap:square;fill:none;stroke:#50514F;stroke-width:0.1px" d="M -0.765366864730179,-7.847759065022574 L -1.4724736459167265,-8.554865846209122 L -1.8551570782818163,-9.478745378720408 L -2.237840510646906,-10.402624911231694 " />
        <path style="stroke-linecap:square;fill:none;stroke:#50514F;stroke-width:0.1px" d="M -1.4724736459167265,-8.554865846209122 L -2.179580427103274,-9.26197262739567 L -3.1034599596145607,-9.64465605976076 L -4.027339492125847,-10.027339492125849 " />
        <path style="stroke-linecap:square;fill:none;stroke:#50514F;stroke-width:0.1px" d="M 3.67394039744206e-16,-6.0 L -0.38268343236508934,-6.923879532511287 L -0.3826834323650893,-7.923879532511287 L -0.3826834323650892,-8.923879532511286 " />
        <path style="stroke-linecap:square;fill:none;stroke:#50514F;stroke-width:0.1px" d="M -0.38268343236508934,-6.923879532511287 L -0.3826834323650893,-7.923879532511287 L -0.765366864730179,-8.847759065022574 L -1.1480502970952688,-9.77163859753386 " />
        <path style="stroke-linecap:square;fill:none;stroke:#50514F;stroke-width:0.1px" d="M -0.3826834323650893,-7.923879532511287 L -0.3826834323650892,-8.923879532511286 L 6.106226635438361e-16,-9.847759065022572 L 0.38268343236509045,-10.771638597533858 " />
        <path style="stroke-linecap:square;fill:none;stroke:#50514F;stroke-width:0.1px" d="M -0.38268343236508934,-6.923879532511287 L -0.3826834323650893,-7.923879532511287 L -0.765366864730179,-8.847759065022574 L -1.1480502970952688,-9.77163859753386 " />
        <path style="stroke-linecap:square;fill:none;stroke:#50514F;stroke-width:0.1px" d="M -0.3826834323650893,-7.923879532511287 L -0.765366864730179,-8.847759065022574 L -0.765366864730179,-9.847759065022574 L -0.765366864730179,-10.847759065022574 " />
        <path style="stroke-linecap:square;fill:none;stroke:#50514F;stroke-width:0.1px" d="M -0.765366864730179,-8.847759065022574 L -1.1480502970952688,-9.77163859753386 L -1.8551570782818163,-10.478745378720408 L -2.5622638594683638,-11.185852159906956 " />
        <path style="stroke-linecap:square;fill:none;stroke:#50514F;stroke-width:0.1px" d="M -0.3826834323650893,-7.923879532511287 L -0.3826834323650892,-8.923879532511286 L 6.106226635438361e-16,-9.847759065022572 L 0.38268343236509045,-10.771638597533858 " />
        <path style="stroke-linecap:square;fill:none;stroke:#50514F;stroke-width:0.1px" d="M -0.3826834323650892,-8.923879532511286 L 6.106226635438361e-16,-9.847759065022572 L 6.661338147750939e-16,-10.847759065022572 L 7.216449660063518e-16,-11.847759065022572 " />
        <path style="stroke-linecap:square;fill:none;stroke:#50514F;stroke-width:0.1px" d="M 6.106226635438361e-16,-9.847759065022572 L 0.38268343236509045,-10.771638597533858 L 1.0897902135516382,-11.478745378720406 L 1.7968969947381859,-12.185852159906954 " />
        <path style="stroke-linecap:square;fill:none;stroke:#50514F;stroke-width:0.1px" d="M -0.38268343236508934,-6.923879532511287 L -0.765366864730179,-7.847759065022574 L -1.4724736459167265,-8.554865846209122 L -2.179580427103274,-9.26197262739567 " />
        <path style="stroke-linecap:square;fill:none;stroke:#50514F;stroke-width:0.1px" d="M -0.765366864730179,-7.847759065022574 L -1.4724736459167265,-8.554865846209122 L -1.8551570782818163,-9.478745378720408 L -2.237840510646906,-10.402624911231694 " />
        <path style="stroke-linecap:square;fill:none;stroke:#50514F;stroke-width:0.1px" d="M -1.4724736459167265,-8.554865846209122 L -2.179580427103274,-9.26197262739567 L -3.1034599596145607,-9.64465605976076 L -4.027339492125847,-10.027339492125849 L -5.027339492125847,-10.027339492125849 L -6.027339492125847,-10.027339492125849 " />
        <path style="stroke-linecap:square;fill:none;stroke:#50514F;stroke-width:0.1px" d="M -0.765366864730179,-7.847759065022574 L -1.4724736459167265,-8.554865846209122 L -1.8551570782818163,-9.478745378720408 L -2.237840510646906,-10.402624911231694 " />
        <path style="stroke-linecap:square;fill:none;stroke:#50514F;stroke-width:0.1px" d="M -1.4724736459167265,-8.554865846209122 L -1.8551570782818163,-9.478745378720408 L -2.5622638594683638,-10.185852159906956 L -3.2693706406549112,-10.892958941093504 " />
        <path style="stroke-linecap:square;fill:none;stroke:#50514F;stroke-width:0.1px" d="M -1.8551570782818163,-9.478745378720408 L -2.237840510646906,-10.402624911231694 L -2.237840510646906,-11.402624911231694 L -2.237840510646906,-12.402624911231694 " />
        <path style="stroke-linecap:square;fill:none;stroke:#50514F;stroke-width:0.1px" d="M -1.4724736459167265,-8.554865846209122 L -1.8551570782818163,-9.478745378720408 L -2.5622638594683638,-10.185852159906956 L -3.2693706406549112,-10.892958941093504 " />
        <path style="stroke-linecap:square;fill:none;stroke:#50514F;stroke-width:0.1px" d="M -1.8551570782818163,-9.478745378720408 L -2.5622638594683638,-10.185852159906956 L -2.9449472918334534,-11.109731692418242 L -3.327630724198543,-12.033611224929528 " />
        <path style="stroke-linecap:square;fill:none;stroke:#50514F;stroke-width:0.1px" d="M -2.5622638594683638,-10.185852159906956 L -3.2693706406549112,-10.892958941093504 L -4.193250173166198,-11.275642373458593 L -5.117129705677485,-11.658325805823683 " />
        <path style="stroke-linecap:square;fill:none;stroke:#50514F;stroke-width:0.1px" d="M -1.8551570782818163,-9.478745378720408 L -2.237840510646906,-10.402624911231694 L -2.237840510646906,-11.402624911231694 L -2.237840510646906,-12.402624911231694 " />
        <path style="stroke-linecap:square;fill:none;stroke:#50514F;stroke-width:0.1px" d="M -2.237840510646906,-10.402624911231694 L -2.237840510646906,-11.402624911231694 L -2.6205239430119955,-12.32650444374298 L -3.003207375377085,-13.250383976254266 " />
        <path style="stroke-linecap:square;fill:none;stroke:#50514F;stroke-width:0.1px" d="M -2.237840510646906,-11.402624911231694 L -2.237840510646906,-12.402624911231694 L -1.8551570782818163,-13.32650444374298 L -1.4724736459167267,-14.250383976254266 " />
        <path style="stroke-linecap:square;fill:none;stroke:#50514F;stroke-width:0.1px" d="M -1.4724736459167265,-8.554865846209122 L -2.179580427103274,-9.26197262739567 L -3.1034599596145607,-9.64465605976076 L -4.027339492125847,-10.027339492125849 " />
        <path style="stroke-linecap:square;fill:none;stroke:#50514F;stroke-width:0.1px" d="M -2.179580427103274,-9.26197262739567 L -3.1034599596145607,-9.64465605976076 L -3.810566740801108,-10.351762840947307 L -4.517673521987655,-11.058869622133855 " />
        <path style="stroke-linecap:square;fill:none;stroke:#50514F;stroke-width:0.1px" d="M -3.1034599596145607,-9.64465605976076 L -4.027339492125847,-10.027339492125849 L -5.027339492125847,-10.027339492125849 L -6.027339492125847,-10.027339492125849 " />
        <path style="stroke-linecap:square;fill:none;stroke:#50514F;stroke-width:0.1px" d="M -2.179580427103274,-9.26197262739567 L -3.1034599596145607,-9.64465605976076 L -3.810566740801108,-10.351762840947307 L -4.734446273312395,-10.734446273312397 L -5.658325805823682,-11.117129705677486 " />
        <path style="stroke-linecap:square;fill:none;stroke:#50514F;stroke-width:0.1px" d="M -3.810566740801108,-10.351762840947307 L -4.517673521987655,-11.058869622133855 L -4.900356954352745,-11.982749154645141 L -5.283040386717834,-12.906628687156427 " />
        <path style="stroke-linecap:square;fill:none;stroke:#50514F;stroke-width:0.1px" d="M -3.1034599596145607,-9.64465605976076 L -3.810566740801108,-10.351762840947307 L -4.734446273312395,-10.734446273312397 L -5.658325805823682,-11.117129705677486 " />
        <path style="stroke-linecap:square;fill:none;stroke:#50514F;stroke-width:0.1px" d="M -3.810566740801108,-10.351762840947307 L -4.734446273312395,-10.734446273312397 L -5.441553054498943,-11.441553054498945 L -6.148659835685491,-12.148659835685493 " />
        <path style="stroke-linecap:square;fill:none;stroke:#50514F;stroke-width:0.1px" d="M -4.734446273312395,-10.734446273312397 L -5.658325805823682,-11.117129705677486 L -6.658325805823682,-11.117129705677486 L -7.658325805823682,-11.117129705677486 " />
        <path style="stroke-linecap:square;fill:none;stroke:#50514F;stroke-width:0.1px" d="M -3.810566740801108,-10.351762840947307 L -4.517673521987655,-11.058869622133855 L -4.900356954352745,-11.982749154645141 L -5.283040386717834,-12.906628687156427 " />
        <path style="stroke-linecap:square;fill:none;stroke:#50514F;stroke-width:0.1px" d="M -4.517673521987655,-11.058869622133855 L -4.900356954352745,-11.982749154645141 L -5.607463735539293,-12.68985593583169 L -6.314570516725841,-13.396962717018237 " />
        <path style="stroke-linecap:square;fill:none;stroke:#50514F;stroke-width:0.1px" d="M -4.900356954352745,-11.982749154645141 L -5.283040386717834,-12.906628687156427 L -5.283040386717834,-13.906628687156427 L -5.283040386717834,-14.906628687156427 " />
        <path style="stroke-linecap:square;fill:none;stroke:#50514F;stroke-width:0.1px" d="M -3.1034599596145607,-9.64465605976076 L -4.027339492125847,-10.027339492125849 L -5.027339492125847,-10.027339492125849 L -6.027339492125847,-10.027339492125849 " />
        <path style="stroke-linecap:square;fill:none;stroke:#50514F;stroke-width:0.1px" d="M -4.027339492125847,-10.027339492125849 L -5.027339492125847,-10.027339492125849 L -5.951219024637133,-10.410022924490939 L -6.875098557148419,-10.792706356856028 " />
        <path style="stroke-linecap:square;fill:none;stroke:#50514F;stroke-width:0.1px" d="M -5.027339492125847,-10.027339492125849 L -6.027339492125847,-10.027339492125849 L -6.951219024637133,-9.64465605976076 L -7.875098557148419,-9.26197262739567 " />
        <path style="stroke-linecap:square;fill:none;stroke:#50514F;stroke-width:0.1px" d="M -4.027339492125847,-10.027339492125849 L -5.027339492125847,-10.027339492125849 L -5.951219024637133,-10.410022924490939 L -6.875098557148419,-10.792706356856028 " />
        <path style="stroke-linecap:square;fill:none;stroke:#50514F;stroke-width:0.1px" d="M -5.027339492125847,-10.027339492125849 L -5.951219024637133,-10.410022924490939 L -6.951219024637133,-10.410022924490939 L -7.951219024637133,-10.410022924490939 " />
        <path style="stroke-linecap:square;fill:none;stroke:#50514F;stroke-width:0.1px" d="M -5.951219024637133,-10.410022924490939 L -6.951219024637133,-10.410022924490939 L -7.875098557148419,-10.792706356856028 L -8.798978089659705,-11.175389789221118 " />
        <path style="stroke-linecap:square;fill:none;stroke:#50514F;stroke-width:0.1px" d="M -6.951219024637133,-10.410022924490939 L -7.951219024637133,-10.410022924490939 L -8.87509855714842,-10.027339492125849 L -9.798978089659705,-9.64465605976076 " />
        <path style="stroke-linecap:square;fill:none;stroke:#50514F;stroke-width:0.1px" d="M -5.951219024637133,-10.410022924490939 L -6.875098557148419,-10.792706356856028 L -7.582205338334966,-11.499813138042576 L -8.289312119521513,-12.206919919229124 " />
        <path style="stroke-linecap:square;fill:none;stroke:#50514F;stroke-width:0.1px" d="M -6.875098557148419,-10.792706356856028 L -7.582205338334966,-11.499813138042576 L -8.506084870846253,-11.882496570407666 L -9.42996440335754,-12.265180002772755 " />
        <path style="stroke-linecap:square;fill:none;stroke:#50514F;stroke-width:0.1px" d="M -7.582205338334966,-11.499813138042576 L -8.289312119521513,-12.206919919229124 L -8.671995551886603,-13.13079945174041 L -9.054678984251693,-14.054678984251696 " />
        <path style="stroke-linecap:square;fill:none;stroke:#50514F;stroke-width:0.1px" d="M -5.027339492125847,-10.027339492125849 L -6.027339492125847,-10.027339492125849 L -6.951219024637133,-9.64465605976076 L -7.875098557148419,-9.26197262739567 " />
        <path style="stroke-linecap:square;fill:none;stroke:#50514F;stroke-width:0.1px" d="M -6.027339492125847,-10.027339492125849 L -6.951219024637133,-9.64465605976076 L -7.951219024637133,-9.64465605976076 L -8.951219024637133,-9.64465605976076 " />
        <path style="stroke-linecap:square;fill:none;stroke:#50514F;stroke-width:0.1px" d="M -6.951219024637133,-9.64465605976076 L -7.875098557148419,-9.26197262739567 L -8.582205338334967,-8.554865846209122 L -9.289312119521515,-7.847759065022575 " />
        <path style="stroke-linecap:square;fill:none;stroke:#50514F;stroke-width:0.1px" d="M -6.027339492125847,-10.027339492125849 L -6.951219024637133,-9.64465605976076 L -7.951219024637133,-9.64465605976076 L -8.951219024637133,-9.64465605976076 " />
        <path style="stroke-linecap:square;fill:none;stroke:#50514F;stroke-width:0.1px" d="M -6.951219024637133,-9.64465605976076 L -7.951219024637133,-9.64465605976076 L -8.87509855714842,-9.26197262739567 L -9.798978089659705,-8.87928919503058 L -10.506084870846253,-8.172182413844032 L -11.213191652032801,-7.465075632657485 " />
        <path style="stroke-linecap:square;fill:none;stroke:#50514F;stroke-width:0.1px" d="M -7.951219024637133,-9.64465605976076 L -8.951219024637133,-9.64465605976076 L -9.87509855714842,-10.027339492125849 L -10.798978089659705,-10.410022924490939 " />
        <path style="stroke-linecap:square;fill:none;stroke:#50514F;stroke-width:0.1px" d="M -8.951219024637133,-9.64465605976076 L -9.87509855714842,-10.027339492125849 L -10.87509855714842,-10.027339492125849 L -11.87509855714842,-10.027339492125849 " />
        <path style="stroke-linecap:square;fill:none;stroke:#50514F;stroke-width:0.1px" d="M -9.87509855714842,-10.027339492125849 L -10.798978089659705,-10.410022924490939 L -11.506084870846253,-11.117129705677486 L -12.213191652032801,-11.824236486864034 " />
        <path style="stroke-linecap:square;fill:none;stroke:#50514F;stroke-width:0.1px" d="M -6.951219024637133,-9.64465605976076 L -7.875098557148419,-9.26197262739567 L -8.582205338334967,-8.554865846209122 L -9.289312119521515,-7.847759065022575 " />
        <path style="stroke-linecap:square;fill:none;stroke:#50514F;stroke-width:0.1px" d="M -7.875098557148419,-9.26197262739567 L -8.582205338334967,-8.554865846209122 L -9.506084870846253,-8.172182413844032 L -10.42996440335754,-7.789498981478943 " />
        <path style="stroke-linecap:square;fill:none;stroke:#50514F;stroke-width:0.1px" d="M -8.582205338334967,-8.554865846209122 L -9.289312119521515,-7.847759065022575 L -9.671995551886605,-6.923879532511288 L -10.054678984251694,-6.000000000000002 " />
        <path style="stroke-linecap:square;fill:none;stroke:#50514F;stroke-width:0.1px" d="M -7.875098557148419,-9.26197262739567 L -8.582205338334967,-8.554865846209122 L -9.506084870846253,-8.172182413844032 L -10.42996440335754,-7.789498981478943 " />
        <path style="stroke-linecap:square;fill:none;stroke:#50514F;stroke-width:0.1px" d="M -8.582205338334967,-8.554865846209122 L -9.506084870846253,-8.172182413844032 L -10.213191652032801,-7.465075632657485 L -10.92029843321935,-6.757968851470938 " />
        <path style="stroke-linecap:square;fill:none;stroke:#50514F;stroke-width:0.1px" d="M -9.506084870846253,-8.172182413844032 L -10.42996440335754,-7.789498981478943 L -11.42996440335754,-7.789498981478943 L -12.353843935868825,-7.406815549113853 L -13.277723468380112,-7.024132116748763 " />
        <path style="stroke-linecap:square;fill:none;stroke:#50514F;stroke-width:0.1px" d="M -11.42996440335754,-7.789498981478943 L -12.42996440335754,-7.789498981478943 L -13.353843935868825,-8.172182413844032 L -14.277723468380112,-8.554865846209122 " />
        <path style="stroke-linecap:square;fill:none;stroke:#50514F;stroke-width:0.1px" d="M -8.582205338334967,-8.554865846209122 L -9.289312119521515,-7.847759065022575 L -9.671995551886605,-6.923879532511288 L -10.054678984251694,-6.000000000000002 " />
        <path style="stroke-linecap:square;fill:none;stroke:#50514F;stroke-width:0.1px" d="M -9.289312119521515,-7.847759065022575 L -9.671995551886605,-6.923879532511288 L -10.379102333073153,-6.216772751324741 L -11.0862091142597,-5.509665970138194 " />
        <path style="stroke-linecap:square;fill:none;stroke:#50514F;stroke-width:0.1px" d="M -9.671995551886605,-6.923879532511288 L -10.054678984251694,-6.000000000000002 L -10.054678984251694,-5.000000000000002 L -10.054678984251694,-4.000000000000002 " />
        <path style="stroke-linecap:square;fill:none;stroke:#50514F;stroke-width:0.1px" d="M -9.289312119521515,-7.847759065022575 L -9.671995551886605,-6.923879532511288 L -10.379102333073153,-6.216772751324741 L -11.0862091142597,-5.509665970138194 " />
        <path style="stroke-linecap:square;fill:none;stroke:#50514F;stroke-width:0.1px" d="M -9.671995551886605,-6.923879532511288 L -10.379102333073153,-6.216772751324741 L -10.761785765438242,-5.292893218813454 L -11.144469197803332,-4.369013686302168 " />
        <path style="stroke-linecap:square;fill:none;stroke:#50514F;stroke-width:0.1px" d="M -10.379102333073153,-6.216772751324741 L -11.0862091142597,-5.509665970138194 L -12.010088646770987,-5.126982537773104 L -12.933968179282273,-4.744299105408015 " />
        <path style="stroke-linecap:square;fill:none;stroke:#50514F;stroke-width:0.1px" d="M -9.671995551886605,-6.923879532511288 L -10.054678984251694,-6.000000000000002 L -10.054678984251694,-5.000000000000002 L -10.054678984251694,-4.000000000000002 " />
        <path style="stroke-linecap:square;fill:none;stroke:#50514F;stroke-width:0.1px" d="M -10.054678984251694,-6.000000000000002 L -10.054678984251694,-5.000000000000002 L -10.437362416616784,-4.076120467488716 L -10.820045848981874,-3.152240934977429 " />
        <path style="stroke-linecap:square;fill:none;stroke:#50514F;stroke-width:0.1px" d="M -10.054678984251694,-5.000000000000002 L -10.054678984251694,-4.000000000000002 L -9.671995551886605,-3.0761204674887157 L -9.289312119521515,-2.1522409349774296 " />
        <path style="stroke-linecap:square;fill:none;stroke:#50514F;stroke-width:0.1px" d="M -10.054678984251694,-6.000000000000002 L -10.054678984251694,-5.000000000000002 L -10.437362416616784,-4.076120467488716 L -10.820045848981874,-3.152240934977429 " />
        <path style="stroke-linecap:square;fill:none;stroke:#50514F;stroke-width:0.1px" d="M -10.054678984251694,-5.000000000000002 L -10.437362416616784,-4.076120467488716 L -10.437362416616784,-3.076120467488716 L -10.437362416616784,-2.0761204674887166 " />
        <path style="stroke-linecap:square;fill:none;stroke:#50514F;stroke-width:0.1px" d="M -10.437362416616784,-4.076120467488716 L -10.820045848981874,-3.152240934977429 L -11.527152630168422,-2.4451341537908817 L -12.23425941135497,-1.7380273726043343 " />
        <path style="stroke-linecap:square;fill:none;stroke:#50514F;stroke-width:0.1px" d="M -10.054678984251694,-5.000000000000002 L -10.054678984251694,-4.000000000000002 L -9.671995551886605,-3.0761204674887157 L -9.289312119521515,-2.1522409349774296 L -8.582205338334967,-1.4451341537908826 L -7.875098557148419,-0.7380273726043356 " />
        <path style="stroke-linecap:square;fill:none;stroke:#50514F;stroke-width:0.1px" d="M -10.054678984251694,-4.000000000000002 L -9.671995551886605,-3.0761204674887157 L -9.671995551886605,-2.076120467488716 L -9.671995551886605,-1.0761204674887166 " />
        <path style="stroke-linecap:square;fill:none;stroke:#50514F;stroke-width:0.1px" d="M -9.671995551886605,-3.0761204674887157 L -9.671995551886605,-2.076120467488716 L -9.289312119521515,-1.15224093497743 L -8.906628687156426,-0.2283614024661439 " />
        <path style="stroke-linecap:square;fill:none;stroke:#50514F;stroke-width:0.1px" d="M -9.671995551886605,-2.076120467488716 L -9.671995551886605,-1.0761204674887166 L -10.054678984251694,-0.1522409349774302 L -10.437362416616784,0.7716385975338562 " />
        <path style="stroke-linecap:square;fill:none;stroke:#50514F;stroke-width:0.1px" d="M -9.671995551886605,-3.0761204674887157 L -9.289312119521515,-2.1522409349774296 L -8.582205338334967,-1.4451341537908826 L -7.875098557148419,-0.7380273726043356 " />
        <path style="stroke-linecap:square;fill:none;stroke:#50514F;stroke-width:0.1px" d="M -9.289312119521515,-2.1522409349774296 L -8.582205338334967,-1.4451341537908826 L -8.199521905969878,-0.5212546212795964 L -7.49241512478333,0.18585215990695048 L -6.785308343596782,0.8929589410934974 " />
        <path style="stroke-linecap:square;fill:none;stroke:#50514F;stroke-width:0.1px" d="M -8.199521905969878,-0.5212546212795964 L -7.816838473604788,0.40262491123168975 L -7.816838473604788,1.402624911231689 L -7.816838473604788,2.4026249112316886 " />
        <path style="stroke-linecap:square;fill:none;stroke:#50514F;stroke-width:0.1px" d="M -8.582205338334967,-1.4451341537908826 L -7.875098557148419,-0.7380273726043356 L -6.951219024637133,-0.3553439402392463 L -6.027339492125847,2.7339492125842968e-2 " />
        <path style="stroke-linecap:square;fill:none;stroke:#50514F;stroke-width:0.1px" d="M -7.875098557148419,-0.7380273726043356 L -6.951219024637133,-0.3553439402392463 L -6.244112243450585,0.3517628409473007 L -5.5370054622640374,1.0588696221338476 " />
        <path style="stroke-linecap:square;fill:none;stroke:#50514F;stroke-width:0.1px" d="M -6.951219024637133,-0.3553439402392463 L -6.027339492125847,2.7339492125842968e-2 L -5.027339492125847,2.733949212584258e-2 L -4.027339492125847,2.733949212584219e-2 " />
        <path style="stroke-linecap:square;fill:none;stroke:#50514F;stroke-width:0.1px" d="M -6.027339492125847,2.7339492125842968e-2 L -5.027339492125847,2.733949212584258e-2 L -4.103459959614561,0.41002292449093186 L -3.1795804271032746,0.7927063568560211 " />
        <path style="stroke-linecap:square;fill:none;stroke:#50514F;stroke-width:0.1px" d="M -5.027339492125847,2.733949212584258e-2 L -4.027339492125847,2.733949212584219e-2 L -3.103459959614561,-0.35534394023924776 L -2.179580427103275,-0.7380273726043377 L -1.472473645916728,-1.4451341537908853 L -0.7653668647301811,-2.1522409349774327 " />
        <path style="stroke-linecap:square;fill:none;stroke:#50514F;stroke-width:0.1px" d="M 3.67394039744206e-16,-6.0 L 4.2862637970157366e-16,-7.0 " />
    </g>
</svg>
