<?xml version="1.0" encoding="UTF-8"?>
<!DOCTYPE svg PUBLIC "-//W3C//DTD SVG 1.1//EN"
    "http://www.w3.org/Graphics/SVG/1.1/DTD/svg11.dtd">

<svg xmlns="http://www.w3.org/2000/svg" xmlns:xlink="http://www.w3.org/1999/xlink" version="1.1" width="55.27008818801485" height="500" viewBox="-0.9184402376762151 -15.23253497152483 1.8368804753524315 16.617310878027087">
    <g>
        <rect x="-0.9184402376762151" y="-15.23253497152483" width="1.8368804753524315" height="16.617310878027087" fill="#CBD4C2" />
        <path style="stroke-linecap:square;stroke-width:0.1px;fill:none;stroke:#50514F" d="M 0.0,0.0 L 6.123233995736766e-17,-1.0 L 1.2246467991473532e-16,-2.0 L 1.8369701987210297e-16,-3.0 L 2.4492935982947064e-16,-4.0 L 0.38268343236509006,-4.923879532511287 L 0.7653668647301799,-5.847759065022574 M 2.4492935982947064e-16,-4.0 " />
        <path style="stroke-linecap:square;stroke-width:0.1px;fill:none;stroke:#50514F" d="M 2.4492935982947064e-16,-4.0 L 3.061616997868383e-16,-5.0 L -0.3826834323650894,-5.923879532511287 L -0.7653668647301791,-6.847759065022574 M 3.061616997868383e-16,-5.0 " />
        <path style="stroke-linecap:square;stroke-width:0.1px;fill:none;stroke:#50514F" d="M 3.061616997868383e-16,-5.0 L 3.67394039744206e-16,-6.0 L 0.3826834323650902,-6.923879532511287 L 0.7653668647301801,-7.847759065022574 M 3.67394039744206e-16,-6.0 " />
        <path style="stroke-linecap:square;stroke-width:0.1px;fill:none;stroke:#50514F" d="M 3.67394039744206e-16,-6.0 L 4.2862637970157366e-16,-7.0 L -0.3826834323650893,-7.923879532511287 L -0.765366864730179,-8.847759065022574 M 4.2862637970157366e-16,-7.0 " />
        <path style="stroke-linecap:square;stroke-width:0.1px;fill:none;stroke:#50514F" d="M 4.2862637970157366e-16,-7.0 L 4.898587196589413e-16,-8.0 L 0.38268343236509034,-8.923879532511286 L 0.7653668647301801,-9.847759065022572 M 4.898587196589413e-16,-8.0 " />
        <path style="stroke-linecap:square;stroke-width:0.1px;fill:none;stroke:#50514F" d="M 4.898587196589413e-16,-8.0 L 5.51091059616309e-16,-9.0 L -0.38268343236508917,-9.923879532511286 L -0.7653668647301789,-10.847759065022572 M 5.51091059616309e-16,-9.0 " />
        <path style="stroke-linecap:square;stroke-width:0.1px;fill:none;stroke:#50514F" d="M 5.51091059616309e-16,-9.0 L 6.123233995736766e-16,-10.0 L 0.38268343236509045,-10.923879532511286 L 0.7653668647301803,-11.847759065022572 M 6.123233995736766e-16,-10.0 " />
        <path style="stroke-linecap:square;stroke-width:0.1px;fill:none;stroke:#50514F" d="M 6.123233995736766e-16,-10.0 L 6.735557395310443e-16,-11.0 L -0.38268343236508906,-11.923879532511286 L -0.7653668647301788,-12.847759065022572 M 6.735557395310443e-16,-11.0 " />
        <path style="stroke-linecap:square;stroke-width:0.1px;fill:none;stroke:#50514F" d="M 6.735557395310443e-16,-11.0 L 7.34788079488412e-16,-12.0 L 0.38268343236509056,-12.923879532511286 L 0.7653668647301803,-13.847759065022572 M 7.34788079488412e-16,-12.0 " />
        <path style="stroke-linecap:square;stroke-width:0.1px;fill:none;stroke:#50514F" d="M 7.34788079488412e-16,-12.0 L 7.960204194457796e-16,-13.0 " />
    </g>
</svg>
