<?xml version="1.0" encoding="UTF-8"?>
<!DOCTYPE svg PUBLIC "-//W3C//DTD SVG 1.1//EN"
    "http://www.w3.org/Graphics/SVG/1.1/DTD/svg11.dtd">
<svg xmlns="http://www.w3.org/2000/svg" xmlns:xlink="http://www.w3.org/1999/xlink" version="1.1" width="241.14412322194676" height="500" viewBox="-36.46099143115834 -138.6 72.9219828623167 151.2"><g><rect x="-36.46099143115834" y="-138.6" width="72.9219828623167" height="151.2" fill="#CBD4C2" /><path d="M 0,0 l 6.123233995736766e-17,-1.0 l 6.123233995736766e-17,-1.0 l 6.123233995736766e-17,-1.0 l 6.123233995736766e-17,-1.0 l 6.123233995736766e-17,-1.0 l 6.123233995736766e-17,-1.0 l 6.123233995736766e-17,-1.0 l 6.123233995736766e-17,-1.0 l 6.123233995736766e-17,-1.0 l 6.123233995736766e-17,-1.0 l 6.123233995736766e-17,-1.0 l 6.123233995736766e-17,-1.0 l 6.123233995736766e-17,-1.0 l 6.123233995736766e-17,-1.0 l 6.123233995736766e-17,-1.0 l 6.123233995736766e-17,-1.0 l 6.123233995736766e-17,-1.0 l 6.123233995736766e-17,-1.0 l 6.123233995736766e-17,-1.0 l 6.123233995736766e-17,-1.0 l 6.123233995736766e-17,-1.0 l 6.123233995736766e-17,-1.0 l 6.123233995736766e-17,-1.0 l 6.123233995736766e-17,-1.0 l 6.123233995736766e-17,-1.0 l 6.123233995736766e-17,-1.0 l 6.123233995736766e-17,-1.0 l 6.123233995736766e-17,-1.0 l 6.123233995736766e-17,-1.0 l 6.123233995736766e-17,-1.0 l 6.123233995736766e-17,-1.0 l 6.123233995736766e-17,-1.0 l -0.43365908458754426,-0.9010770213220916 l -0.43365908458754426,-0.9010770213220916 l -0.43365908458754426,-0.9010770213220916 l -0.43365908458754426,-0.9010770213220916 l -0.43365908458754426,-0.9010770213220916 l -0.43365908458754426,-0.9010770213220916 l -0.43365908458754426,-0.9010770213220916 l -0.43365908458754426,-0.9010770213220916 l -0.43365908458754426,-0.9010770213220916 l -0.43365908458754426,-0.9010770213220916 l -0.43365908458754426,-0.9010770213220916 l -0.43365908458754426,-0.9010770213220916 l -0.43365908458754426,-0.9010770213220916 l -0.43365908458754426,-0.9010770213220916 l -0.43365908458754426,-0.9010770213220916 l -0.43365908458754426,-0.9010770213220916 l -0.7815204724188187,-0.6238795967093861 l -0.7815204724188187,-0.6238795967093861 l -0.7815204724188187,-0.6238795967093861 l -0.7815204724188187,-0.6238795967093861 l -0.7815204724188187,-0.6238795967093861 l -0.7815204724188187,-0.6238795967093861 l -0.7815204724188187,-0.6238795967093861 l -0.7815204724188187,-0.6238795967093861 l -0.9747611941912216,-0.2232501160109513 l -0.9747611941912216,-0.2232501160109513 l -0.9747611941912216,-0.2232501160109513 l -0.9747611941912216,-0.2232501160109513 l -0.975149354305563,0.2215484976194673 l -0.975149354305563,0.2215484976194673 l -0.7826081568524137,0.6225146366376195 l 0.0,0.0 l 0.0,0.0 l -0.7826081568524137,0.6225146366376195 l 1.5652163137048305,-1.245029273275236 l -0.9747611941912215,-0.2232501160109513 l 0.0,0.0 l 0.0,0.0 l -0.9747611941912215,-0.2232501160109513 l 1.9495223883824409,0.44650023202190425 l -0.975149354305563,0.2215484976194673 l -0.975149354305563,0.2215484976194673 l -0.975149354305563,0.2215484976194673 l 0.0,0.0 l 0.0,0.0 l -0.975149354305563,0.2215484976194673 l 5.850896125833387,-1.3292909857167956 l -0.7815204724188186,-0.6238795967093861 l -0.7815204724188186,-0.6238795967093861 l -0.9747611941912216,-0.22325011601095135 l 0.0,0.0 l 0.0,0.0 l -0.9747611941912216,-0.22325011601095135 l 1.9495223883824409,0.44650023202190425 l -0.4336590845875442,-0.9010770213220914 l 0.0,0.0 l 0.0,0.0 l -0.4336590845875442,-0.9010770213220914 l 0.8673181691750855,1.802154042644176 l -0.7815204724188186,-0.6238795967093861 l -0.7815204724188186,-0.6238795967093861 l -0.7815204724188186,-0.6238795967093861 l 0.0,0.0 l 0.0,0.0 l -0.7815204724188186,-0.6238795967093861 l 4.689122834512915,3.7432775802563185 l -0.9747611941912216,-0.2232501160109513 l -0.9747611941912216,-0.2232501160109513 l -0.9747611941912216,-0.2232501160109513 l -0.9747611941912216,-0.2232501160109513 l -0.9747611941912216,-0.2232501160109513 l -0.9747611941912216,-0.2232501160109513 l -0.975149354305563,0.2215484976194673 l 0.0,0.0 l 0.0,0.0 l -0.975149354305563,0.2215484976194673 l 1.950298708611129,-0.44309699523893187 l -0.7815204724188186,-0.6238795967093861 l 0.0,0.0 l 0.0,0.0 l -0.7815204724188186,-0.6238795967093861 l 1.5630409448376383,1.2477591934187728 l -0.9747611941912216,-0.2232501160109513 l -0.9747611941912216,-0.2232501160109513 l -0.9747611941912216,-0.2232501160109513 l 0.0,0.0 l 0.0,0.0 l -0.9747611941912216,-0.2232501160109513 l 13.646656718677091,3.1255016241533298 l -0.4336590845875442,-0.9010770213220916 l -0.4336590845875442,-0.9010770213220916 l -0.4336590845875442,-0.9010770213220916 l -0.4336590845875442,-0.9010770213220916 l -0.7815204724188186,-0.6238795967093861 l -0.7815204724188186,-0.6238795967093861 l -0.9747611941912216,-0.22325011601095135 l 0.0,0.0 l 0.0,0.0 l -0.9747611941912216,-0.22325011601095135 l 1.9495223883824409,0.44650023202190425 l -0.4336590845875442,-0.9010770213220914 l 0.0,0.0 l 0.0,0.0 l -0.4336590845875442,-0.9010770213220914 l 0.8673181691750855,1.802154042644176 l -0.7815204724188186,-0.6238795967093861 l -0.7815204724188186,-0.6238795967093861 l -0.7815204724188186,-0.6238795967093861 l 0.0,0.0 l 0.0,0.0 l -0.7815204724188186,-0.6238795967093861 l 4.689122834512913,3.7432775802563185 l 1.1102230246251565e-16,-0.9999999999999999 l 1.1102230246251565e-16,-0.9999999999999999 l -0.43365908458754415,-0.9010770213220914 l 0.0,0.0 l 0.0,0.0 l -0.43365908458754415,-0.9010770213220914 l 0.8673181691750891,1.802154042644176 l 0.4336590845875444,-0.9010770213220914 l 0.0,0.0 l 0.0,0.0 l 0.4336590845875444,-0.9010770213220914 l -0.8673181691750891,1.802154042644176 l 1.1102230246251565e-16,-0.9999999999999999 l 1.1102230246251565e-16,-0.9999999999999999 l 1.1102230246251565e-16,-0.9999999999999999 l 0.0,0.0 l 0.0,0.0 l 1.1102230246251565e-16,-0.9999999999999999 l 0.0,6.0 l -0.4336590845875442,-0.9010770213220916 l -0.4336590845875442,-0.9010770213220916 l -0.4336590845875442,-0.9010770213220916 l -0.4336590845875442,-0.9010770213220916 l -0.4336590845875442,-0.9010770213220916 l -0.4336590845875442,-0.9010770213220916 l -0.7815204724188186,-0.6238795967093861 l 0.0,0.0 l 0.0,0.0 l -0.7815204724188186,-0.6238795967093861 l 1.5630409448376383,1.2477591934187728 l 1.1102230246251565e-16,-0.9999999999999999 l 0.0,0.0 l 0.0,0.0 l 1.1102230246251565e-16,-0.9999999999999999 l 0.0,2.0 l -0.4336590845875442,-0.9010770213220916 l -0.4336590845875442,-0.9010770213220916 l -0.4336590845875442,-0.9010770213220916 l 0.0,0.0 l 0.0,0.0 l -0.4336590845875442,-0.9010770213220916 l 6.071227184225611,12.615078298509331 l -0.7815204724188187,-0.6238795967093861 l -0.7815204724188187,-0.6238795967093861 l -0.7815204724188187,-0.6238795967093861 l -0.7815204724188187,-0.6238795967093861 l -0.7815204724188187,-0.6238795967093861 l -0.7815204724188187,-0.6238795967093861 l -0.7815204724188187,-0.6238795967093861 l -0.7815204724188187,-0.6238795967093861 l -0.7815204724188187,-0.6238795967093861 l -0.7815204724188187,-0.6238795967093861 l -0.7815204724188187,-0.6238795967093861 l -0.7815204724188187,-0.6238795967093861 l -0.9747611941912216,-0.2232501160109513 l -0.9747611941912216,-0.2232501160109513 l -0.975149354305563,0.2215484976194673 l 0.0,0.0 l 0.0,0.0 l -0.975149354305563,0.2215484976194673 l 1.950298708611129,-0.44309699523893187 l -0.7815204724188186,-0.6238795967093861 l 0.0,0.0 l 0.0,0.0 l -0.7815204724188186,-0.6238795967093861 l 1.5630409448376383,1.2477591934187728 l -0.9747611941912216,-0.2232501160109513 l -0.9747611941912216,-0.2232501160109513 l -0.9747611941912216,-0.2232501160109513 l 0.0,0.0 l 0.0,0.0 l -0.9747611941912216,-0.2232501160109513 l 5.8485671651473226,1.3395006960657128 l -0.4336590845875442,-0.9010770213220916 l -0.4336590845875442,-0.9010770213220916 l -0.7815204724188186,-0.6238795967093861 l 0.0,0.0 l 0.0,0.0 l -0.7815204724188186,-0.6238795967093861 l 1.5630409448376383,1.2477591934187728 l 1.1102230246251565e-16,-0.9999999999999999 l 0.0,0.0 l 0.0,0.0 l 1.1102230246251565e-16,-0.9999999999999999 l 0.0,2.0 l -0.4336590845875442,-0.9010770213220916 l -0.4336590845875442,-0.9010770213220916 l -0.4336590845875442,-0.9010770213220916 l 0.0,0.0 l 0.0,0.0 l -0.4336590845875442,-0.9010770213220916 l 2.6019545075252566,5.406462127932571 l -0.7815204724188187,-0.6238795967093861 l -0.7815204724188187,-0.6238795967093861 l -0.7815204724188187,-0.6238795967093861 l -0.7815204724188187,-0.6238795967093861 l -0.7815204724188187,-0.6238795967093861 l -0.7815204724188187,-0.6238795967093861 l -0.9747611941912216,-0.2232501160109513 l 0.0,0.0 l 0.0,0.0 l -0.9747611941912216,-0.2232501160109513 l 1.9495223883824409,0.44650023202190425 l -0.4336590845875442,-0.9010770213220916 l 0.0,0.0 l 0.0,0.0 l -0.4336590845875442,-0.9010770213220916 l 0.8673181691750855,1.8021540426441902 l -0.7815204724188187,-0.6238795967093861 l -0.7815204724188187,-0.6238795967093861 l -0.7815204724188187,-0.6238795967093861 l 0.0,0.0 l 0.0,0.0 l -0.7815204724188187,-0.6238795967093861 l 23.445614172564575,18.716387901281593 l 5.551115123125783e-17,-0.9999999999999999 l 5.551115123125783e-17,-0.9999999999999999 l 5.551115123125783e-17,-0.9999999999999999 l 5.551115123125783e-17,-0.9999999999999999 l 5.551115123125783e-17,-0.9999999999999999 l 5.551115123125783e-17,-0.9999999999999999 l 5.551115123125783e-17,-0.9999999999999999 l 5.551115123125783e-17,-0.9999999999999999 l -0.4336590845875442,-0.9010770213220914 l -0.4336590845875442,-0.9010770213220914 l -0.4336590845875442,-0.9010770213220914 l -0.4336590845875442,-0.9010770213220914 l -0.7815204724188185,-0.6238795967093861 l -0.7815204724188185,-0.6238795967093861 l -0.9747611941912215,-0.2232501160109514 l 0.0,0.0 l 0.0,0.0 l -0.9747611941912215,-0.2232501160109514 l 1.9495223883824444,0.44650023202190425 l -0.4336590845875441,-0.9010770213220913 l 0.0,0.0 l 0.0,0.0 l -0.4336590845875441,-0.9010770213220913 l 0.8673181691750891,1.802154042644176 l -0.7815204724188185,-0.6238795967093861 l -0.7815204724188185,-0.6238795967093861 l -0.7815204724188185,-0.6238795967093861 l 0.0,0.0 l 0.0,0.0 l -0.7815204724188185,-0.6238795967093861 l 4.689122834512915,3.7432775802563185 l 5.551115123125783e-17,-0.9999999999999999 l 5.551115123125783e-17,-0.9999999999999999 l -0.4336590845875442,-0.9010770213220914 l 0.0,0.0 l 0.0,0.0 l -0.4336590845875442,-0.9010770213220914 l 0.8673181691750891,1.802154042644176 l 0.4336590845875443,-0.9010770213220914 l 0.0,0.0 l 0.0,0.0 l 0.4336590845875443,-0.9010770213220914 l -0.8673181691750891,1.802154042644176 l 5.551115123125783e-17,-0.9999999999999999 l 5.551115123125783e-17,-0.9999999999999999 l 5.551115123125783e-17,-0.9999999999999999 l 0.0,0.0 l 0.0,0.0 l 5.551115123125783e-17,-0.9999999999999999 l 0.0,6.0 l -0.4336590845875442,-0.9010770213220914 l -0.4336590845875442,-0.9010770213220914 l -0.4336590845875442,-0.9010770213220914 l -0.4336590845875442,-0.9010770213220914 l -0.4336590845875442,-0.9010770213220914 l -0.4336590845875442,-0.9010770213220914 l -0.7815204724188185,-0.6238795967093861 l 0.0,0.0 l 0.0,0.0 l -0.7815204724188185,-0.6238795967093861 l 1.5630409448376383,1.2477591934187728 l 5.551115123125783e-17,-0.9999999999999999 l 0.0,0.0 l 0.0,0.0 l 5.551115123125783e-17,-0.9999999999999999 l 0.0,2.0 l -0.4336590845875442,-0.9010770213220914 l -0.4336590845875442,-0.9010770213220914 l -0.4336590845875442,-0.9010770213220914 l 0.0,0.0 l 0.0,0.0 l -0.4336590845875442,-0.9010770213220914 l 6.071227184225624,12.61507829850926 l 0.4336590845875443,-0.9010770213220914 l 0.4336590845875443,-0.9010770213220914 l 0.4336590845875443,-0.9010770213220914 l 0.4336590845875443,-0.9010770213220914 l 5.551115123125783e-17,-0.9999999999999999 l 5.551115123125783e-17,-0.9999999999999999 l -0.4336590845875442,-0.9010770213220914 l 0.0,0.0 l 0.0,0.0 l -0.4336590845875442,-0.9010770213220914 l 0.8673181691750891,1.802154042644176 l 0.4336590845875443,-0.9010770213220914 l 0.0,0.0 l 0.0,0.0 l 0.4336590845875443,-0.9010770213220914 l -0.8673181691750891,1.802154042644176 l 5.551115123125783e-17,-0.9999999999999999 l 5.551115123125783e-17,-0.9999999999999999 l 5.551115123125783e-17,-0.9999999999999999 l 0.0,0.0 l 0.0,0.0 l 5.551115123125783e-17,-0.9999999999999999 l 0.0,6.0 l 0.7815204724188187,-0.6238795967093861 l 0.7815204724188187,-0.6238795967093861 l 0.4336590845875442,-0.9010770213220916 l 0.0,0.0 l 0.0,0.0 l 0.4336590845875442,-0.9010770213220916 l -0.8673181691750882,1.8021540426441902 l 0.9747611941912216,-0.2232501160109513 l 0.0,0.0 l 0.0,0.0 l 0.9747611941912216,-0.2232501160109513 l -1.9495223883824435,0.44650023202190425 l 0.7815204724188187,-0.6238795967093861 l 0.7815204724188187,-0.6238795967093861 l 0.7815204724188187,-0.6238795967093861 l 0.0,0.0 l 0.0,0.0 l 0.7815204724188187,-0.6238795967093861 l -4.689122834512913,3.7432775802563185 l 0.4336590845875443,-0.9010770213220914 l 0.4336590845875443,-0.9010770213220914 l 0.4336590845875443,-0.9010770213220914 l 0.4336590845875443,-0.9010770213220914 l 0.4336590845875443,-0.9010770213220914 l 0.4336590845875443,-0.9010770213220914 l 5.551115123125783e-17,-0.9999999999999999 l 0.0,0.0 l 0.0,0.0 l 5.551115123125783e-17,-0.9999999999999999 l 0.0,2.0 l 0.7815204724188187,-0.6238795967093861 l 0.0,0.0 l 0.0,0.0 l 0.7815204724188187,-0.6238795967093861 l -1.5630409448376374,1.2477591934187728 l 0.4336590845875443,-0.9010770213220914 l 0.4336590845875443,-0.9010770213220914 l 0.4336590845875443,-0.9010770213220914 l 0.0,0.0 l 0.0,0.0 l 0.4336590845875443,-0.9010770213220914 l -6.071227184225623,12.61507829850926 l 5.551115123125783e-17,-0.9999999999999999 l 5.551115123125783e-17,-0.9999999999999999 l 5.551115123125783e-17,-0.9999999999999999 l 5.551115123125783e-17,-0.9999999999999999 l 5.551115123125783e-17,-0.9999999999999999 l 5.551115123125783e-17,-0.9999999999999999 l 5.551115123125783e-17,-0.9999999999999999 l 5.551115123125783e-17,-0.9999999999999999 l 5.551115123125783e-17,-0.9999999999999999 l 5.551115123125783e-17,-0.9999999999999999 l 5.551115123125783e-17,-0.9999999999999999 l 5.551115123125783e-17,-0.9999999999999999 l -0.4336590845875442,-0.9010770213220914 l -0.4336590845875442,-0.9010770213220914 l -0.7815204724188185,-0.6238795967093861 l 0.0,0.0 l 0.0,0.0 l -0.7815204724188185,-0.6238795967093861 l 1.5630409448376383,1.2477591934187728 l 5.551115123125783e-17,-0.9999999999999999 l 0.0,0.0 l 0.0,0.0 l 5.551115123125783e-17,-0.9999999999999999 l 0.0,2.0 l -0.4336590845875442,-0.9010770213220914 l -0.4336590845875442,-0.9010770213220914 l -0.4336590845875442,-0.9010770213220914 l 0.0,0.0 l 0.0,0.0 l -0.4336590845875442,-0.9010770213220914 l 2.6019545075252672,5.406462127932571 l 0.4336590845875443,-0.9010770213220914 l 0.4336590845875443,-0.9010770213220914 l 5.551115123125783e-17,-0.9999999999999999 l 0.0,0.0 l 0.0,0.0 l 5.551115123125783e-17,-0.9999999999999999 l 0.0,2.0 l 0.7815204724188187,-0.6238795967093861 l 0.0,0.0 l 0.0,0.0 l 0.7815204724188187,-0.6238795967093861 l -1.5630409448376383,1.2477591934187728 l 0.4336590845875443,-0.9010770213220914 l 0.4336590845875443,-0.9010770213220914 l 0.4336590845875443,-0.9010770213220914 l 0.0,0.0 l 0.0,0.0 l 0.4336590845875443,-0.9010770213220914 l -2.6019545075252672,5.406462127932571 l 5.551115123125783e-17,-0.9999999999999999 l 5.551115123125783e-17,-0.9999999999999999 l 5.551115123125783e-17,-0.9999999999999999 l 5.551115123125783e-17,-0.9999999999999999 l 5.551115123125783e-17,-0.9999999999999999 l 5.551115123125783e-17,-0.9999999999999999 l -0.4336590845875442,-0.9010770213220914 l 0.0,0.0 l 0.0,0.0 l -0.4336590845875442,-0.9010770213220914 l 0.8673181691750891,1.8021540426441902 l 0.4336590845875443,-0.9010770213220914 l 0.0,0.0 l 0.0,0.0 l 0.4336590845875443,-0.9010770213220914 l -0.8673181691750891,1.8021540426441902 l 5.551115123125783e-17,-0.9999999999999999 l 5.551115123125783e-17,-0.9999999999999999 l 5.551115123125783e-17,-0.9999999999999999 l 0.0,0.0 l 0.0,0.0 l 5.551115123125783e-17,-0.9999999999999999 l 0.0,30.0 l -0.43365908458754426,-0.9010770213220916 l -0.43365908458754426,-0.9010770213220916 l -0.43365908458754426,-0.9010770213220916 l -0.43365908458754426,-0.9010770213220916 l -0.43365908458754426,-0.9010770213220916 l -0.43365908458754426,-0.9010770213220916 l -0.43365908458754426,-0.9010770213220916 l -0.43365908458754426,-0.9010770213220916 l -0.43365908458754426,-0.9010770213220916 l -0.43365908458754426,-0.9010770213220916 l -0.43365908458754426,-0.9010770213220916 l -0.43365908458754426,-0.9010770213220916 l -0.43365908458754426,-0.9010770213220916 l -0.43365908458754426,-0.9010770213220916 l -0.43365908458754426,-0.9010770213220916 l -0.43365908458754426,-0.9010770213220916 l -0.43365908458754426,-0.9010770213220916 l -0.43365908458754426,-0.9010770213220916 l -0.43365908458754426,-0.9010770213220916 l -0.43365908458754426,-0.9010770213220916 l -0.43365908458754426,-0.9010770213220916 l -0.43365908458754426,-0.9010770213220916 l -0.43365908458754426,-0.9010770213220916 l -0.43365908458754426,-0.9010770213220916 l -0.7815204724188187,-0.6238795967093861 l -0.7815204724188187,-0.6238795967093861 l -0.7815204724188187,-0.6238795967093861 l -0.7815204724188187,-0.6238795967093861 l -0.9747611941912216,-0.2232501160109513 l -0.9747611941912216,-0.2232501160109513 l -0.975149354305563,0.2215484976194673 l 0.0,0.0 l 0.0,0.0 l -0.975149354305563,0.2215484976194673 l 1.950298708611129,-0.44309699523893187 l -0.7815204724188186,-0.6238795967093861 l 0.0,0.0 l 0.0,0.0 l -0.7815204724188186,-0.6238795967093861 l 1.5630409448376383,1.2477591934187728 l -0.9747611941912216,-0.2232501160109513 l -0.9747611941912216,-0.2232501160109513 l -0.9747611941912216,-0.2232501160109513 l 0.0,0.0 l 0.0,0.0 l -0.9747611941912216,-0.2232501160109513 l 5.8485671651473226,1.3395006960656701 l -0.4336590845875442,-0.9010770213220916 l -0.4336590845875442,-0.9010770213220916 l -0.7815204724188186,-0.6238795967093861 l 0.0,0.0 l 0.0,0.0 l -0.7815204724188186,-0.6238795967093861 l 1.5630409448376383,1.2477591934187728 l 1.1102230246251565e-16,-0.9999999999999999 l 0.0,0.0 l 0.0,0.0 l 1.1102230246251565e-16,-0.9999999999999999 l 0.0,2.0 l -0.4336590845875442,-0.9010770213220916 l -0.4336590845875442,-0.9010770213220916 l -0.4336590845875442,-0.9010770213220916 l 0.0,0.0 l 0.0,0.0 l -0.4336590845875442,-0.9010770213220916 l 2.6019545075252566,5.406462127932571 l -0.7815204724188187,-0.6238795967093861 l -0.7815204724188187,-0.6238795967093861 l -0.7815204724188187,-0.6238795967093861 l -0.7815204724188187,-0.6238795967093861 l -0.7815204724188187,-0.6238795967093861 l -0.7815204724188187,-0.6238795967093861 l -0.9747611941912216,-0.2232501160109513 l 0.0,0.0 l 0.0,0.0 l -0.9747611941912216,-0.2232501160109513 l 1.9495223883824409,0.44650023202189004 l -0.4336590845875442,-0.9010770213220916 l 0.0,0.0 l 0.0,0.0 l -0.4336590845875442,-0.9010770213220916 l 0.8673181691750855,1.8021540426441902 l -0.7815204724188187,-0.6238795967093861 l -0.7815204724188187,-0.6238795967093861 l -0.7815204724188187,-0.6238795967093861 l 0.0,0.0 l 0.0,0.0 l -0.7815204724188187,-0.6238795967093861 l 10.941286613863468,8.73431435393141 l 5.551115123125783e-17,-0.9999999999999999 l 5.551115123125783e-17,-0.9999999999999999 l 5.551115123125783e-17,-0.9999999999999999 l 5.551115123125783e-17,-0.9999999999999999 l -0.4336590845875442,-0.9010770213220914 l -0.4336590845875442,-0.9010770213220914 l -0.7815204724188185,-0.6238795967093861 l 0.0,0.0 l 0.0,0.0 l -0.7815204724188185,-0.6238795967093861 l 1.5630409448376383,1.2477591934187728 l 5.551115123125783e-17,-0.9999999999999999 l 0.0,0.0 l 0.0,0.0 l 5.551115123125783e-17,-0.9999999999999999 l 0.0,2.0 l -0.4336590845875442,-0.9010770213220914 l -0.4336590845875442,-0.9010770213220914 l -0.4336590845875442,-0.9010770213220914 l 0.0,0.0 l 0.0,0.0 l -0.4336590845875442,-0.9010770213220914 l 2.6019545075252566,5.406462127932571 l 0.4336590845875443,-0.9010770213220914 l 0.4336590845875443,-0.9010770213220914 l 5.551115123125783e-17,-0.9999999999999999 l 0.0,0.0 l 0.0,0.0 l 5.551115123125783e-17,-0.9999999999999999 l 0.0,2.0 l 0.7815204724188187,-0.6238795967093861 l 0.0,0.0 l 0.0,0.0 l 0.7815204724188187,-0.6238795967093861 l -1.5630409448376383,1.2477591934187728 l 0.4336590845875443,-0.9010770213220914 l 0.4336590845875443,-0.9010770213220914 l 0.4336590845875443,-0.9010770213220914 l 0.0,0.0 l 0.0,0.0 l 0.4336590845875443,-0.9010770213220914 l -2.601954507525262,5.406462127932571 l 5.551115123125783e-17,-0.9999999999999999 l 5.551115123125783e-17,-0.9999999999999999 l 5.551115123125783e-17,-0.9999999999999999 l 5.551115123125783e-17,-0.9999999999999999 l 5.551115123125783e-17,-0.9999999999999999 l 5.551115123125783e-17,-0.9999999999999999 l -0.4336590845875442,-0.9010770213220914 l 0.0,0.0 l 0.0,0.0 l -0.4336590845875442,-0.9010770213220914 l 0.8673181691750855,1.8021540426441902 l 0.4336590845875443,-0.9010770213220914 l 0.0,0.0 l 0.0,0.0 l 0.4336590845875443,-0.9010770213220914 l -0.8673181691750855,1.8021540426441902 l 5.551115123125783e-17,-0.9999999999999999 l 5.551115123125783e-17,-0.9999999999999999 l 5.551115123125783e-17,-0.9999999999999999 l 0.0,0.0 l 0.0,0.0 l 5.551115123125783e-17,-0.9999999999999999 l 0.0,14.0 l -0.43365908458754426,-0.9010770213220916 l -0.43365908458754426,-0.9010770213220916 l -0.43365908458754426,-0.9010770213220916 l -0.43365908458754426,-0.9010770213220916 l -0.43365908458754426,-0.9010770213220916 l -0.43365908458754426,-0.9010770213220916 l -0.43365908458754426,-0.9010770213220916 l -0.43365908458754426,-0.9010770213220916 l -0.43365908458754426,-0.9010770213220916 l -0.43365908458754426,-0.9010770213220916 l -0.43365908458754426,-0.9010770213220916 l -0.43365908458754426,-0.9010770213220916 l -0.7815204724188187,-0.6238795967093861 l -0.7815204724188187,-0.6238795967093861 l -0.9747611941912216,-0.2232501160109513 l 0.0,0.0 l 0.0,0.0 l -0.9747611941912216,-0.2232501160109513 l 1.9495223883824409,0.44650023202189004 l -0.4336590845875442,-0.9010770213220916 l 0.0,0.0 l 0.0,0.0 l -0.4336590845875442,-0.9010770213220916 l 0.8673181691750855,1.8021540426441902 l -0.7815204724188187,-0.6238795967093861 l -0.7815204724188187,-0.6238795967093861 l -0.7815204724188187,-0.6238795967093861 l 0.0,0.0 l 0.0,0.0 l -0.7815204724188187,-0.6238795967093861 l 4.689122834512915,3.7432775802563185 l 5.551115123125783e-17,-0.9999999999999999 l 5.551115123125783e-17,-0.9999999999999999 l -0.4336590845875442,-0.9010770213220914 l 0.0,0.0 l 0.0,0.0 l -0.4336590845875442,-0.9010770213220914 l 0.8673181691750855,1.8021540426441902 l 0.4336590845875443,-0.9010770213220914 l 0.0,0.0 l 0.0,0.0 l 0.4336590845875443,-0.9010770213220914 l -0.8673181691750855,1.8021540426441902 l 5.551115123125783e-17,-0.9999999999999999 l 5.551115123125783e-17,-0.9999999999999999 l 5.551115123125783e-17,-0.9999999999999999 l 0.0,0.0 l 0.0,0.0 l 5.551115123125783e-17,-0.9999999999999999 l 0.0,6.0 l -0.43365908458754426,-0.9010770213220916 l -0.43365908458754426,-0.9010770213220916 l -0.43365908458754426,-0.9010770213220916 l -0.43365908458754426,-0.9010770213220916 l -0.43365908458754426,-0.9010770213220916 l -0.43365908458754426,-0.9010770213220916 l -0.7815204724188187,-0.6238795967093861 l 0.0,0.0 l 0.0,0.0 l -0.7815204724188187,-0.6238795967093861 l 1.5630409448376383,1.2477591934187728 l 5.551115123125783e-17,-0.9999999999999999 l 0.0,0.0 l 0.0,0.0 l 5.551115123125783e-17,-0.9999999999999999 l 0.0,2.0 l -0.43365908458754426,-0.9010770213220916 l -0.43365908458754426,-0.9010770213220916 l -0.43365908458754426,-0.9010770213220916 l 0.0,0.0 l 0.0,0.0 l -0.43365908458754426,-0.9010770213220916 l 26.886863244427715,55.8667753219699 l 0.4336590845875444,-0.9010770213220916 l 0.4336590845875444,-0.9010770213220916 l 0.4336590845875444,-0.9010770213220916 l 0.4336590845875444,-0.9010770213220916 l 0.4336590845875444,-0.9010770213220916 l 0.4336590845875444,-0.9010770213220916 l 0.4336590845875444,-0.9010770213220916 l 0.4336590845875444,-0.9010770213220916 l 0.4336590845875444,-0.9010770213220916 l 0.4336590845875444,-0.9010770213220916 l 0.4336590845875444,-0.9010770213220916 l 0.4336590845875444,-0.9010770213220916 l 0.4336590845875444,-0.9010770213220916 l 0.4336590845875444,-0.9010770213220916 l 0.4336590845875444,-0.9010770213220916 l 0.4336590845875444,-0.9010770213220916 l 5.551115123125783e-17,-0.9999999999999999 l 5.551115123125783e-17,-0.9999999999999999 l 5.551115123125783e-17,-0.9999999999999999 l 5.551115123125783e-17,-0.9999999999999999 l 5.551115123125783e-17,-0.9999999999999999 l 5.551115123125783e-17,-0.9999999999999999 l 5.551115123125783e-17,-0.9999999999999999 l 5.551115123125783e-17,-0.9999999999999999 l -0.4336590845875442,-0.9010770213220914 l -0.4336590845875442,-0.9010770213220914 l -0.4336590845875442,-0.9010770213220914 l -0.4336590845875442,-0.9010770213220914 l -0.7815204724188185,-0.6238795967093861 l -0.7815204724188185,-0.6238795967093861 l -0.9747611941912215,-0.2232501160109514 l 0.0,0.0 l 0.0,0.0 l -0.9747611941912215,-0.2232501160109514 l 1.9495223883824429,0.44650023202190425 l -0.4336590845875441,-0.9010770213220913 l 0.0,0.0 l 0.0,0.0 l -0.4336590845875441,-0.9010770213220913 l 0.8673181691750882,1.802154042644176 l -0.7815204724188185,-0.6238795967093861 l -0.7815204724188185,-0.6238795967093861 l -0.7815204724188185,-0.6238795967093861 l 0.0,0.0 l 0.0,0.0 l -0.7815204724188185,-0.6238795967093861 l 4.68912283451291,3.7432775802563185 l 5.551115123125783e-17,-0.9999999999999999 l 5.551115123125783e-17,-0.9999999999999999 l -0.4336590845875442,-0.9010770213220914 l 0.0,0.0 l 0.0,0.0 l -0.4336590845875442,-0.9010770213220914 l 0.8673181691750891,1.802154042644176 l 0.4336590845875443,-0.9010770213220914 l 0.0,0.0 l 0.0,0.0 l 0.4336590845875443,-0.9010770213220914 l -0.8673181691750891,1.802154042644176 l 5.551115123125783e-17,-0.9999999999999999 l 5.551115123125783e-17,-0.9999999999999999 l 5.551115123125783e-17,-0.9999999999999999 l 0.0,0.0 l 0.0,0.0 l 5.551115123125783e-17,-0.9999999999999999 l 0.0,6.0 l -0.4336590845875442,-0.9010770213220914 l -0.4336590845875442,-0.9010770213220914 l -0.4336590845875442,-0.9010770213220914 l -0.4336590845875442,-0.9010770213220914 l -0.4336590845875442,-0.9010770213220914 l -0.4336590845875442,-0.9010770213220914 l -0.7815204724188185,-0.6238795967093861 l 0.0,0.0 l 0.0,0.0 l -0.7815204724188185,-0.6238795967093861 l 1.563040944837637,1.2477591934187728 l 5.551115123125783e-17,-0.9999999999999999 l 0.0,0.0 l 0.0,0.0 l 5.551115123125783e-17,-0.9999999999999999 l 0.0,2.0 l -0.4336590845875442,-0.9010770213220914 l -0.4336590845875442,-0.9010770213220914 l -0.4336590845875442,-0.9010770213220914 l 0.0,0.0 l 0.0,0.0 l -0.4336590845875442,-0.9010770213220914 l 6.07122718422562,12.61507829850926 l 0.4336590845875443,-0.9010770213220914 l 0.4336590845875443,-0.9010770213220914 l 0.4336590845875443,-0.9010770213220914 l 0.4336590845875443,-0.9010770213220914 l 5.551115123125783e-17,-0.9999999999999999 l 5.551115123125783e-17,-0.9999999999999999 l -0.4336590845875442,-0.9010770213220914 l 0.0,0.0 l 0.0,0.0 l -0.4336590845875442,-0.9010770213220914 l 0.8673181691750891,1.802154042644176 l 0.4336590845875443,-0.9010770213220914 l 0.0,0.0 l 0.0,0.0 l 0.4336590845875443,-0.9010770213220914 l -0.8673181691750891,1.802154042644176 l 5.551115123125783e-17,-0.9999999999999999 l 5.551115123125783e-17,-0.9999999999999999 l 5.551115123125783e-17,-0.9999999999999999 l 0.0,0.0 l 0.0,0.0 l 5.551115123125783e-17,-0.9999999999999999 l 0.0,6.0 l 0.7815204724188187,-0.6238795967093861 l 0.7815204724188187,-0.6238795967093861 l 0.4336590845875442,-0.9010770213220916 l 0.0,0.0 l 0.0,0.0 l 0.4336590845875442,-0.9010770213220916 l -0.8673181691750891,1.8021540426441902 l 0.9747611941912216,-0.2232501160109513 l 0.0,0.0 l 0.0,0.0 l 0.9747611941912216,-0.2232501160109513 l -1.9495223883824444,0.44650023202190425 l 0.7815204724188187,-0.6238795967093861 l 0.7815204724188187,-0.6238795967093861 l 0.7815204724188187,-0.6238795967093861 l 0.0,0.0 l 0.0,0.0 l 0.7815204724188187,-0.6238795967093861 l -4.689122834512915,3.7432775802563185 l 0.4336590845875443,-0.9010770213220914 l 0.4336590845875443,-0.9010770213220914 l 0.4336590845875443,-0.9010770213220914 l 0.4336590845875443,-0.9010770213220914 l 0.4336590845875443,-0.9010770213220914 l 0.4336590845875443,-0.9010770213220914 l 5.551115123125783e-17,-0.9999999999999999 l 0.0,0.0 l 0.0,0.0 l 5.551115123125783e-17,-0.9999999999999999 l 0.0,2.0 l 0.7815204724188187,-0.6238795967093861 l 0.0,0.0 l 0.0,0.0 l 0.7815204724188187,-0.6238795967093861 l -1.5630409448376383,1.2477591934187728 l 0.4336590845875443,-0.9010770213220914 l 0.4336590845875443,-0.9010770213220914 l 0.4336590845875443,-0.9010770213220914 l 0.0,0.0 l 0.0,0.0 l 0.4336590845875443,-0.9010770213220914 l -6.071227184225623,12.61507829850926 l 5.551115123125783e-17,-0.9999999999999999 l 5.551115123125783e-17,-0.9999999999999999 l 5.551115123125783e-17,-0.9999999999999999 l 5.551115123125783e-17,-0.9999999999999999 l 5.551115123125783e-17,-0.9999999999999999 l 5.551115123125783e-17,-0.9999999999999999 l 5.551115123125783e-17,-0.9999999999999999 l 5.551115123125783e-17,-0.9999999999999999 l 5.551115123125783e-17,-0.9999999999999999 l 5.551115123125783e-17,-0.9999999999999999 l 5.551115123125783e-17,-0.9999999999999999 l 5.551115123125783e-17,-0.9999999999999999 l -0.4336590845875442,-0.9010770213220914 l -0.4336590845875442,-0.9010770213220914 l -0.7815204724188185,-0.6238795967093861 l 0.0,0.0 l 0.0,0.0 l -0.7815204724188185,-0.6238795967093861 l 1.5630409448376366,1.2477591934187728 l 5.551115123125783e-17,-0.9999999999999999 l 0.0,0.0 l 0.0,0.0 l 5.551115123125783e-17,-0.9999999999999999 l 0.0,2.0 l -0.4336590845875442,-0.9010770213220914 l -0.4336590845875442,-0.9010770213220914 l -0.4336590845875442,-0.9010770213220914 l 0.0,0.0 l 0.0,0.0 l -0.4336590845875442,-0.9010770213220914 l 2.6019545075252672,5.406462127932571 l 0.4336590845875443,-0.9010770213220914 l 0.4336590845875443,-0.9010770213220914 l 5.551115123125783e-17,-0.9999999999999999 l 0.0,0.0 l 0.0,0.0 l 5.551115123125783e-17,-0.9999999999999999 l 0.0,2.0 l 0.7815204724188187,-0.6238795967093861 l 0.0,0.0 l 0.0,0.0 l 0.7815204724188187,-0.6238795967093861 l -1.5630409448376374,1.2477591934187728 l 0.4336590845875443,-0.9010770213220914 l 0.4336590845875443,-0.9010770213220914 l 0.4336590845875443,-0.9010770213220914 l 0.0,0.0 l 0.0,0.0 l 0.4336590845875443,-0.9010770213220914 l -2.6019545075252664,5.406462127932571 l 5.551115123125783e-17,-0.9999999999999999 l 5.551115123125783e-17,-0.9999999999999999 l 5.551115123125783e-17,-0.9999999999999999 l 5.551115123125783e-17,-0.9999999999999999 l 5.551115123125783e-17,-0.9999999999999999 l 5.551115123125783e-17,-0.9999999999999999 l -0.4336590845875442,-0.9010770213220914 l 0.0,0.0 l 0.0,0.0 l -0.4336590845875442,-0.9010770213220914 l 0.8673181691750891,1.8021540426441902 l 0.4336590845875443,-0.9010770213220914 l 0.0,0.0 l 0.0,0.0 l 0.4336590845875443,-0.9010770213220914 l -0.8673181691750891,1.8021540426441902 l 5.551115123125783e-17,-0.9999999999999999 l 5.551115123125783e-17,-0.9999999999999999 l 5.551115123125783e-17,-0.9999999999999999 l 0.0,0.0 l 0.0,0.0 l 5.551115123125783e-17,-0.9999999999999999 l 0.0,30.0 l 0.7815204724188187,-0.6238795967093861 l 0.7815204724188187,-0.6238795967093861 l 0.7815204724188187,-0.6238795967093861 l 0.7815204724188187,-0.6238795967093861 l 0.7815204724188187,-0.6238795967093861 l 0.7815204724188187,-0.6238795967093861 l 0.7815204724188187,-0.6238795967093861 l 0.7815204724188187,-0.6238795967093861 l 0.4336590845875442,-0.9010770213220916 l 0.4336590845875442,-0.9010770213220916 l 0.4336590845875442,-0.9010770213220916 l 0.4336590845875442,-0.9010770213220916 l -1.1102230246251565e-16,-0.9999999999999999 l -1.1102230246251565e-16,-0.9999999999999999 l -0.4336590845875444,-0.9010770213220914 l 0.0,0.0 l 0.0,0.0 l -0.4336590845875444,-0.9010770213220914 l 0.8673181691750891,1.802154042644176 l 0.43365908458754415,-0.9010770213220914 l 0.0,0.0 l 0.0,0.0 l 0.43365908458754415,-0.9010770213220914 l -0.8673181691750891,1.802154042644176 l -1.1102230246251565e-16,-0.9999999999999999 l -1.1102230246251565e-16,-0.9999999999999999 l -1.1102230246251565e-16,-0.9999999999999999 l 0.0,0.0 l 0.0,0.0 l -1.1102230246251565e-16,-0.9999999999999999 l 0.0,6.0 l 0.7815204724188186,-0.6238795967093861 l 0.7815204724188186,-0.6238795967093861 l 0.4336590845875442,-0.9010770213220914 l 0.0,0.0 l 0.0,0.0 l 0.4336590845875442,-0.9010770213220914 l -0.8673181691750855,1.802154042644176 l 0.9747611941912216,-0.22325011601095135 l 0.0,0.0 l 0.0,0.0 l 0.9747611941912216,-0.22325011601095135 l -1.9495223883824409,0.44650023202190425 l 0.7815204724188186,-0.6238795967093861 l 0.7815204724188186,-0.6238795967093861 l 0.7815204724188186,-0.6238795967093861 l 0.0,0.0 l 0.0,0.0 l 0.7815204724188186,-0.6238795967093861 l -4.689122834512915,3.7432775802563185 l 0.4336590845875442,-0.9010770213220916 l 0.4336590845875442,-0.9010770213220916 l 0.4336590845875442,-0.9010770213220916 l 0.4336590845875442,-0.9010770213220916 l 0.4336590845875442,-0.9010770213220916 l 0.4336590845875442,-0.9010770213220916 l -1.1102230246251565e-16,-0.9999999999999999 l 0.0,0.0 l 0.0,0.0 l -1.1102230246251565e-16,-0.9999999999999999 l 0.0,2.0 l 0.7815204724188186,-0.6238795967093861 l 0.0,0.0 l 0.0,0.0 l 0.7815204724188186,-0.6238795967093861 l -1.5630409448376383,1.2477591934187728 l 0.4336590845875442,-0.9010770213220916 l 0.4336590845875442,-0.9010770213220916 l 0.4336590845875442,-0.9010770213220916 l 0.0,0.0 l 0.0,0.0 l 0.4336590845875442,-0.9010770213220916 l -6.071227184225609,12.615078298509331 l 0.9747611941912216,-0.2232501160109513 l 0.9747611941912216,-0.2232501160109513 l 0.9747611941912216,-0.2232501160109513 l 0.9747611941912216,-0.2232501160109513 l 0.7815204724188186,-0.6238795967093861 l 0.7815204724188186,-0.6238795967093861 l 0.4336590845875442,-0.9010770213220914 l 0.0,0.0 l 0.0,0.0 l 0.4336590845875442,-0.9010770213220914 l -0.8673181691750855,1.802154042644176 l 0.9747611941912216,-0.22325011601095135 l 0.0,0.0 l 0.0,0.0 l 0.9747611941912216,-0.22325011601095135 l -1.9495223883824409,0.44650023202190425 l 0.7815204724188186,-0.6238795967093861 l 0.7815204724188186,-0.6238795967093861 l 0.7815204724188186,-0.6238795967093861 l 0.0,0.0 l 0.0,0.0 l 0.7815204724188186,-0.6238795967093861 l -4.689122834512915,3.7432775802563185 l 0.975149354305563,0.2215484976194673 l 0.975149354305563,0.2215484976194673 l 0.9747611941912215,-0.2232501160109513 l 0.0,0.0 l 0.0,0.0 l 0.9747611941912215,-0.2232501160109513 l -1.9495223883824409,0.44650023202190425 l 0.7826081568524137,0.6225146366376195 l 0.0,0.0 l 0.0,0.0 l 0.7826081568524137,0.6225146366376195 l -1.5652163137048305,-1.245029273275236 l 0.975149354305563,0.2215484976194673 l 0.975149354305563,0.2215484976194673 l 0.975149354305563,0.2215484976194673 l 0.0,0.0 l 0.0,0.0 l 0.975149354305563,0.2215484976194673 l -5.850896125833387,-1.3292909857167956 l 0.9747611941912216,-0.2232501160109513 l 0.9747611941912216,-0.2232501160109513 l 0.9747611941912216,-0.2232501160109513 l 0.9747611941912216,-0.2232501160109513 l 0.9747611941912216,-0.2232501160109513 l 0.9747611941912216,-0.2232501160109513 l 0.7815204724188186,-0.6238795967093861 l 0.0,0.0 l 0.0,0.0 l 0.7815204724188186,-0.6238795967093861 l -1.5630409448376383,1.2477591934187728 l 0.975149354305563,0.2215484976194673 l 0.0,0.0 l 0.0,0.0 l 0.975149354305563,0.2215484976194673 l -1.950298708611129,-0.44309699523893187 l 0.9747611941912216,-0.2232501160109513 l 0.9747611941912216,-0.2232501160109513 l 0.9747611941912216,-0.2232501160109513 l 0.0,0.0 l 0.0,0.0 l 0.9747611941912216,-0.2232501160109513 l -13.64665671867709,3.1255016241533298 l 0.7815204724188187,-0.6238795967093861 l 0.7815204724188187,-0.6238795967093861 l 0.7815204724188187,-0.6238795967093861 l 0.7815204724188187,-0.6238795967093861 l 0.7815204724188187,-0.6238795967093861 l 0.7815204724188187,-0.6238795967093861 l 0.7815204724188187,-0.6238795967093861 l 0.7815204724188187,-0.6238795967093861 l 0.7815204724188187,-0.6238795967093861 l 0.7815204724188187,-0.6238795967093861 l 0.7815204724188187,-0.6238795967093861 l 0.7815204724188187,-0.6238795967093861 l 0.4336590845875442,-0.9010770213220916 l 0.4336590845875442,-0.9010770213220916 l -1.1102230246251565e-16,-0.9999999999999999 l 0.0,0.0 l 0.0,0.0 l -1.1102230246251565e-16,-0.9999999999999999 l 0.0,2.0 l 0.7815204724188186,-0.6238795967093861 l 0.0,0.0 l 0.0,0.0 l 0.7815204724188186,-0.6238795967093861 l -1.5630409448376383,1.2477591934187728 l 0.4336590845875442,-0.9010770213220916 l 0.4336590845875442,-0.9010770213220916 l 0.4336590845875442,-0.9010770213220916 l 0.0,0.0 l 0.0,0.0 l 0.4336590845875442,-0.9010770213220916 l -2.6019545075252566,5.406462127932571 l 0.9747611941912216,-0.2232501160109513 l 0.9747611941912216,-0.2232501160109513 l 0.7815204724188186,-0.6238795967093861 l 0.0,0.0 l 0.0,0.0 l 0.7815204724188186,-0.6238795967093861 l -1.5630409448376383,1.2477591934187728 l 0.975149354305563,0.2215484976194673 l 0.0,0.0 l 0.0,0.0 l 0.975149354305563,0.2215484976194673 l -1.950298708611129,-0.44309699523893187 l 0.9747611941912216,-0.2232501160109513 l 0.9747611941912216,-0.2232501160109513 l 0.9747611941912216,-0.2232501160109513 l 0.0,0.0 l 0.0,0.0 l 0.9747611941912216,-0.2232501160109513 l -5.8485671651473226,1.3395006960657128 l 0.7815204724188187,-0.6238795967093861 l 0.7815204724188187,-0.6238795967093861 l 0.7815204724188187,-0.6238795967093861 l 0.7815204724188187,-0.6238795967093861 l 0.7815204724188187,-0.6238795967093861 l 0.7815204724188187,-0.6238795967093861 l 0.4336590845875442,-0.9010770213220916 l 0.0,0.0 l 0.0,0.0 l 0.4336590845875442,-0.9010770213220916 l -0.8673181691750855,1.8021540426441902 l 0.9747611941912216,-0.2232501160109513 l 0.0,0.0 l 0.0,0.0 l 0.9747611941912216,-0.2232501160109513 l -1.9495223883824409,0.44650023202190425 l 0.7815204724188187,-0.6238795967093861 l 0.7815204724188187,-0.6238795967093861 l 0.7815204724188187,-0.6238795967093861 l 0.0,0.0 l 0.0,0.0 l 0.7815204724188187,-0.6238795967093861 l -23.445614172564575,18.716387901281593 l 0.4336590845875444,-0.9010770213220916 l 0.4336590845875444,-0.9010770213220916 l 0.4336590845875444,-0.9010770213220916 l 0.4336590845875444,-0.9010770213220916 l 0.4336590845875444,-0.9010770213220916 l 0.4336590845875444,-0.9010770213220916 l 0.4336590845875444,-0.9010770213220916 l 0.4336590845875444,-0.9010770213220916 l 0.4336590845875444,-0.9010770213220916 l 0.4336590845875444,-0.9010770213220916 l 0.4336590845875444,-0.9010770213220916 l 0.4336590845875444,-0.9010770213220916 l 0.4336590845875444,-0.9010770213220916 l 0.4336590845875444,-0.9010770213220916 l 0.4336590845875444,-0.9010770213220916 l 0.4336590845875444,-0.9010770213220916 l 0.4336590845875444,-0.9010770213220916 l 0.4336590845875444,-0.9010770213220916 l 0.4336590845875444,-0.9010770213220916 l 0.4336590845875444,-0.9010770213220916 l 0.4336590845875444,-0.9010770213220916 l 0.4336590845875444,-0.9010770213220916 l 0.4336590845875444,-0.9010770213220916 l 0.4336590845875444,-0.9010770213220916 l 5.551115123125783e-17,-0.9999999999999999 l 5.551115123125783e-17,-0.9999999999999999 l 5.551115123125783e-17,-0.9999999999999999 l 5.551115123125783e-17,-0.9999999999999999 l -0.4336590845875442,-0.9010770213220914 l -0.4336590845875442,-0.9010770213220914 l -0.7815204724188185,-0.6238795967093861 l 0.0,0.0 l 0.0,0.0 l -0.7815204724188185,-0.6238795967093861 l 1.5630409448376383,1.2477591934187728 l 5.551115123125783e-17,-0.9999999999999999 l 0.0,0.0 l 0.0,0.0 l 5.551115123125783e-17,-0.9999999999999999 l 0.0,2.0 l -0.4336590845875442,-0.9010770213220914 l -0.4336590845875442,-0.9010770213220914 l -0.4336590845875442,-0.9010770213220914 l 0.0,0.0 l 0.0,0.0 l -0.4336590845875442,-0.9010770213220914 l 2.601954507525262,5.406462127932571 l 0.4336590845875443,-0.9010770213220914 l 0.4336590845875443,-0.9010770213220914 l 5.551115123125783e-17,-0.9999999999999999 l 0.0,0.0 l 0.0,0.0 l 5.551115123125783e-17,-0.9999999999999999 l 0.0,2.0 l 0.7815204724188187,-0.6238795967093861 l 0.0,0.0 l 0.0,0.0 l 0.7815204724188187,-0.6238795967093861 l -1.5630409448376383,1.2477591934187728 l 0.4336590845875443,-0.9010770213220914 l 0.4336590845875443,-0.9010770213220914 l 0.4336590845875443,-0.9010770213220914 l 0.0,0.0 l 0.0,0.0 l 0.4336590845875443,-0.9010770213220914 l -2.6019545075252566,5.406462127932571 l 5.551115123125783e-17,-0.9999999999999999 l 5.551115123125783e-17,-0.9999999999999999 l 5.551115123125783e-17,-0.9999999999999999 l 5.551115123125783e-17,-0.9999999999999999 l 5.551115123125783e-17,-0.9999999999999999 l 5.551115123125783e-17,-0.9999999999999999 l -0.4336590845875442,-0.9010770213220914 l 0.0,0.0 l 0.0,0.0 l -0.4336590845875442,-0.9010770213220914 l 0.8673181691750855,1.8021540426441902 l 0.4336590845875443,-0.9010770213220914 l 0.0,0.0 l 0.0,0.0 l 0.4336590845875443,-0.9010770213220914 l -0.8673181691750855,1.8021540426441902 l 5.551115123125783e-17,-0.9999999999999999 l 5.551115123125783e-17,-0.9999999999999999 l 5.551115123125783e-17,-0.9999999999999999 l 0.0,0.0 l 0.0,0.0 l 5.551115123125783e-17,-0.9999999999999999 l 0.0,14.0 l 0.7815204724188187,-0.6238795967093861 l 0.7815204724188187,-0.6238795967093861 l 0.7815204724188187,-0.6238795967093861 l 0.7815204724188187,-0.6238795967093861 l 0.4336590845875442,-0.9010770213220916 l 0.4336590845875442,-0.9010770213220916 l -1.1102230246251565e-16,-0.9999999999999999 l 0.0,0.0 l 0.0,0.0 l -1.1102230246251565e-16,-0.9999999999999999 l 0.0,2.0 l 0.7815204724188186,-0.6238795967093861 l 0.0,0.0 l 0.0,0.0 l 0.7815204724188186,-0.6238795967093861 l -1.5630409448376383,1.2477591934187728 l 0.4336590845875442,-0.9010770213220916 l 0.4336590845875442,-0.9010770213220916 l 0.4336590845875442,-0.9010770213220916 l 0.0,0.0 l 0.0,0.0 l 0.4336590845875442,-0.9010770213220916 l -2.6019545075252566,5.406462127932571 l 0.9747611941912216,-0.2232501160109513 l 0.9747611941912216,-0.2232501160109513 l 0.7815204724188186,-0.6238795967093861 l 0.0,0.0 l 0.0,0.0 l 0.7815204724188186,-0.6238795967093861 l -1.5630409448376383,1.2477591934187728 l 0.975149354305563,0.2215484976194673 l 0.0,0.0 l 0.0,0.0 l 0.975149354305563,0.2215484976194673 l -1.950298708611129,-0.44309699523893187 l 0.9747611941912216,-0.2232501160109513 l 0.9747611941912216,-0.2232501160109513 l 0.9747611941912216,-0.2232501160109513 l 0.0,0.0 l 0.0,0.0 l 0.9747611941912216,-0.2232501160109513 l -5.8485671651473226,1.3395006960656701 l 0.7815204724188187,-0.6238795967093861 l 0.7815204724188187,-0.6238795967093861 l 0.7815204724188187,-0.6238795967093861 l 0.7815204724188187,-0.6238795967093861 l 0.7815204724188187,-0.6238795967093861 l 0.7815204724188187,-0.6238795967093861 l 0.4336590845875442,-0.9010770213220916 l 0.0,0.0 l 0.0,0.0 l 0.4336590845875442,-0.9010770213220916 l -0.8673181691750855,1.8021540426441902 l 0.9747611941912216,-0.2232501160109513 l 0.0,0.0 l 0.0,0.0 l 0.9747611941912216,-0.2232501160109513 l -1.9495223883824409,0.44650023202189004 l 0.7815204724188187,-0.6238795967093861 l 0.7815204724188187,-0.6238795967093861 l 0.7815204724188187,-0.6238795967093861 l 0.0,0.0 l 0.0,0.0 l 0.7815204724188187,-0.6238795967093861 l -10.941286613863468,8.73431435393141 l 0.4336590845875444,-0.9010770213220916 l 0.4336590845875444,-0.9010770213220916 l 0.4336590845875444,-0.9010770213220916 l 0.4336590845875444,-0.9010770213220916 l 0.4336590845875444,-0.9010770213220916 l 0.4336590845875444,-0.9010770213220916 l 0.4336590845875444,-0.9010770213220916 l 0.4336590845875444,-0.9010770213220916 l 0.4336590845875444,-0.9010770213220916 l 0.4336590845875444,-0.9010770213220916 l 0.4336590845875444,-0.9010770213220916 l 0.4336590845875444,-0.9010770213220916 l 5.551115123125783e-17,-0.9999999999999999 l 5.551115123125783e-17,-0.9999999999999999 l -0.4336590845875442,-0.9010770213220914 l 0.0,0.0 l 0.0,0.0 l -0.4336590845875442,-0.9010770213220914 l 0.8673181691750855,1.8021540426441902 l 0.4336590845875443,-0.9010770213220914 l 0.0,0.0 l 0.0,0.0 l 0.4336590845875443,-0.9010770213220914 l -0.8673181691750855,1.8021540426441902 l 5.551115123125783e-17,-0.9999999999999999 l 5.551115123125783e-17,-0.9999999999999999 l 5.551115123125783e-17,-0.9999999999999999 l 0.0,0.0 l 0.0,0.0 l 5.551115123125783e-17,-0.9999999999999999 l 0.0,6.0 l 0.7815204724188187,-0.6238795967093861 l 0.7815204724188187,-0.6238795967093861 l 0.4336590845875442,-0.9010770213220916 l 0.0,0.0 l 0.0,0.0 l 0.4336590845875442,-0.9010770213220916 l -0.8673181691750855,1.8021540426441902 l 0.9747611941912216,-0.2232501160109513 l 0.0,0.0 l 0.0,0.0 l 0.9747611941912216,-0.2232501160109513 l -1.9495223883824409,0.44650023202189004 l 0.7815204724188187,-0.6238795967093861 l 0.7815204724188187,-0.6238795967093861 l 0.7815204724188187,-0.6238795967093861 l 0.0,0.0 l 0.0,0.0 l 0.7815204724188187,-0.6238795967093861 l -4.689122834512915,3.7432775802563185 l 0.4336590845875444,-0.9010770213220916 l 0.4336590845875444,-0.9010770213220916 l 0.4336590845875444,-0.9010770213220916 l 0.4336590845875444,-0.9010770213220916 l 0.4336590845875444,-0.9010770213220916 l 0.4336590845875444,-0.9010770213220916 l 5.551115123125783e-17,-0.9999999999999999 l 0.0,0.0 l 0.0,0.0 l 5.551115123125783e-17,-0.9999999999999999 l 0.0,2.0 l 0.7815204724188187,-0.6238795967093861 l 0.0,0.0 l 0.0,0.0 l 0.7815204724188187,-0.6238795967093861 l -1.5630409448376383,1.2477591934187728 l 0.4336590845875444,-0.9010770213220916 l 0.4336590845875444,-0.9010770213220916 l 0.4336590845875444,-0.9010770213220916 l 0.0,0.0 l 0.0,0.0 l 0.4336590845875444,-0.9010770213220916 l -26.886863244427712,55.8667753219699 l 6.123233995736766e-17,-1.0 l 6.123233995736766e-17,-1.0 l 6.123233995736766e-17,-1.0 l 6.123233995736766e-17,-1.0 l 6.123233995736766e-17,-1.0 l 6.123233995736766e-17,-1.0 l 6.123233995736766e-17,-1.0 l 6.123233995736766e-17,-1.0 l 6.123233995736766e-17,-1.0 l 6.123233995736766e-17,-1.0 l 6.123233995736766e-17,-1.0 l 6.123233995736766e-17,-1.0 l 6.123233995736766e-17,-1.0 l 6.123233995736766e-17,-1.0 l 6.123233995736766e-17,-1.0 l 6.123233995736766e-17,-1.0 l 6.123233995736766e-17,-1.0 l 6.123233995736766e-17,-1.0 l 6.123233995736766e-17,-1.0 l 6.123233995736766e-17,-1.0 l 6.123233995736766e-17,-1.0 l 6.123233995736766e-17,-1.0 l 6.123233995736766e-17,-1.0 l 6.123233995736766e-17,-1.0 l 6.123233995736766e-17,-1.0 l 6.123233995736766e-17,-1.0 l 6.123233995736766e-17,-1.0 l 6.123233995736766e-17,-1.0 l 6.123233995736766e-17,-1.0 l 6.123233995736766e-17,-1.0 l 6.123233995736766e-17,-1.0 l 6.123233995736766e-17,-1.0 l 6.123233995736766e-17,-1.0 l 6.123233995736766e-17,-1.0 l 6.123233995736766e-17,-1.0 l 6.123233995736766e-17,-1.0 l 6.123233995736766e-17,-1.0 l 6.123233995736766e-17,-1.0 l 6.123233995736766e-17,-1.0 l 6.123233995736766e-17,-1.0 l 6.123233995736766e-17,-1.0 l 6.123233995736766e-17,-1.0 l 6.123233995736766e-17,-1.0 l 6.123233995736766e-17,-1.0 l 6.123233995736766e-17,-1.0 l 6.123233995736766e-17,-1.0 l 6.123233995736766e-17,-1.0 l 6.123233995736766e-17,-1.0 l -0.43365908458754426,-0.9010770213220916 l -0.43365908458754426,-0.9010770213220916 l -0.43365908458754426,-0.9010770213220916 l -0.43365908458754426,-0.9010770213220916 l -0.43365908458754426,-0.9010770213220916 l -0.43365908458754426,-0.9010770213220916 l -0.43365908458754426,-0.9010770213220916 l -0.43365908458754426,-0.9010770213220916 l -0.7815204724188187,-0.6238795967093861 l -0.7815204724188187,-0.6238795967093861 l -0.7815204724188187,-0.6238795967093861 l -0.7815204724188187,-0.6238795967093861 l -0.9747611941912216,-0.2232501160109513 l -0.9747611941912216,-0.2232501160109513 l -0.975149354305563,0.2215484976194673 l 0.0,0.0 l 0.0,0.0 l -0.975149354305563,0.2215484976194673 l 1.9502987086111254,-0.44309699523893187 l -0.7815204724188186,-0.6238795967093861 l 0.0,0.0 l 0.0,0.0 l -0.7815204724188186,-0.6238795967093861 l 1.5630409448376383,1.2477591934187728 l -0.9747611941912216,-0.2232501160109513 l -0.9747611941912216,-0.2232501160109513 l -0.9747611941912216,-0.2232501160109513 l 0.0,0.0 l 0.0,0.0 l -0.9747611941912216,-0.2232501160109513 l 5.848567165147331,1.3395006960656701 l -0.4336590845875442,-0.9010770213220916 l -0.4336590845875442,-0.9010770213220916 l -0.7815204724188186,-0.6238795967093861 l 0.0,0.0 l 0.0,0.0 l -0.7815204724188186,-0.6238795967093861 l 1.5630409448376383,1.2477591934187728 l 1.1102230246251565e-16,-0.9999999999999999 l 0.0,0.0 l 0.0,0.0 l 1.1102230246251565e-16,-0.9999999999999999 l 0.0,2.0 l -0.4336590845875442,-0.9010770213220916 l -0.4336590845875442,-0.9010770213220916 l -0.4336590845875442,-0.9010770213220916 l 0.0,0.0 l 0.0,0.0 l -0.4336590845875442,-0.9010770213220916 l 2.6019545075252672,5.406462127932571 l -0.7815204724188187,-0.6238795967093861 l -0.7815204724188187,-0.6238795967093861 l -0.7815204724188187,-0.6238795967093861 l -0.7815204724188187,-0.6238795967093861 l -0.7815204724188187,-0.6238795967093861 l -0.7815204724188187,-0.6238795967093861 l -0.9747611941912216,-0.2232501160109513 l 0.0,0.0 l 0.0,0.0 l -0.9747611941912216,-0.2232501160109513 l 1.9495223883824444,0.44650023202189004 l -0.4336590845875442,-0.9010770213220916 l 0.0,0.0 l 0.0,0.0 l -0.4336590845875442,-0.9010770213220916 l 0.8673181691750891,1.8021540426441902 l -0.7815204724188187,-0.6238795967093861 l -0.7815204724188187,-0.6238795967093861 l -0.7815204724188187,-0.6238795967093861 l 0.0,0.0 l 0.0,0.0 l -0.7815204724188187,-0.6238795967093861 l 10.941286613863467,8.73431435393141 l 5.551115123125783e-17,-0.9999999999999999 l 5.551115123125783e-17,-0.9999999999999999 l 5.551115123125783e-17,-0.9999999999999999 l 5.551115123125783e-17,-0.9999999999999999 l -0.4336590845875442,-0.9010770213220914 l -0.4336590845875442,-0.9010770213220914 l -0.7815204724188185,-0.6238795967093861 l 0.0,0.0 l 0.0,0.0 l -0.7815204724188185,-0.6238795967093861 l 1.5630409448376366,1.2477591934187728 l 5.551115123125783e-17,-0.9999999999999999 l 0.0,0.0 l 0.0,0.0 l 5.551115123125783e-17,-0.9999999999999999 l 0.0,2.0 l -0.4336590845875442,-0.9010770213220914 l -0.4336590845875442,-0.9010770213220914 l -0.4336590845875442,-0.9010770213220914 l 0.0,0.0 l 0.0,0.0 l -0.4336590845875442,-0.9010770213220914 l 2.601954507525267,5.406462127932571 l 0.4336590845875443,-0.9010770213220914 l 0.4336590845875443,-0.9010770213220914 l 5.551115123125783e-17,-0.9999999999999999 l 0.0,0.0 l 0.0,0.0 l 5.551115123125783e-17,-0.9999999999999999 l 0.0,2.0 l 0.7815204724188187,-0.6238795967093861 l 0.0,0.0 l 0.0,0.0 l 0.7815204724188187,-0.6238795967093861 l -1.5630409448376374,1.2477591934187728 l 0.4336590845875443,-0.9010770213220914 l 0.4336590845875443,-0.9010770213220914 l 0.4336590845875443,-0.9010770213220914 l 0.0,0.0 l 0.0,0.0 l 0.4336590845875443,-0.9010770213220914 l -2.6019545075252664,5.406462127932571 l 5.551115123125783e-17,-0.9999999999999999 l 5.551115123125783e-17,-0.9999999999999999 l 5.551115123125783e-17,-0.9999999999999999 l 5.551115123125783e-17,-0.9999999999999999 l 5.551115123125783e-17,-0.9999999999999999 l 5.551115123125783e-17,-0.9999999999999999 l -0.4336590845875442,-0.9010770213220914 l 0.0,0.0 l 0.0,0.0 l -0.4336590845875442,-0.9010770213220914 l 0.8673181691750886,1.8021540426441902 l 0.4336590845875443,-0.9010770213220914 l 0.0,0.0 l 0.0,0.0 l 0.4336590845875443,-0.9010770213220914 l -0.8673181691750886,1.8021540426441902 l 5.551115123125783e-17,-0.9999999999999999 l 5.551115123125783e-17,-0.9999999999999999 l 5.551115123125783e-17,-0.9999999999999999 l 0.0,0.0 l 0.0,0.0 l 5.551115123125783e-17,-0.9999999999999999 l 0.0,14.0 l -0.43365908458754426,-0.9010770213220916 l -0.43365908458754426,-0.9010770213220916 l -0.43365908458754426,-0.9010770213220916 l -0.43365908458754426,-0.9010770213220916 l -0.43365908458754426,-0.9010770213220916 l -0.43365908458754426,-0.9010770213220916 l -0.43365908458754426,-0.9010770213220916 l -0.43365908458754426,-0.9010770213220916 l -0.43365908458754426,-0.9010770213220916 l -0.43365908458754426,-0.9010770213220916 l -0.43365908458754426,-0.9010770213220916 l -0.43365908458754426,-0.9010770213220916 l -0.7815204724188187,-0.6238795967093861 l -0.7815204724188187,-0.6238795967093861 l -0.9747611941912216,-0.2232501160109513 l 0.0,0.0 l 0.0,0.0 l -0.9747611941912216,-0.2232501160109513 l 1.9495223883824444,0.44650023202189004 l -0.4336590845875442,-0.9010770213220916 l 0.0,0.0 l 0.0,0.0 l -0.4336590845875442,-0.9010770213220916 l 0.8673181691750891,1.8021540426441902 l -0.7815204724188187,-0.6238795967093861 l -0.7815204724188187,-0.6238795967093861 l -0.7815204724188187,-0.6238795967093861 l 0.0,0.0 l 0.0,0.0 l -0.7815204724188187,-0.6238795967093861 l 4.689122834512915,3.7432775802563185 l 5.551115123125783e-17,-0.9999999999999999 l 5.551115123125783e-17,-0.9999999999999999 l -0.4336590845875442,-0.9010770213220914 l 0.0,0.0 l 0.0,0.0 l -0.4336590845875442,-0.9010770213220914 l 0.8673181691750891,1.8021540426441902 l 0.4336590845875443,-0.9010770213220914 l 0.0,0.0 l 0.0,0.0 l 0.4336590845875443,-0.9010770213220914 l -0.8673181691750891,1.8021540426441902 l 5.551115123125783e-17,-0.9999999999999999 l 5.551115123125783e-17,-0.9999999999999999 l 5.551115123125783e-17,-0.9999999999999999 l 0.0,0.0 l 0.0,0.0 l 5.551115123125783e-17,-0.9999999999999999 l 0.0,6.0 l -0.43365908458754426,-0.9010770213220916 l -0.43365908458754426,-0.9010770213220916 l -0.43365908458754426,-0.9010770213220916 l -0.43365908458754426,-0.9010770213220916 l -0.43365908458754426,-0.9010770213220916 l -0.43365908458754426,-0.9010770213220916 l -0.7815204724188187,-0.6238795967093861 l 0.0,0.0 l 0.0,0.0 l -0.7815204724188187,-0.6238795967093861 l 1.5630409448376383,1.2477591934187728 l 5.551115123125783e-17,-0.9999999999999999 l 0.0,0.0 l 0.0,0.0 l 5.551115123125783e-17,-0.9999999999999999 l 0.0,2.0 l -0.43365908458754426,-0.9010770213220916 l -0.43365908458754426,-0.9010770213220916 l -0.43365908458754426,-0.9010770213220916 l 0.0,0.0 l 0.0,0.0 l -0.43365908458754426,-0.9010770213220916 l 13.009772537626333,27.032310639662853 l 0.4336590845875444,-0.9010770213220916 l 0.4336590845875444,-0.9010770213220916 l 0.4336590845875444,-0.9010770213220916 l 0.4336590845875444,-0.9010770213220916 l 0.4336590845875444,-0.9010770213220916 l 0.4336590845875444,-0.9010770213220916 l 0.4336590845875444,-0.9010770213220916 l 0.4336590845875444,-0.9010770213220916 l 5.551115123125783e-17,-0.9999999999999999 l 5.551115123125783e-17,-0.9999999999999999 l 5.551115123125783e-17,-0.9999999999999999 l 5.551115123125783e-17,-0.9999999999999999 l -0.4336590845875442,-0.9010770213220914 l -0.4336590845875442,-0.9010770213220914 l -0.7815204724188185,-0.6238795967093861 l 0.0,0.0 l 0.0,0.0 l -0.7815204724188185,-0.6238795967093861 l 1.563040944837637,1.2477591934187728 l 5.551115123125783e-17,-0.9999999999999999 l 0.0,0.0 l 0.0,0.0 l 5.551115123125783e-17,-0.9999999999999999 l 0.0,2.0 l -0.4336590845875442,-0.9010770213220914 l -0.4336590845875442,-0.9010770213220914 l -0.4336590845875442,-0.9010770213220914 l 0.0,0.0 l 0.0,0.0 l -0.4336590845875442,-0.9010770213220914 l 2.6019545075252646,5.406462127932571 l 0.4336590845875443,-0.9010770213220914 l 0.4336590845875443,-0.9010770213220914 l 5.551115123125783e-17,-0.9999999999999999 l 0.0,0.0 l 0.0,0.0 l 5.551115123125783e-17,-0.9999999999999999 l 0.0,2.0 l 0.7815204724188187,-0.6238795967093861 l 0.0,0.0 l 0.0,0.0 l 0.7815204724188187,-0.6238795967093861 l -1.5630409448376383,1.2477591934187728 l 0.4336590845875443,-0.9010770213220914 l 0.4336590845875443,-0.9010770213220914 l 0.4336590845875443,-0.9010770213220914 l 0.0,0.0 l 0.0,0.0 l 0.4336590845875443,-0.9010770213220914 l -2.601954507525267,5.406462127932571 l 5.551115123125783e-17,-0.9999999999999999 l 5.551115123125783e-17,-0.9999999999999999 l 5.551115123125783e-17,-0.9999999999999999 l 5.551115123125783e-17,-0.9999999999999999 l 5.551115123125783e-17,-0.9999999999999999 l 5.551115123125783e-17,-0.9999999999999999 l -0.4336590845875442,-0.9010770213220914 l 0.0,0.0 l 0.0,0.0 l -0.4336590845875442,-0.9010770213220914 l 0.8673181691750882,1.8021540426441902 l 0.4336590845875443,-0.9010770213220914 l 0.0,0.0 l 0.0,0.0 l 0.4336590845875443,-0.9010770213220914 l -0.8673181691750886,1.8021540426441902 l 5.551115123125783e-17,-0.9999999999999999 l 5.551115123125783e-17,-0.9999999999999999 l 5.551115123125783e-17,-0.9999999999999999 l 0.0,0.0 l 0.0,0.0 l 5.551115123125783e-17,-0.9999999999999999 l 0.0,14.0 l 0.7815204724188187,-0.6238795967093861 l 0.7815204724188187,-0.6238795967093861 l 0.7815204724188187,-0.6238795967093861 l 0.7815204724188187,-0.6238795967093861 l 0.4336590845875442,-0.9010770213220916 l 0.4336590845875442,-0.9010770213220916 l -1.1102230246251565e-16,-0.9999999999999999 l 0.0,0.0 l 0.0,0.0 l -1.1102230246251565e-16,-0.9999999999999999 l 0.0,2.0 l 0.7815204724188186,-0.6238795967093861 l 0.0,0.0 l 0.0,0.0 l 0.7815204724188186,-0.6238795967093861 l -1.5630409448376383,1.2477591934187728 l 0.4336590845875442,-0.9010770213220916 l 0.4336590845875442,-0.9010770213220916 l 0.4336590845875442,-0.9010770213220916 l 0.0,0.0 l 0.0,0.0 l 0.4336590845875442,-0.9010770213220916 l -2.6019545075252672,5.406462127932571 l 0.9747611941912216,-0.2232501160109513 l 0.9747611941912216,-0.2232501160109513 l 0.7815204724188186,-0.6238795967093861 l 0.0,0.0 l 0.0,0.0 l 0.7815204724188186,-0.6238795967093861 l -1.5630409448376383,1.2477591934187728 l 0.975149354305563,0.2215484976194673 l 0.0,0.0 l 0.0,0.0 l 0.975149354305563,0.2215484976194673 l -1.9502987086111254,-0.44309699523893187 l 0.9747611941912216,-0.2232501160109513 l 0.9747611941912216,-0.2232501160109513 l 0.9747611941912216,-0.2232501160109513 l 0.0,0.0 l 0.0,0.0 l 0.9747611941912216,-0.2232501160109513 l -5.848567165147331,1.3395006960656701 l 0.7815204724188187,-0.6238795967093861 l 0.7815204724188187,-0.6238795967093861 l 0.7815204724188187,-0.6238795967093861 l 0.7815204724188187,-0.6238795967093861 l 0.7815204724188187,-0.6238795967093861 l 0.7815204724188187,-0.6238795967093861 l 0.4336590845875442,-0.9010770213220916 l 0.0,0.0 l 0.0,0.0 l 0.4336590845875442,-0.9010770213220916 l -0.8673181691750891,1.8021540426441902 l 0.9747611941912216,-0.2232501160109513 l 0.0,0.0 l 0.0,0.0 l 0.9747611941912216,-0.2232501160109513 l -1.9495223883824444,0.44650023202189004 l 0.7815204724188187,-0.6238795967093861 l 0.7815204724188187,-0.6238795967093861 l 0.7815204724188187,-0.6238795967093861 l 0.0,0.0 l 0.0,0.0 l 0.7815204724188187,-0.6238795967093861 l -10.941286613863468,8.73431435393141 l 0.4336590845875444,-0.9010770213220916 l 0.4336590845875444,-0.9010770213220916 l 0.4336590845875444,-0.9010770213220916 l 0.4336590845875444,-0.9010770213220916 l 0.4336590845875444,-0.9010770213220916 l 0.4336590845875444,-0.9010770213220916 l 0.4336590845875444,-0.9010770213220916 l 0.4336590845875444,-0.9010770213220916 l 0.4336590845875444,-0.9010770213220916 l 0.4336590845875444,-0.9010770213220916 l 0.4336590845875444,-0.9010770213220916 l 0.4336590845875444,-0.9010770213220916 l 5.551115123125783e-17,-0.9999999999999999 l 5.551115123125783e-17,-0.9999999999999999 l -0.4336590845875442,-0.9010770213220914 l 0.0,0.0 l 0.0,0.0 l -0.4336590845875442,-0.9010770213220914 l 0.8673181691750891,1.8021540426441902 l 0.4336590845875443,-0.9010770213220914 l 0.0,0.0 l 0.0,0.0 l 0.4336590845875443,-0.9010770213220914 l -0.8673181691750891,1.8021540426441902 l 5.551115123125783e-17,-0.9999999999999999 l 5.551115123125783e-17,-0.9999999999999999 l 5.551115123125783e-17,-0.9999999999999999 l 0.0,0.0 l 0.0,0.0 l 5.551115123125783e-17,-0.9999999999999999 l 0.0,6.0 l 0.7815204724188187,-0.6238795967093861 l 0.7815204724188187,-0.6238795967093861 l 0.4336590845875442,-0.9010770213220916 l 0.0,0.0 l 0.0,0.0 l 0.4336590845875442,-0.9010770213220916 l -0.8673181691750891,1.8021540426441902 l 0.9747611941912216,-0.2232501160109513 l 0.0,0.0 l 0.0,0.0 l 0.9747611941912216,-0.2232501160109513 l -1.9495223883824444,0.44650023202189004 l 0.7815204724188187,-0.6238795967093861 l 0.7815204724188187,-0.6238795967093861 l 0.7815204724188187,-0.6238795967093861 l 0.0,0.0 l 0.0,0.0 l 0.7815204724188187,-0.6238795967093861 l -4.689122834512915,3.7432775802563185 l 0.4336590845875444,-0.9010770213220916 l 0.4336590845875444,-0.9010770213220916 l 0.4336590845875444,-0.9010770213220916 l 0.4336590845875444,-0.9010770213220916 l 0.4336590845875444,-0.9010770213220916 l 0.4336590845875444,-0.9010770213220916 l 5.551115123125783e-17,-0.9999999999999999 l 0.0,0.0 l 0.0,0.0 l 5.551115123125783e-17,-0.9999999999999999 l 0.0,2.0 l 0.7815204724188187,-0.6238795967093861 l 0.0,0.0 l 0.0,0.0 l 0.7815204724188187,-0.6238795967093861 l -1.5630409448376383,1.2477591934187728 l 0.4336590845875444,-0.9010770213220916 l 0.4336590845875444,-0.9010770213220916 l 0.4336590845875444,-0.9010770213220916 l 0.0,0.0 l 0.0,0.0 l 0.4336590845875444,-0.9010770213220916 l -13.009772537626334,27.032310639662853 l 6.123233995736766e-17,-1.0 l 6.123233995736766e-17,-1.0 l 6.123233995736766e-17,-1.0 l 6.123233995736766e-17,-1.0 l 6.123233995736766e-17,-1.0 l 6.123233995736766e-17,-1.0 l 6.123233995736766e-17,-1.0 l 6.123233995736766e-17,-1.0 l 6.123233995736766e-17,-1.0 l 6.123233995736766e-17,-1.0 l 6.123233995736766e-17,-1.0 l 6.123233995736766e-17,-1.0 l 6.123233995736766e-17,-1.0 l 6.123233995736766e-17,-1.0 l 6.123233995736766e-17,-1.0 l 6.123233995736766e-17,-1.0 l 6.123233995736766e-17,-1.0 l 6.123233995736766e-17,-1.0 l 6.123233995736766e-17,-1.0 l 6.123233995736766e-17,-1.0 l 6.123233995736766e-17,-1.0 l 6.123233995736766e-17,-1.0 l 6.123233995736766e-17,-1.0 l 6.123233995736766e-17,-1.0 l -0.43365908458754426,-0.9010770213220916 l -0.43365908458754426,-0.9010770213220916 l -0.43365908458754426,-0.9010770213220916 l -0.43365908458754426,-0.9010770213220916 l -0.7815204724188187,-0.6238795967093861 l -0.7815204724188187,-0.6238795967093861 l -0.9747611941912216,-0.2232501160109513 l 0.0,0.0 l 0.0,0.0 l -0.9747611941912216,-0.2232501160109513 l 1.949522388382443,0.44650023202189004 l -0.4336590845875442,-0.9010770213220916 l 0.0,0.0 l 0.0,0.0 l -0.4336590845875442,-0.9010770213220916 l 0.8673181691750886,1.8021540426441902 l -0.7815204724188187,-0.6238795967093861 l -0.7815204724188187,-0.6238795967093861 l -0.7815204724188187,-0.6238795967093861 l 0.0,0.0 l 0.0,0.0 l -0.7815204724188187,-0.6238795967093861 l 4.689122834512913,3.7432775802563185 l 5.551115123125783e-17,-0.9999999999999999 l 5.551115123125783e-17,-0.9999999999999999 l -0.4336590845875442,-0.9010770213220914 l 0.0,0.0 l 0.0,0.0 l -0.4336590845875442,-0.9010770213220914 l 0.8673181691750884,1.8021540426441902 l 0.4336590845875443,-0.9010770213220914 l 0.0,0.0 l 0.0,0.0 l 0.4336590845875443,-0.9010770213220914 l -0.8673181691750886,1.8021540426441902 l 5.551115123125783e-17,-0.9999999999999999 l 5.551115123125783e-17,-0.9999999999999999 l 5.551115123125783e-17,-0.9999999999999999 l 0.0,0.0 l 0.0,0.0 l 5.551115123125783e-17,-0.9999999999999999 l 0.0,6.0 l -0.43365908458754426,-0.9010770213220916 l -0.43365908458754426,-0.9010770213220916 l -0.43365908458754426,-0.9010770213220916 l -0.43365908458754426,-0.9010770213220916 l -0.43365908458754426,-0.9010770213220916 l -0.43365908458754426,-0.9010770213220916 l -0.7815204724188187,-0.6238795967093861 l 0.0,0.0 l 0.0,0.0 l -0.7815204724188187,-0.6238795967093861 l 1.5630409448376374,1.2477591934187728 l 5.551115123125783e-17,-0.9999999999999999 l 0.0,0.0 l 0.0,0.0 l 5.551115123125783e-17,-0.9999999999999999 l 0.0,2.0 l -0.43365908458754426,-0.9010770213220916 l -0.43365908458754426,-0.9010770213220916 l -0.43365908458754426,-0.9010770213220916 l 0.0,0.0 l 0.0,0.0 l -0.43365908458754426,-0.9010770213220916 l 6.07122718422562,12.615078298509331 l 0.4336590845875444,-0.9010770213220916 l 0.4336590845875444,-0.9010770213220916 l 0.4336590845875444,-0.9010770213220916 l 0.4336590845875444,-0.9010770213220916 l 5.551115123125783e-17,-0.9999999999999999 l 5.551115123125783e-17,-0.9999999999999999 l -0.4336590845875442,-0.9010770213220914 l 0.0,0.0 l 0.0,0.0 l -0.4336590845875442,-0.9010770213220914 l 0.8673181691750885,1.8021540426441902 l 0.4336590845875443,-0.9010770213220914 l 0.0,0.0 l 0.0,0.0 l 0.4336590845875443,-0.9010770213220914 l -0.8673181691750889,1.8021540426441902 l 5.551115123125783e-17,-0.9999999999999999 l 5.551115123125783e-17,-0.9999999999999999 l 5.551115123125783e-17,-0.9999999999999999 l 0.0,0.0 l 0.0,0.0 l 5.551115123125783e-17,-0.9999999999999999 l 0.0,6.0 l 0.7815204724188187,-0.6238795967093861 l 0.7815204724188187,-0.6238795967093861 l 0.4336590845875442,-0.9010770213220916 l 0.0,0.0 l 0.0,0.0 l 0.4336590845875442,-0.9010770213220916 l -0.8673181691750886,1.8021540426441902 l 0.9747611941912216,-0.2232501160109513 l 0.0,0.0 l 0.0,0.0 l 0.9747611941912216,-0.2232501160109513 l -1.949522388382443,0.44650023202189004 l 0.7815204724188187,-0.6238795967093861 l 0.7815204724188187,-0.6238795967093861 l 0.7815204724188187,-0.6238795967093861 l 0.0,0.0 l 0.0,0.0 l 0.7815204724188187,-0.6238795967093861 l -4.689122834512913,3.7432775802563185 l 0.4336590845875444,-0.9010770213220916 l 0.4336590845875444,-0.9010770213220916 l 0.4336590845875444,-0.9010770213220916 l 0.4336590845875444,-0.9010770213220916 l 0.4336590845875444,-0.9010770213220916 l 0.4336590845875444,-0.9010770213220916 l 5.551115123125783e-17,-0.9999999999999999 l 0.0,0.0 l 0.0,0.0 l 5.551115123125783e-17,-0.9999999999999999 l 0.0,2.0 l 0.7815204724188187,-0.6238795967093861 l 0.0,0.0 l 0.0,0.0 l 0.7815204724188187,-0.6238795967093861 l -1.5630409448376383,1.2477591934187728 l 0.4336590845875444,-0.9010770213220916 l 0.4336590845875444,-0.9010770213220916 l 0.4336590845875444,-0.9010770213220916 l 0.0,0.0 l 0.0,0.0 l 0.4336590845875444,-0.9010770213220916 l -6.071227184225623,12.615078298509331 l 6.123233995736766e-17,-1.0 l 6.123233995736766e-17,-1.0 l 6.123233995736766e-17,-1.0 l 6.123233995736766e-17,-1.0 l 6.123233995736766e-17,-1.0 l 6.123233995736766e-17,-1.0 l 6.123233995736766e-17,-1.0 l 6.123233995736766e-17,-1.0 l 6.123233995736766e-17,-1.0 l 6.123233995736766e-17,-1.0 l 6.123233995736766e-17,-1.0 l 6.123233995736766e-17,-1.0 l -0.43365908458754426,-0.9010770213220916 l -0.43365908458754426,-0.9010770213220916 l -0.7815204724188187,-0.6238795967093861 l 0.0,0.0 l 0.0,0.0 l -0.7815204724188187,-0.6238795967093861 l 1.5630409448376374,1.2477591934187728 l 5.551115123125783e-17,-0.9999999999999999 l 0.0,0.0 l 0.0,0.0 l 5.551115123125783e-17,-0.9999999999999999 l -1.1102230246251565e-16,2.0 l -0.43365908458754426,-0.9010770213220916 l -0.43365908458754426,-0.9010770213220916 l -0.43365908458754426,-0.9010770213220916 l 0.0,0.0 l 0.0,0.0 l -0.43365908458754426,-0.9010770213220916 l 2.6019545075252655,5.406462127932571 l 0.4336590845875444,-0.9010770213220916 l 0.4336590845875444,-0.9010770213220916 l 5.551115123125783e-17,-0.9999999999999999 l 0.0,0.0 l 0.0,0.0 l 5.551115123125783e-17,-0.9999999999999999 l -1.1102230246251565e-16,2.0 l 0.7815204724188187,-0.6238795967093861 l 0.0,0.0 l 0.0,0.0 l 0.7815204724188187,-0.6238795967093861 l -1.5630409448376374,1.2477591934187728 l 0.4336590845875444,-0.9010770213220916 l 0.4336590845875444,-0.9010770213220916 l 0.4336590845875444,-0.9010770213220916 l 0.0,0.0 l 0.0,0.0 l 0.4336590845875444,-0.9010770213220916 l -2.6019545075252664,5.406462127932571 l 6.123233995736766e-17,-1.0 l 6.123233995736766e-17,-1.0 l 6.123233995736766e-17,-1.0 l 6.123233995736766e-17,-1.0 l 6.123233995736766e-17,-1.0 l 6.123233995736766e-17,-1.0 l -0.43365908458754426,-0.9010770213220916 l 0.0,0.0 l 0.0,0.0 l -0.43365908458754426,-0.9010770213220916 l 0.8673181691750885,1.8021540426441902 l 0.4336590845875444,-0.9010770213220916 l 0.0,0.0 l 0.0,0.0 l 0.4336590845875444,-0.9010770213220916 l -0.8673181691750887,1.8021540426441902 l 6.123233995736766e-17,-1.0 l 6.123233995736766e-17,-1.0 l 6.123233995736766e-17,-1.0 l 0.0,0.0 l 0.0,0.0 l 6.123233995736766e-17,-1.0 " style="stroke-linecap:square;stroke:#50514F;stroke-width:0.2px;fill:none" /></g></svg>