<?xml version="1.0" encoding="UTF-8"?>
<!DOCTYPE svg PUBLIC "-//W3C//DTD SVG 1.1//EN"
    "http://www.w3.org/Graphics/SVG/1.1/DTD/svg11.dtd">
<svg xmlns="http://www.w3.org/2000/svg" xmlns:xlink="http://www.w3.org/1999/xlink" version="1.1" width="167.45958878790387" height="500" viewBox="-14.421640622227741 -89.1 32.55414406036851 97.19999999999999"><g><rect x="-14.421640622227741" y="-89.1" width="32.55414406036851" height="97.19999999999999" fill="#CBD4C2" /><path d="M 0,0 l 6.123233995736766e-17,-1.0 l -0.43365908458754426,-0.9010770213220916 l 0.43365908458754426,0.9010770213220916 l 6.123233995736766e-17,-1.0 l 0.4336590845875444,-0.9010770213220916 l -0.4336590845875444,0.9010770213220916 l 6.123233995736766e-17,-1.0 l -0.43365908458754426,-0.9010770213220916 l -0.7815204724188187,-0.6238795967093861 l 0.7815204724188187,0.6238795967093864 l -0.43365908458754426,-0.9010770213220916 l 5.551115123125783e-17,-0.9999999999999999 l 0.0,1.0 l -0.43365908458754426,-0.9010770213220916 l 1.300977253762633,2.7032310639662747 l 6.123233995736766e-17,-1.0 l -0.43365908458754426,-0.9010770213220916 l 0.43365908458754426,0.9010770213220916 l 6.123233995736766e-17,-1.0 l 0.4336590845875444,-0.9010770213220916 l -0.4336590845875444,0.9010770213220916 l 6.123233995736766e-17,-1.0 l 0.4336590845875444,-0.9010770213220916 l 5.551115123125783e-17,-0.9999999999999999 l -5.551115123125783e-17,1.0 l 0.4336590845875444,-0.9010770213220916 l 0.7815204724188187,-0.6238795967093861 l -0.7815204724188187,0.6238795967093864 l 0.4336590845875444,-0.9010770213220916 l -1.300977253762633,2.7032310639662747 l 6.123233995736766e-17,-1.0 l -0.43365908458754426,-0.9010770213220916 l 0.43365908458754426,0.9010770213220916 l 6.123233995736766e-17,-1.0 l 0.4336590845875444,-0.9010770213220916 l -0.4336590845875444,0.9010770213220916 l 6.123233995736766e-17,-1.0 l -0.43365908458754426,-0.9010770213220916 l -0.7815204724188187,-0.6238795967093861 l 0.7815204724188187,0.6238795967093864 l -0.43365908458754426,-0.9010770213220916 l 5.551115123125783e-17,-0.9999999999999999 l 0.0,1.0 l -0.43365908458754426,-0.9010770213220916 l -0.7815204724188187,-0.6238795967093861 l -0.9747611941912216,-0.2232501160109513 l 0.9747611941912218,0.22325011601095213 l -0.7815204724188187,-0.6238795967093861 l -0.4336590845875442,-0.9010770213220916 l 0.4336590845875441,0.9010770213220916 l -0.7815204724188187,-0.6238795967093861 l 2.344561417256456,1.8716387901281593 l -0.43365908458754426,-0.9010770213220916 l -0.7815204724188187,-0.6238795967093861 l 0.781520472418819,0.6238795967093864 l -0.43365908458754426,-0.9010770213220916 l 5.551115123125783e-17,-0.9999999999999999 l 0.0,1.0 l -0.43365908458754426,-0.9010770213220916 l 5.551115123125783e-17,-0.9999999999999999 l -0.4336590845875442,-0.9010770213220914 l 0.4336590845875441,0.9010770213220916 l 5.551115123125783e-17,-0.9999999999999999 l 0.4336590845875443,-0.9010770213220914 l -0.4336590845875441,0.9010770213220916 l 5.551115123125783e-17,-0.9999999999999999 l 0.0,3.0 l -0.43365908458754426,-0.9010770213220916 l -0.7815204724188187,-0.6238795967093861 l 0.7815204724188187,0.6238795967093864 l -0.43365908458754426,-0.9010770213220916 l 5.551115123125783e-17,-0.9999999999999999 l 0.0,1.0 l -0.43365908458754426,-0.9010770213220916 l 3.9029317612878978,8.109693191898824 l 6.123233995736766e-17,-1.0 l -0.43365908458754426,-0.9010770213220916 l 0.43365908458754426,0.9010770213220916 l 6.123233995736766e-17,-1.0 l 0.4336590845875444,-0.9010770213220916 l -0.4336590845875444,0.9010770213220916 l 6.123233995736766e-17,-1.0 l -0.43365908458754426,-0.9010770213220916 l -0.7815204724188187,-0.6238795967093861 l 0.7815204724188188,0.6238795967093864 l -0.43365908458754426,-0.9010770213220916 l 5.551115123125783e-17,-0.9999999999999999 l 0.0,1.0 l -0.43365908458754426,-0.9010770213220916 l 1.3009772537626327,2.7032310639662747 l 6.123233995736766e-17,-1.0 l -0.43365908458754426,-0.9010770213220916 l 0.43365908458754426,0.9010770213220916 l 6.123233995736766e-17,-1.0 l 0.4336590845875444,-0.9010770213220916 l -0.4336590845875444,0.9010770213220916 l 6.123233995736766e-17,-1.0 l 0.4336590845875444,-0.9010770213220916 l 5.551115123125783e-17,-0.9999999999999999 l -5.551115123125783e-17,1.0 l 0.4336590845875444,-0.9010770213220916 l 0.7815204724188187,-0.6238795967093861 l -0.7815204724188187,0.6238795967093864 l 0.4336590845875444,-0.9010770213220916 l -1.3009772537626332,2.7032310639662747 l 6.123233995736766e-17,-1.0 l -0.43365908458754426,-0.9010770213220916 l 0.43365908458754426,0.9010770213220916 l 6.123233995736766e-17,-1.0 l 0.4336590845875444,-0.9010770213220916 l -0.4336590845875444,0.9010770213220916 l 6.123233995736766e-17,-1.0 l 0.4336590845875444,-0.9010770213220916 l 5.551115123125783e-17,-0.9999999999999999 l -5.551115123125783e-17,1.0 l 0.4336590845875444,-0.9010770213220916 l 0.7815204724188187,-0.6238795967093861 l -0.7815204724188188,0.6238795967093864 l 0.4336590845875444,-0.9010770213220916 l 5.551115123125783e-17,-0.9999999999999999 l -0.4336590845875442,-0.9010770213220914 l 0.4336590845875442,0.9010770213220916 l 5.551115123125783e-17,-0.9999999999999999 l 0.4336590845875443,-0.9010770213220914 l -0.4336590845875443,0.9010770213220916 l 5.551115123125783e-17,-0.9999999999999999 l 0.0,3.0 l 0.4336590845875444,-0.9010770213220916 l 5.551115123125783e-17,-0.9999999999999999 l 0.0,1.0 l 0.4336590845875444,-0.9010770213220916 l 0.7815204724188187,-0.6238795967093861 l -0.7815204724188187,0.6238795967093864 l 0.4336590845875444,-0.9010770213220916 l 0.7815204724188187,-0.6238795967093861 l 0.4336590845875442,-0.9010770213220916 l -0.4336590845875441,0.9010770213220916 l 0.7815204724188187,-0.6238795967093861 l 0.9747611941912216,-0.2232501160109513 l -0.9747611941912213,0.22325011601095213 l 0.7815204724188187,-0.6238795967093861 l -2.344561417256457,1.8716387901281593 l 0.4336590845875444,-0.9010770213220916 l 5.551115123125783e-17,-0.9999999999999999 l 0.0,1.0 l 0.4336590845875444,-0.9010770213220916 l 0.7815204724188187,-0.6238795967093861 l -0.7815204724188187,0.6238795967093864 l 0.4336590845875444,-0.9010770213220916 l -3.9029317612879004,8.109693191898824 l 6.123233995736766e-17,-1.0 l -0.43365908458754426,-0.9010770213220916 l 0.43365908458754426,0.9010770213220916 l 6.123233995736766e-17,-1.0 l 0.4336590845875444,-0.9010770213220916 l -0.4336590845875444,0.9010770213220916 l 6.123233995736766e-17,-1.0 l -0.43365908458754426,-0.9010770213220916 l -0.7815204724188187,-0.6238795967093861 l 0.7815204724188187,0.6238795967093864 l -0.43365908458754426,-0.9010770213220916 l 5.551115123125783e-17,-0.9999999999999999 l 0.0,1.0 l -0.43365908458754426,-0.9010770213220916 l 1.300977253762633,2.7032310639662747 l 6.123233995736766e-17,-1.0 l -0.43365908458754426,-0.9010770213220916 l 0.43365908458754426,0.9010770213220916 l 6.123233995736766e-17,-1.0 l 0.4336590845875444,-0.9010770213220916 l -0.4336590845875444,0.9010770213220916 l 6.123233995736766e-17,-1.0 l 0.4336590845875444,-0.9010770213220916 l 5.551115123125783e-17,-0.9999999999999999 l -5.551115123125783e-17,1.0 l 0.4336590845875444,-0.9010770213220916 l 0.7815204724188187,-0.6238795967093861 l -0.7815204724188187,0.6238795967093864 l 0.4336590845875444,-0.9010770213220916 l -1.300977253762633,2.7032310639662747 l 6.123233995736766e-17,-1.0 l -0.43365908458754426,-0.9010770213220916 l 0.43365908458754426,0.9010770213220916 l 6.123233995736766e-17,-1.0 l 0.4336590845875444,-0.9010770213220916 l -0.4336590845875444,0.9010770213220916 l 6.123233995736766e-17,-1.0 l -0.43365908458754426,-0.9010770213220916 l -0.7815204724188187,-0.6238795967093861 l 0.7815204724188187,0.6238795967093864 l -0.43365908458754426,-0.9010770213220916 l 5.551115123125783e-17,-0.9999999999999999 l 0.0,1.0 l -0.43365908458754426,-0.9010770213220916 l -0.7815204724188187,-0.6238795967093861 l -0.9747611941912216,-0.2232501160109513 l 0.9747611941912218,0.22325011601095213 l -0.7815204724188187,-0.6238795967093861 l -0.4336590845875442,-0.9010770213220916 l 0.4336590845875441,0.9010770213220916 l -0.7815204724188187,-0.6238795967093861 l 2.3445614172564566,1.8716387901281593 l -0.43365908458754426,-0.9010770213220916 l -0.7815204724188187,-0.6238795967093861 l 0.7815204724188187,0.6238795967093864 l -0.43365908458754426,-0.9010770213220916 l 5.551115123125783e-17,-0.9999999999999999 l 0.0,0.9999999999999964 l -0.43365908458754426,-0.9010770213220916 l 5.551115123125783e-17,-0.9999999999999999 l -0.4336590845875442,-0.9010770213220914 l 0.4336590845875441,0.901077021322088 l 5.551115123125783e-17,-0.9999999999999999 l 0.4336590845875443,-0.9010770213220914 l -0.43365908458754454,0.901077021322088 l 5.551115123125783e-17,-0.9999999999999999 l 0.0,3.0 l -0.43365908458754426,-0.9010770213220916 l -0.7815204724188187,-0.6238795967093861 l 0.7815204724188187,0.6238795967093864 l -0.43365908458754426,-0.9010770213220916 l 5.551115123125783e-17,-0.9999999999999999 l 0.0,1.0 l -0.43365908458754426,-0.9010770213220916 l -0.7815204724188187,-0.6238795967093861 l -0.9747611941912216,-0.2232501160109513 l 0.9747611941912213,0.22325011601095213 l -0.7815204724188187,-0.6238795967093861 l -0.4336590845875442,-0.9010770213220916 l 0.43365908458754454,0.9010770213220951 l -0.7815204724188187,-0.6238795967093861 l -0.9747611941912216,-0.2232501160109513 l -0.975149354305563,0.2215484976194673 l 0.9751493543055636,-0.22154849761946593 l -0.9747611941912216,-0.2232501160109513 l -0.7815204724188186,-0.6238795967093861 l 0.7815204724188192,0.6238795967093864 l -0.9747611941912216,-0.2232501160109513 l 2.924283582573665,0.6697503480328564 l -0.7815204724188187,-0.6238795967093861 l -0.9747611941912216,-0.2232501160109513 l 0.9747611941912222,0.22325011601095213 l -0.7815204724188187,-0.6238795967093861 l -0.4336590845875442,-0.9010770213220916 l 0.43365908458754454,0.9010770213220951 l -0.7815204724188187,-0.6238795967093861 l -0.4336590845875442,-0.9010770213220916 l -0.7815204724188186,-0.6238795967093861 l 0.7815204724188192,0.6238795967093864 l -0.4336590845875442,-0.9010770213220916 l 1.1102230246251565e-16,-0.9999999999999999 l 0.0,1.0 l -0.4336590845875442,-0.9010770213220916 l 1.3009772537626336,2.7032310639662853 l -0.7815204724188187,-0.6238795967093861 l -0.9747611941912216,-0.2232501160109513 l 0.9747611941912222,0.22325011601095213 l -0.7815204724188187,-0.6238795967093861 l -0.4336590845875442,-0.9010770213220916 l 0.43365908458754454,0.9010770213220951 l -0.7815204724188187,-0.6238795967093861 l 7.0336842517693725,5.614916370384478 l -0.43365908458754426,-0.9010770213220916 l -0.7815204724188187,-0.6238795967093861 l 0.7815204724188192,0.6238795967093864 l -0.43365908458754426,-0.9010770213220916 l 5.551115123125783e-17,-0.9999999999999999 l 0.0,1.0 l -0.43365908458754426,-0.9010770213220916 l -0.7815204724188187,-0.6238795967093861 l -0.9747611941912216,-0.2232501160109513 l 0.9747611941912213,0.22325011601095213 l -0.7815204724188187,-0.6238795967093861 l -0.4336590845875442,-0.9010770213220916 l 0.43365908458754454,0.9010770213220951 l -0.7815204724188187,-0.6238795967093861 l 2.3445614172564575,1.8716387901281593 l -0.43365908458754426,-0.9010770213220916 l -0.7815204724188187,-0.6238795967093861 l 0.7815204724188192,0.6238795967093864 l -0.43365908458754426,-0.9010770213220916 l 5.551115123125783e-17,-0.9999999999999999 l 0.0,1.0 l -0.43365908458754426,-0.9010770213220916 l 5.551115123125783e-17,-0.9999999999999999 l -0.4336590845875442,-0.9010770213220914 l 0.43365908458754454,0.901077021322088 l 5.551115123125783e-17,-0.9999999999999999 l 0.4336590845875443,-0.9010770213220914 l -0.43365908458754454,0.901077021322088 l 5.551115123125783e-17,-0.9999999999999999 l 0.0,3.0 l -0.43365908458754426,-0.9010770213220916 l -0.7815204724188187,-0.6238795967093861 l 0.7815204724188192,0.6238795967093864 l -0.43365908458754426,-0.9010770213220916 l 5.551115123125783e-17,-0.9999999999999999 l 0.0,1.0 l -0.43365908458754426,-0.9010770213220916 l 5.551115123125783e-17,-0.9999999999999999 l -0.4336590845875442,-0.9010770213220914 l 0.43365908458754454,0.901077021322088 l 5.551115123125783e-17,-0.9999999999999999 l 0.4336590845875443,-0.9010770213220914 l -0.43365908458754454,0.901077021322088 l 5.551115123125783e-17,-0.9999999999999999 l -0.4336590845875442,-0.9010770213220914 l -0.7815204724188185,-0.6238795967093861 l 0.7815204724188192,0.6238795967093864 l -0.4336590845875442,-0.9010770213220914 l 5.551115123125783e-17,-0.9999999999999999 l 0.0,1.0 l -0.4336590845875442,-0.9010770213220914 l 1.3009772537626336,2.703231063966264 l 5.551115123125783e-17,-0.9999999999999999 l -0.4336590845875442,-0.9010770213220914 l 0.43365908458754454,0.901077021322088 l 5.551115123125783e-17,-0.9999999999999999 l 0.4336590845875443,-0.9010770213220914 l -0.43365908458754454,0.901077021322088 l 5.551115123125783e-17,-0.9999999999999999 l 0.4336590845875443,-0.9010770213220914 l 5.551115123125783e-17,-0.9999999999999999 l 0.0,1.0 l 0.4336590845875443,-0.9010770213220914 l 0.7815204724188187,-0.6238795967093861 l -0.7815204724188192,0.6238795967093864 l 0.4336590845875443,-0.9010770213220914 l -1.3009772537626336,2.703231063966264 l 5.551115123125783e-17,-0.9999999999999999 l -0.4336590845875442,-0.9010770213220914 l 0.43365908458754454,0.901077021322088 l 5.551115123125783e-17,-0.9999999999999999 l 0.4336590845875443,-0.9010770213220914 l -0.43365908458754454,0.901077021322088 l 5.551115123125783e-17,-0.9999999999999999 l 0.0,9.0 l -0.43365908458754426,-0.9010770213220916 l -0.7815204724188187,-0.6238795967093861 l 0.7815204724188192,0.6238795967093864 l -0.43365908458754426,-0.9010770213220916 l 5.551115123125783e-17,-0.9999999999999999 l 0.0,1.0 l -0.43365908458754426,-0.9010770213220916 l -0.7815204724188187,-0.6238795967093861 l -0.9747611941912216,-0.2232501160109513 l 0.9747611941912222,0.22325011601095213 l -0.7815204724188187,-0.6238795967093861 l -0.4336590845875442,-0.9010770213220916 l 0.43365908458754454,0.9010770213220951 l -0.7815204724188187,-0.6238795967093861 l 2.3445614172564575,1.8716387901281593 l -0.43365908458754426,-0.9010770213220916 l -0.7815204724188187,-0.6238795967093861 l 0.7815204724188192,0.6238795967093864 l -0.43365908458754426,-0.9010770213220916 l 5.551115123125783e-17,-0.9999999999999999 l 0.0,1.0 l -0.43365908458754426,-0.9010770213220916 l 5.551115123125783e-17,-0.9999999999999999 l -0.4336590845875442,-0.9010770213220914 l 0.43365908458754454,0.901077021322088 l 5.551115123125783e-17,-0.9999999999999999 l 0.4336590845875443,-0.9010770213220914 l -0.43365908458754454,0.901077021322088 l 5.551115123125783e-17,-0.9999999999999999 l 0.0,3.0 l -0.43365908458754426,-0.9010770213220916 l -0.7815204724188187,-0.6238795967093861 l 0.7815204724188192,0.6238795967093864 l -0.43365908458754426,-0.9010770213220916 l 5.551115123125783e-17,-0.9999999999999999 l 0.0,1.0 l -0.43365908458754426,-0.9010770213220916 l 11.708795283863699,24.32907957569654 l 6.123233995736766e-17,-1.0 l -0.43365908458754426,-0.9010770213220916 l 0.43365908458754426,0.9010770213220916 l 6.123233995736766e-17,-1.0 l 0.4336590845875444,-0.9010770213220916 l -0.4336590845875444,0.9010770213220916 l 6.123233995736766e-17,-1.0 l -0.43365908458754426,-0.9010770213220916 l -0.7815204724188187,-0.6238795967093861 l 0.7815204724188186,0.6238795967093864 l -0.43365908458754426,-0.9010770213220916 l 5.551115123125783e-17,-0.9999999999999999 l 0.0,1.0 l -0.43365908458754426,-0.9010770213220916 l 1.3009772537626327,2.703231063966271 l 6.123233995736766e-17,-1.0 l -0.43365908458754426,-0.9010770213220916 l 0.43365908458754426,0.9010770213220916 l 6.123233995736766e-17,-1.0 l 0.4336590845875444,-0.9010770213220916 l -0.4336590845875444,0.9010770213220951 l 6.123233995736766e-17,-1.0 l 0.4336590845875444,-0.9010770213220916 l 5.551115123125783e-17,-0.9999999999999999 l -5.551115123125783e-17,1.0 l 0.4336590845875444,-0.9010770213220916 l 0.7815204724188187,-0.6238795967093861 l -0.7815204724188188,0.6238795967093864 l 0.4336590845875444,-0.9010770213220916 l -1.3009772537626332,2.7032310639662853 l 6.123233995736766e-17,-1.0 l -0.43365908458754426,-0.9010770213220916 l 0.43365908458754426,0.9010770213220951 l 6.123233995736766e-17,-1.0 l 0.4336590845875444,-0.9010770213220916 l -0.4336590845875444,0.9010770213220951 l 6.123233995736766e-17,-1.0 l -0.43365908458754426,-0.9010770213220916 l -0.7815204724188187,-0.6238795967093861 l 0.7815204724188187,0.6238795967093864 l -0.43365908458754426,-0.9010770213220916 l 5.551115123125783e-17,-0.9999999999999999 l -1.1102230246251565e-16,1.0 l -0.43365908458754426,-0.9010770213220916 l -0.7815204724188187,-0.6238795967093861 l -0.9747611941912216,-0.2232501160109513 l 0.9747611941912218,0.22325011601095213 l -0.7815204724188187,-0.6238795967093861 l -0.4336590845875442,-0.9010770213220916 l 0.4336590845875441,0.9010770213220951 l -0.7815204724188187,-0.6238795967093861 l 2.344561417256456,1.8716387901281593 l -0.43365908458754426,-0.9010770213220916 l -0.7815204724188187,-0.6238795967093861 l 0.781520472418819,0.6238795967093864 l -0.43365908458754426,-0.9010770213220916 l 5.551115123125783e-17,-0.9999999999999999 l 0.0,1.0 l -0.43365908458754426,-0.9010770213220916 l 5.551115123125783e-17,-0.9999999999999999 l -0.4336590845875442,-0.9010770213220914 l 0.4336590845875441,0.901077021322088 l 5.551115123125783e-17,-0.9999999999999999 l 0.4336590845875443,-0.9010770213220914 l -0.4336590845875441,0.901077021322088 l 5.551115123125783e-17,-0.9999999999999999 l 0.0,3.0 l -0.43365908458754426,-0.9010770213220916 l -0.7815204724188187,-0.6238795967093861 l 0.7815204724188187,0.6238795967093864 l -0.43365908458754426,-0.9010770213220916 l 5.551115123125783e-17,-0.9999999999999999 l 0.0,1.0 l -0.43365908458754426,-0.9010770213220916 l 3.9029317612878978,8.109693191898856 l 6.123233995736766e-17,-1.0 l -0.43365908458754426,-0.9010770213220916 l 0.43365908458754426,0.9010770213220951 l 6.123233995736766e-17,-1.0 l 0.4336590845875444,-0.9010770213220916 l -0.4336590845875444,0.9010770213220951 l 6.123233995736766e-17,-1.0 l -0.43365908458754426,-0.9010770213220916 l -0.7815204724188187,-0.6238795967093861 l 0.7815204724188187,0.6238795967093864 l -0.43365908458754426,-0.9010770213220916 l 5.551115123125783e-17,-0.9999999999999999 l 0.0,1.0 l -0.43365908458754426,-0.9010770213220916 l 1.300977253762633,2.7032310639662853 l 6.123233995736766e-17,-1.0 l -0.43365908458754426,-0.9010770213220916 l 0.43365908458754426,0.9010770213220951 l 6.123233995736766e-17,-1.0 l 0.4336590845875444,-0.9010770213220916 l -0.4336590845875444,0.9010770213220951 l 6.123233995736766e-17,-1.0 l 0.4336590845875444,-0.9010770213220916 l 5.551115123125783e-17,-0.9999999999999999 l -5.551115123125783e-17,1.0 l 0.4336590845875444,-0.9010770213220916 l 0.7815204724188187,-0.6238795967093861 l -0.7815204724188187,0.6238795967093864 l 0.4336590845875444,-0.9010770213220916 l -1.300977253762633,2.7032310639662853 l 6.123233995736766e-17,-1.0 l -0.43365908458754426,-0.9010770213220916 l 0.43365908458754426,0.9010770213220951 l 6.123233995736766e-17,-1.0 l 0.4336590845875444,-0.9010770213220916 l -0.4336590845875444,0.9010770213220951 l 6.123233995736766e-17,-1.0 l 0.4336590845875444,-0.9010770213220916 l 5.551115123125783e-17,-0.9999999999999999 l -5.551115123125783e-17,1.0 l 0.4336590845875444,-0.9010770213220916 l 0.7815204724188187,-0.6238795967093861 l -0.7815204724188187,0.6238795967093864 l 0.4336590845875444,-0.9010770213220916 l 5.551115123125783e-17,-0.9999999999999999 l -0.4336590845875442,-0.9010770213220914 l 0.4336590845875442,0.901077021322088 l 5.551115123125783e-17,-0.9999999999999999 l 0.4336590845875443,-0.9010770213220914 l -0.4336590845875443,0.901077021322088 l 5.551115123125783e-17,-0.9999999999999999 l 0.0,3.0 l 0.4336590845875444,-0.9010770213220916 l 5.551115123125783e-17,-0.9999999999999999 l 0.0,1.0 l 0.4336590845875444,-0.9010770213220916 l 0.7815204724188187,-0.6238795967093861 l -0.7815204724188187,0.6238795967093864 l 0.4336590845875444,-0.9010770213220916 l 0.7815204724188187,-0.6238795967093861 l 0.4336590845875442,-0.9010770213220916 l -0.4336590845875441,0.9010770213220951 l 0.7815204724188187,-0.6238795967093861 l 0.9747611941912216,-0.2232501160109513 l -0.9747611941912213,0.22325011601095213 l 0.7815204724188187,-0.6238795967093861 l -2.3445614172564557,1.8716387901281593 l 0.4336590845875444,-0.9010770213220916 l 5.551115123125783e-17,-0.9999999999999999 l 0.0,1.0 l 0.4336590845875444,-0.9010770213220916 l 0.7815204724188187,-0.6238795967093861 l -0.7815204724188192,0.6238795967093864 l 0.4336590845875444,-0.9010770213220916 l -3.9029317612879,8.109693191898856 l 6.123233995736766e-17,-1.0 l -0.43365908458754426,-0.9010770213220916 l 0.43365908458754426,0.9010770213220951 l 6.123233995736766e-17,-1.0 l 0.4336590845875444,-0.9010770213220916 l -0.4336590845875444,0.9010770213220951 l 6.123233995736766e-17,-1.0 l -0.43365908458754426,-0.9010770213220916 l -0.7815204724188187,-0.6238795967093861 l 0.7815204724188188,0.6238795967093864 l -0.43365908458754426,-0.9010770213220916 l 5.551115123125783e-17,-0.9999999999999999 l 0.0,1.0 l -0.43365908458754426,-0.9010770213220916 l 1.3009772537626327,2.7032310639662853 l 6.123233995736766e-17,-1.0 l -0.43365908458754426,-0.9010770213220916 l 0.43365908458754426,0.9010770213220951 l 6.123233995736766e-17,-1.0 l 0.4336590845875444,-0.9010770213220916 l -0.4336590845875444,0.9010770213220951 l 6.123233995736766e-17,-1.0 l 0.4336590845875444,-0.9010770213220916 l 5.551115123125783e-17,-0.9999999999999999 l -5.551115123125783e-17,1.0 l 0.4336590845875444,-0.9010770213220916 l 0.7815204724188187,-0.6238795967093861 l -0.7815204724188186,0.6238795967093864 l 0.4336590845875444,-0.9010770213220916 l -1.3009772537626332,2.7032310639662853 l 6.123233995736766e-17,-1.0 l -0.43365908458754426,-0.9010770213220916 l 0.43365908458754426,0.9010770213220951 l 6.123233995736766e-17,-1.0 l 0.4336590845875444,-0.9010770213220916 l -0.4336590845875444,0.9010770213220951 l 6.123233995736766e-17,-1.0 l 0.4336590845875444,-0.9010770213220916 l 5.551115123125783e-17,-0.9999999999999999 l -5.551115123125783e-17,1.0 l 0.4336590845875444,-0.9010770213220916 l 0.7815204724188187,-0.6238795967093861 l -0.7815204724188188,0.6238795967093864 l 0.4336590845875444,-0.9010770213220916 l 5.551115123125783e-17,-0.9999999999999999 l -0.4336590845875442,-0.9010770213220914 l 0.4336590845875442,0.901077021322088 l 5.551115123125783e-17,-0.9999999999999999 l 0.4336590845875443,-0.9010770213220914 l -0.4336590845875443,0.901077021322088 l 5.551115123125783e-17,-0.9999999999999999 l 0.0,3.0 l 0.4336590845875444,-0.9010770213220916 l 5.551115123125783e-17,-0.9999999999999999 l 0.0,1.0 l 0.4336590845875444,-0.9010770213220916 l 0.7815204724188187,-0.6238795967093861 l -0.7815204724188187,0.6238795967093864 l 0.4336590845875444,-0.9010770213220916 l 0.7815204724188187,-0.6238795967093861 l 0.4336590845875442,-0.9010770213220916 l -0.4336590845875441,0.9010770213220951 l 0.7815204724188187,-0.6238795967093861 l 0.9747611941912216,-0.2232501160109513 l -0.9747611941912213,0.22325011601095213 l 0.7815204724188187,-0.6238795967093861 l -2.3445614172564566,1.8716387901281593 l 0.4336590845875444,-0.9010770213220916 l 5.551115123125783e-17,-0.9999999999999999 l 0.0,1.0 l 0.4336590845875444,-0.9010770213220916 l 0.7815204724188187,-0.6238795967093861 l -0.7815204724188183,0.6238795967093864 l 0.4336590845875444,-0.9010770213220916 l 5.551115123125783e-17,-0.9999999999999999 l -0.4336590845875442,-0.9010770213220914 l 0.4336590845875441,0.9010770213220951 l 5.551115123125783e-17,-0.9999999999999999 l 0.4336590845875443,-0.9010770213220914 l -0.43365908458754454,0.9010770213220951 l 5.551115123125783e-17,-0.9999999999999999 l -0.4336590845875442,-0.9010770213220914 l -0.7815204724188185,-0.6238795967093861 l 0.7815204724188187,0.6238795967093864 l -0.4336590845875442,-0.9010770213220914 l 5.551115123125783e-17,-0.9999999999999999 l 0.0,1.0 l -0.4336590845875442,-0.9010770213220914 l 1.3009772537626323,2.7032310639662853 l 5.551115123125783e-17,-0.9999999999999999 l -0.4336590845875442,-0.9010770213220914 l 0.4336590845875441,0.9010770213220951 l 5.551115123125783e-17,-0.9999999999999999 l 0.4336590845875443,-0.9010770213220914 l -0.43365908458754454,0.9010770213220951 l 5.551115123125783e-17,-0.9999999999999999 l 0.4336590845875443,-0.9010770213220914 l 5.551115123125783e-17,-0.9999999999999999 l 0.0,1.0 l 0.4336590845875443,-0.9010770213220914 l 0.7815204724188187,-0.6238795967093861 l -0.7815204724188183,0.6238795967093864 l 0.4336590845875443,-0.9010770213220914 l -1.3009772537626336,2.7032310639662853 l 5.551115123125783e-17,-0.9999999999999999 l -0.4336590845875442,-0.9010770213220914 l 0.4336590845875441,0.9010770213220951 l 5.551115123125783e-17,-0.9999999999999999 l 0.4336590845875443,-0.9010770213220914 l -0.43365908458754454,0.9010770213220951 l 5.551115123125783e-17,-0.9999999999999999 l 0.0,9.0 l 0.4336590845875444,-0.9010770213220916 l 5.551115123125783e-17,-0.9999999999999999 l 0.0,1.0 l 0.4336590845875444,-0.9010770213220916 l 0.7815204724188187,-0.6238795967093861 l -0.7815204724188183,0.6238795967093864 l 0.4336590845875444,-0.9010770213220916 l 5.551115123125783e-17,-0.9999999999999999 l -0.4336590845875442,-0.9010770213220914 l 0.43365908458754454,0.9010770213220951 l 5.551115123125783e-17,-0.9999999999999999 l 0.4336590845875443,-0.9010770213220914 l -0.43365908458754454,0.9010770213220951 l 5.551115123125783e-17,-0.9999999999999999 l 0.0,3.0 l 0.4336590845875444,-0.9010770213220916 l 5.551115123125783e-17,-0.9999999999999999 l 0.0,1.0 l 0.4336590845875444,-0.9010770213220916 l 0.7815204724188187,-0.6238795967093861 l -0.7815204724188183,0.6238795967093864 l 0.4336590845875444,-0.9010770213220916 l 0.7815204724188187,-0.6238795967093861 l 0.4336590845875442,-0.9010770213220916 l -0.43365908458754454,0.9010770213220951 l 0.7815204724188187,-0.6238795967093861 l 0.9747611941912216,-0.2232501160109513 l -0.9747611941912222,0.22325011601094502 l 0.7815204724188187,-0.6238795967093861 l -2.3445614172564566,1.8716387901281593 l 0.4336590845875444,-0.9010770213220916 l 5.551115123125783e-17,-0.9999999999999999 l 0.0,1.0 l 0.4336590845875444,-0.9010770213220916 l 0.7815204724188187,-0.6238795967093861 l -0.7815204724188183,0.6238795967093864 l 0.4336590845875444,-0.9010770213220916 l 0.7815204724188187,-0.6238795967093861 l 0.4336590845875442,-0.9010770213220916 l -0.43365908458754454,0.9010770213220951 l 0.7815204724188187,-0.6238795967093861 l 0.9747611941912216,-0.2232501160109513 l -0.9747611941912222,0.22325011601094502 l 0.7815204724188187,-0.6238795967093861 l 0.4336590845875442,-0.9010770213220916 l -1.1102230246251565e-16,-0.9999999999999999 l 0.0,1.0 l 0.4336590845875442,-0.9010770213220916 l 0.7815204724188186,-0.6238795967093861 l -0.7815204724188192,0.6238795967093864 l 0.4336590845875442,-0.9010770213220916 l -1.3009772537626336,2.7032310639662853 l 0.7815204724188187,-0.6238795967093861 l 0.4336590845875442,-0.9010770213220916 l -0.43365908458754454,0.9010770213220951 l 0.7815204724188187,-0.6238795967093861 l 0.9747611941912216,-0.2232501160109513 l -0.9747611941912222,0.22325011601094502 l 0.7815204724188187,-0.6238795967093861 l 0.9747611941912216,-0.2232501160109513 l 0.7815204724188186,-0.6238795967093861 l -0.7815204724188192,0.6238795967093864 l 0.9747611941912216,-0.2232501160109513 l 0.975149354305563,0.2215484976194673 l -0.9751493543055627,-0.22154849761946593 l 0.9747611941912216,-0.2232501160109513 l -2.9242835825736666,0.6697503480328351 l 0.7815204724188187,-0.6238795967093861 l 0.4336590845875442,-0.9010770213220916 l -0.43365908458754454,0.9010770213220951 l 0.7815204724188187,-0.6238795967093861 l 0.9747611941912216,-0.2232501160109513 l -0.9747611941912222,0.22325011601094502 l 0.7815204724188187,-0.6238795967093861 l -7.033684251769372,5.614916370384478 l 0.4336590845875444,-0.9010770213220916 l 5.551115123125783e-17,-0.9999999999999999 l 0.0,1.0 l 0.4336590845875444,-0.9010770213220916 l 0.7815204724188187,-0.6238795967093861 l -0.7815204724188192,0.6238795967093864 l 0.4336590845875444,-0.9010770213220916 l 5.551115123125783e-17,-0.9999999999999999 l -0.4336590845875442,-0.9010770213220914 l 0.43365908458754454,0.9010770213220951 l 5.551115123125783e-17,-0.9999999999999999 l 0.4336590845875443,-0.9010770213220914 l -0.43365908458754454,0.9010770213220951 l 5.551115123125783e-17,-0.9999999999999999 l 0.0,3.0 l 0.4336590845875444,-0.9010770213220916 l 5.551115123125783e-17,-0.9999999999999999 l 0.0,1.0 l 0.4336590845875444,-0.9010770213220916 l 0.7815204724188187,-0.6238795967093861 l -0.7815204724188192,0.6238795967093864 l 0.4336590845875444,-0.9010770213220916 l 0.7815204724188187,-0.6238795967093861 l 0.4336590845875442,-0.9010770213220916 l -0.43365908458754454,0.9010770213220951 l 0.7815204724188187,-0.6238795967093861 l 0.9747611941912216,-0.2232501160109513 l -0.9747611941912222,0.22325011601094502 l 0.7815204724188187,-0.6238795967093861 l -2.3445614172564575,1.8716387901281593 l 0.4336590845875444,-0.9010770213220916 l 5.551115123125783e-17,-0.9999999999999999 l 0.0,1.0 l 0.4336590845875444,-0.9010770213220916 l 0.7815204724188187,-0.6238795967093861 l -0.7815204724188192,0.6238795967093864 l 0.4336590845875444,-0.9010770213220916 l -11.7087952838637,24.329079575696568 l 6.123233995736766e-17,-1.0 l -0.43365908458754426,-0.9010770213220916 l 0.43365908458754426,0.9010770213220951 l 6.123233995736766e-17,-1.0 l 0.4336590845875444,-0.9010770213220916 l -0.4336590845875444,0.9010770213220951 l 6.123233995736766e-17,-1.0 l -0.43365908458754426,-0.9010770213220916 l -0.7815204724188187,-0.6238795967093861 l 0.7815204724188187,0.6238795967093864 l -0.43365908458754426,-0.9010770213220916 l 5.551115123125783e-17,-0.9999999999999999 l 0.0,1.0 l -0.43365908458754426,-0.9010770213220916 l 1.300977253762633,2.7032310639662853 l 6.123233995736766e-17,-1.0 l -0.43365908458754426,-0.9010770213220916 l 0.43365908458754426,0.9010770213220951 l 6.123233995736766e-17,-1.0 l 0.4336590845875444,-0.9010770213220916 l -0.4336590845875444,0.9010770213220951 l 6.123233995736766e-17,-1.0 l 0.4336590845875444,-0.9010770213220916 l 5.551115123125783e-17,-0.9999999999999999 l -5.551115123125783e-17,1.0 l 0.4336590845875444,-0.9010770213220916 l 0.7815204724188187,-0.6238795967093861 l -0.7815204724188187,0.6238795967093864 l 0.4336590845875444,-0.9010770213220916 l -1.300977253762633,2.7032310639662853 l 6.123233995736766e-17,-1.0 l -0.43365908458754426,-0.9010770213220916 l 0.43365908458754426,0.9010770213220951 l 6.123233995736766e-17,-1.0 l 0.4336590845875444,-0.9010770213220916 l -0.4336590845875444,0.9010770213220951 l 6.123233995736766e-17,-1.0 l -0.43365908458754426,-0.9010770213220916 l -0.7815204724188187,-0.6238795967093861 l 0.7815204724188188,0.6238795967093864 l -0.43365908458754426,-0.9010770213220916 l 5.551115123125783e-17,-0.9999999999999999 l 0.0,1.0 l -0.43365908458754426,-0.9010770213220916 l -0.7815204724188187,-0.6238795967093861 l -0.9747611941912216,-0.2232501160109513 l 0.9747611941912218,0.22325011601094502 l -0.7815204724188187,-0.6238795967093861 l -0.4336590845875442,-0.9010770213220916 l 0.4336590845875441,0.9010770213220951 l -0.7815204724188187,-0.6238795967093861 l 2.3445614172564557,1.8716387901281593 l -0.43365908458754426,-0.9010770213220916 l -0.7815204724188187,-0.6238795967093861 l 0.7815204724188187,0.6238795967093864 l -0.43365908458754426,-0.9010770213220916 l 5.551115123125783e-17,-0.9999999999999999 l 0.0,1.0 l -0.43365908458754426,-0.9010770213220916 l 5.551115123125783e-17,-0.9999999999999999 l -0.4336590845875442,-0.9010770213220914 l 0.4336590845875441,0.9010770213220951 l 5.551115123125783e-17,-0.9999999999999999 l 0.4336590845875443,-0.9010770213220914 l -0.4336590845875441,0.9010770213220951 l 5.551115123125783e-17,-0.9999999999999999 l 0.0,3.0 l -0.43365908458754426,-0.9010770213220916 l -0.7815204724188187,-0.6238795967093861 l 0.7815204724188187,0.6238795967093864 l -0.43365908458754426,-0.9010770213220916 l 5.551115123125783e-17,-0.9999999999999999 l 0.0,1.0 l -0.43365908458754426,-0.9010770213220916 l 3.9029317612878978,8.109693191898856 l 6.123233995736766e-17,-1.0 l -0.43365908458754426,-0.9010770213220916 l 0.43365908458754426,0.9010770213220951 l 6.123233995736766e-17,-1.0 l 0.4336590845875444,-0.9010770213220916 l -0.4336590845875444,0.9010770213220951 l 6.123233995736766e-17,-1.0 l -0.43365908458754426,-0.9010770213220916 l -0.7815204724188187,-0.6238795967093861 l 0.7815204724188186,0.6238795967093864 l -0.43365908458754426,-0.9010770213220916 l 5.551115123125783e-17,-0.9999999999999999 l 0.0,1.0 l -0.43365908458754426,-0.9010770213220916 l 1.3009772537626327,2.7032310639662853 l 6.123233995736766e-17,-1.0 l -0.43365908458754426,-0.9010770213220916 l 0.43365908458754426,0.9010770213220951 l 6.123233995736766e-17,-1.0 l 0.4336590845875444,-0.9010770213220916 l -0.4336590845875444,0.9010770213220951 l 6.123233995736766e-17,-1.0 l 0.4336590845875444,-0.9010770213220916 l 5.551115123125783e-17,-0.9999999999999999 l -5.551115123125783e-17,1.0 l 0.4336590845875444,-0.9010770213220916 l 0.7815204724188187,-0.6238795967093861 l -0.7815204724188188,0.6238795967093864 l 0.4336590845875444,-0.9010770213220916 l -1.3009772537626332,2.7032310639662853 l 6.123233995736766e-17,-1.0 l -0.43365908458754426,-0.9010770213220916 l 0.43365908458754426,0.9010770213220951 l 6.123233995736766e-17,-1.0 l 0.4336590845875444,-0.9010770213220916 l -0.4336590845875444,0.9010770213220951 l 6.123233995736766e-17,-1.0 l 0.4336590845875444,-0.9010770213220916 l 5.551115123125783e-17,-0.9999999999999999 l -5.551115123125783e-17,1.0 l 0.4336590845875444,-0.9010770213220916 l 0.7815204724188187,-0.6238795967093861 l -0.7815204724188187,0.6238795967093864 l 0.4336590845875444,-0.9010770213220916 l 5.551115123125783e-17,-0.9999999999999999 l -0.4336590845875442,-0.9010770213220914 l 0.4336590845875442,0.9010770213220951 l 5.551115123125783e-17,-0.9999999999999999 l 0.4336590845875443,-0.9010770213220914 l -0.4336590845875443,0.9010770213220951 l 5.551115123125783e-17,-0.9999999999999999 l 0.0,3.0 l 0.4336590845875444,-0.9010770213220916 l 5.551115123125783e-17,-0.9999999999999999 l 0.0,1.0 l 0.4336590845875444,-0.9010770213220916 l 0.7815204724188187,-0.6238795967093861 l -0.7815204724188187,0.6238795967093864 l 0.4336590845875444,-0.9010770213220916 l 0.7815204724188187,-0.6238795967093861 l 0.4336590845875442,-0.9010770213220916 l -0.4336590845875441,0.9010770213220951 l 0.7815204724188187,-0.6238795967093861 l 0.9747611941912216,-0.2232501160109513 l -0.9747611941912213,0.22325011601094502 l 0.7815204724188187,-0.6238795967093861 l -2.3445614172564557,1.8716387901281593 l 0.4336590845875444,-0.9010770213220916 l 5.551115123125783e-17,-0.9999999999999999 l 0.0,1.0 l 0.4336590845875444,-0.9010770213220916 l 0.7815204724188187,-0.6238795967093861 l -0.7815204724188192,0.6238795967093864 l 0.4336590845875444,-0.9010770213220916 l -3.9029317612879,8.109693191898856 l 6.123233995736766e-17,-1.0 l -0.43365908458754426,-0.9010770213220916 l 0.43365908458754426,0.9010770213220951 l 6.123233995736766e-17,-1.0 l 0.4336590845875444,-0.9010770213220916 l -0.4336590845875444,0.9010770213220951 l 6.123233995736766e-17,-1.0 l -0.43365908458754426,-0.9010770213220916 l -0.7815204724188187,-0.6238795967093861 l 0.7815204724188187,0.6238795967093864 l -0.43365908458754426,-0.9010770213220916 l 5.551115123125783e-17,-0.9999999999999999 l 0.0,1.0 l -0.43365908458754426,-0.9010770213220916 l 1.300977253762633,2.7032310639662853 l 6.123233995736766e-17,-1.0 l -0.43365908458754426,-0.9010770213220916 l 0.43365908458754426,0.9010770213220951 l 6.123233995736766e-17,-1.0 l 0.4336590845875444,-0.9010770213220916 l -0.4336590845875444,0.9010770213220951 l 6.123233995736766e-17,-1.0 l 0.4336590845875444,-0.9010770213220916 l 5.551115123125783e-17,-0.9999999999999999 l -5.551115123125783e-17,1.0 l 0.4336590845875444,-0.9010770213220916 l 0.7815204724188187,-0.6238795967093861 l -0.7815204724188187,0.6238795967093864 l 0.4336590845875444,-0.9010770213220916 l -1.300977253762633,2.7032310639662853 l 6.123233995736766e-17,-1.0 l -0.43365908458754426,-0.9010770213220916 l 0.43365908458754426,0.9010770213220951 l 6.123233995736766e-17,-1.0 l 0.4336590845875444,-0.9010770213220916 l -0.4336590845875444,0.9010770213220951 l 6.123233995736766e-17,-1.0 " style="stroke-linecap:square;stroke:#50514F;stroke-width:0.2px;fill:none" /></g></svg>