<?xml version="1.0" encoding="UTF-8"?>
<!DOCTYPE svg PUBLIC "-//W3C//DTD SVG 1.1//EN"
    "http://www.w3.org/Graphics/SVG/1.1/DTD/svg11.dtd">
<svg xmlns="http://www.w3.org/2000/svg" xmlns:xlink="http://www.w3.org/1999/xlink" version="1.1" width="340.2983393487986" height="500" viewBox="-24.142509052666206 -88.18292104331908 65.47309437811137 96.19955022907536"><g><rect x="-24.142509052666206" y="-88.18292104331908" width="65.47309437811137" height="96.19955022907536" fill="#CBD4C2" /><path d="M 0,0 l -1.8369701987210297e-16,-1.0 l -1.8369701987210297e-16,-1.0 l -1.8369701987210297e-16,-1.0 l -1.8369701987210297e-16,-1.0 l -1.8369701987210297e-16,-1.0 l -1.8369701987210297e-16,-1.0 l -1.8369701987210297e-16,-1.0 l -1.8369701987210297e-16,-1.0 l -1.8369701987210297e-16,-1.0 l -1.8369701987210297e-16,-1.0 l -1.8369701987210297e-16,-1.0 l -1.8369701987210297e-16,-1.0 l -1.8369701987210297e-16,-1.0 l -1.8369701987210297e-16,-1.0 l -1.8369701987210297e-16,-1.0 l -1.8369701987210297e-16,-1.0 l -0.38268343236509034,-0.9238795325112865 l -0.38268343236509034,-0.9238795325112865 l -0.38268343236509034,-0.9238795325112865 l -0.38268343236509034,-0.9238795325112865 l -0.38268343236509034,-0.9238795325112865 l -0.38268343236509034,-0.9238795325112865 l -0.38268343236509034,-0.9238795325112865 l -0.38268343236509034,-0.9238795325112865 l -0.7071067811865479,-0.7071067811865471 l -0.7071067811865479,-0.7071067811865471 l -0.7071067811865479,-0.7071067811865471 l -0.7071067811865479,-0.7071067811865471 l -0.923879532511287,-0.3826834323650892 l -0.923879532511287,-0.3826834323650892 l -1.0,5.66553889764798e-16 l 0.0,0.0 l 0.0,0.0 l -1.0,5.66553889764798e-16 l -0.923879532511287,-0.3826834323650892 l 0.9238795325112861,0.38268343236508784 l 2.0,0.0 l -0.923879532511287,-0.3826834323650892 l 0.0,0.0 l 0.0,0.0 l -0.923879532511287,-0.3826834323650892 l -0.7071067811865479,-0.7071067811865471 l 0.7071067811865479,0.7071067811865461 l 1.8477590650225721,0.7653668647301757 l -0.923879532511287,-0.3826834323650892 l -0.923879532511287,-0.3826834323650892 l -0.7071067811865479,-0.7071067811865471 l -0.7071067811865479,-0.7071067811865471 l -0.7071067811865479,-0.7071067811865471 l 0.0,0.0 l 0.0,0.0 l -0.7071067811865479,-0.7071067811865471 l -0.38268343236509034,-0.9238795325112865 l 0.3826834323650896,0.9238795325112861 l 2.8284271247461916,2.8284271247461845 l -1.0,5.66553889764798e-16 l 0.0,0.0 l 0.0,0.0 l -1.0,5.66553889764798e-16 l -0.923879532511287,-0.3826834323650892 l 0.9238795325112861,0.38268343236508784 l 5.695518130045146,1.5307337294603514 l -0.7071067811865479,-0.7071067811865471 l -0.7071067811865479,-0.7071067811865471 l -0.923879532511287,-0.3826834323650892 l 0.0,0.0 l 0.0,0.0 l -0.923879532511287,-0.3826834323650892 l -0.7071067811865479,-0.7071067811865471 l 0.7071067811865479,0.7071067811865461 l 1.847759065022574,0.7653668647301757 l -0.7071067811865479,-0.7071067811865471 l 0.0,0.0 l 0.0,0.0 l -0.7071067811865479,-0.7071067811865471 l -0.38268343236509034,-0.9238795325112865 l 0.3826834323650896,0.9238795325112861 l 1.4142135623730958,1.4142135623730923 l -0.7071067811865479,-0.7071067811865471 l -0.7071067811865479,-0.7071067811865471 l -0.38268343236509034,-0.9238795325112865 l -0.38268343236509034,-0.9238795325112865 l -0.38268343236509034,-0.9238795325112865 l 0.0,0.0 l 0.0,0.0 l -0.38268343236509034,-0.9238795325112865 l -1.8369701987210297e-16,-1.0 l 0.0,1.0 l 1.5307337294603585,3.6955181300451443 l -0.923879532511287,-0.3826834323650892 l 0.0,0.0 l 0.0,0.0 l -0.923879532511287,-0.3826834323650892 l -0.7071067811865479,-0.7071067811865471 l 0.7071067811865479,0.7071067811865461 l 4.6761861897687655,3.59379398947636 l -0.7071067811865479,-0.7071067811865471 l -0.7071067811865479,-0.7071067811865471 l -0.7071067811865479,-0.7071067811865471 l -0.7071067811865479,-0.7071067811865471 l -0.38268343236509034,-0.9238795325112865 l -0.38268343236509034,-0.9238795325112865 l -0.38268343236509034,-0.9238795325112865 l -0.38268343236509034,-0.9238795325112865 l -0.38268343236509034,-0.9238795325112865 l -0.38268343236509034,-0.9238795325112865 l -0.7071067811865479,-0.7071067811865471 l 0.0,0.0 l 0.0,0.0 l -0.7071067811865479,-0.7071067811865471 l -0.38268343236509034,-0.9238795325112865 l 0.3826834323650896,0.9238795325112861 l 1.4142135623730958,1.4142135623730923 l -0.38268343236509034,-0.9238795325112865 l 0.0,0.0 l 0.0,0.0 l -0.38268343236509034,-0.9238795325112865 l -1.8369701987210297e-16,-1.0 l 0.0,1.0 l 0.7653668647301792,1.8477590650225721 l -0.38268343236509034,-0.9238795325112865 l -0.38268343236509034,-0.9238795325112865 l -1.8369701987210297e-16,-1.0 l -1.8369701987210297e-16,-1.0 l -1.8369701987210297e-16,-1.0 l 0.0,0.0 l 0.0,0.0 l -1.8369701987210297e-16,-1.0 l 0.38268343236509,-0.9238795325112866 l -0.3826834323650896,0.9238795325112861 l 0.0,4.0 l -0.7071067811865479,-0.7071067811865471 l 0.0,0.0 l 0.0,0.0 l -0.7071067811865479,-0.7071067811865471 l -0.38268343236509034,-0.9238795325112865 l 0.3826834323650896,0.9238795325112861 l 4.475681021293813,8.80524982246338 l -0.923879532511287,-0.3826834323650892 l -0.923879532511287,-0.3826834323650892 l -1.0,5.66553889764798e-16 l 0.0,0.0 l 0.0,0.0 l -1.0,5.66553889764798e-16 l -0.923879532511287,-0.3826834323650892 l 0.9238795325112861,0.38268343236508784 l 2.0,0.0 l -0.923879532511287,-0.3826834323650892 l 0.0,0.0 l 0.0,0.0 l -0.923879532511287,-0.3826834323650892 l -0.7071067811865479,-0.7071067811865471 l 0.7071067811865479,0.7071067811865461 l 1.8477590650225721,0.7653668647301757 l -0.923879532511287,-0.3826834323650892 l -0.923879532511287,-0.3826834323650892 l -0.7071067811865479,-0.7071067811865471 l -0.7071067811865479,-0.7071067811865471 l -0.7071067811865479,-0.7071067811865471 l 0.0,0.0 l 0.0,0.0 l -0.7071067811865479,-0.7071067811865471 l -0.38268343236509034,-0.9238795325112865 l 0.3826834323650896,0.9238795325112861 l 2.8284271247461916,2.8284271247461845 l -1.0,5.66553889764798e-16 l 0.0,0.0 l 0.0,0.0 l -1.0,5.66553889764798e-16 l -0.923879532511287,-0.3826834323650892 l 0.9238795325112861,0.38268343236508784 l 11.35237237953753,7.18758797895272 l -0.38268343236509034,-0.9238795325112865 l -0.38268343236509034,-0.9238795325112865 l -0.38268343236509034,-0.9238795325112865 l -0.38268343236509034,-0.9238795325112865 l -0.7071067811865479,-0.7071067811865471 l -0.7071067811865479,-0.7071067811865471 l -0.923879532511287,-0.3826834323650892 l 0.0,0.0 l 0.0,0.0 l -0.923879532511287,-0.3826834323650892 l -0.7071067811865479,-0.7071067811865471 l 0.7071067811865479,0.7071067811865461 l 1.847759065022574,0.7653668647301757 l -0.7071067811865479,-0.7071067811865471 l 0.0,0.0 l 0.0,0.0 l -0.7071067811865479,-0.7071067811865471 l -0.38268343236509034,-0.9238795325112865 l 0.3826834323650905,0.9238795325112861 l 1.4142135623730958,1.4142135623730923 l -0.7071067811865479,-0.7071067811865471 l -0.7071067811865479,-0.7071067811865471 l -0.38268343236509034,-0.9238795325112865 l -0.38268343236509034,-0.9238795325112865 l -0.38268343236509034,-0.9238795325112865 l 0.0,0.0 l 0.0,0.0 l -0.38268343236509034,-0.9238795325112865 l -1.8369701987210297e-16,-1.0 l 0.0,1.0 l 1.5307337294603602,3.6955181300451443 l -0.923879532511287,-0.3826834323650892 l 0.0,0.0 l 0.0,0.0 l -0.923879532511287,-0.3826834323650892 l -0.7071067811865479,-0.7071067811865471 l 0.7071067811865479,0.7071067811865461 l 4.6761861897687655,3.59379398947636 l -0.38268343236509034,-0.9238795325112865 l -0.38268343236509034,-0.9238795325112865 l -0.7071067811865479,-0.7071067811865471 l 0.0,0.0 l 0.0,0.0 l -0.7071067811865479,-0.7071067811865471 l -0.38268343236509034,-0.9238795325112865 l 0.3826834323650905,0.9238795325112861 l 1.4142135623730958,1.4142135623730923 l -0.38268343236509034,-0.9238795325112865 l 0.0,0.0 l 0.0,0.0 l -0.38268343236509034,-0.9238795325112865 l -1.8369701987210297e-16,-1.0 l 0.0,1.0 l 0.765366864730181,1.8477590650225721 l -0.38268343236509034,-0.9238795325112865 l -0.38268343236509034,-0.9238795325112865 l -1.8369701987210297e-16,-1.0 l -1.8369701987210297e-16,-1.0 l -1.8369701987210297e-16,-1.0 l 0.0,0.0 l 0.0,0.0 l -1.8369701987210297e-16,-1.0 l 0.38268343236509,-0.9238795325112866 l -0.3826834323650896,0.9238795325112861 l 0.0,4.0 l -0.7071067811865479,-0.7071067811865471 l 0.0,0.0 l 0.0,0.0 l -0.7071067811865479,-0.7071067811865471 l -0.38268343236509034,-0.9238795325112865 l 0.3826834323650905,0.9238795325112861 l 2.944947291833458,5.1097316924182365 l -0.38268343236509034,-0.9238795325112865 l -0.38268343236509034,-0.9238795325112865 l -0.38268343236509034,-0.9238795325112865 l -0.38268343236509034,-0.9238795325112865 l -1.8369701987210297e-16,-1.0 l -1.8369701987210297e-16,-1.0 l -1.8369701987210297e-16,-1.0 l -1.8369701987210297e-16,-1.0 l -1.8369701987210297e-16,-1.0 l -1.8369701987210297e-16,-1.0 l -0.38268343236509034,-0.9238795325112865 l 0.0,0.0 l 0.0,0.0 l -0.38268343236509034,-0.9238795325112865 l -1.8369701987210297e-16,-1.0 l 0.0,1.0 l 0.765366864730181,1.8477590650225721 l -1.8369701987210297e-16,-1.0 l 0.0,0.0 l 0.0,0.0 l -1.8369701987210297e-16,-1.0 l 0.38268343236509,-0.9238795325112866 l -0.3826834323650896,0.9238795325112861 l 0.0,2.0 l -1.8369701987210297e-16,-1.0 l -1.8369701987210297e-16,-1.0 l 0.38268343236509,-0.9238795325112866 l 0.38268343236509,-0.9238795325112866 l 0.38268343236509,-0.9238795325112866 l 0.0,0.0 l 0.0,0.0 l 0.38268343236509,-0.9238795325112866 l 0.707106781186548,-0.707106781186547 l -0.7071067811865479,0.7071067811865461 l -1.5307337294603585,3.6955181300451443 l -0.38268343236509034,-0.9238795325112865 l 0.0,0.0 l 0.0,0.0 l -0.38268343236509034,-0.9238795325112865 l -1.8369701987210297e-16,-1.0 l 0.0,1.0 l 0.765366864730181,9.847759065022572 l -0.7071067811865479,-0.7071067811865471 l -0.7071067811865479,-0.7071067811865471 l -0.923879532511287,-0.3826834323650892 l 0.0,0.0 l 0.0,0.0 l -0.923879532511287,-0.3826834323650892 l -0.7071067811865479,-0.7071067811865471 l 0.7071067811865479,0.7071067811865461 l 1.847759065022574,0.7653668647301828 l -0.7071067811865479,-0.7071067811865471 l 0.0,0.0 l 0.0,0.0 l -0.7071067811865479,-0.7071067811865471 l -0.38268343236509034,-0.9238795325112865 l 0.3826834323650896,0.9238795325112861 l 1.4142135623730958,1.4142135623730923 l -0.7071067811865479,-0.7071067811865471 l -0.7071067811865479,-0.7071067811865471 l -0.38268343236509034,-0.9238795325112865 l -0.38268343236509034,-0.9238795325112865 l -0.38268343236509034,-0.9238795325112865 l 0.0,0.0 l 0.0,0.0 l -0.38268343236509034,-0.9238795325112865 l -1.8369701987210297e-16,-1.0 l 0.0,1.0 l 1.5307337294603585,3.6955181300451443 l -0.923879532511287,-0.3826834323650892 l 0.0,0.0 l 0.0,0.0 l -0.923879532511287,-0.3826834323650892 l -0.7071067811865479,-0.7071067811865471 l 0.7071067811865479,0.7071067811865461 l 7.73765364868949,10.984830249566656 l -0.38268343236509034,-0.9238795325112865 l -0.38268343236509034,-0.9238795325112865 l -0.38268343236509034,-0.9238795325112865 l -0.38268343236509034,-0.9238795325112865 l -0.38268343236509034,-0.9238795325112865 l -0.38268343236509034,-0.9238795325112865 l -0.38268343236509034,-0.9238795325112865 l -0.38268343236509034,-0.9238795325112865 l -1.8369701987210297e-16,-1.0 l -1.8369701987210297e-16,-1.0 l -1.8369701987210297e-16,-1.0 l -1.8369701987210297e-16,-1.0 l -1.8369701987210297e-16,-1.0 l -1.8369701987210297e-16,-1.0 l -1.8369701987210297e-16,-1.0 l -1.8369701987210297e-16,-1.0 l -1.8369701987210297e-16,-1.0 l -1.8369701987210297e-16,-1.0 l -1.8369701987210297e-16,-1.0 l -1.8369701987210297e-16,-1.0 l -0.38268343236509034,-0.9238795325112865 l -0.38268343236509034,-0.9238795325112865 l -0.7071067811865479,-0.7071067811865471 l 0.0,0.0 l 0.0,0.0 l -0.7071067811865479,-0.7071067811865471 l -0.38268343236509034,-0.9238795325112865 l 0.3826834323650896,0.9238795325112861 l 1.4142135623730958,1.4142135623730923 l -0.38268343236509034,-0.9238795325112865 l 0.0,0.0 l 0.0,0.0 l -0.38268343236509034,-0.9238795325112865 l -1.8369701987210297e-16,-1.0 l 0.0,1.0 l 0.765366864730181,1.8477590650225721 l -0.38268343236509034,-0.9238795325112865 l -0.38268343236509034,-0.9238795325112865 l -1.8369701987210297e-16,-1.0 l -1.8369701987210297e-16,-1.0 l -1.8369701987210297e-16,-1.0 l 0.0,0.0 l 0.0,0.0 l -1.8369701987210297e-16,-1.0 l 0.38268343236509,-0.9238795325112866 l -0.3826834323650896,0.9238795325112861 l 0.0,4.0 l -0.7071067811865479,-0.7071067811865471 l 0.0,0.0 l 0.0,0.0 l -0.7071067811865479,-0.7071067811865471 l -0.38268343236509034,-0.9238795325112865 l 0.3826834323650896,0.9238795325112861 l 2.944947291833458,5.1097316924182365 l -1.8369701987210297e-16,-1.0 l -1.8369701987210297e-16,-1.0 l -0.38268343236509034,-0.9238795325112865 l 0.0,0.0 l 0.0,0.0 l -0.38268343236509034,-0.9238795325112865 l -1.8369701987210297e-16,-1.0 l 0.0,1.0 l 0.765366864730181,1.8477590650225721 l -1.8369701987210297e-16,-1.0 l 0.0,0.0 l 0.0,0.0 l -1.8369701987210297e-16,-1.0 l 0.38268343236509,-0.9238795325112866 l -0.3826834323650896,0.9238795325112861 l 0.0,2.0 l -1.8369701987210297e-16,-1.0 l -1.8369701987210297e-16,-1.0 l 0.38268343236509,-0.9238795325112866 l 0.38268343236509,-0.9238795325112866 l 0.38268343236509,-0.9238795325112866 l 0.0,0.0 l 0.0,0.0 l 0.38268343236509,-0.9238795325112866 l 0.707106781186548,-0.707106781186547 l -0.7071067811865479,0.7071067811865461 l -1.5307337294603585,3.6955181300451443 l -0.38268343236509034,-0.9238795325112865 l 0.0,0.0 l 0.0,0.0 l -0.38268343236509034,-0.9238795325112865 l -1.8369701987210297e-16,-1.0 l 0.0,1.0 l 0.765366864730181,5.847759065022572 l -1.8369701987210297e-16,-1.0 l -1.8369701987210297e-16,-1.0 l -1.8369701987210297e-16,-1.0 l -1.8369701987210297e-16,-1.0 l 0.38268343236509,-0.9238795325112866 l 0.38268343236509,-0.9238795325112866 l 0.38268343236509,-0.9238795325112866 l 0.38268343236509,-0.9238795325112866 l 0.38268343236509,-0.9238795325112866 l 0.38268343236509,-0.9238795325112866 l -1.8369701987210297e-16,-1.0 l 0.0,0.0 l 0.0,0.0 l -1.8369701987210297e-16,-1.0 l 0.38268343236509,-0.9238795325112866 l -0.38268343236509006,0.9238795325112861 l 0.0,2.0 l 0.38268343236509,-0.9238795325112866 l 0.0,0.0 l 0.0,0.0 l 0.38268343236509,-0.9238795325112866 l 0.707106781186548,-0.707106781186547 l -0.7071067811865479,0.7071067811865461 l -0.7653668647301801,1.8477590650225721 l 0.38268343236509,-0.9238795325112866 l 0.38268343236509,-0.9238795325112866 l 0.707106781186548,-0.707106781186547 l 0.707106781186548,-0.707106781186547 l 0.707106781186548,-0.707106781186547 l 0.0,0.0 l 0.0,0.0 l 0.707106781186548,-0.707106781186547 l 0.9238795325112872,-0.3826834323650887 l -0.9238795325112872,0.3826834323650914 l -2.8284271247461916,2.8284271247461845 l -1.8369701987210297e-16,-1.0 l 0.0,0.0 l 0.0,0.0 l -1.8369701987210297e-16,-1.0 l 0.38268343236509,-0.9238795325112866 l -0.38268343236509006,0.9238795325112861 l -3.0614674589207183,9.391036260090289 l -0.38268343236509034,-0.9238795325112865 l -0.38268343236509034,-0.9238795325112865 l -0.7071067811865479,-0.7071067811865471 l 0.0,0.0 l 0.0,0.0 l -0.7071067811865479,-0.7071067811865471 l -0.38268343236509034,-0.9238795325112865 l 0.3826834323650896,0.9238795325112861 l 1.4142135623730958,1.4142135623730923 l -0.38268343236509034,-0.9238795325112865 l 0.0,0.0 l 0.0,0.0 l -0.38268343236509034,-0.9238795325112865 l -1.8369701987210297e-16,-1.0 l 0.0,1.0 l 0.765366864730181,1.8477590650225721 l -0.38268343236509034,-0.9238795325112865 l -0.38268343236509034,-0.9238795325112865 l -1.8369701987210297e-16,-1.0 l -1.8369701987210297e-16,-1.0 l -1.8369701987210297e-16,-1.0 l 0.0,0.0 l 0.0,0.0 l -1.8369701987210297e-16,-1.0 l 0.38268343236509,-0.9238795325112866 l -0.3826834323650896,0.9238795325112861 l 0.0,4.0 l -0.7071067811865479,-0.7071067811865471 l 0.0,0.0 l 0.0,0.0 l -0.7071067811865479,-0.7071067811865471 l -0.38268343236509034,-0.9238795325112865 l 0.3826834323650896,0.9238795325112861 l 2.944947291833458,21.109731692418237 l -0.7071067811865479,-0.7071067811865471 l -0.7071067811865479,-0.7071067811865471 l -0.7071067811865479,-0.7071067811865471 l -0.7071067811865479,-0.7071067811865471 l -0.923879532511287,-0.3826834323650892 l -0.923879532511287,-0.3826834323650892 l -1.0,5.66553889764798e-16 l 0.0,0.0 l 0.0,0.0 l -1.0,5.66553889764798e-16 l -0.923879532511287,-0.3826834323650892 l 0.9238795325112861,0.3826834323650914 l 2.0,0.0 l -0.923879532511287,-0.3826834323650892 l 0.0,0.0 l 0.0,0.0 l -0.923879532511287,-0.3826834323650892 l -0.7071067811865479,-0.7071067811865471 l 0.7071067811865479,0.7071067811865461 l 1.8477590650225721,0.7653668647301828 l -0.923879532511287,-0.3826834323650892 l -0.923879532511287,-0.3826834323650892 l -0.7071067811865479,-0.7071067811865471 l -0.7071067811865479,-0.7071067811865471 l -0.7071067811865479,-0.7071067811865471 l 0.0,0.0 l 0.0,0.0 l -0.7071067811865479,-0.7071067811865471 l -0.38268343236509034,-0.9238795325112865 l 0.3826834323650896,0.9238795325112861 l 2.8284271247461916,2.8284271247461845 l -1.0,5.66553889764798e-16 l 0.0,0.0 l 0.0,0.0 l -1.0,5.66553889764798e-16 l -0.923879532511287,-0.3826834323650892 l 0.9238795325112861,0.3826834323650914 l 5.695518130045146,1.5307337294603656 l -0.7071067811865479,-0.7071067811865471 l -0.7071067811865479,-0.7071067811865471 l -0.923879532511287,-0.3826834323650892 l 0.0,0.0 l 0.0,0.0 l -0.923879532511287,-0.3826834323650892 l -0.7071067811865479,-0.7071067811865471 l 0.7071067811865479,0.7071067811865461 l 1.847759065022574,0.7653668647301828 l -0.7071067811865479,-0.7071067811865471 l 0.0,0.0 l 0.0,0.0 l -0.7071067811865479,-0.7071067811865471 l -0.38268343236509034,-0.9238795325112865 l 0.3826834323650896,0.9238795325112861 l 1.4142135623730958,1.4142135623730923 l -0.7071067811865479,-0.7071067811865471 l -0.7071067811865479,-0.7071067811865471 l -0.38268343236509034,-0.9238795325112865 l -0.38268343236509034,-0.9238795325112865 l -0.38268343236509034,-0.9238795325112865 l 0.0,0.0 l 0.0,0.0 l -0.38268343236509034,-0.9238795325112865 l -1.8369701987210297e-16,-1.0 l 0.0,1.0 l 1.5307337294603585,3.6955181300451443 l -0.923879532511287,-0.3826834323650892 l 0.0,0.0 l 0.0,0.0 l -0.923879532511287,-0.3826834323650892 l -0.7071067811865479,-0.7071067811865471 l 0.7071067811865479,0.7071067811865461 l 4.6761861897687655,3.5937939894763673 l -0.7071067811865479,-0.7071067811865471 l -0.7071067811865479,-0.7071067811865471 l -0.7071067811865479,-0.7071067811865471 l -0.7071067811865479,-0.7071067811865471 l -0.38268343236509034,-0.9238795325112865 l -0.38268343236509034,-0.9238795325112865 l -0.38268343236509034,-0.9238795325112865 l -0.38268343236509034,-0.9238795325112865 l -0.38268343236509034,-0.9238795325112865 l -0.38268343236509034,-0.9238795325112865 l -0.7071067811865479,-0.7071067811865471 l 0.0,0.0 l 0.0,0.0 l -0.7071067811865479,-0.7071067811865471 l -0.38268343236509034,-0.9238795325112865 l 0.3826834323650896,0.9238795325112861 l 1.4142135623730958,1.4142135623730923 l -0.38268343236509034,-0.9238795325112865 l 0.0,0.0 l 0.0,0.0 l -0.38268343236509034,-0.9238795325112865 l -1.8369701987210297e-16,-1.0 l 0.0,1.0 l 0.7653668647301792,1.8477590650225721 l -0.38268343236509034,-0.9238795325112865 l -0.38268343236509034,-0.9238795325112865 l -1.8369701987210297e-16,-1.0 l -1.8369701987210297e-16,-1.0 l -1.8369701987210297e-16,-1.0 l 0.0,0.0 l 0.0,0.0 l -1.8369701987210297e-16,-1.0 l 0.38268343236509,-0.9238795325112866 l -0.3826834323650896,0.9238795325112861 l 0.0,4.0 l -0.7071067811865479,-0.7071067811865471 l 0.0,0.0 l 0.0,0.0 l -0.7071067811865479,-0.7071067811865471 l -0.38268343236509034,-0.9238795325112865 l 0.3826834323650914,0.9238795325112861 l 4.4756810212938145,8.80524982246338 l -0.923879532511287,-0.3826834323650892 l -0.923879532511287,-0.3826834323650892 l -1.0,5.66553889764798e-16 l 0.0,0.0 l 0.0,0.0 l -1.0,5.66553889764798e-16 l -0.923879532511287,-0.3826834323650892 l 0.9238795325112861,0.3826834323650914 l 2.0,0.0 l -0.923879532511287,-0.3826834323650892 l 0.0,0.0 l 0.0,0.0 l -0.923879532511287,-0.3826834323650892 l -0.7071067811865479,-0.7071067811865471 l 0.7071067811865497,0.7071067811865461 l 1.8477590650225721,0.7653668647301828 l -0.923879532511287,-0.3826834323650892 l -0.923879532511287,-0.3826834323650892 l -0.7071067811865479,-0.7071067811865471 l -0.7071067811865479,-0.7071067811865471 l -0.7071067811865479,-0.7071067811865471 l 0.0,0.0 l 0.0,0.0 l -0.7071067811865479,-0.7071067811865471 l -0.38268343236509034,-0.9238795325112865 l 0.3826834323650914,0.9238795325112861 l 2.828427124746188,2.8284271247461845 l -1.0,5.66553889764798e-16 l 0.0,0.0 l 0.0,0.0 l -1.0,5.66553889764798e-16 l -0.923879532511287,-0.3826834323650892 l 0.9238795325112861,0.3826834323650914 l 17.475307297378976,21.96966049913331 l -1.8369701987210297e-16,-1.0 l -1.8369701987210297e-16,-1.0 l -1.8369701987210297e-16,-1.0 l -1.8369701987210297e-16,-1.0 l -1.8369701987210297e-16,-1.0 l -1.8369701987210297e-16,-1.0 l -1.8369701987210297e-16,-1.0 l -1.8369701987210297e-16,-1.0 l -0.38268343236509034,-0.9238795325112865 l -0.38268343236509034,-0.9238795325112865 l -0.38268343236509034,-0.9238795325112865 l -0.38268343236509034,-0.9238795325112865 l -0.7071067811865479,-0.7071067811865471 l -0.7071067811865479,-0.7071067811865471 l -0.923879532511287,-0.3826834323650892 l 0.0,0.0 l 0.0,0.0 l -0.923879532511287,-0.3826834323650892 l -0.7071067811865479,-0.7071067811865471 l 0.7071067811865479,0.7071067811865461 l 1.847759065022574,0.7653668647301757 l -0.7071067811865479,-0.7071067811865471 l 0.0,0.0 l 0.0,0.0 l -0.7071067811865479,-0.7071067811865471 l -0.38268343236509034,-0.9238795325112865 l 0.3826834323650905,0.9238795325112861 l 1.4142135623730958,1.4142135623730923 l -0.7071067811865479,-0.7071067811865471 l -0.7071067811865479,-0.7071067811865471 l -0.38268343236509034,-0.9238795325112865 l -0.38268343236509034,-0.9238795325112865 l -0.38268343236509034,-0.9238795325112865 l 0.0,0.0 l 0.0,0.0 l -0.38268343236509034,-0.9238795325112865 l -1.8369701987210297e-16,-1.0 l 0.0,1.0 l 1.530733729460362,3.6955181300451443 l -0.923879532511287,-0.3826834323650892 l 0.0,0.0 l 0.0,0.0 l -0.923879532511287,-0.3826834323650892 l -0.7071067811865479,-0.7071067811865471 l 0.7071067811865479,0.7071067811865461 l 4.6761861897687655,3.59379398947636 l -0.38268343236509034,-0.9238795325112865 l -0.38268343236509034,-0.9238795325112865 l -0.7071067811865479,-0.7071067811865471 l 0.0,0.0 l 0.0,0.0 l -0.7071067811865479,-0.7071067811865471 l -0.38268343236509034,-0.9238795325112865 l 0.38268343236509006,0.9238795325112861 l 1.4142135623730958,1.4142135623730923 l -0.38268343236509034,-0.9238795325112865 l 0.0,0.0 l 0.0,0.0 l -0.38268343236509034,-0.9238795325112865 l -1.8369701987210297e-16,-1.0 l 0.0,1.0 l 0.765366864730181,1.8477590650225721 l -0.38268343236509034,-0.9238795325112865 l -0.38268343236509034,-0.9238795325112865 l -1.8369701987210297e-16,-1.0 l -1.8369701987210297e-16,-1.0 l -1.8369701987210297e-16,-1.0 l 0.0,0.0 l 0.0,0.0 l -1.8369701987210297e-16,-1.0 l 0.38268343236509,-0.9238795325112866 l -0.38268343236509006,0.9238795325112861 l 0.0,4.0 l -0.7071067811865479,-0.7071067811865471 l 0.0,0.0 l 0.0,0.0 l -0.7071067811865479,-0.7071067811865471 l -0.38268343236509034,-0.9238795325112865 l 0.3826834323650905,0.9238795325112861 l 2.944947291833458,5.1097316924182365 l -0.38268343236509034,-0.9238795325112865 l -0.38268343236509034,-0.9238795325112865 l -0.38268343236509034,-0.9238795325112865 l -0.38268343236509034,-0.9238795325112865 l -1.8369701987210297e-16,-1.0 l -1.8369701987210297e-16,-1.0 l -1.8369701987210297e-16,-1.0 l -1.8369701987210297e-16,-1.0 l -1.8369701987210297e-16,-1.0 l -1.8369701987210297e-16,-1.0 l -0.38268343236509034,-0.9238795325112865 l 0.0,0.0 l 0.0,0.0 l -0.38268343236509034,-0.9238795325112865 l -1.8369701987210297e-16,-1.0 l 0.0,1.0 l 0.765366864730181,1.8477590650225721 l -1.8369701987210297e-16,-1.0 l 0.0,0.0 l 0.0,0.0 l -1.8369701987210297e-16,-1.0 l 0.38268343236509,-0.9238795325112866 l -0.38268343236509006,0.9238795325112861 l 0.0,2.0 l -1.8369701987210297e-16,-1.0 l -1.8369701987210297e-16,-1.0 l 0.38268343236509,-0.9238795325112866 l 0.38268343236509,-0.9238795325112866 l 0.38268343236509,-0.9238795325112866 l 0.0,0.0 l 0.0,0.0 l 0.38268343236509,-0.9238795325112866 l 0.707106781186548,-0.707106781186547 l -0.707106781186548,0.7071067811865461 l -1.5307337294603602,3.6955181300451443 l -0.38268343236509034,-0.9238795325112865 l 0.0,0.0 l 0.0,0.0 l -0.38268343236509034,-0.9238795325112865 l -1.8369701987210297e-16,-1.0 l 0.0,1.0 l 0.765366864730181,9.847759065022572 l -0.7071067811865479,-0.7071067811865471 l -0.7071067811865479,-0.7071067811865471 l -0.923879532511287,-0.3826834323650892 l 0.0,0.0 l 0.0,0.0 l -0.923879532511287,-0.3826834323650892 l -0.7071067811865479,-0.7071067811865471 l 0.7071067811865479,0.7071067811865461 l 1.847759065022574,0.7653668647301828 l -0.7071067811865479,-0.7071067811865471 l 0.0,0.0 l 0.0,0.0 l -0.7071067811865479,-0.7071067811865471 l -0.38268343236509034,-0.9238795325112865 l 0.3826834323650905,0.9238795325112861 l 1.4142135623730958,1.4142135623730923 l -0.7071067811865479,-0.7071067811865471 l -0.7071067811865479,-0.7071067811865471 l -0.38268343236509034,-0.9238795325112865 l -0.38268343236509034,-0.9238795325112865 l -0.38268343236509034,-0.9238795325112865 l 0.0,0.0 l 0.0,0.0 l -0.38268343236509034,-0.9238795325112865 l -1.8369701987210297e-16,-1.0 l 0.0,1.0 l 1.530733729460362,3.6955181300451443 l -0.923879532511287,-0.3826834323650892 l 0.0,0.0 l 0.0,0.0 l -0.923879532511287,-0.3826834323650892 l -0.7071067811865479,-0.7071067811865471 l 0.7071067811865479,0.7071067811865461 l 7.737653648689489,10.984830249566656 l -1.8369701987210297e-16,-1.0 l -1.8369701987210297e-16,-1.0 l -1.8369701987210297e-16,-1.0 l -1.8369701987210297e-16,-1.0 l -0.38268343236509034,-0.9238795325112865 l -0.38268343236509034,-0.9238795325112865 l -0.7071067811865479,-0.7071067811865471 l 0.0,0.0 l 0.0,0.0 l -0.7071067811865479,-0.7071067811865471 l -0.38268343236509034,-0.9238795325112865 l 0.3826834323650905,0.9238795325112861 l 1.4142135623730958,1.4142135623730923 l -0.38268343236509034,-0.9238795325112865 l 0.0,0.0 l 0.0,0.0 l -0.38268343236509034,-0.9238795325112865 l -1.8369701987210297e-16,-1.0 l 2.220446049250313e-16,1.0 l 0.7653668647301806,1.8477590650225721 l -0.38268343236509034,-0.9238795325112865 l -0.38268343236509034,-0.9238795325112865 l -1.8369701987210297e-16,-1.0 l -1.8369701987210297e-16,-1.0 l -1.8369701987210297e-16,-1.0 l 0.0,0.0 l 0.0,0.0 l -1.8369701987210297e-16,-1.0 l 0.38268343236509,-0.9238795325112866 l -0.38268343236509006,0.9238795325112861 l 8.881784197001252e-16,4.0 l -0.7071067811865479,-0.7071067811865471 l 0.0,0.0 l 0.0,0.0 l -0.7071067811865479,-0.7071067811865471 l -0.38268343236509034,-0.9238795325112865 l 0.3826834323650905,0.9238795325112861 l 2.944947291833457,5.1097316924182365 l -1.8369701987210297e-16,-1.0 l -1.8369701987210297e-16,-1.0 l -0.38268343236509034,-0.9238795325112865 l 0.0,0.0 l 0.0,0.0 l -0.38268343236509034,-0.9238795325112865 l -1.8369701987210297e-16,-1.0 l 2.220446049250313e-16,1.0 l 0.7653668647301806,1.8477590650225721 l -1.8369701987210297e-16,-1.0 l 0.0,0.0 l 0.0,0.0 l -1.8369701987210297e-16,-1.0 l 0.38268343236509,-0.9238795325112866 l -0.38268343236509,0.9238795325112861 l 3.6739403974420544e-16,2.0 l -1.8369701987210297e-16,-1.0 l -1.8369701987210297e-16,-1.0 l 0.38268343236509,-0.9238795325112866 l 0.38268343236509,-0.9238795325112866 l 0.38268343236509,-0.9238795325112866 l 0.0,0.0 l 0.0,0.0 l 0.38268343236509,-0.9238795325112866 l 0.707106781186548,-0.707106781186547 l -0.7071067811865481,0.7071067811865461 l -1.53073372946036,3.6955181300451443 l -0.38268343236509034,-0.9238795325112865 l 0.0,0.0 l 0.0,0.0 l -0.38268343236509034,-0.9238795325112865 l -1.8369701987210297e-16,-1.0 l 2.220446049250313e-16,1.0 l 0.7653668647301815,5.847759065022572 l -1.8369701987210297e-16,-1.0 l -1.8369701987210297e-16,-1.0 l -1.8369701987210297e-16,-1.0 l -1.8369701987210297e-16,-1.0 l 0.38268343236509,-0.9238795325112866 l 0.38268343236509,-0.9238795325112866 l 0.38268343236509,-0.9238795325112866 l 0.38268343236509,-0.9238795325112866 l 0.38268343236509,-0.9238795325112866 l 0.38268343236509,-0.9238795325112866 l -1.8369701987210297e-16,-1.0 l 0.0,0.0 l 0.0,0.0 l -1.8369701987210297e-16,-1.0 l 0.38268343236509,-0.9238795325112866 l -0.38268343236509006,0.9238795325112861 l 0.0,2.0 l 0.38268343236509,-0.9238795325112866 l 0.0,0.0 l 0.0,0.0 l 0.38268343236509,-0.9238795325112866 l 0.707106781186548,-0.707106781186547 l -0.7071067811865479,0.7071067811865461 l -0.7653668647301801,1.8477590650225721 l 0.38268343236509,-0.9238795325112866 l 0.38268343236509,-0.9238795325112866 l 0.707106781186548,-0.707106781186547 l 0.707106781186548,-0.707106781186547 l 0.707106781186548,-0.707106781186547 l 0.0,0.0 l 0.0,0.0 l 0.707106781186548,-0.707106781186547 l 0.9238795325112872,-0.3826834323650887 l -0.923879532511287,0.3826834323650914 l -2.8284271247461916,2.8284271247461845 l -1.8369701987210297e-16,-1.0 l 0.0,0.0 l 0.0,0.0 l -1.8369701987210297e-16,-1.0 l 0.38268343236509,-0.9238795325112866 l -0.38268343236509006,0.9238795325112861 l -3.06146745892072,9.391036260090289 l -0.38268343236509034,-0.9238795325112865 l -0.38268343236509034,-0.9238795325112865 l -0.7071067811865479,-0.7071067811865471 l 0.0,0.0 l 0.0,0.0 l -0.7071067811865479,-0.7071067811865471 l -0.38268343236509034,-0.9238795325112865 l 0.3826834323650905,0.9238795325112861 l 1.4142135623730956,1.4142135623730923 l -0.38268343236509034,-0.9238795325112865 l 0.0,0.0 l 0.0,0.0 l -0.38268343236509034,-0.9238795325112865 l -1.8369701987210297e-16,-1.0 l 2.220446049250313e-16,1.0 l 0.7653668647301806,1.8477590650225721 l -0.38268343236509034,-0.9238795325112865 l -0.38268343236509034,-0.9238795325112865 l -1.8369701987210297e-16,-1.0 l -1.8369701987210297e-16,-1.0 l -1.8369701987210297e-16,-1.0 l 0.0,0.0 l 0.0,0.0 l -1.8369701987210297e-16,-1.0 l 0.38268343236509,-0.9238795325112866 l -0.38268343236509006,0.9238795325112861 l 8.881784197001252e-16,4.0 l -0.7071067811865479,-0.7071067811865471 l 0.0,0.0 l 0.0,0.0 l -0.7071067811865479,-0.7071067811865471 l -0.38268343236509034,-0.9238795325112865 l 0.3826834323650905,0.9238795325112861 l 2.9449472918334587,13.109731692418237 l -1.8369701987210297e-16,-1.0 l -1.8369701987210297e-16,-1.0 l -1.8369701987210297e-16,-1.0 l -1.8369701987210297e-16,-1.0 l -1.8369701987210297e-16,-1.0 l -1.8369701987210297e-16,-1.0 l -1.8369701987210297e-16,-1.0 l -1.8369701987210297e-16,-1.0 l 0.38268343236509,-0.9238795325112866 l 0.38268343236509,-0.9238795325112866 l 0.38268343236509,-0.9238795325112866 l 0.38268343236509,-0.9238795325112866 l 0.38268343236509,-0.9238795325112866 l 0.38268343236509,-0.9238795325112866 l 0.38268343236509,-0.9238795325112866 l 0.38268343236509,-0.9238795325112866 l 0.38268343236509,-0.9238795325112866 l 0.38268343236509,-0.9238795325112866 l 0.38268343236509,-0.9238795325112866 l 0.38268343236509,-0.9238795325112866 l -1.8369701987210297e-16,-1.0 l -1.8369701987210297e-16,-1.0 l -0.38268343236509034,-0.9238795325112865 l 0.0,0.0 l 0.0,0.0 l -0.38268343236509034,-0.9238795325112865 l -1.8369701987210297e-16,-1.0 l 0.0,1.0 l 0.765366864730181,1.8477590650225721 l -1.8369701987210297e-16,-1.0 l 0.0,0.0 l 0.0,0.0 l -1.8369701987210297e-16,-1.0 l 0.38268343236509,-0.9238795325112866 l -0.3826834323650896,0.9238795325112861 l 0.0,2.0 l -1.8369701987210297e-16,-1.0 l -1.8369701987210297e-16,-1.0 l 0.38268343236509,-0.9238795325112866 l 0.38268343236509,-0.9238795325112866 l 0.38268343236509,-0.9238795325112866 l 0.0,0.0 l 0.0,0.0 l 0.38268343236509,-0.9238795325112866 l 0.707106781186548,-0.707106781186547 l -0.7071067811865479,0.7071067811865461 l -1.5307337294603585,3.6955181300451443 l -0.38268343236509034,-0.9238795325112865 l 0.0,0.0 l 0.0,0.0 l -0.38268343236509034,-0.9238795325112865 l -1.8369701987210297e-16,-1.0 l 0.0,1.0 l 0.765366864730181,5.847759065022572 l 0.38268343236509,-0.9238795325112866 l 0.38268343236509,-0.9238795325112866 l -1.8369701987210297e-16,-1.0 l 0.0,0.0 l 0.0,0.0 l -1.8369701987210297e-16,-1.0 l 0.38268343236509,-0.9238795325112866 l -0.3826834323650896,0.9238795325112861 l 0.0,2.0 l 0.38268343236509,-0.9238795325112866 l 0.0,0.0 l 0.0,0.0 l 0.38268343236509,-0.9238795325112866 l 0.707106781186548,-0.707106781186547 l -0.7071067811865479,0.7071067811865461 l -0.7653668647301792,1.8477590650225721 l 0.38268343236509,-0.9238795325112866 l 0.38268343236509,-0.9238795325112866 l 0.707106781186548,-0.707106781186547 l 0.707106781186548,-0.707106781186547 l 0.707106781186548,-0.707106781186547 l 0.0,0.0 l 0.0,0.0 l 0.707106781186548,-0.707106781186547 l 0.9238795325112872,-0.3826834323650887 l -0.9238795325112878,0.3826834323650914 l -2.8284271247461916,2.8284271247461845 l -1.8369701987210297e-16,-1.0 l 0.0,0.0 l 0.0,0.0 l -1.8369701987210297e-16,-1.0 l 0.38268343236509,-0.9238795325112866 l -0.3826834323650896,0.9238795325112861 l -1.5307337294603585,5.695518130045144 l 0.38268343236509,-0.9238795325112866 l 0.38268343236509,-0.9238795325112866 l 0.38268343236509,-0.9238795325112866 l 0.38268343236509,-0.9238795325112866 l 0.707106781186548,-0.707106781186547 l 0.707106781186548,-0.707106781186547 l 0.707106781186548,-0.707106781186547 l 0.707106781186548,-0.707106781186547 l 0.707106781186548,-0.707106781186547 l 0.707106781186548,-0.707106781186547 l 0.38268343236509,-0.9238795325112866 l 0.0,0.0 l 0.0,0.0 l 0.38268343236509,-0.9238795325112866 l 0.707106781186548,-0.707106781186547 l -0.7071067811865479,0.7071067811865461 l -0.7653668647301792,1.8477590650225721 l 0.707106781186548,-0.707106781186547 l 0.0,0.0 l 0.0,0.0 l 0.707106781186548,-0.707106781186547 l 0.9238795325112872,-0.3826834323650887 l -0.9238795325112878,0.3826834323650914 l -1.4142135623730958,1.4142135623730923 l 0.707106781186548,-0.707106781186547 l 0.707106781186548,-0.707106781186547 l 0.9238795325112872,-0.3826834323650887 l 0.9238795325112872,-0.3826834323650887 l 0.9238795325112872,-0.3826834323650887 l 0.0,0.0 l 0.0,0.0 l 0.9238795325112872,-0.3826834323650887 l 1.0,1.5314274795707798e-15 l -1.0000000000000018,0.0 l -3.6955181300451514,1.5307337294603656 l 0.38268343236509,-0.9238795325112866 l 0.0,0.0 l 0.0,0.0 l 0.38268343236509,-0.9238795325112866 l 0.707106781186548,-0.707106781186547 l -0.7071067811865479,0.7071067811865461 l -6.4222211142225625,7.504613314514941 l -1.8369701987210297e-16,-1.0 l -1.8369701987210297e-16,-1.0 l -0.38268343236509034,-0.9238795325112865 l 0.0,0.0 l 0.0,0.0 l -0.38268343236509034,-0.9238795325112865 l -1.8369701987210297e-16,-1.0 l 0.0,1.0 l 0.765366864730181,1.8477590650225721 l -1.8369701987210297e-16,-1.0 l 0.0,0.0 l 0.0,0.0 l -1.8369701987210297e-16,-1.0 l 0.38268343236509,-0.9238795325112866 l -0.3826834323650896,0.9238795325112861 l 0.0,2.0 l -1.8369701987210297e-16,-1.0 l -1.8369701987210297e-16,-1.0 l 0.38268343236509,-0.9238795325112866 l 0.38268343236509,-0.9238795325112866 l 0.38268343236509,-0.9238795325112866 l 0.0,0.0 l 0.0,0.0 l 0.38268343236509,-0.9238795325112866 l 0.707106781186548,-0.707106781186547 l -0.7071067811865479,0.7071067811865461 l -1.5307337294603585,3.6955181300451443 l -0.38268343236509034,-0.9238795325112865 l 0.0,0.0 l 0.0,0.0 l -0.38268343236509034,-0.9238795325112865 l -1.8369701987210297e-16,-1.0 l 0.0,1.0 l -5.357568053111257,20.62983158520315 l -0.38268343236509034,-0.9238795325112865 l -0.38268343236509034,-0.9238795325112865 l -0.38268343236509034,-0.9238795325112865 l -0.38268343236509034,-0.9238795325112865 l -0.7071067811865479,-0.7071067811865471 l -0.7071067811865479,-0.7071067811865471 l -0.923879532511287,-0.3826834323650892 l 0.0,0.0 l 0.0,0.0 l -0.923879532511287,-0.3826834323650892 l -0.7071067811865479,-0.7071067811865471 l 0.7071067811865479,0.7071067811865461 l 1.847759065022574,0.7653668647301828 l -0.7071067811865479,-0.7071067811865471 l 0.0,0.0 l 0.0,0.0 l -0.7071067811865479,-0.7071067811865471 l -0.38268343236509034,-0.9238795325112865 l 0.3826834323650905,0.9238795325112861 l 1.4142135623730958,1.4142135623730923 l -0.7071067811865479,-0.7071067811865471 l -0.7071067811865479,-0.7071067811865471 l -0.38268343236509034,-0.9238795325112865 l -0.38268343236509034,-0.9238795325112865 l -0.38268343236509034,-0.9238795325112865 l 0.0,0.0 l 0.0,0.0 l -0.38268343236509034,-0.9238795325112865 l -1.8369701987210297e-16,-1.0 l 0.0,1.0 l 1.530733729460362,3.6955181300451443 l -0.923879532511287,-0.3826834323650892 l 0.0,0.0 l 0.0,0.0 l -0.923879532511287,-0.3826834323650892 l -0.7071067811865479,-0.7071067811865471 l 0.7071067811865479,0.7071067811865461 l 4.6761861897687655,3.5937939894763673 l -0.38268343236509034,-0.9238795325112865 l -0.38268343236509034,-0.9238795325112865 l -0.7071067811865479,-0.7071067811865471 l 0.0,0.0 l 0.0,0.0 l -0.7071067811865479,-0.7071067811865471 l -0.38268343236509034,-0.9238795325112865 l 0.38268343236509006,0.9238795325112861 l 1.4142135623730958,1.4142135623730923 l -0.38268343236509034,-0.9238795325112865 l 0.0,0.0 l 0.0,0.0 l -0.38268343236509034,-0.9238795325112865 l -1.8369701987210297e-16,-1.0 l 0.0,1.0 l 0.765366864730181,1.8477590650225721 l -0.38268343236509034,-0.9238795325112865 l -0.38268343236509034,-0.9238795325112865 l -1.8369701987210297e-16,-1.0 l -1.8369701987210297e-16,-1.0 l -1.8369701987210297e-16,-1.0 l 0.0,0.0 l 0.0,0.0 l -1.8369701987210297e-16,-1.0 l 0.38268343236509,-0.9238795325112866 l -0.38268343236509006,0.9238795325112861 l 0.0,4.0 l -0.7071067811865479,-0.7071067811865471 l 0.0,0.0 l 0.0,0.0 l -0.7071067811865479,-0.7071067811865471 l -0.38268343236509034,-0.9238795325112865 l 0.3826834323650905,0.9238795325112861 l 2.944947291833458,5.1097316924182365 l -0.38268343236509034,-0.9238795325112865 l -0.38268343236509034,-0.9238795325112865 l -0.38268343236509034,-0.9238795325112865 l -0.38268343236509034,-0.9238795325112865 l -1.8369701987210297e-16,-1.0 l -1.8369701987210297e-16,-1.0 l -1.8369701987210297e-16,-1.0 l -1.8369701987210297e-16,-1.0 l -1.8369701987210297e-16,-1.0 l -1.8369701987210297e-16,-1.0 l -0.38268343236509034,-0.9238795325112865 l 0.0,0.0 l 0.0,0.0 l -0.38268343236509034,-0.9238795325112865 l -1.8369701987210297e-16,-1.0 l 0.0,1.0 l 0.765366864730181,1.8477590650225721 l -1.8369701987210297e-16,-1.0 l 0.0,0.0 l 0.0,0.0 l -1.8369701987210297e-16,-1.0 l 0.38268343236509,-0.9238795325112866 l -0.38268343236509006,0.9238795325112861 l 0.0,2.0 l -1.8369701987210297e-16,-1.0 l -1.8369701987210297e-16,-1.0 l 0.38268343236509,-0.9238795325112866 l 0.38268343236509,-0.9238795325112866 l 0.38268343236509,-0.9238795325112866 l 0.0,0.0 l 0.0,0.0 l 0.38268343236509,-0.9238795325112866 l 0.707106781186548,-0.707106781186547 l -0.707106781186548,0.7071067811865461 l -1.5307337294603602,3.6955181300451443 l -0.38268343236509034,-0.9238795325112865 l 0.0,0.0 l 0.0,0.0 l -0.38268343236509034,-0.9238795325112865 l -1.8369701987210297e-16,-1.0 l 0.0,1.0 l 0.765366864730181,9.847759065022572 l -0.7071067811865479,-0.7071067811865471 l -0.7071067811865479,-0.7071067811865471 l -0.923879532511287,-0.3826834323650892 l 0.0,0.0 l 0.0,0.0 l -0.923879532511287,-0.3826834323650892 l -0.7071067811865479,-0.7071067811865471 l 0.7071067811865479,0.7071067811865461 l 1.847759065022574,0.7653668647301828 l -0.7071067811865479,-0.7071067811865471 l 0.0,0.0 l 0.0,0.0 l -0.7071067811865479,-0.7071067811865471 l -0.38268343236509034,-0.9238795325112865 l 0.3826834323650905,0.9238795325112861 l 1.4142135623730958,1.4142135623730923 l -0.7071067811865479,-0.7071067811865471 l -0.7071067811865479,-0.7071067811865471 l -0.38268343236509034,-0.9238795325112865 l -0.38268343236509034,-0.9238795325112865 l -0.38268343236509034,-0.9238795325112865 l 0.0,0.0 l 0.0,0.0 l -0.38268343236509034,-0.9238795325112865 l -1.8369701987210297e-16,-1.0 l 0.0,1.0 l 1.530733729460362,3.6955181300451443 l -0.923879532511287,-0.3826834323650892 l 0.0,0.0 l 0.0,0.0 l -0.923879532511287,-0.3826834323650892 l -0.7071067811865479,-0.7071067811865471 l 0.7071067811865479,0.7071067811865461 l 7.737653648689492,26.984830249566656 l -1.8369701987210297e-16,-1.0 l -1.8369701987210297e-16,-1.0 l -1.8369701987210297e-16,-1.0 l -1.8369701987210297e-16,-1.0 l -1.8369701987210297e-16,-1.0 l -1.8369701987210297e-16,-1.0 l -1.8369701987210297e-16,-1.0 l -1.8369701987210297e-16,-1.0 l -1.8369701987210297e-16,-1.0 l -1.8369701987210297e-16,-1.0 l -1.8369701987210297e-16,-1.0 l -1.8369701987210297e-16,-1.0 l -1.8369701987210297e-16,-1.0 l -1.8369701987210297e-16,-1.0 l -1.8369701987210297e-16,-1.0 l -1.8369701987210297e-16,-1.0 l 0.38268343236509,-0.9238795325112866 l 0.38268343236509,-0.9238795325112866 l 0.38268343236509,-0.9238795325112866 l 0.38268343236509,-0.9238795325112866 l 0.38268343236509,-0.9238795325112866 l 0.38268343236509,-0.9238795325112866 l 0.38268343236509,-0.9238795325112866 l 0.38268343236509,-0.9238795325112866 l 0.38268343236509,-0.9238795325112866 l 0.38268343236509,-0.9238795325112866 l 0.38268343236509,-0.9238795325112866 l 0.38268343236509,-0.9238795325112866 l 0.38268343236509,-0.9238795325112866 l 0.38268343236509,-0.9238795325112866 l 0.38268343236509,-0.9238795325112866 l 0.38268343236509,-0.9238795325112866 l 0.38268343236509,-0.9238795325112866 l 0.38268343236509,-0.9238795325112866 l 0.38268343236509,-0.9238795325112866 l 0.38268343236509,-0.9238795325112866 l 0.38268343236509,-0.9238795325112866 l 0.38268343236509,-0.9238795325112866 l 0.38268343236509,-0.9238795325112866 l 0.38268343236509,-0.9238795325112866 l -1.8369701987210297e-16,-1.0 l -1.8369701987210297e-16,-1.0 l -1.8369701987210297e-16,-1.0 l -1.8369701987210297e-16,-1.0 l -0.38268343236509034,-0.9238795325112865 l -0.38268343236509034,-0.9238795325112865 l -0.7071067811865479,-0.7071067811865471 l 0.0,0.0 l 0.0,0.0 l -0.7071067811865479,-0.7071067811865471 l -0.38268343236509034,-0.9238795325112865 l 0.3826834323650905,0.9238795325112861 l 1.4142135623730958,1.4142135623730923 l -0.38268343236509034,-0.9238795325112865 l 0.0,0.0 l 0.0,0.0 l -0.38268343236509034,-0.9238795325112865 l -1.8369701987210297e-16,-1.0 l 0.0,1.0 l 0.7653668647301801,1.8477590650225721 l -0.38268343236509034,-0.9238795325112865 l -0.38268343236509034,-0.9238795325112865 l -1.8369701987210297e-16,-1.0 l -1.8369701987210297e-16,-1.0 l -1.8369701987210297e-16,-1.0 l 0.0,0.0 l 0.0,0.0 l -1.8369701987210297e-16,-1.0 l 0.38268343236509,-0.9238795325112866 l -0.3826834323650905,0.9238795325112932 l 0.0,4.0 l -0.7071067811865479,-0.7071067811865471 l 0.0,0.0 l 0.0,0.0 l -0.7071067811865479,-0.7071067811865471 l -0.38268343236509034,-0.9238795325112865 l 0.3826834323650905,0.9238795325112932 l 2.944947291833455,5.1097316924182365 l -1.8369701987210297e-16,-1.0 l -1.8369701987210297e-16,-1.0 l -0.38268343236509034,-0.9238795325112865 l 0.0,0.0 l 0.0,0.0 l -0.38268343236509034,-0.9238795325112865 l -1.8369701987210297e-16,-1.0 l 0.0,1.0 l 0.7653668647301792,1.8477590650225721 l -1.8369701987210297e-16,-1.0 l 0.0,0.0 l 0.0,0.0 l -1.8369701987210297e-16,-1.0 l 0.38268343236509,-0.9238795325112866 l -0.3826834323650896,0.9238795325112861 l 0.0,2.0 l -1.8369701987210297e-16,-1.0 l -1.8369701987210297e-16,-1.0 l 0.38268343236509,-0.9238795325112866 l 0.38268343236509,-0.9238795325112866 l 0.38268343236509,-0.9238795325112866 l 0.0,0.0 l 0.0,0.0 l 0.38268343236509,-0.9238795325112866 l 0.707106781186548,-0.707106781186547 l -0.7071067811865479,0.7071067811865532 l -1.5307337294603585,3.6955181300451585 l -0.38268343236509034,-0.9238795325112865 l 0.0,0.0 l 0.0,0.0 l -0.38268343236509034,-0.9238795325112865 l -1.8369701987210297e-16,-1.0 l 0.0,1.0 l 0.7653668647301792,5.847759065022572 l -1.8369701987210297e-16,-1.0 l -1.8369701987210297e-16,-1.0 l -1.8369701987210297e-16,-1.0 l -1.8369701987210297e-16,-1.0 l 0.38268343236509,-0.9238795325112866 l 0.38268343236509,-0.9238795325112866 l 0.38268343236509,-0.9238795325112866 l 0.38268343236509,-0.9238795325112866 l 0.38268343236509,-0.9238795325112866 l 0.38268343236509,-0.9238795325112866 l -1.8369701987210297e-16,-1.0 l 0.0,0.0 l 0.0,0.0 l -1.8369701987210297e-16,-1.0 l 0.38268343236509,-0.9238795325112866 l -0.3826834323650896,0.9238795325112932 l 0.0,2.0 l 0.38268343236509,-0.9238795325112866 l 0.0,0.0 l 0.0,0.0 l 0.38268343236509,-0.9238795325112866 l 0.707106781186548,-0.707106781186547 l -0.7071067811865479,0.7071067811865532 l -0.7653668647301792,1.8477590650225864 l 0.38268343236509,-0.9238795325112866 l 0.38268343236509,-0.9238795325112866 l 0.707106781186548,-0.707106781186547 l 0.707106781186548,-0.707106781186547 l 0.707106781186548,-0.707106781186547 l 0.0,0.0 l 0.0,0.0 l 0.707106781186548,-0.707106781186547 l 0.9238795325112872,-0.3826834323650887 l -0.9238795325112878,0.3826834323650843 l -2.8284271247461916,2.828427124746213 l -1.8369701987210297e-16,-1.0 l 0.0,0.0 l 0.0,0.0 l -1.8369701987210297e-16,-1.0 l 0.38268343236509,-0.9238795325112866 l -0.3826834323650896,0.9238795325112932 l -3.061467458920717,9.391036260090331 l -0.38268343236509034,-0.9238795325112865 l -0.38268343236509034,-0.9238795325112865 l -0.7071067811865479,-0.7071067811865471 l 0.0,0.0 l 0.0,0.0 l -0.7071067811865479,-0.7071067811865471 l -0.38268343236509034,-0.9238795325112865 l 0.3826834323650905,0.9238795325112932 l 1.4142135623730958,1.4142135623731065 l -0.38268343236509034,-0.9238795325112865 l 0.0,0.0 l 0.0,0.0 l -0.38268343236509034,-0.9238795325112865 l -1.8369701987210297e-16,-1.0 l 0.0,1.0 l 0.7653668647301801,1.8477590650225864 l -0.38268343236509034,-0.9238795325112865 l -0.38268343236509034,-0.9238795325112865 l -1.8369701987210297e-16,-1.0 l -1.8369701987210297e-16,-1.0 l -1.8369701987210297e-16,-1.0 l 0.0,0.0 l 0.0,0.0 l -1.8369701987210297e-16,-1.0 l 0.38268343236509,-0.9238795325112866 l -0.3826834323650905,0.9238795325112932 l 0.0,4.0 l -0.7071067811865479,-0.7071067811865471 l 0.0,0.0 l 0.0,0.0 l -0.7071067811865479,-0.7071067811865471 l -0.38268343236509034,-0.9238795325112865 l 0.3826834323650905,0.9238795325112932 l 2.944947291833455,13.109731692418265 l 0.38268343236509,-0.9238795325112866 l 0.38268343236509,-0.9238795325112866 l 0.38268343236509,-0.9238795325112866 l 0.38268343236509,-0.9238795325112866 l -1.8369701987210297e-16,-1.0 l -1.8369701987210297e-16,-1.0 l -0.38268343236509034,-0.9238795325112865 l 0.0,0.0 l 0.0,0.0 l -0.38268343236509034,-0.9238795325112865 l -1.8369701987210297e-16,-1.0 l 0.0,1.0 l 0.7653668647301792,1.8477590650225721 l -1.8369701987210297e-16,-1.0 l 0.0,0.0 l 0.0,0.0 l -1.8369701987210297e-16,-1.0 l 0.38268343236509,-0.9238795325112866 l -0.3826834323650896,0.9238795325112861 l 0.0,2.0 l -1.8369701987210297e-16,-1.0 l -1.8369701987210297e-16,-1.0 l 0.38268343236509,-0.9238795325112866 l 0.38268343236509,-0.9238795325112866 l 0.38268343236509,-0.9238795325112866 l 0.0,0.0 l 0.0,0.0 l 0.38268343236509,-0.9238795325112866 l 0.707106781186548,-0.707106781186547 l -0.7071067811865479,0.7071067811865532 l -1.5307337294603585,3.6955181300451585 l -0.38268343236509034,-0.9238795325112865 l 0.0,0.0 l 0.0,0.0 l -0.38268343236509034,-0.9238795325112865 l -1.8369701987210297e-16,-1.0 l 0.0,1.0 l 0.7653668647301792,5.847759065022572 l 0.38268343236509,-0.9238795325112866 l 0.38268343236509,-0.9238795325112866 l -1.8369701987210297e-16,-1.0 l 0.0,0.0 l 0.0,0.0 l -1.8369701987210297e-16,-1.0 l 0.38268343236509,-0.9238795325112866 l -0.3826834323650896,0.9238795325112861 l 0.0,2.0 l 0.38268343236509,-0.9238795325112866 l 0.0,0.0 l 0.0,0.0 l 0.38268343236509,-0.9238795325112866 l 0.707106781186548,-0.707106781186547 l -0.7071067811865479,0.7071067811865461 l -0.7653668647301792,1.8477590650225721 l 0.38268343236509,-0.9238795325112866 l 0.38268343236509,-0.9238795325112866 l 0.707106781186548,-0.707106781186547 l 0.707106781186548,-0.707106781186547 l 0.707106781186548,-0.707106781186547 l 0.0,0.0 l 0.0,0.0 l 0.707106781186548,-0.707106781186547 l 0.9238795325112872,-0.3826834323650887 l -0.9238795325112878,0.3826834323650843 l -2.8284271247461916,2.8284271247461845 l -1.8369701987210297e-16,-1.0 l 0.0,0.0 l 0.0,0.0 l -1.8369701987210297e-16,-1.0 l 0.38268343236509,-0.9238795325112866 l -0.3826834323650896,0.9238795325112932 l -1.5307337294603585,5.695518130045144 l 0.38268343236509,-0.9238795325112866 l 0.38268343236509,-0.9238795325112866 l 0.38268343236509,-0.9238795325112866 l 0.38268343236509,-0.9238795325112866 l 0.707106781186548,-0.707106781186547 l 0.707106781186548,-0.707106781186547 l 0.707106781186548,-0.707106781186547 l 0.707106781186548,-0.707106781186547 l 0.707106781186548,-0.707106781186547 l 0.707106781186548,-0.707106781186547 l 0.38268343236509,-0.9238795325112866 l 0.0,0.0 l 0.0,0.0 l 0.38268343236509,-0.9238795325112866 l 0.707106781186548,-0.707106781186547 l -0.7071067811865497,0.7071067811865532 l -0.7653668647301828,1.8477590650225864 l 0.707106781186548,-0.707106781186547 l 0.0,0.0 l 0.0,0.0 l 0.707106781186548,-0.707106781186547 l 0.9238795325112872,-0.3826834323650887 l -0.9238795325112861,0.3826834323650843 l -1.4142135623730994,1.4142135623731065 l 0.707106781186548,-0.707106781186547 l 0.707106781186548,-0.707106781186547 l 0.9238795325112872,-0.3826834323650887 l 0.9238795325112872,-0.3826834323650887 l 0.9238795325112872,-0.3826834323650887 l 0.0,0.0 l 0.0,0.0 l 0.9238795325112872,-0.3826834323650887 l 1.0,1.5314274795707798e-15 l -1.0,0.0 l -3.6955181300451443,1.5307337294603371 l 0.38268343236509,-0.9238795325112866 l 0.0,0.0 l 0.0,0.0 l 0.38268343236509,-0.9238795325112866 l 0.707106781186548,-0.707106781186547 l -0.7071067811865497,0.7071067811865532 l -6.422221114222571,7.504613314514984 l -1.8369701987210297e-16,-1.0 l -1.8369701987210297e-16,-1.0 l -0.38268343236509034,-0.9238795325112865 l 0.0,0.0 l 0.0,0.0 l -0.38268343236509034,-0.9238795325112865 l -1.8369701987210297e-16,-1.0 l 0.0,1.0 l 0.7653668647301792,1.8477590650225864 l -1.8369701987210297e-16,-1.0 l 0.0,0.0 l 0.0,0.0 l -1.8369701987210297e-16,-1.0 l 0.38268343236509,-0.9238795325112866 l -0.3826834323650896,0.9238795325112932 l 0.0,2.0 l -1.8369701987210297e-16,-1.0 l -1.8369701987210297e-16,-1.0 l 0.38268343236509,-0.9238795325112866 l 0.38268343236509,-0.9238795325112866 l 0.38268343236509,-0.9238795325112866 l 0.0,0.0 l 0.0,0.0 l 0.38268343236509,-0.9238795325112866 l 0.707106781186548,-0.707106781186547 l -0.7071067811865479,0.7071067811865532 l -1.5307337294603585,3.6955181300451727 l -0.38268343236509034,-0.9238795325112865 l 0.0,0.0 l 0.0,0.0 l -0.38268343236509034,-0.9238795325112865 l -1.8369701987210297e-16,-1.0 l 0.0,1.0 l -2.2961005941905377,13.238795325112875 l 0.38268343236509,-0.9238795325112866 l 0.38268343236509,-0.9238795325112866 l 0.38268343236509,-0.9238795325112866 l 0.38268343236509,-0.9238795325112866 l 0.38268343236509,-0.9238795325112866 l 0.38268343236509,-0.9238795325112866 l 0.38268343236509,-0.9238795325112866 l 0.38268343236509,-0.9238795325112866 l 0.707106781186548,-0.707106781186547 l 0.707106781186548,-0.707106781186547 l 0.707106781186548,-0.707106781186547 l 0.707106781186548,-0.707106781186547 l 0.707106781186548,-0.707106781186547 l 0.707106781186548,-0.707106781186547 l 0.707106781186548,-0.707106781186547 l 0.707106781186548,-0.707106781186547 l 0.707106781186548,-0.707106781186547 l 0.707106781186548,-0.707106781186547 l 0.707106781186548,-0.707106781186547 l 0.707106781186548,-0.707106781186547 l 0.38268343236509,-0.9238795325112866 l 0.38268343236509,-0.9238795325112866 l -1.8369701987210297e-16,-1.0 l 0.0,0.0 l 0.0,0.0 l -1.8369701987210297e-16,-1.0 l 0.38268343236509,-0.9238795325112866 l -0.3826834323650914,0.9238795325112932 l 0.0,2.0 l 0.38268343236509,-0.9238795325112866 l 0.0,0.0 l 0.0,0.0 l 0.38268343236509,-0.9238795325112866 l 0.707106781186548,-0.707106781186547 l -0.7071067811865497,0.7071067811865532 l -0.7653668647301828,1.8477590650225864 l 0.38268343236509,-0.9238795325112866 l 0.38268343236509,-0.9238795325112866 l 0.707106781186548,-0.707106781186547 l 0.707106781186548,-0.707106781186547 l 0.707106781186548,-0.707106781186547 l 0.0,0.0 l 0.0,0.0 l 0.707106781186548,-0.707106781186547 l 0.9238795325112872,-0.3826834323650887 l -0.9238795325112861,0.3826834323650843 l -2.8284271247461987,2.828427124746213 l -1.8369701987210297e-16,-1.0 l 0.0,0.0 l 0.0,0.0 l -1.8369701987210297e-16,-1.0 l 0.38268343236509,-0.9238795325112866 l -0.3826834323650914,0.9238795325112932 l -1.5307337294603656,5.695518130045173 l 0.707106781186548,-0.707106781186547 l 0.707106781186548,-0.707106781186547 l 0.38268343236509,-0.9238795325112866 l 0.0,0.0 l 0.0,0.0 l 0.38268343236509,-0.9238795325112866 l 0.707106781186548,-0.707106781186547 l -0.7071067811865497,0.7071067811865532 l -0.7653668647301828,1.8477590650225864 l 0.707106781186548,-0.707106781186547 l 0.0,0.0 l 0.0,0.0 l 0.707106781186548,-0.707106781186547 l 0.9238795325112872,-0.3826834323650887 l -0.9238795325112861,0.3826834323650843 l -1.4142135623730994,1.4142135623731065 l 0.707106781186548,-0.707106781186547 l 0.707106781186548,-0.707106781186547 l 0.9238795325112872,-0.3826834323650887 l 0.9238795325112872,-0.3826834323650887 l 0.9238795325112872,-0.3826834323650887 l 0.0,0.0 l 0.0,0.0 l 0.9238795325112872,-0.3826834323650887 l 1.0,1.5314274795707798e-15 l -1.0,0.0 l -3.6955181300451443,1.5307337294603371 l 0.38268343236509,-0.9238795325112866 l 0.0,0.0 l 0.0,0.0 l 0.38268343236509,-0.9238795325112866 l 0.707106781186548,-0.707106781186547 l -0.7071067811865497,0.7071067811865532 l -3.5937939894763815,4.676186189768799 l 0.707106781186548,-0.707106781186547 l 0.707106781186548,-0.707106781186547 l 0.707106781186548,-0.707106781186547 l 0.707106781186548,-0.707106781186547 l 0.9238795325112872,-0.3826834323650887 l 0.9238795325112872,-0.3826834323650887 l 0.9238795325112872,-0.3826834323650887 l 0.9238795325112872,-0.3826834323650887 l 0.9238795325112872,-0.3826834323650887 l 0.9238795325112872,-0.3826834323650887 l 0.707106781186548,-0.707106781186547 l 0.0,0.0 l 0.0,0.0 l 0.707106781186548,-0.707106781186547 l 0.9238795325112872,-0.3826834323650887 l -0.9238795325112861,0.3826834323650843 l -1.4142135623730994,1.4142135623731065 l 0.9238795325112872,-0.3826834323650887 l 0.0,0.0 l 0.0,0.0 l 0.9238795325112872,-0.3826834323650887 l 1.0,1.5314274795707798e-15 l -1.0,0.0 l -1.8477590650225721,0.7653668647301686 l 0.9238795325112872,-0.3826834323650887 l 0.9238795325112872,-0.3826834323650887 l 1.0,1.5314274795707798e-15 l 1.0,1.5314274795707798e-15 l 1.0,1.5314274795707798e-15 l 0.0,0.0 l 0.0,0.0 l 1.0,1.5314274795707798e-15 l 0.923879532511286,0.38268343236509156 l -0.9238795325112861,-0.3826834323650985 l -3.9999999999999964,0.0 l 0.707106781186548,-0.707106781186547 l 0.0,0.0 l 0.0,0.0 l 0.707106781186548,-0.707106781186547 l 0.9238795325112872,-0.3826834323650887 l -0.9238795325112861,0.3826834323650843 l -8.805249822463384,4.475681021293781 l 0.38268343236509,-0.9238795325112866 l 0.38268343236509,-0.9238795325112866 l -1.8369701987210297e-16,-1.0 l 0.0,0.0 l 0.0,0.0 l -1.8369701987210297e-16,-1.0 l 0.38268343236509,-0.9238795325112866 l -0.3826834323650914,0.9238795325112932 l 0.0,2.0 l 0.38268343236509,-0.9238795325112866 l 0.0,0.0 l 0.0,0.0 l 0.38268343236509,-0.9238795325112866 l 0.707106781186548,-0.707106781186547 l -0.7071067811865497,0.7071067811865532 l -0.7653668647301828,1.8477590650225864 l 0.38268343236509,-0.9238795325112866 l 0.38268343236509,-0.9238795325112866 l 0.707106781186548,-0.707106781186547 l 0.707106781186548,-0.707106781186547 l 0.707106781186548,-0.707106781186547 l 0.0,0.0 l 0.0,0.0 l 0.707106781186548,-0.707106781186547 l 0.9238795325112872,-0.3826834323650887 l -0.9238795325112861,0.3826834323650843 l -2.8284271247461987,2.828427124746213 l -1.8369701987210297e-16,-1.0 l 0.0,0.0 l 0.0,0.0 l -1.8369701987210297e-16,-1.0 l 0.38268343236509,-0.9238795325112866 l -0.3826834323650914,0.9238795325112932 l -12.844442228445152,17.009226629029996 l -1.8369701987210297e-16,-1.0 l -1.8369701987210297e-16,-1.0 l -1.8369701987210297e-16,-1.0 l -1.8369701987210297e-16,-1.0 l -0.38268343236509034,-0.9238795325112865 l -0.38268343236509034,-0.9238795325112865 l -0.7071067811865479,-0.7071067811865471 l 0.0,0.0 l 0.0,0.0 l -0.7071067811865479,-0.7071067811865471 l -0.38268343236509034,-0.9238795325112865 l 0.3826834323650896,0.9238795325112932 l 1.4142135623730958,1.4142135623731065 l -0.38268343236509034,-0.9238795325112865 l 0.0,0.0 l 0.0,0.0 l -0.38268343236509034,-0.9238795325112865 l -1.8369701987210297e-16,-1.0 l 0.0,1.0 l 0.7653668647301792,1.8477590650225864 l -0.38268343236509034,-0.9238795325112865 l -0.38268343236509034,-0.9238795325112865 l -1.8369701987210297e-16,-1.0 l -1.8369701987210297e-16,-1.0 l -1.8369701987210297e-16,-1.0 l 0.0,0.0 l 0.0,0.0 l -1.8369701987210297e-16,-1.0 l 0.38268343236509,-0.9238795325112866 l -0.3826834323650896,0.9238795325112932 l 0.0,4.0 l -0.7071067811865479,-0.7071067811865471 l 0.0,0.0 l 0.0,0.0 l -0.7071067811865479,-0.7071067811865471 l -0.38268343236509034,-0.9238795325112865 l 0.3826834323650896,0.9238795325112932 l 2.9449472918334543,5.109731692418279 l -1.8369701987210297e-16,-1.0 l -1.8369701987210297e-16,-1.0 l -0.38268343236509034,-0.9238795325112865 l 0.0,0.0 l 0.0,0.0 l -0.38268343236509034,-0.9238795325112865 l -1.8369701987210297e-16,-1.0 l 0.0,1.0 l 0.7653668647301792,1.8477590650225864 l -1.8369701987210297e-16,-1.0 l 0.0,0.0 l 0.0,0.0 l -1.8369701987210297e-16,-1.0 l 0.38268343236509,-0.9238795325112866 l -0.3826834323650896,0.9238795325112932 l 0.0,2.0 l -1.8369701987210297e-16,-1.0 l -1.8369701987210297e-16,-1.0 l 0.38268343236509,-0.9238795325112866 l 0.38268343236509,-0.9238795325112866 l 0.38268343236509,-0.9238795325112866 l 0.0,0.0 l 0.0,0.0 l 0.38268343236509,-0.9238795325112866 l 0.707106781186548,-0.707106781186547 l -0.7071067811865479,0.7071067811865532 l -1.5307337294603585,3.6955181300451727 l -0.38268343236509034,-0.9238795325112865 l 0.0,0.0 l 0.0,0.0 l -0.38268343236509034,-0.9238795325112865 l -1.8369701987210297e-16,-1.0 l 0.0,1.0 l 0.7653668647301792,5.847759065022586 l -1.8369701987210297e-16,-1.0 l -1.8369701987210297e-16,-1.0 l -1.8369701987210297e-16,-1.0 l -1.8369701987210297e-16,-1.0 l 0.38268343236509,-0.9238795325112866 l 0.38268343236509,-0.9238795325112866 l 0.38268343236509,-0.9238795325112866 l 0.38268343236509,-0.9238795325112866 l 0.38268343236509,-0.9238795325112866 l 0.38268343236509,-0.9238795325112866 l -1.8369701987210297e-16,-1.0 l 0.0,0.0 l 0.0,0.0 l -1.8369701987210297e-16,-1.0 l 0.38268343236509,-0.9238795325112866 l -0.3826834323650896,0.9238795325112932 l 0.0,2.0 l 0.38268343236509,-0.9238795325112866 l 0.0,0.0 l 0.0,0.0 l 0.38268343236509,-0.9238795325112866 l 0.707106781186548,-0.707106781186547 l -0.7071067811865479,0.7071067811865532 l -0.7653668647301792,1.8477590650225864 l 0.38268343236509,-0.9238795325112866 l 0.38268343236509,-0.9238795325112866 l 0.707106781186548,-0.707106781186547 l 0.707106781186548,-0.707106781186547 l 0.707106781186548,-0.707106781186547 l 0.0,0.0 l 0.0,0.0 l 0.707106781186548,-0.707106781186547 l 0.9238795325112872,-0.3826834323650887 l -0.9238795325112861,0.3826834323650843 l -2.828427124746197,2.828427124746213 l -1.8369701987210297e-16,-1.0 l 0.0,0.0 l 0.0,0.0 l -1.8369701987210297e-16,-1.0 l 0.38268343236509,-0.9238795325112866 l -0.3826834323650896,0.9238795325112932 l -3.061467458920717,9.391036260090345 l -0.38268343236509034,-0.9238795325112865 l -0.38268343236509034,-0.9238795325112865 l -0.7071067811865479,-0.7071067811865471 l 0.0,0.0 l 0.0,0.0 l -0.7071067811865479,-0.7071067811865471 l -0.38268343236509034,-0.9238795325112865 l 0.3826834323650896,0.9238795325112932 l 1.4142135623730958,1.4142135623731065 l -0.38268343236509034,-0.9238795325112865 l 0.0,0.0 l 0.0,0.0 l -0.38268343236509034,-0.9238795325112865 l -1.8369701987210297e-16,-1.0 l 0.0,1.0 l 0.7653668647301792,1.8477590650225864 l -0.38268343236509034,-0.9238795325112865 l -0.38268343236509034,-0.9238795325112865 l -1.8369701987210297e-16,-1.0 l -1.8369701987210297e-16,-1.0 l -1.8369701987210297e-16,-1.0 l 0.0,0.0 l 0.0,0.0 l -1.8369701987210297e-16,-1.0 l 0.38268343236509,-0.9238795325112866 l -0.3826834323650896,0.9238795325112932 l 0.0,4.0 l -0.7071067811865479,-0.7071067811865471 l 0.0,0.0 l 0.0,0.0 l -0.7071067811865479,-0.7071067811865471 l -0.38268343236509034,-0.9238795325112865 l 0.3826834323650896,0.9238795325112932 l -9.300922543849417,42.67387673277943 l -0.38268343236509034,-0.9238795325112865 l -0.38268343236509034,-0.9238795325112865 l -0.38268343236509034,-0.9238795325112865 l -0.38268343236509034,-0.9238795325112865 l -0.38268343236509034,-0.9238795325112865 l -0.38268343236509034,-0.9238795325112865 l -0.38268343236509034,-0.9238795325112865 l -0.38268343236509034,-0.9238795325112865 l -0.7071067811865479,-0.7071067811865471 l -0.7071067811865479,-0.7071067811865471 l -0.7071067811865479,-0.7071067811865471 l -0.7071067811865479,-0.7071067811865471 l -0.923879532511287,-0.3826834323650892 l -0.923879532511287,-0.3826834323650892 l -1.0,5.66553889764798e-16 l 0.0,0.0 l 0.0,0.0 l -1.0,5.66553889764798e-16 l -0.923879532511287,-0.3826834323650892 l 0.9238795325112861,0.3826834323650914 l 2.0,0.0 l -0.923879532511287,-0.3826834323650892 l 0.0,0.0 l 0.0,0.0 l -0.923879532511287,-0.3826834323650892 l -0.7071067811865479,-0.7071067811865471 l 0.7071067811865479,0.7071067811865461 l 1.8477590650225721,0.7653668647301828 l -0.923879532511287,-0.3826834323650892 l -0.923879532511287,-0.3826834323650892 l -0.7071067811865479,-0.7071067811865471 l -0.7071067811865479,-0.7071067811865471 l -0.7071067811865479,-0.7071067811865471 l 0.0,0.0 l 0.0,0.0 l -0.7071067811865479,-0.7071067811865471 l -0.38268343236509034,-0.9238795325112865 l 0.3826834323650896,0.9238795325112861 l 2.8284271247461916,2.8284271247461845 l -1.0,5.66553889764798e-16 l 0.0,0.0 l 0.0,0.0 l -1.0,5.66553889764798e-16 l -0.923879532511287,-0.3826834323650892 l 0.9238795325112861,0.3826834323650914 l 5.695518130045146,1.5307337294603656 l -0.7071067811865479,-0.7071067811865471 l -0.7071067811865479,-0.7071067811865471 l -0.923879532511287,-0.3826834323650892 l 0.0,0.0 l 0.0,0.0 l -0.923879532511287,-0.3826834323650892 l -0.7071067811865479,-0.7071067811865471 l 0.7071067811865479,0.7071067811865461 l 1.847759065022574,0.7653668647301828 l -0.7071067811865479,-0.7071067811865471 l 0.0,0.0 l 0.0,0.0 l -0.7071067811865479,-0.7071067811865471 l -0.38268343236509034,-0.9238795325112865 l 0.3826834323650896,0.9238795325112861 l 1.4142135623730958,1.4142135623730923 l -0.7071067811865479,-0.7071067811865471 l -0.7071067811865479,-0.7071067811865471 l -0.38268343236509034,-0.9238795325112865 l -0.38268343236509034,-0.9238795325112865 l -0.38268343236509034,-0.9238795325112865 l 0.0,0.0 l 0.0,0.0 l -0.38268343236509034,-0.9238795325112865 l -1.8369701987210297e-16,-1.0 l 0.0,1.0 l 1.5307337294603585,3.6955181300451443 l -0.923879532511287,-0.3826834323650892 l 0.0,0.0 l 0.0,0.0 l -0.923879532511287,-0.3826834323650892 l -0.7071067811865479,-0.7071067811865471 l 0.7071067811865479,0.7071067811865461 l 4.6761861897687655,3.5937939894763673 l -0.7071067811865479,-0.7071067811865471 l -0.7071067811865479,-0.7071067811865471 l -0.7071067811865479,-0.7071067811865471 l -0.7071067811865479,-0.7071067811865471 l -0.38268343236509034,-0.9238795325112865 l -0.38268343236509034,-0.9238795325112865 l -0.38268343236509034,-0.9238795325112865 l -0.38268343236509034,-0.9238795325112865 l -0.38268343236509034,-0.9238795325112865 l -0.38268343236509034,-0.9238795325112865 l -0.7071067811865479,-0.7071067811865471 l 0.0,0.0 l 0.0,0.0 l -0.7071067811865479,-0.7071067811865471 l -0.38268343236509034,-0.9238795325112865 l 0.3826834323650896,0.9238795325112861 l 1.4142135623730958,1.4142135623730923 l -0.38268343236509034,-0.9238795325112865 l 0.0,0.0 l 0.0,0.0 l -0.38268343236509034,-0.9238795325112865 l -1.8369701987210297e-16,-1.0 l 0.0,1.0 l 0.7653668647301792,1.8477590650225721 l -0.38268343236509034,-0.9238795325112865 l -0.38268343236509034,-0.9238795325112865 l -1.8369701987210297e-16,-1.0 l -1.8369701987210297e-16,-1.0 l -1.8369701987210297e-16,-1.0 l 0.0,0.0 l 0.0,0.0 l -1.8369701987210297e-16,-1.0 l 0.38268343236509,-0.9238795325112866 l -0.3826834323650896,0.9238795325112861 l 0.0,4.0 l -0.7071067811865479,-0.7071067811865471 l 0.0,0.0 l 0.0,0.0 l -0.7071067811865479,-0.7071067811865471 l -0.38268343236509034,-0.9238795325112865 l 0.3826834323650896,0.9238795325112861 l 4.475681021293813,8.80524982246338 l -0.923879532511287,-0.3826834323650892 l -0.923879532511287,-0.3826834323650892 l -1.0,5.66553889764798e-16 l 0.0,0.0 l 0.0,0.0 l -1.0,5.66553889764798e-16 l -0.923879532511287,-0.3826834323650892 l 0.9238795325112861,0.3826834323650914 l 2.0,0.0 l -0.923879532511287,-0.3826834323650892 l 0.0,0.0 l 0.0,0.0 l -0.923879532511287,-0.3826834323650892 l -0.7071067811865479,-0.7071067811865471 l 0.7071067811865479,0.7071067811865461 l 1.8477590650225721,0.7653668647301828 l -0.923879532511287,-0.3826834323650892 l -0.923879532511287,-0.3826834323650892 l -0.7071067811865479,-0.7071067811865471 l -0.7071067811865479,-0.7071067811865471 l -0.7071067811865479,-0.7071067811865471 l 0.0,0.0 l 0.0,0.0 l -0.7071067811865479,-0.7071067811865471 l -0.38268343236509034,-0.9238795325112865 l 0.3826834323650896,0.9238795325112861 l 2.8284271247461916,2.8284271247461845 l -1.0,5.66553889764798e-16 l 0.0,0.0 l 0.0,0.0 l -1.0,5.66553889764798e-16 l -0.923879532511287,-0.3826834323650892 l 0.9238795325112861,0.3826834323650914 l 11.35237237953753,7.187587978952735 l -0.38268343236509034,-0.9238795325112865 l -0.38268343236509034,-0.9238795325112865 l -0.38268343236509034,-0.9238795325112865 l -0.38268343236509034,-0.9238795325112865 l -0.7071067811865479,-0.7071067811865471 l -0.7071067811865479,-0.7071067811865471 l -0.923879532511287,-0.3826834323650892 l 0.0,0.0 l 0.0,0.0 l -0.923879532511287,-0.3826834323650892 l -0.7071067811865479,-0.7071067811865471 l 0.707106781186547,0.7071067811865461 l 1.847759065022574,0.7653668647301828 l -0.7071067811865479,-0.7071067811865471 l 0.0,0.0 l 0.0,0.0 l -0.7071067811865479,-0.7071067811865471 l -0.38268343236509034,-0.9238795325112865 l 0.3826834323650905,0.9238795325112861 l 1.4142135623730958,1.4142135623730923 l -0.7071067811865479,-0.7071067811865471 l -0.7071067811865479,-0.7071067811865471 l -0.38268343236509034,-0.9238795325112865 l -0.38268343236509034,-0.9238795325112865 l -0.38268343236509034,-0.9238795325112865 l 0.0,0.0 l 0.0,0.0 l -0.38268343236509034,-0.9238795325112865 l -1.8369701987210297e-16,-1.0 l 0.0,1.0 l 1.5307337294603593,3.6955181300451443 l -0.923879532511287,-0.3826834323650892 l 0.0,0.0 l 0.0,0.0 l -0.923879532511287,-0.3826834323650892 l -0.7071067811865479,-0.7071067811865471 l 0.7071067811865479,0.7071067811865461 l 4.676186189768766,3.5937939894763673 l -0.38268343236509034,-0.9238795325112865 l -0.38268343236509034,-0.9238795325112865 l -0.7071067811865479,-0.7071067811865471 l 0.0,0.0 l 0.0,0.0 l -0.7071067811865479,-0.7071067811865471 l -0.38268343236509034,-0.9238795325112865 l 0.3826834323650905,0.9238795325112861 l 1.4142135623730958,1.4142135623730923 l -0.38268343236509034,-0.9238795325112865 l 0.0,0.0 l 0.0,0.0 l -0.38268343236509034,-0.9238795325112865 l -1.8369701987210297e-16,-1.0 l 0.0,1.0 l 0.765366864730181,1.8477590650225721 l -0.38268343236509034,-0.9238795325112865 l -0.38268343236509034,-0.9238795325112865 l -1.8369701987210297e-16,-1.0 l -1.8369701987210297e-16,-1.0 l -1.8369701987210297e-16,-1.0 l 0.0,0.0 l 0.0,0.0 l -1.8369701987210297e-16,-1.0 l 0.38268343236509,-0.9238795325112866 l -0.3826834323650896,0.9238795325112861 l 0.0,4.0 l -0.7071067811865479,-0.7071067811865471 l 0.0,0.0 l 0.0,0.0 l -0.7071067811865479,-0.7071067811865471 l -0.38268343236509034,-0.9238795325112865 l 0.3826834323650905,0.9238795325112861 l 2.944947291833458,5.1097316924182365 l -0.38268343236509034,-0.9238795325112865 l -0.38268343236509034,-0.9238795325112865 l -0.38268343236509034,-0.9238795325112865 l -0.38268343236509034,-0.9238795325112865 l -1.8369701987210297e-16,-1.0 l -1.8369701987210297e-16,-1.0 l -1.8369701987210297e-16,-1.0 l -1.8369701987210297e-16,-1.0 l -1.8369701987210297e-16,-1.0 l -1.8369701987210297e-16,-1.0 l -0.38268343236509034,-0.9238795325112865 l 0.0,0.0 l 0.0,0.0 l -0.38268343236509034,-0.9238795325112865 l -1.8369701987210297e-16,-1.0 l 0.0,1.0 l 0.765366864730181,1.8477590650225721 l -1.8369701987210297e-16,-1.0 l 0.0,0.0 l 0.0,0.0 l -1.8369701987210297e-16,-1.0 l 0.38268343236509,-0.9238795325112866 l -0.3826834323650896,0.9238795325112861 l 0.0,2.0 l -1.8369701987210297e-16,-1.0 l -1.8369701987210297e-16,-1.0 l 0.38268343236509,-0.9238795325112866 l 0.38268343236509,-0.9238795325112866 l 0.38268343236509,-0.9238795325112866 l 0.0,0.0 l 0.0,0.0 l 0.38268343236509,-0.9238795325112866 l 0.707106781186548,-0.707106781186547 l -0.7071067811865479,0.7071067811865461 l -1.5307337294603585,3.6955181300451443 l -0.38268343236509034,-0.9238795325112865 l 0.0,0.0 l 0.0,0.0 l -0.38268343236509034,-0.9238795325112865 l -1.8369701987210297e-16,-1.0 l 0.0,1.0 l 0.765366864730181,9.847759065022572 l -0.7071067811865479,-0.7071067811865471 l -0.7071067811865479,-0.7071067811865471 l -0.923879532511287,-0.3826834323650892 l 0.0,0.0 l 0.0,0.0 l -0.923879532511287,-0.3826834323650892 l -0.7071067811865479,-0.7071067811865471 l 0.7071067811865479,0.7071067811865461 l 1.8477590650225748,0.7653668647301828 l -0.7071067811865479,-0.7071067811865471 l 0.0,0.0 l 0.0,0.0 l -0.7071067811865479,-0.7071067811865471 l -0.38268343236509034,-0.9238795325112865 l 0.3826834323650896,0.9238795325112861 l 1.4142135623730967,1.4142135623730923 l -0.7071067811865479,-0.7071067811865471 l -0.7071067811865479,-0.7071067811865471 l -0.38268343236509034,-0.9238795325112865 l -0.38268343236509034,-0.9238795325112865 l -0.38268343236509034,-0.9238795325112865 l 0.0,0.0 l 0.0,0.0 l -0.38268343236509034,-0.9238795325112865 l -1.8369701987210297e-16,-1.0 l 0.0,1.0 l 1.5307337294603585,3.6955181300451443 l -0.923879532511287,-0.3826834323650892 l 0.0,0.0 l 0.0,0.0 l -0.923879532511287,-0.3826834323650892 l -0.7071067811865479,-0.7071067811865471 l 0.7071067811865479,0.7071067811865461 l 7.73765364868949,10.984830249566656 l -0.38268343236509034,-0.9238795325112865 l -0.38268343236509034,-0.9238795325112865 l -0.38268343236509034,-0.9238795325112865 l -0.38268343236509034,-0.9238795325112865 l -0.38268343236509034,-0.9238795325112865 l -0.38268343236509034,-0.9238795325112865 l -0.38268343236509034,-0.9238795325112865 l -0.38268343236509034,-0.9238795325112865 l -1.8369701987210297e-16,-1.0 l -1.8369701987210297e-16,-1.0 l -1.8369701987210297e-16,-1.0 l -1.8369701987210297e-16,-1.0 l -1.8369701987210297e-16,-1.0 l -1.8369701987210297e-16,-1.0 l -1.8369701987210297e-16,-1.0 l -1.8369701987210297e-16,-1.0 l -1.8369701987210297e-16,-1.0 l -1.8369701987210297e-16,-1.0 l -1.8369701987210297e-16,-1.0 l -1.8369701987210297e-16,-1.0 l -0.38268343236509034,-0.9238795325112865 l -0.38268343236509034,-0.9238795325112865 l -0.7071067811865479,-0.7071067811865471 l 0.0,0.0 l 0.0,0.0 l -0.7071067811865479,-0.7071067811865471 l -0.38268343236509034,-0.9238795325112865 l 0.3826834323650896,0.9238795325112861 l 1.4142135623730967,1.4142135623730923 l -0.38268343236509034,-0.9238795325112865 l 0.0,0.0 l 0.0,0.0 l -0.38268343236509034,-0.9238795325112865 l -1.8369701987210297e-16,-1.0 l 0.0,1.0 l 0.765366864730181,1.8477590650225721 l -0.38268343236509034,-0.9238795325112865 l -0.38268343236509034,-0.9238795325112865 l -1.8369701987210297e-16,-1.0 l -1.8369701987210297e-16,-1.0 l -1.8369701987210297e-16,-1.0 l 0.0,0.0 l 0.0,0.0 l -1.8369701987210297e-16,-1.0 l 0.38268343236509,-0.9238795325112866 l -0.3826834323650896,0.9238795325112932 l 0.0,4.0 l -0.7071067811865479,-0.7071067811865471 l 0.0,0.0 l 0.0,0.0 l -0.7071067811865479,-0.7071067811865471 l -0.38268343236509034,-0.9238795325112865 l 0.3826834323650896,0.9238795325112932 l 2.9449472918334587,5.1097316924182365 l -1.8369701987210297e-16,-1.0 l -1.8369701987210297e-16,-1.0 l -0.38268343236509034,-0.9238795325112865 l 0.0,0.0 l 0.0,0.0 l -0.38268343236509034,-0.9238795325112865 l -1.8369701987210297e-16,-1.0 l 0.0,1.0 l 0.765366864730181,1.8477590650225721 l -1.8369701987210297e-16,-1.0 l 0.0,0.0 l 0.0,0.0 l -1.8369701987210297e-16,-1.0 l 0.38268343236509,-0.9238795325112866 l -0.3826834323650896,0.9238795325112861 l 0.0,2.0 l -1.8369701987210297e-16,-1.0 l -1.8369701987210297e-16,-1.0 l 0.38268343236509,-0.9238795325112866 l 0.38268343236509,-0.9238795325112866 l 0.38268343236509,-0.9238795325112866 l 0.0,0.0 l 0.0,0.0 l 0.38268343236509,-0.9238795325112866 l 0.707106781186548,-0.707106781186547 l -0.7071067811865479,0.7071067811865532 l -1.5307337294603585,3.6955181300451585 l -0.38268343236509034,-0.9238795325112865 l 0.0,0.0 l 0.0,0.0 l -0.38268343236509034,-0.9238795325112865 l -1.8369701987210297e-16,-1.0 l 0.0,1.0 l 0.765366864730181,5.847759065022572 l -1.8369701987210297e-16,-1.0 l -1.8369701987210297e-16,-1.0 l -1.8369701987210297e-16,-1.0 l -1.8369701987210297e-16,-1.0 l 0.38268343236509,-0.9238795325112866 l 0.38268343236509,-0.9238795325112866 l 0.38268343236509,-0.9238795325112866 l 0.38268343236509,-0.9238795325112866 l 0.38268343236509,-0.9238795325112866 l 0.38268343236509,-0.9238795325112866 l -1.8369701987210297e-16,-1.0 l 0.0,0.0 l 0.0,0.0 l -1.8369701987210297e-16,-1.0 l 0.38268343236509,-0.9238795325112866 l -0.38268343236509006,0.9238795325112932 l 0.0,2.0 l 0.38268343236509,-0.9238795325112866 l 0.0,0.0 l 0.0,0.0 l 0.38268343236509,-0.9238795325112866 l 0.707106781186548,-0.707106781186547 l -0.7071067811865479,0.7071067811865532 l -0.7653668647301801,1.8477590650225864 l 0.38268343236509,-0.9238795325112866 l 0.38268343236509,-0.9238795325112866 l 0.707106781186548,-0.707106781186547 l 0.707106781186548,-0.707106781186547 l 0.707106781186548,-0.707106781186547 l 0.0,0.0 l 0.0,0.0 l 0.707106781186548,-0.707106781186547 l 0.9238795325112872,-0.3826834323650887 l -0.9238795325112872,0.3826834323650843 l -2.8284271247461916,2.828427124746213 l -1.8369701987210297e-16,-1.0 l 0.0,0.0 l 0.0,0.0 l -1.8369701987210297e-16,-1.0 l 0.38268343236509,-0.9238795325112866 l -0.38268343236509006,0.9238795325112932 l -3.0614674589207183,9.391036260090331 l -0.38268343236509034,-0.9238795325112865 l -0.38268343236509034,-0.9238795325112865 l -0.7071067811865479,-0.7071067811865471 l 0.0,0.0 l 0.0,0.0 l -0.7071067811865479,-0.7071067811865471 l -0.38268343236509034,-0.9238795325112865 l 0.3826834323650896,0.9238795325112932 l 1.4142135623730967,1.4142135623731065 l -0.38268343236509034,-0.9238795325112865 l 0.0,0.0 l 0.0,0.0 l -0.38268343236509034,-0.9238795325112865 l -1.8369701987210297e-16,-1.0 l 0.0,1.0 l 0.765366864730181,1.8477590650225864 l -0.38268343236509034,-0.9238795325112865 l -0.38268343236509034,-0.9238795325112865 l -1.8369701987210297e-16,-1.0 l -1.8369701987210297e-16,-1.0 l -1.8369701987210297e-16,-1.0 l 0.0,0.0 l 0.0,0.0 l -1.8369701987210297e-16,-1.0 l 0.38268343236509,-0.9238795325112866 l -0.3826834323650896,0.9238795325112932 l 0.0,4.0 l -0.7071067811865479,-0.7071067811865471 l 0.0,0.0 l 0.0,0.0 l -0.7071067811865479,-0.7071067811865471 l -0.38268343236509034,-0.9238795325112865 l 0.3826834323650896,0.9238795325112932 l 2.9449472918334587,21.109731692418265 l -0.7071067811865479,-0.7071067811865471 l -0.7071067811865479,-0.7071067811865471 l -0.7071067811865479,-0.7071067811865471 l -0.7071067811865479,-0.7071067811865471 l -0.923879532511287,-0.3826834323650892 l -0.923879532511287,-0.3826834323650892 l -1.0,5.66553889764798e-16 l 0.0,0.0 l 0.0,0.0 l -1.0,5.66553889764798e-16 l -0.923879532511287,-0.3826834323650892 l 0.9238795325112861,0.3826834323650914 l 2.0,0.0 l -0.923879532511287,-0.3826834323650892 l 0.0,0.0 l 0.0,0.0 l -0.923879532511287,-0.3826834323650892 l -0.7071067811865479,-0.7071067811865471 l 0.7071067811865479,0.7071067811865461 l 1.8477590650225721,0.7653668647301828 l -0.923879532511287,-0.3826834323650892 l -0.923879532511287,-0.3826834323650892 l -0.7071067811865479,-0.7071067811865471 l -0.7071067811865479,-0.7071067811865471 l -0.7071067811865479,-0.7071067811865471 l 0.0,0.0 l 0.0,0.0 l -0.7071067811865479,-0.7071067811865471 l -0.38268343236509034,-0.9238795325112865 l 0.3826834323650896,0.9238795325112861 l 2.8284271247461916,2.8284271247461845 l -1.0,5.66553889764798e-16 l 0.0,0.0 l 0.0,0.0 l -1.0,5.66553889764798e-16 l -0.923879532511287,-0.3826834323650892 l 0.9238795325112861,0.3826834323650914 l 5.695518130045146,1.5307337294603656 l -0.7071067811865479,-0.7071067811865471 l -0.7071067811865479,-0.7071067811865471 l -0.923879532511287,-0.3826834323650892 l 0.0,0.0 l 0.0,0.0 l -0.923879532511287,-0.3826834323650892 l -0.7071067811865479,-0.7071067811865471 l 0.7071067811865479,0.7071067811865461 l 1.847759065022574,0.7653668647301828 l -0.7071067811865479,-0.7071067811865471 l 0.0,0.0 l 0.0,0.0 l -0.7071067811865479,-0.7071067811865471 l -0.38268343236509034,-0.9238795325112865 l 0.3826834323650896,0.9238795325112861 l 1.4142135623730958,1.4142135623730923 l -0.7071067811865479,-0.7071067811865471 l -0.7071067811865479,-0.7071067811865471 l -0.38268343236509034,-0.9238795325112865 l -0.38268343236509034,-0.9238795325112865 l -0.38268343236509034,-0.9238795325112865 l 0.0,0.0 l 0.0,0.0 l -0.38268343236509034,-0.9238795325112865 l -1.8369701987210297e-16,-1.0 l 0.0,1.0 l 1.5307337294603585,3.6955181300451443 l -0.923879532511287,-0.3826834323650892 l 0.0,0.0 l 0.0,0.0 l -0.923879532511287,-0.3826834323650892 l -0.7071067811865479,-0.7071067811865471 l 0.7071067811865479,0.7071067811865461 l 4.6761861897687655,3.5937939894763673 l -0.7071067811865479,-0.7071067811865471 l -0.7071067811865479,-0.7071067811865471 l -0.7071067811865479,-0.7071067811865471 l -0.7071067811865479,-0.7071067811865471 l -0.38268343236509034,-0.9238795325112865 l -0.38268343236509034,-0.9238795325112865 l -0.38268343236509034,-0.9238795325112865 l -0.38268343236509034,-0.9238795325112865 l -0.38268343236509034,-0.9238795325112865 l -0.38268343236509034,-0.9238795325112865 l -0.7071067811865479,-0.7071067811865471 l 0.0,0.0 l 0.0,0.0 l -0.7071067811865479,-0.7071067811865471 l -0.38268343236509034,-0.9238795325112865 l 0.3826834323650896,0.9238795325112861 l 1.4142135623730958,1.4142135623730923 l -0.38268343236509034,-0.9238795325112865 l 0.0,0.0 l 0.0,0.0 l -0.38268343236509034,-0.9238795325112865 l -1.8369701987210297e-16,-1.0 l 0.0,1.0 l 0.7653668647301792,1.8477590650225721 l -0.38268343236509034,-0.9238795325112865 l -0.38268343236509034,-0.9238795325112865 l -1.8369701987210297e-16,-1.0 l -1.8369701987210297e-16,-1.0 l -1.8369701987210297e-16,-1.0 l 0.0,0.0 l 0.0,0.0 l -1.8369701987210297e-16,-1.0 l 0.38268343236509,-0.9238795325112866 l -0.3826834323650896,0.9238795325112932 l 0.0,4.0 l -0.7071067811865479,-0.7071067811865471 l 0.0,0.0 l 0.0,0.0 l -0.7071067811865479,-0.7071067811865471 l -0.38268343236509034,-0.9238795325112865 l 0.3826834323650914,0.9238795325112861 l 4.475681021293811,8.80524982246338 l -0.923879532511287,-0.3826834323650892 l -0.923879532511287,-0.3826834323650892 l -1.0,5.66553889764798e-16 l 0.0,0.0 l 0.0,0.0 l -1.0,5.66553889764798e-16 l -0.923879532511287,-0.3826834323650892 l 0.9238795325112861,0.3826834323650914 l 2.0,0.0 l -0.923879532511287,-0.3826834323650892 l 0.0,0.0 l 0.0,0.0 l -0.923879532511287,-0.3826834323650892 l -0.7071067811865479,-0.7071067811865471 l 0.7071067811865461,0.7071067811865461 l 1.8477590650225721,0.7653668647301828 l -0.923879532511287,-0.3826834323650892 l -0.923879532511287,-0.3826834323650892 l -0.7071067811865479,-0.7071067811865471 l -0.7071067811865479,-0.7071067811865471 l -0.7071067811865479,-0.7071067811865471 l 0.0,0.0 l 0.0,0.0 l -0.7071067811865479,-0.7071067811865471 l -0.38268343236509034,-0.9238795325112865 l 0.3826834323650914,0.9238795325112861 l 2.8284271247461845,2.8284271247461845 l -1.0,5.66553889764798e-16 l 0.0,0.0 l 0.0,0.0 l -1.0,5.66553889764798e-16 l -0.923879532511287,-0.3826834323650892 l 0.9238795325112861,0.3826834323650914 " style="stroke-linecap:square;stroke:#50514F;stroke-width:0.2px;fill:none" /></g></svg>