<?xml version="1.0" encoding="UTF-8"?>
<!DOCTYPE svg PUBLIC "-//W3C//DTD SVG 1.1//EN"
    "http://www.w3.org/Graphics/SVG/1.1/DTD/svg11.dtd">
<svg xmlns="http://www.w3.org/2000/svg" xmlns:xlink="http://www.w3.org/1999/xlink" version="1.1" width="596.1538461538457" height="500" viewBox="-13.10000000000001 -23.60000000000003 37.20000000000002 31.20000000000004"><g><rect x="-13.10000000000001" y="-23.60000000000003" width="37.20000000000002" height="31.20000000000004" fill="#CBD4C2" /><path d="M 0,0 l -1.8369701987210297e-16,-1.0 l 1.0,-2.4492935982947064e-16 l 3.061616997868383e-16,1.0 l 1.0,-2.4492935982947064e-16 l 3.061616997868383e-16,1.0 l -1.0,3.6739403974420594e-16 l 3.061616997868383e-16,1.0 l 1.0,-2.4492935982947064e-16 l 3.061616997868383e-16,1.0 l -1.0,3.6739403974420594e-16 l -4.286263797015736e-16,-1.0 l -1.0,3.6739403974420594e-16 l 3.061616997868383e-16,1.0 l -1.0,3.6739403974420594e-16 l 3.061616997868383e-16,1.0 l 1.0,-2.4492935982947064e-16 l 3.061616997868383e-16,1.0 l -1.0,3.6739403974420594e-16 l -4.286263797015736e-16,-1.0 l -1.0,3.6739403974420594e-16 l -4.286263797015736e-16,-1.0 l 1.0,-4.898587196589413e-16 l -4.286263797015736e-16,-1.0 l -1.0,3.6739403974420594e-16 l 3.061616997868383e-16,1.0 l -1.0,3.6739403974420594e-16 l -4.286263797015736e-16,-1.0 l -1.0,3.6739403974420594e-16 l 3.061616997868383e-16,1.0 l -1.0,3.6739403974420594e-16 l 3.061616997868383e-16,1.0 l 1.0,-2.4492935982947064e-16 l 3.061616997868383e-16,1.0 l -1.0,3.6739403974420594e-16 l -4.286263797015736e-16,-1.0 l -1.0,3.6739403974420594e-16 l -4.286263797015736e-16,-1.0 l 1.0,-4.898587196589413e-16 l -4.286263797015736e-16,-1.0 l -1.0,3.6739403974420594e-16 l -4.286263797015736e-16,-1.0 l 1.0,-4.898587196589413e-16 l 5.51091059616309e-16,1.0 l 1.0,-4.898587196589413e-16 l -4.286263797015736e-16,-1.0 l 1.0,-4.898587196589413e-16 l -4.286263797015736e-16,-1.0 l -1.0,3.6739403974420594e-16 l 3.061616997868383e-16,1.0 l -1.0,3.6739403974420594e-16 l -4.286263797015736e-16,-1.0 l -1.0,3.6739403974420594e-16 l -4.286263797015736e-16,-1.0 l 1.0,-4.898587196589413e-16 l -4.286263797015736e-16,-1.0 l -1.0,3.6739403974420594e-16 l 3.061616997868383e-16,1.0 l -1.0,3.6739403974420594e-16 l -4.286263797015736e-16,-1.0 l -1.0,3.6739403974420594e-16 l 3.061616997868383e-16,1.0 l -1.0,3.6739403974420594e-16 l 3.061616997868383e-16,1.0 l 1.0,-2.4492935982947064e-16 l 3.061616997868383e-16,1.0 l -1.0,3.6739403974420594e-16 l -4.286263797015736e-16,-1.0 l -1.0,3.6739403974420594e-16 l -4.286263797015736e-16,-1.0 l 1.0,-4.898587196589413e-16 l -4.286263797015736e-16,-1.0 l -1.0,3.6739403974420594e-16 l -4.286263797015736e-16,-1.0 l 1.0,-4.898587196589413e-16 l 5.51091059616309e-16,1.0 l 1.0,-4.898587196589413e-16 l -4.286263797015736e-16,-1.0 l 1.0,-4.898587196589413e-16 l -4.286263797015736e-16,-1.0 l -1.0,3.6739403974420594e-16 l -4.286263797015736e-16,-1.0 l 1.0,-4.898587196589413e-16 l 5.51091059616309e-16,1.0 l 1.0,-4.898587196589413e-16 l 5.51091059616309e-16,1.0 l -1.0,6.123233995736766e-16 l 2.3274478990165594e-15,1.0 l 1.0,-2.266215559059192e-15 l -2.2049832191018243e-15,-1.0 l 1.0,-2.266215559059192e-15 l 2.3274478990165594e-15,1.0 l 1.0,-2.266215559059192e-15 l -2.2049832191018243e-15,-1.0 l 1.0,-2.266215559059192e-15 l -2.2049832191018243e-15,-1.0 l -1.0,2.1437508791444563e-15 l 2.0825185391870887e-15,1.0 l -1.0,2.1437508791444563e-15 l -2.2049832191018243e-15,-1.0 l -1.0,2.1437508791444563e-15 l -2.2049832191018243e-15,-1.0 l 1.0,-2.266215559059192e-15 l -2.2049832191018243e-15,-1.0 l -1.0,2.1437508791444563e-15 l -2.2049832191018243e-15,-1.0 l 1.0,-2.266215559059192e-15 l 2.3274478990165594e-15,1.0 l 1.0,-2.266215559059192e-15 l -2.2049832191018243e-15,-1.0 l 1.0,-2.266215559059192e-15 l -2.2049832191018243e-15,-1.0 l -1.0,2.1437508791444563e-15 l 2.0825185391870887e-15,1.0 l -1.0,2.1437508791444563e-15 l -2.2049832191018243e-15,-1.0 l -1.0,2.1437508791444563e-15 l -2.2049832191018243e-15,-1.0 l 1.0,-2.266215559059192e-15 l -2.2049832191018243e-15,-1.0 l -1.0,2.1437508791444563e-15 l 2.0825185391870887e-15,1.0 l -1.0,2.1437508791444563e-15 l -2.2049832191018243e-15,-1.0 l -1.0,2.1437508791444563e-15 l 2.0825185391870887e-15,1.0 l -1.0,2.1437508791444563e-15 l 2.0825185391870887e-15,1.0 l 1.0,-2.021286199229721e-15 l 2.0825185391870887e-15,1.0 l -1.0,2.1437508791444563e-15 l -2.2049832191018243e-15,-1.0 l -1.0,2.1437508791444563e-15 l -2.2049832191018243e-15,-1.0 l 1.0,-2.266215559059192e-15 l -2.2049832191018243e-15,-1.0 l -1.0,2.1437508791444563e-15 l -2.2049832191018243e-15,-1.0 l 1.0,-2.266215559059192e-15 l 2.3274478990165594e-15,1.0 l 1.0,-2.266215559059192e-15 l -2.2049832191018243e-15,-1.0 l 1.0,-2.266215559059192e-15 l -2.2049832191018243e-15,-1.0 l -1.0,2.1437508791444563e-15 l -2.2049832191018243e-15,-1.0 l 1.0,-2.266215559059192e-15 l 2.3274478990165594e-15,1.0 l 1.0,-2.266215559059192e-15 l 2.3274478990165594e-15,1.0 l -1.0,2.388680238973927e-15 l 2.3274478990165594e-15,1.0 l 1.0,-2.266215559059192e-15 l -2.2049832191018243e-15,-1.0 l 1.0,-2.266215559059192e-15 l 2.3274478990165594e-15,1.0 l 1.0,-2.266215559059192e-15 l -2.2049832191018243e-15,-1.0 l 1.0,-2.266215559059192e-15 l -2.2049832191018243e-15,-1.0 l -1.0,2.1437508791444563e-15 l -2.2049832191018243e-15,-1.0 l 1.0,-2.266215559059192e-15 l 2.3274478990165594e-15,1.0 l 1.0,-2.266215559059192e-15 l 2.3274478990165594e-15,1.0 l -1.0,2.388680238973927e-15 l 2.3274478990165594e-15,1.0 l 1.0,-2.266215559059192e-15 l 2.3274478990165594e-15,1.0 l -1.0,2.388680238973927e-15 l -2.4499125789312946e-15,-1.0 l -1.0,2.388680238973927e-15 l 2.3274478990165594e-15,1.0 l -1.0,2.388680238973927e-15 l 2.3274478990165594e-15,1.0 l 1.0,-2.266215559059192e-15 l -2.2049832191018243e-15,-1.0 l 1.0,-2.266215559059192e-15 l 2.3274478990165594e-15,1.0 l 1.0,-2.266215559059192e-15 l 2.3274478990165594e-15,1.0 l -1.0,2.388680238973927e-15 l 2.3274478990165594e-15,1.0 l 1.0,-2.266215559059192e-15 l -2.2049832191018243e-15,-1.0 l 1.0,-2.266215559059192e-15 l 2.3274478990165594e-15,1.0 l 1.0,-2.266215559059192e-15 l -2.2049832191018243e-15,-1.0 l 1.0,-2.266215559059192e-15 l -2.2049832191018243e-15,-1.0 l -1.0,2.1437508791444563e-15 l 2.0825185391870887e-15,1.0 l -1.0,2.1437508791444563e-15 l -2.2049832191018243e-15,-1.0 l -1.0,2.1437508791444563e-15 l -2.2049832191018243e-15,-1.0 l 1.0,-2.266215559059192e-15 l -2.2049832191018243e-15,-1.0 l -1.0,2.1437508791444563e-15 l -2.2049832191018243e-15,-1.0 l 1.0,-2.266215559059192e-15 l 2.3274478990165594e-15,1.0 l 1.0,-2.266215559059192e-15 l -2.2049832191018243e-15,-1.0 l 1.0,-2.266215559059192e-15 l -2.2049832191018243e-15,-1.0 l -1.0,2.1437508791444563e-15 l -2.2049832191018243e-15,-1.0 l 1.0,-2.266215559059192e-15 l 2.3274478990165594e-15,1.0 l 1.0,-2.266215559059192e-15 l 2.3274478990165594e-15,1.0 l -1.0,2.388680238973927e-15 l 2.3274478990165594e-15,1.0 l 1.0,-2.266215559059192e-15 l -2.2049832191018243e-15,-1.0 l 1.0,-2.266215559059192e-15 l 2.3274478990165594e-15,1.0 l 1.0,-2.266215559059192e-15 l -2.2049832191018243e-15,-1.0 l 1.0,-2.266215559059192e-15 l -2.2049832191018243e-15,-1.0 l -1.0,2.1437508791444563e-15 l 2.0825185391870887e-15,1.0 l -1.0,2.1437508791444563e-15 l -2.2049832191018243e-15,-1.0 l -1.0,2.1437508791444563e-15 l -2.2049832191018243e-15,-1.0 l 1.0,-2.266215559059192e-15 l -2.2049832191018243e-15,-1.0 l -1.0,2.1437508791444563e-15 l -2.2049832191018243e-15,-1.0 l 1.0,-2.266215559059192e-15 l 2.3274478990165594e-15,1.0 l 1.0,-2.266215559059192e-15 l -2.2049832191018243e-15,-1.0 l 1.0,-2.266215559059192e-15 l -2.2049832191018243e-15,-1.0 l -1.0,2.1437508791444563e-15 l 2.0825185391870887e-15,1.0 l -1.0,2.1437508791444563e-15 l -2.2049832191018243e-15,-1.0 l -1.0,2.1437508791444563e-15 l -2.2049832191018243e-15,-1.0 l 1.0,-2.266215559059192e-15 l -2.2049832191018243e-15,-1.0 l -1.0,2.1437508791444563e-15 l 2.0825185391870887e-15,1.0 l -1.0,2.1437508791444563e-15 l -2.2049832191018243e-15,-1.0 l -1.0,2.1437508791444563e-15 l 2.0825185391870887e-15,1.0 l -1.0,2.1437508791444563e-15 l 2.0825185391870887e-15,1.0 l 1.0,-2.021286199229721e-15 l 2.0825185391870887e-15,1.0 l -1.0,2.1437508791444563e-15 l -2.2049832191018243e-15,-1.0 l -1.0,2.1437508791444563e-15 l -2.2049832191018243e-15,-1.0 l 1.0,-2.266215559059192e-15 l -2.2049832191018243e-15,-1.0 l -1.0,2.1437508791444563e-15 l -2.2049832191018243e-15,-1.0 l 1.0,-2.266215559059192e-15 l 2.3274478990165594e-15,1.0 l 1.0,-2.266215559059192e-15 l -2.2049832191018243e-15,-1.0 l 1.0,-2.266215559059192e-15 l -2.2049832191018243e-15,-1.0 l -1.0,2.1437508791444563e-15 l -2.2049832191018243e-15,-1.0 l 1.0,-2.266215559059192e-15 l 2.3274478990165594e-15,1.0 l 1.0,-2.266215559059192e-15 l 2.3274478990165594e-15,1.0 l -1.0,2.388680238973927e-15 l 2.3274478990165594e-15,1.0 l 1.0,-2.266215559059192e-15 l -2.2049832191018243e-15,-1.0 l 1.0,-2.266215559059192e-15 l 2.3274478990165594e-15,1.0 l 1.0,-2.266215559059192e-15 l -2.2049832191018243e-15,-1.0 l 1.0,-2.266215559059192e-15 l -2.2049832191018243e-15,-1.0 l -1.0,2.1437508791444563e-15 l -2.2049832191018243e-15,-1.0 l 1.0,-2.266215559059192e-15 l 2.3274478990165594e-15,1.0 l 1.0,-2.266215559059192e-15 l 2.3274478990165594e-15,1.0 l -1.0,2.388680238973927e-15 l 2.3274478990165594e-15,1.0 l 1.0,-2.266215559059192e-15 l 2.3274478990165594e-15,1.0 l -1.0,2.388680238973927e-15 l -2.4499125789312946e-15,-1.0 l -1.0,2.388680238973927e-15 l 2.3274478990165594e-15,1.0 l -1.0,2.388680238973927e-15 l 2.3274478990165594e-15,1.0 l 1.0,-2.266215559059192e-15 l -2.2049832191018243e-15,-1.0 l 1.0,-2.266215559059192e-15 l 2.3274478990165594e-15,1.0 l 1.0,-2.266215559059192e-15 l 2.3274478990165594e-15,1.0 l -1.0,2.388680238973927e-15 l 2.3274478990165594e-15,1.0 l 1.0,-2.266215559059192e-15 l -2.2049832191018243e-15,-1.0 l 1.0,-2.266215559059192e-15 l 2.3274478990165594e-15,1.0 l 1.0,-2.266215559059192e-15 l -2.2049832191018243e-15,-1.0 l 1.0,-2.266215559059192e-15 l -2.2049832191018243e-15,-1.0 l -1.0,2.1437508791444563e-15 l -2.2049832191018243e-15,-1.0 l 1.0,-2.266215559059192e-15 l 2.3274478990165594e-15,1.0 l 1.0,-2.266215559059192e-15 l 2.3274478990165594e-15,1.0 l -1.0,2.388680238973927e-15 l 2.3274478990165594e-15,1.0 l 1.0,-2.266215559059192e-15 l 2.3274478990165594e-15,1.0 l -1.0,2.388680238973927e-15 l -2.4499125789312946e-15,-1.0 l -1.0,2.388680238973927e-15 l 2.3274478990165594e-15,1.0 l -1.0,2.388680238973927e-15 l 2.3274478990165594e-15,1.0 l 1.0,-2.266215559059192e-15 l 2.3274478990165594e-15,1.0 l -1.0,2.388680238973927e-15 l -2.4499125789312946e-15,-1.0 l -1.0,2.388680238973927e-15 l -2.4499125789312946e-15,-1.0 l 1.0,-7.347880794884119e-16 l -2.4499125789312946e-15,-1.0 l -1.0,2.388680238973927e-15 l 2.3274478990165594e-15,1.0 l -1.0,2.388680238973927e-15 l -2.4499125789312946e-15,-1.0 l -1.0,2.388680238973927e-15 l 2.3274478990165594e-15,1.0 l -1.0,2.388680238973927e-15 l 2.3274478990165594e-15,1.0 l 1.0,-2.266215559059192e-15 l -2.2049832191018243e-15,-1.0 l 1.0,-2.266215559059192e-15 l 2.3274478990165594e-15,1.0 l 1.0,-2.266215559059192e-15 l 2.3274478990165594e-15,1.0 l -1.0,2.388680238973927e-15 l 2.3274478990165594e-15,1.0 l 1.0,-2.266215559059192e-15 l 2.3274478990165594e-15,1.0 l -1.0,2.388680238973927e-15 l -2.4499125789312946e-15,-1.0 l -1.0,2.388680238973927e-15 l 2.3274478990165594e-15,1.0 l -1.0,2.388680238973927e-15 l 2.3274478990165594e-15,1.0 l 1.0,-2.266215559059192e-15 l -2.2049832191018243e-15,-1.0 l 1.0,-2.266215559059192e-15 l 2.3274478990165594e-15,1.0 l 1.0,-2.266215559059192e-15 l 2.3274478990165594e-15,1.0 l -1.0,2.388680238973927e-15 l 2.3274478990165594e-15,1.0 l 1.0,-2.266215559059192e-15 l -2.2049832191018243e-15,-1.0 l 1.0,-2.266215559059192e-15 l 2.3274478990165594e-15,1.0 l 1.0,-2.266215559059192e-15 l -2.2049832191018243e-15,-1.0 l 1.0,-2.266215559059192e-15 l -2.2049832191018243e-15,-1.0 l -1.0,2.1437508791444563e-15 l 2.0825185391870887e-15,1.0 l -1.0,2.1437508791444563e-15 l -2.2049832191018243e-15,-1.0 l -1.0,2.1437508791444563e-15 l -2.2049832191018243e-15,-1.0 l 1.0,-2.266215559059192e-15 l -2.2049832191018243e-15,-1.0 l -1.0,2.1437508791444563e-15 l -2.2049832191018243e-15,-1.0 l 1.0,-2.266215559059192e-15 l 2.3274478990165594e-15,1.0 l 1.0,-2.266215559059192e-15 l -2.2049832191018243e-15,-1.0 l 1.0,-2.266215559059192e-15 l -2.2049832191018243e-15,-1.0 l -1.0,2.1437508791444563e-15 l -2.2049832191018243e-15,-1.0 l 1.0,-2.266215559059192e-15 l 2.3274478990165594e-15,1.0 l 1.0,-2.266215559059192e-15 l 2.3274478990165594e-15,1.0 l -1.0,2.388680238973927e-15 l 2.3274478990165594e-15,1.0 l 1.0,-2.266215559059192e-15 l -2.2049832191018243e-15,-1.0 l 1.0,-2.266215559059192e-15 l 2.3274478990165594e-15,1.0 l 1.0,-2.266215559059192e-15 l -2.2049832191018243e-15,-1.0 l 1.0,-2.266215559059192e-15 l -2.2049832191018243e-15,-1.0 l -1.0,2.1437508791444563e-15 l -2.2049832191018243e-15,-1.0 l 1.0,-2.266215559059192e-15 l 2.3274478990165594e-15,1.0 l 1.0,-2.266215559059192e-15 l 2.3274478990165594e-15,1.0 l -1.0,2.388680238973927e-15 l 2.3274478990165594e-15,1.0 l 1.0,-2.266215559059192e-15 l 2.3274478990165594e-15,1.0 l -1.0,2.388680238973927e-15 l -2.4499125789312946e-15,-1.0 l -1.0,2.388680238973927e-15 l 2.3274478990165594e-15,1.0 l -1.0,2.388680238973927e-15 l 2.3274478990165594e-15,1.0 l 1.0,-2.266215559059192e-15 l -2.2049832191018243e-15,-1.0 l 1.0,-2.266215559059192e-15 l 2.3274478990165594e-15,1.0 l 1.0,-2.266215559059192e-15 l 2.3274478990165594e-15,1.0 l -1.0,2.388680238973927e-15 l 2.3274478990165594e-15,1.0 l 1.0,-2.266215559059192e-15 l -2.2049832191018243e-15,-1.0 l 1.0,-2.266215559059192e-15 l 2.3274478990165594e-15,1.0 l 1.0,-2.266215559059192e-15 l -2.2049832191018243e-15,-1.0 l 1.0,-2.266215559059192e-15 l -2.2049832191018243e-15,-1.0 l -1.0,2.1437508791444563e-15 l 2.0825185391870887e-15,1.0 l -1.0,2.1437508791444563e-15 l -2.2049832191018243e-15,-1.0 l -1.0,2.1437508791444563e-15 l -2.2049832191018243e-15,-1.0 l 1.0,-2.266215559059192e-15 l -2.2049832191018243e-15,-1.0 l -1.0,2.1437508791444563e-15 l -2.2049832191018243e-15,-1.0 l 1.0,-2.266215559059192e-15 l 2.3274478990165594e-15,1.0 l 1.0,-2.266215559059192e-15 l -2.2049832191018243e-15,-1.0 l 1.0,-2.266215559059192e-15 l -2.2049832191018243e-15,-1.0 l -1.0,2.1437508791444563e-15 l -2.2049832191018243e-15,-1.0 l 1.0,-2.266215559059192e-15 l 2.3274478990165594e-15,1.0 l 1.0,-2.266215559059192e-15 l 2.3274478990165594e-15,1.0 l -1.0,2.388680238973927e-15 l 2.3274478990165594e-15,1.0 l 1.0,-2.266215559059192e-15 l -2.2049832191018243e-15,-1.0 l 1.0,-2.266215559059192e-15 l 2.3274478990165594e-15,1.0 l 1.0,-2.266215559059192e-15 l -2.2049832191018243e-15,-1.0 l 1.0,-2.266215559059192e-15 l -2.2049832191018243e-15,-1.0 l -1.0,2.1437508791444563e-15 l 2.0825185391870887e-15,1.0 l -1.0,2.1437508791444563e-15 l -2.2049832191018243e-15,-1.0 l -1.0,2.1437508791444563e-15 l -2.2049832191018243e-15,-1.0 l 1.0,-2.266215559059192e-15 l -2.2049832191018243e-15,-1.0 l -1.0,2.1437508791444563e-15 l -2.2049832191018243e-15,-1.0 l 1.0,-2.266215559059192e-15 l 2.3274478990165594e-15,1.0 l 1.0,-2.266215559059192e-15 l -2.2049832191018243e-15,-1.0 l 1.0,-2.266215559059192e-15 l -2.2049832191018243e-15,-1.0 l -1.0,2.1437508791444563e-15 l 2.0825185391870887e-15,1.0 l -1.0,2.1437508791444563e-15 l -2.2049832191018243e-15,-1.0 l -1.0,2.1437508791444563e-15 l -2.2049832191018243e-15,-1.0 l 1.0,-2.266215559059192e-15 l -2.2049832191018243e-15,-1.0 l -1.0,2.1437508791444563e-15 l 2.0825185391870887e-15,1.0 l -1.0,2.1437508791444563e-15 l -2.2049832191018243e-15,-1.0 l -1.0,2.1437508791444563e-15 l 2.0825185391870887e-15,1.0 l -1.0,2.1437508791444563e-15 l 2.0825185391870887e-15,1.0 l 1.0,-2.021286199229721e-15 " style="stroke-linecap:square;stroke:#50514F;stroke-width:0.2px;fill:none" /></g></svg>