<?xml version="1.0" encoding="UTF-8"?>
<!DOCTYPE svg PUBLIC "-//W3C//DTD SVG 1.1//EN"
    "http://www.w3.org/Graphics/SVG/1.1/DTD/svg11.dtd">
<svg xmlns="http://www.w3.org/2000/svg" xmlns:xlink="http://www.w3.org/1999/xlink" version="1.1" width="419.35483870967755" height="500" viewBox="-7.6000000000000005 -13.100000000000001 31.200000000000006 37.199999999999996"><g><rect x="-7.6000000000000005" y="-13.100000000000001" width="31.200000000000006" height="37.199999999999996" fill="#CBD4C2" /></g><g><path d="M 0,0 l 1.0,0.0 l 6.123233995736766e-17,1.0 l -1.0,1.2246467991473532e-16 l 6.123233995736766e-17,1.0 l -1.0,1.2246467991473532e-16 l -1.8369701987210297e-16,-1.0 l -1.0,1.2246467991473532e-16 l 6.123233995736766e-17,1.0 l -1.0,1.2246467991473532e-16 l -1.8369701987210297e-16,-1.0 l 1.0,-2.4492935982947064e-16 l -1.8369701987210297e-16,-1.0 l -1.0,1.2246467991473532e-16 l -1.8369701987210297e-16,-1.0 l -1.0,1.2246467991473532e-16 l 6.123233995736766e-17,1.0 l -1.0,1.2246467991473532e-16 l -1.8369701987210297e-16,-1.0 l 1.0,-2.4492935982947064e-16 l -1.8369701987210297e-16,-1.0 l 1.0,-2.4492935982947064e-16 l 3.061616997868383e-16,1.0 l 1.0,-2.4492935982947064e-16 l -1.8369701987210297e-16,-1.0 l -1.0,1.2246467991473532e-16 l -1.8369701987210297e-16,-1.0 l 1.0,-2.4492935982947064e-16 l -1.8369701987210297e-16,-1.0 l -1.0,1.2246467991473532e-16 l -1.8369701987210297e-16,-1.0 l -1.0,1.2246467991473532e-16 l 6.123233995736766e-17,1.0 l -1.0,1.2246467991473532e-16 l -1.8369701987210297e-16,-1.0 l 1.0,-2.4492935982947064e-16 l -1.8369701987210297e-16,-1.0 l 1.0,-2.4492935982947064e-16 l 3.061616997868383e-16,1.0 l 1.0,-2.4492935982947064e-16 l -1.8369701987210297e-16,-1.0 l 1.0,-2.4492935982947064e-16 l 3.061616997868383e-16,1.0 l -1.0,3.6739403974420594e-16 l 3.061616997868383e-16,1.0 l 1.0,-2.4492935982947064e-16 l 3.061616997868383e-16,1.0 l 1.0,-2.4492935982947064e-16 l -1.8369701987210297e-16,-1.0 l -1.0,1.2246467991473532e-16 l -1.8369701987210297e-16,-1.0 l 1.0,-2.4492935982947064e-16 l -1.8369701987210297e-16,-1.0 l 1.0,-2.4492935982947064e-16 l 3.061616997868383e-16,1.0 l 1.0,-2.4492935982947064e-16 l -1.8369701987210297e-16,-1.0 l -1.0,1.2246467991473532e-16 l -1.8369701987210297e-16,-1.0 l 1.0,-2.4492935982947064e-16 l -1.8369701987210297e-16,-1.0 l -1.0,1.2246467991473532e-16 l -1.8369701987210297e-16,-1.0 l -1.0,1.2246467991473532e-16 l 6.123233995736766e-17,1.0 l -1.0,1.2246467991473532e-16 l -1.8369701987210297e-16,-1.0 l 1.0,-2.4492935982947064e-16 l -1.8369701987210297e-16,-1.0 l 1.0,-2.4492935982947064e-16 l 3.061616997868383e-16,1.0 l 1.0,-2.4492935982947064e-16 l -1.8369701987210297e-16,-1.0 l 1.0,-2.4492935982947064e-16 l 3.061616997868383e-16,1.0 l -1.0,3.6739403974420594e-16 l 3.061616997868383e-16,1.0 l 1.0,-2.4492935982947064e-16 l 3.061616997868383e-16,1.0 l 1.0,-2.4492935982947064e-16 l -1.8369701987210297e-16,-1.0 l 1.0,-2.4492935982947064e-16 l 3.061616997868383e-16,1.0 l -1.0,3.6739403974420594e-16 l 3.061616997868383e-16,1.0 l -1.0,3.6739403974420594e-16 l -4.286263797015736e-16,-1.0 l -1.0,3.6739403974420594e-16 l 3.061616997868383e-16,1.0 l 1.0,-2.4492935982947064e-16 l 3.061616997868383e-16,1.0 l -1.0,3.6739403974420594e-16 l 3.061616997868383e-16,1.0 l 1.0,-2.4492935982947064e-16 l 3.061616997868383e-16,1.0 l 1.0,-2.4492935982947064e-16 l -1.8369701987210297e-16,-1.0 l -1.0,1.2246467991473532e-16 l -1.8369701987210297e-16,-1.0 l 1.0,-2.4492935982947064e-16 l -1.8369701987210297e-16,-1.0 l 1.0,-2.4492935982947064e-16 l 3.061616997868383e-16,1.0 l 1.0,-2.4492935982947064e-16 l -1.8369701987210297e-16,-1.0 l 1.0,-2.4492935982947064e-16 l 3.061616997868383e-16,1.0 l -1.0,3.6739403974420594e-16 l 3.061616997868383e-16,1.0 l 1.0,-2.4492935982947064e-16 l 3.061616997868383e-16,1.0 l 1.0,-2.4492935982947064e-16 l -1.8369701987210297e-16,-1.0 l -1.0,1.2246467991473532e-16 l -1.8369701987210297e-16,-1.0 l 1.0,-2.4492935982947064e-16 l -1.8369701987210297e-16,-1.0 l 1.0,-2.4492935982947064e-16 l 3.061616997868383e-16,1.0 l 1.0,-2.4492935982947064e-16 l -1.8369701987210297e-16,-1.0 l -1.0,1.2246467991473532e-16 l -1.8369701987210297e-16,-1.0 l 1.0,-2.4492935982947064e-16 l -1.8369701987210297e-16,-1.0 l -1.0,1.2246467991473532e-16 l -1.8369701987210297e-16,-1.0 l -1.0,1.2246467991473532e-16 l 6.123233995736766e-17,1.0 l -1.0,1.2246467991473532e-16 l -1.8369701987210297e-16,-1.0 l 1.0,-2.4492935982947064e-16 l -1.8369701987210297e-16,-1.0 l 1.0,-2.4492935982947064e-16 l 3.061616997868383e-16,1.0 l 1.0,-2.4492935982947064e-16 l -1.8369701987210297e-16,-1.0 l 1.0,-2.4492935982947064e-16 l 3.061616997868383e-16,1.0 l -1.0,3.6739403974420594e-16 l 3.061616997868383e-16,1.0 l 1.0,-2.4492935982947064e-16 l 3.061616997868383e-16,1.0 l 1.0,-2.4492935982947064e-16 l -1.8369701987210297e-16,-1.0 l 1.0,-2.4492935982947064e-16 l 3.061616997868383e-16,1.0 l -1.0,3.6739403974420594e-16 l 3.061616997868383e-16,1.0 l -1.0,3.6739403974420594e-16 l -4.286263797015736e-16,-1.0 l -1.0,3.6739403974420594e-16 l 3.061616997868383e-16,1.0 l 1.0,-2.4492935982947064e-16 l 3.061616997868383e-16,1.0 l -1.0,3.6739403974420594e-16 l 3.061616997868383e-16,1.0 l 1.0,-2.4492935982947064e-16 l 3.061616997868383e-16,1.0 l 1.0,-2.4492935982947064e-16 l -1.8369701987210297e-16,-1.0 l 1.0,-2.4492935982947064e-16 l 3.061616997868383e-16,1.0 l -1.0,3.6739403974420594e-16 l 3.061616997868383e-16,1.0 l -1.0,3.6739403974420594e-16 l -4.286263797015736e-16,-1.0 l -1.0,3.6739403974420594e-16 l 3.061616997868383e-16,1.0 l -1.0,3.6739403974420594e-16 l -4.286263797015736e-16,-1.0 l 1.0,-4.898587196589413e-16 l -4.286263797015736e-16,-1.0 l -1.0,3.6739403974420594e-16 l -4.286263797015736e-16,-1.0 l -1.0,3.6739403974420594e-16 l 3.061616997868383e-16,1.0 l 1.0,-2.4492935982947064e-16 l 3.061616997868383e-16,1.0 l -1.0,3.6739403974420594e-16 l 3.061616997868383e-16,1.0 l -1.0,3.6739403974420594e-16 l -4.286263797015736e-16,-1.0 l -1.0,3.6739403974420594e-16 l 3.061616997868383e-16,1.0 l 1.0,-2.4492935982947064e-16 l 3.061616997868383e-16,1.0 l -1.0,3.6739403974420594e-16 l 3.061616997868383e-16,1.0 l 1.0,-2.4492935982947064e-16 l 3.061616997868383e-16,1.0 l 1.0,-2.4492935982947064e-16 l -1.8369701987210297e-16,-1.0 l -1.0,1.2246467991473532e-16 l -1.8369701987210297e-16,-1.0 l 1.0,-2.4492935982947064e-16 l -1.8369701987210297e-16,-1.0 l 1.0,-2.4492935982947064e-16 l 3.061616997868383e-16,1.0 l 1.0,-2.4492935982947064e-16 l -1.8369701987210297e-16,-1.0 l 1.0,-2.4492935982947064e-16 l 3.061616997868383e-16,1.0 l -1.0,3.6739403974420594e-16 l 3.061616997868383e-16,1.0 l 1.0,-2.4492935982947064e-16 l 3.061616997868383e-16,1.0 l 1.0,-2.4492935982947064e-16 l -1.8369701987210297e-16,-1.0 l 1.0,-2.4492935982947064e-16 l 3.061616997868383e-16,1.0 l -1.0,3.6739403974420594e-16 l 3.061616997868383e-16,1.0 l -1.0,3.6739403974420594e-16 l -4.286263797015736e-16,-1.0 l -1.0,3.6739403974420594e-16 l 3.061616997868383e-16,1.0 l 1.0,-2.4492935982947064e-16 l 3.061616997868383e-16,1.0 l -1.0,3.6739403974420594e-16 l 3.061616997868383e-16,1.0 l 1.0,-2.4492935982947064e-16 l 3.061616997868383e-16,1.0 l 1.0,-2.4492935982947064e-16 l -1.8369701987210297e-16,-1.0 l -1.0,1.2246467991473532e-16 l -1.8369701987210297e-16,-1.0 l 1.0,-2.4492935982947064e-16 l -1.8369701987210297e-16,-1.0 l 1.0,-2.4492935982947064e-16 l 3.061616997868383e-16,1.0 l 1.0,-2.4492935982947064e-16 l -1.8369701987210297e-16,-1.0 l 1.0,-2.4492935982947064e-16 l 3.061616997868383e-16,1.0 l -1.0,3.6739403974420594e-16 l 3.061616997868383e-16,1.0 l 1.0,-2.4492935982947064e-16 l 3.061616997868383e-16,1.0 l 1.0,-2.4492935982947064e-16 l -1.8369701987210297e-16,-1.0 l -1.0,1.2246467991473532e-16 l -1.8369701987210297e-16,-1.0 l 1.0,-2.4492935982947064e-16 l -1.8369701987210297e-16,-1.0 l 1.0,-2.4492935982947064e-16 l 3.061616997868383e-16,1.0 l 1.0,-2.4492935982947064e-16 l -1.8369701987210297e-16,-1.0 l -1.0,1.2246467991473532e-16 l -1.8369701987210297e-16,-1.0 l 1.0,-2.4492935982947064e-16 l -1.8369701987210297e-16,-1.0 l -1.0,1.2246467991473532e-16 l -1.8369701987210297e-16,-1.0 l -1.0,1.2246467991473532e-16 l 6.123233995736766e-17,1.0 l -1.0,1.2246467991473532e-16 l -1.8369701987210297e-16,-1.0 l 1.0,-2.4492935982947064e-16 l -1.8369701987210297e-16,-1.0 l 1.0,-2.4492935982947064e-16 l 3.061616997868383e-16,1.0 l 1.0,-2.4492935982947064e-16 l -1.8369701987210297e-16,-1.0 l 1.0,-2.4492935982947064e-16 l 3.061616997868383e-16,1.0 l -1.0,3.6739403974420594e-16 l 3.061616997868383e-16,1.0 l 1.0,-2.4492935982947064e-16 l 3.061616997868383e-16,1.0 l 1.0,-2.4492935982947064e-16 l -1.8369701987210297e-16,-1.0 l 1.0,-2.4492935982947064e-16 l 3.061616997868383e-16,1.0 l -1.0,3.6739403974420594e-16 l 3.061616997868383e-16,1.0 l -1.0,3.6739403974420594e-16 l -4.286263797015736e-16,-1.0 l -1.0,3.6739403974420594e-16 l 3.061616997868383e-16,1.0 l 1.0,-2.4492935982947064e-16 l 3.061616997868383e-16,1.0 l -1.0,3.6739403974420594e-16 l 3.061616997868383e-16,1.0 l 1.0,-2.4492935982947064e-16 l 3.061616997868383e-16,1.0 l 1.0,-2.4492935982947064e-16 l -1.8369701987210297e-16,-1.0 l 1.0,-2.4492935982947064e-16 l 3.061616997868383e-16,1.0 l -1.0,3.6739403974420594e-16 l 3.061616997868383e-16,1.0 l -1.0,3.6739403974420594e-16 l -4.286263797015736e-16,-1.0 l -1.0,3.6739403974420594e-16 l 3.061616997868383e-16,1.0 l -1.0,3.6739403974420594e-16 l -4.286263797015736e-16,-1.0 l 1.0,-4.898587196589413e-16 l -4.286263797015736e-16,-1.0 l -1.0,3.6739403974420594e-16 l -4.286263797015736e-16,-1.0 l -1.0,3.6739403974420594e-16 l 3.061616997868383e-16,1.0 l 1.0,-2.4492935982947064e-16 l 3.061616997868383e-16,1.0 l -1.0,3.6739403974420594e-16 l 3.061616997868383e-16,1.0 l -1.0,3.6739403974420594e-16 l -4.286263797015736e-16,-1.0 l -1.0,3.6739403974420594e-16 l 3.061616997868383e-16,1.0 l 1.0,-2.4492935982947064e-16 l 3.061616997868383e-16,1.0 l -1.0,3.6739403974420594e-16 l 3.061616997868383e-16,1.0 l 1.0,-2.4492935982947064e-16 l 3.061616997868383e-16,1.0 l 1.0,-2.4492935982947064e-16 l -1.8369701987210297e-16,-1.0 l 1.0,-2.4492935982947064e-16 l 3.061616997868383e-16,1.0 l -1.0,3.6739403974420594e-16 l 3.061616997868383e-16,1.0 l -1.0,3.6739403974420594e-16 l -4.286263797015736e-16,-1.0 l -1.0,3.6739403974420594e-16 l 3.061616997868383e-16,1.0 l -1.0,3.6739403974420594e-16 l -4.286263797015736e-16,-1.0 l 1.0,-4.898587196589413e-16 l -4.286263797015736e-16,-1.0 l -1.0,3.6739403974420594e-16 l -4.286263797015736e-16,-1.0 l -1.0,3.6739403974420594e-16 l 3.061616997868383e-16,1.0 l -1.0,3.6739403974420594e-16 l -4.286263797015736e-16,-1.0 l 1.0,-4.898587196589413e-16 l -4.286263797015736e-16,-1.0 l 1.0,-4.898587196589413e-16 l 5.51091059616309e-16,1.0 l 1.0,-4.898587196589413e-16 l -4.286263797015736e-16,-1.0 l -1.0,3.6739403974420594e-16 l -4.286263797015736e-16,-1.0 l 1.0,-4.898587196589413e-16 l -4.286263797015736e-16,-1.0 l -1.0,3.6739403974420594e-16 l -4.286263797015736e-16,-1.0 l -1.0,3.6739403974420594e-16 l 3.061616997868383e-16,1.0 l 1.0,-2.4492935982947064e-16 l 3.061616997868383e-16,1.0 l -1.0,3.6739403974420594e-16 l 3.061616997868383e-16,1.0 l -1.0,3.6739403974420594e-16 l -4.286263797015736e-16,-1.0 l -1.0,3.6739403974420594e-16 l 3.061616997868383e-16,1.0 l -1.0,3.6739403974420594e-16 l -4.286263797015736e-16,-1.0 l 1.0,-4.898587196589413e-16 l -4.286263797015736e-16,-1.0 l -1.0,3.6739403974420594e-16 l -4.286263797015736e-16,-1.0 l -1.0,3.6739403974420594e-16 l 3.061616997868383e-16,1.0 l 1.0,-2.4492935982947064e-16 l 3.061616997868383e-16,1.0 l -1.0,3.6739403974420594e-16 l 3.061616997868383e-16,1.0 l -1.0,3.6739403974420594e-16 l -4.286263797015736e-16,-1.0 l -1.0,3.6739403974420594e-16 l 3.061616997868383e-16,1.0 l 1.0,-2.4492935982947064e-16 l 3.061616997868383e-16,1.0 l -1.0,3.6739403974420594e-16 l 3.061616997868383e-16,1.0 l 1.0,-2.4492935982947064e-16 l 3.061616997868383e-16,1.0 l 1.0,-2.4492935982947064e-16 l -1.8369701987210297e-16,-1.0 l -1.0,1.2246467991473532e-16 l -1.8369701987210297e-16,-1.0 l 1.0,-2.4492935982947064e-16 l -1.8369701987210297e-16,-1.0 l 1.0,-2.4492935982947064e-16 l 3.061616997868383e-16,1.0 l 1.0,-2.4492935982947064e-16 l -1.8369701987210297e-16,-1.0 l 1.0,-2.4492935982947064e-16 l 3.061616997868383e-16,1.0 l -1.0,3.6739403974420594e-16 l 3.061616997868383e-16,1.0 l 1.0,-2.4492935982947064e-16 l 3.061616997868383e-16,1.0 l 1.0,-2.4492935982947064e-16 l -1.8369701987210297e-16,-1.0 l 1.0,-2.4492935982947064e-16 l 3.061616997868383e-16,1.0 l -1.0,3.6739403974420594e-16 l 3.061616997868383e-16,1.0 l -1.0,3.6739403974420594e-16 l -4.286263797015736e-16,-1.0 l -1.0,3.6739403974420594e-16 l 3.061616997868383e-16,1.0 l 1.0,-2.4492935982947064e-16 l 3.061616997868383e-16,1.0 l -1.0,3.6739403974420594e-16 l 3.061616997868383e-16,1.0 l 1.0,-2.4492935982947064e-16 l 3.061616997868383e-16,1.0 l 1.0,-2.4492935982947064e-16 l -1.8369701987210297e-16,-1.0 l 1.0,-2.4492935982947064e-16 l 3.061616997868383e-16,1.0 l -1.0,3.6739403974420594e-16 l 3.061616997868383e-16,1.0 l -1.0,3.6739403974420594e-16 l -4.286263797015736e-16,-1.0 l -1.0,3.6739403974420594e-16 l 3.061616997868383e-16,1.0 l -1.0,3.6739403974420594e-16 l -4.286263797015736e-16,-1.0 l 1.0,-4.898587196589413e-16 l -4.286263797015736e-16,-1.0 l -1.0,3.6739403974420594e-16 l -4.286263797015736e-16,-1.0 l -1.0,3.6739403974420594e-16 l 3.061616997868383e-16,1.0 l 1.0,-2.4492935982947064e-16 l 3.061616997868383e-16,1.0 l -1.0,3.6739403974420594e-16 l 3.061616997868383e-16,1.0 l -1.0,3.6739403974420594e-16 l -4.286263797015736e-16,-1.0 l -1.0,3.6739403974420594e-16 l 3.061616997868383e-16,1.0 l 1.0,-2.4492935982947064e-16 l 3.061616997868383e-16,1.0 l -1.0,3.6739403974420594e-16 l 3.061616997868383e-16,1.0 l 1.0,-2.4492935982947064e-16 l 3.061616997868383e-16,1.0 l 1.0,-2.4492935982947064e-16 l -1.8369701987210297e-16,-1.0 l -1.0,1.2246467991473532e-16 l -1.8369701987210297e-16,-1.0 l 1.0,-2.4492935982947064e-16 l -1.8369701987210297e-16,-1.0 l 1.0,-2.4492935982947064e-16 l 3.061616997868383e-16,1.0 l 1.0,-2.4492935982947064e-16 l -1.8369701987210297e-16,-1.0 l 1.0,-2.4492935982947064e-16 l 3.061616997868383e-16,1.0 l -1.0,3.6739403974420594e-16 l 3.061616997868383e-16,1.0 l 1.0,-2.4492935982947064e-16 l 3.061616997868383e-16,1.0 l 1.0,-2.4492935982947064e-16 l -1.8369701987210297e-16,-1.0 l 1.0,-2.4492935982947064e-16 l 3.061616997868383e-16,1.0 l -1.0,3.6739403974420594e-16 l 3.061616997868383e-16,1.0 l -1.0,3.6739403974420594e-16 l -4.286263797015736e-16,-1.0 l -1.0,3.6739403974420594e-16 l 3.061616997868383e-16,1.0 l 1.0,-2.4492935982947064e-16 l 3.061616997868383e-16,1.0 l -1.0,3.6739403974420594e-16 l 3.061616997868383e-16,1.0 l 1.0,-2.4492935982947064e-16 l 3.061616997868383e-16,1.0 l 1.0,-2.4492935982947064e-16 l -1.8369701987210297e-16,-1.0 l -1.0,1.2246467991473532e-16 l -1.8369701987210297e-16,-1.0 l 1.0,-2.4492935982947064e-16 l -1.8369701987210297e-16,-1.0 l 1.0,-2.4492935982947064e-16 l 3.061616997868383e-16,1.0 l 1.0,-2.4492935982947064e-16 l -1.8369701987210297e-16,-1.0 l 1.0,-2.4492935982947064e-16 l 3.061616997868383e-16,1.0 l -1.0,3.6739403974420594e-16 l 3.061616997868383e-16,1.0 l 1.0,-2.4492935982947064e-16 l 3.061616997868383e-16,1.0 l 1.0,-2.4492935982947064e-16 l -1.8369701987210297e-16,-1.0 l -1.0,1.2246467991473532e-16 l -1.8369701987210297e-16,-1.0 l 1.0,-2.4492935982947064e-16 l -1.8369701987210297e-16,-1.0 l 1.0,-2.4492935982947064e-16 l 3.061616997868383e-16,1.0 l 1.0,-2.4492935982947064e-16 l -1.8369701987210297e-16,-1.0 l -1.0,1.2246467991473532e-16 l -1.8369701987210297e-16,-1.0 l 1.0,-2.4492935982947064e-16 l -1.8369701987210297e-16,-1.0 l -1.0,1.2246467991473532e-16 l -1.8369701987210297e-16,-1.0 l -1.0,1.2246467991473532e-16 l 6.123233995736766e-17,1.0 " style="stroke-linecap:square;stroke:#50514F;stroke-width:0.2px;fill:none" /></g></svg>