<?xml version="1.0" encoding="UTF-8"?>
<!DOCTYPE svg PUBLIC "-//W3C//DTD SVG 1.1//EN"
    "http://www.w3.org/Graphics/SVG/1.1/DTD/svg11.dtd">
<svg xmlns="http://www.w3.org/2000/svg" xmlns:xlink="http://www.w3.org/1999/xlink" version="1.1" width="470.99627223364206" height="500" viewBox="-5.369357503463537 -26.199999999999996 64.43229004156242 68.4000000000002"><g><rect x="-5.369357503463537" y="-26.199999999999996" width="64.43229004156242" height="68.4000000000002" fill="#CBD4C2" /><path d="M 0,0 l -1.8369701987210297e-16,-1.0 l 0.8660254037844384,-0.5000000000000004 l 1.1943401194869635e-15,1.0 l 0.866025403784439,0.4999999999999993 l -1.8369701987210297e-16,-1.0 l -1.8369701987210297e-16,-1.0 l -0.8660254037844386,-0.5000000000000001 l -1.8369701987210297e-16,-1.0 l 0.8660254037844384,-0.5000000000000004 l 0.8660254037844384,-0.5000000000000004 l 1.1943401194869635e-15,1.0 l -0.8660254037844379,0.5000000000000013 l 0.866025403784439,0.4999999999999993 l 0.8660254037844384,-0.5000000000000004 l 0.866025403784439,0.4999999999999993 l 1.1943401194869635e-15,1.0 l 1.1943401194869635e-15,1.0 l -0.8660254037844392,-0.49999999999999917 l -4.286263797015736e-16,-1.0 l -0.8660254037844379,0.5000000000000013 l 1.1943401194869635e-15,1.0 l 0.866025403784439,0.4999999999999993 l 1.1943401194869635e-15,1.0 l -0.8660254037844392,-0.49999999999999917 l -0.8660254037844379,0.5000000000000013 l 0.866025403784439,0.4999999999999993 l 0.866025403784439,0.4999999999999993 l 0.8660254037844384,-0.5000000000000004 l -1.8369701987210297e-16,-1.0 l 0.8660254037844384,-0.5000000000000004 l 1.1943401194869635e-15,1.0 l 0.866025403784439,0.4999999999999993 l -1.8369701987210297e-16,-1.0 l -1.8369701987210297e-16,-1.0 l -0.8660254037844386,-0.5000000000000001 l -1.8369701987210297e-16,-1.0 l 0.8660254037844384,-0.5000000000000004 l 1.1943401194869635e-15,1.0 l 0.866025403784439,0.4999999999999993 l -1.8369701987210297e-16,-1.0 l -1.8369701987210297e-16,-1.0 l -0.8660254037844386,-0.5000000000000001 l -0.8660254037844389,0.49999999999999956 l -0.8660254037844386,-0.5000000000000001 l -0.8660254037844386,-0.5000000000000001 l 0.8660254037844384,-0.5000000000000004 l 0.866025403784439,0.4999999999999993 l -1.8369701987210297e-16,-1.0 l -0.8660254037844386,-0.5000000000000001 l -1.8369701987210297e-16,-1.0 l 0.8660254037844384,-0.5000000000000004 l 1.1943401194869635e-15,1.0 l 0.866025403784439,0.4999999999999993 l -1.8369701987210297e-16,-1.0 l -1.8369701987210297e-16,-1.0 l -0.8660254037844386,-0.5000000000000001 l -1.8369701987210297e-16,-1.0 l 0.8660254037844384,-0.5000000000000004 l 0.8660254037844384,-0.5000000000000004 l 1.1943401194869635e-15,1.0 l -0.8660254037844379,0.5000000000000013 l 0.866025403784439,0.4999999999999993 l 0.8660254037844384,-0.5000000000000004 l -1.8369701987210297e-16,-1.0 l 0.8660254037844384,-0.5000000000000004 l 0.8660254037844384,-0.5000000000000004 l 1.1943401194869635e-15,1.0 l -0.8660254037844379,0.5000000000000013 l 0.866025403784439,0.4999999999999993 l 0.8660254037844384,-0.5000000000000004 l 0.866025403784439,0.4999999999999993 l 1.1943401194869635e-15,1.0 l 1.1943401194869635e-15,1.0 l -0.8660254037844392,-0.49999999999999917 l -4.286263797015736e-16,-1.0 l -0.8660254037844379,0.5000000000000013 l 1.1943401194869635e-15,1.0 l -0.8660254037844379,0.5000000000000013 l -0.8660254037844392,-0.49999999999999917 l 0.8660254037844387,-0.4999999999999999 l -4.286263797015736e-16,-1.0 l -0.8660254037844379,0.5000000000000013 l -0.8660254037844379,0.5000000000000013 l 1.1943401194869635e-15,1.0 l 0.866025403784439,0.4999999999999993 l 1.1943401194869635e-15,1.0 l -0.8660254037844392,-0.49999999999999917 l -0.8660254037844379,0.5000000000000013 l 0.866025403784439,0.4999999999999993 l 0.866025403784439,0.4999999999999993 l 0.8660254037844384,-0.5000000000000004 l -1.8369701987210297e-16,-1.0 l 0.8660254037844384,-0.5000000000000004 l 0.8660254037844384,-0.5000000000000004 l 1.1943401194869635e-15,1.0 l -0.8660254037844379,0.5000000000000013 l 0.866025403784439,0.4999999999999993 l 0.8660254037844384,-0.5000000000000004 l 0.866025403784439,0.4999999999999993 l 1.1943401194869635e-15,1.0 l -0.8660254037844392,-0.49999999999999917 l -0.8660254037844379,0.5000000000000013 l 0.866025403784439,0.4999999999999993 l 0.866025403784439,0.4999999999999993 l 0.8660254037844384,-0.5000000000000004 l 0.866025403784439,0.4999999999999993 l 1.1943401194869635e-15,1.0 l 1.1943401194869635e-15,1.0 l -0.8660254037844392,-0.49999999999999917 l -4.286263797015736e-16,-1.0 l -0.8660254037844379,0.5000000000000013 l 1.1943401194869635e-15,1.0 l 0.866025403784439,0.4999999999999993 l 1.1943401194869635e-15,1.0 l 1.1943401194869635e-15,1.0 l -0.8660254037844392,-0.49999999999999917 l -4.286263797015736e-16,-1.0 l -0.8660254037844379,0.5000000000000013 l 1.1943401194869635e-15,1.0 l -0.8660254037844379,0.5000000000000013 l -0.8660254037844392,-0.49999999999999917 l -0.8660254037844392,-0.49999999999999917 l 0.8660254037844387,-0.4999999999999999 l 0.8660254037844383,0.5000000000000006 l -4.286263797015736e-16,-1.0 l -0.8660254037844392,-0.49999999999999917 l -4.286263797015736e-16,-1.0 l 0.8660254037844387,-0.4999999999999999 l -1.2252657797839415e-15,1.0 l 0.8660254037844383,0.5000000000000006 l -4.286263797015736e-16,-1.0 l -4.286263797015736e-16,-1.0 l -0.8660254037844392,-0.49999999999999917 l -0.8660254037844379,0.5000000000000013 l -0.8660254037844392,-0.49999999999999917 l 0.8660254037844387,-0.4999999999999999 l -4.286263797015736e-16,-1.0 l -0.8660254037844379,0.5000000000000013 l -0.8660254037844379,0.5000000000000013 l 1.1943401194869635e-15,1.0 l 0.866025403784439,0.4999999999999993 l 1.1943401194869635e-15,1.0 l 1.1943401194869635e-15,1.0 l -0.8660254037844392,-0.49999999999999917 l -4.286263797015736e-16,-1.0 l -0.8660254037844379,0.5000000000000013 l 1.1943401194869635e-15,1.0 l 0.866025403784439,0.4999999999999993 l 1.1943401194869635e-15,1.0 l -0.8660254037844392,-0.49999999999999917 l -0.8660254037844379,0.5000000000000013 l 0.866025403784439,0.4999999999999993 l 0.866025403784439,0.4999999999999993 l 0.8660254037844384,-0.5000000000000004 l 0.866025403784439,0.4999999999999993 l 1.1943401194869635e-15,1.0 l 1.1943401194869635e-15,1.0 l -0.8660254037844392,-0.49999999999999917 l -4.286263797015736e-16,-1.0 l -0.8660254037844379,0.5000000000000013 l 1.1943401194869635e-15,1.0 l -0.8660254037844379,0.5000000000000013 l -0.8660254037844392,-0.49999999999999917 l -0.8660254037844392,-0.49999999999999917 l 0.8660254037844387,-0.4999999999999999 l 0.8660254037844383,0.5000000000000006 l -4.286263797015736e-16,-1.0 l -0.8660254037844392,-0.49999999999999917 l -0.8660254037844379,0.5000000000000013 l -0.8660254037844392,-0.49999999999999917 l 0.8660254037844387,-0.4999999999999999 l -4.286263797015736e-16,-1.0 l -0.8660254037844379,0.5000000000000013 l -0.8660254037844379,0.5000000000000013 l 1.1943401194869635e-15,1.0 l 0.866025403784439,0.4999999999999993 l 1.1943401194869635e-15,1.0 l -0.8660254037844392,-0.49999999999999917 l -0.8660254037844379,0.5000000000000013 l 0.866025403784439,0.4999999999999993 l 0.866025403784439,0.4999999999999993 l 0.8660254037844384,-0.5000000000000004 l 0.866025403784439,0.4999999999999993 l 1.1943401194869635e-15,1.0 l -0.8660254037844392,-0.49999999999999917 l -0.8660254037844379,0.5000000000000013 l 0.866025403784439,0.4999999999999993 l 0.866025403784439,0.4999999999999993 l 0.8660254037844384,-0.5000000000000004 l -1.8369701987210297e-16,-1.0 l 0.8660254037844384,-0.5000000000000004 l 0.8660254037844384,-0.5000000000000004 l 1.1943401194869635e-15,1.0 l -0.8660254037844379,0.5000000000000013 l 0.866025403784439,0.4999999999999993 l 0.8660254037844384,-0.5000000000000004 l -1.8369701987210297e-16,-1.0 l 0.8660254037844384,-0.5000000000000004 l 1.1943401194869635e-15,1.0 l 0.866025403784439,0.4999999999999993 l -1.8369701987210297e-16,-1.0 l -1.8369701987210297e-16,-1.0 l -0.8660254037844386,-0.5000000000000001 l -1.8369701987210297e-16,-1.0 l 0.8660254037844384,-0.5000000000000004 l 0.8660254037844384,-0.5000000000000004 l 1.1943401194869635e-15,1.0 l -0.8660254037844379,0.5000000000000013 l 0.866025403784439,0.4999999999999993 l 0.8660254037844384,-0.5000000000000004 l 0.866025403784439,0.4999999999999993 l 1.1943401194869635e-15,1.0 l 1.1943401194869635e-15,1.0 l -0.8660254037844392,-0.49999999999999917 l -4.286263797015736e-16,-1.0 l -0.8660254037844379,0.5000000000000013 l 1.1943401194869635e-15,1.0 l 0.866025403784439,0.4999999999999993 l 1.1943401194869635e-15,1.0 l -0.8660254037844392,-0.49999999999999917 l -0.8660254037844379,0.5000000000000013 l 0.866025403784439,0.4999999999999993 l 0.866025403784439,0.4999999999999993 l 0.8660254037844384,-0.5000000000000004 l -1.8369701987210297e-16,-1.0 l 0.8660254037844384,-0.5000000000000004 l 1.1943401194869635e-15,1.0 l 0.866025403784439,0.4999999999999993 l -1.8369701987210297e-16,-1.0 l -1.8369701987210297e-16,-1.0 l -0.8660254037844386,-0.5000000000000001 l -1.8369701987210297e-16,-1.0 l 0.8660254037844384,-0.5000000000000004 l 1.1943401194869635e-15,1.0 l 0.866025403784439,0.4999999999999993 l -1.8369701987210297e-16,-1.0 l -1.8369701987210297e-16,-1.0 l -0.8660254037844386,-0.5000000000000001 l -0.8660254037844389,0.49999999999999956 l -0.8660254037844386,-0.5000000000000001 l -0.8660254037844386,-0.5000000000000001 l 0.8660254037844384,-0.5000000000000004 l 0.866025403784439,0.4999999999999993 l -1.8369701987210297e-16,-1.0 l -0.8660254037844386,-0.5000000000000001 l -1.8369701987210297e-16,-1.0 l 0.8660254037844384,-0.5000000000000004 l 1.1943401194869635e-15,1.0 l 0.866025403784439,0.4999999999999993 l -1.8369701987210297e-16,-1.0 l -1.8369701987210297e-16,-1.0 l -0.8660254037844386,-0.5000000000000001 l -1.8369701987210297e-16,-1.0 l 0.8660254037844384,-0.5000000000000004 l 0.8660254037844384,-0.5000000000000004 l 1.1943401194869635e-15,1.0 l -0.8660254037844379,0.5000000000000013 l 0.866025403784439,0.4999999999999993 l 0.8660254037844384,-0.5000000000000004 l 0.866025403784439,0.4999999999999993 l 1.1943401194869635e-15,1.0 l 1.1943401194869635e-15,1.0 l -0.8660254037844392,-0.49999999999999917 l -4.286263797015736e-16,-1.0 l -0.8660254037844379,0.5000000000000013 l 1.1943401194869635e-15,1.0 l 0.866025403784439,0.4999999999999993 l 1.1943401194869635e-15,1.0 l -0.8660254037844392,-0.49999999999999917 l -0.8660254037844379,0.5000000000000013 l 0.866025403784439,0.4999999999999993 l 0.866025403784439,0.4999999999999993 l 0.8660254037844384,-0.5000000000000004 l -1.8369701987210297e-16,-1.0 l 0.8660254037844384,-0.5000000000000004 l 1.1943401194869635e-15,1.0 l 0.866025403784439,0.4999999999999993 l -1.8369701987210297e-16,-1.0 l -1.8369701987210297e-16,-1.0 l -0.8660254037844386,-0.5000000000000001 l -1.8369701987210297e-16,-1.0 l 0.8660254037844384,-0.5000000000000004 l 1.1943401194869635e-15,1.0 l 0.866025403784439,0.4999999999999993 l -1.8369701987210297e-16,-1.0 l -1.8369701987210297e-16,-1.0 l -0.8660254037844386,-0.5000000000000001 l -0.8660254037844389,0.49999999999999956 l -0.8660254037844386,-0.5000000000000001 l -0.8660254037844386,-0.5000000000000001 l 0.8660254037844384,-0.5000000000000004 l 0.866025403784439,0.4999999999999993 l -1.8369701987210297e-16,-1.0 l -0.8660254037844386,-0.5000000000000001 l -0.8660254037844389,0.49999999999999956 l -0.8660254037844386,-0.5000000000000001 l 0.8660254037844384,-0.5000000000000004 l -1.8369701987210297e-16,-1.0 l -0.8660254037844389,0.49999999999999956 l -0.8660254037844389,0.49999999999999956 l -6.049014748177263e-16,1.0 l -0.8660254037844389,0.49999999999999956 l -0.8660254037844386,-0.5000000000000001 l -0.8660254037844386,-0.5000000000000001 l 0.8660254037844384,-0.5000000000000004 l 0.866025403784439,0.4999999999999993 l -1.8369701987210297e-16,-1.0 l -0.8660254037844386,-0.5000000000000001 l -0.8660254037844389,0.49999999999999956 l -0.8660254037844386,-0.5000000000000001 l -0.8660254037844386,-0.5000000000000001 l 0.8660254037844384,-0.5000000000000004 l 0.866025403784439,0.4999999999999993 l -1.8369701987210297e-16,-1.0 l -0.8660254037844386,-0.5000000000000001 l -1.8369701987210297e-16,-1.0 l 0.8660254037844384,-0.5000000000000004 l 0.8660254037844384,-0.5000000000000004 l 1.1943401194869635e-15,1.0 l -0.8660254037844379,0.5000000000000013 l 0.866025403784439,0.4999999999999993 l 0.8660254037844384,-0.5000000000000004 l 0.866025403784439,0.4999999999999993 l 1.1943401194869635e-15,1.0 l -0.8660254037844392,-0.49999999999999917 l -0.8660254037844379,0.5000000000000013 l 0.866025403784439,0.4999999999999993 l 0.866025403784439,0.4999999999999993 l 0.8660254037844384,-0.5000000000000004 l -1.8369701987210297e-16,-1.0 l 0.8660254037844384,-0.5000000000000004 l 1.1943401194869635e-15,1.0 l 0.866025403784439,0.4999999999999993 l -1.8369701987210297e-16,-1.0 l -1.8369701987210297e-16,-1.0 l -0.8660254037844386,-0.5000000000000001 l -0.8660254037844389,0.49999999999999956 l -0.8660254037844386,-0.5000000000000001 l -0.8660254037844386,-0.5000000000000001 l 0.8660254037844384,-0.5000000000000004 l 0.866025403784439,0.4999999999999993 l -1.8369701987210297e-16,-1.0 l -0.8660254037844386,-0.5000000000000001 l -1.8369701987210297e-16,-1.0 l 0.8660254037844384,-0.5000000000000004 l 1.1943401194869635e-15,1.0 l 0.866025403784439,0.4999999999999993 l -1.8369701987210297e-16,-1.0 l -1.8369701987210297e-16,-1.0 l -0.8660254037844386,-0.5000000000000001 l -1.8369701987210297e-16,-1.0 l 0.8660254037844384,-0.5000000000000004 l 0.8660254037844384,-0.5000000000000004 l 1.1943401194869635e-15,1.0 l -0.8660254037844379,0.5000000000000013 l 0.866025403784439,0.4999999999999993 l 0.8660254037844384,-0.5000000000000004 l 0.866025403784439,0.4999999999999993 l 1.1943401194869635e-15,1.0 l 1.1943401194869635e-15,1.0 l -0.8660254037844392,-0.49999999999999917 l -4.286263797015736e-16,-1.0 l -0.8660254037844379,0.5000000000000013 l 1.1943401194869635e-15,1.0 l 0.866025403784439,0.4999999999999993 l 1.1943401194869635e-15,1.0 l -0.8660254037844392,-0.49999999999999917 l -0.8660254037844379,0.5000000000000013 l 0.866025403784439,0.4999999999999993 l 0.866025403784439,0.4999999999999993 l 0.8660254037844384,-0.5000000000000004 l -1.8369701987210297e-16,-1.0 l 0.8660254037844384,-0.5000000000000004 l 1.1943401194869635e-15,1.0 l 0.866025403784439,0.4999999999999993 l -1.8369701987210297e-16,-1.0 l -1.8369701987210297e-16,-1.0 l -0.8660254037844386,-0.5000000000000001 l -1.8369701987210297e-16,-1.0 l 0.8660254037844384,-0.5000000000000004 l 1.1943401194869635e-15,1.0 l 0.866025403784439,0.4999999999999993 l -1.8369701987210297e-16,-1.0 l -1.8369701987210297e-16,-1.0 l -0.8660254037844386,-0.5000000000000001 l -0.8660254037844389,0.49999999999999956 l -0.8660254037844386,-0.5000000000000001 l -0.8660254037844386,-0.5000000000000001 l 0.8660254037844384,-0.5000000000000004 l 0.866025403784439,0.4999999999999993 l -1.8369701987210297e-16,-1.0 l -0.8660254037844386,-0.5000000000000001 l -1.8369701987210297e-16,-1.0 l 0.8660254037844384,-0.5000000000000004 l 1.1943401194869635e-15,1.0 l 0.866025403784439,0.4999999999999993 l -1.8369701987210297e-16,-1.0 l -1.8369701987210297e-16,-1.0 l -0.8660254037844386,-0.5000000000000001 l -1.8369701987210297e-16,-1.0 l 0.8660254037844384,-0.5000000000000004 l 0.8660254037844384,-0.5000000000000004 l 1.1943401194869635e-15,1.0 l -0.8660254037844379,0.5000000000000013 l 0.866025403784439,0.4999999999999993 l 0.8660254037844384,-0.5000000000000004 l -1.8369701987210297e-16,-1.0 l 0.8660254037844384,-0.5000000000000004 l 0.8660254037844384,-0.5000000000000004 l 1.1943401194869635e-15,1.0 l -0.8660254037844379,0.5000000000000013 l 0.866025403784439,0.4999999999999993 l 0.8660254037844384,-0.5000000000000004 l 0.866025403784439,0.4999999999999993 l 1.1943401194869635e-15,1.0 l 1.1943401194869635e-15,1.0 l -0.8660254037844392,-0.49999999999999917 l -4.286263797015736e-16,-1.0 l -0.8660254037844379,0.5000000000000013 l 1.1943401194869635e-15,1.0 l -0.8660254037844379,0.5000000000000013 l -0.8660254037844392,-0.49999999999999917 l 0.8660254037844387,-0.4999999999999999 l -4.286263797015736e-16,-1.0 l -0.8660254037844379,0.5000000000000013 l -0.8660254037844379,0.5000000000000013 l 1.1943401194869635e-15,1.0 l 0.866025403784439,0.4999999999999993 l 1.1943401194869635e-15,1.0 l -0.8660254037844392,-0.49999999999999917 l -0.8660254037844379,0.5000000000000013 l 0.866025403784439,0.4999999999999993 l 0.866025403784439,0.4999999999999993 l 0.8660254037844384,-0.5000000000000004 l -1.8369701987210297e-16,-1.0 l 0.8660254037844384,-0.5000000000000004 l 0.8660254037844384,-0.5000000000000004 l 1.1943401194869635e-15,1.0 l -0.8660254037844379,0.5000000000000013 l 0.866025403784439,0.4999999999999993 l 0.8660254037844384,-0.5000000000000004 l -1.8369701987210297e-16,-1.0 l 0.8660254037844384,-0.5000000000000004 l 1.1943401194869635e-15,1.0 l 0.866025403784439,0.4999999999999993 l -1.8369701987210297e-16,-1.0 l -1.8369701987210297e-16,-1.0 l -0.8660254037844386,-0.5000000000000001 l -1.8369701987210297e-16,-1.0 l 0.8660254037844384,-0.5000000000000004 l 0.8660254037844384,-0.5000000000000004 l 1.1943401194869635e-15,1.0 l -0.8660254037844379,0.5000000000000013 l 0.866025403784439,0.4999999999999993 l 0.8660254037844384,-0.5000000000000004 l -1.8369701987210297e-16,-1.0 l 0.8660254037844384,-0.5000000000000004 l 0.8660254037844384,-0.5000000000000004 l 1.1943401194869635e-15,1.0 l -0.8660254037844379,0.5000000000000013 l 0.866025403784439,0.4999999999999993 l 0.8660254037844384,-0.5000000000000004 l 0.866025403784439,0.4999999999999993 l 1.1943401194869635e-15,1.0 l 1.1943401194869635e-15,1.0 l -0.8660254037844392,-0.49999999999999917 l -4.286263797015736e-16,-1.0 l -0.8660254037844379,0.5000000000000013 l 1.1943401194869635e-15,1.0 l -0.8660254037844379,0.5000000000000013 l -0.8660254037844392,-0.49999999999999917 l 0.8660254037844387,-0.4999999999999999 l -4.286263797015736e-16,-1.0 l -0.8660254037844379,0.5000000000000013 l -0.8660254037844379,0.5000000000000013 l 1.1943401194869635e-15,1.0 l 0.866025403784439,0.4999999999999993 l 1.1943401194869635e-15,1.0 l -0.8660254037844392,-0.49999999999999917 l -0.8660254037844379,0.5000000000000013 l 0.866025403784439,0.4999999999999993 l 0.866025403784439,0.4999999999999993 l 0.8660254037844384,-0.5000000000000004 l -1.8369701987210297e-16,-1.0 l 0.8660254037844384,-0.5000000000000004 l 0.8660254037844384,-0.5000000000000004 l 1.1943401194869635e-15,1.0 l -0.8660254037844379,0.5000000000000013 l 0.866025403784439,0.4999999999999993 l 0.8660254037844384,-0.5000000000000004 l 0.866025403784439,0.4999999999999993 l 1.1943401194869635e-15,1.0 l -0.8660254037844392,-0.49999999999999917 l -0.8660254037844379,0.5000000000000013 l 0.866025403784439,0.4999999999999993 l 0.866025403784439,0.4999999999999993 l 0.8660254037844384,-0.5000000000000004 l 0.866025403784439,0.4999999999999993 l 1.1943401194869635e-15,1.0 l 1.1943401194869635e-15,1.0 l -0.8660254037844392,-0.49999999999999917 l -4.286263797015736e-16,-1.0 l -0.8660254037844379,0.5000000000000013 l 1.1943401194869635e-15,1.0 l 0.866025403784439,0.4999999999999993 l 1.1943401194869635e-15,1.0 l 1.1943401194869635e-15,1.0 l -0.8660254037844392,-0.49999999999999917 l -4.286263797015736e-16,-1.0 l -0.8660254037844379,0.5000000000000013 l 1.1943401194869635e-15,1.0 l -0.8660254037844379,0.5000000000000013 l -0.8660254037844392,-0.49999999999999917 l -0.8660254037844392,-0.49999999999999917 l 0.8660254037844387,-0.4999999999999999 l 0.8660254037844383,0.5000000000000006 l -4.286263797015736e-16,-1.0 l -0.8660254037844392,-0.49999999999999917 l -4.286263797015736e-16,-1.0 l 0.8660254037844387,-0.4999999999999999 l -1.2252657797839415e-15,1.0 l 0.8660254037844383,0.5000000000000006 l -4.286263797015736e-16,-1.0 l -4.286263797015736e-16,-1.0 l -0.8660254037844392,-0.49999999999999917 l -0.8660254037844379,0.5000000000000013 l -0.8660254037844392,-0.49999999999999917 l 0.8660254037844387,-0.4999999999999999 l -4.286263797015736e-16,-1.0 l -0.8660254037844379,0.5000000000000013 l -0.8660254037844379,0.5000000000000013 l 1.1943401194869635e-15,1.0 l 0.866025403784439,0.4999999999999993 l 1.1943401194869635e-15,1.0 l 1.1943401194869635e-15,1.0 l -0.8660254037844392,-0.49999999999999917 l -4.286263797015736e-16,-1.0 l -0.8660254037844379,0.5000000000000013 l 1.1943401194869635e-15,1.0 l -0.8660254037844379,0.5000000000000013 l -0.8660254037844392,-0.49999999999999917 l 0.8660254037844387,-0.4999999999999999 l -4.286263797015736e-16,-1.0 l -0.8660254037844379,0.5000000000000013 l -0.8660254037844379,0.5000000000000013 l 1.1943401194869635e-15,1.0 l -0.8660254037844379,0.5000000000000013 l -0.8660254037844392,-0.49999999999999917 l -0.8660254037844392,-0.49999999999999917 l 0.8660254037844387,-0.4999999999999999 l 0.8660254037844383,0.5000000000000006 l -4.286263797015736e-16,-1.0 l -0.8660254037844392,-0.49999999999999917 l -4.286263797015736e-16,-1.0 l 0.8660254037844387,-0.4999999999999999 l 0.8660254037844387,-0.4999999999999999 l -1.2252657797839415e-15,1.0 l -0.8660254037844395,0.49999999999999845 l 0.8660254037844383,0.5000000000000006 l 0.8660254037844387,-0.4999999999999999 l -4.286263797015736e-16,-1.0 l 0.8660254037844387,-0.4999999999999999 l -1.2252657797839415e-15,1.0 l 0.8660254037844383,0.5000000000000006 l -4.286263797015736e-16,-1.0 l -4.286263797015736e-16,-1.0 l -0.8660254037844392,-0.49999999999999917 l -0.8660254037844379,0.5000000000000013 l -0.8660254037844392,-0.49999999999999917 l 0.8660254037844387,-0.4999999999999999 l -4.286263797015736e-16,-1.0 l -0.8660254037844379,0.5000000000000013 l -0.8660254037844379,0.5000000000000013 l 1.1943401194869635e-15,1.0 l -0.8660254037844379,0.5000000000000013 l -0.8660254037844392,-0.49999999999999917 l 0.8660254037844387,-0.4999999999999999 l -4.286263797015736e-16,-1.0 l -0.8660254037844379,0.5000000000000013 l -0.8660254037844379,0.5000000000000013 l 1.1943401194869635e-15,1.0 l 0.866025403784439,0.4999999999999993 l 1.1943401194869635e-15,1.0 l 1.1943401194869635e-15,1.0 l -0.8660254037844392,-0.49999999999999917 l -4.286263797015736e-16,-1.0 l -0.8660254037844379,0.5000000000000013 l 1.1943401194869635e-15,1.0 l 0.866025403784439,0.4999999999999993 l 1.1943401194869635e-15,1.0 l -0.8660254037844392,-0.49999999999999917 l -0.8660254037844379,0.5000000000000013 l 0.866025403784439,0.4999999999999993 l 0.866025403784439,0.4999999999999993 l 0.8660254037844384,-0.5000000000000004 l 0.866025403784439,0.4999999999999993 l 1.1943401194869635e-15,1.0 l 1.1943401194869635e-15,1.0 l -0.8660254037844392,-0.49999999999999917 l -4.286263797015736e-16,-1.0 l -0.8660254037844379,0.5000000000000013 l 1.1943401194869635e-15,1.0 l -0.8660254037844379,0.5000000000000013 l -0.8660254037844392,-0.49999999999999917 l -0.8660254037844392,-0.49999999999999917 l 0.8660254037844387,-0.4999999999999999 l 0.8660254037844383,0.5000000000000006 l -4.286263797015736e-16,-1.0 l -0.8660254037844392,-0.49999999999999917 l -0.8660254037844379,0.5000000000000013 l -0.8660254037844392,-0.49999999999999917 l 0.8660254037844387,-0.4999999999999999 l -4.286263797015736e-16,-1.0 l -0.8660254037844379,0.5000000000000013 l -0.8660254037844379,0.5000000000000013 l 1.1943401194869635e-15,1.0 l 0.866025403784439,0.4999999999999993 l 1.1943401194869635e-15,1.0 l -0.8660254037844392,-0.49999999999999917 l -0.8660254037844379,0.5000000000000013 l 0.866025403784439,0.4999999999999993 l 0.866025403784439,0.4999999999999993 l 0.8660254037844384,-0.5000000000000004 l 0.866025403784439,0.4999999999999993 l 1.1943401194869635e-15,1.0 l -0.8660254037844392,-0.49999999999999917 l -0.8660254037844379,0.5000000000000013 l 0.866025403784439,0.4999999999999993 l 0.866025403784439,0.4999999999999993 l 0.8660254037844384,-0.5000000000000004 l -1.8369701987210297e-16,-1.0 l 0.8660254037844384,-0.5000000000000004 l 0.8660254037844384,-0.5000000000000004 l 1.1943401194869635e-15,1.0 l -0.8660254037844379,0.5000000000000013 l 0.866025403784439,0.4999999999999993 l 0.8660254037844384,-0.5000000000000004 l -1.8369701987210297e-16,-1.0 l 0.8660254037844384,-0.5000000000000004 l 1.1943401194869635e-15,1.0 l 0.866025403784439,0.4999999999999993 l -1.8369701987210297e-16,-1.0 l -1.8369701987210297e-16,-1.0 l -0.8660254037844386,-0.5000000000000001 l -1.8369701987210297e-16,-1.0 l 0.8660254037844384,-0.5000000000000004 l 0.8660254037844384,-0.5000000000000004 l 1.1943401194869635e-15,1.0 l -0.8660254037844379,0.5000000000000013 l 0.866025403784439,0.4999999999999993 l 0.8660254037844384,-0.5000000000000004 l -1.8369701987210297e-16,-1.0 l 0.8660254037844384,-0.5000000000000004 l 0.8660254037844384,-0.5000000000000004 l 1.1943401194869635e-15,1.0 l -0.8660254037844379,0.5000000000000013 l 0.866025403784439,0.4999999999999993 l 0.8660254037844384,-0.5000000000000004 l 0.866025403784439,0.4999999999999993 l 1.1943401194869635e-15,1.0 l 1.1943401194869635e-15,1.0 l -0.8660254037844392,-0.49999999999999917 l -4.286263797015736e-16,-1.0 l -0.8660254037844379,0.5000000000000013 l 1.1943401194869635e-15,1.0 l -0.8660254037844379,0.5000000000000013 l -0.8660254037844392,-0.49999999999999917 l 0.8660254037844387,-0.4999999999999999 l -4.286263797015736e-16,-1.0 l -0.8660254037844379,0.5000000000000013 l -0.8660254037844379,0.5000000000000013 l 1.1943401194869635e-15,1.0 l 0.866025403784439,0.4999999999999993 l 1.1943401194869635e-15,1.0 l -0.8660254037844392,-0.49999999999999917 l -0.8660254037844379,0.5000000000000013 l 0.866025403784439,0.4999999999999993 l 0.866025403784439,0.4999999999999993 l 0.8660254037844384,-0.5000000000000004 l -1.8369701987210297e-16,-1.0 l 0.8660254037844384,-0.5000000000000004 l 0.8660254037844384,-0.5000000000000004 l 1.1943401194869635e-15,1.0 l -0.8660254037844379,0.5000000000000013 l 0.866025403784439,0.4999999999999993 l 0.8660254037844384,-0.5000000000000004 l 0.866025403784439,0.4999999999999993 l 1.1943401194869635e-15,1.0 l -0.8660254037844392,-0.49999999999999917 l -0.8660254037844379,0.5000000000000013 l 0.866025403784439,0.4999999999999993 l 0.866025403784439,0.4999999999999993 l 0.8660254037844384,-0.5000000000000004 l 0.866025403784439,0.4999999999999993 l 1.1943401194869635e-15,1.0 l 1.1943401194869635e-15,1.0 l -0.8660254037844392,-0.49999999999999917 l -4.286263797015736e-16,-1.0 l -0.8660254037844379,0.5000000000000013 l 1.1943401194869635e-15,1.0 l -0.8660254037844379,0.5000000000000013 l -0.8660254037844392,-0.49999999999999917 l -0.8660254037844392,-0.49999999999999917 l 0.8660254037844387,-0.4999999999999999 l 0.8660254037844383,0.5000000000000006 l -4.286263797015736e-16,-1.0 l -0.8660254037844392,-0.49999999999999917 l -0.8660254037844379,0.5000000000000013 l -0.8660254037844392,-0.49999999999999917 l 0.8660254037844387,-0.4999999999999999 l -4.286263797015736e-16,-1.0 l -0.8660254037844379,0.5000000000000013 l -0.8660254037844379,0.5000000000000013 l 1.1943401194869635e-15,1.0 l 0.866025403784439,0.4999999999999993 l 1.1943401194869635e-15,1.0 l -0.8660254037844392,-0.49999999999999917 l -0.8660254037844379,0.5000000000000013 l 0.866025403784439,0.4999999999999993 l 0.866025403784439,0.4999999999999993 l 0.8660254037844384,-0.5000000000000004 l 0.866025403784439,0.4999999999999993 l 1.1943401194869635e-15,1.0 l -0.8660254037844392,-0.49999999999999917 l -0.8660254037844379,0.5000000000000013 l 0.866025403784439,0.4999999999999993 l 0.866025403784439,0.4999999999999993 l 0.8660254037844384,-0.5000000000000004 l -1.8369701987210297e-16,-1.0 l 0.8660254037844384,-0.5000000000000004 l 0.8660254037844384,-0.5000000000000004 l 1.1943401194869635e-15,1.0 l -0.8660254037844379,0.5000000000000013 l 0.866025403784439,0.4999999999999993 l 0.8660254037844384,-0.5000000000000004 l 0.866025403784439,0.4999999999999993 l 1.1943401194869635e-15,1.0 l -0.8660254037844392,-0.49999999999999917 l -0.8660254037844379,0.5000000000000013 l 0.866025403784439,0.4999999999999993 l 0.866025403784439,0.4999999999999993 l 0.8660254037844384,-0.5000000000000004 l 0.866025403784439,0.4999999999999993 l 1.1943401194869635e-15,1.0 l 1.1943401194869635e-15,1.0 l -0.8660254037844392,-0.49999999999999917 l -4.286263797015736e-16,-1.0 l -0.8660254037844379,0.5000000000000013 l 1.1943401194869635e-15,1.0 l 0.866025403784439,0.4999999999999993 l 1.1943401194869635e-15,1.0 l 1.1943401194869635e-15,1.0 l -0.8660254037844392,-0.49999999999999917 l -4.286263797015736e-16,-1.0 l -0.8660254037844379,0.5000000000000013 l 1.1943401194869635e-15,1.0 l -0.8660254037844379,0.5000000000000013 l -0.8660254037844392,-0.49999999999999917 l -0.8660254037844392,-0.49999999999999917 l 0.8660254037844387,-0.4999999999999999 l 0.8660254037844383,0.5000000000000006 l -4.286263797015736e-16,-1.0 l -0.8660254037844392,-0.49999999999999917 l -4.286263797015736e-16,-1.0 l 0.8660254037844387,-0.4999999999999999 l -1.2252657797839415e-15,1.0 l 0.8660254037844383,0.5000000000000006 l -4.286263797015736e-16,-1.0 l -4.286263797015736e-16,-1.0 l -0.8660254037844392,-0.49999999999999917 l -0.8660254037844379,0.5000000000000013 l -0.8660254037844392,-0.49999999999999917 l 0.8660254037844387,-0.4999999999999999 l -4.286263797015736e-16,-1.0 l -0.8660254037844379,0.5000000000000013 l -0.8660254037844379,0.5000000000000013 l 1.1943401194869635e-15,1.0 l 0.866025403784439,0.4999999999999993 l 1.1943401194869635e-15,1.0 l 1.1943401194869635e-15,1.0 l -0.8660254037844392,-0.49999999999999917 l -4.286263797015736e-16,-1.0 l -0.8660254037844379,0.5000000000000013 l 1.1943401194869635e-15,1.0 l 0.866025403784439,0.4999999999999993 l 1.1943401194869635e-15,1.0 l -0.8660254037844392,-0.49999999999999917 l -0.8660254037844379,0.5000000000000013 l 0.866025403784439,0.4999999999999993 l 0.866025403784439,0.4999999999999993 l 0.8660254037844384,-0.5000000000000004 l 0.866025403784439,0.4999999999999993 l 1.1943401194869635e-15,1.0 l 1.1943401194869635e-15,1.0 l -0.8660254037844392,-0.49999999999999917 l -4.286263797015736e-16,-1.0 l -0.8660254037844379,0.5000000000000013 l 1.1943401194869635e-15,1.0 l 0.866025403784439,0.4999999999999993 l 1.1943401194869635e-15,1.0 l 1.1943401194869635e-15,1.0 l -0.8660254037844392,-0.49999999999999917 l -4.286263797015736e-16,-1.0 l -0.8660254037844379,0.5000000000000013 l 1.1943401194869635e-15,1.0 l -0.8660254037844379,0.5000000000000013 l -0.8660254037844392,-0.49999999999999917 l -0.8660254037844392,-0.49999999999999917 l 0.8660254037844387,-0.4999999999999999 l 0.8660254037844383,0.5000000000000006 l -4.286263797015736e-16,-1.0 l -0.8660254037844392,-0.49999999999999917 l -4.286263797015736e-16,-1.0 l 0.8660254037844387,-0.4999999999999999 l -1.2252657797839415e-15,1.0 l 0.8660254037844383,0.5000000000000006 l -4.286263797015736e-16,-1.0 l -4.286263797015736e-16,-1.0 l -0.8660254037844392,-0.49999999999999917 l -0.8660254037844379,0.5000000000000013 l -0.8660254037844392,-0.49999999999999917 l 0.8660254037844387,-0.4999999999999999 l -4.286263797015736e-16,-1.0 l -0.8660254037844379,0.5000000000000013 l -0.8660254037844379,0.5000000000000013 l 1.1943401194869635e-15,1.0 l 0.866025403784439,0.4999999999999993 l 1.1943401194869635e-15,1.0 l 1.1943401194869635e-15,1.0 l -0.8660254037844392,-0.49999999999999917 l -4.286263797015736e-16,-1.0 l -0.8660254037844379,0.5000000000000013 l 1.1943401194869635e-15,1.0 l -0.8660254037844379,0.5000000000000013 l -0.8660254037844392,-0.49999999999999917 l 0.8660254037844387,-0.4999999999999999 l -4.286263797015736e-16,-1.0 l -0.8660254037844379,0.5000000000000013 l -0.8660254037844379,0.5000000000000013 l 1.1943401194869635e-15,1.0 l -0.8660254037844379,0.5000000000000013 l -0.8660254037844392,-0.49999999999999917 l -0.8660254037844392,-0.49999999999999917 l 0.8660254037844387,-0.4999999999999999 l 0.8660254037844383,0.5000000000000006 l -4.286263797015736e-16,-1.0 l -0.8660254037844392,-0.49999999999999917 l -0.8660254037844379,0.5000000000000013 l -0.8660254037844392,-0.49999999999999917 l -0.8660254037844392,-0.49999999999999917 l 0.8660254037844387,-0.4999999999999999 l 0.8660254037844383,0.5000000000000006 l -4.286263797015736e-16,-1.0 l -0.8660254037844392,-0.49999999999999917 l -4.286263797015736e-16,-1.0 l 0.8660254037844387,-0.4999999999999999 l 0.8660254037844387,-0.4999999999999999 l -1.2252657797839415e-15,1.0 l -0.8660254037844395,0.49999999999999845 l 0.8660254037844383,0.5000000000000006 l 0.8660254037844387,-0.4999999999999999 l 0.8660254037844383,0.5000000000000006 l -1.2252657797839415e-15,1.0 l -0.8660254037844375,-0.500000000000002 l -0.8660254037844395,0.49999999999999845 l 0.8660254037844383,0.5000000000000006 l 0.8660254037844383,0.5000000000000006 l 0.8660254037844387,-0.4999999999999999 l -4.286263797015736e-16,-1.0 l 0.8660254037844387,-0.4999999999999999 l -1.2252657797839415e-15,1.0 l 0.8660254037844383,0.5000000000000006 l -4.286263797015736e-16,-1.0 l -4.286263797015736e-16,-1.0 l -0.8660254037844392,-0.49999999999999917 l -0.8660254037844379,0.5000000000000013 l -0.8660254037844392,-0.49999999999999917 l -0.8660254037844392,-0.49999999999999917 l 0.8660254037844387,-0.4999999999999999 l 0.8660254037844383,0.5000000000000006 l -4.286263797015736e-16,-1.0 l -0.8660254037844392,-0.49999999999999917 l -4.286263797015736e-16,-1.0 l 0.8660254037844387,-0.4999999999999999 l -1.2252657797839415e-15,1.0 l 0.8660254037844383,0.5000000000000006 l -4.286263797015736e-16,-1.0 l -4.286263797015736e-16,-1.0 l -0.8660254037844392,-0.49999999999999917 l -4.286263797015736e-16,-1.0 l 0.8660254037844387,-0.4999999999999999 l 0.8660254037844387,-0.4999999999999999 l -1.2252657797839415e-15,1.0 l -0.8660254037844395,0.49999999999999845 l 0.8660254037844383,0.5000000000000006 l 0.8660254037844387,-0.4999999999999999 l 0.8660254037844383,0.5000000000000006 l -1.2252657797839415e-15,1.0 l -1.2252657797839415e-15,1.0 l -0.8660254037844375,-0.500000000000002 l 1.1028010998692062e-15,-1.0 l -0.8660254037844395,0.49999999999999845 l -1.2252657797839415e-15,1.0 l 0.8660254037844383,0.5000000000000006 l -1.2252657797839415e-15,1.0 l -0.8660254037844375,-0.500000000000002 l -0.8660254037844395,0.49999999999999845 l 0.8660254037844383,0.5000000000000006 l 0.8660254037844383,0.5000000000000006 l 0.8660254037844387,-0.4999999999999999 l -4.286263797015736e-16,-1.0 l 0.8660254037844387,-0.4999999999999999 l -1.2252657797839415e-15,1.0 l 0.8660254037844383,0.5000000000000006 l -4.286263797015736e-16,-1.0 l -4.286263797015736e-16,-1.0 l -0.8660254037844392,-0.49999999999999917 l -4.286263797015736e-16,-1.0 l 0.8660254037844387,-0.4999999999999999 l -1.2252657797839415e-15,1.0 l 0.8660254037844383,0.5000000000000006 l -4.286263797015736e-16,-1.0 l -4.286263797015736e-16,-1.0 l -0.8660254037844392,-0.49999999999999917 l -0.8660254037844379,0.5000000000000013 l -0.8660254037844392,-0.49999999999999917 l -0.8660254037844392,-0.49999999999999917 l 0.8660254037844387,-0.4999999999999999 l 0.8660254037844383,0.5000000000000006 l -4.286263797015736e-16,-1.0 l -0.8660254037844392,-0.49999999999999917 l -0.8660254037844379,0.5000000000000013 l -0.8660254037844392,-0.49999999999999917 l 0.8660254037844387,-0.4999999999999999 l -4.286263797015736e-16,-1.0 l -0.8660254037844379,0.5000000000000013 l -0.8660254037844379,0.5000000000000013 l 1.1943401194869635e-15,1.0 l -0.8660254037844379,0.5000000000000013 l -0.8660254037844392,-0.49999999999999917 l -0.8660254037844392,-0.49999999999999917 l 0.8660254037844387,-0.4999999999999999 l 0.8660254037844383,0.5000000000000006 l -4.286263797015736e-16,-1.0 l -0.8660254037844392,-0.49999999999999917 l -4.286263797015736e-16,-1.0 l 0.8660254037844387,-0.4999999999999999 l 0.8660254037844387,-0.4999999999999999 l -1.2252657797839415e-15,1.0 l -0.8660254037844395,0.49999999999999845 l 0.8660254037844383,0.5000000000000006 l 0.8660254037844387,-0.4999999999999999 l -4.286263797015736e-16,-1.0 l 0.8660254037844387,-0.4999999999999999 l -1.2252657797839415e-15,1.0 l 0.8660254037844383,0.5000000000000006 l -4.286263797015736e-16,-1.0 l -4.286263797015736e-16,-1.0 l -0.8660254037844392,-0.49999999999999917 l -0.8660254037844379,0.5000000000000013 l -0.8660254037844392,-0.49999999999999917 l 0.8660254037844387,-0.4999999999999999 l -4.286263797015736e-16,-1.0 l -0.8660254037844379,0.5000000000000013 l -0.8660254037844379,0.5000000000000013 l 1.1943401194869635e-15,1.0 l -0.8660254037844379,0.5000000000000013 l -0.8660254037844392,-0.49999999999999917 l 0.8660254037844387,-0.4999999999999999 l -4.286263797015736e-16,-1.0 l -0.8660254037844379,0.5000000000000013 l -0.8660254037844379,0.5000000000000013 l 1.1943401194869635e-15,1.0 l 0.866025403784439,0.4999999999999993 l 1.1943401194869635e-15,1.0 l 1.1943401194869635e-15,1.0 l -0.8660254037844392,-0.49999999999999917 l -4.286263797015736e-16,-1.0 l -0.8660254037844379,0.5000000000000013 l 1.1943401194869635e-15,1.0 l 0.866025403784439,0.4999999999999993 l 1.1943401194869635e-15,1.0 l -0.8660254037844392,-0.49999999999999917 l -0.8660254037844379,0.5000000000000013 l 0.866025403784439,0.4999999999999993 l 0.866025403784439,0.4999999999999993 l 0.8660254037844384,-0.5000000000000004 l 0.866025403784439,0.4999999999999993 l 1.1943401194869635e-15,1.0 l 1.1943401194869635e-15,1.0 l -0.8660254037844392,-0.49999999999999917 l -4.286263797015736e-16,-1.0 l -0.8660254037844379,0.5000000000000013 l 1.1943401194869635e-15,1.0 l 0.866025403784439,0.4999999999999993 l 1.1943401194869635e-15,1.0 l 1.1943401194869635e-15,1.0 l -0.8660254037844392,-0.49999999999999917 l -4.286263797015736e-16,-1.0 l -0.8660254037844379,0.5000000000000013 l 1.1943401194869635e-15,1.0 l -0.8660254037844379,0.5000000000000013 l -0.8660254037844392,-0.49999999999999917 l -0.8660254037844392,-0.49999999999999917 l 0.8660254037844387,-0.4999999999999999 l 0.8660254037844383,0.5000000000000006 l -4.286263797015736e-16,-1.0 l -0.8660254037844392,-0.49999999999999917 l -4.286263797015736e-16,-1.0 l 0.8660254037844387,-0.4999999999999999 l -1.2252657797839415e-15,1.0 l 0.8660254037844383,0.5000000000000006 l -4.286263797015736e-16,-1.0 l -4.286263797015736e-16,-1.0 l -0.8660254037844392,-0.49999999999999917 l -0.8660254037844379,0.5000000000000013 l -0.8660254037844392,-0.49999999999999917 l 0.8660254037844387,-0.4999999999999999 l -4.286263797015736e-16,-1.0 l -0.8660254037844379,0.5000000000000013 l -0.8660254037844379,0.5000000000000013 l 1.1943401194869635e-15,1.0 l 0.866025403784439,0.4999999999999993 l 1.1943401194869635e-15,1.0 l 1.1943401194869635e-15,1.0 l -0.8660254037844392,-0.49999999999999917 l -4.286263797015736e-16,-1.0 l -0.8660254037844379,0.5000000000000013 l 1.1943401194869635e-15,1.0 l 0.866025403784439,0.4999999999999993 l 1.1943401194869635e-15,1.0 l -0.8660254037844392,-0.49999999999999917 l -0.8660254037844379,0.5000000000000013 l 0.866025403784439,0.4999999999999993 l 0.866025403784439,0.4999999999999993 l 0.8660254037844384,-0.5000000000000004 l 0.866025403784439,0.4999999999999993 l 1.1943401194869635e-15,1.0 l 1.1943401194869635e-15,1.0 l -0.8660254037844392,-0.49999999999999917 l -4.286263797015736e-16,-1.0 l -0.8660254037844379,0.5000000000000013 l 1.1943401194869635e-15,1.0 l -0.8660254037844379,0.5000000000000013 l -0.8660254037844392,-0.49999999999999917 l -0.8660254037844392,-0.49999999999999917 l 0.8660254037844387,-0.4999999999999999 l 0.8660254037844383,0.5000000000000006 l -4.286263797015736e-16,-1.0 l -0.8660254037844392,-0.49999999999999917 l -0.8660254037844379,0.5000000000000013 l -0.8660254037844392,-0.49999999999999917 l 0.8660254037844387,-0.4999999999999999 l -4.286263797015736e-16,-1.0 l -0.8660254037844379,0.5000000000000013 l -0.8660254037844379,0.5000000000000013 l 1.1943401194869635e-15,1.0 l 0.866025403784439,0.4999999999999993 l 1.1943401194869635e-15,1.0 l -0.8660254037844392,-0.49999999999999917 l -0.8660254037844379,0.5000000000000013 l 0.866025403784439,0.4999999999999993 l 0.866025403784439,0.4999999999999993 l 0.8660254037844384,-0.5000000000000004 l 0.866025403784439,0.4999999999999993 l 1.1943401194869635e-15,1.0 l -0.8660254037844392,-0.49999999999999917 l -0.8660254037844379,0.5000000000000013 l 0.866025403784439,0.4999999999999993 l 0.866025403784439,0.4999999999999993 l 0.8660254037844384,-0.5000000000000004 l -1.8369701987210297e-16,-1.0 l 0.8660254037844384,-0.5000000000000004 l 0.8660254037844384,-0.5000000000000004 l 1.1943401194869635e-15,1.0 l -0.8660254037844379,0.5000000000000013 l 0.866025403784439,0.4999999999999993 l 0.8660254037844384,-0.5000000000000004 l 0.866025403784439,0.4999999999999993 l 1.1943401194869635e-15,1.0 l -0.8660254037844392,-0.49999999999999917 l -0.8660254037844379,0.5000000000000013 l 0.866025403784439,0.4999999999999993 l 0.866025403784439,0.4999999999999993 l 0.8660254037844384,-0.5000000000000004 l 0.866025403784439,0.4999999999999993 l 1.1943401194869635e-15,1.0 l 1.1943401194869635e-15,1.0 l -0.8660254037844392,-0.49999999999999917 l -4.286263797015736e-16,-1.0 l -0.8660254037844379,0.5000000000000013 l 1.1943401194869635e-15,1.0 l 0.866025403784439,0.4999999999999993 l 1.1943401194869635e-15,1.0 l 1.1943401194869635e-15,1.0 l -0.8660254037844392,-0.49999999999999917 l -4.286263797015736e-16,-1.0 l -0.8660254037844379,0.5000000000000013 l 1.1943401194869635e-15,1.0 l -0.8660254037844379,0.5000000000000013 l -0.8660254037844392,-0.49999999999999917 l -0.8660254037844392,-0.49999999999999917 l 0.8660254037844387,-0.4999999999999999 l 0.8660254037844383,0.5000000000000006 l -4.286263797015736e-16,-1.0 l -0.8660254037844392,-0.49999999999999917 l -4.286263797015736e-16,-1.0 l 0.8660254037844387,-0.4999999999999999 l -1.2252657797839415e-15,1.0 l 0.8660254037844383,0.5000000000000006 l -4.286263797015736e-16,-1.0 l -4.286263797015736e-16,-1.0 l -0.8660254037844392,-0.49999999999999917 l -0.8660254037844379,0.5000000000000013 l -0.8660254037844392,-0.49999999999999917 l 0.8660254037844387,-0.4999999999999999 l -4.286263797015736e-16,-1.0 l -0.8660254037844379,0.5000000000000013 l -0.8660254037844379,0.5000000000000013 l 1.1943401194869635e-15,1.0 l 0.866025403784439,0.4999999999999993 l 1.1943401194869635e-15,1.0 l 1.1943401194869635e-15,1.0 l -0.8660254037844392,-0.49999999999999917 l -4.286263797015736e-16,-1.0 l -0.8660254037844379,0.5000000000000013 l 1.1943401194869635e-15,1.0 l -0.8660254037844379,0.5000000000000013 l -0.8660254037844392,-0.49999999999999917 l 0.8660254037844387,-0.4999999999999999 l -4.286263797015736e-16,-1.0 l -0.8660254037844379,0.5000000000000013 l -0.8660254037844379,0.5000000000000013 l 1.1943401194869635e-15,1.0 l -0.8660254037844379,0.5000000000000013 l -0.8660254037844392,-0.49999999999999917 l -0.8660254037844392,-0.49999999999999917 l 0.8660254037844387,-0.4999999999999999 l 0.8660254037844383,0.5000000000000006 l -4.286263797015736e-16,-1.0 l -0.8660254037844392,-0.49999999999999917 l -0.8660254037844379,0.5000000000000013 l -0.8660254037844392,-0.49999999999999917 l -0.8660254037844392,-0.49999999999999917 l 0.8660254037844387,-0.4999999999999999 l 0.8660254037844383,0.5000000000000006 l -4.286263797015736e-16,-1.0 l -0.8660254037844392,-0.49999999999999917 l -4.286263797015736e-16,-1.0 l 0.8660254037844387,-0.4999999999999999 l 0.8660254037844387,-0.4999999999999999 l -1.2252657797839415e-15,1.0 l -0.8660254037844395,0.49999999999999845 l 0.8660254037844383,0.5000000000000006 l 0.8660254037844387,-0.4999999999999999 l 0.8660254037844383,0.5000000000000006 l -1.2252657797839415e-15,1.0 l -0.8660254037844375,-0.500000000000002 l -0.8660254037844395,0.49999999999999845 l 0.8660254037844383,0.5000000000000006 l 0.8660254037844383,0.5000000000000006 l 0.8660254037844387,-0.4999999999999999 l -4.286263797015736e-16,-1.0 l 0.8660254037844387,-0.4999999999999999 l -1.2252657797839415e-15,1.0 l 0.8660254037844383,0.5000000000000006 l -4.286263797015736e-16,-1.0 l -4.286263797015736e-16,-1.0 l -0.8660254037844392,-0.49999999999999917 l -0.8660254037844379,0.5000000000000013 l -0.8660254037844392,-0.49999999999999917 l -0.8660254037844392,-0.49999999999999917 l 0.8660254037844387,-0.4999999999999999 l 0.8660254037844383,0.5000000000000006 l -4.286263797015736e-16,-1.0 l -0.8660254037844392,-0.49999999999999917 l -0.8660254037844379,0.5000000000000013 l -0.8660254037844392,-0.49999999999999917 l 0.8660254037844387,-0.4999999999999999 l -4.286263797015736e-16,-1.0 l -0.8660254037844379,0.5000000000000013 l -0.8660254037844379,0.5000000000000013 l 1.1943401194869635e-15,1.0 l -0.8660254037844379,0.5000000000000013 l -0.8660254037844392,-0.49999999999999917 l -0.8660254037844392,-0.49999999999999917 l 0.8660254037844387,-0.4999999999999999 l 0.8660254037844383,0.5000000000000006 l -4.286263797015736e-16,-1.0 l -0.8660254037844392,-0.49999999999999917 l -4.286263797015736e-16,-1.0 l 0.8660254037844387,-0.4999999999999999 l 0.8660254037844387,-0.4999999999999999 l -1.2252657797839415e-15,1.0 l -0.8660254037844395,0.49999999999999845 l 0.8660254037844383,0.5000000000000006 l 0.8660254037844387,-0.4999999999999999 l -4.286263797015736e-16,-1.0 l 0.8660254037844387,-0.4999999999999999 l -1.2252657797839415e-15,1.0 l 0.8660254037844383,0.5000000000000006 l -4.286263797015736e-16,-1.0 l -4.286263797015736e-16,-1.0 l -0.8660254037844392,-0.49999999999999917 l -0.8660254037844379,0.5000000000000013 l -0.8660254037844392,-0.49999999999999917 l 0.8660254037844387,-0.4999999999999999 l -4.286263797015736e-16,-1.0 l -0.8660254037844379,0.5000000000000013 l -0.8660254037844379,0.5000000000000013 l 1.1943401194869635e-15,1.0 l -0.8660254037844379,0.5000000000000013 l -0.8660254037844392,-0.49999999999999917 l 0.8660254037844387,-0.4999999999999999 l -4.286263797015736e-16,-1.0 l -0.8660254037844379,0.5000000000000013 l -0.8660254037844379,0.5000000000000013 l 1.1943401194869635e-15,1.0 l 0.866025403784439,0.4999999999999993 l 1.1943401194869635e-15,1.0 l 1.1943401194869635e-15,1.0 l -0.8660254037844392,-0.49999999999999917 l -4.286263797015736e-16,-1.0 l -0.8660254037844379,0.5000000000000013 l 1.1943401194869635e-15,1.0 l 0.866025403784439,0.4999999999999993 l 1.1943401194869635e-15,1.0 l -0.8660254037844392,-0.49999999999999917 l -0.8660254037844379,0.5000000000000013 l 0.866025403784439,0.4999999999999993 l 0.866025403784439,0.4999999999999993 l 0.8660254037844384,-0.5000000000000004 l 0.866025403784439,0.4999999999999993 l 1.1943401194869635e-15,1.0 l 1.1943401194869635e-15,1.0 l -0.8660254037844392,-0.49999999999999917 l -4.286263797015736e-16,-1.0 l -0.8660254037844379,0.5000000000000013 l 1.1943401194869635e-15,1.0 l -0.8660254037844379,0.5000000000000013 l -0.8660254037844392,-0.49999999999999917 l -0.8660254037844392,-0.49999999999999917 l 0.8660254037844387,-0.4999999999999999 l 0.8660254037844383,0.5000000000000006 l -4.286263797015736e-16,-1.0 l -0.8660254037844392,-0.49999999999999917 l -0.8660254037844379,0.5000000000000013 l -0.8660254037844392,-0.49999999999999917 l 0.8660254037844387,-0.4999999999999999 l -4.286263797015736e-16,-1.0 l -0.8660254037844379,0.5000000000000013 l -0.8660254037844379,0.5000000000000013 l 1.1943401194869635e-15,1.0 l 0.866025403784439,0.4999999999999993 l 1.1943401194869635e-15,1.0 l -0.8660254037844392,-0.49999999999999917 l -0.8660254037844379,0.5000000000000013 l 0.866025403784439,0.4999999999999993 l 0.866025403784439,0.4999999999999993 l 0.8660254037844384,-0.5000000000000004 l 0.866025403784439,0.4999999999999993 l 1.1943401194869635e-15,1.0 l -0.8660254037844392,-0.49999999999999917 l -0.8660254037844379,0.5000000000000013 l 0.866025403784439,0.4999999999999993 l 0.866025403784439,0.4999999999999993 l 0.8660254037844384,-0.5000000000000004 l -1.8369701987210297e-16,-1.0 l 0.8660254037844384,-0.5000000000000004 l 0.8660254037844384,-0.5000000000000004 l 1.1943401194869635e-15,1.0 l -0.8660254037844379,0.5000000000000013 l 0.866025403784439,0.4999999999999993 l 0.8660254037844384,-0.5000000000000004 l 0.866025403784439,0.4999999999999993 l 1.1943401194869635e-15,1.0 l -0.8660254037844392,-0.49999999999999917 l -0.8660254037844379,0.5000000000000013 l 0.866025403784439,0.4999999999999993 l 0.866025403784439,0.4999999999999993 l 0.8660254037844384,-0.5000000000000004 l 0.866025403784439,0.4999999999999993 l 1.1943401194869635e-15,1.0 l 1.1943401194869635e-15,1.0 l -0.8660254037844392,-0.49999999999999917 l -4.286263797015736e-16,-1.0 l -0.8660254037844379,0.5000000000000013 l 1.1943401194869635e-15,1.0 l -0.8660254037844379,0.5000000000000013 l -0.8660254037844392,-0.49999999999999917 l -0.8660254037844392,-0.49999999999999917 l 0.8660254037844387,-0.4999999999999999 l 0.8660254037844383,0.5000000000000006 l -4.286263797015736e-16,-1.0 l -0.8660254037844392,-0.49999999999999917 l -0.8660254037844379,0.5000000000000013 l -0.8660254037844392,-0.49999999999999917 l 0.8660254037844387,-0.4999999999999999 l -4.286263797015736e-16,-1.0 l -0.8660254037844379,0.5000000000000013 l -0.8660254037844379,0.5000000000000013 l 1.1943401194869635e-15,1.0 l 0.866025403784439,0.4999999999999993 l 1.1943401194869635e-15,1.0 l -0.8660254037844392,-0.49999999999999917 l -0.8660254037844379,0.5000000000000013 l 0.866025403784439,0.4999999999999993 l 0.866025403784439,0.4999999999999993 l 0.8660254037844384,-0.5000000000000004 l 0.866025403784439,0.4999999999999993 l 1.1943401194869635e-15,1.0 l -0.8660254037844392,-0.49999999999999917 l -0.8660254037844379,0.5000000000000013 l 0.866025403784439,0.4999999999999993 l 0.866025403784439,0.4999999999999993 l 0.8660254037844384,-0.5000000000000004 l -1.8369701987210297e-16,-1.0 l 0.8660254037844384,-0.5000000000000004 l 0.8660254037844384,-0.5000000000000004 l 1.1943401194869635e-15,1.0 l -0.8660254037844379,0.5000000000000013 l 0.866025403784439,0.4999999999999993 l 0.8660254037844384,-0.5000000000000004 l -1.8369701987210297e-16,-1.0 l 0.8660254037844384,-0.5000000000000004 l 1.1943401194869635e-15,1.0 l 0.866025403784439,0.4999999999999993 l -1.8369701987210297e-16,-1.0 l -1.8369701987210297e-16,-1.0 l -0.8660254037844386,-0.5000000000000001 l -1.8369701987210297e-16,-1.0 l 0.8660254037844384,-0.5000000000000004 l 0.8660254037844384,-0.5000000000000004 l 1.1943401194869635e-15,1.0 l -0.8660254037844379,0.5000000000000013 l 0.866025403784439,0.4999999999999993 l 0.8660254037844384,-0.5000000000000004 l -1.8369701987210297e-16,-1.0 l 0.8660254037844384,-0.5000000000000004 l 0.8660254037844384,-0.5000000000000004 l 1.1943401194869635e-15,1.0 l -0.8660254037844379,0.5000000000000013 l 0.866025403784439,0.4999999999999993 l 0.8660254037844384,-0.5000000000000004 l 0.866025403784439,0.4999999999999993 l 1.1943401194869635e-15,1.0 l 1.1943401194869635e-15,1.0 l -0.8660254037844392,-0.49999999999999917 l -4.286263797015736e-16,-1.0 l -0.8660254037844379,0.5000000000000013 l 1.1943401194869635e-15,1.0 l -0.8660254037844379,0.5000000000000013 l -0.8660254037844392,-0.49999999999999917 l 0.8660254037844387,-0.4999999999999999 l -4.286263797015736e-16,-1.0 l -0.8660254037844379,0.5000000000000013 l -0.8660254037844379,0.5000000000000013 l 1.1943401194869635e-15,1.0 l 0.866025403784439,0.4999999999999993 l 1.1943401194869635e-15,1.0 l -0.8660254037844392,-0.49999999999999917 l -0.8660254037844379,0.5000000000000013 l 0.866025403784439,0.4999999999999993 l 0.866025403784439,0.4999999999999993 l 0.8660254037844384,-0.5000000000000004 l -1.8369701987210297e-16,-1.0 l 0.8660254037844384,-0.5000000000000004 l 0.8660254037844384,-0.5000000000000004 l 1.1943401194869635e-15,1.0 l -0.8660254037844379,0.5000000000000013 l 0.866025403784439,0.4999999999999993 l 0.8660254037844384,-0.5000000000000004 l -1.8369701987210297e-16,-1.0 l 0.8660254037844384,-0.5000000000000004 l 1.1943401194869635e-15,1.0 l 0.866025403784439,0.4999999999999993 l -1.8369701987210297e-16,-1.0 l -1.8369701987210297e-16,-1.0 l -0.8660254037844386,-0.5000000000000001 l -1.8369701987210297e-16,-1.0 l 0.8660254037844384,-0.5000000000000004 l 0.8660254037844384,-0.5000000000000004 l 1.1943401194869635e-15,1.0 l -0.8660254037844379,0.5000000000000013 l 0.866025403784439,0.4999999999999993 l 0.8660254037844384,-0.5000000000000004 l 0.866025403784439,0.4999999999999993 l 1.1943401194869635e-15,1.0 l 1.1943401194869635e-15,1.0 l -0.8660254037844392,-0.49999999999999917 l -4.286263797015736e-16,-1.0 l -0.8660254037844379,0.5000000000000013 l 1.1943401194869635e-15,1.0 l 0.866025403784439,0.4999999999999993 l 1.1943401194869635e-15,1.0 l -0.8660254037844392,-0.49999999999999917 l -0.8660254037844379,0.5000000000000013 l 0.866025403784439,0.4999999999999993 l 0.866025403784439,0.4999999999999993 l 0.8660254037844384,-0.5000000000000004 l -1.8369701987210297e-16,-1.0 l 0.8660254037844384,-0.5000000000000004 l 1.1943401194869635e-15,1.0 l 0.866025403784439,0.4999999999999993 l -1.8369701987210297e-16,-1.0 l -1.8369701987210297e-16,-1.0 l -0.8660254037844386,-0.5000000000000001 l -1.8369701987210297e-16,-1.0 l 0.8660254037844384,-0.5000000000000004 l 1.1943401194869635e-15,1.0 l 0.866025403784439,0.4999999999999993 l -1.8369701987210297e-16,-1.0 l -1.8369701987210297e-16,-1.0 l -0.8660254037844386,-0.5000000000000001 l -0.8660254037844389,0.49999999999999956 l -0.8660254037844386,-0.5000000000000001 l -0.8660254037844386,-0.5000000000000001 l 0.8660254037844384,-0.5000000000000004 l 0.866025403784439,0.4999999999999993 l -1.8369701987210297e-16,-1.0 l -0.8660254037844386,-0.5000000000000001 l -1.8369701987210297e-16,-1.0 l 0.8660254037844384,-0.5000000000000004 l 1.1943401194869635e-15,1.0 l 0.866025403784439,0.4999999999999993 l -1.8369701987210297e-16,-1.0 l -1.8369701987210297e-16,-1.0 l -0.8660254037844386,-0.5000000000000001 l -1.8369701987210297e-16,-1.0 l 0.8660254037844384,-0.5000000000000004 l 0.8660254037844384,-0.5000000000000004 l 1.1943401194869635e-15,1.0 l -0.8660254037844379,0.5000000000000013 l 0.866025403784439,0.4999999999999993 l 0.8660254037844384,-0.5000000000000004 l -1.8369701987210297e-16,-1.0 l 0.8660254037844384,-0.5000000000000004 l 0.8660254037844384,-0.5000000000000004 l 1.1943401194869635e-15,1.0 l -0.8660254037844379,0.5000000000000013 l 0.866025403784439,0.4999999999999993 l 0.8660254037844384,-0.5000000000000004 l 0.866025403784439,0.4999999999999993 l 1.1943401194869635e-15,1.0 l 1.1943401194869635e-15,1.0 l -0.8660254037844392,-0.49999999999999917 l -4.286263797015736e-16,-1.0 l -0.8660254037844379,0.5000000000000013 l 1.1943401194869635e-15,1.0 l -0.8660254037844379,0.5000000000000013 l -0.8660254037844392,-0.49999999999999917 l 0.8660254037844387,-0.4999999999999999 l -4.286263797015736e-16,-1.0 l -0.8660254037844379,0.5000000000000013 l -0.8660254037844379,0.5000000000000013 l 1.1943401194869635e-15,1.0 l 0.866025403784439,0.4999999999999993 l 1.1943401194869635e-15,1.0 l -0.8660254037844392,-0.49999999999999917 l -0.8660254037844379,0.5000000000000013 l 0.866025403784439,0.4999999999999993 l 0.866025403784439,0.4999999999999993 l 0.8660254037844384,-0.5000000000000004 l -1.8369701987210297e-16,-1.0 l 0.8660254037844384,-0.5000000000000004 l 0.8660254037844384,-0.5000000000000004 l 1.1943401194869635e-15,1.0 l -0.8660254037844379,0.5000000000000013 l 0.866025403784439,0.4999999999999993 l 0.8660254037844384,-0.5000000000000004 l 0.866025403784439,0.4999999999999993 l 1.1943401194869635e-15,1.0 l -0.8660254037844392,-0.49999999999999917 l -0.8660254037844379,0.5000000000000013 l 0.866025403784439,0.4999999999999993 l 0.866025403784439,0.4999999999999993 l 0.8660254037844384,-0.5000000000000004 l 0.866025403784439,0.4999999999999993 l 1.1943401194869635e-15,1.0 l 1.1943401194869635e-15,1.0 l -0.8660254037844392,-0.49999999999999917 l -4.286263797015736e-16,-1.0 l -0.8660254037844379,0.5000000000000013 l 1.1943401194869635e-15,1.0 l 0.866025403784439,0.4999999999999993 l 1.1943401194869635e-15,1.0 l 1.1943401194869635e-15,1.0 l -0.8660254037844392,-0.49999999999999917 l -4.286263797015736e-16,-1.0 l -0.8660254037844379,0.5000000000000013 l 1.1943401194869635e-15,1.0 l -0.8660254037844379,0.5000000000000013 l -0.8660254037844392,-0.49999999999999917 l -0.8660254037844392,-0.49999999999999917 l 0.8660254037844387,-0.4999999999999999 l 0.8660254037844383,0.5000000000000006 l -4.286263797015736e-16,-1.0 l -0.8660254037844392,-0.49999999999999917 l -4.286263797015736e-16,-1.0 l 0.8660254037844387,-0.4999999999999999 l -1.2252657797839415e-15,1.0 l 0.8660254037844383,0.5000000000000006 l -4.286263797015736e-16,-1.0 l -4.286263797015736e-16,-1.0 l -0.8660254037844392,-0.49999999999999917 l -0.8660254037844379,0.5000000000000013 l -0.8660254037844392,-0.49999999999999917 l 0.8660254037844387,-0.4999999999999999 l -4.286263797015736e-16,-1.0 l -0.8660254037844379,0.5000000000000013 l -0.8660254037844379,0.5000000000000013 l 1.1943401194869635e-15,1.0 l 0.866025403784439,0.4999999999999993 l 1.1943401194869635e-15,1.0 l 1.1943401194869635e-15,1.0 l -0.8660254037844392,-0.49999999999999917 l -4.286263797015736e-16,-1.0 l -0.8660254037844379,0.5000000000000013 l 1.1943401194869635e-15,1.0 l 0.866025403784439,0.4999999999999993 l 1.1943401194869635e-15,1.0 l -0.8660254037844392,-0.49999999999999917 l -0.8660254037844379,0.5000000000000013 l 0.866025403784439,0.4999999999999993 l 0.866025403784439,0.4999999999999993 l 0.8660254037844384,-0.5000000000000004 l 0.866025403784439,0.4999999999999993 l 1.1943401194869635e-15,1.0 l 1.1943401194869635e-15,1.0 l -0.8660254037844392,-0.49999999999999917 l -4.286263797015736e-16,-1.0 l -0.8660254037844379,0.5000000000000013 l 1.1943401194869635e-15,1.0 l -0.8660254037844379,0.5000000000000013 l -0.8660254037844392,-0.49999999999999917 l -0.8660254037844392,-0.49999999999999917 l 0.8660254037844387,-0.4999999999999999 l 0.8660254037844383,0.5000000000000006 l -4.286263797015736e-16,-1.0 l -0.8660254037844392,-0.49999999999999917 l -0.8660254037844379,0.5000000000000013 l -0.8660254037844392,-0.49999999999999917 l 0.8660254037844387,-0.4999999999999999 l -4.286263797015736e-16,-1.0 l -0.8660254037844379,0.5000000000000013 l -0.8660254037844379,0.5000000000000013 l 1.1943401194869635e-15,1.0 l 0.866025403784439,0.4999999999999993 l 1.1943401194869635e-15,1.0 l -0.8660254037844392,-0.49999999999999917 l -0.8660254037844379,0.5000000000000013 l 0.866025403784439,0.4999999999999993 l 0.866025403784439,0.4999999999999993 l 0.8660254037844384,-0.5000000000000004 l 0.866025403784439,0.4999999999999993 l 1.1943401194869635e-15,1.0 l -0.8660254037844392,-0.49999999999999917 l -0.8660254037844379,0.5000000000000013 l 0.866025403784439,0.4999999999999993 l 0.866025403784439,0.4999999999999993 l 0.8660254037844384,-0.5000000000000004 l -1.8369701987210297e-16,-1.0 l 0.8660254037844384,-0.5000000000000004 l 0.8660254037844384,-0.5000000000000004 l 1.1943401194869635e-15,1.0 l -0.8660254037844379,0.5000000000000013 l 0.866025403784439,0.4999999999999993 l 0.8660254037844384,-0.5000000000000004 l -1.8369701987210297e-16,-1.0 l 0.8660254037844384,-0.5000000000000004 l 1.1943401194869635e-15,1.0 l 0.866025403784439,0.4999999999999993 l -1.8369701987210297e-16,-1.0 l -1.8369701987210297e-16,-1.0 l -0.8660254037844386,-0.5000000000000001 l -1.8369701987210297e-16,-1.0 l 0.8660254037844384,-0.5000000000000004 l 0.8660254037844384,-0.5000000000000004 l 1.1943401194869635e-15,1.0 l -0.8660254037844379,0.5000000000000013 l 0.866025403784439,0.4999999999999993 l 0.8660254037844384,-0.5000000000000004 l 0.866025403784439,0.4999999999999993 l 1.1943401194869635e-15,1.0 l 1.1943401194869635e-15,1.0 l -0.8660254037844392,-0.49999999999999917 l -4.286263797015736e-16,-1.0 l -0.8660254037844379,0.5000000000000013 l 1.1943401194869635e-15,1.0 l 0.866025403784439,0.4999999999999993 l 1.1943401194869635e-15,1.0 l -0.8660254037844392,-0.49999999999999917 l -0.8660254037844379,0.5000000000000013 l 0.866025403784439,0.4999999999999993 l 0.866025403784439,0.4999999999999993 l 0.8660254037844384,-0.5000000000000004 l -1.8369701987210297e-16,-1.0 l 0.8660254037844384,-0.5000000000000004 l 1.1943401194869635e-15,1.0 l 0.866025403784439,0.4999999999999993 l -1.8369701987210297e-16,-1.0 l -1.8369701987210297e-16,-1.0 l -0.8660254037844386,-0.5000000000000001 l -1.8369701987210297e-16,-1.0 l 0.8660254037844384,-0.5000000000000004 l 1.1943401194869635e-15,1.0 l 0.866025403784439,0.4999999999999993 l -1.8369701987210297e-16,-1.0 l -1.8369701987210297e-16,-1.0 l -0.8660254037844386,-0.5000000000000001 l -0.8660254037844389,0.49999999999999956 l -0.8660254037844386,-0.5000000000000001 l -0.8660254037844386,-0.5000000000000001 l 0.8660254037844384,-0.5000000000000004 l 0.866025403784439,0.4999999999999993 l -1.8369701987210297e-16,-1.0 l -0.8660254037844386,-0.5000000000000001 l -1.8369701987210297e-16,-1.0 l 0.8660254037844384,-0.5000000000000004 l 1.1943401194869635e-15,1.0 l 0.866025403784439,0.4999999999999993 l -1.8369701987210297e-16,-1.0 l -1.8369701987210297e-16,-1.0 l -0.8660254037844386,-0.5000000000000001 l -1.8369701987210297e-16,-1.0 l 0.8660254037844384,-0.5000000000000004 l 0.8660254037844384,-0.5000000000000004 l 1.1943401194869635e-15,1.0 l -0.8660254037844379,0.5000000000000013 l 0.866025403784439,0.4999999999999993 l 0.8660254037844384,-0.5000000000000004 l 0.866025403784439,0.4999999999999993 l 1.1943401194869635e-15,1.0 l 1.1943401194869635e-15,1.0 l -0.8660254037844392,-0.49999999999999917 l -4.286263797015736e-16,-1.0 l -0.8660254037844379,0.5000000000000013 l 1.1943401194869635e-15,1.0 l 0.866025403784439,0.4999999999999993 l 1.1943401194869635e-15,1.0 l -0.8660254037844392,-0.49999999999999917 l -0.8660254037844379,0.5000000000000013 l 0.866025403784439,0.4999999999999993 l 0.866025403784439,0.4999999999999993 l 0.8660254037844384,-0.5000000000000004 l -1.8369701987210297e-16,-1.0 l 0.8660254037844384,-0.5000000000000004 l 1.1943401194869635e-15,1.0 l 0.866025403784439,0.4999999999999993 l -1.8369701987210297e-16,-1.0 l -1.8369701987210297e-16,-1.0 l -0.8660254037844386,-0.5000000000000001 l -1.8369701987210297e-16,-1.0 l 0.8660254037844384,-0.5000000000000004 l 1.1943401194869635e-15,1.0 l 0.866025403784439,0.4999999999999993 l -1.8369701987210297e-16,-1.0 l -1.8369701987210297e-16,-1.0 l -0.8660254037844386,-0.5000000000000001 l -0.8660254037844389,0.49999999999999956 l -0.8660254037844386,-0.5000000000000001 l -0.8660254037844386,-0.5000000000000001 l 0.8660254037844384,-0.5000000000000004 l 0.866025403784439,0.4999999999999993 l -1.8369701987210297e-16,-1.0 l -0.8660254037844386,-0.5000000000000001 l -0.8660254037844389,0.49999999999999956 l -0.8660254037844386,-0.5000000000000001 l 0.8660254037844384,-0.5000000000000004 l -1.8369701987210297e-16,-1.0 l -0.8660254037844389,0.49999999999999956 l -0.8660254037844389,0.49999999999999956 l -6.049014748177263e-16,1.0 l -0.8660254037844389,0.49999999999999956 l -0.8660254037844386,-0.5000000000000001 l -0.8660254037844386,-0.5000000000000001 l 0.8660254037844384,-0.5000000000000004 l 0.866025403784439,0.4999999999999993 l -1.8369701987210297e-16,-1.0 l -0.8660254037844386,-0.5000000000000001 l -0.8660254037844389,0.49999999999999956 l -0.8660254037844386,-0.5000000000000001 l -0.8660254037844386,-0.5000000000000001 l 0.8660254037844384,-0.5000000000000004 l 0.866025403784439,0.4999999999999993 l -1.8369701987210297e-16,-1.0 l -0.8660254037844386,-0.5000000000000001 l -1.8369701987210297e-16,-1.0 l 0.8660254037844384,-0.5000000000000004 l 0.8660254037844384,-0.5000000000000004 l 1.1943401194869635e-15,1.0 l -0.8660254037844379,0.5000000000000013 l 0.866025403784439,0.4999999999999993 l 0.8660254037844384,-0.5000000000000004 l 0.866025403784439,0.4999999999999993 l 1.1943401194869635e-15,1.0 l -0.8660254037844392,-0.49999999999999917 l -0.8660254037844379,0.5000000000000013 l 0.866025403784439,0.4999999999999993 l 0.866025403784439,0.4999999999999993 l 0.8660254037844384,-0.5000000000000004 l -1.8369701987210297e-16,-1.0 l 0.8660254037844384,-0.5000000000000004 l 1.1943401194869635e-15,1.0 l 0.866025403784439,0.4999999999999993 l -1.8369701987210297e-16,-1.0 l -1.8369701987210297e-16,-1.0 l -0.8660254037844386,-0.5000000000000001 l -0.8660254037844389,0.49999999999999956 l -0.8660254037844386,-0.5000000000000001 l -0.8660254037844386,-0.5000000000000001 l 0.8660254037844384,-0.5000000000000004 l 0.866025403784439,0.4999999999999993 l -1.8369701987210297e-16,-1.0 l -0.8660254037844386,-0.5000000000000001 l -1.8369701987210297e-16,-1.0 l 0.8660254037844384,-0.5000000000000004 l 1.1943401194869635e-15,1.0 l 0.866025403784439,0.4999999999999993 l -1.8369701987210297e-16,-1.0 l -1.8369701987210297e-16,-1.0 l -0.8660254037844386,-0.5000000000000001 l -1.8369701987210297e-16,-1.0 l 0.8660254037844384,-0.5000000000000004 l 0.8660254037844384,-0.5000000000000004 l 1.1943401194869635e-15,1.0 l -0.8660254037844379,0.5000000000000013 l 0.866025403784439,0.4999999999999993 l 0.8660254037844384,-0.5000000000000004 l 0.866025403784439,0.4999999999999993 l 1.1943401194869635e-15,1.0 l 1.1943401194869635e-15,1.0 l -0.8660254037844392,-0.49999999999999917 l -4.286263797015736e-16,-1.0 l -0.8660254037844379,0.5000000000000013 l 1.1943401194869635e-15,1.0 l 0.866025403784439,0.4999999999999993 l 1.1943401194869635e-15,1.0 l -0.8660254037844392,-0.49999999999999917 l -0.8660254037844379,0.5000000000000013 l 0.866025403784439,0.4999999999999993 l 0.866025403784439,0.4999999999999993 l 0.8660254037844384,-0.5000000000000004 l -1.8369701987210297e-16,-1.0 l 0.8660254037844384,-0.5000000000000004 l 1.1943401194869635e-15,1.0 l 0.866025403784439,0.4999999999999993 l -1.8369701987210297e-16,-1.0 l -1.8369701987210297e-16,-1.0 l -0.8660254037844386,-0.5000000000000001 l -1.8369701987210297e-16,-1.0 l 0.8660254037844384,-0.5000000000000004 l 1.1943401194869635e-15,1.0 l 0.866025403784439,0.4999999999999993 l -1.8369701987210297e-16,-1.0 l -1.8369701987210297e-16,-1.0 l -0.8660254037844386,-0.5000000000000001 l -0.8660254037844389,0.49999999999999956 l -0.8660254037844386,-0.5000000000000001 l -0.8660254037844386,-0.5000000000000001 l 0.8660254037844384,-0.5000000000000004 l 0.866025403784439,0.4999999999999993 l -1.8369701987210297e-16,-1.0 l -0.8660254037844386,-0.5000000000000001 l -1.8369701987210297e-16,-1.0 l 0.8660254037844384,-0.5000000000000004 l 1.1943401194869635e-15,1.0 l 0.866025403784439,0.4999999999999993 l -1.8369701987210297e-16,-1.0 l -1.8369701987210297e-16,-1.0 l -0.8660254037844386,-0.5000000000000001 l -1.8369701987210297e-16,-1.0 l 0.8660254037844384,-0.5000000000000004 l 0.8660254037844384,-0.5000000000000004 l 1.1943401194869635e-15,1.0 l -0.8660254037844379,0.5000000000000013 l 0.866025403784439,0.4999999999999993 l 0.8660254037844384,-0.5000000000000004 l -1.8369701987210297e-16,-1.0 l 0.8660254037844384,-0.5000000000000004 l 0.8660254037844384,-0.5000000000000004 l 1.1943401194869635e-15,1.0 l -0.8660254037844379,0.5000000000000013 l 0.866025403784439,0.4999999999999993 l 0.8660254037844384,-0.5000000000000004 l 0.866025403784439,0.4999999999999993 l 1.1943401194869635e-15,1.0 l 1.1943401194869635e-15,1.0 l -0.8660254037844392,-0.49999999999999917 l -4.286263797015736e-16,-1.0 l -0.8660254037844379,0.5000000000000013 l 1.1943401194869635e-15,1.0 l -0.8660254037844379,0.5000000000000013 l -0.8660254037844392,-0.49999999999999917 l 0.8660254037844387,-0.4999999999999999 l -4.286263797015736e-16,-1.0 l -0.8660254037844379,0.5000000000000013 l -0.8660254037844379,0.5000000000000013 l 1.1943401194869635e-15,1.0 l 0.866025403784439,0.4999999999999993 l 1.1943401194869635e-15,1.0 l -0.8660254037844392,-0.49999999999999917 l -0.8660254037844379,0.5000000000000013 l 0.866025403784439,0.4999999999999993 l 0.866025403784439,0.4999999999999993 l 0.8660254037844384,-0.5000000000000004 l -1.8369701987210297e-16,-1.0 l 0.8660254037844384,-0.5000000000000004 l 0.8660254037844384,-0.5000000000000004 l 1.1943401194869635e-15,1.0 l -0.8660254037844379,0.5000000000000013 l 0.866025403784439,0.4999999999999993 l 0.8660254037844384,-0.5000000000000004 l 0.866025403784439,0.4999999999999993 l 1.1943401194869635e-15,1.0 l -0.8660254037844392,-0.49999999999999917 l -0.8660254037844379,0.5000000000000013 l 0.866025403784439,0.4999999999999993 l 0.866025403784439,0.4999999999999993 l 0.8660254037844384,-0.5000000000000004 l 0.866025403784439,0.4999999999999993 l 1.1943401194869635e-15,1.0 l 1.1943401194869635e-15,1.0 l -0.8660254037844392,-0.49999999999999917 l -4.286263797015736e-16,-1.0 l -0.8660254037844379,0.5000000000000013 l 1.1943401194869635e-15,1.0 l 0.866025403784439,0.4999999999999993 l 1.1943401194869635e-15,1.0 l 1.1943401194869635e-15,1.0 l -0.8660254037844392,-0.49999999999999917 l -4.286263797015736e-16,-1.0 l -0.8660254037844379,0.5000000000000013 l 1.1943401194869635e-15,1.0 l -0.8660254037844379,0.5000000000000013 l -0.8660254037844392,-0.49999999999999917 l -0.8660254037844392,-0.49999999999999917 l 0.8660254037844387,-0.4999999999999999 l 0.8660254037844383,0.5000000000000006 l -4.286263797015736e-16,-1.0 l -0.8660254037844392,-0.49999999999999917 l -4.286263797015736e-16,-1.0 l 0.8660254037844387,-0.4999999999999999 l -1.2252657797839415e-15,1.0 l 0.8660254037844383,0.5000000000000006 l -4.286263797015736e-16,-1.0 l -4.286263797015736e-16,-1.0 l -0.8660254037844392,-0.49999999999999917 l -0.8660254037844379,0.5000000000000013 l -0.8660254037844392,-0.49999999999999917 l 0.8660254037844387,-0.4999999999999999 l -4.286263797015736e-16,-1.0 l -0.8660254037844379,0.5000000000000013 l -0.8660254037844379,0.5000000000000013 l 1.1943401194869635e-15,1.0 l 0.866025403784439,0.4999999999999993 l 1.1943401194869635e-15,1.0 l 1.1943401194869635e-15,1.0 l -0.8660254037844392,-0.49999999999999917 l -4.286263797015736e-16,-1.0 l -0.8660254037844379,0.5000000000000013 l 1.1943401194869635e-15,1.0 l 0.866025403784439,0.4999999999999993 l 1.1943401194869635e-15,1.0 l -0.8660254037844392,-0.49999999999999917 l -0.8660254037844379,0.5000000000000013 l 0.866025403784439,0.4999999999999993 l 0.866025403784439,0.4999999999999993 l 0.8660254037844384,-0.5000000000000004 l 0.866025403784439,0.4999999999999993 l 1.1943401194869635e-15,1.0 l 1.1943401194869635e-15,1.0 l -0.8660254037844392,-0.49999999999999917 l -4.286263797015736e-16,-1.0 l -0.8660254037844379,0.5000000000000013 l 1.1943401194869635e-15,1.0 l -0.8660254037844379,0.5000000000000013 l -0.8660254037844392,-0.49999999999999917 l -0.8660254037844392,-0.49999999999999917 l 0.8660254037844387,-0.4999999999999999 l 0.8660254037844383,0.5000000000000006 l -4.286263797015736e-16,-1.0 l -0.8660254037844392,-0.49999999999999917 l -0.8660254037844379,0.5000000000000013 l -0.8660254037844392,-0.49999999999999917 l 0.8660254037844387,-0.4999999999999999 l -4.286263797015736e-16,-1.0 l -0.8660254037844379,0.5000000000000013 l -0.8660254037844379,0.5000000000000013 l 1.1943401194869635e-15,1.0 l 0.866025403784439,0.4999999999999993 l 1.1943401194869635e-15,1.0 l -0.8660254037844392,-0.49999999999999917 l -0.8660254037844379,0.5000000000000013 l 0.866025403784439,0.4999999999999993 l 0.866025403784439,0.4999999999999993 l 0.8660254037844384,-0.5000000000000004 l 0.866025403784439,0.4999999999999993 l 1.1943401194869635e-15,1.0 l -0.8660254037844392,-0.49999999999999917 l -0.8660254037844379,0.5000000000000013 l 0.866025403784439,0.4999999999999993 l 0.866025403784439,0.4999999999999993 l 0.8660254037844384,-0.5000000000000004 l -1.8369701987210297e-16,-1.0 l 0.8660254037844384,-0.5000000000000004 l 0.8660254037844384,-0.5000000000000004 l 1.1943401194869635e-15,1.0 l -0.8660254037844379,0.5000000000000013 l 0.866025403784439,0.4999999999999993 l 0.8660254037844384,-0.5000000000000004 l -1.8369701987210297e-16,-1.0 l 0.8660254037844384,-0.5000000000000004 l 1.1943401194869635e-15,1.0 l 0.866025403784439,0.4999999999999993 l -1.8369701987210297e-16,-1.0 l -1.8369701987210297e-16,-1.0 l -0.8660254037844386,-0.5000000000000001 l -1.8369701987210297e-16,-1.0 l 0.8660254037844384,-0.5000000000000004 l 0.8660254037844384,-0.5000000000000004 l 1.1943401194869635e-15,1.0 l -0.8660254037844379,0.5000000000000013 l 0.866025403784439,0.4999999999999993 l 0.8660254037844384,-0.5000000000000004 l 0.866025403784439,0.4999999999999993 l 1.1943401194869635e-15,1.0 l 1.1943401194869635e-15,1.0 l -0.8660254037844392,-0.49999999999999917 l -4.286263797015736e-16,-1.0 l -0.8660254037844379,0.5000000000000013 l 1.1943401194869635e-15,1.0 l 0.866025403784439,0.4999999999999993 l 1.1943401194869635e-15,1.0 l -0.8660254037844392,-0.49999999999999917 l -0.8660254037844379,0.5000000000000013 l 0.866025403784439,0.4999999999999993 l 0.866025403784439,0.4999999999999993 l 0.8660254037844384,-0.5000000000000004 l -1.8369701987210297e-16,-1.0 l 0.8660254037844384,-0.5000000000000004 l 1.1943401194869635e-15,1.0 l 0.866025403784439,0.4999999999999993 l -1.8369701987210297e-16,-1.0 l -1.8369701987210297e-16,-1.0 l -0.8660254037844386,-0.5000000000000001 l -1.8369701987210297e-16,-1.0 l 0.8660254037844384,-0.5000000000000004 l 1.1943401194869635e-15,1.0 l 0.866025403784439,0.4999999999999993 l -1.8369701987210297e-16,-1.0 l -1.8369701987210297e-16,-1.0 l -0.8660254037844386,-0.5000000000000001 l -0.8660254037844389,0.49999999999999956 l -0.8660254037844386,-0.5000000000000001 l -0.8660254037844386,-0.5000000000000001 l 0.8660254037844384,-0.5000000000000004 l 0.866025403784439,0.4999999999999993 l -1.8369701987210297e-16,-1.0 l -0.8660254037844386,-0.5000000000000001 l -1.8369701987210297e-16,-1.0 l 0.8660254037844384,-0.5000000000000004 l 1.1943401194869635e-15,1.0 l 0.866025403784439,0.4999999999999993 l -1.8369701987210297e-16,-1.0 l -1.8369701987210297e-16,-1.0 l -0.8660254037844386,-0.5000000000000001 l -1.8369701987210297e-16,-1.0 l 0.8660254037844384,-0.5000000000000004 l 0.8660254037844384,-0.5000000000000004 l 1.1943401194869635e-15,1.0 l -0.8660254037844379,0.5000000000000013 l 0.866025403784439,0.4999999999999993 l 0.8660254037844384,-0.5000000000000004 l 0.866025403784439,0.4999999999999993 l 1.1943401194869635e-15,1.0 l 1.1943401194869635e-15,1.0 l -0.8660254037844392,-0.49999999999999917 l -4.286263797015736e-16,-1.0 l -0.8660254037844379,0.5000000000000013 l 1.1943401194869635e-15,1.0 l 0.866025403784439,0.4999999999999993 l 1.1943401194869635e-15,1.0 l -0.8660254037844392,-0.49999999999999917 l -0.8660254037844379,0.5000000000000013 l 0.866025403784439,0.4999999999999993 l 0.866025403784439,0.4999999999999993 l 0.8660254037844384,-0.5000000000000004 l -1.8369701987210297e-16,-1.0 l 0.8660254037844384,-0.5000000000000004 l 1.1943401194869635e-15,1.0 l 0.866025403784439,0.4999999999999993 l -1.8369701987210297e-16,-1.0 l -1.8369701987210297e-16,-1.0 l -0.8660254037844386,-0.5000000000000001 l -1.8369701987210297e-16,-1.0 l 0.8660254037844384,-0.5000000000000004 l 1.1943401194869635e-15,1.0 l 0.866025403784439,0.4999999999999993 l -1.8369701987210297e-16,-1.0 l -1.8369701987210297e-16,-1.0 l -0.8660254037844386,-0.5000000000000001 l -0.8660254037844389,0.49999999999999956 l -0.8660254037844386,-0.5000000000000001 l -0.8660254037844386,-0.5000000000000001 l 0.8660254037844384,-0.5000000000000004 l 0.866025403784439,0.4999999999999993 l -1.8369701987210297e-16,-1.0 l -0.8660254037844386,-0.5000000000000001 l -0.8660254037844389,0.49999999999999956 l -0.8660254037844386,-0.5000000000000001 l 0.8660254037844384,-0.5000000000000004 l -1.8369701987210297e-16,-1.0 l -0.8660254037844389,0.49999999999999956 l -0.8660254037844389,0.49999999999999956 l -6.049014748177263e-16,1.0 l -0.8660254037844389,0.49999999999999956 l -0.8660254037844386,-0.5000000000000001 l -0.8660254037844386,-0.5000000000000001 l 0.8660254037844384,-0.5000000000000004 l 0.866025403784439,0.4999999999999993 l -1.8369701987210297e-16,-1.0 l -0.8660254037844386,-0.5000000000000001 l -0.8660254037844389,0.49999999999999956 l -0.8660254037844386,-0.5000000000000001 l -0.8660254037844386,-0.5000000000000001 l 0.8660254037844384,-0.5000000000000004 l 0.866025403784439,0.4999999999999993 l -1.8369701987210297e-16,-1.0 l -0.8660254037844386,-0.5000000000000001 l -1.8369701987210297e-16,-1.0 l 0.8660254037844384,-0.5000000000000004 l 0.8660254037844384,-0.5000000000000004 l 1.1943401194869635e-15,1.0 l -0.8660254037844379,0.5000000000000013 l 0.866025403784439,0.4999999999999993 l 0.8660254037844384,-0.5000000000000004 l 0.866025403784439,0.4999999999999993 l 1.1943401194869635e-15,1.0 l -0.8660254037844392,-0.49999999999999917 l -0.8660254037844379,0.5000000000000013 l 0.866025403784439,0.4999999999999993 l 0.866025403784439,0.4999999999999993 l 0.8660254037844384,-0.5000000000000004 l -1.8369701987210297e-16,-1.0 l 0.8660254037844384,-0.5000000000000004 l 1.1943401194869635e-15,1.0 l 0.866025403784439,0.4999999999999993 l -1.8369701987210297e-16,-1.0 l -1.8369701987210297e-16,-1.0 l -0.8660254037844386,-0.5000000000000001 l -0.8660254037844389,0.49999999999999956 l -0.8660254037844386,-0.5000000000000001 l -0.8660254037844386,-0.5000000000000001 l 0.8660254037844384,-0.5000000000000004 l 0.866025403784439,0.4999999999999993 l -1.8369701987210297e-16,-1.0 l -0.8660254037844386,-0.5000000000000001 l -0.8660254037844389,0.49999999999999956 l -0.8660254037844386,-0.5000000000000001 l 0.8660254037844384,-0.5000000000000004 l -1.8369701987210297e-16,-1.0 l -0.8660254037844389,0.49999999999999956 l -0.8660254037844389,0.49999999999999956 l -6.049014748177263e-16,1.0 l -0.8660254037844389,0.49999999999999956 l -0.8660254037844386,-0.5000000000000001 l -0.8660254037844386,-0.5000000000000001 l 0.8660254037844384,-0.5000000000000004 l 0.866025403784439,0.4999999999999993 l -1.8369701987210297e-16,-1.0 l -0.8660254037844386,-0.5000000000000001 l -1.8369701987210297e-16,-1.0 l 0.8660254037844384,-0.5000000000000004 l 0.8660254037844384,-0.5000000000000004 l 1.1943401194869635e-15,1.0 l -0.8660254037844379,0.5000000000000013 l 0.866025403784439,0.4999999999999993 l 0.8660254037844384,-0.5000000000000004 l -1.8369701987210297e-16,-1.0 l 0.8660254037844384,-0.5000000000000004 l 1.1943401194869635e-15,1.0 l 0.866025403784439,0.4999999999999993 l -1.8369701987210297e-16,-1.0 l -1.8369701987210297e-16,-1.0 l -0.8660254037844386,-0.5000000000000001 l -0.8660254037844389,0.49999999999999956 l -0.8660254037844386,-0.5000000000000001 l 0.8660254037844384,-0.5000000000000004 l -1.8369701987210297e-16,-1.0 l -0.8660254037844389,0.49999999999999956 l -0.8660254037844389,0.49999999999999956 l -6.049014748177263e-16,1.0 l -0.8660254037844389,0.49999999999999956 l -0.8660254037844386,-0.5000000000000001 l 0.8660254037844384,-0.5000000000000004 l -1.8369701987210297e-16,-1.0 l -0.8660254037844389,0.49999999999999956 l -0.8660254037844389,0.49999999999999956 l -6.049014748177263e-16,1.0 l 0.8660254037844383,0.5000000000000007 l -6.049014748177263e-16,1.0 l -6.049014748177263e-16,1.0 l -0.8660254037844386,-0.5000000000000001 l -1.8369701987210297e-16,-1.0 l -0.8660254037844389,0.49999999999999956 l -6.049014748177263e-16,1.0 l -0.8660254037844389,0.49999999999999956 l -0.8660254037844386,-0.5000000000000001 l 0.8660254037844384,-0.5000000000000004 l -1.8369701987210297e-16,-1.0 l -0.8660254037844389,0.49999999999999956 l -0.8660254037844389,0.49999999999999956 l -6.049014748177263e-16,1.0 l -0.8660254037844389,0.49999999999999956 l -0.8660254037844386,-0.5000000000000001 l -0.8660254037844386,-0.5000000000000001 l 0.8660254037844384,-0.5000000000000004 l 0.866025403784439,0.4999999999999993 l -1.8369701987210297e-16,-1.0 l -0.8660254037844386,-0.5000000000000001 l -0.8660254037844389,0.49999999999999956 l -0.8660254037844386,-0.5000000000000001 l -0.8660254037844386,-0.5000000000000001 l 0.8660254037844384,-0.5000000000000004 l 0.866025403784439,0.4999999999999993 l -1.8369701987210297e-16,-1.0 l -0.8660254037844386,-0.5000000000000001 l -1.8369701987210297e-16,-1.0 l 0.8660254037844384,-0.5000000000000004 l 0.8660254037844384,-0.5000000000000004 l 1.1943401194869635e-15,1.0 l -0.8660254037844379,0.5000000000000013 l 0.866025403784439,0.4999999999999993 l 0.8660254037844384,-0.5000000000000004 l 0.866025403784439,0.4999999999999993 l 1.1943401194869635e-15,1.0 l -0.8660254037844392,-0.49999999999999917 l -0.8660254037844379,0.5000000000000013 l 0.866025403784439,0.4999999999999993 l 0.866025403784439,0.4999999999999993 l 0.8660254037844384,-0.5000000000000004 l -1.8369701987210297e-16,-1.0 l 0.8660254037844384,-0.5000000000000004 l 1.1943401194869635e-15,1.0 l 0.866025403784439,0.4999999999999993 l -1.8369701987210297e-16,-1.0 l -1.8369701987210297e-16,-1.0 l -0.8660254037844386,-0.5000000000000001 l -0.8660254037844389,0.49999999999999956 l -0.8660254037844386,-0.5000000000000001 l -0.8660254037844386,-0.5000000000000001 l 0.8660254037844384,-0.5000000000000004 l 0.866025403784439,0.4999999999999993 l -1.8369701987210297e-16,-1.0 l -0.8660254037844386,-0.5000000000000001 l -0.8660254037844389,0.49999999999999956 l -0.8660254037844386,-0.5000000000000001 l 0.8660254037844384,-0.5000000000000004 l -1.8369701987210297e-16,-1.0 l -0.8660254037844389,0.49999999999999956 l -0.8660254037844389,0.49999999999999956 l -6.049014748177263e-16,1.0 l -0.8660254037844389,0.49999999999999956 l -0.8660254037844386,-0.5000000000000001 l -0.8660254037844386,-0.5000000000000001 l 0.8660254037844384,-0.5000000000000004 l 0.866025403784439,0.4999999999999993 l -1.8369701987210297e-16,-1.0 l -0.8660254037844386,-0.5000000000000001 l -0.8660254037844389,0.49999999999999956 l -0.8660254037844386,-0.5000000000000001 l -0.8660254037844386,-0.5000000000000001 l 0.8660254037844384,-0.5000000000000004 l 0.866025403784439,0.4999999999999993 l -1.8369701987210297e-16,-1.0 l -0.8660254037844386,-0.5000000000000001 l -1.8369701987210297e-16,-1.0 l 0.8660254037844384,-0.5000000000000004 l 0.8660254037844384,-0.5000000000000004 l 1.1943401194869635e-15,1.0 l -0.8660254037844379,0.5000000000000013 l 0.866025403784439,0.4999999999999993 l 0.8660254037844384,-0.5000000000000004 l 0.866025403784439,0.4999999999999993 l 1.1943401194869635e-15,1.0 l -0.8660254037844392,-0.49999999999999917 l -0.8660254037844379,0.5000000000000013 l 0.866025403784439,0.4999999999999993 l 0.866025403784439,0.4999999999999993 l 0.8660254037844384,-0.5000000000000004 l -1.8369701987210297e-16,-1.0 l 0.8660254037844384,-0.5000000000000004 l 1.1943401194869635e-15,1.0 l 0.866025403784439,0.4999999999999993 l -1.8369701987210297e-16,-1.0 l -1.8369701987210297e-16,-1.0 l -0.8660254037844386,-0.5000000000000001 l -0.8660254037844389,0.49999999999999956 l -0.8660254037844386,-0.5000000000000001 l -0.8660254037844386,-0.5000000000000001 l 0.8660254037844384,-0.5000000000000004 l 0.866025403784439,0.4999999999999993 l -1.8369701987210297e-16,-1.0 l -0.8660254037844386,-0.5000000000000001 l -1.8369701987210297e-16,-1.0 l 0.8660254037844384,-0.5000000000000004 l 1.1943401194869635e-15,1.0 l 0.866025403784439,0.4999999999999993 l -1.8369701987210297e-16,-1.0 l -1.8369701987210297e-16,-1.0 l -0.8660254037844386,-0.5000000000000001 l -1.8369701987210297e-16,-1.0 l 0.8660254037844384,-0.5000000000000004 l 0.8660254037844384,-0.5000000000000004 l 1.1943401194869635e-15,1.0 l -0.8660254037844379,0.5000000000000013 l 0.866025403784439,0.4999999999999993 l 0.8660254037844384,-0.5000000000000004 l -1.8369701987210297e-16,-1.0 l 0.8660254037844384,-0.5000000000000004 l 0.8660254037844384,-0.5000000000000004 l 1.1943401194869635e-15,1.0 l -0.8660254037844379,0.5000000000000013 l 0.866025403784439,0.4999999999999993 l 0.8660254037844384,-0.5000000000000004 l 0.866025403784439,0.4999999999999993 l 1.1943401194869635e-15,1.0 l 1.1943401194869635e-15,1.0 l -0.8660254037844392,-0.49999999999999917 l -4.286263797015736e-16,-1.0 l -0.8660254037844379,0.5000000000000013 l 1.1943401194869635e-15,1.0 l -0.8660254037844379,0.5000000000000013 l -0.8660254037844392,-0.49999999999999917 l 0.8660254037844387,-0.4999999999999999 l -4.286263797015736e-16,-1.0 l -0.8660254037844379,0.5000000000000013 l -0.8660254037844379,0.5000000000000013 l 1.1943401194869635e-15,1.0 l 0.866025403784439,0.4999999999999993 l 1.1943401194869635e-15,1.0 l -0.8660254037844392,-0.49999999999999917 l -0.8660254037844379,0.5000000000000013 l 0.866025403784439,0.4999999999999993 l 0.866025403784439,0.4999999999999993 l 0.8660254037844384,-0.5000000000000004 l -1.8369701987210297e-16,-1.0 l 0.8660254037844384,-0.5000000000000004 l 0.8660254037844384,-0.5000000000000004 l 1.1943401194869635e-15,1.0 l -0.8660254037844379,0.5000000000000013 l 0.866025403784439,0.4999999999999993 l 0.8660254037844384,-0.5000000000000004 l 0.866025403784439,0.4999999999999993 l 1.1943401194869635e-15,1.0 l -0.8660254037844392,-0.49999999999999917 l -0.8660254037844379,0.5000000000000013 l 0.866025403784439,0.4999999999999993 l 0.866025403784439,0.4999999999999993 l 0.8660254037844384,-0.5000000000000004 l 0.866025403784439,0.4999999999999993 l 1.1943401194869635e-15,1.0 l 1.1943401194869635e-15,1.0 l -0.8660254037844392,-0.49999999999999917 l -4.286263797015736e-16,-1.0 l -0.8660254037844379,0.5000000000000013 l 1.1943401194869635e-15,1.0 l -0.8660254037844379,0.5000000000000013 l -0.8660254037844392,-0.49999999999999917 l -0.8660254037844392,-0.49999999999999917 l 0.8660254037844387,-0.4999999999999999 l 0.8660254037844383,0.5000000000000006 l -4.286263797015736e-16,-1.0 l -0.8660254037844392,-0.49999999999999917 l -0.8660254037844379,0.5000000000000013 l -0.8660254037844392,-0.49999999999999917 l 0.8660254037844387,-0.4999999999999999 l -4.286263797015736e-16,-1.0 l -0.8660254037844379,0.5000000000000013 l -0.8660254037844379,0.5000000000000013 l 1.1943401194869635e-15,1.0 l 0.866025403784439,0.4999999999999993 l 1.1943401194869635e-15,1.0 l -0.8660254037844392,-0.49999999999999917 l -0.8660254037844379,0.5000000000000013 l 0.866025403784439,0.4999999999999993 l 0.866025403784439,0.4999999999999993 l 0.8660254037844384,-0.5000000000000004 l 0.866025403784439,0.4999999999999993 l 1.1943401194869635e-15,1.0 l -0.8660254037844392,-0.49999999999999917 l -0.8660254037844379,0.5000000000000013 l 0.866025403784439,0.4999999999999993 l 0.866025403784439,0.4999999999999993 l 0.8660254037844384,-0.5000000000000004 l -1.8369701987210297e-16,-1.0 l 0.8660254037844384,-0.5000000000000004 l 0.8660254037844384,-0.5000000000000004 l 1.1943401194869635e-15,1.0 l -0.8660254037844379,0.5000000000000013 l 0.866025403784439,0.4999999999999993 l 0.8660254037844384,-0.5000000000000004 l -1.8369701987210297e-16,-1.0 l 0.8660254037844384,-0.5000000000000004 l 1.1943401194869635e-15,1.0 l 0.866025403784439,0.4999999999999993 l -1.8369701987210297e-16,-1.0 l -1.8369701987210297e-16,-1.0 l -0.8660254037844386,-0.5000000000000001 l -1.8369701987210297e-16,-1.0 l 0.8660254037844384,-0.5000000000000004 l 0.8660254037844384,-0.5000000000000004 l 1.1943401194869635e-15,1.0 l -0.8660254037844379,0.5000000000000013 l 0.866025403784439,0.4999999999999993 l 0.8660254037844384,-0.5000000000000004 l 0.866025403784439,0.4999999999999993 l 1.1943401194869635e-15,1.0 l 1.1943401194869635e-15,1.0 l -0.8660254037844392,-0.49999999999999917 l -4.286263797015736e-16,-1.0 l -0.8660254037844379,0.5000000000000013 l 1.1943401194869635e-15,1.0 l 0.866025403784439,0.4999999999999993 l 1.1943401194869635e-15,1.0 l -0.8660254037844392,-0.49999999999999917 l -0.8660254037844379,0.5000000000000013 l 0.866025403784439,0.4999999999999993 l 0.866025403784439,0.4999999999999993 l 0.8660254037844384,-0.5000000000000004 l -1.8369701987210297e-16,-1.0 l 0.8660254037844384,-0.5000000000000004 l 1.1943401194869635e-15,1.0 l 0.866025403784439,0.4999999999999993 l -1.8369701987210297e-16,-1.0 l -1.8369701987210297e-16,-1.0 l -0.8660254037844386,-0.5000000000000001 l -1.8369701987210297e-16,-1.0 l 0.8660254037844384,-0.5000000000000004 l 1.1943401194869635e-15,1.0 l 0.866025403784439,0.4999999999999993 l -1.8369701987210297e-16,-1.0 l -1.8369701987210297e-16,-1.0 l -0.8660254037844386,-0.5000000000000001 l -0.8660254037844389,0.49999999999999956 l -0.8660254037844386,-0.5000000000000001 l -0.8660254037844386,-0.5000000000000001 l 0.8660254037844384,-0.5000000000000004 l 0.866025403784439,0.4999999999999993 l -1.8369701987210297e-16,-1.0 l -0.8660254037844386,-0.5000000000000001 l -0.8660254037844389,0.49999999999999956 l -0.8660254037844386,-0.5000000000000001 l 0.8660254037844384,-0.5000000000000004 l -1.8369701987210297e-16,-1.0 l -0.8660254037844389,0.49999999999999956 l -0.8660254037844389,0.49999999999999956 l -6.049014748177263e-16,1.0 l -0.8660254037844389,0.49999999999999956 l -0.8660254037844386,-0.5000000000000001 l -0.8660254037844386,-0.5000000000000001 l 0.8660254037844384,-0.5000000000000004 l 0.866025403784439,0.4999999999999993 l -1.8369701987210297e-16,-1.0 l -0.8660254037844386,-0.5000000000000001 l -0.8660254037844389,0.49999999999999956 l -0.8660254037844386,-0.5000000000000001 l -0.8660254037844386,-0.5000000000000001 l 0.8660254037844384,-0.5000000000000004 l 0.866025403784439,0.4999999999999993 l -1.8369701987210297e-16,-1.0 l -0.8660254037844386,-0.5000000000000001 l -1.8369701987210297e-16,-1.0 l 0.8660254037844384,-0.5000000000000004 l 0.8660254037844384,-0.5000000000000004 l 1.1943401194869635e-15,1.0 l -0.8660254037844379,0.5000000000000013 l 0.866025403784439,0.4999999999999993 l 0.8660254037844384,-0.5000000000000004 l 0.866025403784439,0.4999999999999993 l 1.1943401194869635e-15,1.0 l -0.8660254037844392,-0.49999999999999917 l -0.8660254037844379,0.5000000000000013 l 0.866025403784439,0.4999999999999993 l 0.866025403784439,0.4999999999999993 l 0.8660254037844384,-0.5000000000000004 l -1.8369701987210297e-16,-1.0 l 0.8660254037844384,-0.5000000000000004 l 1.1943401194869635e-15,1.0 l 0.866025403784439,0.4999999999999993 l -1.8369701987210297e-16,-1.0 l -1.8369701987210297e-16,-1.0 l -0.8660254037844386,-0.5000000000000001 l -0.8660254037844389,0.49999999999999956 l -0.8660254037844386,-0.5000000000000001 l -0.8660254037844386,-0.5000000000000001 l 0.8660254037844384,-0.5000000000000004 l 0.866025403784439,0.4999999999999993 l -1.8369701987210297e-16,-1.0 l -0.8660254037844386,-0.5000000000000001 " style="stroke-linecap:square;stroke:#50514F;stroke-width:0.2px;fill:none" /></g></svg>