<?xml version="1.0" encoding="UTF-8"?>
<!DOCTYPE svg PUBLIC "-//W3C//DTD SVG 1.1//EN"
    "http://www.w3.org/Graphics/SVG/1.1/DTD/svg11.dtd">
<svg xmlns="http://www.w3.org/2000/svg" xmlns:xlink="http://www.w3.org/1999/xlink" version="1.1" width="433.0127018922195" height="500" viewBox="-5.939696961967005 -6.858571279792902 11.879393923934014 13.71714255958581"><g><rect x="-5.939696961967005" y="-6.858571279792902" width="11.879393923934014" height="13.71714255958581" fill="#CBD4C2" /><path d="M 0,0 l 0.7071067811865476,0.4082482904638631 l 4.329780281177467e-17,-0.8164965809277261 l -0.7071067811865476,-0.4082482904638632 l -0.7071067811865476,0.408248290463863 l 0.7071067811865476,0.4082482904638631 l -1.29893408435324e-16,0.8164965809277261 l -0.7071067811865476,-0.4082482904638631 l -0.7071067811865477,0.40824829046386285 l -0.7071067811865476,0.4082482904638629 l 0.7071067811865476,0.4082482904638631 l 0.7071067811865476,-0.408248290463863 l 1.2989340843532396e-16,-0.8164965809277261 l -0.7071067811865476,0.4082482904638629 l -0.7071067811865476,-0.4082482904638632 l 0.7071067811865476,-0.4082482904638629 l 3.030846196824227e-16,-0.8164965809277261 l -0.7071067811865477,0.4082482904638628 l 3.030846196824227e-16,-0.8164965809277261 l 0.7071067811865477,-0.40824829046386285 l 0.7071067811865475,0.40824829046386324 l -0.7071067811865476,0.408248290463863 l -1.2989340843532398e-16,0.816496580927726 l 0.7071067811865476,-0.408248290463863 l 0.7071067811865477,-0.40824829046386296 l 4.329780281177465e-17,-0.8164965809277261 l -0.7071067811865475,-0.40824829046386324 l 4.329780281177468e-17,0.8164965809277261 l 0.7071067811865477,-0.40824829046386296 l 4.329780281177467e-17,-0.8164965809277261 l 0.7071067811865475,0.408248290463863 l -1.2989340843532398e-16,0.8164965809277261 l 0.7071067811865476,0.4082482904638631 l 4.329780281177465e-17,-0.8164965809277261 l 0.7071067811865476,0.4082482904638631 l -1.2989340843532398e-16,0.816496580927726 l -0.7071067811865476,0.40824829046386313 l 4.329780281177464e-17,-0.816496580927726 l -0.7071067811865476,-0.4082482904638633 l 4.3297802811774695e-17,0.8164965809277261 l -0.7071067811865474,0.40824829046386324 l -0.7071067811865474,0.40824829046386324 l -4.3297802811774695e-17,-0.8164965809277261 l 0.7071067811865474,-0.40824829046386335 l 0.7071067811865478,0.40824829046386296 l -0.7071067811865474,0.40824829046386346 l 2.1648901405887333e-16,0.816496580927726 l 0.7071067811865474,-0.40824829046386346 l 4.329780281177465e-17,0.8164965809277259 l -0.7071067811865475,0.40824829046386335 l -0.7071067811865477,-0.40824829046386324 l 0.7071067811865475,-0.4082482904638633 l -4.329780281177475e-17,0.8164965809277259 l -0.7071067811865475,0.40824829046386335 l 0.7071067811865477,0.4082482904638633 l 0.7071067811865475,-0.40824829046386335 l 0.7071067811865474,-0.4082482904638634 l -0.7071067811865478,-0.40824829046386335 l 1.298934084353241e-16,-0.8164965809277258 l 0.7071067811865478,0.40824829046386324 l 0.7071067811865474,-0.4082482904638634 l -0.7071067811865478,-0.40824829046386335 l -4.3297802811774726e-17,0.8164965809277258 l 0.7071067811865478,0.40824829046386335 l 0.7071067811865476,0.40824829046386346 l 3.0308461968242283e-16,-0.8164965809277257 l 0.7071067811865476,0.4082482904638637 l -3.896802253059721e-16,0.8164965809277257 l -0.7071067811865476,0.4082482904638634 l 3.0308461968242274e-16,-0.8164965809277256 l -0.7071067811865476,-0.40824829046386385 l -2.1648901405887338e-16,0.8164965809277256 l -0.7071067811865474,0.4082482904638635 l -0.7071067811865474,0.4082482904638635 l 2.1648901405887338e-16,-0.8164965809277256 l 0.7071067811865474,-0.40824829046386363 l 0.7071067811865478,0.4082482904638636 l -0.7071067811865474,0.4082482904638638 l -4.3297802811774726e-17,0.8164965809277255 l 0.7071067811865474,-0.4082482904638638 l 0.7071067811865478,0.4082482904638636 l -0.7071067811865474,0.4082482904638637 l 0.7071067811865478,0.40824829046386363 l 0.7071067811865474,-0.4082482904638638 l 2.1648901405887338e-16,-0.8164965809277256 l -0.7071067811865474,0.4082482904638637 l -0.7071067811865478,-0.4082482904638637 l 0.7071067811865474,-0.4082482904638637 l 0.7071067811865474,-0.40824829046386363 l 0.7071067811865478,0.40824829046386385 l -3.0308461968242254e-16,0.8164965809277255 l -0.7071067811865478,-0.40824829046386374 l 0.7071067811865474,-0.40824829046386363 l 0.7071067811865478,0.40824829046386385 l 3.896802253059719e-16,-0.8164965809277255 l -0.7071067811865478,-0.40824829046386385 l 5.628714365530705e-16,-0.8164965809277256 l 0.7071067811865478,0.4082482904638638 l 5.628714365530705e-16,-0.8164965809277256 l -0.7071067811865478,-0.4082482904638639 l -0.7071067811865474,0.40824829046386346 l 0.7071067811865478,0.4082482904638638 l -6.494670421766199e-16,0.8164965809277256 l -0.7071067811865478,-0.4082482904638638 l -0.7071067811865474,0.40824829046386335 l -0.7071067811865474,0.40824829046386335 l 0.7071067811865478,0.4082482904638638 l 0.7071067811865474,-0.40824829046386346 l 6.4946704217662e-16,-0.8164965809277256 l -0.7071067811865474,0.40824829046386335 l -0.7071067811865478,-0.4082482904638639 l 0.7071067811865474,-0.40824829046386335 l -0.7071067811865478,-0.40824829046386407 l -0.7071067811865474,0.40824829046386335 l -9.092538590472679e-16,0.8164965809277256 l 0.7071067811865474,-0.40824829046386324 l -0.7071067811865478,-0.40824829046386407 l -0.7071067811865475,0.4082482904638631 l 1.0824450702943666e-15,-0.8164965809277256 l 0.7071067811865475,-0.4082482904638631 l 0.7071067811865474,-0.40824829046386313 l -9.958494646708173e-16,0.8164965809277256 l 0.7071067811865478,0.40824829046386407 l 9.092538590472679e-16,-0.8164965809277257 l 0.7071067811865474,-0.40824829046386313 l -8.226582534237186e-16,0.8164965809277257 l -0.7071067811865478,-0.40824829046386385 l 9.092538590472679e-16,-0.8164965809277256 l 9.092538590472679e-16,-0.8164965809277256 l 1.0824450702943666e-15,-0.8164965809277255 l 0.7071067811865476,0.4082482904638643 l -1.1690406759179158e-15,0.8164965809277255 l -0.7071067811865476,0.40824829046386313 l 1.0824450702943666e-15,-0.8164965809277255 l -0.7071067811865476,-0.40824829046386446 l -9.958494646708173e-16,0.8164965809277255 l -0.7071067811865474,0.40824829046386324 l -0.7071067811865474,0.40824829046386324 l 9.958494646708173e-16,-0.8164965809277255 l 0.7071067811865474,-0.40824829046386335 l 0.7071067811865478,0.4082482904638642 l -0.7071067811865474,0.40824829046386346 l -8.226582534237188e-16,0.8164965809277254 l 0.7071067811865474,-0.40824829046386346 l 0.7071067811865478,0.4082482904638642 l -0.7071067811865474,0.40824829046386335 l 0.7071067811865478,0.4082482904638642 l 0.7071067811865474,-0.40824829046386346 l 9.958494646708175e-16,-0.8164965809277254 l -0.7071067811865474,0.40824829046386335 l -0.7071067811865478,-0.4082482904638643 l 0.7071067811865474,-0.40824829046386335 l 0.7071067811865474,-0.40824829046386335 l 0.7071067811865478,0.40824829046386446 l -1.0824450702943668e-15,0.8164965809277253 l -0.7071067811865478,-0.40824829046386435 l 0.7071067811865474,-0.40824829046386335 l 0.7071067811865478,0.40824829046386446 l 1.169040675917916e-15,-0.8164965809277254 l -0.7071067811865478,-0.40824829046386446 l 1.3422318871650147e-15,-0.8164965809277254 l 0.7071067811865478,0.4082482904638644 l 1.3422318871650147e-15,-0.8164965809277254 l -0.7071067811865478,-0.4082482904638645 l -0.7071067811865474,0.4082482904638632 l 0.7071067811865478,0.4082482904638644 l -1.428827492788564e-15,0.8164965809277254 l -0.7071067811865478,-0.4082482904638644 l -0.7071067811865474,0.408248290463863 l -0.7071067811865474,0.4082482904638631 l 0.7071067811865478,0.4082482904638644 l 0.7071067811865474,-0.4082482904638632 l 1.428827492788564e-15,-0.8164965809277254 l -0.7071067811865474,0.4082482904638631 l -0.7071067811865478,-0.4082482904638645 l 0.7071067811865474,-0.4082482904638631 l -0.7071067811865478,-0.4082482904638647 l -0.7071067811865474,0.408248290463863 l -1.6886143096592117e-15,0.8164965809277254 l 0.7071067811865474,-0.4082482904638629 l -0.7071067811865478,-0.4082482904638647 l -0.7071067811865475,0.4082482904638628 l 1.8618055209063103e-15,-0.8164965809277255 l 0.7071067811865475,-0.4082482904638628 l 0.7071067811865474,-0.4082482904638628 l -1.7752099152827614e-15,0.8164965809277256 l 0.7071067811865478,0.4082482904638647 l 1.6886143096592121e-15,-0.8164965809277256 l 0.7071067811865474,-0.4082482904638628 l -1.6020187040356627e-15,0.8164965809277255 l -0.7071067811865478,-0.40824829046386446 l 1.6886143096592121e-15,-0.8164965809277255 l -0.7071067811865476,-0.4082482904638648 l -0.7071067811865477,0.4082482904638628 l -0.7071067811865475,-0.4082482904638649 l 0.7071067811865477,-0.4082482904638627 l -1.8618055209063103e-15,0.8164965809277254 l -0.7071067811865477,0.4082482904638628 l 0.7071067811865475,0.408248290463865 l 0.7071067811865477,-0.4082482904638628 l -1.8618055209063103e-15,0.8164965809277253 l -0.7071067811865476,0.4082482904638629 l -1.8618055209063103e-15,0.8164965809277253 l 0.7071067811865476,-0.4082482904638628 l -0.7071067811865476,-0.40824829046386496 l -0.7071067811865477,0.4082482904638627 l 2.0349967321534088e-15,-0.8164965809277254 l 0.7071067811865477,-0.4082482904638627 l -0.7071067811865476,-0.40824829046386496 l -0.7071067811865476,0.4082482904638628 l -1.9484011265298597e-15,0.8164965809277253 l 0.7071067811865476,-0.40824829046386274 l -0.7071067811865476,-0.40824829046386496 l -0.7071067811865477,0.4082482904638626 l 2.1215923377769582e-15,-0.8164965809277254 l 0.7071067811865477,-0.4082482904638626 l 2.1215923377769582e-15,-0.8164965809277254 l 0.7071067811865476,0.40824829046386507 l 2.1215923377769582e-15,-0.8164965809277254 l -0.7071067811865476,-0.4082482904638652 l -0.7071067811865476,0.40824829046386263 l 0.7071067811865476,0.40824829046386507 l -2.2081879434005077e-15,0.8164965809277254 l -0.7071067811865476,-0.40824829046386507 l -0.7071067811865477,0.40824829046386246 l 0.7071067811865475,0.408248290463865 l 2.1215923377769582e-15,-0.8164965809277254 l -0.7071067811865475,-0.4082482904638651 l -0.7071067811865477,0.40824829046386246 l 0.7071067811865475,0.408248290463865 l -2.2081879434005077e-15,0.8164965809277255 l -0.7071067811865475,-0.408248290463865 l -2.2081879434005077e-15,0.8164965809277256 l 0.7071067811865478,-0.40824829046386224 l -2.2081879434005077e-15,0.8164965809277256 l -0.7071067811865478,0.4082482904638623 l 0.7071067811865474,0.40824829046386507 l 0.7071067811865478,-0.40824829046386235 l 2.0349967321534088e-15,-0.8164965809277255 l -0.7071067811865478,0.40824829046386235 l 0.7071067811865474,0.40824829046386507 l 0.7071067811865478,-0.4082482904638623 l -2.1215923377769582e-15,0.8164965809277256 l -0.7071067811865478,0.4082482904638624 l 0.7071067811865474,0.40824829046386507 l 0.7071067811865478,-0.40824829046386246 l 1.9484011265298597e-15,-0.8164965809277255 l -0.7071067811865478,0.40824829046386246 l 1.9484011265298597e-15,-0.8164965809277255 l 0.7071067811865477,-0.4082482904638626 l -0.7071067811865475,-0.40824829046386485 l -0.7071067811865477,0.40824829046386246 l 1.8618055209063107e-15,-0.8164965809277256 l 0.7071067811865477,-0.4082482904638626 l 0.7071067811865475,0.40824829046386474 l -0.7071067811865477,0.4082482904638626 l -0.7071067811865478,0.40824829046386246 l -0.7071067811865479,0.4082482904638625 l -0.7071067811865472,-0.408248290463865 l 0.7071067811865479,-0.4082482904638624 l -1.8618055209063103e-15,0.8164965809277255 l -0.7071067811865479,0.4082482904638625 l 0.7071067811865472,0.40824829046386507 l 0.7071067811865479,-0.4082482904638625 l -1.8618055209063103e-15,0.8164965809277254 l -0.7071067811865478,0.4082482904638627 l -1.8618055209063103e-15,0.8164965809277254 l 0.7071067811865478,-0.4082482904638626 l -0.7071067811865474,-0.408248290463865 l -0.7071067811865479,0.4082482904638624 l 2.0349967321534088e-15,-0.8164965809277255 l 0.7071067811865479,-0.4082482904638624 l -0.7071067811865474,-0.408248290463865 l -0.7071067811865478,0.4082482904638626 l -1.9484011265298597e-15,0.8164965809277255 l 0.7071067811865478,-0.40824829046386246 l -0.7071067811865474,-0.408248290463865 l -0.7071067811865479,0.4082482904638623 l 2.1215923377769582e-15,-0.8164965809277256 l 0.7071067811865479,-0.4082482904638623 l 2.1215923377769582e-15,-0.8164965809277254 l 0.7071067811865474,0.4082482904638651 l 2.1215923377769582e-15,-0.8164965809277254 l -0.7071067811865474,-0.40824829046386524 l -0.7071067811865478,0.40824829046386235 l 0.7071067811865474,0.4082482904638651 l -2.2081879434005073e-15,0.8164965809277255 l -0.7071067811865474,-0.4082482904638651 l -0.7071067811865479,0.40824829046386224 l 0.7071067811865472,0.40824829046386507 l 2.1215923377769582e-15,-0.8164965809277256 l -0.7071067811865472,-0.4082482904638652 l -0.7071067811865479,0.40824829046386224 l 0.7071067811865472,0.40824829046386507 l -2.2081879434005077e-15,0.8164965809277256 l -0.7071067811865472,-0.40824829046386507 l -2.2081879434005077e-15,0.8164965809277257 l 0.707106781186548,-0.40824829046386196 l -2.2081879434005077e-15,0.8164965809277257 l -0.707106781186548,0.4082482904638621 l 0.7071067811865471,0.4082482904638651 l 0.7071067811865481,-0.40824829046386213 l 2.0349967321534088e-15,-0.8164965809277256 l -0.7071067811865481,0.40824829046386213 l 0.7071067811865471,0.4082482904638651 l 0.707106781186548,-0.4082482904638621 l -2.1215923377769582e-15,0.8164965809277256 l -0.707106781186548,0.4082482904638622 l 0.7071067811865471,0.4082482904638651 l 0.7071067811865481,-0.40824829046386224 l 1.9484011265298597e-15,-0.8164965809277255 l -0.7071067811865481,0.40824829046386224 l 1.94840112652986e-15,-0.8164965809277257 l 0.7071067811865479,-0.4082482904638623 l -0.7071067811865472,-0.4082482904638649 l -0.7071067811865479,0.40824829046386224 l 1.8618055209063107e-15,-0.8164965809277257 l 0.7071067811865479,-0.4082482904638623 l 0.7071067811865472,0.4082482904638648 l -0.7071067811865479,0.4082482904638623 l 0.707106781186547,0.40824829046386474 l -1.602018704035663e-15,0.8164965809277258 l 0.707106781186547,0.4082482904638646 l 1.5154230984121136e-15,-0.8164965809277259 l 0.7071067811865481,-0.40824829046386224 l -1.4288274927885642e-15,0.8164965809277258 l -0.707106781186547,-0.40824829046386446 l 1.5154230984121136e-15,-0.8164965809277257 l 0.7071067811865482,-0.40824829046386213 l 0.7071067811865482,-0.40824829046386213 l -1.5154230984121136e-15,0.8164965809277257 l -0.7071067811865482,0.40824829046386224 l 0.7071067811865469,0.40824829046386474 l 0.7071067811865483,-0.4082482904638623 l 1.3422318871650147e-15,-0.8164965809277256 l -0.7071067811865483,0.4082482904638623 l 0.7071067811865469,0.40824829046386474 l 0.7071067811865483,-0.4082482904638622 l 0.7071067811865468,0.40824829046386474 l -0.7071067811865483,0.4082482904638623 l -1.342231887165015e-15,0.8164965809277258 l 0.7071067811865483,-0.4082482904638622 l -0.7071067811865468,-0.4082482904638646 l -0.7071067811865483,0.4082482904638622 l -0.7071067811865482,0.40824829046386224 l 0.7071067811865469,0.40824829046386446 l 1.2556362815414657e-15,-0.8164965809277258 l -0.7071067811865469,-0.40824829046386457 l -0.7071067811865482,0.40824829046386224 l 0.7071067811865469,0.40824829046386446 l -1.3422318871650151e-15,0.8164965809277258 l -0.7071067811865469,-0.40824829046386446 l -1.3422318871650153e-15,0.816496580927726 l 0.7071067811865468,0.4082482904638645 l -1.3422318871650153e-15,0.816496580927726 l -0.7071067811865468,-0.4082482904638644 l 0.7071067811865483,-0.40824829046386196 l 0.7071067811865468,0.4082482904638645 l 1.4288274927885646e-15,-0.816496580927726 l -0.7071067811865468,-0.4082482904638645 l 0.7071067811865482,-0.4082482904638619 l 0.7071067811865483,-0.40824829046386185 l 0.7071067811865468,0.4082482904638645 l -0.7071067811865483,0.40824829046386196 l -1.4288274927885646e-15,0.816496580927726 l 0.7071067811865483,-0.40824829046386185 l -0.7071067811865468,-0.4082482904638644 l -0.7071067811865483,0.40824829046386185 l -0.7071067811865469,-0.40824829046386424 l 0.7071067811865482,-0.4082482904638619 l 1.3422318871650155e-15,-0.8164965809277263 l -0.7071067811865482,0.4082482904638618 l -0.7071067811865469,-0.40824829046386424 l 0.7071067811865481,-0.4082482904638618 l -1.5154230984121138e-15,0.8164965809277264 l -0.7071067811865481,0.4082482904638618 l -0.7071067811865482,0.40824829046386174 l 1.602018704035663e-15,-0.8164965809277263 l 0.7071067811865469,0.40824829046386424 l -1.6886143096592121e-15,0.8164965809277263 l -0.7071067811865482,0.40824829046386174 l 1.602018704035663e-15,-0.8164965809277261 l -0.7071067811865469,-0.40824829046386446 l -1.5154230984121138e-15,0.8164965809277261 l -1.5154230984121138e-15,0.8164965809277261 l -1.3422318871650151e-15,0.8164965809277263 l 0.707106781186547,0.40824829046386407 l 1.2556362815414657e-15,-0.8164965809277264 l 0.7071067811865481,-0.4082482904638619 l -1.1690406759179166e-15,0.8164965809277264 l -0.707106781186547,-0.40824829046386385 l 1.255636281541466e-15,-0.8164965809277263 l 0.7071067811865482,-0.4082482904638618 l 0.7071067811865482,-0.4082482904638618 l -1.255636281541466e-15,0.8164965809277263 l -0.7071067811865482,0.4082482904638619 l 0.7071067811865469,0.4082482904638642 l 0.7071067811865483,-0.40824829046386196 l 1.0824450702943672e-15,-0.8164965809277261 l -0.7071067811865483,0.40824829046386196 l 0.7071067811865469,0.4082482904638642 l 0.7071067811865483,-0.40824829046386185 l 0.7071067811865468,0.4082482904638641 l -0.7071067811865483,0.40824829046386196 l -1.0824450702943672e-15,0.8164965809277263 l 0.7071067811865483,-0.40824829046386185 l -0.7071067811865468,-0.408248290463864 l -0.7071067811865483,0.40824829046386185 l -0.7071067811865482,0.4082482904638619 l 0.7071067811865469,0.40824829046386385 l 9.958494646708181e-16,-0.8164965809277263 l -0.7071067811865469,-0.40824829046386396 l -0.7071067811865482,0.4082482904638619 l 0.7071067811865469,0.40824829046386385 l -1.0824450702943674e-15,0.8164965809277264 l -0.7071067811865469,-0.40824829046386385 l -1.0824450702943674e-15,0.8164965809277264 l 0.7071067811865468,0.4082482904638639 l -1.0824450702943674e-15,0.8164965809277264 l -0.7071067811865468,-0.4082482904638638 l 0.7071067811865483,-0.4082482904638617 l 0.7071067811865468,0.4082482904638639 l 1.1690406759179166e-15,-0.8164965809277265 l -0.7071067811865468,-0.4082482904638639 l 0.7071067811865482,-0.40824829046386163 l 0.7071067811865483,-0.4082482904638616 l 0.7071067811865468,0.4082482904638639 l -0.7071067811865483,0.4082482904638617 l -1.1690406759179168e-15,0.8164965809277265 l 0.7071067811865483,-0.4082482904638616 l -0.7071067811865468,-0.4082482904638638 l -0.7071067811865483,0.4082482904638616 l -0.7071067811865469,-0.4082482904638637 l 0.7071067811865482,-0.40824829046386163 l 1.0824450702943674e-15,-0.8164965809277266 l -0.7071067811865482,0.4082482904638615 l -0.7071067811865469,-0.4082482904638637 l 0.7071067811865481,-0.40824829046386146 l -1.255636281541466e-15,0.8164965809277267 l -0.7071067811865481,0.40824829046386146 l -0.7071067811865482,0.4082482904638614 l 1.3422318871650151e-15,-0.8164965809277267 l 0.7071067811865469,0.4082482904638637 l -1.4288274927885646e-15,0.8164965809277266 l -0.7071067811865482,0.4082482904638614 l 1.3422318871650151e-15,-0.8164965809277265 l -0.7071067811865469,-0.40824829046386385 l -1.2556362815414659e-15,0.8164965809277266 l -0.707106781186547,-0.4082482904638636 l -0.707106781186547,-0.4082482904638636 l 1.1690406759179166e-15,-0.8164965809277266 l 0.707106781186547,0.40824829046386346 l 0.7071067811865481,-0.40824829046386163 l -0.707106781186547,-0.4082482904638636 l -1.0824450702943674e-15,0.8164965809277266 l 0.707106781186547,0.4082482904638636 l 0.7071067811865481,-0.4082482904638617 l 0.7071067811865481,-0.40824829046386174 l -0.707106781186547,-0.4082482904638636 l -0.7071067811865481,0.40824829046386163 l 1.0824450702943674e-15,-0.8164965809277266 l 0.7071067811865481,-0.40824829046386174 l 0.707106781186547,0.40824829046386346 l -0.7071067811865481,0.40824829046386174 l 9.092538590472688e-16,-0.8164965809277267 l 0.7071067811865481,-0.4082482904638618 l 9.092538590472688e-16,-0.8164965809277267 l -0.7071067811865481,0.4082482904638617 l -0.707106781186547,-0.4082482904638635 l 0.7071067811865481,-0.40824829046386163 l -1.0824450702943674e-15,0.8164965809277267 l -0.7071067811865481,0.40824829046386163 l -0.7071067811865481,0.4082482904638616 l 1.1690406759179166e-15,-0.8164965809277266 l 0.707106781186547,0.4082482904638635 l -1.2556362815414659e-15,0.8164965809277266 l -0.7071067811865481,0.4082482904638616 l 1.1690406759179166e-15,-0.8164965809277266 l -0.707106781186547,-0.4082482904638637 l -1.0824450702943674e-15,0.8164965809277266 l -0.707106781186547,-0.4082482904638636 l 1.1690406759179166e-15,-0.8164965809277266 l -0.707106781186547,-0.4082482904638636 l -1.0824450702943672e-15,0.8164965809277267 l 0.7071067811865481,-0.4082482904638615 l 1.1690406759179166e-15,-0.8164965809277268 l 0.707106781186547,0.40824829046386335 l -1.2556362815414659e-15,0.8164965809277267 l 0.7071067811865479,-0.40824829046386163 l 0.7071067811865479,-0.40824829046386163 l 1.2556362815414659e-15,-0.8164965809277267 l -0.7071067811865479,0.4082482904638615 l -0.7071067811865472,-0.4082482904638635 l 0.7071067811865478,-0.40824829046386146 l -1.4288274927885644e-15,0.8164965809277268 l -0.7071067811865478,0.40824829046386146 l -1.2556362815414657e-15,0.8164965809277268 l 0.707106781186548,-0.40824829046386135 l 0.7071067811865471,0.40824829046386335 l -0.707106781186548,0.40824829046386146 l -1.1690406759179164e-15,0.8164965809277268 l 0.707106781186548,-0.40824829046386135 l -0.7071067811865471,-0.40824829046386324 l -0.707106781186548,0.40824829046386135 l -0.7071067811865479,0.4082482904638614 l 0.7071067811865472,0.4082482904638631 l 1.0824450702943672e-15,-0.8164965809277269 l -0.7071067811865472,-0.4082482904638632 l -0.7071067811865479,0.4082482904638614 l 0.7071067811865472,0.4082482904638631 l -1.1690406759179164e-15,0.816496580927727 l -0.7071067811865472,-0.4082482904638631 " style="stroke-linecap:square;stroke:#50514F;stroke-width:0.2px;fill:none" /></g></svg>