<?xml version="1.0" encoding="UTF-8"?>
<!DOCTYPE svg PUBLIC "-//W3C//DTD SVG 1.1//EN"
    "http://www.w3.org/Graphics/SVG/1.1/DTD/svg11.dtd">

<svg xmlns="http://www.w3.org/2000/svg" xmlns:xlink="http://www.w3.org/1999/xlink" version="1.1" width="433.0127018922193" height="500" viewBox="-5.939696961966996 -12.57404734628699 11.879393923934007 13.717142559585808">
    <g>
        <rect x="-5.939696961966996" y="-12.57404734628699" width="11.879393923934007" height="13.717142559585808" fill="#CBD4C2" />
        <path style="stroke-linecap:square;fill:none;stroke:#50514F;stroke-width:0.1px" d="M 0.0,0.0 L 0.7071067811865477,-0.408248290463863 L 0.7071067811865476,-1.224744871391589 L -8.659560562354938e-17,-0.8164965809277263 L -0.7071067811865475,-1.2247448713915894 L 2.220446049250313e-16,-1.6329931618554525 L 1.1102230246251565e-16,-0.8164965809277263 L -0.7071067811865476,-0.4082482904638633 L -1.4142135623730947,-0.8164965809277265 L -2.121320343559642,-1.2247448713915898 L -1.414213562373094,-1.6329931618554525 L -0.7071067811865468,-1.2247448713915894 L -0.7071067811865467,-2.041241452319315 L -1.4142135623730938,-2.4494897427831788 L -2.121320343559642,-2.0412414523193156 L -1.4142135623730945,-1.6329931618554525 L -1.4142135623730943,-2.4494897427831788 L -2.1213203435596415,-2.8577380332470423 L -2.1213203435596406,-3.674234614174768 L -1.4142135623730938,-3.265986323710905 L -0.7071067811865456,-3.6742346141747677 L -1.4142135623730925,-4.082482904638631 L -1.4142135623730927,-3.265986323710905 L -0.7071067811865458,-2.857738033247042 L 9.992007221626409e-16,-2.4494897427831783 L 1.1102230246251565e-15,-3.265986323710904 L -0.707106781186547,-2.857738033247042 L -0.7071067811865469,-2.0412414523193156 L -1.3339076013749968e-17,-1.6329931618554523 L -5.663687882552489e-17,-2.4494897427831783 L 0.7071067811865481,-2.857738033247041 L 0.7071067811865479,-2.0412414523193148 L 1.4142135623730958,-2.449489742783178 L 1.4142135623730958,-3.265986323710904 L 2.1213203435596437,-3.6742346141747673 L 2.121320343559644,-2.857738033247041 L 1.4142135623730974,-3.2659863237109037 L 1.4142135623730967,-4.08248290463863 L 0.707106781186549,-3.6742346141747677 L 0.7071067811865491,-2.857738033247042 L 1.9984014443252818e-15,-3.265986323710905 L -0.7071067811865452,-3.674234614174768 L -0.7071067811865452,-4.490731195102494 L 1.9984014443252818e-15,-4.082482904638631 L 0.7071067811865495,-4.4907311951024935 L 2.6645352591003757e-15,-4.898979485566356 L 3.552713678800501e-15,-4.08248290463863 L 0.7071067811865503,-3.6742346141747677 L 0.7071067811865506,-2.8577380332470415 L 3.552713678800501e-15,-3.265986323710904 L -0.7071067811865441,-2.857738033247042 L 2.6645352591003757e-15,-2.4494897427831788 L 2.886579864025407e-15,-1.6329931618554523 L -0.7071067811865444,-2.041241452319315 L 3.552713678800501e-15,-2.449489742783178 L 0.707106781186551,-2.0412414523193148 L 1.4142135623730978,-1.6329931618554516 L 0.7071067811865499,-1.2247448713915894 L 0.7071067811865501,-2.0412414523193156 L 1.414213562373098,-2.449489742783178 L 2.121320343559645,-2.041241452319315 L 1.414213562373097,-1.6329931618554525 L 1.4142135623730971,-0.8164965809277263 L 2.121320343559645,-1.2247448713915885 L 2.8284271247461934,-1.632993161855451 L 2.8284271247461934,-2.4494897427831774 L 3.535533905932742,-2.8577380332470397 L 3.5355339059327417,-2.0412414523193134 L 2.828427124746195,-2.4494897427831765 L 2.828427124746195,-3.2659863237109032 L 2.121320343559647,-2.857738033247041 L 2.121320343559647,-2.0412414523193143 L 1.4142135623731,-2.4494897427831774 L 0.7071067811865537,-2.8577380332470406 L 0.7071067811865537,-3.6742346141747673 L 1.4142135623731005,-3.265986323710904 L 2.121320343559648,-3.674234614174766 L 1.414213562373102,-4.082482904638629 L 1.414213562373102,-3.2659863237109024 L 2.121320343559649,-2.8577380332470397 L 2.828427124746197,-3.265986323710901 L 2.1213203435596504,-3.674234614174764 L 2.8284271247461987,-4.082482904638627 L 3.5355339059327453,-3.6742346141747637 L 3.5355339059327457,-4.490731195102491 L 2.8284271247461983,-4.898979485566354 L 2.121320343559651,-4.490731195102492 L 2.828427124746197,-4.082482904638629 L 3.5355339059327435,-3.674234614174765 L 4.242640687119293,-4.082482904638627 L 4.242640687119292,-3.2659863237109 L 3.535533905932743,-2.8577380332470383 L 4.24264068711929,-2.449489742783176 L 4.949747468305839,-2.8577380332470375 L 4.949747468305839,-3.6742346141747637 L 4.24264068711929,-3.265986323710902 L 4.242640687119291,-4.082482904638629 L 4.94974746830584,-4.490731195102491 L 4.94974746830584,-5.307227776030217 L 4.242640687119292,-4.898979485566355 L 3.535533905932745,-5.307227776030218 L 4.242640687119293,-5.715476066494081 L 4.242640687119293,-4.898979485566355 L 3.535533905932744,-4.490731195102492 L 2.828427124746198,-4.898979485566356 L 2.1213203435596513,-5.30722777603022 L 2.8284271247462,-5.71547606649408 L 3.5355339059327457,-5.307227776030218 L 3.5355339059327466,-6.123724356957944 L 2.8284271247462,-6.5319726474218065 L 2.121320343559652,-6.123724356957946 L 2.828427124746198,-5.715476066494083 L 2.1213203435596486,-5.307227776030221 L 1.414213562373103,-5.715476066494086 L 1.414213562373102,-4.898979485566358 L 2.121320343559648,-4.490731195102494 L 1.4142135623730994,-4.082482904638633 L 0.7071067811865532,-4.490731195102497 L 0.7071067811865537,-5.307227776030224 L 1.4142135623731,-4.89897948556636 L 2.1213203435596464,-4.490731195102497 L 2.1213203435596464,-3.67423461417477 L 2.8284271247461947,-4.082482904638631 L 2.828427124746195,-4.8989794855663575 L 3.5355339059327417,-4.490731195102494 L 3.5355339059327417,-3.674234614174768 L 2.828427124746193,-3.265986323710907 L 2.8284271247461934,-4.082482904638633 L 2.828427124746194,-4.898979485566359 L 2.828427124746195,-5.7154760664940865 L 3.5355339059327444,-6.123724356957947 L 3.535533905932743,-5.30722777603022 L 2.828427124746197,-5.715476066494084 L 2.828427124746198,-6.53197264742181 L 2.121320343559649,-6.12372435695795 L 2.121320343559648,-5.307227776030223 L 1.4142135623731018,-5.715476066494087 L 0.7071067811865559,-6.1237243569579505 L 0.7071067811865572,-6.940220937885677 L 1.4142135623731031,-6.531972647421814 L 2.1213203435596517,-6.940220937885674 L 1.414213562373106,-7.348469228349538 L 1.4142135623731051,-6.531972647421812 L 2.121320343559651,-6.123724356957947 L 2.8284271247462,-6.531972647421808 L 2.1213203435596544,-6.940220937885672 L 2.8284271247462036,-7.348469228349533 L 3.5355339059327493,-6.94022093788567 L 3.535533905932751,-7.756717518813396 L 2.828427124746204,-8.164965809277259 L 2.1213203435596553,-7.7567175188133985 L 2.8284271247462014,-7.348469228349535 L 3.535533905932747,-6.940220937885671 L 4.242640687119296,-7.348469228349532 L 4.242640687119295,-6.531972647421805 L 3.5355339059327466,-6.123724356957944 L 4.242640687119293,-5.715476066494081 L 4.949747468305842,-6.123724356957942 L 4.949747468305843,-6.940220937885668 L 4.242640687119294,-6.531972647421807 L 4.242640687119294,-7.348469228349534 L 4.9497474683058424,-7.756717518813395 L 4.949747468305844,-8.573214099741122 L 4.242640687119295,-8.16496580927726 L 3.535533905932749,-8.573214099741126 L 4.242640687119298,-8.981462390204985 L 4.242640687119297,-8.164965809277259 L 3.535533905932748,-7.756717518813398 L 2.8284271247462014,-8.164965809277263 L 2.121320343559656,-8.573214099741126 L 2.8284271247462045,-8.981462390204987 L 3.535533905932751,-8.573214099741122 L 3.535533905932752,-9.38971068066885 L 2.8284271247462067,-9.797958971132713 L 2.121320343559657,-9.389710680668852 L 2.8284271247462036,-8.981462390204987 L 2.1213203435596544,-8.573214099741127 L 1.4142135623731087,-8.981462390204992 L 1.414213562373107,-8.164965809277264 L 2.121320343559653,-7.756717518813401 L 1.414213562373104,-7.348469228349541 L 0.7071067811865577,-7.756717518813405 L 0.707106781186559,-8.573214099741131 L 1.4142135623731051,-8.164965809277268 L 2.1213203435596517,-7.756717518813404 L 2.12132034355965,-6.940220937885677 L 2.8284271247461987,-7.348469228349537 L 2.8284271247462005,-8.164965809277264 L 3.5355339059327466,-7.7567175188134 L 3.535533905932745,-6.940220937885673 L 2.828427124746196,-6.531972647421813 L 2.828427124746198,-7.34846922834954 L 2.121320343559648,-6.9402209378856785 L 1.4142135623731025,-7.3484692283495425 L 0.7071067811865532,-6.940220937885683 L 1.414213562373099,-6.531972647421818 L 1.4142135623730971,-5.715476066494091 L 0.7071067811865513,-6.123724356957955 L 1.4142135623731005,-6.531972647421815 L 2.1213203435596464,-6.123724356957951 L 2.1213203435596446,-5.307227776030224 L 1.4142135623730985,-5.715476066494088 L 1.4142135623730967,-4.898979485566361 L 2.1213203435596433,-4.490731195102497 L 1.4142135623730938,-4.0824829046386375 L 0.7071067811865478,-4.4907311951025015 L 0.7071067811865496,-5.307227776030228 L 1.4142135623730956,-4.898979485566364 L 0.7071067811865469,-4.490731195102505 L 6.661338147750939e-16,-4.898979485566368 L -1.3322676295501878e-15,-4.082482904638641 L 0.7071067811865448,-3.6742346141747775 L -4.070868835117928e-15,-3.2659863237109175 L -0.7071067811865503,-3.6742346141747815 L -0.7071067811865482,-4.490731195102509 L -2.0415578816944633e-15,-4.082482904638645 L -6.561149541052205e-18,-4.898979485566371 L 0.7071067811865487,-5.307227776030231 L 0.7071067811865508,-6.1237243569579585 L 1.9707065560440865e-15,-5.715476066494098 L -0.7071067811865444,-6.123724356957962 L 4.551914400963142e-15,-6.531972647421822 L 2.3314683517128287e-15,-5.715476066494095 L -0.7071067811865465,-5.307227776030235 L -1.4142135623730925,-5.7154760664941 L -0.7071067811865436,-6.123724356957959 L -0.7071067811865416,-6.9402209378856865 L -1.4142135623730907,-6.531972647421826 L -2.1213203435596366,-6.940220937885691 L -1.4142135623730878,-7.348469228349551 L -1.4142135623730905,-6.531972647421825 L -2.121320343559639,-6.123724356957965 L -2.1213203435596415,-5.307227776030238 L -1.4142135623730951,-4.8989794855663735 L -1.4142135623730974,-4.082482904638646 L -2.1213203435596433,-4.490731195102511 L -1.414213562373094,-4.898979485566372 L -0.707106781186548,-4.490731195102507 L -0.7071067811865464,-5.307227776030233 L -1.4142135623730927,-5.715476066494098 L -0.7071067811865441,-6.123724356957959 L 2.4424906541753444e-15,-5.7154760664940945 L 2.220446049250313e-16,-4.898979485566367 L -0.7071067811865461,-5.307227776030232 L 2.220446049250313e-15,-5.715476066494093 L 0.7071067811865488,-5.307227776030228 L 0.7071067811865508,-6.123724356957954 L 4.440892098500626e-15,-6.531972647421818 L 6.217248937900877e-15,-7.348469228349546 L 0.7071067811865526,-6.940220937885681 L 3.9968028886505635e-15,-6.531972647421821 L -0.7071067811865426,-6.940220937885686 L -0.7071067811865408,-7.756717518813412 L 5.773159728050814e-15,-7.348469228349547 L 0.7071067811865546,-7.756717518813408 L 7.993605777301127e-15,-8.164965809277271 L -0.7071067811865377,-8.573214099741136 L -1.4142135623730843,-8.981462390205001 L -2.121320343559633,-8.57321409974114 L -1.414213562373087,-8.164965809277275 L -1.4142135623730887,-7.348469228349549 L -2.1213203435596353,-7.756717518813412 L -1.4142135623730865,-8.164965809277273 L -0.7071067811865399,-7.756717518813409 L -0.7071067811865412,-6.940220937885682 L -1.4142135623730878,-7.348469228349546 L -1.4142135623730896,-6.53197264742182 L -0.707106781186543,-6.123724356957956 L -1.414213562373092,-5.7154760664940945 L -2.1213203435596384,-6.123724356957959 L -2.1213203435596357,-6.940220937885686 L -1.4142135623730898,-6.5319726474218225 L -2.121320343559638,-6.123724356957961 L -2.8284271247461845,-6.531972647421824 L -2.8284271247461867,-5.715476066494097 L -2.12132034355964,-5.307227776030233 L -2.8284271247461885,-4.898979485566372 L -3.535533905932735,-5.307227776030236 L -3.535533905932733,-6.123724356957962 L -2.8284271247461863,-5.715476066494098 L -2.828427124746184,-6.531972647421825 L -2.1213203435596357,-6.940220937885686 L -2.1213203435596335,-7.756717518813412 L -2.828427124746182,-7.348469228349552 L -3.5355339059327284,-7.756717518813415 L -2.82842712474618,-8.164965809277277 L -2.8284271247461823,-7.348469228349549 L -3.535533905932731,-6.940220937885689 L -4.242640687119278,-7.348469228349554 L -3.5355339059327293,-7.756717518813415 L -3.5355339059327267,-8.57321409974114 L -4.242640687119275,-8.16496580927728 L -4.949747468305822,-8.573214099741143 L -4.242640687119274,-8.981462390205007 L -4.242640687119276,-8.16496580927728 L -4.949747468305824,-7.756717518813417 L -4.9497474683058265,-6.940220937885692 L -4.242640687119279,-6.531972647421828 L -4.242640687119281,-5.715476066494101 L -4.949747468305829,-6.123724356957965 L -4.24264068711928,-6.531972647421826 L -3.535533905932733,-6.123724356957962 L -3.5355339059327315,-6.940220937885689 L -4.242640687119278,-7.348469228349552 L -3.5355339059327293,-7.756717518813414 L -2.8284271247461827,-7.3484692283495505 L -2.8284271247461854,-6.531972647421824 L -3.5355339059327315,-6.940220937885687 L -2.828427124746183,-7.348469228349549 L -2.1213203435596366,-6.940220937885684 L -2.1213203435596344,-7.756717518813411 L -2.8284271247461814,-8.164965809277277 L -2.828427124746179,-8.981462390205001 L -2.1213203435596326,-8.573214099741138 L -2.82842712474618,-8.164965809277277 L -3.535533905932728,-8.57321409974114 L -3.5355339059327258,-9.389710680668868 L -2.828427124746179,-8.981462390205003 L -2.1213203435596304,-9.389710680668863 L -2.828427124746177,-9.797958971132728 L -2.121320343559629,-10.20620726159659 L -2.1213203435596304,-9.389710680668863 L -1.4142135623730825,-9.797958971132724 L -1.4142135623730803,-10.614455552060452 L -0.7071067811865341,-10.206207261596585 L -0.707106781186535,-9.38971068066886 L -1.4142135623730838,-8.981462390205 L -1.4142135623730816,-9.797958971132726 L -0.7071067811865355,-9.38971068066886 L 1.1546319456101628e-14,-8.981462390204998 L 9.769962616701378e-15,-8.16496580927727 L -0.7071067811865368,-8.573214099741135 L 1.1102230246251565e-14,-8.981462390204996 L 0.7071067811865581,-8.573214099741133 L 0.7071067811865599,-9.389710680668859 L 1.2434497875801753e-14,-9.797958971132722 L 0.7071067811865603,-10.206207261596585 L 1.4142135623731074,-9.79795897113272 L 2.121320343559655,-10.206207261596582 L 1.4142135623731087,-10.614455552060445 L 1.4142135623731074,-9.797958971132719 L 2.1213203435596535,-9.389710680668854 L 1.4142135623731056,-8.981462390204992 L 0.7071067811865586,-9.389710680668857 L 1.2434497875801753e-14,-9.79795897113272 L 0.7071067811865595,-10.206207261596582 L 0.7071067811865612,-11.022703842524308 L 1.2434497875801753e-14,-10.614455552060448 L -0.7071067811865337,-11.022703842524312 L 1.509903313490213e-14,-11.430952132988173 L 1.3322676295501878e-14,-10.614455552060448 L -0.7071067811865355,-10.206207261596587 L -0.7071067811865346,-9.389710680668859 L 1.2434497875801753e-14,-9.797958971132722 L 1.2434497875801753e-14,-8.981462390204996 L -0.7071067811865364,-8.573214099741135 L 9.769962616701378e-15,-8.16496580927727 L 0.7071067811865586,-8.573214099741131 L 0.7071067811865603,-9.389710680668857 L 1.1546319456101628e-14,-8.981462390204996 L 0.7071067811865581,-8.573214099741131 L 1.4142135623731056,-8.164965809277268 L 2.1213203435596535,-8.573214099741131 L 1.414213562373106,-8.981462390204992 L 1.4142135623731042,-8.164965809277268 L 2.1213203435596517,-7.756717518813405 L 1.4142135623731038,-7.348469228349542 L 0.7071067811865563,-7.756717518813405 L 8.43769498715119e-15,-7.348469228349543 L 0.7071067811865559,-6.9402209378856785 L 0.7071067811865577,-7.756717518813405 L 1.021405182655144e-14,-8.16496580927727 L -0.7071067811865377,-7.7567175188134065 L 9.769962616701378e-15,-7.348469228349543 L 8.43769498715119e-15,-6.531972647421817 L -0.707106781186539,-6.94022093788568 L -1.414213562373086,-7.348469228349545 L -1.4142135623730843,-8.164965809277271 L -0.7071067811865359,-8.573214099741133 L -0.7071067811865372,-7.7567175188134065 L -1.4142135623730838,-8.164965809277271 L -1.414213562373083,-8.981462390204998 L -2.121320343559631,-8.573214099741135 L -2.121320343559632,-7.756717518813408 L -2.121320343559634,-6.940220937885683 L -2.121320343559634,-6.123724356957958 L -1.4142135623730865,-6.531972647421819 L -1.414213562373086,-7.348469228349546 L -0.7071067811865381,-6.940220937885682 L -0.7071067811865395,-6.123724356957956 L -1.414213562373087,-5.715476066494093 L -1.414213562373086,-6.531972647421819 L -0.707106781186539,-6.123724356957955 L 8.43769498715119e-15,-5.715476066494092 L 7.549516567451064e-15,-4.8989794855663655 L -0.7071067811865395,-5.3072277760302295 L 7.993605777301127e-15,-5.715476066494091 L 0.707106781186555,-5.307227776030228 L 0.7071067811865563,-6.123724356957954 L 8.881784197001252e-15,-6.531972647421818 L 0.7071067811865568,-6.94022093788568 L 1.4142135623731042,-6.531972647421816 L 2.121320343559652,-6.940220937885678 L 1.4142135623731047,-7.3484692283495425 L 1.4142135623731034,-6.531972647421817 L 2.1213203435596504,-6.123724356957952 L 1.4142135623731025,-5.715476066494089 L 0.7071067811865555,-6.123724356957954 L 7.993605777301127e-15,-6.531972647421817 L 0.7071067811865559,-6.94022093788568 L 0.7071067811865577,-7.756717518813406 L 9.769962616701378e-15,-7.348469228349543 L -0.7071067811865381,-7.756717518813407 L 9.769962616701378e-15,-8.16496580927727 L 8.881784197001252e-15,-7.348469228349543 L -0.707106781186539,-6.940220937885681 L -0.7071067811865399,-6.123724356957956 L 7.993605777301127e-15,-6.531972647421818 L 7.105427357601002e-15,-5.715476066494093 L -0.7071067811865408,-5.3072277760302295 L 7.105427357601002e-15,-4.8989794855663655 L 0.707106781186555,-5.307227776030228 L 0.707106781186555,-6.123724356957954 L 7.105427357601002e-15,-5.715476066494091 L 0.7071067811865546,-5.307227776030227 L 1.414213562373102,-4.898979485566363 L 2.12132034355965,-5.307227776030226 L 1.4142135623731025,-5.715476066494089 L 1.414213562373102,-4.898979485566364 L 2.1213203435596495,-4.4907311951025 L 1.4142135623731016,-4.0824829046386375 L 0.7071067811865541,-4.4907311951025015 L 7.105427357601002e-15,-4.082482904638638 L 0.7071067811865555,-3.6742346141747744 L 0.7071067811865568,-4.4907311951025 L 8.43769498715119e-15,-4.898979485566363 L -0.7071067811865386,-4.4907311951025 L 8.881784197001252e-15,-4.082482904638636 L 7.549516567451064e-15,-3.2659863237109104 L -0.7071067811865395,-3.6742346141747753 L -1.414213562373087,-4.082482904638639 L -1.414213562373086,-4.898979485566365 L -0.7071067811865386,-5.307227776030228 L -0.7071067811865395,-4.4907311951025015 L -1.4142135623730865,-4.898979485566366 L -1.4142135623730856,-5.715476066494092 L -2.121320343559633,-5.3072277760302295 L -2.121320343559634,-4.490731195102503 L -2.828427124746182,-4.08248290463864 L -3.5355339059327284,-3.6742346141747775 L -3.5355339059327275,-4.490731195102502 L -2.82842712474618,-4.8989794855663655 L -2.1213203435596326,-4.4907311951025015 L -2.828427124746179,-4.082482904638638 L -2.828427124746181,-3.2659863237109135 L -2.1213203435596335,-3.6742346141747766 L -1.414213562373086,-3.2659863237109126 L -0.7071067811865386,-2.857738033247049 L -1.414213562373086,-2.449489742783186 L -2.121320343559634,-2.85773803324705 L -2.1213203435596326,-3.6742346141747753 L -1.4142135623730847,-3.2659863237109112 L -0.7071067811865372,-3.6742346141747744 L -1.4142135623730847,-4.082482904638638 L -1.4142135623730843,-4.898979485566363 L -0.7071067811865368,-4.4907311951025 L -0.7071067811865364,-5.307227776030225 L -1.4142135623730834,-5.715476066494089 L -2.1213203435596313,-5.307227776030226 L -1.4142135623730836,-4.898979485566362 L -1.4142135623730845,-4.082482904638637 L -2.121320343559632,-4.490731195102501 L -2.828427124746179,-4.898979485566365 L -2.8284271247461783,-5.715476066494091 L -2.121320343559631,-6.123724356957953 L -2.1213203435596317,-5.307227776030228 L -2.8284271247461796,-5.715476066494092 L -2.828427124746178,-6.531972647421817 L -3.5355339059327253,-6.123724356957954 L -3.535533905932727,-5.3072277760302295 L -4.242640687119275,-4.898979485566366 L -4.242640687119273,-5.715476066494092 L -4.949747468305821,-5.3072277760302295 L -4.949747468305822,-4.490731195102504 L -4.242640687119274,-4.08248290463864 L -4.242640687119274,-4.898979485566365 L -3.535533905932726,-5.307227776030228 L -3.535533905932727,-4.490731195102503 L -2.82842712474618,-4.082482904638638 L -2.1213203435596326,-3.6742346141747744 L -2.1213203435596313,-4.4907311951025 L -2.8284271247461783,-4.898979485566365 L -3.535533905932726,-4.4907311951025015 L -2.8284271247461787,-4.082482904638637 L -2.82842712474618,-3.265986323710912 L -3.5355339059327275,-3.674234614174776 L -3.535533905932729,-2.8577380332470512 L -2.8284271247461814,-2.4494897427831868 L -2.121320343559634,-2.8577380332470494 L -2.828427124746181,-3.265986323710914 L -2.828427124746182,-2.449489742783189 L -2.1213203435596353,-2.041241452319324 L -2.8284271247461827,-1.6329931618554612 L -3.5355339059327298,-2.041241452319326 L -4.242640687119277,-2.4494897427831903 L -3.5355339059327293,-2.8577380332470534 L -3.535533905932729,-3.674234614174779 L -4.242640687119277,-3.2659863237109157 L -4.949747468305824,-3.67423461417478 L -4.242640687119276,-4.082482904638644 L -4.242640687119277,-3.265986323710918 L -4.949747468305824,-2.8577380332470543 " />
    </g>
</svg>
