<?xml version="1.0" encoding="UTF-8"?>
<!DOCTYPE svg PUBLIC "-//W3C//DTD SVG 1.1//EN"
    "http://www.w3.org/Graphics/SVG/1.1/DTD/svg11.dtd">

<svg xmlns="http://www.w3.org/2000/svg" xmlns:xlink="http://www.w3.org/1999/xlink" version="1.1" width="433.01270189221947" height="500" viewBox="-5.939696961967005 -6.8585712797929075 11.879393923934014 13.717142559585811">
    <g>
        <rect x="-5.939696961967005" y="-6.8585712797929075" width="11.879393923934014" height="13.717142559585811" fill="#CBD4C2" />
        <path style="stroke-linecap:square;stroke-width:0.1px;fill:none;stroke:#50514F" d="M 0.0,0.0 L 0.7071067811865476,0.4082482904638631 L 0.7071067811865476,-0.4082482904638631 L 0.0,-0.8164965809277264 L -0.7071067811865476,-0.4082482904638633 L 0.0,-2.220446049250313e-16 L -2.220446049250313e-16,0.816496580927726 L -0.7071067811865478,0.40824829046386296 L -1.4142135623730954,0.8164965809277257 L -2.121320343559643,1.2247448713915885 L -1.4142135623730954,1.6329931618554516 L -0.7071067811865477,1.2247448713915887 L -0.7071067811865475,0.4082482904638626 L -1.4142135623730954,0.8164965809277255 L -2.121320343559643,0.40824829046386224 L -1.4142135623730951,-5.551115123125783e-16 L -1.414213562373095,-0.8164965809277269 L -2.121320343559643,-0.40824829046386424 L -2.1213203435596424,-1.2247448713915907 L -1.4142135623730947,-1.6329931618554538 L -0.7071067811865472,-1.2247448713915905 L -1.4142135623730951,-0.8164965809277274 L -1.4142135623730954,-1.1102230246251565e-15 L -0.7071067811865476,-0.4082482904638641 L 1.1102230246251565e-16,-0.8164965809277271 L 1.1102230246251565e-16,-1.6329931618554534 L -0.7071067811865474,-2.0412414523193165 L -0.7071067811865472,-1.2247448713915903 L 3.6540727723789017e-16,-1.6329931618554532 L 4.0870508004966485e-16,-2.4494897427831797 L 0.707106781186548,-2.0412414523193165 L 0.7071067811865479,-1.2247448713915903 L 1.4142135623730954,-0.816496580927727 L 1.4142135623730954,-1.6329931618554534 L 2.121320343559643,-1.2247448713915903 L 2.121320343559643,-0.408248290463864 L 1.4142135623730954,-9.43689570931383e-16 L 1.4142135623730951,-0.8164965809277271 L 0.7071067811865477,-1.2247448713915907 L 0.7071067811865478,-0.4082482904638644 L 6.661338147750939e-16,-1.2212453270876722e-15 L -0.7071067811865468,0.408248290463862 L -0.7071067811865468,-0.40824829046386424 L 6.661338147750939e-16,-0.8164965809277275 L 0.7071067811865483,-0.40824829046386446 L 8.881784197001252e-16,-6.661338147750939e-16 L 1.3322676295501878e-15,0.8164965809277254 L 0.7071067811865483,0.4082482904638617 L 0.7071067811865486,1.224744871391588 L 1.3322676295501878e-15,1.6329931618554512 L -0.7071067811865461,1.2247448713915878 L 1.3322676295501878e-15,0.8164965809277245 L 1.1102230246251565e-15,1.6329931618554503 L -0.7071067811865466,2.041241452319314 L 8.881784197001252e-16,2.449489742783177 L 0.7071067811865483,2.041241452319314 L 1.4142135623730958,1.6329931618554503 L 0.707106781186548,1.224744871391587 L 0.7071067811865481,0.40824829046386113 L 1.4142135623730958,0.8164965809277244 L 2.1213203435596433,0.40824829046386096 L 1.4142135623730954,-2.392402047917627e-15 L 1.4142135623730956,0.8164965809277234 L 2.1213203435596433,1.2247448713915867 L 2.8284271247461907,1.6329931618554503 L 2.8284271247461907,0.8164965809277245 L 3.535533905932738,1.2247448713915878 L 3.535533905932738,2.041241452319314 L 2.8284271247461903,2.4494897427831774 L 2.8284271247461907,1.6329931618554514 L 2.1213203435596433,1.2247448713915878 L 2.121320343559643,2.041241452319313 L 1.4142135623730954,2.449489742783177 L 0.7071067811865483,2.8577380332470406 L 0.7071067811865483,2.0412414523193148 L 1.4142135623730958,1.6329931618554516 L 2.1213203435596437,2.041241452319315 L 1.4142135623730967,2.4494897427831788 L 1.4142135623730963,3.2659863237109037 L 2.1213203435596437,2.85773803324704 L 2.8284271247461916,3.265986323710904 L 2.121320343559644,3.6742346141747677 L 2.8284271247461916,4.082482904638631 L 3.535533905932739,3.6742346141747677 L 3.5355339059327395,2.857738033247042 L 2.828427124746192,3.2659863237109055 L 2.1213203435596437,2.857738033247042 L 2.8284271247461916,2.449489742783178 L 3.535533905932739,2.0412414523193148 L 4.242640687119287,2.4494897427831788 L 4.2426406871192865,3.265986323710904 L 3.5355339059327395,2.85773803324704 L 4.242640687119287,2.4494897427831765 L 4.9497474683058345,2.8577380332470406 L 4.9497474683058345,2.041241452319315 L 4.2426406871192865,1.6329931618554512 L 4.242640687119287,0.8164965809277258 L 4.949747468305835,1.2247448713915896 L 4.949747468305835,0.408248290463864 L 4.242640687119288,-3.158840111323623e-16 L 3.5355339059327404,0.4082482904638632 L 4.242640687119287,0.8164965809277271 L 4.242640687119287,1.6329931618554525 L 3.5355339059327395,1.224744871391589 L 2.828427124746192,1.632993161855452 L 2.1213203435596446,2.041241452319315 L 2.8284271247461925,2.4494897427831788 L 3.5355339059327404,2.0412414523193156 L 3.5355339059327404,1.2247448713915903 L 2.8284271247461925,1.6329931618554534 L 2.121320343559645,1.224744871391589 L 2.8284271247461925,0.8164965809277259 L 2.1213203435596446,0.408248290463862 L 1.4142135623730967,0.8164965809277251 L 1.4142135623730958,1.6329931618554503 L 2.1213203435596437,1.2247448713915872 L 1.4142135623730954,0.8164965809277235 L 0.7071067811865479,1.2247448713915865 L 0.7071067811865492,0.4082482904638609 L 1.4142135623730967,-2.1094237467877974e-15 L 2.121320343559644,-0.40824829046386524 L 2.1213203435596437,0.4082482904638607 L 2.828427124746191,0.8164965809277248 L 2.8284271247461916,-8.326672684688674e-16 L 3.5355339059327395,-0.4082482904638639 L 3.535533905932739,0.4082482904638617 L 2.828427124746191,-2.0298047264481553e-15 L 2.8284271247461916,-0.8164965809277278 L 2.8284271247461925,-1.6329931618554536 L 2.8284271247461934,-2.4494897427831797 L 3.5355339059327413,-2.0412414523193148 L 3.53553390593274,-1.2247448713915887 L 2.8284271247461925,-0.8164965809277257 L 2.828427124746194,-1.6329931618554514 L 2.121320343559646,-2.0412414523193165 L 2.121320343559645,-1.2247448713915907 L 1.4142135623730976,-0.8164965809277275 L 0.7071067811865501,-0.40824829046386446 L 0.707106781186551,-1.2247448713915903 L 1.4142135623730985,-1.6329931618554534 L 2.1213203435596464,-1.2247448713915885 L 1.414213562373099,-0.8164965809277256 L 1.414213562373098,0.0 L 2.1213203435596455,-0.408248290463863 L 2.8284271247461934,1.4432899320127035e-15 L 2.1213203435596464,0.40824829046386446 L 2.8284271247461934,0.8164965809277283 L 3.5355339059327413,0.4082482904638647 L 3.535533905932743,-0.40824829046386013 L 2.828427124746195,3.1086244689504383e-15 L 2.121320343559647,-0.4082482904638609 L 2.8284271247461943,-0.8164965809277239 L 3.535533905932742,-1.224744871391587 L 4.24264068711929,-0.816496580927723 L 4.242640687119288,2.220446049250313e-15 L 3.5355339059327413,-0.4082482904638617 L 4.242640687119289,-0.8164965809277247 L 4.949747468305836,-0.40824829046386085 L 4.949747468305838,-1.224744871391586 L 4.242640687119289,-1.63299316185545 L 4.24264068711929,-2.449489742783175 L 4.949747468305839,-2.0412414523193116 L 4.94974746830584,-2.8577380332470366 L 4.242640687119292,-3.265986323710901 L 3.535533905932745,-2.8577380332470383 L 4.242640687119292,-2.4494897427831734 L 4.242640687119291,-1.6329931618554485 L 3.535533905932743,-2.041241452319312 L 2.828427124746195,-1.6329931618554494 L 2.1213203435596477,-1.2247448713915863 L 2.828427124746196,-0.8164965809277223 L 3.5355339059327435,-1.2247448713915854 L 3.535533905932745,-2.0412414523193103 L 2.828427124746197,-1.6329931618554472 L 2.1213203435596495,-2.041241452319312 L 2.828427124746197,-2.449489742783175 L 2.121320343559649,-2.8577380332470392 L 1.4142135623731011,-2.449489742783176 L 1.4142135623731003,-1.6329931618554507 L 2.1213203435596477,-2.041241452319314 L 1.4142135623730994,-2.4494897427831788 L 0.7071067811865519,-2.0412414523193156 L 0.7071067811865537,-2.85773803324704 L 1.4142135623731011,-3.2659863237109032 L 2.1213203435596486,-3.6742346141747664 L 2.121320343559647,-2.8577380332470415 L 2.828427124746195,-2.449489742783177 L 2.828427124746196,-3.2659863237109024 L 3.535533905932744,-3.6742346141747655 L 3.5355339059327426,-2.8577380332470397 L 2.8284271247461947,-3.2659863237109046 L 2.828427124746196,-4.0824829046386295 L 2.1213203435596486,-4.490731195102494 L 1.4142135623731011,-4.082482904638631 L 0.7071067811865537,-4.490731195102496 L 1.4142135623731011,-4.898979485566359 L 1.4142135623730994,-4.082482904638634 L 0.7071067811865518,-3.674234614174771 L 1.414213562373099,-3.2659863237109046 L 2.121320343559647,-3.6742346141747677 L 2.121320343559645,-2.8577380332470423 L 1.4142135623730976,-2.449489742783179 L 1.4142135623730958,-1.6329931618554547 L 2.1213203435596433,-2.041241452319318 L 1.4142135623730958,-2.4494897427831828 L 0.7071067811865482,-2.0412414523193196 L 0.70710678118655,-2.857738033247045 L 1.4142135623730976,-3.265986323710908 L 0.70710678118655,-3.674234614174773 L 2.4424906541753444e-15,-3.26598632371091 L 5.551115123125783e-16,-2.449489742783185 L 0.7071067811865481,-2.857738033247048 L 4.710277376051322e-16,-3.2659863237109135 L -0.7071067811865471,-2.857738033247051 L -0.707106781186545,-3.674234614174777 L 2.6306697848694773e-15,-4.082482904638639 L 4.752262122646435e-15,-4.898979485566365 L 0.7071067811865523,-4.490731195102499 L 0.7071067811865543,-5.307227776030224 L 6.816125433855118e-15,-5.71547606649409 L -0.7071067811865408,-5.307227776030227 L 6.772360450213455e-15,-4.898979485566362 L 4.773959005888173e-15,-4.082482904638637 L -0.7071067811865428,-4.4907311951025015 L -1.4142135623730903,-4.082482904638639 L -0.7071067811865429,-3.6742346141747744 L -0.7071067811865407,-4.4907311951025 L -1.414213562373088,-4.898979485566365 L -2.1213203435596357,-4.490731195102503 L -1.414213562373088,-4.082482904638638 L -1.4142135623730907,-3.265986323710912 L -2.1213203435596384,-3.674234614174777 L -2.12132034355964,-2.8577380332470517 L -1.4142135623730927,-3.265986323710914 L -1.414213562373095,-2.4494897427831885 L -2.121320343559643,-2.0412414523193263 L -1.4142135623730951,-1.6329931618554607 L -0.7071067811865474,-2.0412414523193227 L -0.7071067811865456,-2.857738033247048 L -1.4142135623730936,-2.449489742783186 L -0.7071067811865459,-2.04124145231932 L 1.9984014443252818e-15,-2.449489742783183 L -4.440892098500626e-16,-1.6329931618554572 L -0.7071067811865483,-1.224744871391595 L -8.881784197001252e-16,-0.8164965809277294 L 0.707106781186547,-1.2247448713915916 L 0.707106781186549,-2.0412414523193174 L 8.881784197001252e-16,-1.632993161855455 L 2.6645352591003757e-15,-2.4494897427831805 L 0.7071067811865503,-2.857738033247043 L 2.886579864025407e-15,-3.2659863237109077 L -0.7071067811865448,-2.8577380332470446 L -0.7071067811865428,-3.67423461417477 L 4.6629367034256575e-15,-4.082482904638632 L 0.7071067811865523,-3.674234614174768 L 4.884981308350689e-15,-3.265986323710906 L -0.707106781186543,-2.8577380332470432 L -1.414213562373091,-2.44948974278318 L -2.121320343559638,-2.8577380332470455 L -1.4142135623730896,-3.2659863237109077 L -1.414213562373092,-2.449489742783182 L -2.12132034355964,-2.0412414523193187 L -1.4142135623730927,-1.6329931618554547 L -0.7071067811865448,-2.0412414523193174 L -0.7071067811865466,-1.224744871391592 L -1.4142135623730945,-0.8164965809277294 L -1.4142135623730958,-3.9968028886505635e-15 L -0.7071067811865479,-0.4082482904638667 L -1.4142135623730956,-0.8164965809277316 L -2.1213203435596437,-0.40824829046386935 L -2.1213203435596415,-1.2247448713915947 L -1.4142135623730936,-1.6329931618554574 L -2.121320343559641,-2.0412414523193214 L -2.828427124746189,-1.6329931618554587 L -2.828427124746191,-0.8164965809277334 L -2.1213203435596433,-1.2247448713915956 L -2.8284271247461907,-1.6329931618554596 L -3.5355339059327386,-1.2247448713915978 L -3.5355339059327364,-2.041241452319323 L -2.828427124746189,-2.4494897427831854 L -2.8284271247461863,-3.2659863237109112 L -2.1213203435596384,-2.8577380332470455 L -2.1213203435596366,-3.674234614174771 L -2.8284271247461836,-4.082482904638637 L -3.5355339059327315,-3.674234614174775 L -2.828427124746184,-3.265986323710909 L -2.8284271247461867,-2.449489742783183 L -3.535533905932734,-2.857738033247049 L -4.242640687119282,-2.449489742783186 L -3.535533905932735,-2.0412414523193223 L -3.5355339059327324,-2.8577380332470472 L -4.24264068711928,-3.2659863237109126 L -4.949747468305827,-2.8577380332470512 L -4.24264068711928,-2.449489742783186 L -4.242640687119283,-1.63299316185546 L -4.94974746830583,-2.0412414523193254 L -4.949747468305833,-1.2247448713915996 L -4.242640687119284,-1.632993161855461 L -4.2426406871192865,-0.816496580927736 L -4.949747468305834,-0.4082482904638738 L -4.242640687119287,-8.881784197001252e-15 L -3.5355339059327395,-0.4082482904638711 L -3.5355339059327373,-1.224744871391597 L -4.242640687119285,-0.8164965809277347 L -3.5355339059327378,-0.40824829046387023 L -2.8284271247461907,-0.8164965809277316 L -2.8284271247461925,-6.661338147750939e-15 L -3.5355339059327404,0.4082482904638556 L -2.828427124746194,0.8164965809277209 L -2.121320343559645,0.4082482904638587 L -2.121320343559643,-0.4082482904638671 L -2.828427124746191,-4.884981308350689e-15 L -2.828427124746189,-0.8164965809277307 L -2.1213203435596415,-1.224744871391592 L -2.828427124746188,-1.632993161855457 L -3.5355339059327355,-1.2247448713915956 L -3.535533905932734,-2.0412414523193214 L -2.8284271247461863,-2.4494897427831837 L -2.1213203435596393,-2.0412414523193183 L -2.8284271247461867,-1.632993161855456 L -2.12132034355964,-1.2247448713915912 L -2.1213203435596424,-0.40824829046386624 L -1.4142135623730954,-8.881784197001252e-16 L -1.4142135623730931,-0.8164965809277267 L -0.7071067811865448,-1.2247448713915885 L -0.707106781186547,-0.4082482904638627 L -1.4142135623730936,-0.816496580927728 L -1.4142135623730923,-1.632993161855453 L -0.7071067811865439,-2.041241452319315 L 4.440892098500626e-15,-2.4494897427831774 L 2.6645352591003757e-15,-1.6329931618554514 L -0.7071067811865457,-1.2247448713915898 L 1.3322676295501878e-15,-0.8164965809277245 L 0.7071067811865497,-1.224744871391587 L 0.707106781186551,-2.041241452319313 L 2.220446049250313e-15,-1.6329931618554498 L 0.7071067811865497,-1.2247448713915858 L 1.414213562373098,-1.6329931618554476 L 2.1213203435596446,-1.2247448713915823 L 1.4142135623730958,-0.8164965809277196 L 1.4142135623730945,6.661338147750939e-15 L 2.121320343559643,-0.4082482904638556 L 1.4142135623730958,-0.8164965809277205 L 0.707106781186547,-0.4082482904638587 L 0.0,3.1086244689504383e-15 L 0.7071067811865461,0.40824829046386757 L 0.7071067811865479,-0.4082482904638587 L 0.0,-0.8164965809277231 L -0.707106781186547,-0.40824829046386135 L -8.881784197001252e-16,3.1086244689504383e-15 L -1.7763568394002505e-15,0.816496580927728 L -0.7071067811865488,0.4082482904638649 L -0.7071067811865506,1.2247448713915907 L -2.6645352591003757e-15,1.6329931618554543 L -4.440892098500626e-15,2.4494897427831805 L -0.7071067811865506,2.041241452319317 L -3.552713678800501e-15,1.6329931618554543 L 0.7071067811865435,2.0412414523193187 L 0.7071067811865452,1.2247448713915925 L -1.7763568394002505e-15,0.8164965809277285 L 0.7071067811865466,0.4082482904638667 L 1.414213562373094,4.884981308350689e-15 L 2.1213203435596415,0.4082482904638691 L 1.4142135623730931,0.8164965809277311 L 1.4142135623730923,1.632993161855457 L 2.1213203435596397,1.224744871391595 L 1.4142135623730936,0.8164965809277309 L 0.7071067811865452,1.224744871391593 L -1.7763568394002505e-15,0.8164965809277285 L 0.7071067811865461,0.4082482904638667 L 0.7071067811865479,-0.4082482904638596 L -8.881784197001252e-16,2.220446049250313e-15 L -0.7071067811865475,-0.40824829046386135 L 4.440892098500626e-16,-0.816496580927724 L -4.440892098500626e-16,2.220446049250313e-15 L -0.7071067811865492,0.4082482904638647 L -1.4142135623730967,0.8164965809277265 L -1.4142135623730963,4.440892098500626e-16 L -0.7071067811865483,0.4082482904638649 L -0.7071067811865501,1.2247448713915907 L -1.4142135623730985,1.6329931618554525 L -1.4142135623730971,0.8164965809277267 L -2.1213203435596437,0.4082482904638627 L -2.121320343559645,1.224744871391589 L -2.121320343559647,2.0412414523193143 L -2.1213203435596473,2.8577380332470406 L -1.4142135623731007,3.265986323710905 L -1.4142135623730994,2.4494897427831788 L -0.7071067811865515,2.041241452319317 L -0.7071067811865532,2.857738033247043 L -1.4142135623730998,2.4494897427831788 L -1.414213562373098,1.6329931618554534 L -0.7071067811865501,1.224744871391591 L -2.220446049250313e-15,0.8164965809277291 L -3.1086244689504383e-15,1.6329931618554552 L -0.707106781186551,2.0412414523193174 L -4.440892098500626e-15,2.4494897427831814 L 0.7071067811865435,2.041241452319319 L 0.7071067811865452,1.2247448713915932 L -3.1086244689504383e-15,1.6329931618554552 L 0.7071067811865435,2.041241452319319 L 1.4142135623730918,1.6329931618554572 L 2.1213203435596393,2.041241452319322 L 1.414213562373091,2.449489742783183 L 1.4142135623730892,3.2659863237109095 L 2.121320343559638,2.8577380332470472 L 1.4142135623730905,2.449489742783184 L 0.707106781186543,2.857738033247046 L -5.329070518200751e-15,3.2659863237109077 L 0.7071067811865408,3.6742346141747717 L 0.7071067811865426,2.8577380332470455 L -4.440892098500626e-15,2.449489742783182 L -0.7071067811865523,2.8577380332470437 L -6.217248937900877e-15,3.2659863237109077 L -7.105427357601002e-15,4.082482904638634 L -0.7071067811865541,3.67423461417477 L -0.707106781186555,4.490731195102496 L -7.105427357601002e-15,4.898979485566361 L -7.993605777301127e-15,5.7154760664940865 L -0.707106781186555,5.307227776030223 L -7.105427357601002e-15,4.898979485566361 L 0.7071067811865399,5.307227776030225 L 0.7071067811865399,4.490731195102499 L -6.217248937900877e-15,4.082482904638635 L 0.7071067811865421,3.6742346141747735 L 1.41421356237309,3.2659863237109112 L 2.121320343559637,3.6742346141747753 L 1.4142135623730887,4.082482904638637 L 1.4142135623730883,4.898979485566364 L 2.1213203435596366,4.4907311951025015 L 1.4142135623730892,4.082482904638638 L 0.7071067811865417,4.4907311951025 L -5.773159728050814e-15,4.082482904638637 L 0.7071067811865426,3.6742346141747744 L 0.7071067811865435,2.8577380332470472 L -4.440892098500626e-15,3.2659863237109095 L -0.707106781186551,2.857738033247046 L -3.1086244689504383e-15,2.449489742783184 L -4.440892098500626e-15,3.2659863237109112 L -0.7071067811865523,3.6742346141747726 L -1.4142135623731007,4.082482904638634 L -1.4142135623730998,3.265986323710907 L -0.7071067811865532,3.674234614174771 L -0.7071067811865541,4.490731195102498 L -1.4142135623731025,4.898979485566359 L -1.4142135623731007,4.082482904638632 L -2.1213203435596473,3.674234614174768 L -2.121320343559649,4.490731195102495 L -2.8284271247461956,4.082482904638631 L -3.535533905932742,3.674234614174768 L -3.5355339059327413,2.8577380332470415 L -2.8284271247461947,3.2659863237109046 L -2.1213203435596464,2.8577380332470432 L -2.8284271247461934,2.4494897427831797 L -2.828427124746195,3.2659863237109064 L -2.121320343559648,3.67423461417477 L -1.4142135623730998,3.2659863237109086 L -0.7071067811865515,2.8577380332470463 L -1.4142135623730983,2.449489742783183 L -2.1213203435596464,2.8577380332470446 L -2.1213203435596455,2.041241452319318 L -1.414213562373097,1.632993161855456 L -0.7071067811865501,2.0412414523193196 L -1.4142135623730985,2.4494897427831814 L -1.414213562373098,1.632993161855455 L -0.7071067811865492,1.2247448713915932 L -0.7071067811865488,0.40824829046386646 L -1.4142135623730971,0.8164965809277285 L -2.121320343559644,0.4082482904638649 L -1.4142135623730956,3.3306690738754696e-15 L -1.414213562373097,0.8164965809277301 L -2.1213203435596455,1.2247448713915918 L -2.8284271247461934,1.6329931618554534 L -2.8284271247461925,0.8164965809277263 L -2.1213203435596455,1.2247448713915898 L -2.121320343559647,2.0412414523193165 L -2.828427124746195,2.449489742783178 L -2.828427124746193,1.6329931618554518 L -3.5355339059327404,1.2247448713915878 L -3.5355339059327413,2.0412414523193148 L -4.242640687119288,1.632993161855451 L -4.242640687119287,0.816496580927724 L -4.949747468305834,0.40824829046386 L -4.949747468305835,1.2247448713915872 L -4.242640687119287,0.8164965809277254 L -4.2426406871192865,-8.881784197001252e-16 L -3.5355339059327386,0.4082482904638618 L -3.535533905932741,1.2247448713915887 L -2.8284271247461925,0.8164965809277269 L -2.1213203435596446,0.4082482904638651 L -2.1213203435596433,-0.4082482904638616 L -2.828427124746191,-4.440892098500626e-16 L -3.535533905932738,-0.4082482904638636 L -2.8284271247461903,-0.8164965809277254 L -2.8284271247461916,1.3322676295501878e-15 L -3.5355339059327395,0.4082482904638627 L -3.535533905932741,1.2247448713915898 L -2.8284271247461925,0.8164965809277283 L -2.121320343559646,1.2247448713915918 L -2.828427124746194,1.6329931618554534 L -2.828427124746195,2.44948974278318 L -2.1213203435596473,2.0412414523193187 L -2.828427124746194,1.6329931618554554 L -3.5355339059327417,2.041241452319317 L -4.24264068711929,2.449489742783178 L -3.5355339059327435,2.8577380332470415 L -3.5355339059327417,2.0412414523193148 L -4.242640687119288,1.6329931618554512 L -4.949747468305837,2.041241452319313 L -4.24264068711929,2.4494897427831757 L -4.242640687119291,3.265986323710903 L -4.949747468305837,2.8577380332470397 " />
    </g>
</svg>
