<?xml version="1.0" encoding="UTF-8"?>
<!DOCTYPE svg PUBLIC "-//W3C//DTD SVG 1.1//EN"
    "http://www.w3.org/Graphics/SVG/1.1/DTD/svg11.dtd">
<svg xmlns="http://www.w3.org/2000/svg" xmlns:xlink="http://www.w3.org/1999/xlink" version="1.1" width="500" height="500" viewBox="0 0 100 100"><g><rect width="100" height="100" fill="#CBD4C2" /></g><g><path d="M 20.0,20.0 l 1.5,0.0 m 9.184850993605148e-17,1.5 l 1.5,0.0 l 1.5,0.0 l 9.184850993605148e-17,1.5 l -1.5,1.8369701987210297e-16 l -1.5,1.8369701987210297e-16 l -2.755455298081545e-16,-1.5 m -2.755455298081545e-16,-1.5 l 1.5,-3.6739403974420594e-16 l 1.5,-3.6739403974420594e-16 m -2.755455298081545e-16,-1.5 l 1.5,-3.6739403974420594e-16 l 1.5,-3.6739403974420594e-16 l -2.755455298081545e-16,-1.5 l -1.5,1.8369701987210297e-16 l -1.5,1.8369701987210297e-16 l 9.184850993605148e-17,1.5 m 9.184850993605148e-17,1.5 l 1.5,0.0 l 1.5,0.0 l 1.5,0.0 m 9.184850993605148e-17,1.5 l 1.5,0.0 m 9.184850993605148e-17,1.5 l 1.5,0.0 l 1.5,0.0 l 9.184850993605148e-17,1.5 l -1.5,1.8369701987210297e-16 l -1.5,1.8369701987210297e-16 l -2.755455298081545e-16,-1.5 m -2.755455298081545e-16,-1.5 l 1.5,-3.6739403974420594e-16 l 1.5,-3.6739403974420594e-16 m -2.755455298081545e-16,-1.5 l 1.5,-3.6739403974420594e-16 l 1.5,-3.6739403974420594e-16 l -2.755455298081545e-16,-1.5 l -1.5,1.8369701987210297e-16 l -1.5,1.8369701987210297e-16 l 9.184850993605148e-17,1.5 m 9.184850993605148e-17,1.5 l 1.5,0.0 l 1.5,0.0 l 1.5,0.0 l 1.5,0.0 m 9.184850993605148e-17,1.5 l 1.5,0.0 l 1.5,0.0 l 9.184850993605148e-17,1.5 l -1.5,1.8369701987210297e-16 l -1.5,1.8369701987210297e-16 l -2.755455298081545e-16,-1.5 m -2.755455298081545e-16,-1.5 l 1.5,-3.6739403974420594e-16 l 1.5,-3.6739403974420594e-16 m -2.755455298081545e-16,-1.5 l 1.5,-3.6739403974420594e-16 l 1.5,-3.6739403974420594e-16 l -2.755455298081545e-16,-1.5 l -1.5,1.8369701987210297e-16 l -1.5,1.8369701987210297e-16 l 9.184850993605148e-17,1.5 m 9.184850993605148e-17,1.5 l 1.5,0.0 l 1.5,0.0 l 1.5,0.0 l 9.184850993605148e-17,1.5 m -1.5,1.8369701987210297e-16 l 9.184850993605148e-17,1.5 l 9.184850993605148e-17,1.5 l -1.5,1.8369701987210297e-16 l -2.755455298081545e-16,-1.5 l -2.755455298081545e-16,-1.5 l 1.5,-3.6739403974420594e-16 m 1.5,-3.6739403974420594e-16 l 4.592425496802575e-16,1.5 l 4.592425496802575e-16,1.5 m 1.5,-3.6739403974420594e-16 l 4.592425496802575e-16,1.5 l 4.592425496802575e-16,1.5 l 1.5,-3.6739403974420594e-16 l -2.755455298081545e-16,-1.5 l -2.755455298081545e-16,-1.5 l -1.5,1.8369701987210297e-16 m -1.5,1.8369701987210297e-16 l 9.184850993605148e-17,1.5 l 9.184850993605148e-17,1.5 l 9.184850993605148e-17,1.5 l -1.5,1.8369701987210297e-16 m -2.755455298081545e-16,-1.5 l -1.5,1.8369701987210297e-16 l -1.5,1.8369701987210297e-16 l -2.755455298081545e-16,-1.5 l 1.5,-3.6739403974420594e-16 l 1.5,-3.6739403974420594e-16 l 4.592425496802575e-16,1.5 m 4.592425496802575e-16,1.5 l -1.5,5.51091059616309e-16 l -1.5,5.51091059616309e-16 m 4.592425496802575e-16,1.5 l -1.5,5.51091059616309e-16 l -1.5,5.51091059616309e-16 l 4.592425496802575e-16,1.5 l 1.5,-3.6739403974420594e-16 l 1.5,-3.6739403974420594e-16 l -2.755455298081545e-16,-1.5 m -2.755455298081545e-16,-1.5 l -1.5,1.8369701987210297e-16 l -1.5,1.8369701987210297e-16 l -1.5,1.8369701987210297e-16 l -1.5,1.8369701987210297e-16 m -2.755455298081545e-16,-1.5 l -1.5,1.8369701987210297e-16 l -1.5,1.8369701987210297e-16 l -2.755455298081545e-16,-1.5 l 1.5,-3.6739403974420594e-16 l 1.5,-3.6739403974420594e-16 l 4.592425496802575e-16,1.5 m 4.592425496802575e-16,1.5 l -1.5,5.51091059616309e-16 l -1.5,5.51091059616309e-16 m 4.592425496802575e-16,1.5 l -1.5,5.51091059616309e-16 l -1.5,5.51091059616309e-16 l 4.592425496802575e-16,1.5 l 1.5,-3.6739403974420594e-16 l 1.5,-3.6739403974420594e-16 l -2.755455298081545e-16,-1.5 m -2.755455298081545e-16,-1.5 l -1.5,1.8369701987210297e-16 l -1.5,1.8369701987210297e-16 l -1.5,1.8369701987210297e-16 l -2.755455298081545e-16,-1.5 m 1.5,-3.6739403974420594e-16 l -2.755455298081545e-16,-1.5 l -2.755455298081545e-16,-1.5 l 1.5,-3.6739403974420594e-16 l 4.592425496802575e-16,1.5 l 4.592425496802575e-16,1.5 l -1.5,5.51091059616309e-16 m -1.5,5.51091059616309e-16 l -6.429395695523604e-16,-1.5 l -6.429395695523604e-16,-1.5 m -1.5,5.51091059616309e-16 l -6.429395695523604e-16,-1.5 l -6.429395695523604e-16,-1.5 l -1.5,5.51091059616309e-16 l 4.592425496802575e-16,1.5 l 4.592425496802575e-16,1.5 l 1.5,-3.6739403974420594e-16 m 1.5,-3.6739403974420594e-16 l -2.755455298081545e-16,-1.5 l -2.755455298081545e-16,-1.5 l -2.755455298081545e-16,-1.5 m -2.755455298081545e-16,-1.5 l 1.5,-3.6739403974420594e-16 m 4.592425496802575e-16,1.5 l 1.5,-3.6739403974420594e-16 l 1.5,-3.6739403974420594e-16 l 4.592425496802575e-16,1.5 l -1.5,5.51091059616309e-16 l -1.5,5.51091059616309e-16 l -6.429395695523604e-16,-1.5 m -6.429395695523604e-16,-1.5 l 1.5,-7.347880794884119e-16 l 1.5,-7.347880794884119e-16 m -6.429395695523604e-16,-1.5 l 1.5,-7.347880794884119e-16 l 1.5,-7.347880794884119e-16 l -6.429395695523604e-16,-1.5 l -1.5,5.51091059616309e-16 l -1.5,5.51091059616309e-16 l 4.592425496802575e-16,1.5 m 4.592425496802575e-16,1.5 l 1.5,-3.6739403974420594e-16 l 1.5,-3.6739403974420594e-16 l 1.5,-3.6739403974420594e-16 l 1.5,-3.6739403974420594e-16 m 4.592425496802575e-16,1.5 l 1.5,-3.6739403974420594e-16 l 1.5,-3.6739403974420594e-16 l 4.592425496802575e-16,1.5 l -1.5,5.51091059616309e-16 l -1.5,5.51091059616309e-16 l -6.429395695523604e-16,-1.5 m -6.429395695523604e-16,-1.5 l 1.5,-7.347880794884119e-16 l 1.5,-7.347880794884119e-16 m -6.429395695523604e-16,-1.5 l 1.5,-7.347880794884119e-16 l 1.5,-7.347880794884119e-16 l -6.429395695523604e-16,-1.5 l -1.5,5.51091059616309e-16 l -1.5,5.51091059616309e-16 l 4.592425496802575e-16,1.5 m 4.592425496802575e-16,1.5 l 1.5,-3.6739403974420594e-16 l 1.5,-3.6739403974420594e-16 l 1.5,-3.6739403974420594e-16 m -2.755455298081545e-16,-1.5 l 1.5,-3.6739403974420594e-16 m 4.592425496802575e-16,1.5 l 1.5,-3.6739403974420594e-16 l 1.5,-3.6739403974420594e-16 l 4.592425496802575e-16,1.5 l -1.5,5.51091059616309e-16 l -1.5,5.51091059616309e-16 l -6.429395695523604e-16,-1.5 m -6.429395695523604e-16,-1.5 l 1.5,-7.347880794884119e-16 l 1.5,-7.347880794884119e-16 m -6.429395695523604e-16,-1.5 l 1.5,-7.347880794884119e-16 l 1.5,-7.347880794884119e-16 l -6.429395695523604e-16,-1.5 l -1.5,5.51091059616309e-16 l -1.5,5.51091059616309e-16 l 4.592425496802575e-16,1.5 m 4.592425496802575e-16,1.5 l 1.5,-3.6739403974420594e-16 l 1.5,-3.6739403974420594e-16 l 1.5,-3.6739403974420594e-16 l 1.5,-3.6739403974420594e-16 m 4.592425496802575e-16,1.5 l 1.5,-3.6739403974420594e-16 l 1.5,-3.6739403974420594e-16 l 4.592425496802575e-16,1.5 l -1.5,5.51091059616309e-16 l -1.5,5.51091059616309e-16 l -6.429395695523604e-16,-1.5 m -6.429395695523604e-16,-1.5 l 1.5,-7.347880794884119e-16 l 1.5,-7.347880794884119e-16 m -6.429395695523604e-16,-1.5 l 1.5,-7.347880794884119e-16 l 1.5,-7.347880794884119e-16 l -6.429395695523604e-16,-1.5 l -1.5,5.51091059616309e-16 l -1.5,5.51091059616309e-16 l 4.592425496802575e-16,1.5 m 4.592425496802575e-16,1.5 l 1.5,-3.6739403974420594e-16 l 1.5,-3.6739403974420594e-16 l 1.5,-3.6739403974420594e-16 l -2.755455298081545e-16,-1.5 m 1.5,-3.6739403974420594e-16 l -2.755455298081545e-16,-1.5 l -2.755455298081545e-16,-1.5 l 1.5,-3.6739403974420594e-16 l 4.592425496802575e-16,1.5 l 4.592425496802575e-16,1.5 l -1.5,5.51091059616309e-16 m -1.5,5.51091059616309e-16 l -6.429395695523604e-16,-1.5 l -6.429395695523604e-16,-1.5 m -1.5,5.51091059616309e-16 l -6.429395695523604e-16,-1.5 l -6.429395695523604e-16,-1.5 l -1.5,5.51091059616309e-16 l 4.592425496802575e-16,1.5 l 4.592425496802575e-16,1.5 l 1.5,-3.6739403974420594e-16 m 1.5,-3.6739403974420594e-16 l -2.755455298081545e-16,-1.5 l -2.755455298081545e-16,-1.5 l -2.755455298081545e-16,-1.5 l -1.5,1.8369701987210297e-16 m -2.755455298081545e-16,-1.5 l -1.5,1.8369701987210297e-16 l -1.5,1.8369701987210297e-16 l -2.755455298081545e-16,-1.5 l 1.5,-3.6739403974420594e-16 l 1.5,-3.6739403974420594e-16 l 4.592425496802575e-16,1.5 m 4.592425496802575e-16,1.5 l -1.5,5.51091059616309e-16 l -1.5,5.51091059616309e-16 m 4.592425496802575e-16,1.5 l -1.5,5.51091059616309e-16 l -1.5,5.51091059616309e-16 l 4.592425496802575e-16,1.5 l 1.5,-3.6739403974420594e-16 l 1.5,-3.6739403974420594e-16 l -2.755455298081545e-16,-1.5 m -2.755455298081545e-16,-1.5 l -1.5,1.8369701987210297e-16 l -1.5,1.8369701987210297e-16 l -1.5,1.8369701987210297e-16 l -1.5,1.8369701987210297e-16 m -2.755455298081545e-16,-1.5 l -1.5,1.8369701987210297e-16 l -1.5,1.8369701987210297e-16 l -2.755455298081545e-16,-1.5 l 1.5,-3.6739403974420594e-16 l 1.5,-3.6739403974420594e-16 l 4.592425496802575e-16,1.5 m 4.592425496802575e-16,1.5 l -1.5,5.51091059616309e-16 l -1.5,5.51091059616309e-16 m 4.592425496802575e-16,1.5 l -1.5,5.51091059616309e-16 l -1.5,5.51091059616309e-16 l 4.592425496802575e-16,1.5 l 1.5,-3.6739403974420594e-16 l 1.5,-3.6739403974420594e-16 l -2.755455298081545e-16,-1.5 m -2.755455298081545e-16,-1.5 l -1.5,1.8369701987210297e-16 l -1.5,1.8369701987210297e-16 l -1.5,1.8369701987210297e-16 l 9.184850993605148e-17,1.5 m -1.5,1.8369701987210297e-16 l 9.184850993605148e-17,1.5 l 9.184850993605148e-17,1.5 l -1.5,1.8369701987210297e-16 l -2.755455298081545e-16,-1.5 l -2.755455298081545e-16,-1.5 l 1.5,-3.6739403974420594e-16 m 1.5,-3.6739403974420594e-16 l 4.592425496802575e-16,1.5 l 4.592425496802575e-16,1.5 m 1.5,-3.6739403974420594e-16 l 4.592425496802575e-16,1.5 l 4.592425496802575e-16,1.5 l 1.5,-3.6739403974420594e-16 l -2.755455298081545e-16,-1.5 l -2.755455298081545e-16,-1.5 l -1.5,1.8369701987210297e-16 m -1.5,1.8369701987210297e-16 l 9.184850993605148e-17,1.5 l 9.184850993605148e-17,1.5 l 9.184850993605148e-17,1.5 m 9.184850993605148e-17,1.5 l 1.5,0.0 m 9.184850993605148e-17,1.5 l 1.5,0.0 l 1.5,0.0 l 9.184850993605148e-17,1.5 l -1.5,1.8369701987210297e-16 l -1.5,1.8369701987210297e-16 l -2.755455298081545e-16,-1.5 m -2.755455298081545e-16,-1.5 l 1.5,-3.6739403974420594e-16 l 1.5,-3.6739403974420594e-16 m -2.755455298081545e-16,-1.5 l 1.5,-3.6739403974420594e-16 l 1.5,-3.6739403974420594e-16 l -2.755455298081545e-16,-1.5 l -1.5,1.8369701987210297e-16 l -1.5,1.8369701987210297e-16 l 9.184850993605148e-17,1.5 m 9.184850993605148e-17,1.5 l 1.5,0.0 l 1.5,0.0 l 1.5,0.0 l 1.5,0.0 m 9.184850993605148e-17,1.5 l 1.5,0.0 l 1.5,0.0 l 9.184850993605148e-17,1.5 l -1.5,1.8369701987210297e-16 l -1.5,1.8369701987210297e-16 l -2.755455298081545e-16,-1.5 m -2.755455298081545e-16,-1.5 l 1.5,-3.6739403974420594e-16 l 1.5,-3.6739403974420594e-16 m -2.755455298081545e-16,-1.5 l 1.5,-3.6739403974420594e-16 l 1.5,-3.6739403974420594e-16 l -2.755455298081545e-16,-1.5 l -1.5,1.8369701987210297e-16 l -1.5,1.8369701987210297e-16 l 9.184850993605148e-17,1.5 m 9.184850993605148e-17,1.5 l 1.5,0.0 l 1.5,0.0 l 1.5,0.0 l 1.5,0.0 m 9.184850993605148e-17,1.5 l 1.5,0.0 l 1.5,0.0 l 9.184850993605148e-17,1.5 l -1.5,1.8369701987210297e-16 l -1.5,1.8369701987210297e-16 l -2.755455298081545e-16,-1.5 m -2.755455298081545e-16,-1.5 l 1.5,-3.6739403974420594e-16 l 1.5,-3.6739403974420594e-16 m -2.755455298081545e-16,-1.5 l 1.5,-3.6739403974420594e-16 l 1.5,-3.6739403974420594e-16 l -2.755455298081545e-16,-1.5 l -1.5,1.8369701987210297e-16 l -1.5,1.8369701987210297e-16 l 9.184850993605148e-17,1.5 m 9.184850993605148e-17,1.5 l 1.5,0.0 l 1.5,0.0 l 1.5,0.0 l 9.184850993605148e-17,1.5 m -1.5,1.8369701987210297e-16 l 9.184850993605148e-17,1.5 l 9.184850993605148e-17,1.5 l -1.5,1.8369701987210297e-16 l -2.755455298081545e-16,-1.5 l -2.755455298081545e-16,-1.5 l 1.5,-3.6739403974420594e-16 m 1.5,-3.6739403974420594e-16 l 4.592425496802575e-16,1.5 l 4.592425496802575e-16,1.5 m 1.5,-3.6739403974420594e-16 l 4.592425496802575e-16,1.5 l 4.592425496802575e-16,1.5 l 1.5,-3.6739403974420594e-16 l -2.755455298081545e-16,-1.5 l -2.755455298081545e-16,-1.5 l -1.5,1.8369701987210297e-16 m -1.5,1.8369701987210297e-16 l 9.184850993605148e-17,1.5 l 9.184850993605148e-17,1.5 l 9.184850993605148e-17,1.5 m -1.5,1.8369701987210297e-16 l 9.184850993605148e-17,1.5 m -1.5,1.8369701987210297e-16 l 9.184850993605148e-17,1.5 l 9.184850993605148e-17,1.5 l -1.5,1.8369701987210297e-16 l -2.755455298081545e-16,-1.5 l -2.755455298081545e-16,-1.5 l 1.5,-3.6739403974420594e-16 m 1.5,-3.6739403974420594e-16 l 4.592425496802575e-16,1.5 l 4.592425496802575e-16,1.5 m 1.5,-3.6739403974420594e-16 l 4.592425496802575e-16,1.5 l 4.592425496802575e-16,1.5 l 1.5,-3.6739403974420594e-16 l -2.755455298081545e-16,-1.5 l -2.755455298081545e-16,-1.5 l -1.5,1.8369701987210297e-16 m -1.5,1.8369701987210297e-16 l 9.184850993605148e-17,1.5 l 9.184850993605148e-17,1.5 l 9.184850993605148e-17,1.5 l 9.184850993605148e-17,1.5 m -1.5,1.8369701987210297e-16 l 9.184850993605148e-17,1.5 l 9.184850993605148e-17,1.5 l -1.5,1.8369701987210297e-16 l -2.755455298081545e-16,-1.5 l -2.755455298081545e-16,-1.5 l 1.5,-3.6739403974420594e-16 m 1.5,-3.6739403974420594e-16 l 4.592425496802575e-16,1.5 l 4.592425496802575e-16,1.5 m 1.5,-3.6739403974420594e-16 l 4.592425496802575e-16,1.5 l 4.592425496802575e-16,1.5 l 1.5,-3.6739403974420594e-16 l -2.755455298081545e-16,-1.5 l -2.755455298081545e-16,-1.5 l -1.5,1.8369701987210297e-16 m -1.5,1.8369701987210297e-16 l 9.184850993605148e-17,1.5 l 9.184850993605148e-17,1.5 l 9.184850993605148e-17,1.5 l -1.5,1.8369701987210297e-16 m -2.755455298081545e-16,-1.5 l -1.5,1.8369701987210297e-16 l -1.5,1.8369701987210297e-16 l -2.755455298081545e-16,-1.5 l 1.5,-3.6739403974420594e-16 l 1.5,-3.6739403974420594e-16 l 4.592425496802575e-16,1.5 m 4.592425496802575e-16,1.5 l -1.5,5.51091059616309e-16 l -1.5,5.51091059616309e-16 m 4.592425496802575e-16,1.5 l -1.5,5.51091059616309e-16 l -1.5,5.51091059616309e-16 l 4.592425496802575e-16,1.5 l 1.5,-3.6739403974420594e-16 l 1.5,-3.6739403974420594e-16 l -2.755455298081545e-16,-1.5 m -2.755455298081545e-16,-1.5 l -1.5,1.8369701987210297e-16 l -1.5,1.8369701987210297e-16 l -1.5,1.8369701987210297e-16 l -2.755455298081545e-16,-1.5 m 1.5,-3.6739403974420594e-16 l -2.755455298081545e-16,-1.5 l -2.755455298081545e-16,-1.5 l 1.5,-3.6739403974420594e-16 l 4.592425496802575e-16,1.5 l 4.592425496802575e-16,1.5 l -1.5,5.51091059616309e-16 m -1.5,5.51091059616309e-16 l -6.429395695523604e-16,-1.5 l -6.429395695523604e-16,-1.5 m -1.5,5.51091059616309e-16 l -6.429395695523604e-16,-1.5 l -6.429395695523604e-16,-1.5 l -1.5,5.51091059616309e-16 l 4.592425496802575e-16,1.5 l 4.592425496802575e-16,1.5 l 1.5,-3.6739403974420594e-16 m 1.5,-3.6739403974420594e-16 l -2.755455298081545e-16,-1.5 l -2.755455298081545e-16,-1.5 l -2.755455298081545e-16,-1.5 l -2.755455298081545e-16,-1.5 m 1.5,-3.6739403974420594e-16 l -2.755455298081545e-16,-1.5 l -2.755455298081545e-16,-1.5 l 1.5,-3.6739403974420594e-16 l 4.592425496802575e-16,1.5 l 4.592425496802575e-16,1.5 l -1.5,5.51091059616309e-16 m -1.5,5.51091059616309e-16 l -6.429395695523604e-16,-1.5 l -6.429395695523604e-16,-1.5 m -1.5,5.51091059616309e-16 l -6.429395695523604e-16,-1.5 l -6.429395695523604e-16,-1.5 l -1.5,5.51091059616309e-16 l 4.592425496802575e-16,1.5 l 4.592425496802575e-16,1.5 l 1.5,-3.6739403974420594e-16 m 1.5,-3.6739403974420594e-16 l -2.755455298081545e-16,-1.5 l -2.755455298081545e-16,-1.5 l -2.755455298081545e-16,-1.5 l 1.5,-3.6739403974420594e-16 m 4.592425496802575e-16,1.5 l 1.5,-3.6739403974420594e-16 l 1.5,-3.6739403974420594e-16 l 4.592425496802575e-16,1.5 l -1.5,5.51091059616309e-16 l -1.5,5.51091059616309e-16 l -6.429395695523604e-16,-1.5 m -6.429395695523604e-16,-1.5 l 1.5,-7.347880794884119e-16 l 1.5,-7.347880794884119e-16 m -6.429395695523604e-16,-1.5 l 1.5,-7.347880794884119e-16 l 1.5,-7.347880794884119e-16 l -6.429395695523604e-16,-1.5 l -1.5,5.51091059616309e-16 l -1.5,5.51091059616309e-16 l 4.592425496802575e-16,1.5 m 4.592425496802575e-16,1.5 l 1.5,-3.6739403974420594e-16 l 1.5,-3.6739403974420594e-16 l 1.5,-3.6739403974420594e-16 m 1.5,-3.6739403974420594e-16 l 4.592425496802575e-16,1.5 m -1.5,5.51091059616309e-16 l 4.592425496802575e-16,1.5 l 4.592425496802575e-16,1.5 l -1.5,5.51091059616309e-16 l -6.429395695523604e-16,-1.5 l -6.429395695523604e-16,-1.5 l 1.5,-7.347880794884119e-16 m 1.5,-7.347880794884119e-16 l 8.266365894244634e-16,1.5 l 8.266365894244634e-16,1.5 m 1.5,-7.347880794884119e-16 l 8.266365894244634e-16,1.5 l 8.266365894244634e-16,1.5 l 1.5,-7.347880794884119e-16 l -6.429395695523604e-16,-1.5 l -6.429395695523604e-16,-1.5 l -1.5,5.51091059616309e-16 m -1.5,5.51091059616309e-16 l 4.592425496802575e-16,1.5 l 4.592425496802575e-16,1.5 l 4.592425496802575e-16,1.5 l 4.592425496802575e-16,1.5 m -1.5,5.51091059616309e-16 l 4.592425496802575e-16,1.5 l 4.592425496802575e-16,1.5 l -1.5,5.51091059616309e-16 l -6.429395695523604e-16,-1.5 l -6.429395695523604e-16,-1.5 l 1.5,-7.347880794884119e-16 m 1.5,-7.347880794884119e-16 l 8.266365894244634e-16,1.5 l 8.266365894244634e-16,1.5 m 1.5,-7.347880794884119e-16 l 8.266365894244634e-16,1.5 l 8.266365894244634e-16,1.5 l 1.5,-7.347880794884119e-16 l -6.429395695523604e-16,-1.5 l -6.429395695523604e-16,-1.5 l -1.5,5.51091059616309e-16 m -1.5,5.51091059616309e-16 l 4.592425496802575e-16,1.5 l 4.592425496802575e-16,1.5 l 4.592425496802575e-16,1.5 m 1.5,-3.6739403974420594e-16 l 4.592425496802575e-16,1.5 m -1.5,5.51091059616309e-16 l 4.592425496802575e-16,1.5 l 4.592425496802575e-16,1.5 l -1.5,5.51091059616309e-16 l -6.429395695523604e-16,-1.5 l -6.429395695523604e-16,-1.5 l 1.5,-7.347880794884119e-16 m 1.5,-7.347880794884119e-16 l 8.266365894244634e-16,1.5 l 8.266365894244634e-16,1.5 m 1.5,-7.347880794884119e-16 l 8.266365894244634e-16,1.5 l 8.266365894244634e-16,1.5 l 1.5,-7.347880794884119e-16 l -6.429395695523604e-16,-1.5 l -6.429395695523604e-16,-1.5 l -1.5,5.51091059616309e-16 m -1.5,5.51091059616309e-16 l 4.592425496802575e-16,1.5 l 4.592425496802575e-16,1.5 l 4.592425496802575e-16,1.5 l 4.592425496802575e-16,1.5 m -1.5,5.51091059616309e-16 l 4.592425496802575e-16,1.5 l 4.592425496802575e-16,1.5 l -1.5,5.51091059616309e-16 l -6.429395695523604e-16,-1.5 l -6.429395695523604e-16,-1.5 l 1.5,-7.347880794884119e-16 m 1.5,-7.347880794884119e-16 l 8.266365894244634e-16,1.5 l 8.266365894244634e-16,1.5 m 1.5,-7.347880794884119e-16 l 8.266365894244634e-16,1.5 l 8.266365894244634e-16,1.5 l 1.5,-7.347880794884119e-16 l -6.429395695523604e-16,-1.5 l -6.429395695523604e-16,-1.5 l -1.5,5.51091059616309e-16 m -1.5,5.51091059616309e-16 l 4.592425496802575e-16,1.5 l 4.592425496802575e-16,1.5 l 4.592425496802575e-16,1.5 l 1.5,-3.6739403974420594e-16 m 4.592425496802575e-16,1.5 l 1.5,-3.6739403974420594e-16 l 1.5,-3.6739403974420594e-16 l 4.592425496802575e-16,1.5 l -1.5,5.51091059616309e-16 l -1.5,5.51091059616309e-16 l -6.429395695523604e-16,-1.5 m -6.429395695523604e-16,-1.5 l 1.5,-7.347880794884119e-16 l 1.5,-7.347880794884119e-16 m -6.429395695523604e-16,-1.5 l 1.5,-7.347880794884119e-16 l 1.5,-7.347880794884119e-16 l -6.429395695523604e-16,-1.5 l -1.5,5.51091059616309e-16 l -1.5,5.51091059616309e-16 l 4.592425496802575e-16,1.5 m 4.592425496802575e-16,1.5 l 1.5,-3.6739403974420594e-16 l 1.5,-3.6739403974420594e-16 l 1.5,-3.6739403974420594e-16 l -2.755455298081545e-16,-1.5 m 1.5,-3.6739403974420594e-16 l -2.755455298081545e-16,-1.5 l -2.755455298081545e-16,-1.5 l 1.5,-3.6739403974420594e-16 l 4.592425496802575e-16,1.5 l 4.592425496802575e-16,1.5 l -1.5,5.51091059616309e-16 m -1.5,5.51091059616309e-16 l -6.429395695523604e-16,-1.5 l -6.429395695523604e-16,-1.5 m -1.5,5.51091059616309e-16 l -6.429395695523604e-16,-1.5 l -6.429395695523604e-16,-1.5 l -1.5,5.51091059616309e-16 l 4.592425496802575e-16,1.5 l 4.592425496802575e-16,1.5 l 1.5,-3.6739403974420594e-16 m 1.5,-3.6739403974420594e-16 l -2.755455298081545e-16,-1.5 l -2.755455298081545e-16,-1.5 l -2.755455298081545e-16,-1.5 l -2.755455298081545e-16,-1.5 m 1.5,-3.6739403974420594e-16 l -2.755455298081545e-16,-1.5 l -2.755455298081545e-16,-1.5 l 1.5,-3.6739403974420594e-16 l 4.592425496802575e-16,1.5 l 4.592425496802575e-16,1.5 l -1.5,5.51091059616309e-16 m -1.5,5.51091059616309e-16 l -6.429395695523604e-16,-1.5 l -6.429395695523604e-16,-1.5 m -1.5,5.51091059616309e-16 l -6.429395695523604e-16,-1.5 l -6.429395695523604e-16,-1.5 l -1.5,5.51091059616309e-16 l 4.592425496802575e-16,1.5 l 4.592425496802575e-16,1.5 l 1.5,-3.6739403974420594e-16 m 1.5,-3.6739403974420594e-16 l -2.755455298081545e-16,-1.5 l -2.755455298081545e-16,-1.5 l -2.755455298081545e-16,-1.5 l -1.5,1.8369701987210297e-16 m -2.755455298081545e-16,-1.5 l -1.5,1.8369701987210297e-16 l -1.5,1.8369701987210297e-16 l -2.755455298081545e-16,-1.5 l 1.5,-3.6739403974420594e-16 l 1.5,-3.6739403974420594e-16 l 4.592425496802575e-16,1.5 m 4.592425496802575e-16,1.5 l -1.5,5.51091059616309e-16 l -1.5,5.51091059616309e-16 m 4.592425496802575e-16,1.5 l -1.5,5.51091059616309e-16 l -1.5,5.51091059616309e-16 l 4.592425496802575e-16,1.5 l 1.5,-3.6739403974420594e-16 l 1.5,-3.6739403974420594e-16 l -2.755455298081545e-16,-1.5 m -2.755455298081545e-16,-1.5 l -1.5,1.8369701987210297e-16 l -1.5,1.8369701987210297e-16 l -1.5,1.8369701987210297e-16 m -1.5,1.8369701987210297e-16 l 9.184850993605148e-17,1.5 m -1.5,1.8369701987210297e-16 l 9.184850993605148e-17,1.5 l 9.184850993605148e-17,1.5 l -1.5,1.8369701987210297e-16 l -2.755455298081545e-16,-1.5 l -2.755455298081545e-16,-1.5 l 1.5,-3.6739403974420594e-16 m 1.5,-3.6739403974420594e-16 l 4.592425496802575e-16,1.5 l 4.592425496802575e-16,1.5 m 1.5,-3.6739403974420594e-16 l 4.592425496802575e-16,1.5 l 4.592425496802575e-16,1.5 l 1.5,-3.6739403974420594e-16 l -2.755455298081545e-16,-1.5 l -2.755455298081545e-16,-1.5 l -1.5,1.8369701987210297e-16 m -1.5,1.8369701987210297e-16 l 9.184850993605148e-17,1.5 l 9.184850993605148e-17,1.5 l 9.184850993605148e-17,1.5 l 9.184850993605148e-17,1.5 m -1.5,1.8369701987210297e-16 l 9.184850993605148e-17,1.5 l 9.184850993605148e-17,1.5 l -1.5,1.8369701987210297e-16 l -2.755455298081545e-16,-1.5 l -2.755455298081545e-16,-1.5 l 1.5,-3.6739403974420594e-16 m 1.5,-3.6739403974420594e-16 l 4.592425496802575e-16,1.5 l 4.592425496802575e-16,1.5 m 1.5,-3.6739403974420594e-16 l 4.592425496802575e-16,1.5 l 4.592425496802575e-16,1.5 l 1.5,-3.6739403974420594e-16 l -2.755455298081545e-16,-1.5 l -2.755455298081545e-16,-1.5 l -1.5,1.8369701987210297e-16 m -1.5,1.8369701987210297e-16 l 9.184850993605148e-17,1.5 l 9.184850993605148e-17,1.5 l 9.184850993605148e-17,1.5 l 9.184850993605148e-17,1.5 m -1.5,1.8369701987210297e-16 l 9.184850993605148e-17,1.5 l 9.184850993605148e-17,1.5 l -1.5,1.8369701987210297e-16 l -2.755455298081545e-16,-1.5 l -2.755455298081545e-16,-1.5 l 1.5,-3.6739403974420594e-16 m 1.5,-3.6739403974420594e-16 l 4.592425496802575e-16,1.5 l 4.592425496802575e-16,1.5 m 1.5,-3.6739403974420594e-16 l 4.592425496802575e-16,1.5 l 4.592425496802575e-16,1.5 l 1.5,-3.6739403974420594e-16 l -2.755455298081545e-16,-1.5 l -2.755455298081545e-16,-1.5 l -1.5,1.8369701987210297e-16 m -1.5,1.8369701987210297e-16 l 9.184850993605148e-17,1.5 l 9.184850993605148e-17,1.5 l 9.184850993605148e-17,1.5 l -1.5,1.8369701987210297e-16 m -2.755455298081545e-16,-1.5 l -1.5,1.8369701987210297e-16 l -1.5,1.8369701987210297e-16 l -2.755455298081545e-16,-1.5 l 1.5,-3.6739403974420594e-16 l 1.5,-3.6739403974420594e-16 l 4.592425496802575e-16,1.5 m 4.592425496802575e-16,1.5 l -1.5,5.51091059616309e-16 l -1.5,5.51091059616309e-16 m 4.592425496802575e-16,1.5 l -1.5,5.51091059616309e-16 l -1.5,5.51091059616309e-16 l 4.592425496802575e-16,1.5 l 1.5,-3.6739403974420594e-16 l 1.5,-3.6739403974420594e-16 l -2.755455298081545e-16,-1.5 m -2.755455298081545e-16,-1.5 l -1.5,1.8369701987210297e-16 l -1.5,1.8369701987210297e-16 l -1.5,1.8369701987210297e-16 m -2.755455298081545e-16,-1.5 l -1.5,1.8369701987210297e-16 m -2.755455298081545e-16,-1.5 l -1.5,1.8369701987210297e-16 l -1.5,1.8369701987210297e-16 l -2.755455298081545e-16,-1.5 l 1.5,-3.6739403974420594e-16 l 1.5,-3.6739403974420594e-16 l 4.592425496802575e-16,1.5 m 4.592425496802575e-16,1.5 l -1.5,5.51091059616309e-16 l -1.5,5.51091059616309e-16 m 4.592425496802575e-16,1.5 l -1.5,5.51091059616309e-16 l -1.5,5.51091059616309e-16 l 4.592425496802575e-16,1.5 l 1.5,-3.6739403974420594e-16 l 1.5,-3.6739403974420594e-16 l -2.755455298081545e-16,-1.5 m -2.755455298081545e-16,-1.5 l -1.5,1.8369701987210297e-16 l -1.5,1.8369701987210297e-16 l -1.5,1.8369701987210297e-16 l -1.5,1.8369701987210297e-16 m -2.755455298081545e-16,-1.5 l -1.5,1.8369701987210297e-16 l -1.5,1.8369701987210297e-16 l -2.755455298081545e-16,-1.5 l 1.5,-3.6739403974420594e-16 l 1.5,-3.6739403974420594e-16 l 4.592425496802575e-16,1.5 m 4.592425496802575e-16,1.5 l -1.5,5.51091059616309e-16 l -1.5,5.51091059616309e-16 m 4.592425496802575e-16,1.5 l -1.5,5.51091059616309e-16 l -1.5,5.51091059616309e-16 l 4.592425496802575e-16,1.5 l 1.5,-3.6739403974420594e-16 l 1.5,-3.6739403974420594e-16 l -2.755455298081545e-16,-1.5 m -2.755455298081545e-16,-1.5 l -1.5,1.8369701987210297e-16 l -1.5,1.8369701987210297e-16 l -1.5,1.8369701987210297e-16 l -2.755455298081545e-16,-1.5 m 1.5,-3.6739403974420594e-16 l -2.755455298081545e-16,-1.5 l -2.755455298081545e-16,-1.5 l 1.5,-3.6739403974420594e-16 l 4.592425496802575e-16,1.5 l 4.592425496802575e-16,1.5 l -1.5,5.51091059616309e-16 m -1.5,5.51091059616309e-16 l -6.429395695523604e-16,-1.5 l -6.429395695523604e-16,-1.5 m -1.5,5.51091059616309e-16 l -6.429395695523604e-16,-1.5 l -6.429395695523604e-16,-1.5 l -1.5,5.51091059616309e-16 l 4.592425496802575e-16,1.5 l 4.592425496802575e-16,1.5 l 1.5,-3.6739403974420594e-16 m 1.5,-3.6739403974420594e-16 l -2.755455298081545e-16,-1.5 l -2.755455298081545e-16,-1.5 l -2.755455298081545e-16,-1.5 l 1.5,-3.6739403974420594e-16 m 4.592425496802575e-16,1.5 l 1.5,-3.6739403974420594e-16 l 1.5,-3.6739403974420594e-16 l 4.592425496802575e-16,1.5 l -1.5,5.51091059616309e-16 l -1.5,5.51091059616309e-16 l -6.429395695523604e-16,-1.5 m -6.429395695523604e-16,-1.5 l 1.5,-7.347880794884119e-16 l 1.5,-7.347880794884119e-16 m -6.429395695523604e-16,-1.5 l 1.5,-7.347880794884119e-16 l 1.5,-7.347880794884119e-16 l -6.429395695523604e-16,-1.5 l -1.5,5.51091059616309e-16 l -1.5,5.51091059616309e-16 l 4.592425496802575e-16,1.5 m 4.592425496802575e-16,1.5 l 1.5,-3.6739403974420594e-16 l 1.5,-3.6739403974420594e-16 l 1.5,-3.6739403974420594e-16 l 1.5,-3.6739403974420594e-16 m 4.592425496802575e-16,1.5 l 1.5,-3.6739403974420594e-16 l 1.5,-3.6739403974420594e-16 l 4.592425496802575e-16,1.5 l -1.5,5.51091059616309e-16 l -1.5,5.51091059616309e-16 l -6.429395695523604e-16,-1.5 m -6.429395695523604e-16,-1.5 l 1.5,-7.347880794884119e-16 l 1.5,-7.347880794884119e-16 m -6.429395695523604e-16,-1.5 l 1.5,-7.347880794884119e-16 l 1.5,-7.347880794884119e-16 l -6.429395695523604e-16,-1.5 l -1.5,5.51091059616309e-16 l -1.5,5.51091059616309e-16 l 4.592425496802575e-16,1.5 m 4.592425496802575e-16,1.5 l 1.5,-3.6739403974420594e-16 l 1.5,-3.6739403974420594e-16 l 1.5,-3.6739403974420594e-16 l 4.592425496802575e-16,1.5 m -1.5,5.51091059616309e-16 l 4.592425496802575e-16,1.5 l 4.592425496802575e-16,1.5 l -1.5,5.51091059616309e-16 l -6.429395695523604e-16,-1.5 l -6.429395695523604e-16,-1.5 l 1.5,-7.347880794884119e-16 m 1.5,-7.347880794884119e-16 l 8.266365894244634e-16,1.5 l 8.266365894244634e-16,1.5 m 1.5,-7.347880794884119e-16 l 8.266365894244634e-16,1.5 l 8.266365894244634e-16,1.5 l 1.5,-7.347880794884119e-16 l -6.429395695523604e-16,-1.5 l -6.429395695523604e-16,-1.5 l -1.5,5.51091059616309e-16 m -1.5,5.51091059616309e-16 l 4.592425496802575e-16,1.5 l 4.592425496802575e-16,1.5 l 4.592425496802575e-16,1.5 m 4.592425496802575e-16,1.5 l -1.5,5.51091059616309e-16 m -6.429395695523604e-16,-1.5 l -1.5,5.51091059616309e-16 l -1.5,5.51091059616309e-16 l -6.429395695523604e-16,-1.5 l 1.5,-7.347880794884119e-16 l 1.5,-7.347880794884119e-16 l 8.266365894244634e-16,1.5 m 8.266365894244634e-16,1.5 l -1.5,9.18485099360515e-16 l -1.5,9.18485099360515e-16 m 8.266365894244634e-16,1.5 l -1.5,9.18485099360515e-16 l -1.5,9.18485099360515e-16 l 8.266365894244634e-16,1.5 l 1.5,-7.347880794884119e-16 l 1.5,-7.347880794884119e-16 l -6.429395695523604e-16,-1.5 m -6.429395695523604e-16,-1.5 l -1.5,5.51091059616309e-16 l -1.5,5.51091059616309e-16 l -1.5,5.51091059616309e-16 l -1.5,5.51091059616309e-16 m -6.429395695523604e-16,-1.5 l -1.5,5.51091059616309e-16 l -1.5,5.51091059616309e-16 l -6.429395695523604e-16,-1.5 l 1.5,-7.347880794884119e-16 l 1.5,-7.347880794884119e-16 l 8.266365894244634e-16,1.5 m 8.266365894244634e-16,1.5 l -1.5,9.18485099360515e-16 l -1.5,9.18485099360515e-16 m 8.266365894244634e-16,1.5 l -1.5,9.18485099360515e-16 l -1.5,9.18485099360515e-16 l 8.266365894244634e-16,1.5 l 1.5,-7.347880794884119e-16 l 1.5,-7.347880794884119e-16 l -6.429395695523604e-16,-1.5 m -6.429395695523604e-16,-1.5 l -1.5,5.51091059616309e-16 l -1.5,5.51091059616309e-16 l -1.5,5.51091059616309e-16 m 4.592425496802575e-16,1.5 l -1.5,5.51091059616309e-16 m -6.429395695523604e-16,-1.5 l -1.5,5.51091059616309e-16 l -1.5,5.51091059616309e-16 l -6.429395695523604e-16,-1.5 l 1.5,-7.347880794884119e-16 l 1.5,-7.347880794884119e-16 l 8.266365894244634e-16,1.5 m 8.266365894244634e-16,1.5 l -1.5,9.18485099360515e-16 l -1.5,9.18485099360515e-16 m 8.266365894244634e-16,1.5 l -1.5,9.18485099360515e-16 l -1.5,9.18485099360515e-16 l 8.266365894244634e-16,1.5 l 1.5,-7.347880794884119e-16 l 1.5,-7.347880794884119e-16 l -6.429395695523604e-16,-1.5 m -6.429395695523604e-16,-1.5 l -1.5,5.51091059616309e-16 l -1.5,5.51091059616309e-16 l -1.5,5.51091059616309e-16 l -1.5,5.51091059616309e-16 m -6.429395695523604e-16,-1.5 l -1.5,5.51091059616309e-16 l -1.5,5.51091059616309e-16 l -6.429395695523604e-16,-1.5 l 1.5,-7.347880794884119e-16 l 1.5,-7.347880794884119e-16 l 8.266365894244634e-16,1.5 m 8.266365894244634e-16,1.5 l -1.5,9.18485099360515e-16 l -1.5,9.18485099360515e-16 m 8.266365894244634e-16,1.5 l -1.5,9.18485099360515e-16 l -1.5,9.18485099360515e-16 l 8.266365894244634e-16,1.5 l 1.5,-7.347880794884119e-16 l 1.5,-7.347880794884119e-16 l -6.429395695523604e-16,-1.5 m -6.429395695523604e-16,-1.5 l -1.5,5.51091059616309e-16 l -1.5,5.51091059616309e-16 l -1.5,5.51091059616309e-16 l 4.592425496802575e-16,1.5 m -1.5,5.51091059616309e-16 l 4.592425496802575e-16,1.5 l 4.592425496802575e-16,1.5 l -1.5,5.51091059616309e-16 l -6.429395695523604e-16,-1.5 l -6.429395695523604e-16,-1.5 l 1.5,-7.347880794884119e-16 m 1.5,-7.347880794884119e-16 l 8.266365894244634e-16,1.5 l 8.266365894244634e-16,1.5 m 1.5,-7.347880794884119e-16 l 8.266365894244634e-16,1.5 l 8.266365894244634e-16,1.5 l 1.5,-7.347880794884119e-16 l -6.429395695523604e-16,-1.5 l -6.429395695523604e-16,-1.5 l -1.5,5.51091059616309e-16 m -1.5,5.51091059616309e-16 l 4.592425496802575e-16,1.5 l 4.592425496802575e-16,1.5 l 4.592425496802575e-16,1.5 l 1.5,-3.6739403974420594e-16 m 4.592425496802575e-16,1.5 l 1.5,-3.6739403974420594e-16 l 1.5,-3.6739403974420594e-16 l 4.592425496802575e-16,1.5 l -1.5,5.51091059616309e-16 l -1.5,5.51091059616309e-16 l -6.429395695523604e-16,-1.5 m -6.429395695523604e-16,-1.5 l 1.5,-7.347880794884119e-16 l 1.5,-7.347880794884119e-16 m -6.429395695523604e-16,-1.5 l 1.5,-7.347880794884119e-16 l 1.5,-7.347880794884119e-16 l -6.429395695523604e-16,-1.5 l -1.5,5.51091059616309e-16 l -1.5,5.51091059616309e-16 l 4.592425496802575e-16,1.5 m 4.592425496802575e-16,1.5 l 1.5,-3.6739403974420594e-16 l 1.5,-3.6739403974420594e-16 l 1.5,-3.6739403974420594e-16 l 1.5,-3.6739403974420594e-16 m 4.592425496802575e-16,1.5 l 1.5,-3.6739403974420594e-16 l 1.5,-3.6739403974420594e-16 l 4.592425496802575e-16,1.5 l -1.5,5.51091059616309e-16 l -1.5,5.51091059616309e-16 l -6.429395695523604e-16,-1.5 m -6.429395695523604e-16,-1.5 l 1.5,-7.347880794884119e-16 l 1.5,-7.347880794884119e-16 m -6.429395695523604e-16,-1.5 l 1.5,-7.347880794884119e-16 l 1.5,-7.347880794884119e-16 l -6.429395695523604e-16,-1.5 l -1.5,5.51091059616309e-16 l -1.5,5.51091059616309e-16 l 4.592425496802575e-16,1.5 m 4.592425496802575e-16,1.5 l 1.5,-3.6739403974420594e-16 l 1.5,-3.6739403974420594e-16 l 1.5,-3.6739403974420594e-16 l -2.755455298081545e-16,-1.5 m 1.5,-3.6739403974420594e-16 l -2.755455298081545e-16,-1.5 l -2.755455298081545e-16,-1.5 l 1.5,-3.6739403974420594e-16 l 4.592425496802575e-16,1.5 l 4.592425496802575e-16,1.5 l -1.5,5.51091059616309e-16 m -1.5,5.51091059616309e-16 l -6.429395695523604e-16,-1.5 l -6.429395695523604e-16,-1.5 m -1.5,5.51091059616309e-16 l -6.429395695523604e-16,-1.5 l -6.429395695523604e-16,-1.5 l -1.5,5.51091059616309e-16 l 4.592425496802575e-16,1.5 l 4.592425496802575e-16,1.5 l 1.5,-3.6739403974420594e-16 m 1.5,-3.6739403974420594e-16 l -2.755455298081545e-16,-1.5 l -2.755455298081545e-16,-1.5 l -2.755455298081545e-16,-1.5 m -2.755455298081545e-16,-1.5 l -1.5,1.8369701987210297e-16 m -2.755455298081545e-16,-1.5 l -1.5,1.8369701987210297e-16 l -1.5,1.8369701987210297e-16 l -2.755455298081545e-16,-1.5 l 1.5,-3.6739403974420594e-16 l 1.5,-3.6739403974420594e-16 l 4.592425496802575e-16,1.5 m 4.592425496802575e-16,1.5 l -1.5,5.51091059616309e-16 l -1.5,5.51091059616309e-16 m 4.592425496802575e-16,1.5 l -1.5,5.51091059616309e-16 l -1.5,5.51091059616309e-16 l 4.592425496802575e-16,1.5 l 1.5,-3.6739403974420594e-16 l 1.5,-3.6739403974420594e-16 l -2.755455298081545e-16,-1.5 m -2.755455298081545e-16,-1.5 l -1.5,1.8369701987210297e-16 l -1.5,1.8369701987210297e-16 l -1.5,1.8369701987210297e-16 l -1.5,1.8369701987210297e-16 m -2.755455298081545e-16,-1.5 l -1.5,1.8369701987210297e-16 l -1.5,1.8369701987210297e-16 l -2.755455298081545e-16,-1.5 l 1.5,-3.6739403974420594e-16 l 1.5,-3.6739403974420594e-16 l 4.592425496802575e-16,1.5 m 4.592425496802575e-16,1.5 l -1.5,5.51091059616309e-16 l -1.5,5.51091059616309e-16 m 4.592425496802575e-16,1.5 l -1.5,5.51091059616309e-16 l -1.5,5.51091059616309e-16 l 4.592425496802575e-16,1.5 l 1.5,-3.6739403974420594e-16 l 1.5,-3.6739403974420594e-16 l -2.755455298081545e-16,-1.5 m -2.755455298081545e-16,-1.5 l -1.5,1.8369701987210297e-16 l -1.5,1.8369701987210297e-16 l -1.5,1.8369701987210297e-16 l -1.5,1.8369701987210297e-16 m -2.755455298081545e-16,-1.5 l -1.5,1.8369701987210297e-16 l -1.5,1.8369701987210297e-16 l -2.755455298081545e-16,-1.5 l 1.5,-3.6739403974420594e-16 l 1.5,-3.6739403974420594e-16 l 4.592425496802575e-16,1.5 m 4.592425496802575e-16,1.5 l -1.5,5.51091059616309e-16 l -1.5,5.51091059616309e-16 m 4.592425496802575e-16,1.5 l -1.5,5.51091059616309e-16 l -1.5,5.51091059616309e-16 l 4.592425496802575e-16,1.5 l 1.5,-3.6739403974420594e-16 l 1.5,-3.6739403974420594e-16 l -2.755455298081545e-16,-1.5 m -2.755455298081545e-16,-1.5 l -1.5,1.8369701987210297e-16 l -1.5,1.8369701987210297e-16 l -1.5,1.8369701987210297e-16 l -2.755455298081545e-16,-1.5 m 1.5,-3.6739403974420594e-16 l -2.755455298081545e-16,-1.5 l -2.755455298081545e-16,-1.5 l 1.5,-3.6739403974420594e-16 l 4.592425496802575e-16,1.5 l 4.592425496802575e-16,1.5 l -1.5,5.51091059616309e-16 m -1.5,5.51091059616309e-16 l -6.429395695523604e-16,-1.5 l -6.429395695523604e-16,-1.5 m -1.5,5.51091059616309e-16 l -6.429395695523604e-16,-1.5 l -6.429395695523604e-16,-1.5 l -1.5,5.51091059616309e-16 l 4.592425496802575e-16,1.5 l 4.592425496802575e-16,1.5 l 1.5,-3.6739403974420594e-16 m 1.5,-3.6739403974420594e-16 l -2.755455298081545e-16,-1.5 l -2.755455298081545e-16,-1.5 l -2.755455298081545e-16,-1.5 m 1.5,-3.6739403974420594e-16 l -2.755455298081545e-16,-1.5 m 1.5,-3.6739403974420594e-16 l -2.755455298081545e-16,-1.5 l -2.755455298081545e-16,-1.5 l 1.5,-3.6739403974420594e-16 l 4.592425496802575e-16,1.5 l 4.592425496802575e-16,1.5 l -1.5,5.51091059616309e-16 m -1.5,5.51091059616309e-16 l -6.429395695523604e-16,-1.5 l -6.429395695523604e-16,-1.5 m -1.5,5.51091059616309e-16 l -6.429395695523604e-16,-1.5 l -6.429395695523604e-16,-1.5 l -1.5,5.51091059616309e-16 l 4.592425496802575e-16,1.5 l 4.592425496802575e-16,1.5 l 1.5,-3.6739403974420594e-16 m 1.5,-3.6739403974420594e-16 l -2.755455298081545e-16,-1.5 l -2.755455298081545e-16,-1.5 l -2.755455298081545e-16,-1.5 l -2.755455298081545e-16,-1.5 m 1.5,-3.6739403974420594e-16 l -2.755455298081545e-16,-1.5 l -2.755455298081545e-16,-1.5 l 1.5,-3.6739403974420594e-16 l 4.592425496802575e-16,1.5 l 4.592425496802575e-16,1.5 l -1.5,5.51091059616309e-16 m -1.5,5.51091059616309e-16 l -6.429395695523604e-16,-1.5 l -6.429395695523604e-16,-1.5 m -1.5,5.51091059616309e-16 l -6.429395695523604e-16,-1.5 l -6.429395695523604e-16,-1.5 l -1.5,5.51091059616309e-16 l 4.592425496802575e-16,1.5 l 4.592425496802575e-16,1.5 l 1.5,-3.6739403974420594e-16 m 1.5,-3.6739403974420594e-16 l -2.755455298081545e-16,-1.5 l -2.755455298081545e-16,-1.5 l -2.755455298081545e-16,-1.5 l 1.5,-3.6739403974420594e-16 m 4.592425496802575e-16,1.5 l 1.5,-3.6739403974420594e-16 l 1.5,-3.6739403974420594e-16 l 4.592425496802575e-16,1.5 l -1.5,5.51091059616309e-16 l -1.5,5.51091059616309e-16 l -6.429395695523604e-16,-1.5 m -6.429395695523604e-16,-1.5 l 1.5,-7.347880794884119e-16 l 1.5,-7.347880794884119e-16 m -6.429395695523604e-16,-1.5 l 1.5,-7.347880794884119e-16 l 1.5,-7.347880794884119e-16 l -6.429395695523604e-16,-1.5 l -1.5,5.51091059616309e-16 l -1.5,5.51091059616309e-16 l 4.592425496802575e-16,1.5 m 4.592425496802575e-16,1.5 l 1.5,-3.6739403974420594e-16 l 1.5,-3.6739403974420594e-16 l 1.5,-3.6739403974420594e-16 l 4.592425496802575e-16,1.5 m -1.5,5.51091059616309e-16 l 4.592425496802575e-16,1.5 l 4.592425496802575e-16,1.5 l -1.5,5.51091059616309e-16 l -6.429395695523604e-16,-1.5 l -6.429395695523604e-16,-1.5 l 1.5,-7.347880794884119e-16 m 1.5,-7.347880794884119e-16 l 8.266365894244634e-16,1.5 l 8.266365894244634e-16,1.5 m 1.5,-7.347880794884119e-16 l 8.266365894244634e-16,1.5 l 8.266365894244634e-16,1.5 l 1.5,-7.347880794884119e-16 l -6.429395695523604e-16,-1.5 l -6.429395695523604e-16,-1.5 l -1.5,5.51091059616309e-16 m -1.5,5.51091059616309e-16 l 4.592425496802575e-16,1.5 l 4.592425496802575e-16,1.5 l 4.592425496802575e-16,1.5 l 4.592425496802575e-16,1.5 m -1.5,5.51091059616309e-16 l 4.592425496802575e-16,1.5 l 4.592425496802575e-16,1.5 l -1.5,5.51091059616309e-16 l -6.429395695523604e-16,-1.5 l -6.429395695523604e-16,-1.5 l 1.5,-7.347880794884119e-16 m 1.5,-7.347880794884119e-16 l 8.266365894244634e-16,1.5 l 8.266365894244634e-16,1.5 m 1.5,-7.347880794884119e-16 l 8.266365894244634e-16,1.5 l 8.266365894244634e-16,1.5 l 1.5,-7.347880794884119e-16 l -6.429395695523604e-16,-1.5 l -6.429395695523604e-16,-1.5 l -1.5,5.51091059616309e-16 m -1.5,5.51091059616309e-16 l 4.592425496802575e-16,1.5 l 4.592425496802575e-16,1.5 l 4.592425496802575e-16,1.5 l -1.5,5.51091059616309e-16 m -6.429395695523604e-16,-1.5 l -1.5,5.51091059616309e-16 l -1.5,5.51091059616309e-16 l -6.429395695523604e-16,-1.5 l 1.5,-7.347880794884119e-16 l 1.5,-7.347880794884119e-16 l 8.266365894244634e-16,1.5 m 8.266365894244634e-16,1.5 l -1.5,9.18485099360515e-16 l -1.5,9.18485099360515e-16 m 8.266365894244634e-16,1.5 l -1.5,9.18485099360515e-16 l -1.5,9.18485099360515e-16 l 8.266365894244634e-16,1.5 l 1.5,-7.347880794884119e-16 l 1.5,-7.347880794884119e-16 l -6.429395695523604e-16,-1.5 m -6.429395695523604e-16,-1.5 l -1.5,5.51091059616309e-16 l -1.5,5.51091059616309e-16 l -1.5,5.51091059616309e-16 m -1.5,5.51091059616309e-16 l -6.429395695523604e-16,-1.5 m 1.5,-7.347880794884119e-16 l -6.429395695523604e-16,-1.5 l -6.429395695523604e-16,-1.5 l 1.5,-7.347880794884119e-16 l 8.266365894244634e-16,1.5 l 8.266365894244634e-16,1.5 l -1.5,9.18485099360515e-16 m -1.5,9.18485099360515e-16 l -3.674868868396942e-15,-1.5 l -3.674868868396942e-15,-1.5 m -1.5,3.583020358460891e-15 l -3.674868868396942e-15,-1.5 l -3.674868868396942e-15,-1.5 l -1.5,3.583020358460891e-15 l 3.491171848524839e-15,1.5 l 3.491171848524839e-15,1.5 l 1.5,-3.3993233385887878e-15 m 1.5,-3.3993233385887878e-15 l -3.3074748286527364e-15,-1.5 l -3.3074748286527364e-15,-1.5 l -3.3074748286527364e-15,-1.5 l -3.3074748286527364e-15,-1.5 m 1.5,-3.3993233385887878e-15 l -3.3074748286527364e-15,-1.5 l -3.3074748286527364e-15,-1.5 l 1.5,-3.3993233385887878e-15 l 3.491171848524839e-15,1.5 l 3.491171848524839e-15,1.5 l -1.5,3.583020358460891e-15 m -1.5,3.583020358460891e-15 l -3.674868868396942e-15,-1.5 l -3.674868868396942e-15,-1.5 m -1.5,3.583020358460891e-15 l -3.674868868396942e-15,-1.5 l -3.674868868396942e-15,-1.5 l -1.5,3.583020358460891e-15 l 3.491171848524839e-15,1.5 l 3.491171848524839e-15,1.5 l 1.5,-3.3993233385887878e-15 m 1.5,-3.3993233385887878e-15 l -3.3074748286527364e-15,-1.5 l -3.3074748286527364e-15,-1.5 l -3.3074748286527364e-15,-1.5 m -1.5,3.2156263187166847e-15 l -3.3074748286527364e-15,-1.5 m 1.5,-3.3993233385887878e-15 l -3.3074748286527364e-15,-1.5 l -3.3074748286527364e-15,-1.5 l 1.5,-3.3993233385887878e-15 l 3.491171848524839e-15,1.5 l 3.491171848524839e-15,1.5 l -1.5,3.583020358460891e-15 m -1.5,3.583020358460891e-15 l -3.674868868396942e-15,-1.5 l -3.674868868396942e-15,-1.5 m -1.5,3.583020358460891e-15 l -3.674868868396942e-15,-1.5 l -3.674868868396942e-15,-1.5 l -1.5,3.583020358460891e-15 l 3.491171848524839e-15,1.5 l 3.491171848524839e-15,1.5 l 1.5,-3.3993233385887878e-15 m 1.5,-3.3993233385887878e-15 l -3.3074748286527364e-15,-1.5 l -3.3074748286527364e-15,-1.5 l -3.3074748286527364e-15,-1.5 l -3.3074748286527364e-15,-1.5 m 1.5,-3.3993233385887878e-15 l -3.3074748286527364e-15,-1.5 l -3.3074748286527364e-15,-1.5 l 1.5,-3.3993233385887878e-15 l 3.491171848524839e-15,1.5 l 3.491171848524839e-15,1.5 l -1.5,3.583020358460891e-15 m -1.5,3.583020358460891e-15 l -3.674868868396942e-15,-1.5 l -3.674868868396942e-15,-1.5 m -1.5,3.583020358460891e-15 l -3.674868868396942e-15,-1.5 l -3.674868868396942e-15,-1.5 l -1.5,3.583020358460891e-15 l 3.491171848524839e-15,1.5 l 3.491171848524839e-15,1.5 l 1.5,-3.3993233385887878e-15 m 1.5,-3.3993233385887878e-15 l -3.3074748286527364e-15,-1.5 l -3.3074748286527364e-15,-1.5 l -3.3074748286527364e-15,-1.5 l -1.5,3.2156263187166847e-15 m -3.3074748286527364e-15,-1.5 l -1.5,3.2156263187166847e-15 l -1.5,3.2156263187166847e-15 l -3.3074748286527364e-15,-1.5 l 1.5,-3.3993233385887878e-15 l 1.5,-3.3993233385887878e-15 l 3.491171848524839e-15,1.5 m 3.491171848524839e-15,1.5 l -1.5,3.583020358460891e-15 l -1.5,3.583020358460891e-15 m 3.491171848524839e-15,1.5 l -1.5,3.583020358460891e-15 l -1.5,3.583020358460891e-15 l 3.491171848524839e-15,1.5 l 1.5,-3.3993233385887878e-15 l 1.5,-3.3993233385887878e-15 l -3.3074748286527364e-15,-1.5 m -3.3074748286527364e-15,-1.5 l -1.5,3.2156263187166847e-15 l -1.5,3.2156263187166847e-15 l -1.5,3.2156263187166847e-15 l 3.1237778087806333e-15,1.5 m -1.5,3.2156263187166847e-15 l 3.1237778087806333e-15,1.5 l 3.1237778087806333e-15,1.5 l -1.5,3.2156263187166847e-15 l -3.3074748286527364e-15,-1.5 l -3.3074748286527364e-15,-1.5 l 1.5,-3.3993233385887878e-15 m 1.5,-3.3993233385887878e-15 l 3.491171848524839e-15,1.5 l 3.491171848524839e-15,1.5 m 1.5,-3.3993233385887878e-15 l 3.491171848524839e-15,1.5 l 3.491171848524839e-15,1.5 l 1.5,-3.3993233385887878e-15 l -3.3074748286527364e-15,-1.5 l -3.3074748286527364e-15,-1.5 l -1.5,3.2156263187166847e-15 m -1.5,3.2156263187166847e-15 l 3.1237778087806333e-15,1.5 l 3.1237778087806333e-15,1.5 l 3.1237778087806333e-15,1.5 l 3.1237778087806333e-15,1.5 m -1.5,3.2156263187166847e-15 l 3.1237778087806333e-15,1.5 l 3.1237778087806333e-15,1.5 l -1.5,3.2156263187166847e-15 l -3.3074748286527364e-15,-1.5 l -3.3074748286527364e-15,-1.5 l 1.5,-3.3993233385887878e-15 m 1.5,-3.3993233385887878e-15 l 3.491171848524839e-15,1.5 l 3.491171848524839e-15,1.5 m 1.5,-3.3993233385887878e-15 l 3.491171848524839e-15,1.5 l 3.491171848524839e-15,1.5 l 1.5,-3.3993233385887878e-15 l -3.3074748286527364e-15,-1.5 l -3.3074748286527364e-15,-1.5 l -1.5,3.2156263187166847e-15 m -1.5,3.2156263187166847e-15 l 3.1237778087806333e-15,1.5 l 3.1237778087806333e-15,1.5 l 3.1237778087806333e-15,1.5 l 1.5,-3.031929298844582e-15 m 3.1237778087806333e-15,1.5 l 1.5,-3.031929298844582e-15 l 1.5,-3.031929298844582e-15 l 3.1237778087806333e-15,1.5 l -1.5,3.2156263187166847e-15 l -1.5,3.2156263187166847e-15 l -3.3074748286527364e-15,-1.5 m -3.3074748286527364e-15,-1.5 l 1.5,-3.3993233385887878e-15 l 1.5,-3.3993233385887878e-15 m -3.3074748286527364e-15,-1.5 l 1.5,-3.3993233385887878e-15 l 1.5,-3.3993233385887878e-15 l -3.3074748286527364e-15,-1.5 l -1.5,3.2156263187166847e-15 l -1.5,3.2156263187166847e-15 l 3.1237778087806333e-15,1.5 m 3.1237778087806333e-15,1.5 l 1.5,-3.031929298844582e-15 l 1.5,-3.031929298844582e-15 l 1.5,-3.031929298844582e-15 m 1.5,-3.031929298844582e-15 l -2.9400807889085306e-15,-1.5 m 1.5,-3.031929298844582e-15 l -2.9400807889085306e-15,-1.5 l -2.9400807889085306e-15,-1.5 l 1.5,-3.031929298844582e-15 l 3.1237778087806333e-15,1.5 l 3.1237778087806333e-15,1.5 l -1.5,3.2156263187166847e-15 m -1.5,3.2156263187166847e-15 l -3.3074748286527364e-15,-1.5 l -3.3074748286527364e-15,-1.5 m -1.5,3.2156263187166847e-15 l -3.3074748286527364e-15,-1.5 l -3.3074748286527364e-15,-1.5 l -1.5,3.2156263187166847e-15 l 3.1237778087806333e-15,1.5 l 3.1237778087806333e-15,1.5 l 1.5,-3.031929298844582e-15 m 1.5,-3.031929298844582e-15 l -2.9400807889085306e-15,-1.5 l -2.9400807889085306e-15,-1.5 l -2.9400807889085306e-15,-1.5 l -2.9400807889085306e-15,-1.5 m 1.5,-3.031929298844582e-15 l -2.9400807889085306e-15,-1.5 l -2.9400807889085306e-15,-1.5 l 1.5,-3.031929298844582e-15 l 3.1237778087806333e-15,1.5 l 3.1237778087806333e-15,1.5 l -1.5,3.2156263187166847e-15 m -1.5,3.2156263187166847e-15 l -3.3074748286527364e-15,-1.5 l -3.3074748286527364e-15,-1.5 m -1.5,3.2156263187166847e-15 l -3.3074748286527364e-15,-1.5 l -3.3074748286527364e-15,-1.5 l -1.5,3.2156263187166847e-15 l 3.1237778087806333e-15,1.5 l 3.1237778087806333e-15,1.5 l 1.5,-3.031929298844582e-15 m 1.5,-3.031929298844582e-15 l -2.9400807889085306e-15,-1.5 l -2.9400807889085306e-15,-1.5 l -2.9400807889085306e-15,-1.5 l -2.9400807889085306e-15,-1.5 m 1.5,-3.031929298844582e-15 l -2.9400807889085306e-15,-1.5 l -2.9400807889085306e-15,-1.5 l 1.5,-3.031929298844582e-15 l 3.1237778087806333e-15,1.5 l 3.1237778087806333e-15,1.5 l -1.5,3.2156263187166847e-15 m -1.5,3.2156263187166847e-15 l -3.3074748286527364e-15,-1.5 l -3.3074748286527364e-15,-1.5 m -1.5,3.2156263187166847e-15 l -3.3074748286527364e-15,-1.5 l -3.3074748286527364e-15,-1.5 l -1.5,3.2156263187166847e-15 l 3.1237778087806333e-15,1.5 l 3.1237778087806333e-15,1.5 l 1.5,-3.031929298844582e-15 m 1.5,-3.031929298844582e-15 l -2.9400807889085306e-15,-1.5 l -2.9400807889085306e-15,-1.5 l -2.9400807889085306e-15,-1.5 " style="stroke:#50514F;stroke-width:0.2;fill:none" /></g></svg>