<?xml version="1.0" encoding="UTF-8"?>
<!DOCTYPE svg PUBLIC "-//W3C//DTD SVG 1.1//EN"
    "http://www.w3.org/Graphics/SVG/1.1/DTD/svg11.dtd">
<svg xmlns="http://www.w3.org/2000/svg" xmlns:xlink="http://www.w3.org/1999/xlink" version="1.1" width="500.00000000000057" height="500" viewBox="-14.400000000000048 -14.40000000000001 64.80000000000005 64.79999999999998"><g><rect x="-14.400000000000048" y="-14.40000000000001" width="64.80000000000005" height="64.79999999999998" fill="#CBD4C2" /></g><g><path d="M 0,0 l 1.0,0.0 m 6.123233995736766e-17,1.0 l 1.0,0.0 l 1.0,0.0 l 6.123233995736766e-17,1.0 l -1.0,1.2246467991473532e-16 l -1.0,1.2246467991473532e-16 l -1.8369701987210297e-16,-1.0 m -1.8369701987210297e-16,-1.0 l 1.0,-2.4492935982947064e-16 l 1.0,-2.4492935982947064e-16 m -1.8369701987210297e-16,-1.0 l 1.0,-2.4492935982947064e-16 l 1.0,-2.4492935982947064e-16 l -1.8369701987210297e-16,-1.0 l -1.0,1.2246467991473532e-16 l -1.0,1.2246467991473532e-16 l 6.123233995736766e-17,1.0 m 6.123233995736766e-17,1.0 l 1.0,0.0 l 1.0,0.0 l 1.0,0.0 m 6.123233995736766e-17,1.0 l 1.0,0.0 m 6.123233995736766e-17,1.0 l 1.0,0.0 l 1.0,0.0 l 6.123233995736766e-17,1.0 l -1.0,1.2246467991473532e-16 l -1.0,1.2246467991473532e-16 l -1.8369701987210297e-16,-1.0 m -1.8369701987210297e-16,-1.0 l 1.0,-2.4492935982947064e-16 l 1.0,-2.4492935982947064e-16 m -1.8369701987210297e-16,-1.0 l 1.0,-2.4492935982947064e-16 l 1.0,-2.4492935982947064e-16 l -1.8369701987210297e-16,-1.0 l -1.0,1.2246467991473532e-16 l -1.0,1.2246467991473532e-16 l 6.123233995736766e-17,1.0 m 6.123233995736766e-17,1.0 l 1.0,0.0 l 1.0,0.0 l 1.0,0.0 l 1.0,0.0 m 6.123233995736766e-17,1.0 l 1.0,0.0 l 1.0,0.0 l 6.123233995736766e-17,1.0 l -1.0,1.2246467991473532e-16 l -1.0,1.2246467991473532e-16 l -1.8369701987210297e-16,-1.0 m -1.8369701987210297e-16,-1.0 l 1.0,-2.4492935982947064e-16 l 1.0,-2.4492935982947064e-16 m -1.8369701987210297e-16,-1.0 l 1.0,-2.4492935982947064e-16 l 1.0,-2.4492935982947064e-16 l -1.8369701987210297e-16,-1.0 l -1.0,1.2246467991473532e-16 l -1.0,1.2246467991473532e-16 l 6.123233995736766e-17,1.0 m 6.123233995736766e-17,1.0 l 1.0,0.0 l 1.0,0.0 l 1.0,0.0 l 6.123233995736766e-17,1.0 m -1.0,1.2246467991473532e-16 l 6.123233995736766e-17,1.0 l 6.123233995736766e-17,1.0 l -1.0,1.2246467991473532e-16 l -1.8369701987210297e-16,-1.0 l -1.8369701987210297e-16,-1.0 l 1.0,-2.4492935982947064e-16 m 1.0,-2.4492935982947064e-16 l 3.061616997868383e-16,1.0 l 3.061616997868383e-16,1.0 m 1.0,-2.4492935982947064e-16 l 3.061616997868383e-16,1.0 l 3.061616997868383e-16,1.0 l 1.0,-2.4492935982947064e-16 l -1.8369701987210297e-16,-1.0 l -1.8369701987210297e-16,-1.0 l -1.0,1.2246467991473532e-16 m -1.0,1.2246467991473532e-16 l 6.123233995736766e-17,1.0 l 6.123233995736766e-17,1.0 l 6.123233995736766e-17,1.0 l -1.0,1.2246467991473532e-16 m -1.8369701987210297e-16,-1.0 l -1.0,1.2246467991473532e-16 l -1.0,1.2246467991473532e-16 l -1.8369701987210297e-16,-1.0 l 1.0,-2.4492935982947064e-16 l 1.0,-2.4492935982947064e-16 l 3.061616997868383e-16,1.0 m 3.061616997868383e-16,1.0 l -1.0,3.6739403974420594e-16 l -1.0,3.6739403974420594e-16 m 3.061616997868383e-16,1.0 l -1.0,3.6739403974420594e-16 l -1.0,3.6739403974420594e-16 l 3.061616997868383e-16,1.0 l 1.0,-2.4492935982947064e-16 l 1.0,-2.4492935982947064e-16 l -1.8369701987210297e-16,-1.0 m -1.8369701987210297e-16,-1.0 l -1.0,1.2246467991473532e-16 l -1.0,1.2246467991473532e-16 l -1.0,1.2246467991473532e-16 l -1.0,1.2246467991473532e-16 m -1.8369701987210297e-16,-1.0 l -1.0,1.2246467991473532e-16 l -1.0,1.2246467991473532e-16 l -1.8369701987210297e-16,-1.0 l 1.0,-2.4492935982947064e-16 l 1.0,-2.4492935982947064e-16 l 3.061616997868383e-16,1.0 m 3.061616997868383e-16,1.0 l -1.0,3.6739403974420594e-16 l -1.0,3.6739403974420594e-16 m 3.061616997868383e-16,1.0 l -1.0,3.6739403974420594e-16 l -1.0,3.6739403974420594e-16 l 3.061616997868383e-16,1.0 l 1.0,-2.4492935982947064e-16 l 1.0,-2.4492935982947064e-16 l -1.8369701987210297e-16,-1.0 m -1.8369701987210297e-16,-1.0 l -1.0,1.2246467991473532e-16 l -1.0,1.2246467991473532e-16 l -1.0,1.2246467991473532e-16 l -1.8369701987210297e-16,-1.0 m 1.0,-2.4492935982947064e-16 l -1.8369701987210297e-16,-1.0 l -1.8369701987210297e-16,-1.0 l 1.0,-2.4492935982947064e-16 l 3.061616997868383e-16,1.0 l 3.061616997868383e-16,1.0 l -1.0,3.6739403974420594e-16 m -1.0,3.6739403974420594e-16 l -4.286263797015736e-16,-1.0 l -4.286263797015736e-16,-1.0 m -1.0,3.6739403974420594e-16 l -4.286263797015736e-16,-1.0 l -4.286263797015736e-16,-1.0 l -1.0,3.6739403974420594e-16 l 3.061616997868383e-16,1.0 l 3.061616997868383e-16,1.0 l 1.0,-2.4492935982947064e-16 m 1.0,-2.4492935982947064e-16 l -1.8369701987210297e-16,-1.0 l -1.8369701987210297e-16,-1.0 l -1.8369701987210297e-16,-1.0 m -1.8369701987210297e-16,-1.0 l 1.0,-2.4492935982947064e-16 m 3.061616997868383e-16,1.0 l 1.0,-2.4492935982947064e-16 l 1.0,-2.4492935982947064e-16 l 3.061616997868383e-16,1.0 l -1.0,3.6739403974420594e-16 l -1.0,3.6739403974420594e-16 l -4.286263797015736e-16,-1.0 m -4.286263797015736e-16,-1.0 l 1.0,-4.898587196589413e-16 l 1.0,-4.898587196589413e-16 m -4.286263797015736e-16,-1.0 l 1.0,-4.898587196589413e-16 l 1.0,-4.898587196589413e-16 l -4.286263797015736e-16,-1.0 l -1.0,3.6739403974420594e-16 l -1.0,3.6739403974420594e-16 l 3.061616997868383e-16,1.0 m 3.061616997868383e-16,1.0 l 1.0,-2.4492935982947064e-16 l 1.0,-2.4492935982947064e-16 l 1.0,-2.4492935982947064e-16 l 1.0,-2.4492935982947064e-16 m 3.061616997868383e-16,1.0 l 1.0,-2.4492935982947064e-16 l 1.0,-2.4492935982947064e-16 l 3.061616997868383e-16,1.0 l -1.0,3.6739403974420594e-16 l -1.0,3.6739403974420594e-16 l -4.286263797015736e-16,-1.0 m -4.286263797015736e-16,-1.0 l 1.0,-4.898587196589413e-16 l 1.0,-4.898587196589413e-16 m -4.286263797015736e-16,-1.0 l 1.0,-4.898587196589413e-16 l 1.0,-4.898587196589413e-16 l -4.286263797015736e-16,-1.0 l -1.0,3.6739403974420594e-16 l -1.0,3.6739403974420594e-16 l 3.061616997868383e-16,1.0 m 3.061616997868383e-16,1.0 l 1.0,-2.4492935982947064e-16 l 1.0,-2.4492935982947064e-16 l 1.0,-2.4492935982947064e-16 m -1.8369701987210297e-16,-1.0 l 1.0,-2.4492935982947064e-16 m 3.061616997868383e-16,1.0 l 1.0,-2.4492935982947064e-16 l 1.0,-2.4492935982947064e-16 l 3.061616997868383e-16,1.0 l -1.0,3.6739403974420594e-16 l -1.0,3.6739403974420594e-16 l -4.286263797015736e-16,-1.0 m -4.286263797015736e-16,-1.0 l 1.0,-4.898587196589413e-16 l 1.0,-4.898587196589413e-16 m -4.286263797015736e-16,-1.0 l 1.0,-4.898587196589413e-16 l 1.0,-4.898587196589413e-16 l -4.286263797015736e-16,-1.0 l -1.0,3.6739403974420594e-16 l -1.0,3.6739403974420594e-16 l 3.061616997868383e-16,1.0 m 3.061616997868383e-16,1.0 l 1.0,-2.4492935982947064e-16 l 1.0,-2.4492935982947064e-16 l 1.0,-2.4492935982947064e-16 l 1.0,-2.4492935982947064e-16 m 3.061616997868383e-16,1.0 l 1.0,-2.4492935982947064e-16 l 1.0,-2.4492935982947064e-16 l 3.061616997868383e-16,1.0 l -1.0,3.6739403974420594e-16 l -1.0,3.6739403974420594e-16 l -4.286263797015736e-16,-1.0 m -4.286263797015736e-16,-1.0 l 1.0,-4.898587196589413e-16 l 1.0,-4.898587196589413e-16 m -4.286263797015736e-16,-1.0 l 1.0,-4.898587196589413e-16 l 1.0,-4.898587196589413e-16 l -4.286263797015736e-16,-1.0 l -1.0,3.6739403974420594e-16 l -1.0,3.6739403974420594e-16 l 3.061616997868383e-16,1.0 m 3.061616997868383e-16,1.0 l 1.0,-2.4492935982947064e-16 l 1.0,-2.4492935982947064e-16 l 1.0,-2.4492935982947064e-16 l -1.8369701987210297e-16,-1.0 m 1.0,-2.4492935982947064e-16 l -1.8369701987210297e-16,-1.0 l -1.8369701987210297e-16,-1.0 l 1.0,-2.4492935982947064e-16 l 3.061616997868383e-16,1.0 l 3.061616997868383e-16,1.0 l -1.0,3.6739403974420594e-16 m -1.0,3.6739403974420594e-16 l -4.286263797015736e-16,-1.0 l -4.286263797015736e-16,-1.0 m -1.0,3.6739403974420594e-16 l -4.286263797015736e-16,-1.0 l -4.286263797015736e-16,-1.0 l -1.0,3.6739403974420594e-16 l 3.061616997868383e-16,1.0 l 3.061616997868383e-16,1.0 l 1.0,-2.4492935982947064e-16 m 1.0,-2.4492935982947064e-16 l -1.8369701987210297e-16,-1.0 l -1.8369701987210297e-16,-1.0 l -1.8369701987210297e-16,-1.0 l -1.0,1.2246467991473532e-16 m -1.8369701987210297e-16,-1.0 l -1.0,1.2246467991473532e-16 l -1.0,1.2246467991473532e-16 l -1.8369701987210297e-16,-1.0 l 1.0,-2.4492935982947064e-16 l 1.0,-2.4492935982947064e-16 l 3.061616997868383e-16,1.0 m 3.061616997868383e-16,1.0 l -1.0,3.6739403974420594e-16 l -1.0,3.6739403974420594e-16 m 3.061616997868383e-16,1.0 l -1.0,3.6739403974420594e-16 l -1.0,3.6739403974420594e-16 l 3.061616997868383e-16,1.0 l 1.0,-2.4492935982947064e-16 l 1.0,-2.4492935982947064e-16 l -1.8369701987210297e-16,-1.0 m -1.8369701987210297e-16,-1.0 l -1.0,1.2246467991473532e-16 l -1.0,1.2246467991473532e-16 l -1.0,1.2246467991473532e-16 l -1.0,1.2246467991473532e-16 m -1.8369701987210297e-16,-1.0 l -1.0,1.2246467991473532e-16 l -1.0,1.2246467991473532e-16 l -1.8369701987210297e-16,-1.0 l 1.0,-2.4492935982947064e-16 l 1.0,-2.4492935982947064e-16 l 3.061616997868383e-16,1.0 m 3.061616997868383e-16,1.0 l -1.0,3.6739403974420594e-16 l -1.0,3.6739403974420594e-16 m 3.061616997868383e-16,1.0 l -1.0,3.6739403974420594e-16 l -1.0,3.6739403974420594e-16 l 3.061616997868383e-16,1.0 l 1.0,-2.4492935982947064e-16 l 1.0,-2.4492935982947064e-16 l -1.8369701987210297e-16,-1.0 m -1.8369701987210297e-16,-1.0 l -1.0,1.2246467991473532e-16 l -1.0,1.2246467991473532e-16 l -1.0,1.2246467991473532e-16 l 6.123233995736766e-17,1.0 m -1.0,1.2246467991473532e-16 l 6.123233995736766e-17,1.0 l 6.123233995736766e-17,1.0 l -1.0,1.2246467991473532e-16 l -1.8369701987210297e-16,-1.0 l -1.8369701987210297e-16,-1.0 l 1.0,-2.4492935982947064e-16 m 1.0,-2.4492935982947064e-16 l 3.061616997868383e-16,1.0 l 3.061616997868383e-16,1.0 m 1.0,-2.4492935982947064e-16 l 3.061616997868383e-16,1.0 l 3.061616997868383e-16,1.0 l 1.0,-2.4492935982947064e-16 l -1.8369701987210297e-16,-1.0 l -1.8369701987210297e-16,-1.0 l -1.0,1.2246467991473532e-16 m -1.0,1.2246467991473532e-16 l 6.123233995736766e-17,1.0 l 6.123233995736766e-17,1.0 l 6.123233995736766e-17,1.0 m 6.123233995736766e-17,1.0 l 1.0,0.0 m 6.123233995736766e-17,1.0 l 1.0,0.0 l 1.0,0.0 l 6.123233995736766e-17,1.0 l -1.0,1.2246467991473532e-16 l -1.0,1.2246467991473532e-16 l -1.8369701987210297e-16,-1.0 m -1.8369701987210297e-16,-1.0 l 1.0,-2.4492935982947064e-16 l 1.0,-2.4492935982947064e-16 m -1.8369701987210297e-16,-1.0 l 1.0,-2.4492935982947064e-16 l 1.0,-2.4492935982947064e-16 l -1.8369701987210297e-16,-1.0 l -1.0,1.2246467991473532e-16 l -1.0,1.2246467991473532e-16 l 6.123233995736766e-17,1.0 m 6.123233995736766e-17,1.0 l 1.0,0.0 l 1.0,0.0 l 1.0,0.0 l 1.0,0.0 m 6.123233995736766e-17,1.0 l 1.0,0.0 l 1.0,0.0 l 6.123233995736766e-17,1.0 l -1.0,1.2246467991473532e-16 l -1.0,1.2246467991473532e-16 l -1.8369701987210297e-16,-1.0 m -1.8369701987210297e-16,-1.0 l 1.0,-2.4492935982947064e-16 l 1.0,-2.4492935982947064e-16 m -1.8369701987210297e-16,-1.0 l 1.0,-2.4492935982947064e-16 l 1.0,-2.4492935982947064e-16 l -1.8369701987210297e-16,-1.0 l -1.0,1.2246467991473532e-16 l -1.0,1.2246467991473532e-16 l 6.123233995736766e-17,1.0 m 6.123233995736766e-17,1.0 l 1.0,0.0 l 1.0,0.0 l 1.0,0.0 l 1.0,0.0 m 6.123233995736766e-17,1.0 l 1.0,0.0 l 1.0,0.0 l 6.123233995736766e-17,1.0 l -1.0,1.2246467991473532e-16 l -1.0,1.2246467991473532e-16 l -1.8369701987210297e-16,-1.0 m -1.8369701987210297e-16,-1.0 l 1.0,-2.4492935982947064e-16 l 1.0,-2.4492935982947064e-16 m -1.8369701987210297e-16,-1.0 l 1.0,-2.4492935982947064e-16 l 1.0,-2.4492935982947064e-16 l -1.8369701987210297e-16,-1.0 l -1.0,1.2246467991473532e-16 l -1.0,1.2246467991473532e-16 l 6.123233995736766e-17,1.0 m 6.123233995736766e-17,1.0 l 1.0,0.0 l 1.0,0.0 l 1.0,0.0 l 6.123233995736766e-17,1.0 m -1.0,1.2246467991473532e-16 l 6.123233995736766e-17,1.0 l 6.123233995736766e-17,1.0 l -1.0,1.2246467991473532e-16 l -1.8369701987210297e-16,-1.0 l -1.8369701987210297e-16,-1.0 l 1.0,-2.4492935982947064e-16 m 1.0,-2.4492935982947064e-16 l 3.061616997868383e-16,1.0 l 3.061616997868383e-16,1.0 m 1.0,-2.4492935982947064e-16 l 3.061616997868383e-16,1.0 l 3.061616997868383e-16,1.0 l 1.0,-2.4492935982947064e-16 l -1.8369701987210297e-16,-1.0 l -1.8369701987210297e-16,-1.0 l -1.0,1.2246467991473532e-16 m -1.0,1.2246467991473532e-16 l 6.123233995736766e-17,1.0 l 6.123233995736766e-17,1.0 l 6.123233995736766e-17,1.0 m -1.0,1.2246467991473532e-16 l 6.123233995736766e-17,1.0 m -1.0,1.2246467991473532e-16 l 6.123233995736766e-17,1.0 l 6.123233995736766e-17,1.0 l -1.0,1.2246467991473532e-16 l -1.8369701987210297e-16,-1.0 l -1.8369701987210297e-16,-1.0 l 1.0,-2.4492935982947064e-16 m 1.0,-2.4492935982947064e-16 l 3.061616997868383e-16,1.0 l 3.061616997868383e-16,1.0 m 1.0,-2.4492935982947064e-16 l 3.061616997868383e-16,1.0 l 3.061616997868383e-16,1.0 l 1.0,-2.4492935982947064e-16 l -1.8369701987210297e-16,-1.0 l -1.8369701987210297e-16,-1.0 l -1.0,1.2246467991473532e-16 m -1.0,1.2246467991473532e-16 l 6.123233995736766e-17,1.0 l 6.123233995736766e-17,1.0 l 6.123233995736766e-17,1.0 l 6.123233995736766e-17,1.0 m -1.0,1.2246467991473532e-16 l 6.123233995736766e-17,1.0 l 6.123233995736766e-17,1.0 l -1.0,1.2246467991473532e-16 l -1.8369701987210297e-16,-1.0 l -1.8369701987210297e-16,-1.0 l 1.0,-2.4492935982947064e-16 m 1.0,-2.4492935982947064e-16 l 3.061616997868383e-16,1.0 l 3.061616997868383e-16,1.0 m 1.0,-2.4492935982947064e-16 l 3.061616997868383e-16,1.0 l 3.061616997868383e-16,1.0 l 1.0,-2.4492935982947064e-16 l -1.8369701987210297e-16,-1.0 l -1.8369701987210297e-16,-1.0 l -1.0,1.2246467991473532e-16 m -1.0,1.2246467991473532e-16 l 6.123233995736766e-17,1.0 l 6.123233995736766e-17,1.0 l 6.123233995736766e-17,1.0 l -1.0,1.2246467991473532e-16 m -1.8369701987210297e-16,-1.0 l -1.0,1.2246467991473532e-16 l -1.0,1.2246467991473532e-16 l -1.8369701987210297e-16,-1.0 l 1.0,-2.4492935982947064e-16 l 1.0,-2.4492935982947064e-16 l 3.061616997868383e-16,1.0 m 3.061616997868383e-16,1.0 l -1.0,3.6739403974420594e-16 l -1.0,3.6739403974420594e-16 m 3.061616997868383e-16,1.0 l -1.0,3.6739403974420594e-16 l -1.0,3.6739403974420594e-16 l 3.061616997868383e-16,1.0 l 1.0,-2.4492935982947064e-16 l 1.0,-2.4492935982947064e-16 l -1.8369701987210297e-16,-1.0 m -1.8369701987210297e-16,-1.0 l -1.0,1.2246467991473532e-16 l -1.0,1.2246467991473532e-16 l -1.0,1.2246467991473532e-16 l -1.8369701987210297e-16,-1.0 m 1.0,-2.4492935982947064e-16 l -1.8369701987210297e-16,-1.0 l -1.8369701987210297e-16,-1.0 l 1.0,-2.4492935982947064e-16 l 3.061616997868383e-16,1.0 l 3.061616997868383e-16,1.0 l -1.0,3.6739403974420594e-16 m -1.0,3.6739403974420594e-16 l -4.286263797015736e-16,-1.0 l -4.286263797015736e-16,-1.0 m -1.0,3.6739403974420594e-16 l -4.286263797015736e-16,-1.0 l -4.286263797015736e-16,-1.0 l -1.0,3.6739403974420594e-16 l 3.061616997868383e-16,1.0 l 3.061616997868383e-16,1.0 l 1.0,-2.4492935982947064e-16 m 1.0,-2.4492935982947064e-16 l -1.8369701987210297e-16,-1.0 l -1.8369701987210297e-16,-1.0 l -1.8369701987210297e-16,-1.0 l -1.8369701987210297e-16,-1.0 m 1.0,-2.4492935982947064e-16 l -1.8369701987210297e-16,-1.0 l -1.8369701987210297e-16,-1.0 l 1.0,-2.4492935982947064e-16 l 3.061616997868383e-16,1.0 l 3.061616997868383e-16,1.0 l -1.0,3.6739403974420594e-16 m -1.0,3.6739403974420594e-16 l -4.286263797015736e-16,-1.0 l -4.286263797015736e-16,-1.0 m -1.0,3.6739403974420594e-16 l -4.286263797015736e-16,-1.0 l -4.286263797015736e-16,-1.0 l -1.0,3.6739403974420594e-16 l 3.061616997868383e-16,1.0 l 3.061616997868383e-16,1.0 l 1.0,-2.4492935982947064e-16 m 1.0,-2.4492935982947064e-16 l -1.8369701987210297e-16,-1.0 l -1.8369701987210297e-16,-1.0 l -1.8369701987210297e-16,-1.0 l 1.0,-2.4492935982947064e-16 m 3.061616997868383e-16,1.0 l 1.0,-2.4492935982947064e-16 l 1.0,-2.4492935982947064e-16 l 3.061616997868383e-16,1.0 l -1.0,3.6739403974420594e-16 l -1.0,3.6739403974420594e-16 l -4.286263797015736e-16,-1.0 m -4.286263797015736e-16,-1.0 l 1.0,-4.898587196589413e-16 l 1.0,-4.898587196589413e-16 m -4.286263797015736e-16,-1.0 l 1.0,-4.898587196589413e-16 l 1.0,-4.898587196589413e-16 l -4.286263797015736e-16,-1.0 l -1.0,3.6739403974420594e-16 l -1.0,3.6739403974420594e-16 l 3.061616997868383e-16,1.0 m 3.061616997868383e-16,1.0 l 1.0,-2.4492935982947064e-16 l 1.0,-2.4492935982947064e-16 l 1.0,-2.4492935982947064e-16 m 1.0,-2.4492935982947064e-16 l 3.061616997868383e-16,1.0 m -1.0,3.6739403974420594e-16 l 3.061616997868383e-16,1.0 l 3.061616997868383e-16,1.0 l -1.0,3.6739403974420594e-16 l -4.286263797015736e-16,-1.0 l -4.286263797015736e-16,-1.0 l 1.0,-4.898587196589413e-16 m 1.0,-4.898587196589413e-16 l 5.51091059616309e-16,1.0 l 5.51091059616309e-16,1.0 m 1.0,-4.898587196589413e-16 l 5.51091059616309e-16,1.0 l 5.51091059616309e-16,1.0 l 1.0,-4.898587196589413e-16 l -4.286263797015736e-16,-1.0 l -4.286263797015736e-16,-1.0 l -1.0,3.6739403974420594e-16 m -1.0,3.6739403974420594e-16 l 3.061616997868383e-16,1.0 l 3.061616997868383e-16,1.0 l 3.061616997868383e-16,1.0 l 3.061616997868383e-16,1.0 m -1.0,3.6739403974420594e-16 l 3.061616997868383e-16,1.0 l 3.061616997868383e-16,1.0 l -1.0,3.6739403974420594e-16 l -4.286263797015736e-16,-1.0 l -4.286263797015736e-16,-1.0 l 1.0,-4.898587196589413e-16 m 1.0,-4.898587196589413e-16 l 5.51091059616309e-16,1.0 l 5.51091059616309e-16,1.0 m 1.0,-4.898587196589413e-16 l 5.51091059616309e-16,1.0 l 5.51091059616309e-16,1.0 l 1.0,-4.898587196589413e-16 l -4.286263797015736e-16,-1.0 l -4.286263797015736e-16,-1.0 l -1.0,3.6739403974420594e-16 m -1.0,3.6739403974420594e-16 l 3.061616997868383e-16,1.0 l 3.061616997868383e-16,1.0 l 3.061616997868383e-16,1.0 m 1.0,-2.4492935982947064e-16 l 3.061616997868383e-16,1.0 m -1.0,3.6739403974420594e-16 l 3.061616997868383e-16,1.0 l 3.061616997868383e-16,1.0 l -1.0,3.6739403974420594e-16 l -4.286263797015736e-16,-1.0 l -4.286263797015736e-16,-1.0 l 1.0,-4.898587196589413e-16 m 1.0,-4.898587196589413e-16 l 5.51091059616309e-16,1.0 l 5.51091059616309e-16,1.0 m 1.0,-4.898587196589413e-16 l 5.51091059616309e-16,1.0 l 5.51091059616309e-16,1.0 l 1.0,-4.898587196589413e-16 l -4.286263797015736e-16,-1.0 l -4.286263797015736e-16,-1.0 l -1.0,3.6739403974420594e-16 m -1.0,3.6739403974420594e-16 l 3.061616997868383e-16,1.0 l 3.061616997868383e-16,1.0 l 3.061616997868383e-16,1.0 l 3.061616997868383e-16,1.0 m -1.0,3.6739403974420594e-16 l 3.061616997868383e-16,1.0 l 3.061616997868383e-16,1.0 l -1.0,3.6739403974420594e-16 l -4.286263797015736e-16,-1.0 l -4.286263797015736e-16,-1.0 l 1.0,-4.898587196589413e-16 m 1.0,-4.898587196589413e-16 l 5.51091059616309e-16,1.0 l 5.51091059616309e-16,1.0 m 1.0,-4.898587196589413e-16 l 5.51091059616309e-16,1.0 l 5.51091059616309e-16,1.0 l 1.0,-4.898587196589413e-16 l -4.286263797015736e-16,-1.0 l -4.286263797015736e-16,-1.0 l -1.0,3.6739403974420594e-16 m -1.0,3.6739403974420594e-16 l 3.061616997868383e-16,1.0 l 3.061616997868383e-16,1.0 l 3.061616997868383e-16,1.0 l 1.0,-2.4492935982947064e-16 m 3.061616997868383e-16,1.0 l 1.0,-2.4492935982947064e-16 l 1.0,-2.4492935982947064e-16 l 3.061616997868383e-16,1.0 l -1.0,3.6739403974420594e-16 l -1.0,3.6739403974420594e-16 l -4.286263797015736e-16,-1.0 m -4.286263797015736e-16,-1.0 l 1.0,-4.898587196589413e-16 l 1.0,-4.898587196589413e-16 m -4.286263797015736e-16,-1.0 l 1.0,-4.898587196589413e-16 l 1.0,-4.898587196589413e-16 l -4.286263797015736e-16,-1.0 l -1.0,3.6739403974420594e-16 l -1.0,3.6739403974420594e-16 l 3.061616997868383e-16,1.0 m 3.061616997868383e-16,1.0 l 1.0,-2.4492935982947064e-16 l 1.0,-2.4492935982947064e-16 l 1.0,-2.4492935982947064e-16 l -1.8369701987210297e-16,-1.0 m 1.0,-2.4492935982947064e-16 l -1.8369701987210297e-16,-1.0 l -1.8369701987210297e-16,-1.0 l 1.0,-2.4492935982947064e-16 l 3.061616997868383e-16,1.0 l 3.061616997868383e-16,1.0 l -1.0,3.6739403974420594e-16 m -1.0,3.6739403974420594e-16 l -4.286263797015736e-16,-1.0 l -4.286263797015736e-16,-1.0 m -1.0,3.6739403974420594e-16 l -4.286263797015736e-16,-1.0 l -4.286263797015736e-16,-1.0 l -1.0,3.6739403974420594e-16 l 3.061616997868383e-16,1.0 l 3.061616997868383e-16,1.0 l 1.0,-2.4492935982947064e-16 m 1.0,-2.4492935982947064e-16 l -1.8369701987210297e-16,-1.0 l -1.8369701987210297e-16,-1.0 l -1.8369701987210297e-16,-1.0 l -1.8369701987210297e-16,-1.0 m 1.0,-2.4492935982947064e-16 l -1.8369701987210297e-16,-1.0 l -1.8369701987210297e-16,-1.0 l 1.0,-2.4492935982947064e-16 l 3.061616997868383e-16,1.0 l 3.061616997868383e-16,1.0 l -1.0,3.6739403974420594e-16 m -1.0,3.6739403974420594e-16 l -4.286263797015736e-16,-1.0 l -4.286263797015736e-16,-1.0 m -1.0,3.6739403974420594e-16 l -4.286263797015736e-16,-1.0 l -4.286263797015736e-16,-1.0 l -1.0,3.6739403974420594e-16 l 3.061616997868383e-16,1.0 l 3.061616997868383e-16,1.0 l 1.0,-2.4492935982947064e-16 m 1.0,-2.4492935982947064e-16 l -1.8369701987210297e-16,-1.0 l -1.8369701987210297e-16,-1.0 l -1.8369701987210297e-16,-1.0 l -1.0,1.2246467991473532e-16 m -1.8369701987210297e-16,-1.0 l -1.0,1.2246467991473532e-16 l -1.0,1.2246467991473532e-16 l -1.8369701987210297e-16,-1.0 l 1.0,-2.4492935982947064e-16 l 1.0,-2.4492935982947064e-16 l 3.061616997868383e-16,1.0 m 3.061616997868383e-16,1.0 l -1.0,3.6739403974420594e-16 l -1.0,3.6739403974420594e-16 m 3.061616997868383e-16,1.0 l -1.0,3.6739403974420594e-16 l -1.0,3.6739403974420594e-16 l 3.061616997868383e-16,1.0 l 1.0,-2.4492935982947064e-16 l 1.0,-2.4492935982947064e-16 l -1.8369701987210297e-16,-1.0 m -1.8369701987210297e-16,-1.0 l -1.0,1.2246467991473532e-16 l -1.0,1.2246467991473532e-16 l -1.0,1.2246467991473532e-16 m -1.0,1.2246467991473532e-16 l 6.123233995736766e-17,1.0 m -1.0,1.2246467991473532e-16 l 6.123233995736766e-17,1.0 l 6.123233995736766e-17,1.0 l -1.0,1.2246467991473532e-16 l -1.8369701987210297e-16,-1.0 l -1.8369701987210297e-16,-1.0 l 1.0,-2.4492935982947064e-16 m 1.0,-2.4492935982947064e-16 l 3.061616997868383e-16,1.0 l 3.061616997868383e-16,1.0 m 1.0,-2.4492935982947064e-16 l 3.061616997868383e-16,1.0 l 3.061616997868383e-16,1.0 l 1.0,-2.4492935982947064e-16 l -1.8369701987210297e-16,-1.0 l -1.8369701987210297e-16,-1.0 l -1.0,1.2246467991473532e-16 m -1.0,1.2246467991473532e-16 l 6.123233995736766e-17,1.0 l 6.123233995736766e-17,1.0 l 6.123233995736766e-17,1.0 l 6.123233995736766e-17,1.0 m -1.0,1.2246467991473532e-16 l 6.123233995736766e-17,1.0 l 6.123233995736766e-17,1.0 l -1.0,1.2246467991473532e-16 l -1.8369701987210297e-16,-1.0 l -1.8369701987210297e-16,-1.0 l 1.0,-2.4492935982947064e-16 m 1.0,-2.4492935982947064e-16 l 3.061616997868383e-16,1.0 l 3.061616997868383e-16,1.0 m 1.0,-2.4492935982947064e-16 l 3.061616997868383e-16,1.0 l 3.061616997868383e-16,1.0 l 1.0,-2.4492935982947064e-16 l -1.8369701987210297e-16,-1.0 l -1.8369701987210297e-16,-1.0 l -1.0,1.2246467991473532e-16 m -1.0,1.2246467991473532e-16 l 6.123233995736766e-17,1.0 l 6.123233995736766e-17,1.0 l 6.123233995736766e-17,1.0 l 6.123233995736766e-17,1.0 m -1.0,1.2246467991473532e-16 l 6.123233995736766e-17,1.0 l 6.123233995736766e-17,1.0 l -1.0,1.2246467991473532e-16 l -1.8369701987210297e-16,-1.0 l -1.8369701987210297e-16,-1.0 l 1.0,-2.4492935982947064e-16 m 1.0,-2.4492935982947064e-16 l 3.061616997868383e-16,1.0 l 3.061616997868383e-16,1.0 m 1.0,-2.4492935982947064e-16 l 3.061616997868383e-16,1.0 l 3.061616997868383e-16,1.0 l 1.0,-2.4492935982947064e-16 l -1.8369701987210297e-16,-1.0 l -1.8369701987210297e-16,-1.0 l -1.0,1.2246467991473532e-16 m -1.0,1.2246467991473532e-16 l 6.123233995736766e-17,1.0 l 6.123233995736766e-17,1.0 l 6.123233995736766e-17,1.0 l -1.0,1.2246467991473532e-16 m -1.8369701987210297e-16,-1.0 l -1.0,1.2246467991473532e-16 l -1.0,1.2246467991473532e-16 l -1.8369701987210297e-16,-1.0 l 1.0,-2.4492935982947064e-16 l 1.0,-2.4492935982947064e-16 l 3.061616997868383e-16,1.0 m 3.061616997868383e-16,1.0 l -1.0,3.6739403974420594e-16 l -1.0,3.6739403974420594e-16 m 3.061616997868383e-16,1.0 l -1.0,3.6739403974420594e-16 l -1.0,3.6739403974420594e-16 l 3.061616997868383e-16,1.0 l 1.0,-2.4492935982947064e-16 l 1.0,-2.4492935982947064e-16 l -1.8369701987210297e-16,-1.0 m -1.8369701987210297e-16,-1.0 l -1.0,1.2246467991473532e-16 l -1.0,1.2246467991473532e-16 l -1.0,1.2246467991473532e-16 m -1.8369701987210297e-16,-1.0 l -1.0,1.2246467991473532e-16 m -1.8369701987210297e-16,-1.0 l -1.0,1.2246467991473532e-16 l -1.0,1.2246467991473532e-16 l -1.8369701987210297e-16,-1.0 l 1.0,-2.4492935982947064e-16 l 1.0,-2.4492935982947064e-16 l 3.061616997868383e-16,1.0 m 3.061616997868383e-16,1.0 l -1.0,3.6739403974420594e-16 l -1.0,3.6739403974420594e-16 m 3.061616997868383e-16,1.0 l -1.0,3.6739403974420594e-16 l -1.0,3.6739403974420594e-16 l 3.061616997868383e-16,1.0 l 1.0,-2.4492935982947064e-16 l 1.0,-2.4492935982947064e-16 l -1.8369701987210297e-16,-1.0 m -1.8369701987210297e-16,-1.0 l -1.0,1.2246467991473532e-16 l -1.0,1.2246467991473532e-16 l -1.0,1.2246467991473532e-16 l -1.0,1.2246467991473532e-16 m -1.8369701987210297e-16,-1.0 l -1.0,1.2246467991473532e-16 l -1.0,1.2246467991473532e-16 l -1.8369701987210297e-16,-1.0 l 1.0,-2.4492935982947064e-16 l 1.0,-2.4492935982947064e-16 l 3.061616997868383e-16,1.0 m 3.061616997868383e-16,1.0 l -1.0,3.6739403974420594e-16 l -1.0,3.6739403974420594e-16 m 3.061616997868383e-16,1.0 l -1.0,3.6739403974420594e-16 l -1.0,3.6739403974420594e-16 l 3.061616997868383e-16,1.0 l 1.0,-2.4492935982947064e-16 l 1.0,-2.4492935982947064e-16 l -1.8369701987210297e-16,-1.0 m -1.8369701987210297e-16,-1.0 l -1.0,1.2246467991473532e-16 l -1.0,1.2246467991473532e-16 l -1.0,1.2246467991473532e-16 l -1.8369701987210297e-16,-1.0 m 1.0,-2.4492935982947064e-16 l -1.8369701987210297e-16,-1.0 l -1.8369701987210297e-16,-1.0 l 1.0,-2.4492935982947064e-16 l 3.061616997868383e-16,1.0 l 3.061616997868383e-16,1.0 l -1.0,3.6739403974420594e-16 m -1.0,3.6739403974420594e-16 l -4.286263797015736e-16,-1.0 l -4.286263797015736e-16,-1.0 m -1.0,3.6739403974420594e-16 l -4.286263797015736e-16,-1.0 l -4.286263797015736e-16,-1.0 l -1.0,3.6739403974420594e-16 l 3.061616997868383e-16,1.0 l 3.061616997868383e-16,1.0 l 1.0,-2.4492935982947064e-16 m 1.0,-2.4492935982947064e-16 l -1.8369701987210297e-16,-1.0 l -1.8369701987210297e-16,-1.0 l -1.8369701987210297e-16,-1.0 l 1.0,-2.4492935982947064e-16 m 3.061616997868383e-16,1.0 l 1.0,-2.4492935982947064e-16 l 1.0,-2.4492935982947064e-16 l 3.061616997868383e-16,1.0 l -1.0,3.6739403974420594e-16 l -1.0,3.6739403974420594e-16 l -4.286263797015736e-16,-1.0 m -4.286263797015736e-16,-1.0 l 1.0,-4.898587196589413e-16 l 1.0,-4.898587196589413e-16 m -4.286263797015736e-16,-1.0 l 1.0,-4.898587196589413e-16 l 1.0,-4.898587196589413e-16 l -4.286263797015736e-16,-1.0 l -1.0,3.6739403974420594e-16 l -1.0,3.6739403974420594e-16 l 3.061616997868383e-16,1.0 m 3.061616997868383e-16,1.0 l 1.0,-2.4492935982947064e-16 l 1.0,-2.4492935982947064e-16 l 1.0,-2.4492935982947064e-16 l 1.0,-2.4492935982947064e-16 m 3.061616997868383e-16,1.0 l 1.0,-2.4492935982947064e-16 l 1.0,-2.4492935982947064e-16 l 3.061616997868383e-16,1.0 l -1.0,3.6739403974420594e-16 l -1.0,3.6739403974420594e-16 l -4.286263797015736e-16,-1.0 m -4.286263797015736e-16,-1.0 l 1.0,-4.898587196589413e-16 l 1.0,-4.898587196589413e-16 m -4.286263797015736e-16,-1.0 l 1.0,-4.898587196589413e-16 l 1.0,-4.898587196589413e-16 l -4.286263797015736e-16,-1.0 l -1.0,3.6739403974420594e-16 l -1.0,3.6739403974420594e-16 l 3.061616997868383e-16,1.0 m 3.061616997868383e-16,1.0 l 1.0,-2.4492935982947064e-16 l 1.0,-2.4492935982947064e-16 l 1.0,-2.4492935982947064e-16 l 3.061616997868383e-16,1.0 m -1.0,3.6739403974420594e-16 l 3.061616997868383e-16,1.0 l 3.061616997868383e-16,1.0 l -1.0,3.6739403974420594e-16 l -4.286263797015736e-16,-1.0 l -4.286263797015736e-16,-1.0 l 1.0,-4.898587196589413e-16 m 1.0,-4.898587196589413e-16 l 5.51091059616309e-16,1.0 l 5.51091059616309e-16,1.0 m 1.0,-4.898587196589413e-16 l 5.51091059616309e-16,1.0 l 5.51091059616309e-16,1.0 l 1.0,-4.898587196589413e-16 l -4.286263797015736e-16,-1.0 l -4.286263797015736e-16,-1.0 l -1.0,3.6739403974420594e-16 m -1.0,3.6739403974420594e-16 l 3.061616997868383e-16,1.0 l 3.061616997868383e-16,1.0 l 3.061616997868383e-16,1.0 m 3.061616997868383e-16,1.0 l -1.0,3.6739403974420594e-16 m -4.286263797015736e-16,-1.0 l -1.0,3.6739403974420594e-16 l -1.0,3.6739403974420594e-16 l -4.286263797015736e-16,-1.0 l 1.0,-4.898587196589413e-16 l 1.0,-4.898587196589413e-16 l 5.51091059616309e-16,1.0 m 5.51091059616309e-16,1.0 l -1.0,6.123233995736766e-16 l -1.0,6.123233995736766e-16 m 5.51091059616309e-16,1.0 l -1.0,6.123233995736766e-16 l -1.0,6.123233995736766e-16 l 5.51091059616309e-16,1.0 l 1.0,-4.898587196589413e-16 l 1.0,-4.898587196589413e-16 l -4.286263797015736e-16,-1.0 m -4.286263797015736e-16,-1.0 l -1.0,3.6739403974420594e-16 l -1.0,3.6739403974420594e-16 l -1.0,3.6739403974420594e-16 l -1.0,3.6739403974420594e-16 m -4.286263797015736e-16,-1.0 l -1.0,3.6739403974420594e-16 l -1.0,3.6739403974420594e-16 l -4.286263797015736e-16,-1.0 l 1.0,-4.898587196589413e-16 l 1.0,-4.898587196589413e-16 l 5.51091059616309e-16,1.0 m 5.51091059616309e-16,1.0 l -1.0,6.123233995736766e-16 l -1.0,6.123233995736766e-16 m 5.51091059616309e-16,1.0 l -1.0,6.123233995736766e-16 l -1.0,6.123233995736766e-16 l 5.51091059616309e-16,1.0 l 1.0,-4.898587196589413e-16 l 1.0,-4.898587196589413e-16 l -4.286263797015736e-16,-1.0 m -4.286263797015736e-16,-1.0 l -1.0,3.6739403974420594e-16 l -1.0,3.6739403974420594e-16 l -1.0,3.6739403974420594e-16 m 3.061616997868383e-16,1.0 l -1.0,3.6739403974420594e-16 m -4.286263797015736e-16,-1.0 l -1.0,3.6739403974420594e-16 l -1.0,3.6739403974420594e-16 l -4.286263797015736e-16,-1.0 l 1.0,-4.898587196589413e-16 l 1.0,-4.898587196589413e-16 l 5.51091059616309e-16,1.0 m 5.51091059616309e-16,1.0 l -1.0,6.123233995736766e-16 l -1.0,6.123233995736766e-16 m 5.51091059616309e-16,1.0 l -1.0,6.123233995736766e-16 l -1.0,6.123233995736766e-16 l 5.51091059616309e-16,1.0 l 1.0,-4.898587196589413e-16 l 1.0,-4.898587196589413e-16 l -4.286263797015736e-16,-1.0 m -4.286263797015736e-16,-1.0 l -1.0,3.6739403974420594e-16 l -1.0,3.6739403974420594e-16 l -1.0,3.6739403974420594e-16 l -1.0,3.6739403974420594e-16 m -4.286263797015736e-16,-1.0 l -1.0,3.6739403974420594e-16 l -1.0,3.6739403974420594e-16 l -4.286263797015736e-16,-1.0 l 1.0,-4.898587196589413e-16 l 1.0,-4.898587196589413e-16 l 5.51091059616309e-16,1.0 m 5.51091059616309e-16,1.0 l -1.0,6.123233995736766e-16 l -1.0,6.123233995736766e-16 m 5.51091059616309e-16,1.0 l -1.0,6.123233995736766e-16 l -1.0,6.123233995736766e-16 l 5.51091059616309e-16,1.0 l 1.0,-4.898587196589413e-16 l 1.0,-4.898587196589413e-16 l -4.286263797015736e-16,-1.0 m -4.286263797015736e-16,-1.0 l -1.0,3.6739403974420594e-16 l -1.0,3.6739403974420594e-16 l -1.0,3.6739403974420594e-16 l 3.061616997868383e-16,1.0 m -1.0,3.6739403974420594e-16 l 3.061616997868383e-16,1.0 l 3.061616997868383e-16,1.0 l -1.0,3.6739403974420594e-16 l -4.286263797015736e-16,-1.0 l -4.286263797015736e-16,-1.0 l 1.0,-4.898587196589413e-16 m 1.0,-4.898587196589413e-16 l 5.51091059616309e-16,1.0 l 5.51091059616309e-16,1.0 m 1.0,-4.898587196589413e-16 l 5.51091059616309e-16,1.0 l 5.51091059616309e-16,1.0 l 1.0,-4.898587196589413e-16 l -4.286263797015736e-16,-1.0 l -4.286263797015736e-16,-1.0 l -1.0,3.6739403974420594e-16 m -1.0,3.6739403974420594e-16 l 3.061616997868383e-16,1.0 l 3.061616997868383e-16,1.0 l 3.061616997868383e-16,1.0 l 1.0,-2.4492935982947064e-16 m 3.061616997868383e-16,1.0 l 1.0,-2.4492935982947064e-16 l 1.0,-2.4492935982947064e-16 l 3.061616997868383e-16,1.0 l -1.0,3.6739403974420594e-16 l -1.0,3.6739403974420594e-16 l -4.286263797015736e-16,-1.0 m -4.286263797015736e-16,-1.0 l 1.0,-4.898587196589413e-16 l 1.0,-4.898587196589413e-16 m -4.286263797015736e-16,-1.0 l 1.0,-4.898587196589413e-16 l 1.0,-4.898587196589413e-16 l -4.286263797015736e-16,-1.0 l -1.0,3.6739403974420594e-16 l -1.0,3.6739403974420594e-16 l 3.061616997868383e-16,1.0 m 3.061616997868383e-16,1.0 l 1.0,-2.4492935982947064e-16 l 1.0,-2.4492935982947064e-16 l 1.0,-2.4492935982947064e-16 l 1.0,-2.4492935982947064e-16 m 3.061616997868383e-16,1.0 l 1.0,-2.4492935982947064e-16 l 1.0,-2.4492935982947064e-16 l 3.061616997868383e-16,1.0 l -1.0,3.6739403974420594e-16 l -1.0,3.6739403974420594e-16 l -4.286263797015736e-16,-1.0 m -4.286263797015736e-16,-1.0 l 1.0,-4.898587196589413e-16 l 1.0,-4.898587196589413e-16 m -4.286263797015736e-16,-1.0 l 1.0,-4.898587196589413e-16 l 1.0,-4.898587196589413e-16 l -4.286263797015736e-16,-1.0 l -1.0,3.6739403974420594e-16 l -1.0,3.6739403974420594e-16 l 3.061616997868383e-16,1.0 m 3.061616997868383e-16,1.0 l 1.0,-2.4492935982947064e-16 l 1.0,-2.4492935982947064e-16 l 1.0,-2.4492935982947064e-16 l -1.8369701987210297e-16,-1.0 m 1.0,-2.4492935982947064e-16 l -1.8369701987210297e-16,-1.0 l -1.8369701987210297e-16,-1.0 l 1.0,-2.4492935982947064e-16 l 3.061616997868383e-16,1.0 l 3.061616997868383e-16,1.0 l -1.0,3.6739403974420594e-16 m -1.0,3.6739403974420594e-16 l -4.286263797015736e-16,-1.0 l -4.286263797015736e-16,-1.0 m -1.0,3.6739403974420594e-16 l -4.286263797015736e-16,-1.0 l -4.286263797015736e-16,-1.0 l -1.0,3.6739403974420594e-16 l 3.061616997868383e-16,1.0 l 3.061616997868383e-16,1.0 l 1.0,-2.4492935982947064e-16 m 1.0,-2.4492935982947064e-16 l -1.8369701987210297e-16,-1.0 l -1.8369701987210297e-16,-1.0 l -1.8369701987210297e-16,-1.0 m -1.8369701987210297e-16,-1.0 l -1.0,1.2246467991473532e-16 m -1.8369701987210297e-16,-1.0 l -1.0,1.2246467991473532e-16 l -1.0,1.2246467991473532e-16 l -1.8369701987210297e-16,-1.0 l 1.0,-2.4492935982947064e-16 l 1.0,-2.4492935982947064e-16 l 3.061616997868383e-16,1.0 m 3.061616997868383e-16,1.0 l -1.0,3.6739403974420594e-16 l -1.0,3.6739403974420594e-16 m 3.061616997868383e-16,1.0 l -1.0,3.6739403974420594e-16 l -1.0,3.6739403974420594e-16 l 3.061616997868383e-16,1.0 l 1.0,-2.4492935982947064e-16 l 1.0,-2.4492935982947064e-16 l -1.8369701987210297e-16,-1.0 m -1.8369701987210297e-16,-1.0 l -1.0,1.2246467991473532e-16 l -1.0,1.2246467991473532e-16 l -1.0,1.2246467991473532e-16 l -1.0,1.2246467991473532e-16 m -1.8369701987210297e-16,-1.0 l -1.0,1.2246467991473532e-16 l -1.0,1.2246467991473532e-16 l -1.8369701987210297e-16,-1.0 l 1.0,-2.4492935982947064e-16 l 1.0,-2.4492935982947064e-16 l 3.061616997868383e-16,1.0 m 3.061616997868383e-16,1.0 l -1.0,3.6739403974420594e-16 l -1.0,3.6739403974420594e-16 m 3.061616997868383e-16,1.0 l -1.0,3.6739403974420594e-16 l -1.0,3.6739403974420594e-16 l 3.061616997868383e-16,1.0 l 1.0,-2.4492935982947064e-16 l 1.0,-2.4492935982947064e-16 l -1.8369701987210297e-16,-1.0 m -1.8369701987210297e-16,-1.0 l -1.0,1.2246467991473532e-16 l -1.0,1.2246467991473532e-16 l -1.0,1.2246467991473532e-16 l -1.0,1.2246467991473532e-16 m -1.8369701987210297e-16,-1.0 l -1.0,1.2246467991473532e-16 l -1.0,1.2246467991473532e-16 l -1.8369701987210297e-16,-1.0 l 1.0,-2.4492935982947064e-16 l 1.0,-2.4492935982947064e-16 l 3.061616997868383e-16,1.0 m 3.061616997868383e-16,1.0 l -1.0,3.6739403974420594e-16 l -1.0,3.6739403974420594e-16 m 3.061616997868383e-16,1.0 l -1.0,3.6739403974420594e-16 l -1.0,3.6739403974420594e-16 l 3.061616997868383e-16,1.0 l 1.0,-2.4492935982947064e-16 l 1.0,-2.4492935982947064e-16 l -1.8369701987210297e-16,-1.0 m -1.8369701987210297e-16,-1.0 l -1.0,1.2246467991473532e-16 l -1.0,1.2246467991473532e-16 l -1.0,1.2246467991473532e-16 l -1.8369701987210297e-16,-1.0 m 1.0,-2.4492935982947064e-16 l -1.8369701987210297e-16,-1.0 l -1.8369701987210297e-16,-1.0 l 1.0,-2.4492935982947064e-16 l 3.061616997868383e-16,1.0 l 3.061616997868383e-16,1.0 l -1.0,3.6739403974420594e-16 m -1.0,3.6739403974420594e-16 l -4.286263797015736e-16,-1.0 l -4.286263797015736e-16,-1.0 m -1.0,3.6739403974420594e-16 l -4.286263797015736e-16,-1.0 l -4.286263797015736e-16,-1.0 l -1.0,3.6739403974420594e-16 l 3.061616997868383e-16,1.0 l 3.061616997868383e-16,1.0 l 1.0,-2.4492935982947064e-16 m 1.0,-2.4492935982947064e-16 l -1.8369701987210297e-16,-1.0 l -1.8369701987210297e-16,-1.0 l -1.8369701987210297e-16,-1.0 m 1.0,-2.4492935982947064e-16 l -1.8369701987210297e-16,-1.0 m 1.0,-2.4492935982947064e-16 l -1.8369701987210297e-16,-1.0 l -1.8369701987210297e-16,-1.0 l 1.0,-2.4492935982947064e-16 l 3.061616997868383e-16,1.0 l 3.061616997868383e-16,1.0 l -1.0,3.6739403974420594e-16 m -1.0,3.6739403974420594e-16 l -4.286263797015736e-16,-1.0 l -4.286263797015736e-16,-1.0 m -1.0,3.6739403974420594e-16 l -4.286263797015736e-16,-1.0 l -4.286263797015736e-16,-1.0 l -1.0,3.6739403974420594e-16 l 3.061616997868383e-16,1.0 l 3.061616997868383e-16,1.0 l 1.0,-2.4492935982947064e-16 m 1.0,-2.4492935982947064e-16 l -1.8369701987210297e-16,-1.0 l -1.8369701987210297e-16,-1.0 l -1.8369701987210297e-16,-1.0 l -1.8369701987210297e-16,-1.0 m 1.0,-2.4492935982947064e-16 l -1.8369701987210297e-16,-1.0 l -1.8369701987210297e-16,-1.0 l 1.0,-2.4492935982947064e-16 l 3.061616997868383e-16,1.0 l 3.061616997868383e-16,1.0 l -1.0,3.6739403974420594e-16 m -1.0,3.6739403974420594e-16 l -4.286263797015736e-16,-1.0 l -4.286263797015736e-16,-1.0 m -1.0,3.6739403974420594e-16 l -4.286263797015736e-16,-1.0 l -4.286263797015736e-16,-1.0 l -1.0,3.6739403974420594e-16 l 3.061616997868383e-16,1.0 l 3.061616997868383e-16,1.0 l 1.0,-2.4492935982947064e-16 m 1.0,-2.4492935982947064e-16 l -1.8369701987210297e-16,-1.0 l -1.8369701987210297e-16,-1.0 l -1.8369701987210297e-16,-1.0 l 1.0,-2.4492935982947064e-16 m 3.061616997868383e-16,1.0 l 1.0,-2.4492935982947064e-16 l 1.0,-2.4492935982947064e-16 l 3.061616997868383e-16,1.0 l -1.0,3.6739403974420594e-16 l -1.0,3.6739403974420594e-16 l -4.286263797015736e-16,-1.0 m -4.286263797015736e-16,-1.0 l 1.0,-4.898587196589413e-16 l 1.0,-4.898587196589413e-16 m -4.286263797015736e-16,-1.0 l 1.0,-4.898587196589413e-16 l 1.0,-4.898587196589413e-16 l -4.286263797015736e-16,-1.0 l -1.0,3.6739403974420594e-16 l -1.0,3.6739403974420594e-16 l 3.061616997868383e-16,1.0 m 3.061616997868383e-16,1.0 l 1.0,-2.4492935982947064e-16 l 1.0,-2.4492935982947064e-16 l 1.0,-2.4492935982947064e-16 l 3.061616997868383e-16,1.0 m -1.0,3.6739403974420594e-16 l 3.061616997868383e-16,1.0 l 3.061616997868383e-16,1.0 l -1.0,3.6739403974420594e-16 l -4.286263797015736e-16,-1.0 l -4.286263797015736e-16,-1.0 l 1.0,-4.898587196589413e-16 m 1.0,-4.898587196589413e-16 l 5.51091059616309e-16,1.0 l 5.51091059616309e-16,1.0 m 1.0,-4.898587196589413e-16 l 5.51091059616309e-16,1.0 l 5.51091059616309e-16,1.0 l 1.0,-4.898587196589413e-16 l -4.286263797015736e-16,-1.0 l -4.286263797015736e-16,-1.0 l -1.0,3.6739403974420594e-16 m -1.0,3.6739403974420594e-16 l 3.061616997868383e-16,1.0 l 3.061616997868383e-16,1.0 l 3.061616997868383e-16,1.0 l 3.061616997868383e-16,1.0 m -1.0,3.6739403974420594e-16 l 3.061616997868383e-16,1.0 l 3.061616997868383e-16,1.0 l -1.0,3.6739403974420594e-16 l -4.286263797015736e-16,-1.0 l -4.286263797015736e-16,-1.0 l 1.0,-4.898587196589413e-16 m 1.0,-4.898587196589413e-16 l 5.51091059616309e-16,1.0 l 5.51091059616309e-16,1.0 m 1.0,-4.898587196589413e-16 l 5.51091059616309e-16,1.0 l 5.51091059616309e-16,1.0 l 1.0,-4.898587196589413e-16 l -4.286263797015736e-16,-1.0 l -4.286263797015736e-16,-1.0 l -1.0,3.6739403974420594e-16 m -1.0,3.6739403974420594e-16 l 3.061616997868383e-16,1.0 l 3.061616997868383e-16,1.0 l 3.061616997868383e-16,1.0 l -1.0,3.6739403974420594e-16 m -4.286263797015736e-16,-1.0 l -1.0,3.6739403974420594e-16 l -1.0,3.6739403974420594e-16 l -4.286263797015736e-16,-1.0 l 1.0,-4.898587196589413e-16 l 1.0,-4.898587196589413e-16 l 5.51091059616309e-16,1.0 m 5.51091059616309e-16,1.0 l -1.0,6.123233995736766e-16 l -1.0,6.123233995736766e-16 m 5.51091059616309e-16,1.0 l -1.0,6.123233995736766e-16 l -1.0,6.123233995736766e-16 l 5.51091059616309e-16,1.0 l 1.0,-4.898587196589413e-16 l 1.0,-4.898587196589413e-16 l -4.286263797015736e-16,-1.0 m -4.286263797015736e-16,-1.0 l -1.0,3.6739403974420594e-16 l -1.0,3.6739403974420594e-16 l -1.0,3.6739403974420594e-16 m -1.0,3.6739403974420594e-16 l -4.286263797015736e-16,-1.0 m 1.0,-4.898587196589413e-16 l -4.286263797015736e-16,-1.0 l -4.286263797015736e-16,-1.0 l 1.0,-4.898587196589413e-16 l 5.51091059616309e-16,1.0 l 5.51091059616309e-16,1.0 l -1.0,6.123233995736766e-16 m -1.0,6.123233995736766e-16 l -2.4499125789312946e-15,-1.0 l -2.4499125789312946e-15,-1.0 m -1.0,2.388680238973927e-15 l -2.4499125789312946e-15,-1.0 l -2.4499125789312946e-15,-1.0 l -1.0,2.388680238973927e-15 l 2.3274478990165594e-15,1.0 l 2.3274478990165594e-15,1.0 l 1.0,-2.266215559059192e-15 m 1.0,-2.266215559059192e-15 l -2.2049832191018243e-15,-1.0 l -2.2049832191018243e-15,-1.0 l -2.2049832191018243e-15,-1.0 l -2.2049832191018243e-15,-1.0 m 1.0,-2.266215559059192e-15 l -2.2049832191018243e-15,-1.0 l -2.2049832191018243e-15,-1.0 l 1.0,-2.266215559059192e-15 l 2.3274478990165594e-15,1.0 l 2.3274478990165594e-15,1.0 l -1.0,2.388680238973927e-15 m -1.0,2.388680238973927e-15 l -2.4499125789312946e-15,-1.0 l -2.4499125789312946e-15,-1.0 m -1.0,2.388680238973927e-15 l -2.4499125789312946e-15,-1.0 l -2.4499125789312946e-15,-1.0 l -1.0,2.388680238973927e-15 l 2.3274478990165594e-15,1.0 l 2.3274478990165594e-15,1.0 l 1.0,-2.266215559059192e-15 m 1.0,-2.266215559059192e-15 l -2.2049832191018243e-15,-1.0 l -2.2049832191018243e-15,-1.0 l -2.2049832191018243e-15,-1.0 m -1.0,2.1437508791444563e-15 l -2.2049832191018243e-15,-1.0 m 1.0,-2.266215559059192e-15 l -2.2049832191018243e-15,-1.0 l -2.2049832191018243e-15,-1.0 l 1.0,-2.266215559059192e-15 l 2.3274478990165594e-15,1.0 l 2.3274478990165594e-15,1.0 l -1.0,2.388680238973927e-15 m -1.0,2.388680238973927e-15 l -2.4499125789312946e-15,-1.0 l -2.4499125789312946e-15,-1.0 m -1.0,2.388680238973927e-15 l -2.4499125789312946e-15,-1.0 l -2.4499125789312946e-15,-1.0 l -1.0,2.388680238973927e-15 l 2.3274478990165594e-15,1.0 l 2.3274478990165594e-15,1.0 l 1.0,-2.266215559059192e-15 m 1.0,-2.266215559059192e-15 l -2.2049832191018243e-15,-1.0 l -2.2049832191018243e-15,-1.0 l -2.2049832191018243e-15,-1.0 l -2.2049832191018243e-15,-1.0 m 1.0,-2.266215559059192e-15 l -2.2049832191018243e-15,-1.0 l -2.2049832191018243e-15,-1.0 l 1.0,-2.266215559059192e-15 l 2.3274478990165594e-15,1.0 l 2.3274478990165594e-15,1.0 l -1.0,2.388680238973927e-15 m -1.0,2.388680238973927e-15 l -2.4499125789312946e-15,-1.0 l -2.4499125789312946e-15,-1.0 m -1.0,2.388680238973927e-15 l -2.4499125789312946e-15,-1.0 l -2.4499125789312946e-15,-1.0 l -1.0,2.388680238973927e-15 l 2.3274478990165594e-15,1.0 l 2.3274478990165594e-15,1.0 l 1.0,-2.266215559059192e-15 m 1.0,-2.266215559059192e-15 l -2.2049832191018243e-15,-1.0 l -2.2049832191018243e-15,-1.0 l -2.2049832191018243e-15,-1.0 l -1.0,2.1437508791444563e-15 m -2.2049832191018243e-15,-1.0 l -1.0,2.1437508791444563e-15 l -1.0,2.1437508791444563e-15 l -2.2049832191018243e-15,-1.0 l 1.0,-2.266215559059192e-15 l 1.0,-2.266215559059192e-15 l 2.3274478990165594e-15,1.0 m 2.3274478990165594e-15,1.0 l -1.0,2.388680238973927e-15 l -1.0,2.388680238973927e-15 m 2.3274478990165594e-15,1.0 l -1.0,2.388680238973927e-15 l -1.0,2.388680238973927e-15 l 2.3274478990165594e-15,1.0 l 1.0,-2.266215559059192e-15 l 1.0,-2.266215559059192e-15 l -2.2049832191018243e-15,-1.0 m -2.2049832191018243e-15,-1.0 l -1.0,2.1437508791444563e-15 l -1.0,2.1437508791444563e-15 l -1.0,2.1437508791444563e-15 l 2.0825185391870887e-15,1.0 m -1.0,2.1437508791444563e-15 l 2.0825185391870887e-15,1.0 l 2.0825185391870887e-15,1.0 l -1.0,2.1437508791444563e-15 l -2.2049832191018243e-15,-1.0 l -2.2049832191018243e-15,-1.0 l 1.0,-2.266215559059192e-15 m 1.0,-2.266215559059192e-15 l 2.3274478990165594e-15,1.0 l 2.3274478990165594e-15,1.0 m 1.0,-2.266215559059192e-15 l 2.3274478990165594e-15,1.0 l 2.3274478990165594e-15,1.0 l 1.0,-2.266215559059192e-15 l -2.2049832191018243e-15,-1.0 l -2.2049832191018243e-15,-1.0 l -1.0,2.1437508791444563e-15 m -1.0,2.1437508791444563e-15 l 2.0825185391870887e-15,1.0 l 2.0825185391870887e-15,1.0 l 2.0825185391870887e-15,1.0 l 2.0825185391870887e-15,1.0 m -1.0,2.1437508791444563e-15 l 2.0825185391870887e-15,1.0 l 2.0825185391870887e-15,1.0 l -1.0,2.1437508791444563e-15 l -2.2049832191018243e-15,-1.0 l -2.2049832191018243e-15,-1.0 l 1.0,-2.266215559059192e-15 m 1.0,-2.266215559059192e-15 l 2.3274478990165594e-15,1.0 l 2.3274478990165594e-15,1.0 m 1.0,-2.266215559059192e-15 l 2.3274478990165594e-15,1.0 l 2.3274478990165594e-15,1.0 l 1.0,-2.266215559059192e-15 l -2.2049832191018243e-15,-1.0 l -2.2049832191018243e-15,-1.0 l -1.0,2.1437508791444563e-15 m -1.0,2.1437508791444563e-15 l 2.0825185391870887e-15,1.0 l 2.0825185391870887e-15,1.0 l 2.0825185391870887e-15,1.0 l 1.0,-2.021286199229721e-15 m 2.0825185391870887e-15,1.0 l 1.0,-2.021286199229721e-15 l 1.0,-2.021286199229721e-15 l 2.0825185391870887e-15,1.0 l -1.0,2.1437508791444563e-15 l -1.0,2.1437508791444563e-15 l -2.2049832191018243e-15,-1.0 m -2.2049832191018243e-15,-1.0 l 1.0,-2.266215559059192e-15 l 1.0,-2.266215559059192e-15 m -2.2049832191018243e-15,-1.0 l 1.0,-2.266215559059192e-15 l 1.0,-2.266215559059192e-15 l -2.2049832191018243e-15,-1.0 l -1.0,2.1437508791444563e-15 l -1.0,2.1437508791444563e-15 l 2.0825185391870887e-15,1.0 m 2.0825185391870887e-15,1.0 l 1.0,-2.021286199229721e-15 l 1.0,-2.021286199229721e-15 l 1.0,-2.021286199229721e-15 m 1.0,-2.021286199229721e-15 l -1.9600538592723536e-15,-1.0 m 1.0,-2.021286199229721e-15 l -1.9600538592723536e-15,-1.0 l -1.9600538592723536e-15,-1.0 l 1.0,-2.021286199229721e-15 l 2.0825185391870887e-15,1.0 l 2.0825185391870887e-15,1.0 l -1.0,2.1437508791444563e-15 m -1.0,2.1437508791444563e-15 l -2.2049832191018243e-15,-1.0 l -2.2049832191018243e-15,-1.0 m -1.0,2.1437508791444563e-15 l -2.2049832191018243e-15,-1.0 l -2.2049832191018243e-15,-1.0 l -1.0,2.1437508791444563e-15 l 2.0825185391870887e-15,1.0 l 2.0825185391870887e-15,1.0 l 1.0,-2.021286199229721e-15 m 1.0,-2.021286199229721e-15 l -1.9600538592723536e-15,-1.0 l -1.9600538592723536e-15,-1.0 l -1.9600538592723536e-15,-1.0 l -1.9600538592723536e-15,-1.0 m 1.0,-2.021286199229721e-15 l -1.9600538592723536e-15,-1.0 l -1.9600538592723536e-15,-1.0 l 1.0,-2.021286199229721e-15 l 2.0825185391870887e-15,1.0 l 2.0825185391870887e-15,1.0 l -1.0,2.1437508791444563e-15 m -1.0,2.1437508791444563e-15 l -2.2049832191018243e-15,-1.0 l -2.2049832191018243e-15,-1.0 m -1.0,2.1437508791444563e-15 l -2.2049832191018243e-15,-1.0 l -2.2049832191018243e-15,-1.0 l -1.0,2.1437508791444563e-15 l 2.0825185391870887e-15,1.0 l 2.0825185391870887e-15,1.0 l 1.0,-2.021286199229721e-15 m 1.0,-2.021286199229721e-15 l -1.9600538592723536e-15,-1.0 l -1.9600538592723536e-15,-1.0 l -1.9600538592723536e-15,-1.0 l -1.9600538592723536e-15,-1.0 m 1.0,-2.021286199229721e-15 l -1.9600538592723536e-15,-1.0 l -1.9600538592723536e-15,-1.0 l 1.0,-2.021286199229721e-15 l 2.0825185391870887e-15,1.0 l 2.0825185391870887e-15,1.0 l -1.0,2.1437508791444563e-15 m -1.0,2.1437508791444563e-15 l -2.2049832191018243e-15,-1.0 l -2.2049832191018243e-15,-1.0 m -1.0,2.1437508791444563e-15 l -2.2049832191018243e-15,-1.0 l -2.2049832191018243e-15,-1.0 l -1.0,2.1437508791444563e-15 l 2.0825185391870887e-15,1.0 l 2.0825185391870887e-15,1.0 l 1.0,-2.021286199229721e-15 m 1.0,-2.021286199229721e-15 l -1.9600538592723536e-15,-1.0 l -1.9600538592723536e-15,-1.0 l -1.9600538592723536e-15,-1.0 " style="stroke-linecap:square;stroke:#50514F;stroke-width:0.2px;fill:none" /></g></svg>