<?xml version="1.0" encoding="UTF-8"?>
<!DOCTYPE svg PUBLIC "-//W3C//DTD SVG 1.1//EN"
    "http://www.w3.org/Graphics/SVG/1.1/DTD/svg11.dtd">
<svg xmlns="http://www.w3.org/2000/svg" xmlns:xlink="http://www.w3.org/1999/xlink" version="1.1" width="499.9999999999998" height="500" viewBox="-50.39999999999998 -50.39999999999999 64.79999999999998 64.80000000000001"><g><rect x="-50.39999999999998" y="-50.39999999999999" width="64.79999999999998" height="64.80000000000001" fill="#CBD4C2" /><path d="M 0,0 l 6.123233995736766e-17,-1.0 l -1.0,-1.2246467991473532e-16 l 6.123233995736766e-17,-1.0 l 6.123233995736766e-17,-1.0 l -1.0,-1.2246467991473532e-16 l -1.8369701987210297e-16,1.0 l -1.8369701987210297e-16,1.0 l 1.0,2.4492935982947064e-16 l 1.0,2.4492935982947064e-16 l 3.061616997868383e-16,-1.0 l 3.061616997868383e-16,-1.0 l 1.0,2.4492935982947064e-16 l 3.061616997868383e-16,-1.0 l 3.061616997868383e-16,-1.0 l 1.0,2.4492935982947064e-16 l -1.8369701987210297e-16,1.0 l -1.8369701987210297e-16,1.0 l -1.0,-1.224646799147353e-16 l -1.0,-1.224646799147353e-16 l 6.123233995736764e-17,-1.0 l 6.123233995736764e-17,-1.0 l 6.123233995736764e-17,-1.0 l -1.0,-1.224646799147353e-16 l 6.123233995736764e-17,-1.0 l -1.0,-1.224646799147353e-16 l 6.123233995736764e-17,-1.0 l 6.123233995736764e-17,-1.0 l -1.0,-1.224646799147353e-16 l -1.8369701987210297e-16,1.0 l -1.8369701987210297e-16,1.0 l 1.0,2.4492935982947064e-16 l 1.0,2.4492935982947064e-16 l 3.061616997868383e-16,-1.0 l 3.061616997868383e-16,-1.0 l 1.0,2.4492935982947064e-16 l 3.061616997868383e-16,-1.0 l 3.061616997868383e-16,-1.0 l 1.0,2.4492935982947064e-16 l -1.8369701987210297e-16,1.0 l -1.8369701987210297e-16,1.0 l -1.0,-1.224646799147353e-16 l -1.0,-1.224646799147353e-16 l 6.123233995736764e-17,-1.0 l 6.123233995736764e-17,-1.0 l 6.123233995736764e-17,-1.0 l 6.123233995736764e-17,-1.0 l -1.0,-1.224646799147353e-16 l 6.123233995736764e-17,-1.0 l 6.123233995736764e-17,-1.0 l -1.0,-1.224646799147353e-16 l -1.8369701987210297e-16,1.0 l -1.8369701987210297e-16,1.0 l 1.0,2.4492935982947064e-16 l 1.0,2.4492935982947064e-16 l 3.061616997868383e-16,-1.0 l 3.061616997868383e-16,-1.0 l 1.0,2.4492935982947064e-16 l 3.061616997868383e-16,-1.0 l 3.061616997868383e-16,-1.0 l 1.0,2.4492935982947064e-16 l -1.8369701987210297e-16,1.0 l -1.8369701987210297e-16,1.0 l -1.0,-1.224646799147353e-16 l -1.0,-1.224646799147353e-16 l 6.123233995736764e-17,-1.0 l 6.123233995736764e-17,-1.0 l 6.123233995736764e-17,-1.0 l -1.0,-1.224646799147353e-16 l -1.8369701987210297e-16,1.0 l -1.0,-1.224646799147353e-16 l -1.0,-1.224646799147353e-16 l -1.8369701987210297e-16,1.0 l 1.0,2.4492935982947064e-16 l 1.0,2.4492935982947064e-16 l 3.061616997868383e-16,-1.0 l 3.061616997868383e-16,-1.0 l -1.0,-3.67394039744206e-16 l -1.0,-3.67394039744206e-16 l 3.061616997868383e-16,-1.0 l -1.0,-3.67394039744206e-16 l -1.0,-3.67394039744206e-16 l 3.061616997868383e-16,-1.0 l 1.0,2.4492935982947064e-16 l 1.0,2.4492935982947064e-16 l -1.8369701987210297e-16,1.0 l -1.8369701987210297e-16,1.0 l -1.0,-1.224646799147353e-16 l -1.0,-1.224646799147353e-16 l -1.0,-1.224646799147353e-16 l -1.8369701987210297e-16,1.0 l 1.0,2.4492935982947064e-16 l -1.8369701987210297e-16,1.0 l -1.8369701987210297e-16,1.0 l 1.0,2.4492935982947064e-16 l 3.061616997868383e-16,-1.0 l 3.061616997868383e-16,-1.0 l -1.0,-3.67394039744206e-16 l -1.0,-3.67394039744206e-16 l -4.2862637970157366e-16,1.0 l -4.2862637970157366e-16,1.0 l -1.0,-3.67394039744206e-16 l -4.2862637970157366e-16,1.0 l -4.2862637970157366e-16,1.0 l -1.0,-3.67394039744206e-16 l 3.061616997868383e-16,-1.0 l 3.061616997868383e-16,-1.0 l 1.0,2.4492935982947064e-16 l 1.0,2.4492935982947064e-16 l -1.8369701987210297e-16,1.0 l -1.8369701987210297e-16,1.0 l -1.8369701987210297e-16,1.0 l -1.8369701987210297e-16,1.0 l 1.0,2.4492935982947064e-16 l -1.8369701987210297e-16,1.0 l -1.8369701987210297e-16,1.0 l 1.0,2.4492935982947064e-16 l 3.061616997868383e-16,-1.0 l 3.061616997868383e-16,-1.0 l -1.0,-3.67394039744206e-16 l -1.0,-3.67394039744206e-16 l -4.2862637970157366e-16,1.0 l -4.2862637970157366e-16,1.0 l -1.0,-3.67394039744206e-16 l -4.2862637970157366e-16,1.0 l -4.2862637970157366e-16,1.0 l -1.0,-3.67394039744206e-16 l 3.061616997868383e-16,-1.0 l 3.061616997868383e-16,-1.0 l 1.0,2.4492935982947064e-16 l 1.0,2.4492935982947064e-16 l -1.8369701987210297e-16,1.0 l -1.8369701987210297e-16,1.0 l -1.8369701987210297e-16,1.0 l 1.0,2.4492935982947064e-16 l 3.061616997868383e-16,-1.0 l 1.0,2.4492935982947064e-16 l 1.0,2.4492935982947064e-16 l 3.061616997868383e-16,-1.0 l -1.0,-3.67394039744206e-16 l -1.0,-3.67394039744206e-16 l -4.2862637970157366e-16,1.0 l -4.2862637970157366e-16,1.0 l 1.0,4.898587196589413e-16 l 1.0,4.898587196589413e-16 l -4.286263797015736e-16,1.0 l 1.0,4.898587196589413e-16 l 1.0,4.898587196589413e-16 l -4.286263797015736e-16,1.0 l -1.0,-3.6739403974420594e-16 l -1.0,-3.6739403974420594e-16 l 3.0616169978683826e-16,-1.0 l 3.0616169978683826e-16,-1.0 l 1.0,2.449293598294706e-16 l 1.0,2.449293598294706e-16 l 1.0,2.449293598294706e-16 l 1.0,2.449293598294706e-16 l 3.0616169978683826e-16,-1.0 l -1.0,-3.6739403974420594e-16 l 3.0616169978683826e-16,-1.0 l 3.0616169978683826e-16,-1.0 l -1.0,-3.6739403974420594e-16 l -4.286263797015736e-16,1.0 l -4.286263797015736e-16,1.0 l 1.0,4.898587196589413e-16 l 1.0,4.898587196589413e-16 l 5.51091059616309e-16,-1.0 l 5.51091059616309e-16,-1.0 l 1.0,4.898587196589413e-16 l 5.51091059616309e-16,-1.0 l 5.51091059616309e-16,-1.0 l 1.0,4.898587196589413e-16 l -4.286263797015736e-16,1.0 l -4.286263797015736e-16,1.0 l -1.0,-3.6739403974420594e-16 l -1.0,-3.6739403974420594e-16 l 3.0616169978683826e-16,-1.0 l 3.0616169978683826e-16,-1.0 l 3.0616169978683826e-16,-1.0 l 3.0616169978683826e-16,-1.0 l -1.0,-3.6739403974420594e-16 l 3.0616169978683826e-16,-1.0 l 3.0616169978683826e-16,-1.0 l -1.0,-3.6739403974420594e-16 l -4.286263797015736e-16,1.0 l -4.286263797015736e-16,1.0 l 1.0,4.898587196589413e-16 l 1.0,4.898587196589413e-16 l 5.51091059616309e-16,-1.0 l 5.51091059616309e-16,-1.0 l 1.0,4.898587196589413e-16 l 5.51091059616309e-16,-1.0 l 5.51091059616309e-16,-1.0 l 1.0,4.898587196589413e-16 l -4.286263797015736e-16,1.0 l -4.286263797015736e-16,1.0 l -1.0,-3.6739403974420594e-16 l -1.0,-3.6739403974420594e-16 l 3.0616169978683826e-16,-1.0 l 3.0616169978683826e-16,-1.0 l 3.0616169978683826e-16,-1.0 l 1.0,2.449293598294706e-16 l 3.0616169978683826e-16,-1.0 l -1.0,-3.6739403974420594e-16 l 3.0616169978683826e-16,-1.0 l 3.0616169978683826e-16,-1.0 l -1.0,-3.6739403974420594e-16 l -4.286263797015736e-16,1.0 l -4.286263797015736e-16,1.0 l 1.0,4.898587196589413e-16 l 1.0,4.898587196589413e-16 l 5.51091059616309e-16,-1.0 l 5.51091059616309e-16,-1.0 l 1.0,4.898587196589413e-16 l 5.51091059616309e-16,-1.0 l 5.51091059616309e-16,-1.0 l 1.0,4.898587196589413e-16 l -4.286263797015736e-16,1.0 l -4.286263797015736e-16,1.0 l -1.0,-3.6739403974420594e-16 l -1.0,-3.6739403974420594e-16 l 3.0616169978683826e-16,-1.0 l 3.0616169978683826e-16,-1.0 l 3.0616169978683826e-16,-1.0 l 3.0616169978683826e-16,-1.0 l -1.0,-3.6739403974420594e-16 l 3.0616169978683826e-16,-1.0 l 3.0616169978683826e-16,-1.0 l -1.0,-3.6739403974420594e-16 l -4.286263797015736e-16,1.0 l -4.286263797015736e-16,1.0 l 1.0,4.898587196589413e-16 l 1.0,4.898587196589413e-16 l 5.51091059616309e-16,-1.0 l 5.51091059616309e-16,-1.0 l 1.0,4.898587196589413e-16 l 5.51091059616309e-16,-1.0 l 5.51091059616309e-16,-1.0 l 1.0,4.898587196589413e-16 l -4.286263797015736e-16,1.0 l -4.286263797015736e-16,1.0 l -1.0,-3.6739403974420594e-16 l -1.0,-3.6739403974420594e-16 l 3.0616169978683826e-16,-1.0 l 3.0616169978683826e-16,-1.0 l 3.0616169978683826e-16,-1.0 l 1.0,2.449293598294706e-16 l 3.0616169978683826e-16,-1.0 l 1.0,2.449293598294706e-16 l 1.0,2.449293598294706e-16 l 3.0616169978683826e-16,-1.0 l -1.0,-3.6739403974420594e-16 l -1.0,-3.6739403974420594e-16 l -4.286263797015736e-16,1.0 l -4.286263797015736e-16,1.0 l 1.0,4.898587196589413e-16 l 1.0,4.898587196589413e-16 l -4.286263797015736e-16,1.0 l 1.0,4.898587196589413e-16 l 1.0,4.898587196589413e-16 l -4.286263797015736e-16,1.0 l -1.0,-3.6739403974420594e-16 l -1.0,-3.6739403974420594e-16 l 3.0616169978683826e-16,-1.0 l 3.0616169978683826e-16,-1.0 l 1.0,2.449293598294706e-16 l 1.0,2.449293598294706e-16 l 1.0,2.449293598294706e-16 l -1.8369701987210292e-16,1.0 l 1.0,2.449293598294706e-16 l -1.8369701987210292e-16,1.0 l -1.8369701987210292e-16,1.0 l 1.0,2.449293598294706e-16 l 3.0616169978683826e-16,-1.0 l 3.0616169978683826e-16,-1.0 l -1.0,-3.6739403974420594e-16 l -1.0,-3.6739403974420594e-16 l -4.286263797015736e-16,1.0 l -4.286263797015736e-16,1.0 l -1.0,-3.6739403974420594e-16 l -4.286263797015736e-16,1.0 l -4.286263797015736e-16,1.0 l -1.0,-3.6739403974420594e-16 l 3.0616169978683826e-16,-1.0 l 3.0616169978683826e-16,-1.0 l 1.0,2.449293598294706e-16 l 1.0,2.449293598294706e-16 l -1.8369701987210292e-16,1.0 l -1.8369701987210292e-16,1.0 l -1.8369701987210292e-16,1.0 l -1.8369701987210292e-16,1.0 l 1.0,2.449293598294706e-16 l -1.8369701987210292e-16,1.0 l -1.8369701987210292e-16,1.0 l 1.0,2.449293598294706e-16 l 3.0616169978683826e-16,-1.0 l 3.0616169978683826e-16,-1.0 l -1.0,-3.6739403974420594e-16 l -1.0,-3.6739403974420594e-16 l -4.286263797015736e-16,1.0 l -4.286263797015736e-16,1.0 l -1.0,-3.6739403974420594e-16 l -4.286263797015736e-16,1.0 l -4.286263797015736e-16,1.0 l -1.0,-3.6739403974420594e-16 l 3.0616169978683826e-16,-1.0 l 3.0616169978683826e-16,-1.0 l 1.0,2.449293598294706e-16 l 1.0,2.449293598294706e-16 l -1.8369701987210292e-16,1.0 l -1.8369701987210292e-16,1.0 l -1.8369701987210292e-16,1.0 l -1.0,-1.2246467991473525e-16 l -1.8369701987210292e-16,1.0 l -1.0,-1.2246467991473525e-16 l -1.0,-1.2246467991473525e-16 l -1.8369701987210292e-16,1.0 l 1.0,2.449293598294706e-16 l 1.0,2.449293598294706e-16 l 3.0616169978683826e-16,-1.0 l 3.0616169978683826e-16,-1.0 l -1.0,-3.6739403974420594e-16 l -1.0,-3.6739403974420594e-16 l 3.0616169978683826e-16,-1.0 l -1.0,-3.6739403974420594e-16 l -1.0,-3.6739403974420594e-16 l 3.0616169978683826e-16,-1.0 l 1.0,2.449293598294706e-16 l 1.0,2.449293598294706e-16 l -1.8369701987210292e-16,1.0 l -1.8369701987210292e-16,1.0 l -1.0,-1.2246467991473525e-16 l -1.0,-1.2246467991473525e-16 l -1.0,-1.2246467991473525e-16 l -1.0,-1.2246467991473525e-16 l 6.123233995736759e-17,-1.0 l -1.0,-1.2246467991473525e-16 l 6.123233995736759e-17,-1.0 l 6.123233995736759e-17,-1.0 l -1.0,-1.2246467991473525e-16 l -1.8369701987210292e-16,1.0 l -1.8369701987210292e-16,1.0 l 1.0,2.449293598294706e-16 l 1.0,2.449293598294706e-16 l 3.0616169978683826e-16,-1.0 l 3.0616169978683826e-16,-1.0 l 1.0,2.449293598294706e-16 l 3.0616169978683826e-16,-1.0 l 3.0616169978683826e-16,-1.0 l 1.0,2.449293598294706e-16 l -1.8369701987210292e-16,1.0 l -1.8369701987210292e-16,1.0 l -1.0,-1.2246467991473525e-16 l -1.0,-1.2246467991473525e-16 l 6.123233995736759e-17,-1.0 l 6.123233995736759e-17,-1.0 l 6.123233995736759e-17,-1.0 l 6.123233995736759e-17,-1.0 l -1.0,-1.2246467991473525e-16 l 6.123233995736759e-17,-1.0 l 6.123233995736759e-17,-1.0 l -1.0,-1.2246467991473525e-16 l -1.8369701987210292e-16,1.0 l -1.8369701987210292e-16,1.0 l 1.0,2.449293598294706e-16 l 1.0,2.449293598294706e-16 l 3.0616169978683826e-16,-1.0 l 3.0616169978683826e-16,-1.0 l 1.0,2.449293598294706e-16 l 3.0616169978683826e-16,-1.0 l 3.0616169978683826e-16,-1.0 l 1.0,2.449293598294706e-16 l -1.8369701987210292e-16,1.0 l -1.8369701987210292e-16,1.0 l -1.0,-1.2246467991473525e-16 l -1.0,-1.2246467991473525e-16 l 6.123233995736759e-17,-1.0 l 6.123233995736759e-17,-1.0 l 6.123233995736759e-17,-1.0 l 6.123233995736759e-17,-1.0 l -1.0,-1.2246467991473525e-16 l 6.123233995736759e-17,-1.0 l 6.123233995736759e-17,-1.0 l -1.0,-1.2246467991473525e-16 l -1.8369701987210292e-16,1.0 l -1.8369701987210292e-16,1.0 l 1.0,2.449293598294706e-16 l 1.0,2.449293598294706e-16 l 3.0616169978683826e-16,-1.0 l 3.0616169978683826e-16,-1.0 l 1.0,2.449293598294706e-16 l 3.0616169978683826e-16,-1.0 l 3.0616169978683826e-16,-1.0 l 1.0,2.449293598294706e-16 l -1.8369701987210292e-16,1.0 l -1.8369701987210292e-16,1.0 l -1.0,-1.2246467991473525e-16 l -1.0,-1.2246467991473525e-16 l 6.123233995736759e-17,-1.0 l 6.123233995736759e-17,-1.0 l 6.123233995736759e-17,-1.0 l -1.0,-1.2246467991473525e-16 l -1.8369701987210292e-16,1.0 l -1.0,-1.2246467991473525e-16 l -1.0,-1.2246467991473525e-16 l -1.8369701987210292e-16,1.0 l 1.0,2.449293598294706e-16 l 1.0,2.449293598294706e-16 l 3.0616169978683826e-16,-1.0 l 3.0616169978683826e-16,-1.0 l -1.0,-3.6739403974420594e-16 l -1.0,-3.6739403974420594e-16 l 3.0616169978683826e-16,-1.0 l -1.0,-3.6739403974420594e-16 l -1.0,-3.6739403974420594e-16 l 3.0616169978683826e-16,-1.0 l 1.0,2.449293598294706e-16 l 1.0,2.449293598294706e-16 l -1.8369701987210292e-16,1.0 l -1.8369701987210292e-16,1.0 l -1.0,-1.2246467991473525e-16 l -1.0,-1.2246467991473525e-16 l -1.0,-1.2246467991473525e-16 l -1.8369701987210292e-16,1.0 l -1.0,-1.2246467991473525e-16 l -1.8369701987210292e-16,1.0 l -1.0,-1.2246467991473525e-16 l -1.0,-1.2246467991473525e-16 l -1.8369701987210292e-16,1.0 l 1.0,2.449293598294706e-16 l 1.0,2.449293598294706e-16 l 3.0616169978683826e-16,-1.0 l 3.0616169978683826e-16,-1.0 l -1.0,-3.6739403974420594e-16 l -1.0,-3.6739403974420594e-16 l 3.0616169978683826e-16,-1.0 l -1.0,-3.6739403974420594e-16 l -1.0,-3.6739403974420594e-16 l 3.0616169978683826e-16,-1.0 l 1.0,2.449293598294706e-16 l 1.0,2.449293598294706e-16 l -1.8369701987210292e-16,1.0 l -1.8369701987210292e-16,1.0 l -1.0,-1.2246467991473525e-16 l -1.0,-1.2246467991473525e-16 l -1.0,-1.2246467991473525e-16 l -1.0,-1.2246467991473525e-16 l -1.8369701987210292e-16,1.0 l -1.0,-1.2246467991473525e-16 l -1.0,-1.2246467991473525e-16 l -1.8369701987210292e-16,1.0 l 1.0,2.449293598294706e-16 l 1.0,2.449293598294706e-16 l 3.0616169978683826e-16,-1.0 l 3.0616169978683826e-16,-1.0 l -1.0,-3.6739403974420594e-16 l -1.0,-3.6739403974420594e-16 l 3.0616169978683826e-16,-1.0 l -1.0,-3.6739403974420594e-16 l -1.0,-3.6739403974420594e-16 l 3.0616169978683826e-16,-1.0 l 1.0,2.449293598294706e-16 l 1.0,2.449293598294706e-16 l -1.8369701987210292e-16,1.0 l -1.8369701987210292e-16,1.0 l -1.0,-1.2246467991473525e-16 l -1.0,-1.2246467991473525e-16 l -1.0,-1.2246467991473525e-16 l -1.8369701987210292e-16,1.0 l 1.0,2.449293598294706e-16 l -1.8369701987210292e-16,1.0 l -1.8369701987210292e-16,1.0 l 1.0,2.449293598294706e-16 l 3.0616169978683826e-16,-1.0 l 3.0616169978683826e-16,-1.0 l -1.0,-3.6739403974420594e-16 l -1.0,-3.6739403974420594e-16 l -4.286263797015736e-16,1.0 l -4.286263797015736e-16,1.0 l -1.0,-3.6739403974420594e-16 l -4.286263797015736e-16,1.0 l -4.286263797015736e-16,1.0 l -1.0,-3.6739403974420594e-16 l 3.0616169978683826e-16,-1.0 l 3.0616169978683826e-16,-1.0 l 1.0,2.449293598294706e-16 l 1.0,2.449293598294706e-16 l -1.8369701987210292e-16,1.0 l -1.8369701987210292e-16,1.0 l -1.8369701987210292e-16,1.0 l 1.0,2.449293598294706e-16 l 3.0616169978683826e-16,-1.0 l 1.0,2.449293598294706e-16 l 1.0,2.449293598294706e-16 l 3.0616169978683826e-16,-1.0 l -1.0,-3.6739403974420594e-16 l -1.0,-3.6739403974420594e-16 l -4.286263797015736e-16,1.0 l -4.286263797015736e-16,1.0 l 1.0,4.898587196589413e-16 l 1.0,4.898587196589413e-16 l -4.286263797015736e-16,1.0 l 1.0,4.898587196589413e-16 l 1.0,4.898587196589413e-16 l -4.286263797015736e-16,1.0 l -1.0,-3.6739403974420594e-16 l -1.0,-3.6739403974420594e-16 l 3.0616169978683826e-16,-1.0 l 3.0616169978683826e-16,-1.0 l 1.0,2.449293598294706e-16 l 1.0,2.449293598294706e-16 l 1.0,2.449293598294706e-16 l 1.0,2.449293598294706e-16 l 3.0616169978683826e-16,-1.0 l 1.0,2.449293598294706e-16 l 1.0,2.449293598294706e-16 l 3.0616169978683826e-16,-1.0 l -1.0,-3.6739403974420594e-16 l -1.0,-3.6739403974420594e-16 l -4.286263797015736e-16,1.0 l -4.286263797015736e-16,1.0 l 1.0,4.898587196589413e-16 l 1.0,4.898587196589413e-16 l -4.286263797015736e-16,1.0 l 1.0,4.898587196589413e-16 l 1.0,4.898587196589413e-16 l -4.286263797015736e-16,1.0 l -1.0,-3.6739403974420594e-16 l -1.0,-3.6739403974420594e-16 l 3.0616169978683826e-16,-1.0 l 3.0616169978683826e-16,-1.0 l 1.0,2.449293598294706e-16 l 1.0,2.449293598294706e-16 l 1.0,2.449293598294706e-16 l 3.0616169978683826e-16,-1.0 l -1.0,-3.6739403974420594e-16 l 3.0616169978683826e-16,-1.0 l 3.0616169978683826e-16,-1.0 l -1.0,-3.6739403974420594e-16 l -4.286263797015736e-16,1.0 l -4.286263797015736e-16,1.0 l 1.0,4.898587196589413e-16 l 1.0,4.898587196589413e-16 l 5.51091059616309e-16,-1.0 l 5.51091059616309e-16,-1.0 l 1.0,4.898587196589413e-16 l 5.51091059616309e-16,-1.0 l 5.51091059616309e-16,-1.0 l 1.0,4.898587196589413e-16 l -4.286263797015736e-16,1.0 l -4.286263797015736e-16,1.0 l -1.0,-3.6739403974420594e-16 l -1.0,-3.6739403974420594e-16 l 3.0616169978683826e-16,-1.0 l 3.0616169978683826e-16,-1.0 l 3.0616169978683826e-16,-1.0 l 3.0616169978683826e-16,-1.0 l -1.0,-3.6739403974420594e-16 l -4.286263797015736e-16,1.0 l -1.0,-3.6739403974420594e-16 l -1.0,-3.6739403974420594e-16 l -4.286263797015736e-16,1.0 l 1.0,4.898587196589413e-16 l 1.0,4.898587196589413e-16 l 5.51091059616309e-16,-1.0 l 5.51091059616309e-16,-1.0 l -1.0,-6.123233995736766e-16 l -1.0,-6.123233995736766e-16 l 5.51091059616309e-16,-1.0 l -1.0,-6.123233995736766e-16 l -1.0,-6.123233995736766e-16 l 5.51091059616309e-16,-1.0 l 1.0,4.898587196589413e-16 l 1.0,4.898587196589413e-16 l -4.286263797015736e-16,1.0 l -4.286263797015736e-16,1.0 l -1.0,-3.6739403974420594e-16 l -1.0,-3.6739403974420594e-16 l -1.0,-3.6739403974420594e-16 l -1.0,-3.6739403974420594e-16 l -4.286263797015736e-16,1.0 l -1.0,-3.6739403974420594e-16 l -1.0,-3.6739403974420594e-16 l -4.286263797015736e-16,1.0 l 1.0,4.898587196589413e-16 l 1.0,4.898587196589413e-16 l 5.51091059616309e-16,-1.0 l 5.51091059616309e-16,-1.0 l -1.0,-6.123233995736766e-16 l -1.0,-6.123233995736766e-16 l 5.51091059616309e-16,-1.0 l -1.0,-6.123233995736766e-16 l -1.0,-6.123233995736766e-16 l 5.51091059616309e-16,-1.0 l 1.0,4.898587196589413e-16 l 1.0,4.898587196589413e-16 l -4.286263797015736e-16,1.0 l -4.286263797015736e-16,1.0 l -1.0,-3.6739403974420594e-16 l -1.0,-3.6739403974420594e-16 l -1.0,-3.6739403974420594e-16 l 3.0616169978683826e-16,-1.0 l -1.0,-3.6739403974420594e-16 l -4.286263797015736e-16,1.0 l -1.0,-3.6739403974420594e-16 l -1.0,-3.6739403974420594e-16 l -4.286263797015736e-16,1.0 l 1.0,4.898587196589413e-16 l 1.0,4.898587196589413e-16 l 5.51091059616309e-16,-1.0 l 5.51091059616309e-16,-1.0 l -1.0,-6.123233995736766e-16 l -1.0,-6.123233995736766e-16 l 5.51091059616309e-16,-1.0 l -1.0,-6.123233995736766e-16 l -1.0,-6.123233995736766e-16 l 5.51091059616309e-16,-1.0 l 1.0,4.898587196589413e-16 l 1.0,4.898587196589413e-16 l -4.286263797015736e-16,1.0 l -4.286263797015736e-16,1.0 l -1.0,-3.6739403974420594e-16 l -1.0,-3.6739403974420594e-16 l -1.0,-3.6739403974420594e-16 l -1.0,-3.6739403974420594e-16 l -4.286263797015736e-16,1.0 l -1.0,-3.6739403974420594e-16 l -1.0,-3.6739403974420594e-16 l -4.286263797015736e-16,1.0 l 1.0,4.898587196589413e-16 l 1.0,4.898587196589413e-16 l 5.51091059616309e-16,-1.0 l 5.51091059616309e-16,-1.0 l -1.0,-6.123233995736766e-16 l -1.0,-6.123233995736766e-16 l 5.51091059616309e-16,-1.0 l -1.0,-6.123233995736766e-16 l -1.0,-6.123233995736766e-16 l 5.51091059616309e-16,-1.0 l 1.0,4.898587196589413e-16 l 1.0,4.898587196589413e-16 l -4.286263797015736e-16,1.0 l -4.286263797015736e-16,1.0 l -1.0,-3.6739403974420594e-16 l -1.0,-3.6739403974420594e-16 l -1.0,-3.6739403974420594e-16 l 3.0616169978683826e-16,-1.0 l -1.0,-3.6739403974420594e-16 l 3.0616169978683826e-16,-1.0 l 3.0616169978683826e-16,-1.0 l -1.0,-3.6739403974420594e-16 l -4.286263797015736e-16,1.0 l -4.286263797015736e-16,1.0 l 1.0,4.898587196589413e-16 l 1.0,4.898587196589413e-16 l 5.51091059616309e-16,-1.0 l 5.51091059616309e-16,-1.0 l 1.0,4.898587196589413e-16 l 5.51091059616309e-16,-1.0 l 5.51091059616309e-16,-1.0 l 1.0,4.898587196589413e-16 l -4.286263797015736e-16,1.0 l -4.286263797015736e-16,1.0 l -1.0,-3.6739403974420594e-16 l -1.0,-3.6739403974420594e-16 l 3.0616169978683826e-16,-1.0 l 3.0616169978683826e-16,-1.0 l 3.0616169978683826e-16,-1.0 l 1.0,2.449293598294706e-16 l 3.0616169978683826e-16,-1.0 l 1.0,2.449293598294706e-16 l 1.0,2.449293598294706e-16 l 3.0616169978683826e-16,-1.0 l -1.0,-3.6739403974420594e-16 l -1.0,-3.6739403974420594e-16 l -4.286263797015736e-16,1.0 l -4.286263797015736e-16,1.0 l 1.0,4.898587196589413e-16 l 1.0,4.898587196589413e-16 l -4.286263797015736e-16,1.0 l 1.0,4.898587196589413e-16 l 1.0,4.898587196589413e-16 l -4.286263797015736e-16,1.0 l -1.0,-3.6739403974420594e-16 l -1.0,-3.6739403974420594e-16 l 3.0616169978683826e-16,-1.0 l 3.0616169978683826e-16,-1.0 l 1.0,2.449293598294706e-16 l 1.0,2.449293598294706e-16 l 1.0,2.449293598294706e-16 l 1.0,2.449293598294706e-16 l 3.0616169978683826e-16,-1.0 l 1.0,2.449293598294706e-16 l 1.0,2.449293598294706e-16 l 3.0616169978683826e-16,-1.0 l -1.0,-3.6739403974420594e-16 l -1.0,-3.6739403974420594e-16 l -4.286263797015736e-16,1.0 l -4.286263797015736e-16,1.0 l 1.0,4.898587196589413e-16 l 1.0,4.898587196589413e-16 l -4.286263797015736e-16,1.0 l 1.0,4.898587196589413e-16 l 1.0,4.898587196589413e-16 l -4.286263797015736e-16,1.0 l -1.0,-3.6739403974420594e-16 l -1.0,-3.6739403974420594e-16 l 3.0616169978683826e-16,-1.0 l 3.0616169978683826e-16,-1.0 l 1.0,2.449293598294706e-16 l 1.0,2.449293598294706e-16 l 1.0,2.449293598294706e-16 l -1.8369701987210292e-16,1.0 l 1.0,2.449293598294706e-16 l -1.8369701987210292e-16,1.0 l -1.8369701987210292e-16,1.0 l 1.0,2.449293598294706e-16 l 3.0616169978683826e-16,-1.0 l 3.0616169978683826e-16,-1.0 l -1.0,-3.6739403974420594e-16 l -1.0,-3.6739403974420594e-16 l -4.286263797015736e-16,1.0 l -4.286263797015736e-16,1.0 l -1.0,-3.6739403974420594e-16 l -4.286263797015736e-16,1.0 l -4.286263797015736e-16,1.0 l -1.0,-3.6739403974420594e-16 l 3.0616169978683826e-16,-1.0 l 3.0616169978683826e-16,-1.0 l 1.0,2.449293598294706e-16 l 1.0,2.449293598294706e-16 l -1.8369701987210292e-16,1.0 l -1.8369701987210292e-16,1.0 l -1.8369701987210292e-16,1.0 l -1.8369701987210292e-16,1.0 l -1.0,-1.2246467991473525e-16 l -1.8369701987210292e-16,1.0 l -1.0,-1.2246467991473525e-16 l -1.0,-1.2246467991473525e-16 l -1.8369701987210292e-16,1.0 l 1.0,2.449293598294706e-16 l 1.0,2.449293598294706e-16 l 3.0616169978683826e-16,-1.0 l 3.0616169978683826e-16,-1.0 l -1.0,-3.6739403974420594e-16 l -1.0,-3.6739403974420594e-16 l 3.0616169978683826e-16,-1.0 l -1.0,-3.6739403974420594e-16 l -1.0,-3.6739403974420594e-16 l 3.0616169978683826e-16,-1.0 l 1.0,2.449293598294706e-16 l 1.0,2.449293598294706e-16 l -1.8369701987210292e-16,1.0 l -1.8369701987210292e-16,1.0 l -1.0,-1.2246467991473525e-16 l -1.0,-1.2246467991473525e-16 l -1.0,-1.2246467991473525e-16 l -1.0,-1.2246467991473525e-16 l -1.8369701987210292e-16,1.0 l -1.0,-1.2246467991473525e-16 l -1.0,-1.2246467991473525e-16 l -1.8369701987210292e-16,1.0 l 1.0,2.449293598294706e-16 l 1.0,2.449293598294706e-16 l 3.0616169978683826e-16,-1.0 l 3.0616169978683826e-16,-1.0 l -1.0,-3.6739403974420594e-16 l -1.0,-3.6739403974420594e-16 l 3.0616169978683826e-16,-1.0 l -1.0,-3.6739403974420594e-16 l -1.0,-3.6739403974420594e-16 l 3.0616169978683826e-16,-1.0 l 1.0,2.449293598294706e-16 l 1.0,2.449293598294706e-16 l -1.8369701987210292e-16,1.0 l -1.8369701987210292e-16,1.0 l -1.0,-1.2246467991473525e-16 l -1.0,-1.2246467991473525e-16 l -1.0,-1.2246467991473525e-16 l -1.0,-1.2246467991473525e-16 l -1.8369701987210292e-16,1.0 l -1.0,-1.2246467991473525e-16 l -1.0,-1.2246467991473525e-16 l -1.8369701987210292e-16,1.0 l 1.0,2.449293598294706e-16 l 1.0,2.449293598294706e-16 l 3.0616169978683826e-16,-1.0 l 3.0616169978683826e-16,-1.0 l -1.0,-3.6739403974420594e-16 l -1.0,-3.6739403974420594e-16 l 3.0616169978683826e-16,-1.0 l -1.0,-3.6739403974420594e-16 l -1.0,-3.6739403974420594e-16 l 3.0616169978683826e-16,-1.0 l 1.0,2.449293598294706e-16 l 1.0,2.449293598294706e-16 l -1.8369701987210292e-16,1.0 l -1.8369701987210292e-16,1.0 l -1.0,-1.2246467991473525e-16 l -1.0,-1.2246467991473525e-16 l -1.0,-1.2246467991473525e-16 l -1.8369701987210292e-16,1.0 l 1.0,2.449293598294706e-16 l -1.8369701987210292e-16,1.0 l -1.8369701987210292e-16,1.0 l 1.0,2.449293598294706e-16 l 3.0616169978683826e-16,-1.0 l 3.0616169978683826e-16,-1.0 l -1.0,-3.6739403974420594e-16 l -1.0,-3.6739403974420594e-16 l -4.286263797015736e-16,1.0 l -4.286263797015736e-16,1.0 l -1.0,-3.6739403974420594e-16 l -4.286263797015736e-16,1.0 l -4.286263797015736e-16,1.0 l -1.0,-3.6739403974420594e-16 l 3.0616169978683826e-16,-1.0 l 3.0616169978683826e-16,-1.0 l 1.0,2.449293598294706e-16 l 1.0,2.449293598294706e-16 l -1.8369701987210292e-16,1.0 l -1.8369701987210292e-16,1.0 l -1.8369701987210292e-16,1.0 l 1.0,2.449293598294706e-16 l -1.8369701987210292e-16,1.0 l 1.0,2.449293598294706e-16 l -1.8369701987210292e-16,1.0 l -1.8369701987210292e-16,1.0 l 1.0,2.449293598294706e-16 l 3.0616169978683826e-16,-1.0 l 3.0616169978683826e-16,-1.0 l -1.0,-3.6739403974420594e-16 l -1.0,-3.6739403974420594e-16 l -4.286263797015736e-16,1.0 l -4.286263797015736e-16,1.0 l -1.0,-3.6739403974420594e-16 l -4.286263797015736e-16,1.0 l -4.286263797015736e-16,1.0 l -1.0,-3.6739403974420594e-16 l 3.0616169978683826e-16,-1.0 l 3.0616169978683826e-16,-1.0 l 1.0,2.449293598294706e-16 l 1.0,2.449293598294706e-16 l -1.8369701987210292e-16,1.0 l -1.8369701987210292e-16,1.0 l -1.8369701987210292e-16,1.0 l -1.8369701987210292e-16,1.0 l 1.0,2.449293598294706e-16 l -1.8369701987210292e-16,1.0 l -1.8369701987210292e-16,1.0 l 1.0,2.449293598294706e-16 l 3.0616169978683826e-16,-1.0 l 3.0616169978683826e-16,-1.0 l -1.0,-3.6739403974420594e-16 l -1.0,-3.6739403974420594e-16 l -4.286263797015736e-16,1.0 l -4.286263797015736e-16,1.0 l -1.0,-3.6739403974420594e-16 l -4.286263797015736e-16,1.0 l -4.286263797015736e-16,1.0 l -1.0,-3.6739403974420594e-16 l 3.0616169978683826e-16,-1.0 l 3.0616169978683826e-16,-1.0 l 1.0,2.449293598294706e-16 l 1.0,2.449293598294706e-16 l -1.8369701987210292e-16,1.0 l -1.8369701987210292e-16,1.0 l -1.8369701987210292e-16,1.0 l 1.0,2.449293598294706e-16 l 3.0616169978683826e-16,-1.0 l 1.0,2.449293598294706e-16 l 1.0,2.449293598294706e-16 l 3.0616169978683826e-16,-1.0 l -1.0,-3.6739403974420594e-16 l -1.0,-3.6739403974420594e-16 l -4.286263797015736e-16,1.0 l -4.286263797015736e-16,1.0 l 1.0,4.898587196589413e-16 l 1.0,4.898587196589413e-16 l -4.286263797015736e-16,1.0 l 1.0,4.898587196589413e-16 l 1.0,4.898587196589413e-16 l -4.286263797015736e-16,1.0 l -1.0,-3.6739403974420594e-16 l -1.0,-3.6739403974420594e-16 l 3.0616169978683826e-16,-1.0 l 3.0616169978683826e-16,-1.0 l 1.0,2.449293598294706e-16 l 1.0,2.449293598294706e-16 l 1.0,2.449293598294706e-16 l 3.0616169978683826e-16,-1.0 l -1.0,-3.6739403974420594e-16 l 3.0616169978683826e-16,-1.0 l 3.0616169978683826e-16,-1.0 l -1.0,-3.6739403974420594e-16 l -4.286263797015736e-16,1.0 l -4.286263797015736e-16,1.0 l 1.0,4.898587196589413e-16 l 1.0,4.898587196589413e-16 l 5.51091059616309e-16,-1.0 l 5.51091059616309e-16,-1.0 l 1.0,4.898587196589413e-16 l 5.51091059616309e-16,-1.0 l 5.51091059616309e-16,-1.0 l 1.0,4.898587196589413e-16 l -4.286263797015736e-16,1.0 l -4.286263797015736e-16,1.0 l -1.0,-3.6739403974420594e-16 l -1.0,-3.6739403974420594e-16 l 3.0616169978683826e-16,-1.0 l 3.0616169978683826e-16,-1.0 l 3.0616169978683826e-16,-1.0 l 3.0616169978683826e-16,-1.0 l -1.0,-3.6739403974420594e-16 l 3.0616169978683826e-16,-1.0 l 3.0616169978683826e-16,-1.0 l -1.0,-3.6739403974420594e-16 l -4.286263797015736e-16,1.0 l -4.286263797015736e-16,1.0 l 1.0,4.898587196589413e-16 l 1.0,4.898587196589413e-16 l 5.51091059616309e-16,-1.0 l 5.51091059616309e-16,-1.0 l 1.0,4.898587196589413e-16 l 5.51091059616309e-16,-1.0 l 5.51091059616309e-16,-1.0 l 1.0,4.898587196589413e-16 l -4.286263797015736e-16,1.0 l -4.286263797015736e-16,1.0 l -1.0,-3.6739403974420594e-16 l -1.0,-3.6739403974420594e-16 l 3.0616169978683826e-16,-1.0 l 3.0616169978683826e-16,-1.0 l 3.0616169978683826e-16,-1.0 l -1.0,-3.6739403974420594e-16 l -4.286263797015736e-16,1.0 l -1.0,-3.6739403974420594e-16 l -1.0,-3.6739403974420594e-16 l -4.286263797015736e-16,1.0 l 1.0,4.898587196589413e-16 l 1.0,4.898587196589413e-16 l 5.51091059616309e-16,-1.0 l 5.51091059616309e-16,-1.0 l -1.0,-6.123233995736766e-16 l -1.0,-6.123233995736766e-16 l 5.51091059616309e-16,-1.0 l -1.0,-6.123233995736766e-16 l -1.0,-6.123233995736766e-16 l 5.51091059616309e-16,-1.0 l 1.0,4.898587196589413e-16 l 1.0,4.898587196589413e-16 l -4.286263797015736e-16,1.0 l -4.286263797015736e-16,1.0 l -1.0,-3.6739403974420594e-16 l -1.0,-3.6739403974420594e-16 l -1.0,-3.6739403974420594e-16 l -1.0,-3.6739403974420594e-16 l -4.286263797015736e-16,1.0 l 1.0,4.898587196589413e-16 l -4.286263797015736e-16,1.0 l -4.286263797015736e-16,1.0 l 1.0,4.898587196589413e-16 l 5.51091059616309e-16,-1.0 l 5.51091059616309e-16,-1.0 l -1.0,-6.123233995736766e-16 l -1.0,-6.123233995736766e-16 l -6.735557395310443e-16,1.0 l -6.735557395310443e-16,1.0 l -1.0,-6.123233995736766e-16 l -6.735557395310443e-16,1.0 l -6.735557395310443e-16,1.0 l -1.0,-6.123233995736766e-16 l 5.51091059616309e-16,-1.0 l 5.51091059616309e-16,-1.0 l 1.0,4.898587196589413e-16 l 1.0,4.898587196589413e-16 l -4.286263797015736e-16,1.0 l -4.286263797015736e-16,1.0 l -4.286263797015736e-16,1.0 l -4.286263797015736e-16,1.0 l 1.0,4.898587196589413e-16 l -4.286263797015736e-16,1.0 l -4.286263797015736e-16,1.0 l 1.0,4.898587196589413e-16 l 5.51091059616309e-16,-1.0 l 5.51091059616309e-16,-1.0 l -1.0,-6.123233995736766e-16 l -1.0,-6.123233995736766e-16 l -6.735557395310443e-16,1.0 l -6.735557395310443e-16,1.0 l -1.0,-6.123233995736766e-16 l -6.735557395310443e-16,1.0 l -6.735557395310443e-16,1.0 l -1.0,-6.123233995736766e-16 l 5.51091059616309e-16,-1.0 l 5.51091059616309e-16,-1.0 l 1.0,4.898587196589413e-16 l 1.0,4.898587196589413e-16 l -4.286263797015736e-16,1.0 l -4.286263797015736e-16,1.0 l -4.286263797015736e-16,1.0 l -1.0,-3.6739403974420594e-16 l -4.286263797015736e-16,1.0 l 1.0,4.898587196589413e-16 l -4.286263797015736e-16,1.0 l -4.286263797015736e-16,1.0 l 1.0,4.898587196589413e-16 l 5.51091059616309e-16,-1.0 l 5.51091059616309e-16,-1.0 l -1.0,-6.123233995736766e-16 l -1.0,-6.123233995736766e-16 l -6.735557395310443e-16,1.0 l -6.735557395310443e-16,1.0 l -1.0,-6.123233995736766e-16 l -6.735557395310443e-16,1.0 l -6.735557395310443e-16,1.0 l -1.0,-6.123233995736766e-16 l 5.51091059616309e-16,-1.0 l 5.51091059616309e-16,-1.0 l 1.0,4.898587196589413e-16 l 1.0,4.898587196589413e-16 l -4.286263797015736e-16,1.0 l -4.286263797015736e-16,1.0 l -4.286263797015736e-16,1.0 l -4.286263797015736e-16,1.0 l 1.0,4.898587196589413e-16 l -4.286263797015736e-16,1.0 l -4.286263797015736e-16,1.0 l 1.0,4.898587196589413e-16 l 5.51091059616309e-16,-1.0 l 5.51091059616309e-16,-1.0 l -1.0,-6.123233995736766e-16 l -1.0,-6.123233995736766e-16 l -6.735557395310443e-16,1.0 l -6.735557395310443e-16,1.0 l -1.0,-6.123233995736766e-16 l -6.735557395310443e-16,1.0 l -6.735557395310443e-16,1.0 l -1.0,-6.123233995736766e-16 l 5.51091059616309e-16,-1.0 l 5.51091059616309e-16,-1.0 l 1.0,4.898587196589413e-16 l 1.0,4.898587196589413e-16 l -4.286263797015736e-16,1.0 l -4.286263797015736e-16,1.0 l -4.286263797015736e-16,1.0 l -1.0,-3.6739403974420594e-16 l -4.286263797015736e-16,1.0 l -1.0,-3.6739403974420594e-16 l -1.0,-3.6739403974420594e-16 l -4.286263797015736e-16,1.0 l 1.0,4.898587196589413e-16 l 1.0,4.898587196589413e-16 l 5.51091059616309e-16,-1.0 l 5.51091059616309e-16,-1.0 l -1.0,-6.123233995736766e-16 l -1.0,-6.123233995736766e-16 l 5.51091059616309e-16,-1.0 l -1.0,-6.123233995736766e-16 l -1.0,-6.123233995736766e-16 l 5.51091059616309e-16,-1.0 l 1.0,4.898587196589413e-16 l 1.0,4.898587196589413e-16 l -4.286263797015736e-16,1.0 l -4.286263797015736e-16,1.0 l -1.0,-3.6739403974420594e-16 l -1.0,-3.6739403974420594e-16 l -1.0,-3.6739403974420594e-16 l 3.0616169978683826e-16,-1.0 l -1.0,-3.6739403974420594e-16 l 3.0616169978683826e-16,-1.0 l 3.0616169978683826e-16,-1.0 l -1.0,-3.6739403974420594e-16 l -4.286263797015736e-16,1.0 l -4.286263797015736e-16,1.0 l 1.0,4.898587196589413e-16 l 1.0,4.898587196589413e-16 l 5.51091059616309e-16,-1.0 l 5.51091059616309e-16,-1.0 l 1.0,4.898587196589413e-16 l 5.51091059616309e-16,-1.0 l 5.51091059616309e-16,-1.0 l 1.0,4.898587196589413e-16 l -4.286263797015736e-16,1.0 l -4.286263797015736e-16,1.0 l -1.0,-3.6739403974420594e-16 l -1.0,-3.6739403974420594e-16 l 3.0616169978683826e-16,-1.0 l 3.0616169978683826e-16,-1.0 l 3.0616169978683826e-16,-1.0 l 3.0616169978683826e-16,-1.0 l -1.0,-3.6739403974420594e-16 l 3.0616169978683826e-16,-1.0 l 3.0616169978683826e-16,-1.0 l -1.0,-3.6739403974420594e-16 l -4.286263797015736e-16,1.0 l -4.286263797015736e-16,1.0 l 1.0,4.898587196589413e-16 l 1.0,4.898587196589413e-16 l 5.51091059616309e-16,-1.0 l 5.51091059616309e-16,-1.0 l 1.0,4.898587196589413e-16 l 5.51091059616309e-16,-1.0 l 5.51091059616309e-16,-1.0 l 1.0,4.898587196589413e-16 l -4.286263797015736e-16,1.0 l -4.286263797015736e-16,1.0 l -1.0,-3.6739403974420594e-16 l -1.0,-3.6739403974420594e-16 l 3.0616169978683826e-16,-1.0 l 3.0616169978683826e-16,-1.0 l 3.0616169978683826e-16,-1.0 l 1.0,2.449293598294706e-16 l 3.0616169978683826e-16,-1.0 l 1.0,2.449293598294706e-16 l 1.0,2.449293598294706e-16 l 3.0616169978683826e-16,-1.0 l -1.0,-3.6739403974420594e-16 l -1.0,-3.6739403974420594e-16 l -4.286263797015736e-16,1.0 l -4.286263797015736e-16,1.0 l 1.0,4.898587196589413e-16 l 1.0,4.898587196589413e-16 l -4.286263797015736e-16,1.0 l 1.0,4.898587196589413e-16 l 1.0,4.898587196589413e-16 l -4.286263797015736e-16,1.0 l -1.0,-3.6739403974420594e-16 l -1.0,-3.6739403974420594e-16 l 3.0616169978683826e-16,-1.0 l 3.0616169978683826e-16,-1.0 l 1.0,2.449293598294706e-16 l 1.0,2.449293598294706e-16 l 1.0,2.449293598294706e-16 l 1.0,2.449293598294706e-16 l -1.8369701987210292e-16,1.0 l 1.0,2.449293598294706e-16 l -1.8369701987210292e-16,1.0 l -1.8369701987210292e-16,1.0 l 1.0,2.449293598294706e-16 l 3.0616169978683826e-16,-1.0 l 3.0616169978683826e-16,-1.0 l -1.0,-3.6739403974420594e-16 l -1.0,-3.6739403974420594e-16 l -4.286263797015736e-16,1.0 l -4.286263797015736e-16,1.0 l -1.0,-3.6739403974420594e-16 l -4.286263797015736e-16,1.0 l -4.286263797015736e-16,1.0 l -1.0,-3.6739403974420594e-16 l 3.0616169978683826e-16,-1.0 l 3.0616169978683826e-16,-1.0 l 1.0,2.449293598294706e-16 l 1.0,2.449293598294706e-16 l -1.8369701987210292e-16,1.0 l -1.8369701987210292e-16,1.0 l -1.8369701987210292e-16,1.0 l -1.8369701987210292e-16,1.0 l 1.0,2.449293598294706e-16 l -1.8369701987210292e-16,1.0 l -1.8369701987210292e-16,1.0 l 1.0,2.449293598294706e-16 l 3.0616169978683826e-16,-1.0 l 3.0616169978683826e-16,-1.0 l -1.0,-3.6739403974420594e-16 l -1.0,-3.6739403974420594e-16 l -4.286263797015736e-16,1.0 l -4.286263797015736e-16,1.0 l -1.0,-3.6739403974420594e-16 l -4.286263797015736e-16,1.0 l -4.286263797015736e-16,1.0 l -1.0,-3.6739403974420594e-16 l 3.0616169978683826e-16,-1.0 l 3.0616169978683826e-16,-1.0 l 1.0,2.449293598294706e-16 l 1.0,2.449293598294706e-16 l -1.8369701987210292e-16,1.0 l -1.8369701987210292e-16,1.0 l -1.8369701987210292e-16,1.0 l -1.8369701987210292e-16,1.0 l 1.0,2.449293598294706e-16 l -1.8369701987210292e-16,1.0 l -1.8369701987210292e-16,1.0 l 1.0,2.449293598294706e-16 l 3.0616169978683826e-16,-1.0 l 3.0616169978683826e-16,-1.0 l -1.0,-3.6739403974420594e-16 l -1.0,-3.6739403974420594e-16 l -4.286263797015736e-16,1.0 l -4.286263797015736e-16,1.0 l -1.0,-3.6739403974420594e-16 l -4.286263797015736e-16,1.0 l -4.286263797015736e-16,1.0 l -1.0,-3.6739403974420594e-16 l 3.0616169978683826e-16,-1.0 l 3.0616169978683826e-16,-1.0 l 1.0,2.449293598294706e-16 l 1.0,2.449293598294706e-16 l -1.8369701987210292e-16,1.0 l -1.8369701987210292e-16,1.0 l -1.8369701987210292e-16,1.0 l 1.0,2.449293598294706e-16 l 3.0616169978683826e-16,-1.0 l 1.0,2.449293598294706e-16 l 1.0,2.449293598294706e-16 l 3.0616169978683826e-16,-1.0 l -1.0,-3.6739403974420594e-16 l -1.0,-3.6739403974420594e-16 l -4.286263797015736e-16,1.0 l -4.286263797015736e-16,1.0 l 1.0,4.898587196589413e-16 l 1.0,4.898587196589413e-16 l -4.286263797015736e-16,1.0 l 1.0,4.898587196589413e-16 l 1.0,4.898587196589413e-16 l -4.286263797015736e-16,1.0 l -1.0,-3.6739403974420594e-16 l -1.0,-3.6739403974420594e-16 l 3.0616169978683826e-16,-1.0 l 3.0616169978683826e-16,-1.0 l 1.0,2.449293598294706e-16 l 1.0,2.449293598294706e-16 l 1.0,2.449293598294706e-16 l 3.0616169978683826e-16,-1.0 l 1.0,2.449293598294706e-16 l 3.0616169978683826e-16,-1.0 l 1.0,2.449293598294706e-16 l 1.0,2.449293598294706e-16 l 3.0616169978683826e-16,-1.0 l -1.0,-3.6739403974420594e-16 l -1.0,-3.6739403974420594e-16 l -4.286263797015736e-16,1.0 l -4.286263797015736e-16,1.0 l 1.0,4.898587196589413e-16 l 1.0,4.898587196589413e-16 l -4.286263797015736e-16,1.0 l 1.0,4.898587196589413e-16 l 1.0,4.898587196589413e-16 l -4.286263797015736e-16,1.0 l -1.0,-3.6739403974420594e-16 l -1.0,-3.6739403974420594e-16 l 3.0616169978683826e-16,-1.0 l 3.0616169978683826e-16,-1.0 l 1.0,2.449293598294706e-16 l 1.0,2.449293598294706e-16 l 1.0,2.449293598294706e-16 l 1.0,2.449293598294706e-16 l 3.0616169978683826e-16,-1.0 l 1.0,2.449293598294706e-16 l 1.0,2.449293598294706e-16 l 3.0616169978683826e-16,-1.0 l -1.0,-3.6739403974420594e-16 l -1.0,-3.6739403974420594e-16 l -4.286263797015736e-16,1.0 l -4.286263797015736e-16,1.0 l 1.0,4.898587196589413e-16 l 1.0,4.898587196589413e-16 l -4.286263797015736e-16,1.0 l 1.0,4.898587196589413e-16 l 1.0,4.898587196589413e-16 l -4.286263797015736e-16,1.0 l -1.0,-3.6739403974420594e-16 l -1.0,-3.6739403974420594e-16 l 3.0616169978683826e-16,-1.0 l 3.0616169978683826e-16,-1.0 l 1.0,2.449293598294706e-16 l 1.0,2.449293598294706e-16 l 1.0,2.449293598294706e-16 l 3.0616169978683826e-16,-1.0 l -1.0,-3.6739403974420594e-16 l 3.0616169978683826e-16,-1.0 l 3.0616169978683826e-16,-1.0 l -1.0,-3.6739403974420594e-16 l -4.286263797015736e-16,1.0 l -4.286263797015736e-16,1.0 l 1.0,4.898587196589413e-16 l 1.0,4.898587196589413e-16 l 5.51091059616309e-16,-1.0 l 5.51091059616309e-16,-1.0 l 1.0,4.898587196589413e-16 l 5.51091059616309e-16,-1.0 l 5.51091059616309e-16,-1.0 l 1.0,4.898587196589413e-16 l -4.286263797015736e-16,1.0 l -4.286263797015736e-16,1.0 l -1.0,-3.6739403974420594e-16 l -1.0,-3.6739403974420594e-16 l 3.0616169978683826e-16,-1.0 l 3.0616169978683826e-16,-1.0 l 3.0616169978683826e-16,-1.0 l -1.0,-3.6739403974420594e-16 l -4.286263797015736e-16,1.0 l -1.0,-3.6739403974420594e-16 l -1.0,-3.6739403974420594e-16 l -4.286263797015736e-16,1.0 l 1.0,4.898587196589413e-16 l 1.0,4.898587196589413e-16 l 5.51091059616309e-16,-1.0 l 5.51091059616309e-16,-1.0 l -1.0,-6.123233995736766e-16 l -1.0,-6.123233995736766e-16 l 5.51091059616309e-16,-1.0 l -1.0,-6.123233995736766e-16 l -1.0,-6.123233995736766e-16 l 5.51091059616309e-16,-1.0 l 1.0,4.898587196589413e-16 l 1.0,4.898587196589413e-16 l -4.286263797015736e-16,1.0 l -4.286263797015736e-16,1.0 l -1.0,-3.6739403974420594e-16 l -1.0,-3.6739403974420594e-16 l -1.0,-3.6739403974420594e-16 l -1.0,-3.6739403974420594e-16 l -4.286263797015736e-16,1.0 l -1.0,-3.6739403974420594e-16 l -1.0,-3.6739403974420594e-16 l -4.286263797015736e-16,1.0 l 1.0,4.898587196589413e-16 l 1.0,4.898587196589413e-16 l 5.51091059616309e-16,-1.0 l 5.51091059616309e-16,-1.0 l -1.0,-6.123233995736766e-16 l -1.0,-6.123233995736766e-16 l 5.51091059616309e-16,-1.0 l -1.0,-6.123233995736766e-16 l -1.0,-6.123233995736766e-16 l 5.51091059616309e-16,-1.0 l 1.0,4.898587196589413e-16 l 1.0,4.898587196589413e-16 l -4.286263797015736e-16,1.0 l -4.286263797015736e-16,1.0 l -1.0,-3.6739403974420594e-16 l -1.0,-3.6739403974420594e-16 l -1.0,-3.6739403974420594e-16 l -4.286263797015736e-16,1.0 l 1.0,4.898587196589413e-16 l -4.286263797015736e-16,1.0 l -4.286263797015736e-16,1.0 l 1.0,4.898587196589413e-16 l 5.51091059616309e-16,-1.0 l 5.51091059616309e-16,-1.0 l -1.0,-6.123233995736766e-16 l -1.0,-6.123233995736766e-16 l -6.735557395310443e-16,1.0 l -6.735557395310443e-16,1.0 l -1.0,-6.123233995736766e-16 l -6.735557395310443e-16,1.0 l -6.735557395310443e-16,1.0 l -1.0,-6.123233995736766e-16 l 5.51091059616309e-16,-1.0 l 5.51091059616309e-16,-1.0 l 1.0,4.898587196589413e-16 l 1.0,4.898587196589413e-16 l -4.286263797015736e-16,1.0 l -4.286263797015736e-16,1.0 l -4.286263797015736e-16,1.0 l -4.286263797015736e-16,1.0 l 1.0,4.898587196589413e-16 l 5.51091059616309e-16,-1.0 l 1.0,4.898587196589413e-16 l 1.0,4.898587196589413e-16 l 5.51091059616309e-16,-1.0 l -1.0,-6.123233995736766e-16 l -1.0,-6.123233995736766e-16 l -6.735557395310443e-16,1.0 l -6.735557395310443e-16,1.0 l 1.0,7.34788079488412e-16 l 1.0,7.34788079488412e-16 l -6.735557395310443e-16,1.0 l 1.0,7.34788079488412e-16 l 1.0,7.34788079488412e-16 l -6.735557395310443e-16,1.0 l -1.0,-6.123233995736766e-16 l -1.0,-6.123233995736766e-16 l 5.51091059616309e-16,-1.0 l 5.51091059616309e-16,-1.0 l 1.0,4.898587196589413e-16 l 1.0,4.898587196589413e-16 l 1.0,4.898587196589413e-16 l 1.0,4.898587196589413e-16 l 5.51091059616309e-16,-1.0 l 1.0,4.898587196589413e-16 l 1.0,4.898587196589413e-16 l 5.51091059616309e-16,-1.0 l -1.0,-6.123233995736766e-16 l -1.0,-6.123233995736766e-16 l -6.735557395310443e-16,1.0 l -6.735557395310443e-16,1.0 l 1.0,7.34788079488412e-16 l 1.0,7.34788079488412e-16 l -6.735557395310443e-16,1.0 l 1.0,7.34788079488412e-16 l 1.0,7.34788079488412e-16 l -6.735557395310443e-16,1.0 l -1.0,-6.123233995736766e-16 l -1.0,-6.123233995736766e-16 l 5.51091059616309e-16,-1.0 l 5.51091059616309e-16,-1.0 l 1.0,4.898587196589413e-16 l 1.0,4.898587196589413e-16 l 1.0,4.898587196589413e-16 l -4.286263797015736e-16,1.0 l 1.0,4.898587196589413e-16 l 5.51091059616309e-16,-1.0 l 1.0,4.898587196589413e-16 l 1.0,4.898587196589413e-16 l 5.51091059616309e-16,-1.0 l -1.0,-6.123233995736766e-16 l -1.0,-6.123233995736766e-16 l -6.735557395310443e-16,1.0 l -6.735557395310443e-16,1.0 l 1.0,7.34788079488412e-16 l 1.0,7.34788079488412e-16 l -6.735557395310443e-16,1.0 l 1.0,7.34788079488412e-16 l 1.0,7.34788079488412e-16 l -6.735557395310443e-16,1.0 l -1.0,-6.123233995736766e-16 l -1.0,-6.123233995736766e-16 l 5.51091059616309e-16,-1.0 l 5.51091059616309e-16,-1.0 l 1.0,4.898587196589413e-16 l 1.0,4.898587196589413e-16 l 1.0,4.898587196589413e-16 l 1.0,4.898587196589413e-16 l 5.51091059616309e-16,-1.0 l 1.0,4.898587196589413e-16 l 1.0,4.898587196589413e-16 l 5.51091059616309e-16,-1.0 l -1.0,-6.123233995736766e-16 l -1.0,-6.123233995736766e-16 l -6.735557395310443e-16,1.0 l -6.735557395310443e-16,1.0 l 1.0,7.34788079488412e-16 l 1.0,7.34788079488412e-16 l -6.735557395310443e-16,1.0 l 1.0,7.34788079488412e-16 l 1.0,7.34788079488412e-16 l -6.735557395310443e-16,1.0 l -1.0,-6.123233995736766e-16 l -1.0,-6.123233995736766e-16 l 5.51091059616309e-16,-1.0 l 5.51091059616309e-16,-1.0 l 1.0,4.898587196589413e-16 l 1.0,4.898587196589413e-16 l 1.0,4.898587196589413e-16 l -4.286263797015736e-16,1.0 l 1.0,4.898587196589413e-16 l -4.286263797015736e-16,1.0 l -4.286263797015736e-16,1.0 l 1.0,4.898587196589413e-16 l 5.51091059616309e-16,-1.0 l 5.51091059616309e-16,-1.0 l -1.0,-6.123233995736766e-16 l -1.0,-6.123233995736766e-16 l -6.735557395310443e-16,1.0 l -6.735557395310443e-16,1.0 l -1.0,-6.123233995736766e-16 l -6.735557395310443e-16,1.0 l -6.735557395310443e-16,1.0 l -1.0,-6.123233995736766e-16 l 5.51091059616309e-16,-1.0 l 5.51091059616309e-16,-1.0 l 1.0,4.898587196589413e-16 l 1.0,4.898587196589413e-16 l -4.286263797015736e-16,1.0 l -4.286263797015736e-16,1.0 l -4.286263797015736e-16,1.0 l -1.0,-3.6739403974420594e-16 l -4.286263797015736e-16,1.0 l -1.0,-3.6739403974420594e-16 l -1.0,-3.6739403974420594e-16 l -4.286263797015736e-16,1.0 l 1.0,4.898587196589413e-16 l 1.0,4.898587196589413e-16 l 5.51091059616309e-16,-1.0 l 5.51091059616309e-16,-1.0 l -1.0,-6.123233995736766e-16 l -1.0,-6.123233995736766e-16 l 5.51091059616309e-16,-1.0 l -1.0,-6.123233995736766e-16 l -1.0,-6.123233995736766e-16 l 5.51091059616309e-16,-1.0 l 1.0,4.898587196589413e-16 l 1.0,4.898587196589413e-16 l -4.286263797015736e-16,1.0 l -4.286263797015736e-16,1.0 l -1.0,-3.6739403974420594e-16 l -1.0,-3.6739403974420594e-16 l -1.0,-3.6739403974420594e-16 l -1.0,-3.6739403974420594e-16 l -4.286263797015736e-16,1.0 l -1.0,-3.6739403974420594e-16 l -1.0,-3.6739403974420594e-16 l -4.286263797015736e-16,1.0 l 1.0,4.898587196589413e-16 l 1.0,4.898587196589413e-16 l 5.51091059616309e-16,-1.0 l 5.51091059616309e-16,-1.0 l -1.0,-6.123233995736766e-16 l -1.0,-6.123233995736766e-16 l 5.51091059616309e-16,-1.0 l -1.0,-6.123233995736766e-16 l -1.0,-6.123233995736766e-16 l 5.51091059616309e-16,-1.0 l 1.0,4.898587196589413e-16 l 1.0,4.898587196589413e-16 l -4.286263797015736e-16,1.0 l -4.286263797015736e-16,1.0 l -1.0,-3.6739403974420594e-16 l -1.0,-3.6739403974420594e-16 l -1.0,-3.6739403974420594e-16 l 3.0616169978683826e-16,-1.0 l -1.0,-3.6739403974420594e-16 l 3.0616169978683826e-16,-1.0 l 3.0616169978683826e-16,-1.0 l -1.0,-3.6739403974420594e-16 l -4.286263797015736e-16,1.0 l -4.286263797015736e-16,1.0 l 1.0,4.898587196589413e-16 l 1.0,4.898587196589413e-16 l 5.51091059616309e-16,-1.0 l 5.51091059616309e-16,-1.0 l 1.0,4.898587196589413e-16 l 5.51091059616309e-16,-1.0 l 5.51091059616309e-16,-1.0 l 1.0,4.898587196589413e-16 l -4.286263797015736e-16,1.0 l -4.286263797015736e-16,1.0 l -1.0,-3.6739403974420594e-16 l -1.0,-3.6739403974420594e-16 l 3.0616169978683826e-16,-1.0 l 3.0616169978683826e-16,-1.0 l 3.0616169978683826e-16,-1.0 l 3.0616169978683826e-16,-1.0 l 1.0,2.449293598294706e-16 l 3.0616169978683826e-16,-1.0 l 1.0,2.449293598294706e-16 l 1.0,2.449293598294706e-16 l 3.0616169978683826e-16,-1.0 l -1.0,-3.6739403974420594e-16 l -1.0,-3.6739403974420594e-16 l -4.286263797015736e-16,1.0 l -4.286263797015736e-16,1.0 l 1.0,4.898587196589413e-16 l 1.0,4.898587196589413e-16 l -4.286263797015736e-16,1.0 l 1.0,4.898587196589413e-16 l 1.0,4.898587196589413e-16 l -4.286263797015736e-16,1.0 l -1.0,-3.6739403974420594e-16 l -1.0,-3.6739403974420594e-16 l 3.0616169978683826e-16,-1.0 l 3.0616169978683826e-16,-1.0 l 1.0,2.449293598294706e-16 l 1.0,2.449293598294706e-16 l 1.0,2.449293598294706e-16 l 1.0,2.449293598294706e-16 l 3.0616169978683826e-16,-1.0 l 1.0,2.449293598294706e-16 l 1.0,2.449293598294706e-16 l 3.0616169978683826e-16,-1.0 l -1.0,-3.6739403974420594e-16 l -1.0,-3.6739403974420594e-16 l -4.286263797015736e-16,1.0 l -4.286263797015736e-16,1.0 l 1.0,4.898587196589413e-16 l 1.0,4.898587196589413e-16 l -4.286263797015736e-16,1.0 l 1.0,4.898587196589413e-16 l 1.0,4.898587196589413e-16 l -4.286263797015736e-16,1.0 l -1.0,-3.6739403974420594e-16 l -1.0,-3.6739403974420594e-16 l 3.0616169978683826e-16,-1.0 l 3.0616169978683826e-16,-1.0 l 1.0,2.449293598294706e-16 l 1.0,2.449293598294706e-16 l 1.0,2.449293598294706e-16 l 1.0,2.449293598294706e-16 l 3.0616169978683826e-16,-1.0 l 1.0,2.449293598294706e-16 l 1.0,2.449293598294706e-16 l 3.0616169978683826e-16,-1.0 l -1.0,-3.6739403974420594e-16 l -1.0,-3.6739403974420594e-16 l -4.286263797015736e-16,1.0 l -4.286263797015736e-16,1.0 l 1.0,4.898587196589413e-16 l 1.0,4.898587196589413e-16 l -4.286263797015736e-16,1.0 l 1.0,4.898587196589413e-16 l 1.0,4.898587196589413e-16 l -4.286263797015736e-16,1.0 l -1.0,-3.6739403974420594e-16 l -1.0,-3.6739403974420594e-16 l 3.0616169978683826e-16,-1.0 l 3.0616169978683826e-16,-1.0 l 1.0,2.449293598294706e-16 l 1.0,2.449293598294706e-16 l 1.0,2.449293598294706e-16 " style="stroke-linecap:square;stroke:#50514F;stroke-width:0.2px;fill:none" /></g></svg>