<?xml version="1.0" encoding="UTF-8"?>
<!DOCTYPE svg PUBLIC "-//W3C//DTD SVG 1.1//EN"
    "http://www.w3.org/Graphics/SVG/1.1/DTD/svg11.dtd">
<svg xmlns="http://www.w3.org/2000/svg" xmlns:xlink="http://www.w3.org/1999/xlink" version="1.1" width="499.9999999968151" height="500" viewBox="-9.699999999964959 -34.70000000003905 44.39999999996068 44.400000000243494"><g><rect x="-9.699999999964959" y="-34.70000000003905" width="44.39999999996068" height="44.400000000243494" fill="#CBD4C2" /></g><g><path d="M 0,0 l 1.0,0.0 l 6.123233995736766e-17,-1.0 l 1.0,0.0 l 6.123233995736766e-17,-1.0 l -1.0,-1.2246467991473532e-16 l -1.8369701987210297e-16,1.0 l 1.0,2.4492935982947064e-16 l -1.8369701987210297e-16,1.0 l 1.0,2.4492935982947064e-16 l 3.061616997868383e-16,-1.0 l 1.0,2.4492935982947064e-16 l 3.061616997868383e-16,-1.0 l 1.0,2.4492935982947064e-16 l 3.061616997868383e-16,-1.0 l -1.0,-3.6739403974420594e-16 l -4.286263797015736e-16,1.0 l 1.0,4.898587196589413e-16 l -4.286263797015736e-16,1.0 l 1.0,4.898587196589413e-16 l 5.51091059616309e-16,-1.0 l -1.0,-6.123233995736766e-16 l -2.4499125789312946e-15,1.0 l -1.0,-2.388680238973927e-15 l -2.4499125789312946e-15,1.0 l 1.0,7.347880794884119e-16 l -9.803364199544708e-16,-1.0 l -1.0,2.6954609193973537e-15 l -9.803364199544708e-16,-1.0 l -1.0,2.6954609193973537e-15 l 4.410585418840236e-15,1.0 l 1.0,-6.125709918283119e-15 l -7.840834417726002e-15,-1.0 l 1.0,-6.125709918283119e-15 l -7.840834417726002e-15,-1.0 l -1.0,9.555958917168885e-15 l -7.840834417726002e-15,-1.0 l -1.0,9.555958917168885e-15 l -7.840834417726002e-15,-1.0 l -1.0,9.555958917168885e-15 l 1.1271083416611768e-14,1.0 l 1.0,-1.298620791605465e-14 l -1.4701332415497532e-14,-1.0 l 1.0,-1.298620791605465e-14 l -1.4701332415497532e-14,-1.0 l -1.0,1.6416456914940415e-14 l 1.8131581414383298e-14,1.0 l 1.0,-1.984670591382618e-14 l 1.8131581414383298e-14,1.0 l 1.0,-1.984670591382618e-14 l -2.1561830413269064e-14,-1.0 l 1.0,-1.984670591382618e-14 l -2.1561830413269064e-14,-1.0 l 1.0,-1.984670591382618e-14 l -2.1561830413269064e-14,-1.0 l -1.0,2.3276954912711946e-14 l 2.499207941215483e-14,1.0 l 1.0,-2.6707203911597712e-14 l 2.499207941215483e-14,1.0 l 1.0,-2.6707203911597712e-14 l -2.84223284110406e-14,-1.0 l 1.0,-2.6707203911597712e-14 l -2.84223284110406e-14,-1.0 l 1.0,-2.6707203911597712e-14 l -2.84223284110406e-14,-1.0 l -1.0,3.013745291048348e-14 l 3.1852577409926364e-14,1.0 l 1.0,-3.356770190936925e-14 l 3.1852577409926364e-14,1.0 l 1.0,-3.356770190936925e-14 l -3.528282640881213e-14,-1.0 l -1.0,3.699795090825501e-14 l 3.8713075407697896e-14,1.0 l -1.0,3.699795090825501e-14 l 3.8713075407697896e-14,1.0 l 1.0,-4.042819990714078e-14 l -4.214332440658366e-14,-1.0 l -1.0,4.385844890602654e-14 l -4.214332440658366e-14,-1.0 l -1.0,4.385844890602654e-14 l 4.557357340546942e-14,1.0 l 1.0,-4.7288697904912304e-14 l -4.9003822404355187e-14,-1.0 l 1.0,-4.7288697904912304e-14 l -4.9003822404355187e-14,-1.0 l -1.0,4.361351954619707e-14 l -4.9003822404355187e-14,-1.0 l -1.0,4.361351954619707e-14 l -4.9003822404355187e-14,-1.0 l -1.0,4.361351954619707e-14 l 3.822321668803895e-14,1.0 l 1.0,-3.283291382988083e-14 l -2.7442610971722714e-14,-1.0 l 1.0,-3.283291382988083e-14 l -2.7442610971722714e-14,-1.0 l -1.0,2.2052308113564595e-14 l 1.6662005255406476e-14,1.0 l 1.0,-1.1271702397248355e-14 l 1.6662005255406476e-14,1.0 l 1.0,-1.1271702397248355e-14 l -5.881399539090237e-15,-1.0 l -1.0,4.91096680932118e-16 l -4.899206177226001e-15,1.0 l -1.0,4.91096680932118e-16 l -4.899206177226001e-15,1.0 l 1.0,1.028950903538412e-14 l 1.5679811893542238e-14,-1.0 l -1.0,-2.1070114751700357e-14 l 1.5679811893542238e-14,-1.0 l -1.0,-2.1070114751700357e-14 l -2.6460417609858476e-14,1.0 l -1.0,-2.1070114751700357e-14 l -2.6460417609858476e-14,1.0 l -1.0,-2.1070114751700357e-14 l -2.6460417609858476e-14,1.0 l 1.0,3.18507204680166e-14 l 3.724102332617472e-14,-1.0 l -1.0,-4.2631326184332836e-14 l 3.724102332617472e-14,-1.0 l -1.0,-4.2631326184332836e-14 l -4.8021629042490955e-14,1.0 l 1.0,5.3411931900649074e-14 l 5.880223475880719e-14,-1.0 l 1.0,5.3411931900649074e-14 l 5.880223475880719e-14,-1.0 l -1.0,-6.41925376169653e-14 l -6.958284047512342e-14,1.0 l 1.0,7.497314333328154e-14 l -6.958284047512342e-14,1.0 l 1.0,7.497314333328154e-14 l 8.036344619143966e-14,-1.0 l -1.0,-8.575374904959778e-14 l -9.11440519077559e-14,1.0 l -1.0,-8.575374904959778e-14 l -9.11440519077559e-14,1.0 l 1.0,9.653435476591402e-14 l -9.11440519077559e-14,1.0 l 1.0,9.653435476591402e-14 l -9.11440519077559e-14,1.0 l 1.0,9.653435476591402e-14 l 1.0192465762407214e-13,-1.0 l -1.0,-1.0731496048223026e-13 l -1.1270526334038838e-13,1.0 l -1.0,-1.0731496048223026e-13 l -1.1270526334038838e-13,1.0 l 1.0,1.180955661985465e-13 l 1.2348586905670463e-13,-1.0 l -1.0,-1.2887617191486273e-13 l 1.2348586905670463e-13,-1.0 l -1.0,-1.2887617191486273e-13 l -1.3426647477302086e-13,1.0 l 1.0,1.3965677763117897e-13 l 1.450470804893371e-13,-1.0 l 1.0,1.3965677763117897e-13 l 1.450470804893371e-13,-1.0 l -1.0,-1.504373833474952e-13 l -1.5582768620565334e-13,1.0 l 1.0,1.6121798906381145e-13 l -1.5582768620565334e-13,1.0 l 1.0,1.6121798906381145e-13 l 1.6660829192196958e-13,-1.0 l 1.0,1.6121798906381145e-13 l 1.6660829192196958e-13,-1.0 l 1.0,1.6121798906381145e-13 l 1.6660829192196958e-13,-1.0 l -1.0,-1.5778774006492568e-13 l -1.6317804292308381e-13,1.0 l 1.0,1.6856834578124192e-13 l -1.6317804292308381e-13,1.0 l 1.0,1.6856834578124192e-13 l 1.7395864863940005e-13,-1.0 l -1.0,-1.7934895149755816e-13 l -1.847392543557163e-13,1.0 l -1.0,-1.7934895149755816e-13 l -1.847392543557163e-13,1.0 l 1.0,1.901295572138744e-13 l -1.847392543557163e-13,1.0 l 1.0,1.901295572138744e-13 l -1.847392543557163e-13,1.0 l 1.0,1.901295572138744e-13 l 1.9551986007203253e-13,-1.0 l -1.0,-2.0091016293019063e-13 l -2.0630046578834876e-13,1.0 l -1.0,-2.0091016293019063e-13 l -2.0630046578834876e-13,1.0 l 1.0,2.1169076864650687e-13 l -2.0630046578834876e-13,1.0 l 1.0,2.1169076864650687e-13 l -2.0630046578834876e-13,1.0 l 1.0,2.1169076864650687e-13 l 2.17081071504665e-13,-1.0 l -1.0,-2.224713743628231e-13 l -2.278616772209812e-13,1.0 l -1.0,-2.224713743628231e-13 l -2.278616772209812e-13,1.0 l 1.0,2.3325198007913935e-13 l 2.386422829372975e-13,-1.0 l -1.0,-2.440325857954556e-13 l 2.386422829372975e-13,-1.0 l -1.0,-2.440325857954556e-13 l -2.494228886536137e-13,1.0 l 1.0,2.548131915117718e-13 l 2.6020349436992995e-13,-1.0 l 1.0,2.548131915117718e-13 l 2.6020349436992995e-13,-1.0 l -1.0,-2.655937972280881e-13 l -2.7098410008624617e-13,1.0 l 1.0,2.763744029444043e-13 l -2.7098410008624617e-13,1.0 l 1.0,2.763744029444043e-13 l 2.8176470580256243e-13,-1.0 l 1.0,2.763744029444043e-13 l 2.8176470580256243e-13,-1.0 l 1.0,2.763744029444043e-13 l 2.8176470580256243e-13,-1.0 l -1.0,-2.8715500866072056e-13 l -2.9254531151887864e-13,1.0 l 1.0,2.9793561437703677e-13 l -2.9254531151887864e-13,1.0 l 1.0,2.9793561437703677e-13 l 3.033259172351949e-13,-1.0 l -1.0,-3.0871622009335304e-13 l -3.141065229515111e-13,1.0 l -1.0,-3.0871622009335304e-13 l -3.141065229515111e-13,1.0 l 1.0,3.1949682580966925e-13 l 3.248871286678274e-13,-1.0 l -1.0,-3.302774315259855e-13 l 3.248871286678274e-13,-1.0 l -1.0,-3.302774315259855e-13 l -3.356677343841436e-13,1.0 l 1.0,3.4105803724230173e-13 l 3.4644834010045986e-13,-1.0 l 1.0,3.4105803724230173e-13 l 3.4644834010045986e-13,-1.0 l -1.0,-3.51838642958618e-13 l 3.4644834010045986e-13,-1.0 l -1.0,-3.51838642958618e-13 l 3.4644834010045986e-13,-1.0 l -1.0,-3.51838642958618e-13 l -3.5722894581677607e-13,1.0 l 1.0,3.626192486749342e-13 l 3.6800955153309233e-13,-1.0 l 1.0,3.626192486749342e-13 l 3.6800955153309233e-13,-1.0 l -1.0,-3.7339985439125047e-13 l -3.7879015724940855e-13,1.0 l 1.0,3.841804601075667e-13 l -3.7879015724940855e-13,1.0 l 1.0,3.841804601075667e-13 l 3.895707629657248e-13,-1.0 l 1.0,3.841804601075667e-13 l 3.895707629657248e-13,-1.0 l 1.0,3.841804601075667e-13 l 3.895707629657248e-13,-1.0 l -1.0,-3.9496106582388294e-13 l -4.00351368682041e-13,1.0 l 1.0,4.0574167154019915e-13 l -4.00351368682041e-13,1.0 l 1.0,4.0574167154019915e-13 l 4.111319743983573e-13,-1.0 l 1.0,4.0574167154019915e-13 l 4.111319743983573e-13,-1.0 l 1.0,4.0574167154019915e-13 l 4.111319743983573e-13,-1.0 l -1.0,-4.165222772565154e-13 l -4.219125801146735e-13,1.0 l 1.0,4.2730288297283163e-13 l -4.219125801146735e-13,1.0 l 1.0,4.2730288297283163e-13 l 4.3269318583098976e-13,-1.0 l -1.0,-4.380834886891479e-13 l -4.4347379154730597e-13,1.0 l -1.0,-4.380834886891479e-13 l -4.4347379154730597e-13,1.0 l 1.0,4.488640944054641e-13 l 4.5425439726362224e-13,-1.0 l -1.0,-4.596447001217804e-13 l 4.5425439726362224e-13,-1.0 l -1.0,-4.596447001217804e-13 l -4.650350029799385e-13,1.0 l 1.0,4.704253058380966e-13 l 4.758156086962547e-13,-1.0 l 1.0,4.704253058380966e-13 l 4.758156086962547e-13,-1.0 l -1.0,-4.812059115544128e-13 l 4.758156086962547e-13,-1.0 l -1.0,-4.812059115544128e-13 l 4.758156086962547e-13,-1.0 l -1.0,-4.812059115544128e-13 l -4.865962144125709e-13,1.0 l 1.0,4.919865172707291e-13 l 4.973768201288872e-13,-1.0 l 1.0,4.919865172707291e-13 l 4.973768201288872e-13,-1.0 l -1.0,-5.027671229870453e-13 l -5.081574258452035e-13,1.0 l 1.0,5.135477287033616e-13 l -5.081574258452035e-13,1.0 l 1.0,5.135477287033616e-13 l 5.189380315615197e-13,-1.0 l 1.0,5.135477287033616e-13 l 5.189380315615197e-13,-1.0 l 1.0,5.135477287033616e-13 l 5.189380315615197e-13,-1.0 l -1.0,-5.243283344196777e-13 l -5.297186372778359e-13,1.0 l 1.0,5.35108940135994e-13 l -5.297186372778359e-13,1.0 l 1.0,5.35108940135994e-13 l 5.404992429941521e-13,-1.0 l 1.0,5.35108940135994e-13 l 5.404992429941521e-13,-1.0 l 1.0,5.35108940135994e-13 l 5.404992429941521e-13,-1.0 l -1.0,-5.458895458523103e-13 l -5.512798487104684e-13,1.0 l 1.0,5.566701515686265e-13 l -5.512798487104684e-13,1.0 l 1.0,5.566701515686265e-13 l 5.620604544267847e-13,-1.0 l -1.0,-5.674507572849427e-13 l -5.728410601431008e-13,1.0 l -1.0,-5.674507572849427e-13 l -5.728410601431008e-13,1.0 l 1.0,5.78231363001259e-13 l 5.836216658594171e-13,-1.0 l -1.0,-5.890119687175752e-13 l 5.836216658594171e-13,-1.0 l -1.0,-5.890119687175752e-13 l -5.944022715757334e-13,1.0 l 1.0,5.997925744338915e-13 l 6.051828772920496e-13,-1.0 l 1.0,5.997925744338915e-13 l 6.051828772920496e-13,-1.0 l -1.0,-6.105731801502076e-13 l 6.051828772920496e-13,-1.0 l -1.0,-6.105731801502076e-13 l 6.051828772920496e-13,-1.0 l -1.0,-6.105731801502076e-13 l -6.159634830083658e-13,1.0 l 1.0,6.213537858665239e-13 l 6.26744088724682e-13,-1.0 l 1.0,6.213537858665239e-13 l 6.26744088724682e-13,-1.0 l -1.0,-6.321343915828402e-13 l -6.375246944409983e-13,1.0 l 1.0,6.429149972991564e-13 l -6.375246944409983e-13,1.0 l 1.0,6.429149972991564e-13 l 6.483053001573146e-13,-1.0 l -1.0,-6.536956030154726e-13 l -6.590859058736307e-13,1.0 l -1.0,-6.536956030154726e-13 l -6.590859058736307e-13,1.0 l 1.0,6.644762087317889e-13 l 6.69866511589947e-13,-1.0 l -1.0,-6.752568144481051e-13 l 6.69866511589947e-13,-1.0 l -1.0,-6.752568144481051e-13 l -6.806471173062633e-13,1.0 l -1.0,-6.752568144481051e-13 l -6.806471173062633e-13,1.0 l -1.0,-6.752568144481051e-13 l -6.806471173062633e-13,1.0 l 1.0,6.860374201644214e-13 l 6.914277230225795e-13,-1.0 l -1.0,-6.968180258807376e-13 l 6.914277230225795e-13,-1.0 l -1.0,-6.968180258807376e-13 l -7.022083287388957e-13,1.0 l 1.0,7.075986315970538e-13 l 7.129889344552119e-13,-1.0 l 1.0,7.075986315970538e-13 l 7.129889344552119e-13,-1.0 l -1.0,-7.183792373133701e-13 l -7.237695401715282e-13,1.0 l 1.0,7.291598430296863e-13 l -7.237695401715282e-13,1.0 l 1.0,7.291598430296863e-13 l 7.345501458878445e-13,-1.0 l -1.0,-7.399404487460025e-13 l -7.453307516041606e-13,1.0 l -1.0,-7.399404487460025e-13 l -7.453307516041606e-13,1.0 l 1.0,7.507210544623188e-13 l -7.453307516041606e-13,1.0 l 1.0,7.507210544623188e-13 l -7.453307516041606e-13,1.0 l 1.0,7.507210544623188e-13 l 7.561113573204769e-13,-1.0 l -1.0,-7.61501660178635e-13 l -7.668919630367932e-13,1.0 l -1.0,-7.61501660178635e-13 l -7.668919630367932e-13,1.0 l 1.0,7.722822658949513e-13 l 7.776725687531094e-13,-1.0 l -1.0,-7.830628716112675e-13 l 7.776725687531094e-13,-1.0 l -1.0,-7.830628716112675e-13 l -7.884531744694256e-13,1.0 l 1.0,7.938434773275837e-13 l 7.992337801857419e-13,-1.0 l 1.0,7.938434773275837e-13 l 7.992337801857419e-13,-1.0 l -1.0,-8.046240830439e-13 l -8.100143859020581e-13,1.0 l 1.0,8.154046887602162e-13 l -8.100143859020581e-13,1.0 l 1.0,8.154046887602162e-13 l 8.207949916183744e-13,-1.0 l 1.0,8.154046887602162e-13 l 8.207949916183744e-13,-1.0 l 1.0,8.154046887602162e-13 l 8.207949916183744e-13,-1.0 l -1.0,-8.261852944765324e-13 l -8.315755973346905e-13,1.0 l 1.0,8.369659001928487e-13 l -8.315755973346905e-13,1.0 l 1.0,8.369659001928487e-13 l 8.423562030510068e-13,-1.0 l -1.0,-8.477465059091649e-13 l -8.531368087673231e-13,1.0 l -1.0,-8.477465059091649e-13 l -8.531368087673231e-13,1.0 l 1.0,8.585271116254812e-13 l -8.531368087673231e-13,1.0 l 1.0,8.585271116254812e-13 l -8.531368087673231e-13,1.0 l 1.0,8.585271116254812e-13 l 8.639174144836393e-13,-1.0 l -1.0,-8.693077173417974e-13 l -8.746980201999555e-13,1.0 l -1.0,-8.693077173417974e-13 l -8.746980201999555e-13,1.0 l 1.0,8.800883230581136e-13 l -8.746980201999555e-13,1.0 l 1.0,8.800883230581136e-13 l -8.746980201999555e-13,1.0 l 1.0,8.800883230581136e-13 l 8.854786259162718e-13,-1.0 l -1.0,-8.908689287744299e-13 l -8.96259231632588e-13,1.0 l -1.0,-8.908689287744299e-13 l -8.96259231632588e-13,1.0 l 1.0,9.016495344907461e-13 l 9.070398373489043e-13,-1.0 l -1.0,-9.124301402070623e-13 l 9.070398373489043e-13,-1.0 l -1.0,-9.124301402070623e-13 l -9.178204430652205e-13,1.0 l 1.0,9.232107459233786e-13 l 9.286010487815368e-13,-1.0 l 1.0,9.232107459233786e-13 l 9.286010487815368e-13,-1.0 l -1.0,-9.339913516396948e-13 l -9.393816544978529e-13,1.0 l 1.0,9.44771957356011e-13 l -9.393816544978529e-13,1.0 l 1.0,9.44771957356011e-13 l 9.501622602141691e-13,-1.0 l 1.0,9.44771957356011e-13 l 9.501622602141691e-13,-1.0 l 1.0,9.44771957356011e-13 l 9.501622602141691e-13,-1.0 l -1.0,-9.555525630723274e-13 l -9.609428659304854e-13,1.0 l 1.0,9.663331687886436e-13 l -9.609428659304854e-13,1.0 l 1.0,9.663331687886436e-13 l 9.717234716468017e-13,-1.0 l -1.0,-9.771137745049597e-13 l -9.82504077363118e-13,1.0 l -1.0,-9.771137745049597e-13 l -9.82504077363118e-13,1.0 l 1.0,9.87894380221276e-13 l 9.932846830794342e-13,-1.0 l -1.0,-9.986749859375922e-13 l 9.932846830794342e-13,-1.0 l -1.0,-9.986749859375922e-13 l -1.0040652887957504e-12,1.0 l 1.0,1.0094555916539085e-12 l 1.0148458945120667e-12,-1.0 l 1.0,1.0094555916539085e-12 l 1.0148458945120667e-12,-1.0 l -1.0,-1.0202361973702247e-12 l 1.0148458945120667e-12,-1.0 l -1.0,-1.0202361973702247e-12 l 1.0148458945120667e-12,-1.0 l -1.0,-1.0202361973702247e-12 l -1.0256265002283828e-12,1.0 l 1.0,1.031016803086541e-12 l 1.036407105944699e-12,-1.0 l 1.0,1.031016803086541e-12 l 1.036407105944699e-12,-1.0 l -1.0,-1.0417974088028573e-12 l -1.0471877116610153e-12,1.0 l 1.0,1.0525780145191735e-12 l -1.0471877116610153e-12,1.0 l 1.0,1.0525780145191735e-12 l 1.0579683173773316e-12,-1.0 l -1.0,-1.0633586202354896e-12 l -1.0687489230936478e-12,1.0 l -1.0,-1.0633586202354896e-12 l -1.0687489230936478e-12,1.0 l 1.0,1.0741392259518059e-12 l 1.079529528809964e-12,-1.0 l -1.0,-1.0849198316681221e-12 l 1.079529528809964e-12,-1.0 l -1.0,-1.0849198316681221e-12 l -1.0903101345262804e-12,1.0 l -1.0,-1.0849198316681221e-12 l -1.0903101345262804e-12,1.0 l -1.0,-1.0849198316681221e-12 l -1.0903101345262804e-12,1.0 l 1.0,1.0957004373844384e-12 l 1.1010907402425966e-12,-1.0 l -1.0,-1.1064810431007546e-12 l 1.1010907402425966e-12,-1.0 l -1.0,-1.1064810431007546e-12 l -1.1118713459589127e-12,1.0 l 1.0,1.117261648817071e-12 l 1.122651951675229e-12,-1.0 l 1.0,1.117261648817071e-12 l 1.122651951675229e-12,-1.0 l -1.0,-1.1280422545333872e-12 l -1.1334325573915452e-12,1.0 l 1.0,1.1388228602497034e-12 l -1.1334325573915452e-12,1.0 l 1.0,1.1388228602497034e-12 l 1.1442131631078615e-12,-1.0 l -1.0,-1.1496034659660195e-12 l -1.1549937688241777e-12,1.0 l -1.0,-1.1496034659660195e-12 l -1.1549937688241777e-12,1.0 l 1.0,1.1603840716823358e-12 l -1.1549937688241777e-12,1.0 l 1.0,1.1603840716823358e-12 l -1.1549937688241777e-12,1.0 l 1.0,1.1603840716823358e-12 l 1.165774374540494e-12,-1.0 l -1.0,-1.171164677398652e-12 l -1.1765549802568103e-12,1.0 l -1.0,-1.171164677398652e-12 l -1.1765549802568103e-12,1.0 l 1.0,1.1819452831149683e-12 l 1.1873355859731265e-12,-1.0 l -1.0,-1.1927258888312845e-12 l 1.1873355859731265e-12,-1.0 l -1.0,-1.1927258888312845e-12 l -1.1981161916894426e-12,1.0 l -1.0,-1.1927258888312845e-12 l -1.1981161916894426e-12,1.0 l -1.0,-1.1927258888312845e-12 l -1.1981161916894426e-12,1.0 l 1.0,1.2035064945476008e-12 l 1.2088967974057588e-12,-1.0 l -1.0,-1.214287100263917e-12 l 1.2088967974057588e-12,-1.0 l -1.0,-1.214287100263917e-12 l -1.2196774031220751e-12,1.0 l -1.0,-1.214287100263917e-12 l -1.2196774031220751e-12,1.0 l -1.0,-1.214287100263917e-12 l -1.2196774031220751e-12,1.0 l 1.0,1.2250677059802333e-12 l 1.2304580088383914e-12,-1.0 l -1.0,-1.2358483116965494e-12 l 1.2304580088383914e-12,-1.0 l -1.0,-1.2358483116965494e-12 l -1.2412386145547076e-12,1.0 l 1.0,1.2466289174128657e-12 l 1.2520192202710239e-12,-1.0 l 1.0,1.2466289174128657e-12 l 1.2520192202710239e-12,-1.0 l -1.0,-1.257409523129182e-12 l -1.2627998259873402e-12,1.0 l 1.0,1.2681901288454982e-12 l -1.2627998259873402e-12,1.0 l 1.0,1.2681901288454982e-12 l 1.2735804317036564e-12,-1.0 l -1.0,-1.2789707345618145e-12 l -1.2843610374199725e-12,1.0 l -1.0,-1.2789707345618145e-12 l -1.2843610374199725e-12,1.0 l 1.0,1.2897513402781307e-12 l -1.2843610374199725e-12,1.0 l 1.0,1.2897513402781307e-12 l -1.2843610374199725e-12,1.0 l 1.0,1.2897513402781307e-12 l 1.2951416431362887e-12,-1.0 l -1.0,-1.300531945994447e-12 l -1.305922248852605e-12,1.0 l -1.0,-1.300531945994447e-12 l -1.305922248852605e-12,1.0 l 1.0,1.3113125517107632e-12 l 1.3167028545689213e-12,-1.0 l -1.0,-1.3220931574270795e-12 l 1.3167028545689213e-12,-1.0 l -1.0,-1.3220931574270795e-12 l -1.3274834602852375e-12,1.0 l 1.0,1.3328737631433956e-12 l 1.3382640660015538e-12,-1.0 l 1.0,1.3328737631433956e-12 l 1.3382640660015538e-12,-1.0 l -1.0,-1.3436543688597118e-12 l -1.34904467171787e-12,1.0 l 1.0,1.354434974576028e-12 l -1.34904467171787e-12,1.0 l 1.0,1.354434974576028e-12 l 1.3598252774341863e-12,-1.0 l 1.0,1.354434974576028e-12 l 1.3598252774341863e-12,-1.0 l 1.0,1.354434974576028e-12 l 1.3598252774341863e-12,-1.0 l -1.0,-1.3652155802923444e-12 l -1.3706058831505024e-12,1.0 l 1.0,1.3759961860086606e-12 l -1.3706058831505024e-12,1.0 l 1.0,1.3759961860086606e-12 l 1.3813864888668186e-12,-1.0 l -1.0,-1.3867767917249769e-12 l -1.392167094583135e-12,1.0 l -1.0,-1.3867767917249769e-12 l -1.392167094583135e-12,1.0 l 1.0,1.3975573974412931e-12 l 1.4029477002994512e-12,-1.0 l -1.0,-1.4083380031576094e-12 l 1.4029477002994512e-12,-1.0 l -1.0,-1.4083380031576094e-12 l -1.4137283060157674e-12,1.0 l 1.0,1.4191186088739255e-12 l 1.4245089117320837e-12,-1.0 l 1.0,1.4191186088739255e-12 l 1.4245089117320837e-12,-1.0 l -1.0,-1.4298992145902417e-12 l 1.4245089117320837e-12,-1.0 l -1.0,-1.4298992145902417e-12 l 1.4245089117320837e-12,-1.0 l -1.0,-1.4298992145902417e-12 l -1.4352895174484e-12,1.0 l 1.0,1.440679820306558e-12 l 1.4460701231647162e-12,-1.0 l 1.0,1.440679820306558e-12 l 1.4460701231647162e-12,-1.0 l -1.0,-1.4514604260228743e-12 l -1.4568507288810323e-12,1.0 l 1.0,1.4622410317391905e-12 l -1.4568507288810323e-12,1.0 l 1.0,1.4622410317391905e-12 l 1.4676313345973486e-12,-1.0 l -1.0,-1.4161782185946988e-12 l -1.3647251025920488e-12,1.0 l -1.0,-1.4161782185946988e-12 l -1.3647251025920488e-12,1.0 l 1.0,1.313271986589399e-12 l 1.261818870586749e-12,-1.0 l -1.0,-1.2103657545840992e-12 l 1.261818870586749e-12,-1.0 l -1.0,-1.2103657545840992e-12 l -1.1589126385814493e-12,1.0 l -1.0,-1.2103657545840992e-12 l -1.1589126385814493e-12,1.0 l -1.0,-1.2103657545840992e-12 l -1.1589126385814493e-12,1.0 l 1.0,1.1074595225787993e-12 l 1.0560064065761495e-12,-1.0 l -1.0,-1.0045532905734995e-12 l 1.0560064065761495e-12,-1.0 l -1.0,-1.0045532905734995e-12 l -9.531001745708497e-13,1.0 l 1.0,9.016470585681997e-13 l 8.501939425655499e-13,-1.0 l 1.0,9.016470585681997e-13 l 8.501939425655499e-13,-1.0 l -1.0,-7.987408265629e-13 l 8.501939425655499e-13,-1.0 l -1.0,-7.987408265629e-13 l 8.501939425655499e-13,-1.0 l -1.0,-7.987408265629e-13 l -7.472877105602501e-13,1.0 l 1.0,6.958345945576002e-13 l 6.443814785549503e-13,-1.0 l 1.0,6.958345945576002e-13 l 6.443814785549503e-13,-1.0 l -1.0,-5.929283625523004e-13 l 6.443814785549503e-13,-1.0 l -1.0,-5.929283625523004e-13 l 6.443814785549503e-13,-1.0 l -1.0,-5.929283625523004e-13 l -5.414752465496505e-13,1.0 l 1.0,4.900221305470006e-13 l 4.385690145443507e-13,-1.0 l 1.0,4.900221305470006e-13 l 4.385690145443507e-13,-1.0 l -1.0,-3.871158985417008e-13 l -3.356627825390509e-13,1.0 l 1.0,2.8420966653640104e-13 l -3.356627825390509e-13,1.0 l 1.0,2.8420966653640104e-13 l 2.327565505337511e-13,-1.0 l -1.0,-1.8130343453110122e-13 l -1.2985031852845133e-13,1.0 l -1.0,-1.8130343453110122e-13 l -1.2985031852845133e-13,1.0 l 1.0,7.839720252580143e-14 l 2.6944086523151533e-14,-1.0 l -1.0,2.450902947949836e-14 l 2.6944086523151533e-14,-1.0 l -1.0,2.450902947949836e-14 l 7.596214548214826e-14,1.0 l -1.0,2.450902947949836e-14 l 7.596214548214826e-14,1.0 l -1.0,2.450902947949836e-14 l 7.596214548214826e-14,1.0 l 1.0,-1.2741526148479816e-13 l -1.7886837748744804e-13,-1.0 l -1.0,2.3032149349009795e-13 l -1.7886837748744804e-13,-1.0 l -1.0,2.3032149349009795e-13 l 2.8177460949274783e-13,1.0 l 1.0,-3.332277254953977e-13 l -3.8468084149804765e-13,-1.0 l 1.0,-3.332277254953977e-13 l -3.8468084149804765e-13,-1.0 l -1.0,4.3613395750069753e-13 l 4.875870735033474e-13,1.0 l 1.0,-5.390401895059973e-13 l 4.875870735033474e-13,1.0 l 1.0,-5.390401895059973e-13 l -5.904933055086472e-13,-1.0 l -1.0,6.419464215112971e-13 l 6.93399537513947e-13,1.0 l -1.0,6.419464215112971e-13 l 6.93399537513947e-13,1.0 l 1.0,-7.448526535165969e-13 l 6.93399537513947e-13,1.0 l 1.0,-7.448526535165969e-13 l 6.93399537513947e-13,1.0 l 1.0,-7.448526535165969e-13 l -7.963057695192468e-13,-1.0 l -1.0,8.477588855218967e-13 l 8.992120015245466e-13,1.0 l -1.0,8.477588855218967e-13 l 8.992120015245466e-13,1.0 l 1.0,-9.506651175271965e-13 l -1.0021182335298465e-12,-1.0 l -1.0,1.0535713495324962e-12 l -1.0021182335298465e-12,-1.0 l -1.0,1.0535713495324962e-12 l 1.1050244655351462e-12,1.0 l 1.0,-1.156477581537796e-12 l -1.207930697540446e-12,-1.0 l 1.0,-1.156477581537796e-12 l -1.207930697540446e-12,-1.0 l -1.0,1.2593838135430958e-12 l 1.3108369295457458e-12,1.0 l 1.0,-1.3622900455483957e-12 l 1.3108369295457458e-12,1.0 l 1.0,-1.3622900455483957e-12 l -1.4137431615510455e-12,-1.0 l 1.0,-1.3622900455483957e-12 l -1.4137431615510455e-12,-1.0 l 1.0,-1.3622900455483957e-12 l -1.4137431615510455e-12,-1.0 l -1.0,1.4651962775536955e-12 l 1.5166493935563453e-12,1.0 l 1.0,-1.5681025095589953e-12 l 1.5166493935563453e-12,1.0 l 1.0,-1.5681025095589953e-12 l -1.619555625561645e-12,-1.0 l -1.0,1.671008741564295e-12 l 1.722461857566945e-12,1.0 l -1.0,1.671008741564295e-12 l 1.722461857566945e-12,1.0 l 1.0,-1.7739149735695948e-12 l -1.8253680895722446e-12,-1.0 l -1.0,1.8768212055748948e-12 l -1.8253680895722446e-12,-1.0 l -1.0,1.8768212055748948e-12 l 1.9282743215775446e-12,1.0 l 1.0,-1.9797274375801943e-12 l -2.031180553582844e-12,-1.0 l 1.0,-1.9797274375801943e-12 l -2.031180553582844e-12,-1.0 l -1.0,2.0826336695854943e-12 l -2.031180553582844e-12,-1.0 l -1.0,2.0826336695854943e-12 l -2.031180553582844e-12,-1.0 l -1.0,2.0826336695854943e-12 l 2.134086785588144e-12,1.0 l 1.0,-2.185539901590794e-12 l -2.236993017593444e-12,-1.0 l 1.0,-2.185539901590794e-12 l -2.236993017593444e-12,-1.0 l -1.0,2.288446133596094e-12 l 2.3398992495987436e-12,1.0 l 1.0,-2.3913523656013934e-12 l 2.3398992495987436e-12,1.0 l 1.0,-2.3913523656013934e-12 l -2.4428054816040436e-12,-1.0 l 1.0,-2.3913523656013934e-12 l -2.4428054816040436e-12,-1.0 l 1.0,-2.3913523656013934e-12 l -2.4428054816040436e-12,-1.0 l -1.0,2.4942585976066934e-12 l 2.545711713609343e-12,1.0 l 1.0,-2.5971648296119933e-12 l 2.545711713609343e-12,1.0 l 1.0,-2.5971648296119933e-12 l -2.648617945614643e-12,-1.0 l 1.0,-2.5971648296119933e-12 l -2.648617945614643e-12,-1.0 l 1.0,-2.5971648296119933e-12 l -2.648617945614643e-12,-1.0 l -1.0,2.700071061617293e-12 l 2.7515241776199427e-12,1.0 l 1.0,-2.802977293622593e-12 l 2.7515241776199427e-12,1.0 l 1.0,-2.802977293622593e-12 l -2.8544304096252427e-12,-1.0 l -1.0,2.9058835256278924e-12 l 2.9573366416305426e-12,1.0 l -1.0,2.9058835256278924e-12 l 2.9573366416305426e-12,1.0 l 1.0,-3.0087897576331924e-12 l -3.060242873635842e-12,-1.0 l -1.0,3.111695989638492e-12 l -3.060242873635842e-12,-1.0 l -1.0,3.111695989638492e-12 l 3.163149105641142e-12,1.0 l 1.0,-3.214602221643792e-12 l -3.2660553376464417e-12,-1.0 l 1.0,-3.214602221643792e-12 l -3.2660553376464417e-12,-1.0 l -1.0,3.3175084536490915e-12 l -3.2660553376464417e-12,-1.0 l -1.0,3.3175084536490915e-12 l -3.2660553376464417e-12,-1.0 l -1.0,3.3175084536490915e-12 l 3.3689615696517417e-12,1.0 l 1.0,-3.4204146856543915e-12 l -3.4718678016570413e-12,-1.0 l 1.0,-3.4204146856543915e-12 l -3.4718678016570413e-12,-1.0 l -1.0,3.5233209176596914e-12 l 3.5747740336623412e-12,1.0 l 1.0,-3.626227149664991e-12 l 3.5747740336623412e-12,1.0 l 1.0,-3.626227149664991e-12 l -3.677680265667641e-12,-1.0 l -1.0,3.729133381670291e-12 l 3.780586497672941e-12,1.0 l -1.0,3.729133381670291e-12 l 3.780586497672941e-12,1.0 l 1.0,-3.8320396136755905e-12 l -3.883492729678241e-12,-1.0 l -1.0,3.93494584568089e-12 l -3.883492729678241e-12,-1.0 l -1.0,3.93494584568089e-12 l 3.98639896168354e-12,1.0 l -1.0,3.93494584568089e-12 l 3.98639896168354e-12,1.0 l -1.0,3.93494584568089e-12 l 3.98639896168354e-12,1.0 l 1.0,-4.0378520776861905e-12 l -4.08930519368884e-12,-1.0 l -1.0,4.14075830969149e-12 l -4.08930519368884e-12,-1.0 l -1.0,4.14075830969149e-12 l 4.19221142569414e-12,1.0 l 1.0,-4.24366454169679e-12 l -4.29511765769944e-12,-1.0 l 1.0,-4.24366454169679e-12 l -4.29511765769944e-12,-1.0 l -1.0,4.34657077370209e-12 l -4.29511765769944e-12,-1.0 l -1.0,4.34657077370209e-12 l -4.29511765769944e-12,-1.0 l -1.0,4.34657077370209e-12 l 4.398023889704739e-12,1.0 l 1.0,-4.4494770057073895e-12 l -4.500930121710039e-12,-1.0 l 1.0,-4.4494770057073895e-12 l -4.500930121710039e-12,-1.0 l -1.0,4.552383237712689e-12 l -4.500930121710039e-12,-1.0 l -1.0,4.552383237712689e-12 l -4.500930121710039e-12,-1.0 l -1.0,4.552383237712689e-12 l 4.603836353715339e-12,1.0 l 1.0,-4.655289469717989e-12 l -4.706742585720639e-12,-1.0 l 1.0,-4.655289469717989e-12 l -4.706742585720639e-12,-1.0 l -1.0,4.758195701723289e-12 l 4.8096488177259384e-12,1.0 l 1.0,-4.861101933728589e-12 l 4.8096488177259384e-12,1.0 l 1.0,-4.861101933728589e-12 l -4.912555049731239e-12,-1.0 l -1.0,4.964008165733888e-12 l 5.015461281736538e-12,1.0 l -1.0,4.964008165733888e-12 l 5.015461281736538e-12,1.0 l 1.0,-5.0669143977391885e-12 l -5.118367513741838e-12,-1.0 l -1.0,5.169820629744488e-12 l -5.118367513741838e-12,-1.0 l -1.0,5.169820629744488e-12 l 5.2212737457471375e-12,1.0 l -1.0,5.169820629744488e-12 l 5.2212737457471375e-12,1.0 l -1.0,5.169820629744488e-12 l 5.2212737457471375e-12,1.0 l 1.0,-5.272726861749788e-12 l -5.324179977752438e-12,-1.0 l -1.0,5.375633093755087e-12 l -5.324179977752438e-12,-1.0 l -1.0,5.375633093755087e-12 l 5.4270862097577374e-12,1.0 l 1.0,-5.478539325760388e-12 l -5.529992441763037e-12,-1.0 l 1.0,-5.478539325760388e-12 l -5.529992441763037e-12,-1.0 l -1.0,5.581445557765687e-12 l -5.529992441763037e-12,-1.0 l -1.0,5.581445557765687e-12 l -5.529992441763037e-12,-1.0 l -1.0,5.581445557765687e-12 l 5.632898673768337e-12,1.0 l 1.0,-5.684351789770987e-12 l -5.735804905773637e-12,-1.0 l 1.0,-5.684351789770987e-12 l -5.735804905773637e-12,-1.0 l -1.0,5.787258021776286e-12 l -5.735804905773637e-12,-1.0 l -1.0,5.787258021776286e-12 l -5.735804905773637e-12,-1.0 l -1.0,5.787258021776286e-12 l 5.8387111377789365e-12,1.0 l 1.0,-5.890164253781587e-12 l -5.941617369784236e-12,-1.0 l 1.0,-5.890164253781587e-12 l -5.941617369784236e-12,-1.0 l -1.0,5.993070485786886e-12 l 6.0445236017895364e-12,1.0 l 1.0,-6.095976717792186e-12 l 6.0445236017895364e-12,1.0 l 1.0,-6.095976717792186e-12 l -6.147429833794836e-12,-1.0 l -1.0,6.198882949797486e-12 l 6.2503360658001356e-12,1.0 l -1.0,6.198882949797486e-12 l 6.2503360658001356e-12,1.0 l 1.0,-6.301789181802786e-12 l -6.353242297805436e-12,-1.0 l -1.0,6.404695413808085e-12 l -6.353242297805436e-12,-1.0 l -1.0,6.404695413808085e-12 l 6.4561485298107355e-12,1.0 l -1.0,6.404695413808085e-12 l 6.4561485298107355e-12,1.0 l -1.0,6.404695413808085e-12 l 6.4561485298107355e-12,1.0 l 1.0,-6.507601645813385e-12 l -6.559054761816035e-12,-1.0 l -1.0,6.610507877818685e-12 l -6.559054761816035e-12,-1.0 l -1.0,6.610507877818685e-12 l 6.661960993821335e-12,1.0 l 1.0,-6.713414109823985e-12 l -6.764867225826635e-12,-1.0 l 1.0,-6.713414109823985e-12 l -6.764867225826635e-12,-1.0 l -1.0,6.816320341829284e-12 l 6.8677734578319346e-12,1.0 l 1.0,-6.919226573834585e-12 l 6.8677734578319346e-12,1.0 l 1.0,-6.919226573834585e-12 l -6.970679689837234e-12,-1.0 l -1.0,7.022132805839884e-12 l 7.073585921842534e-12,1.0 l -1.0,7.022132805839884e-12 l 7.073585921842534e-12,1.0 l 1.0,-7.125039037845184e-12 l 7.073585921842534e-12,1.0 l 1.0,-7.125039037845184e-12 l 7.073585921842534e-12,1.0 l 1.0,-7.125039037845184e-12 l -7.176492153847834e-12,-1.0 l -1.0,7.2279452698504834e-12 l 7.279398385853134e-12,1.0 l -1.0,7.2279452698504834e-12 l 7.279398385853134e-12,1.0 l 1.0,-7.330851501855784e-12 l -7.382304617858434e-12,-1.0 l -1.0,7.433757733861083e-12 l -7.382304617858434e-12,-1.0 l -1.0,7.433757733861083e-12 l 7.485210849863733e-12,1.0 l 1.0,-7.536663965866383e-12 l -7.588117081869033e-12,-1.0 l 1.0,-7.536663965866383e-12 l -7.588117081869033e-12,-1.0 l -1.0,7.639570197871683e-12 l 7.691023313874333e-12,1.0 l 1.0,-7.742476429876982e-12 l 7.691023313874333e-12,1.0 l 1.0,-7.742476429876982e-12 l -7.793929545879632e-12,-1.0 l 1.0,-7.742476429876982e-12 l -7.793929545879632e-12,-1.0 l 1.0,-7.742476429876982e-12 l -7.793929545879632e-12,-1.0 l -1.0,7.845382661882282e-12 l 7.896835777884933e-12,1.0 l 1.0,-7.948288893887583e-12 l 7.896835777884933e-12,1.0 l 1.0,-7.948288893887583e-12 l -7.999742009890233e-12,-1.0 l -1.0,8.051195125892882e-12 l 8.102648241895532e-12,1.0 l -1.0,8.051195125892882e-12 l 8.102648241895532e-12,1.0 l 1.0,-8.154101357898182e-12 l -8.205554473900832e-12,-1.0 l -1.0,8.257007589903482e-12 l -8.205554473900832e-12,-1.0 l -1.0,8.257007589903482e-12 l 8.308460705906131e-12,1.0 l 1.0,-8.359913821908781e-12 l -8.411366937911431e-12,-1.0 l 1.0,-8.359913821908781e-12 l -8.411366937911431e-12,-1.0 l -1.0,8.462820053914081e-12 l -8.411366937911431e-12,-1.0 l -1.0,8.462820053914081e-12 l -8.411366937911431e-12,-1.0 l -1.0,8.462820053914081e-12 l 8.514273169916732e-12,1.0 l 1.0,-8.565726285919382e-12 l -8.61717940192203e-12,-1.0 l 1.0,-8.565726285919382e-12 l -8.61717940192203e-12,-1.0 l -1.0,8.66863251792468e-12 l 8.72008563392733e-12,1.0 l 1.0,-8.771538749929981e-12 l 8.72008563392733e-12,1.0 l 1.0,-8.771538749929981e-12 l -8.822991865932631e-12,-1.0 l 1.0,-8.771538749929981e-12 l -8.822991865932631e-12,-1.0 l 1.0,-8.771538749929981e-12 l -8.822991865932631e-12,-1.0 l -1.0,8.87444498193528e-12 l 8.92589809793793e-12,1.0 l 1.0,-8.97735121394058e-12 l 8.92589809793793e-12,1.0 l 1.0,-8.97735121394058e-12 l -9.02880432994323e-12,-1.0 l 1.0,-8.97735121394058e-12 l -9.02880432994323e-12,-1.0 l 1.0,-8.97735121394058e-12 l -9.02880432994323e-12,-1.0 l -1.0,9.08025744594588e-12 l 9.13171056194853e-12,1.0 l 1.0,-9.18316367795118e-12 l 9.13171056194853e-12,1.0 l 1.0,-9.18316367795118e-12 l -9.23461679395383e-12,-1.0 l -1.0,9.28606990995648e-12 l 9.33752302595913e-12,1.0 l -1.0,9.28606990995648e-12 l 9.33752302595913e-12,1.0 l 1.0,-9.38897614196178e-12 l -9.440429257964429e-12,-1.0 l -1.0,9.491882373967079e-12 l -9.440429257964429e-12,-1.0 l -1.0,9.491882373967079e-12 l 9.543335489969729e-12,1.0 l 1.0,-9.594788605972379e-12 l -9.64624172197503e-12,-1.0 l 1.0,-9.594788605972379e-12 l -9.64624172197503e-12,-1.0 l -1.0,9.69769483797768e-12 l -9.64624172197503e-12,-1.0 l -1.0,9.69769483797768e-12 l -9.64624172197503e-12,-1.0 l -1.0,9.69769483797768e-12 l 9.749147953980328e-12,1.0 l 1.0,-9.800601069982978e-12 l -9.852054185985628e-12,-1.0 l 1.0,-9.800601069982978e-12 l -9.852054185985628e-12,-1.0 l -1.0,9.903507301988279e-12 l 9.954960417990929e-12,1.0 l 1.0,-1.0006413533993579e-11 l 9.954960417990929e-12,1.0 l 1.0,-1.0006413533993579e-11 l -1.0057866649996228e-11,-1.0 l -1.0,1.0109319765998878e-11 l 1.0160772882001528e-11,1.0 l -1.0,1.0109319765998878e-11 l 1.0160772882001528e-11,1.0 l 1.0,-1.0212225998004178e-11 l -1.0263679114006828e-11,-1.0 l -1.0,1.0315132230009477e-11 l -1.0263679114006828e-11,-1.0 l -1.0,1.0315132230009477e-11 l 1.0366585346012127e-11,1.0 l -1.0,1.0315132230009477e-11 l 1.0366585346012127e-11,1.0 l -1.0,1.0315132230009477e-11 l 1.0366585346012127e-11,1.0 l 1.0,-1.0418038462014777e-11 l -1.0469491578017427e-11,-1.0 l -1.0,1.0520944694020078e-11 l -1.0469491578017427e-11,-1.0 l -1.0,1.0520944694020078e-11 l 1.0572397810022728e-11,1.0 l 1.0,-1.0623850926025376e-11 l -1.0675304042028027e-11,-1.0 l 1.0,-1.0623850926025376e-11 l -1.0675304042028027e-11,-1.0 l -1.0,1.0726757158030677e-11 l 1.0778210274033327e-11,1.0 l 1.0,-1.0829663390035977e-11 l 1.0778210274033327e-11,1.0 l 1.0,-1.0829663390035977e-11 l -1.0881116506038626e-11,-1.0 l -1.0,1.0932569622041276e-11 l 1.0984022738043926e-11,1.0 l -1.0,1.0932569622041276e-11 l 1.0984022738043926e-11,1.0 l 1.0,-1.1035475854046576e-11 l 1.0984022738043926e-11,1.0 l 1.0,-1.1035475854046576e-11 l 1.0984022738043926e-11,1.0 l 1.0,-1.1035475854046576e-11 l -1.1086928970049226e-11,-1.0 l -1.0,1.1138382086051877e-11 l 1.1189835202054525e-11,1.0 l -1.0,1.1138382086051877e-11 l 1.1189835202054525e-11,1.0 l 1.0,-1.1241288318057175e-11 l -1.1292741434059826e-11,-1.0 l -1.0,1.1344194550062476e-11 l -1.1292741434059826e-11,-1.0 l -1.0,1.1344194550062476e-11 l 1.1395647666065126e-11,1.0 l 1.0,-1.1447100782067774e-11 l -1.1498553898070425e-11,-1.0 l 1.0,-1.1447100782067774e-11 l -1.1498553898070425e-11,-1.0 l -1.0,1.1550007014073075e-11 l 1.1601460130075725e-11,1.0 l 1.0,-1.1652913246078375e-11 l 1.1601460130075725e-11,1.0 l 1.0,-1.1652913246078375e-11 l -1.1704366362081025e-11,-1.0 l 1.0,-1.1652913246078375e-11 l -1.1704366362081025e-11,-1.0 l 1.0,-1.1652913246078375e-11 l -1.1704366362081025e-11,-1.0 l -1.0,1.1755819478083674e-11 l 1.1807272594086324e-11,1.0 l 1.0,-1.1858725710088974e-11 l 1.1807272594086324e-11,1.0 l 1.0,-1.1858725710088974e-11 l -1.1910178826091625e-11,-1.0 l -1.0,1.1961631942094275e-11 l 1.2013085058096923e-11,1.0 l -1.0,1.1961631942094275e-11 l 1.2013085058096923e-11,1.0 l 1.0,-1.2064538174099573e-11 l 1.2013085058096923e-11,1.0 l 1.0,-1.2064538174099573e-11 l 1.2013085058096923e-11,1.0 l 1.0,-1.2064538174099573e-11 l -1.2115991290102224e-11,-1.0 l -1.0,1.2167444406104874e-11 l 1.2218897522107524e-11,1.0 l -1.0,1.2167444406104874e-11 l 1.2218897522107524e-11,1.0 l 1.0,-1.2270350638110174e-11 l 1.2218897522107524e-11,1.0 l 1.0,-1.2270350638110174e-11 l 1.2218897522107524e-11,1.0 l 1.0,-1.2270350638110174e-11 l -1.2321803754112823e-11,-1.0 l -1.0,1.2373256870115473e-11 l 1.2424709986118123e-11,1.0 l -1.0,1.2373256870115473e-11 l 1.2424709986118123e-11,1.0 l 1.0,-1.2476163102120773e-11 l -1.2527616218123424e-11,-1.0 l -1.0,1.2579069334126074e-11 l -1.2527616218123424e-11,-1.0 l -1.0,1.2579069334126074e-11 l 1.2630522450128722e-11,1.0 l 1.0,-1.2681975566131372e-11 l -1.2733428682134023e-11,-1.0 l 1.0,-1.2681975566131372e-11 l -1.2733428682134023e-11,-1.0 l -1.0,1.2784881798136673e-11 l 1.2836334914139323e-11,1.0 l 1.0,-1.2887788030141972e-11 l 1.2836334914139323e-11,1.0 l 1.0,-1.2887788030141972e-11 l -1.2939241146144622e-11,-1.0 l 1.0,-1.2887788030141972e-11 l -1.2939241146144622e-11,-1.0 l 1.0,-1.2887788030141972e-11 l -1.2939241146144622e-11,-1.0 l -1.0,1.2990694262147272e-11 l 1.3042147378149922e-11,1.0 l 1.0,-1.3093600494152572e-11 l 1.3042147378149922e-11,1.0 l 1.0,-1.3093600494152572e-11 l -1.3145053610155223e-11,-1.0 l -1.0,1.3196506726157871e-11 l 1.3247959842160521e-11,1.0 l -1.0,1.3196506726157871e-11 l 1.3247959842160521e-11,1.0 l 1.0,-1.3299412958163171e-11 l -1.3350866074165822e-11,-1.0 l -1.0,1.3402319190168472e-11 l -1.3350866074165822e-11,-1.0 l -1.0,1.3402319190168472e-11 l 1.345377230617112e-11,1.0 l 1.0,-1.350522542217377e-11 l -1.355667853817642e-11,-1.0 l 1.0,-1.350522542217377e-11 l -1.355667853817642e-11,-1.0 l -1.0,1.3608131654179071e-11 l -1.355667853817642e-11,-1.0 l -1.0,1.3608131654179071e-11 l -1.355667853817642e-11,-1.0 l -1.0,1.3608131654179071e-11 l 1.3659584770181721e-11,1.0 l 1.0,-1.3711037886184371e-11 l -1.376249100218702e-11,-1.0 l 1.0,-1.3711037886184371e-11 l -1.376249100218702e-11,-1.0 l -1.0,1.381394411818967e-11 l 1.386539723419232e-11,1.0 l 1.0,-1.391685035019497e-11 l 1.386539723419232e-11,1.0 l 1.0,-1.391685035019497e-11 l -1.396830346619762e-11,-1.0 l -1.0,1.401975658220027e-11 l 1.407120969820292e-11,1.0 l -1.0,1.401975658220027e-11 l 1.407120969820292e-11,1.0 l 1.0,-1.412266281420557e-11 l -1.417411593020822e-11,-1.0 l -1.0,1.422556904621087e-11 l -1.417411593020822e-11,-1.0 l -1.0,1.422556904621087e-11 l 1.427702216221352e-11,1.0 l -1.0,1.422556904621087e-11 l 1.427702216221352e-11,1.0 l -1.0,1.422556904621087e-11 l 1.427702216221352e-11,1.0 l 1.0,-1.4328475278216169e-11 l -1.4379928394218819e-11,-1.0 l -1.0,1.4431381510221469e-11 l -1.4379928394218819e-11,-1.0 l -1.0,1.4431381510221469e-11 l 1.448283462622412e-11,1.0 l 1.0,-1.453428774222677e-11 l -1.458574085822942e-11,-1.0 l 1.0,-1.453428774222677e-11 l -1.458574085822942e-11,-1.0 l -1.0,1.463719397423207e-11 l 1.468864709023472e-11,1.0 l 1.0,-1.4740100206237367e-11 l 1.468864709023472e-11,1.0 l 1.0,-1.4740100206237367e-11 l -1.4791553322240017e-11,-1.0 l -1.0,1.4843006438242667e-11 l 1.4894459554245318e-11,1.0 l -1.0,1.4843006438242667e-11 l 1.4894459554245318e-11,1.0 l 1.0,-1.4945912670247968e-11 l 1.4894459554245318e-11,1.0 l 1.0,-1.4945912670247968e-11 l 1.4894459554245318e-11,1.0 l 1.0,-1.4945912670247968e-11 l -1.4997365786250618e-11,-1.0 l -1.0,1.5048818902253268e-11 l 1.5100272018255918e-11,1.0 l -1.0,1.5048818902253268e-11 l 1.5100272018255918e-11,1.0 l 1.0,-1.515172513425857e-11 l -1.520317825026122e-11,-1.0 l -1.0,1.525463136626387e-11 l -1.520317825026122e-11,-1.0 l -1.0,1.525463136626387e-11 l 1.5306084482266516e-11,1.0 l -1.0,1.525463136626387e-11 l 1.5306084482266516e-11,1.0 l -1.0,1.525463136626387e-11 l 1.5306084482266516e-11,1.0 l 1.0,-1.5357537598269166e-11 l -1.52953038765502e-11,-1.0 l -1.0,1.5233070154831234e-11 l -1.52953038765502e-11,-1.0 l -1.0,1.5233070154831234e-11 l 1.517083643311227e-11,1.0 l -1.0,1.5233070154831234e-11 l 1.517083643311227e-11,1.0 l -1.0,1.5233070154831234e-11 l 1.517083643311227e-11,1.0 l 1.0,-1.5108602711393303e-11 l -1.5046368989674337e-11,-1.0 l -1.0,1.498413526795537e-11 l -1.5046368989674337e-11,-1.0 l -1.0,1.498413526795537e-11 l 1.4921901546236405e-11,1.0 l 1.0,-1.485966782451744e-11 l -1.4797434102798473e-11,-1.0 l 1.0,-1.485966782451744e-11 l -1.4797434102798473e-11,-1.0 l -1.0,1.4735200381079508e-11 l 1.467296665936054e-11,1.0 l 1.0,-1.4610732937641573e-11 l 1.467296665936054e-11,1.0 l 1.0,-1.4610732937641573e-11 l -1.4548499215922607e-11,-1.0 l -1.0,1.4486265494203641e-11 l 1.4424031772484675e-11,1.0 l -1.0,1.4486265494203641e-11 l 1.4424031772484675e-11,1.0 l 1.0,-1.436179805076571e-11 l 1.4424031772484675e-11,1.0 l 1.0,-1.436179805076571e-11 l 1.4424031772484675e-11,1.0 l 1.0,-1.436179805076571e-11 l -1.4299564329046743e-11,-1.0 l -1.0,1.4237330607327778e-11 l 1.417509688560881e-11,1.0 l -1.0,1.4237330607327778e-11 l 1.417509688560881e-11,1.0 l 1.0,-1.4112863163889844e-11 l -1.4050629442170878e-11,-1.0 l -1.0,1.3988395720451913e-11 l -1.4050629442170878e-11,-1.0 l -1.0,1.3988395720451913e-11 l 1.3926161998732947e-11,1.0 l 1.0,-1.386392827701398e-11 l -1.3801694555295013e-11,-1.0 l 1.0,-1.386392827701398e-11 l -1.3801694555295013e-11,-1.0 l -1.0,1.3739460833576048e-11 l 1.3677227111857082e-11,1.0 l 1.0,-1.3614993390138116e-11 l 1.3677227111857082e-11,1.0 l 1.0,-1.3614993390138116e-11 l -1.355275966841915e-11,-1.0 l 1.0,-1.3614993390138116e-11 l -1.355275966841915e-11,-1.0 l 1.0,-1.3614993390138116e-11 l -1.355275966841915e-11,-1.0 l -1.0,1.3490525946700183e-11 l 1.3428292224981217e-11,1.0 l 1.0,-1.3366058503262251e-11 l 1.3428292224981217e-11,1.0 l 1.0,-1.3366058503262251e-11 l -1.3303824781543285e-11,-1.0 l -1.0,1.324159105982432e-11 l 1.3179357338105353e-11,1.0 l -1.0,1.324159105982432e-11 l 1.3179357338105353e-11,1.0 l 1.0,-1.3117123616386386e-11 l -1.305488989466742e-11,-1.0 l -1.0,1.2992656172948454e-11 l -1.305488989466742e-11,-1.0 l -1.0,1.2992656172948454e-11 l 1.2930422451229488e-11,1.0 l 1.0,-1.2868188729510523e-11 l -1.2805955007791555e-11,-1.0 l 1.0,-1.2868188729510523e-11 l -1.2805955007791555e-11,-1.0 l -1.0,1.274372128607259e-11 l -1.2805955007791555e-11,-1.0 l -1.0,1.274372128607259e-11 l -1.2805955007791555e-11,-1.0 l -1.0,1.274372128607259e-11 l 1.2681487564353623e-11,1.0 l 1.0,-1.2619253842634658e-11 l -1.2557020120915692e-11,-1.0 l 1.0,-1.2619253842634658e-11 l -1.2557020120915692e-11,-1.0 l -1.0,1.2494786399196726e-11 l 1.2432552677477758e-11,1.0 l 1.0,-1.2370318955758793e-11 l 1.2432552677477758e-11,1.0 l 1.0,-1.2370318955758793e-11 l -1.2308085234039827e-11,-1.0 l -1.0,1.2245851512320861e-11 l 1.2183617790601895e-11,1.0 l -1.0,1.2245851512320861e-11 l 1.2183617790601895e-11,1.0 l 1.0,-1.2121384068882928e-11 l -1.2059150347163962e-11,-1.0 l -1.0,1.1996916625444996e-11 l -1.2059150347163962e-11,-1.0 l -1.0,1.1996916625444996e-11 l 1.193468290372603e-11,1.0 l -1.0,1.1996916625444996e-11 l 1.193468290372603e-11,1.0 l -1.0,1.1996916625444996e-11 l 1.193468290372603e-11,1.0 l 1.0,-1.1872449182007064e-11 l -1.1810215460288098e-11,-1.0 l -1.0,1.1747981738569131e-11 l -1.1810215460288098e-11,-1.0 l -1.0,1.1747981738569131e-11 l 1.1685748016850165e-11,1.0 l 1.0,-1.16235142951312e-11 l -1.1561280573412233e-11,-1.0 l 1.0,-1.16235142951312e-11 l -1.1561280573412233e-11,-1.0 l -1.0,1.1499046851693268e-11 l -1.1561280573412233e-11,-1.0 l -1.0,1.1499046851693268e-11 l -1.1561280573412233e-11,-1.0 l -1.0,1.1499046851693268e-11 l 1.14368131299743e-11,1.0 l 1.0,-1.1374579408255334e-11 l -1.1312345686536368e-11,-1.0 l 1.0,-1.1374579408255334e-11 l -1.1312345686536368e-11,-1.0 l -1.0,1.1250111964817403e-11 l -1.1312345686536368e-11,-1.0 l -1.0,1.1250111964817403e-11 l -1.1312345686536368e-11,-1.0 l -1.0,1.1250111964817403e-11 l 1.1187878243098437e-11,1.0 l 1.0,-1.1125644521379471e-11 l -1.1063410799660503e-11,-1.0 l 1.0,-1.1125644521379471e-11 l -1.1063410799660503e-11,-1.0 l -1.0,1.1001177077941538e-11 l 1.0938943356222572e-11,1.0 l 1.0,-1.0876709634503606e-11 l 1.0938943356222572e-11,1.0 l 1.0,-1.0876709634503606e-11 l -1.081447591278464e-11,-1.0 l -1.0,1.0752242191065674e-11 l 1.0690008469346707e-11,1.0 l -1.0,1.0752242191065674e-11 l 1.0690008469346707e-11,1.0 l 1.0,-1.0627774747627741e-11 l -1.0565541025908775e-11,-1.0 l -1.0,1.050330730418981e-11 l -1.0565541025908775e-11,-1.0 l -1.0,1.050330730418981e-11 l 1.0441073582470843e-11,1.0 l -1.0,1.050330730418981e-11 l 1.0441073582470843e-11,1.0 l -1.0,1.050330730418981e-11 l 1.0441073582470843e-11,1.0 l 1.0,-1.0378839860751876e-11 l -1.031660613903291e-11,-1.0 l -1.0,1.0254372417313944e-11 l -1.031660613903291e-11,-1.0 l -1.0,1.0254372417313944e-11 l 1.0192138695594978e-11,1.0 l 1.0,-1.0129904973876013e-11 l -1.0067671252157047e-11,-1.0 l 1.0,-1.0129904973876013e-11 l -1.0067671252157047e-11,-1.0 l -1.0,1.000543753043808e-11 l 9.943203808719113e-12,1.0 l 1.0,-9.880970087000148e-12 l 9.943203808719113e-12,1.0 l 1.0,-9.880970087000148e-12 l -9.818736365281182e-12,-1.0 l -1.0,9.756502643562216e-12 l 9.694268921843248e-12,1.0 l -1.0,9.756502643562216e-12 l 9.694268921843248e-12,1.0 l 1.0,-9.632035200124283e-12 l 9.694268921843248e-12,1.0 l 1.0,-9.632035200124283e-12 l 9.694268921843248e-12,1.0 l 1.0,-9.632035200124283e-12 l -9.569801478405317e-12,-1.0 l -1.0,9.507567756686351e-12 l 9.445334034967385e-12,1.0 l -1.0,9.507567756686351e-12 l 9.445334034967385e-12,1.0 l 1.0,-9.383100313248419e-12 l -9.320866591529452e-12,-1.0 l -1.0,9.258632869810486e-12 l -9.320866591529452e-12,-1.0 l -1.0,9.258632869810486e-12 l 9.19639914809152e-12,1.0 l -1.0,9.258632869810486e-12 l 9.19639914809152e-12,1.0 l -1.0,9.258632869810486e-12 l 9.19639914809152e-12,1.0 l 1.0,-9.134165426372554e-12 l -9.071931704653588e-12,-1.0 l -1.0,9.009697982934621e-12 l -9.071931704653588e-12,-1.0 l -1.0,9.009697982934621e-12 l 8.947464261215655e-12,1.0 l -1.0,9.009697982934621e-12 l 8.947464261215655e-12,1.0 l -1.0,9.009697982934621e-12 l 8.947464261215655e-12,1.0 l 1.0,-8.88523053949669e-12 l -8.822996817777723e-12,-1.0 l -1.0,8.760763096058758e-12 l -8.822996817777723e-12,-1.0 l -1.0,8.760763096058758e-12 l 8.698529374339792e-12,1.0 l 1.0,-8.636295652620824e-12 l -8.574061930901858e-12,-1.0 l 1.0,-8.636295652620824e-12 l -8.574061930901858e-12,-1.0 l -1.0,8.511828209182893e-12 l 8.449594487463927e-12,1.0 l 1.0,-8.387360765744961e-12 l 8.449594487463927e-12,1.0 l 1.0,-8.387360765744961e-12 l -8.325127044025993e-12,-1.0 l -1.0,8.262893322307028e-12 l 8.200659600588062e-12,1.0 l -1.0,8.262893322307028e-12 l 8.200659600588062e-12,1.0 l 1.0,-8.138425878869096e-12 l 8.200659600588062e-12,1.0 l 1.0,-8.138425878869096e-12 l 8.200659600588062e-12,1.0 l 1.0,-8.138425878869096e-12 l -8.07619215715013e-12,-1.0 l -1.0,8.013958435431164e-12 l 7.951724713712197e-12,1.0 l -1.0,8.013958435431164e-12 l 7.951724713712197e-12,1.0 l 1.0,-7.889490991993231e-12 l -7.827257270274265e-12,-1.0 l -1.0,7.765023548555299e-12 l -7.827257270274265e-12,-1.0 l -1.0,7.765023548555299e-12 l 7.702789826836333e-12,1.0 l -1.0,7.765023548555299e-12 l 7.702789826836333e-12,1.0 l -1.0,7.765023548555299e-12 l 7.702789826836333e-12,1.0 l 1.0,-7.640556105117367e-12 l -7.5783223833984e-12,-1.0 l -1.0,7.516088661679434e-12 l -7.5783223833984e-12,-1.0 l -1.0,7.516088661679434e-12 l 7.453854939960468e-12,1.0 l -1.0,7.516088661679434e-12 l 7.453854939960468e-12,1.0 l -1.0,7.516088661679434e-12 l 7.453854939960468e-12,1.0 l 1.0,-7.391621218241502e-12 l -7.329387496522537e-12,-1.0 l -1.0,7.26715377480357e-12 l -7.329387496522537e-12,-1.0 l -1.0,7.26715377480357e-12 l 7.204920053084604e-12,1.0 l 1.0,-7.1426863313656375e-12 l -7.080452609646672e-12,-1.0 l 1.0,-7.1426863313656375e-12 l -7.080452609646672e-12,-1.0 l -1.0,7.018218887927705e-12 l 6.955985166208739e-12,1.0 l 1.0,-6.893751444489773e-12 l 6.955985166208739e-12,1.0 l 1.0,-6.893751444489773e-12 l -6.831517722770807e-12,-1.0 l -1.0,6.769284001051841e-12 l 6.707050279332875e-12,1.0 l -1.0,6.769284001051841e-12 l 6.707050279332875e-12,1.0 l 1.0,-6.644816557613908e-12 l 6.707050279332875e-12,1.0 l 1.0,-6.644816557613908e-12 l 6.707050279332875e-12,1.0 l 1.0,-6.644816557613908e-12 l -6.5825828358949425e-12,-1.0 l -1.0,6.520349114175977e-12 l 6.45811539245701e-12,1.0 l -1.0,6.520349114175977e-12 l 6.45811539245701e-12,1.0 l 1.0,-6.395881670738044e-12 l -6.3336479490190775e-12,-1.0 l -1.0,6.271414227300112e-12 l -6.3336479490190775e-12,-1.0 l -1.0,6.271414227300112e-12 l 6.209180505581146e-12,1.0 l 1.0,-6.146946783862179e-12 l -6.084713062143213e-12,-1.0 l 1.0,-6.146946783862179e-12 l -6.084713062143213e-12,-1.0 l -1.0,6.0224793404242475e-12 l 5.960245618705281e-12,1.0 l 1.0,-5.898011896986315e-12 l 5.960245618705281e-12,1.0 l 1.0,-5.898011896986315e-12 l -5.835778175267349e-12,-1.0 l 1.0,-5.898011896986315e-12 l -5.835778175267349e-12,-1.0 l 1.0,-5.898011896986315e-12 l -5.835778175267349e-12,-1.0 l -1.0,5.7735444535483825e-12 l 5.711310731829417e-12,1.0 l 1.0,-5.649077010110451e-12 l 5.711310731829417e-12,1.0 l 1.0,-5.649077010110451e-12 l -5.586843288391484e-12,-1.0 l -1.0,5.524609566672518e-12 l 5.462375844953552e-12,1.0 l -1.0,5.524609566672518e-12 l 5.462375844953552e-12,1.0 l 1.0,-5.400142123234586e-12 l -5.33790840151562e-12,-1.0 l -1.0,5.275674679796653e-12 l -5.33790840151562e-12,-1.0 l -1.0,5.275674679796653e-12 l 5.2134409580776875e-12,1.0 l 1.0,-5.151207236358722e-12 l -5.088973514639755e-12,-1.0 l 1.0,-5.151207236358722e-12 l -5.088973514639755e-12,-1.0 l -1.0,5.026739792920789e-12 l -5.088973514639755e-12,-1.0 l -1.0,5.026739792920789e-12 l -5.088973514639755e-12,-1.0 l -1.0,5.026739792920789e-12 l 4.964506071201823e-12,1.0 l 1.0,-4.902272349482857e-12 l -4.840038627763891e-12,-1.0 l 1.0,-4.902272349482857e-12 l -4.840038627763891e-12,-1.0 l -1.0,4.777804906044925e-12 l 4.715571184325958e-12,1.0 l 1.0,-4.6533374626069925e-12 l 4.715571184325958e-12,1.0 l 1.0,-4.6533374626069925e-12 l -4.591103740888026e-12,-1.0 l -1.0,4.52887001916906e-12 l 4.466636297450094e-12,1.0 l -1.0,4.52887001916906e-12 l 4.466636297450094e-12,1.0 l 1.0,-4.4044025757311275e-12 l -4.342168854012162e-12,-1.0 l -1.0,4.279935132293196e-12 l -4.342168854012162e-12,-1.0 l -1.0,4.279935132293196e-12 l 4.217701410574229e-12,1.0 l -1.0,4.279935132293196e-12 l 4.217701410574229e-12,1.0 l -1.0,4.279935132293196e-12 l 4.217701410574229e-12,1.0 l 1.0,-4.155467688855263e-12 l -4.0932339671362974e-12,-1.0 l -1.0,4.031000245417331e-12 l -4.0932339671362974e-12,-1.0 l -1.0,4.031000245417331e-12 l 3.968766523698365e-12,1.0 l 1.0,-3.906532801979398e-12 l -3.8442990802604324e-12,-1.0 l 1.0,-3.906532801979398e-12 l -3.8442990802604324e-12,-1.0 l -1.0,3.782065358541467e-12 l -3.8442990802604324e-12,-1.0 l -1.0,3.782065358541467e-12 l -3.8442990802604324e-12,-1.0 l -1.0,3.782065358541467e-12 l 3.7198316368225e-12,1.0 l 1.0,-3.657597915103534e-12 l -3.595364193384568e-12,-1.0 l 1.0,-3.657597915103534e-12 l -3.595364193384568e-12,-1.0 l -1.0,3.533130471665602e-12 l -3.595364193384568e-12,-1.0 l -1.0,3.533130471665602e-12 l -3.595364193384568e-12,-1.0 l -1.0,3.533130471665602e-12 l 3.4708967499466358e-12,1.0 l 1.0,-3.4086630282276695e-12 l -3.3464293065087033e-12,-1.0 l 1.0,-3.4086630282276695e-12 l -3.3464293065087033e-12,-1.0 l -1.0,3.2841955847897374e-12 l 3.221961863070771e-12,1.0 l 1.0,-3.159728141351805e-12 l 3.221961863070771e-12,1.0 l 1.0,-3.159728141351805e-12 l -3.097494419632839e-12,-1.0 l -1.0,3.035260697913873e-12 l 2.9730269761949066e-12,1.0 l -1.0,3.035260697913873e-12 l 2.9730269761949066e-12,1.0 l 1.0,-2.9107932544759403e-12 l -2.8485595327569745e-12,-1.0 l -1.0,2.7863258110380083e-12 l -2.8485595327569745e-12,-1.0 l -1.0,2.7863258110380083e-12 l 2.724092089319042e-12,1.0 l -1.0,2.7863258110380083e-12 l 2.724092089319042e-12,1.0 l -1.0,2.7863258110380083e-12 l 2.724092089319042e-12,1.0 l 1.0,-2.661858367600076e-12 l -2.59962464588111e-12,-1.0 l -1.0,2.5373909241621437e-12 l -2.59962464588111e-12,-1.0 l -1.0,2.5373909241621437e-12 l 2.4751572024431774e-12,1.0 l 1.0,-2.4129234807242116e-12 l -2.3506897590052453e-12,-1.0 l 1.0,-2.4129234807242116e-12 l -2.3506897590052453e-12,-1.0 l -1.0,2.288456037286279e-12 l 2.2262223155673132e-12,1.0 l 1.0,-2.163988593848347e-12 l 2.2262223155673132e-12,1.0 l 1.0,-2.163988593848347e-12 l -2.1017548721293807e-12,-1.0 l -1.0,2.0395211504104145e-12 l 1.9772874286914487e-12,1.0 l -1.0,2.0395211504104145e-12 l 1.9772874286914487e-12,1.0 l 1.0,-1.9150537069724824e-12 l 1.9772874286914487e-12,1.0 l 1.0,-1.9150537069724824e-12 l 1.9772874286914487e-12,1.0 l 1.0,-1.9150537069724824e-12 l -1.852819985253516e-12,-1.0 l -1.0,1.7905862635345501e-12 l 1.728352541815584e-12,1.0 l -1.0,1.7905862635345501e-12 l 1.728352541815584e-12,1.0 l 1.0,-1.6661188200966178e-12 l -1.6038850983776518e-12,-1.0 l -1.0,1.5416513766586855e-12 l -1.6038850983776518e-12,-1.0 l -1.0,1.5416513766586855e-12 l 1.4794176549397195e-12,1.0 l 1.0,-1.4171839332207532e-12 l -1.3549502115017872e-12,-1.0 l 1.0,-1.4171839332207532e-12 l -1.3549502115017872e-12,-1.0 l -1.0,1.2927164897828211e-12 l 1.230482768063855e-12,1.0 l 1.0,-1.1682490463448889e-12 l 1.230482768063855e-12,1.0 l 1.0,-1.1682490463448889e-12 l -1.1060153246259226e-12,-1.0 l 1.0,-1.1682490463448889e-12 l -1.1060153246259226e-12,-1.0 l 1.0,-1.1682490463448889e-12 l -1.1060153246259226e-12,-1.0 l -1.0,1.0437816029069566e-12 l 9.815478811879903e-13,1.0 l 1.0,-9.193141594690243e-13 l 9.815478811879903e-13,1.0 l 1.0,-9.193141594690243e-13 l -8.570804377500581e-13,-1.0 l -1.0,7.94846716031092e-13 l 7.326129943121258e-13,1.0 l -1.0,7.94846716031092e-13 l 7.326129943121258e-13,1.0 l 1.0,-6.703792725931597e-13 l -6.081455508741935e-13,-1.0 l -1.0,5.459118291552275e-13 l -6.081455508741935e-13,-1.0 l -1.0,5.459118291552275e-13 l 4.836781074362613e-13,1.0 l 1.0,-4.214443857172952e-13 l -3.5921066399832905e-13,-1.0 l 1.0,-4.214443857172952e-13 l -3.5921066399832905e-13,-1.0 l -1.0,2.969769422793629e-13 l -3.5921066399832905e-13,-1.0 l -1.0,2.969769422793629e-13 l -3.5921066399832905e-13,-1.0 l -1.0,2.969769422793629e-13 l 2.3474322056039676e-13,1.0 l 1.0,-1.7250949884143064e-13 l -1.102757771224645e-13,-1.0 l 1.0,-1.7250949884143064e-13 l -1.102757771224645e-13,-1.0 l -1.0,4.804205540349837e-14 l -1.4191666315467764e-14,1.0 l 1.0,7.64253880344339e-14 l -1.4191666315467764e-14,1.0 l 1.0,7.64253880344339e-14 l 1.3865910975340004e-13,-1.0 l 1.0,7.64253880344339e-14 l 1.3865910975340004e-13,-1.0 l 1.0,7.64253880344339e-14 l 1.3865910975340004e-13,-1.0 l -1.0,-2.0089283147236617e-13 l -2.631265531913323e-13,1.0 l 1.0,3.2536027491029846e-13 l -2.631265531913323e-13,1.0 l 1.0,3.2536027491029846e-13 l 3.8759399662926455e-13,-1.0 l 1.0,3.2536027491029846e-13 l 3.8759399662926455e-13,-1.0 l 1.0,3.2536027491029846e-13 l 3.8759399662926455e-13,-1.0 l -1.0,-4.498277183482307e-13 l -5.120614400671968e-13,1.0 l 1.0,5.742951617861629e-13 l -5.120614400671968e-13,1.0 l 1.0,5.742951617861629e-13 l 6.365288835051291e-13,-1.0 l -1.0,-6.987626052240952e-13 l -7.609963269430614e-13,1.0 l -1.0,-6.987626052240952e-13 l -7.609963269430614e-13,1.0 l 1.0,8.232300486620275e-13 l 8.854637703809937e-13,-1.0 l -1.0,-9.476974920999597e-13 l 8.854637703809937e-13,-1.0 l -1.0,-9.476974920999597e-13 l -1.009931213818926e-12,1.0 l 1.0,1.072164935537892e-12 l 1.1343986572568583e-12,-1.0 l 1.0,1.072164935537892e-12 l 1.1343986572568583e-12,-1.0 l -1.0,-1.1966323789758243e-12 l 1.1343986572568583e-12,-1.0 l -1.0,-1.1966323789758243e-12 l 1.1343986572568583e-12,-1.0 l -1.0,-1.1966323789758243e-12 l -1.2588661006947904e-12,1.0 l 1.0,1.3210998224137566e-12 l 1.3833335441327226e-12,-1.0 l 1.0,1.3210998224137566e-12 l 1.3833335441327226e-12,-1.0 l -1.0,-1.4455672658516889e-12 l -1.507800987570655e-12,1.0 l 1.0,1.5700347092896212e-12 l -1.507800987570655e-12,1.0 l 1.0,1.5700347092896212e-12 l 1.6322684310085872e-12,-1.0 l -1.0,-1.6945021527275535e-12 l -1.7567358744465195e-12,1.0 l -1.0,-1.6945021527275535e-12 l -1.7567358744465195e-12,1.0 l 1.0,1.8189695961654856e-12 l 1.881203317884452e-12,-1.0 l -1.0,-1.943437039603418e-12 l 1.881203317884452e-12,-1.0 l -1.0,-1.943437039603418e-12 l -2.005670761322384e-12,1.0 l -1.0,-1.943437039603418e-12 l -2.005670761322384e-12,1.0 l -1.0,-1.943437039603418e-12 l -2.005670761322384e-12,1.0 l 1.0,2.06790448304135e-12 l 2.1301382047603164e-12,-1.0 l -1.0,-2.1923719264792827e-12 l 2.1301382047603164e-12,-1.0 l -1.0,-2.1923719264792827e-12 l -2.2546056481982485e-12,1.0 l 1.0,2.3168393699172147e-12 l 2.379073091636181e-12,-1.0 l 1.0,2.3168393699172147e-12 l 2.379073091636181e-12,-1.0 l -1.0,-2.441306813355147e-12 l -2.503540535074113e-12,1.0 l 1.0,2.5657742567930793e-12 l -2.503540535074113e-12,1.0 l 1.0,2.5657742567930793e-12 l 2.6280079785120456e-12,-1.0 l -1.0,-2.6902417002310114e-12 l -2.7524754219499777e-12,1.0 l -1.0,-2.6902417002310114e-12 l -2.7524754219499777e-12,1.0 l 1.0,2.814709143668944e-12 l -2.7524754219499777e-12,1.0 l 1.0,2.814709143668944e-12 l -2.7524754219499777e-12,1.0 l 1.0,2.814709143668944e-12 l 2.8769428653879098e-12,-1.0 l -1.0,-2.939176587106876e-12 l -3.0014103088258423e-12,1.0 l -1.0,-2.939176587106876e-12 l -3.0014103088258423e-12,1.0 l 1.0,3.0636440305448085e-12 l 3.1258777522637743e-12,-1.0 l -1.0,-3.1881114739827406e-12 l 3.1258777522637743e-12,-1.0 l -1.0,-3.1881114739827406e-12 l -3.250345195701707e-12,1.0 l 1.0,3.3125789174206727e-12 l 3.374812639139639e-12,-1.0 l 1.0,3.3125789174206727e-12 l 3.374812639139639e-12,-1.0 l -1.0,-3.437046360858605e-12 l -3.4992800825775714e-12,1.0 l 1.0,3.5615138042965373e-12 l -3.4992800825775714e-12,1.0 l 1.0,3.5615138042965373e-12 l 3.6237475260155035e-12,-1.0 l 1.0,3.5615138042965373e-12 l 3.6237475260155035e-12,-1.0 l 1.0,3.5615138042965373e-12 l 3.6237475260155035e-12,-1.0 l -1.0,-3.685981247734469e-12 l -3.748214969453436e-12,1.0 l 1.0,3.810448691172402e-12 l -3.748214969453436e-12,1.0 l 1.0,3.810448691172402e-12 l 3.872682412891368e-12,-1.0 l -1.0,-3.934916134610334e-12 l -3.9971498563293e-12,1.0 l -1.0,-3.934916134610334e-12 l -3.9971498563293e-12,1.0 l 1.0,4.059383578048267e-12 l -3.9971498563293e-12,1.0 l 1.0,4.059383578048267e-12 l -3.9971498563293e-12,1.0 l 1.0,4.059383578048267e-12 l 4.121617299767233e-12,-1.0 l -1.0,-4.1838510214861985e-12 l -4.246084743205165e-12,1.0 l -1.0,-4.1838510214861985e-12 l -4.246084743205165e-12,1.0 l 1.0,4.308318464924131e-12 l -4.246084743205165e-12,1.0 l 1.0,4.308318464924131e-12 l -4.246084743205165e-12,1.0 l 1.0,4.308318464924131e-12 l 4.370552186643097e-12,-1.0 l -1.0,-4.4327859083620635e-12 l -4.495019630081029e-12,1.0 l -1.0,-4.4327859083620635e-12 l -4.495019630081029e-12,1.0 l 1.0,4.557253351799995e-12 l 4.619487073518962e-12,-1.0 l -1.0,-4.681720795237928e-12 l 4.619487073518962e-12,-1.0 l -1.0,-4.681720795237928e-12 l -4.7439545169568935e-12,1.0 l 1.0,4.80618823867586e-12 l 4.868421960394826e-12,-1.0 l 1.0,4.80618823867586e-12 l 4.868421960394826e-12,-1.0 l -1.0,-4.930655682113793e-12 l -4.9928894038327585e-12,1.0 l 1.0,5.055123125551724e-12 l -4.9928894038327585e-12,1.0 l 1.0,5.055123125551724e-12 l 5.117356847270691e-12,-1.0 l 1.0,5.055123125551724e-12 l 5.117356847270691e-12,-1.0 l 1.0,5.055123125551724e-12 l 5.117356847270691e-12,-1.0 l -1.0,-5.179590568989657e-12 l -5.241824290708623e-12,1.0 l 1.0,5.304058012427589e-12 l -5.241824290708623e-12,1.0 l 1.0,5.304058012427589e-12 l 5.366291734146555e-12,-1.0 l -1.0,-5.428525455865521e-12 l -5.490759177584488e-12,1.0 l -1.0,-5.428525455865521e-12 l -5.490759177584488e-12,1.0 l 1.0,5.5529928993034535e-12 l 5.61522662102242e-12,-1.0 l -1.0,-5.677460342741386e-12 l 5.61522662102242e-12,-1.0 l -1.0,-5.677460342741386e-12 l -5.739694064460352e-12,1.0 l 1.0,5.8019277861793185e-12 l 5.864161507898284e-12,-1.0 l 1.0,5.8019277861793185e-12 l 5.864161507898284e-12,-1.0 l -1.0,-5.92639522961725e-12 l 5.864161507898284e-12,-1.0 l -1.0,-5.92639522961725e-12 l 5.864161507898284e-12,-1.0 l -1.0,-5.92639522961725e-12 l -5.988628951336217e-12,1.0 l 1.0,6.050862673055183e-12 l 6.1130963947741486e-12,-1.0 l 1.0,6.050862673055183e-12 l 6.1130963947741486e-12,-1.0 l -1.0,-6.175330116493115e-12 l -6.237563838212081e-12,1.0 l 1.0,6.299797559931047e-12 l -6.237563838212081e-12,1.0 l 1.0,6.299797559931047e-12 l 6.3620312816500136e-12,-1.0 l -1.0,-6.424265003368979e-12 l -6.486498725087946e-12,1.0 l -1.0,-6.424265003368979e-12 l -6.486498725087946e-12,1.0 l 1.0,6.548732446806912e-12 l 6.610966168525878e-12,-1.0 l -1.0,-6.673199890244844e-12 l 6.610966168525878e-12,-1.0 l -1.0,-6.673199890244844e-12 l -6.73543361196381e-12,1.0 l -1.0,-6.673199890244844e-12 l -6.73543361196381e-12,1.0 l -1.0,-6.673199890244844e-12 l -6.73543361196381e-12,1.0 l 1.0,6.797667333682776e-12 l 6.859901055401743e-12,-1.0 l -1.0,-6.9221347771207086e-12 l 6.859901055401743e-12,-1.0 l -1.0,-6.9221347771207086e-12 l -6.9843684988396744e-12,1.0 l 1.0,7.046602220558641e-12 l 7.108835942277607e-12,-1.0 l 1.0,7.046602220558641e-12 l 7.108835942277607e-12,-1.0 l -1.0,-7.1710696639965736e-12 l -7.233303385715539e-12,1.0 l 1.0,7.295537107434506e-12 l -7.233303385715539e-12,1.0 l 1.0,7.295537107434506e-12 l 7.357770829153472e-12,-1.0 l -1.0,-7.420004550872438e-12 l -7.482238272591404e-12,1.0 l -1.0,-7.420004550872438e-12 l -7.482238272591404e-12,1.0 l 1.0,7.54447199431037e-12 l -7.482238272591404e-12,1.0 l 1.0,7.54447199431037e-12 l -7.482238272591404e-12,1.0 l 1.0,7.54447199431037e-12 l 7.606705716029337e-12,-1.0 l -1.0,-7.668939437748303e-12 l -7.731173159467269e-12,1.0 l -1.0,-7.668939437748303e-12 l -7.731173159467269e-12,1.0 l 1.0,7.793406881186234e-12 l 7.8556406029052e-12,-1.0 l -1.0,-7.917874324624166e-12 l 7.8556406029052e-12,-1.0 l -1.0,-7.917874324624166e-12 l -7.980108046343134e-12,1.0 l -1.0,-7.917874324624166e-12 l -7.980108046343134e-12,1.0 l -1.0,-7.917874324624166e-12 l -7.980108046343134e-12,1.0 l 1.0,8.0423417680621e-12 l 8.104575489781065e-12,-1.0 l -1.0,-8.166809211500031e-12 l 8.104575489781065e-12,-1.0 l -1.0,-8.166809211500031e-12 l -8.229042933218997e-12,1.0 l -1.0,-8.166809211500031e-12 l -8.229042933218997e-12,1.0 l -1.0,-8.166809211500031e-12 l -8.229042933218997e-12,1.0 l 1.0,8.291276654937963e-12 l 8.35351037665693e-12,-1.0 l -1.0,-8.415744098375896e-12 l 8.35351037665693e-12,-1.0 l -1.0,-8.415744098375896e-12 l -8.477977820094862e-12,1.0 l 1.0,8.540211541813828e-12 l 8.602445263532794e-12,-1.0 l 1.0,8.540211541813828e-12 l 8.602445263532794e-12,-1.0 l -1.0,-8.664678985251761e-12 l -8.726912706970727e-12,1.0 l 1.0,8.789146428689693e-12 l -8.726912706970727e-12,1.0 l 1.0,8.789146428689693e-12 l 8.851380150408659e-12,-1.0 l -1.0,-8.913613872127624e-12 l -8.97584759384659e-12,1.0 l -1.0,-8.913613872127624e-12 l -8.97584759384659e-12,1.0 l 1.0,9.038081315565558e-12 l -8.97584759384659e-12,1.0 l 1.0,9.038081315565558e-12 l -8.97584759384659e-12,1.0 l 1.0,9.038081315565558e-12 l 9.100315037284524e-12,-1.0 l -1.0,-9.16254875900349e-12 l -9.224782480722455e-12,1.0 l -1.0,-9.16254875900349e-12 l -9.224782480722455e-12,1.0 l 1.0,9.287016202441421e-12 l 9.349249924160389e-12,-1.0 l -1.0,-9.411483645879354e-12 l 9.349249924160389e-12,-1.0 l -1.0,-9.411483645879354e-12 l -9.47371736759832e-12,1.0 l 1.0,9.535951089317286e-12 l 9.598184811036252e-12,-1.0 l 1.0,9.535951089317286e-12 l 9.598184811036252e-12,-1.0 l -1.0,-9.660418532755218e-12 l -9.722652254474185e-12,1.0 l 1.0,9.784885976193151e-12 l -9.722652254474185e-12,1.0 l 1.0,9.784885976193151e-12 l 9.847119697912117e-12,-1.0 l 1.0,9.784885976193151e-12 l 9.847119697912117e-12,-1.0 l 1.0,9.784885976193151e-12 l 9.847119697912117e-12,-1.0 l -1.0,-9.909353419631083e-12 l -9.971587141350049e-12,1.0 l 1.0,1.0033820863069016e-11 l -9.971587141350049e-12,1.0 l 1.0,1.0033820863069016e-11 l 1.0096054584787982e-11,-1.0 l -1.0,-1.0158288306506948e-11 l -1.0220522028225914e-11,1.0 l -1.0,-1.0158288306506948e-11 l -1.0220522028225914e-11,1.0 l 1.0,1.028275574994488e-11 l -1.0220522028225914e-11,1.0 l 1.0,1.028275574994488e-11 l -1.0220522028225914e-11,1.0 l 1.0,1.028275574994488e-11 l 1.0344989471663845e-11,-1.0 l -1.0,-1.0407223193382813e-11 l -1.0469456915101779e-11,1.0 l -1.0,-1.0407223193382813e-11 l -1.0469456915101779e-11,1.0 l 1.0,1.0531690636820744e-11 l -1.0469456915101779e-11,1.0 l 1.0,1.0531690636820744e-11 l -1.0469456915101779e-11,1.0 l 1.0,1.0531690636820744e-11 l 1.059392435853971e-11,-1.0 l -1.0,-1.0656158080258676e-11 l -1.0718391801977644e-11,1.0 l -1.0,-1.0656158080258676e-11 l -1.0718391801977644e-11,1.0 l 1.0,1.078062552369661e-11 l 1.0842859245415575e-11,-1.0 l -1.0,-1.0905092967134541e-11 l 1.0842859245415575e-11,-1.0 l -1.0,-1.0905092967134541e-11 l -1.0967326688853507e-11,1.0 l 1.0,1.1029560410572473e-11 l 1.109179413229144e-11,-1.0 l 1.0,1.1029560410572473e-11 l 1.109179413229144e-11,-1.0 l -1.0,-1.1154027854010406e-11 l -1.1216261575729372e-11,1.0 l 1.0,1.1278495297448338e-11 l -1.1216261575729372e-11,1.0 l 1.0,1.1278495297448338e-11 l 1.1340729019167304e-11,-1.0 l 1.0,1.1278495297448338e-11 l 1.1340729019167304e-11,-1.0 l 1.0,1.1278495297448338e-11 l 1.1340729019167304e-11,-1.0 l -1.0,-1.140296274088627e-11 l -1.1465196462605237e-11,1.0 l 1.0,1.1527430184324203e-11 l -1.1465196462605237e-11,1.0 l 1.0,1.1527430184324203e-11 l 1.1589663906043169e-11,-1.0 l -1.0,-1.1651897627762134e-11 l -1.17141313494811e-11,1.0 l -1.0,-1.1651897627762134e-11 l -1.17141313494811e-11,1.0 l 1.0,1.1776365071200068e-11 l -1.17141313494811e-11,1.0 l 1.0,1.1776365071200068e-11 l -1.17141313494811e-11,1.0 l 1.0,1.1776365071200068e-11 l 1.1838598792919034e-11,-1.0 l -1.0,-1.1900832514638e-11 l -1.1963066236356965e-11,1.0 l -1.0,-1.1900832514638e-11 l -1.1963066236356965e-11,1.0 l 1.0,1.2025299958075931e-11 l -1.1963066236356965e-11,1.0 l 1.0,1.2025299958075931e-11 l -1.1963066236356965e-11,1.0 l 1.0,1.2025299958075931e-11 l 1.2087533679794897e-11,-1.0 l -1.0,-1.2149767401513864e-11 l -1.221200112323283e-11,1.0 l -1.0,-1.2149767401513864e-11 l -1.221200112323283e-11,1.0 l 1.0,1.2274234844951796e-11 l 1.2336468566670762e-11,-1.0 l -1.0,-1.2398702288389728e-11 l 1.2336468566670762e-11,-1.0 l -1.0,-1.2398702288389728e-11 l -1.2460936010108695e-11,1.0 l 1.0,1.2523169731827661e-11 l 1.2585403453546627e-11,-1.0 l 1.0,1.2523169731827661e-11 l 1.2585403453546627e-11,-1.0 l -1.0,-1.2647637175265593e-11 l -1.2709870896984559e-11,1.0 l 1.0,1.2772104618703525e-11 l -1.2709870896984559e-11,1.0 l 1.0,1.2772104618703525e-11 l 1.2834338340422492e-11,-1.0 l 1.0,1.2772104618703525e-11 l 1.2834338340422492e-11,-1.0 l 1.0,1.2772104618703525e-11 l 1.2834338340422492e-11,-1.0 l -1.0,-1.2896572062141458e-11 l -1.2958805783860424e-11,1.0 l 1.0,1.302103950557939e-11 l -1.2958805783860424e-11,1.0 l 1.0,1.302103950557939e-11 l 1.3083273227298355e-11,-1.0 l -1.0,-1.3145506949017323e-11 l -1.3207740670736289e-11,1.0 l -1.0,-1.3145506949017323e-11 l -1.3207740670736289e-11,1.0 l 1.0,1.3269974392455254e-11 l 1.333220811417422e-11,-1.0 l -1.0,-1.3394441835893186e-11 l 1.333220811417422e-11,-1.0 l -1.0,-1.3394441835893186e-11 l -1.3456675557612152e-11,1.0 l 1.0,1.351890927933112e-11 l 1.3581143001050085e-11,-1.0 l 1.0,1.351890927933112e-11 l 1.3581143001050085e-11,-1.0 l -1.0,-1.3643376722769051e-11 l 1.3581143001050085e-11,-1.0 l -1.0,-1.3643376722769051e-11 l 1.3581143001050085e-11,-1.0 l -1.0,-1.3643376722769051e-11 l -1.3705610444488017e-11,1.0 l 1.0,1.3767844166206983e-11 l 1.3830077887925949e-11,-1.0 l 1.0,1.3767844166206983e-11 l 1.3830077887925949e-11,-1.0 l -1.0,-1.3892311609644916e-11 l -1.3954545331363882e-11,1.0 l 1.0,1.4016779053082848e-11 l -1.3954545331363882e-11,1.0 l 1.0,1.4016779053082848e-11 l 1.4079012774801814e-11,-1.0 l -1.0,-1.414124649652078e-11 l -1.4203480218239747e-11,1.0 l -1.0,-1.414124649652078e-11 l -1.4203480218239747e-11,1.0 l 1.0,1.4265713939958713e-11 l 1.4327947661677679e-11,-1.0 l -1.0,-1.4390181383396645e-11 l 1.4327947661677679e-11,-1.0 l -1.0,-1.4390181383396645e-11 l -1.445241510511561e-11,1.0 l -1.0,-1.4390181383396645e-11 l -1.445241510511561e-11,1.0 l -1.0,-1.4390181383396645e-11 l -1.445241510511561e-11,1.0 l 1.0,1.4514648826834576e-11 l 1.4576882548553544e-11,-1.0 l -1.0,-1.463911627027251e-11 l 1.4576882548553544e-11,-1.0 l -1.0,-1.463911627027251e-11 l -1.4701349991991475e-11,1.0 l 1.0,1.476358371371044e-11 l 1.4825817435429407e-11,-1.0 l 1.0,1.476358371371044e-11 l 1.4825817435429407e-11,-1.0 l -1.0,-1.4888051157148373e-11 l -1.495028487886734e-11,1.0 l 1.0,1.5012518600586305e-11 l -1.495028487886734e-11,1.0 l 1.0,1.5012518600586305e-11 l 1.5074752322305274e-11,-1.0 l -1.0,-1.513698604402424e-11 l -1.5199219765743205e-11,1.0 l -1.0,-1.513698604402424e-11 l -1.5199219765743205e-11,1.0 l 1.0,1.526145348746217e-11 l -1.5199219765743205e-11,1.0 l 1.0,1.526145348746217e-11 l -1.5199219765743205e-11,1.0 l 1.0,1.526145348746217e-11 l 1.5323687209181137e-11,-1.0 l -1.0,-1.5385920930900103e-11 l -1.544815465261907e-11,1.0 l -1.0,-1.5385920930900103e-11 l -1.544815465261907e-11,1.0 l 1.0,1.5510388374338035e-11 l 1.5572622096057e-11,-1.0 l -1.0,-1.5634855817775966e-11 l 1.5572622096057e-11,-1.0 l -1.0,-1.5634855817775966e-11 l -1.5697089539494932e-11,1.0 l -1.0,-1.5634855817775966e-11 l -1.5697089539494932e-11,1.0 l -1.0,-1.5634855817775966e-11 l -1.5697089539494932e-11,1.0 l 1.0,1.57593232612139e-11 l 1.5821556982932867e-11,-1.0 l -1.0,-1.5883790704651833e-11 l 1.5821556982932867e-11,-1.0 l -1.0,-1.5883790704651833e-11 l -1.59460244263708e-11,1.0 l -1.0,-1.5883790704651833e-11 l -1.59460244263708e-11,1.0 l -1.0,-1.5883790704651833e-11 l -1.59460244263708e-11,1.0 l 1.0,1.6008258148089765e-11 l 1.607049186980873e-11,-1.0 l -1.0,-1.6132725591527696e-11 l 1.607049186980873e-11,-1.0 l -1.0,-1.6132725591527696e-11 l -1.6194959313246662e-11,1.0 l 1.0,1.6257193034965628e-11 l 1.6319426756684594e-11,-1.0 l 1.0,1.6257193034965628e-11 l 1.6319426756684594e-11,-1.0 l -1.0,-1.638166047840356e-11 l -1.644389420012253e-11,1.0 l 1.0,1.6506127921841495e-11 l -1.644389420012253e-11,1.0 l 1.0,1.6506127921841495e-11 l 1.656836164356046e-11,-1.0 l -1.0,-1.6630595365279426e-11 l -1.6692829086998392e-11,1.0 l -1.0,-1.6630595365279426e-11 l -1.6692829086998392e-11,1.0 l 1.0,1.6755062808717358e-11 l -1.6692829086998392e-11,1.0 l 1.0,1.6755062808717358e-11 l -1.6692829086998392e-11,1.0 l 1.0,1.6755062808717358e-11 l 1.6817296530436324e-11,-1.0 l -1.0,-1.687953025215529e-11 l -1.6941763973874255e-11,1.0 l -1.0,-1.687953025215529e-11 l -1.6941763973874255e-11,1.0 l 1.0,1.700399769559322e-11 l 1.7066231417312187e-11,-1.0 l -1.0,-1.7128465139031156e-11 l 1.7066231417312187e-11,-1.0 l -1.0,-1.7128465139031156e-11 l -1.7190698860750122e-11,1.0 l 1.0,1.7252932582469088e-11 l 1.7315166304188054e-11,-1.0 l 1.0,1.7252932582469088e-11 l 1.7315166304188054e-11,-1.0 l -1.0,-1.737740002590702e-11 l -1.7439633747625985e-11,1.0 l 1.0,1.750186746934495e-11 l -1.7439633747625985e-11,1.0 l 1.0,1.750186746934495e-11 l 1.7564101191063917e-11,-1.0 l 1.0,1.750186746934495e-11 l 1.7564101191063917e-11,-1.0 l 1.0,1.750186746934495e-11 l 1.7564101191063917e-11,-1.0 l -1.0,-1.7626334912782883e-11 l -1.768856863450185e-11,1.0 l 1.0,1.7750802356220815e-11 l -1.768856863450185e-11,1.0 l 1.0,1.7750802356220815e-11 l 1.781303607793978e-11,-1.0 l -1.0,-1.787526979965875e-11 l -1.7937503521377715e-11,1.0 l -1.0,-1.787526979965875e-11 l -1.7937503521377715e-11,1.0 l 1.0,1.799973724309668e-11 l 1.8061970964815647e-11,-1.0 l -1.0,-1.8124204686534613e-11 l 1.8061970964815647e-11,-1.0 l -1.0,-1.8124204686534613e-11 l -1.818643840825358e-11,1.0 l 1.0,1.8248672129972545e-11 l 1.831090585169151e-11,-1.0 l 1.0,1.8248672129972545e-11 l 1.831090585169151e-11,-1.0 l -1.0,-1.8373139573410476e-11 l 1.831090585169151e-11,-1.0 l -1.0,-1.8373139573410476e-11 l 1.831090585169151e-11,-1.0 l -1.0,-1.8373139573410476e-11 l -1.8435373295129442e-11,1.0 l 1.0,1.8497607016848408e-11 l 1.8559840738567377e-11,-1.0 l 1.0,1.8497607016848408e-11 l 1.8559840738567377e-11,-1.0 l -1.0,-1.8622074460286343e-11 l -1.868430818200531e-11,1.0 l 1.0,1.8746541903724275e-11 l -1.868430818200531e-11,1.0 l 1.0,1.8746541903724275e-11 l 1.880877562544324e-11,-1.0 l -1.0,-1.8871009347162206e-11 l -1.8933243068881172e-11,1.0 l -1.0,-1.8871009347162206e-11 l -1.8933243068881172e-11,1.0 l 1.0,1.8995476790600138e-11 l 1.9057710512319104e-11,-1.0 l -1.0,-1.911994423403807e-11 l 1.9057710512319104e-11,-1.0 l -1.0,-1.911994423403807e-11 l -1.9182177955757035e-11,1.0 l -1.0,-1.911994423403807e-11 l -1.9182177955757035e-11,1.0 l -1.0,-1.911994423403807e-11 l -1.9182177955757035e-11,1.0 l 1.0,1.9244411677476005e-11 l 1.930664539919497e-11,-1.0 l -1.0,-1.9368879120913936e-11 l 1.930664539919497e-11,-1.0 l -1.0,-1.9368879120913936e-11 l -1.9431112842632902e-11,1.0 l 1.0,1.9493346564351868e-11 l 1.9555580286070834e-11,-1.0 l 1.0,1.9493346564351868e-11 l 1.9555580286070834e-11,-1.0 l -1.0,-1.96178140077898e-11 l 1.9555580286070834e-11,-1.0 l -1.0,-1.96178140077898e-11 l 1.9555580286070834e-11,-1.0 l -1.0,-1.96178140077898e-11 l -1.9680047729508765e-11,1.0 l 1.0,1.974228145122773e-11 l 1.9804515172946697e-11,-1.0 l 1.0,1.974228145122773e-11 l 1.9804515172946697e-11,-1.0 l -1.0,-1.9866748894665663e-11 l 1.9804515172946697e-11,-1.0 l -1.0,-1.9866748894665663e-11 l 1.9804515172946697e-11,-1.0 l -1.0,-1.9866748894665663e-11 l -1.9928982616384632e-11,1.0 l 1.0,1.9991216338103598e-11 l 2.0053450059822564e-11,-1.0 l 1.0,1.9991216338103598e-11 l 2.0053450059822564e-11,-1.0 l -1.0,-2.011568378154153e-11 l -2.0177917503260495e-11,1.0 l 1.0,2.024015122497946e-11 l -2.0177917503260495e-11,1.0 l 1.0,2.024015122497946e-11 l 2.0302384946698427e-11,-1.0 l -1.0,-2.0364618668417393e-11 l -2.042685239013636e-11,1.0 l -1.0,-2.0364618668417393e-11 l -2.042685239013636e-11,1.0 l 1.0,2.0489086111855325e-11 l 2.055131983357429e-11,-1.0 l -1.0,-2.061355355529326e-11 l 2.055131983357429e-11,-1.0 l -1.0,-2.061355355529326e-11 l -2.0675787277012225e-11,1.0 l -1.0,-2.061355355529326e-11 l -2.0675787277012225e-11,1.0 l -1.0,-2.061355355529326e-11 l -2.0675787277012225e-11,1.0 l 1.0,2.073802099873119e-11 l 2.0800254720450157e-11,-1.0 l -1.0,-2.0862488442169123e-11 l 2.0800254720450157e-11,-1.0 l -1.0,-2.0862488442169123e-11 l -2.092472216388809e-11,1.0 l 1.0,2.0986955885607055e-11 l 2.104918960732602e-11,-1.0 l 1.0,2.0986955885607055e-11 l 2.104918960732602e-11,-1.0 l -1.0,-2.1111423329044986e-11 l -2.1173657050763952e-11,1.0 l 1.0,2.1235890772482918e-11 l -2.1173657050763952e-11,1.0 l 1.0,2.1235890772482918e-11 l 2.1298124494201887e-11,-1.0 l -1.0,-2.1360358215920853e-11 l -2.142259193763982e-11,1.0 l -1.0,-2.1360358215920853e-11 l -2.142259193763982e-11,1.0 l 1.0,2.1484825659358785e-11 l -2.142259193763982e-11,1.0 l 1.0,2.1484825659358785e-11 l -2.142259193763982e-11,1.0 l 1.0,2.1484825659358785e-11 l 2.154705938107775e-11,-1.0 l -1.0,-2.1609293102796716e-11 l -2.1671526824515682e-11,1.0 l -1.0,-2.1609293102796716e-11 l -2.1671526824515682e-11,1.0 l 1.0,2.1733760546234648e-11 l 2.1795994267953614e-11,-1.0 l -1.0,-2.185822798967258e-11 l 2.1795994267953614e-11,-1.0 l -1.0,-2.185822798967258e-11 l -2.1920461711391546e-11,1.0 " style="stroke-linecap:square;stroke:#50514F;stroke-width:0.2px;fill:none" /></g></svg>