<?xml version="1.0" encoding="UTF-8"?>
<!DOCTYPE svg PUBLIC "-//W3C//DTD SVG 1.1//EN"
    "http://www.w3.org/Graphics/SVG/1.1/DTD/svg11.dtd">
<svg xmlns="http://www.w3.org/2000/svg" xmlns:xlink="http://www.w3.org/1999/xlink" version="1.1" width="499.99999999965735" height="500" viewBox="-10.100000000006567 -5.100000000021772 25.20000000001043 25.2000000000277"><g><rect x="-10.100000000006567" y="-5.100000000021772" width="25.20000000001043" height="25.2000000000277" fill="#CBD4C2" /><path d="M 0,0 l -1.8369701987210297e-16,-1.0 l -1.8369701987210297e-16,-1.0 l -1.0,1.2246467991473532e-16 l -1.8369701987210297e-16,-1.0 l -1.0,1.2246467991473532e-16 l 6.123233995736766e-17,1.0 l 6.123233995736766e-17,1.0 l 6.123233995736766e-17,1.0 l 6.123233995736766e-17,1.0 l 1.0,0.0 l 6.123233995736766e-17,1.0 l 1.0,0.0 l 6.123233995736766e-17,-1.0 l 6.123233995736766e-17,-1.0 l -1.0,-1.2246467991473532e-16 l -1.0,-1.2246467991473532e-16 l -1.8369701987210297e-16,1.0 l -1.0,-1.2246467991473532e-16 l -1.8369701987210297e-16,1.0 l 1.0,2.4492935982947064e-16 l 1.0,2.4492935982947064e-16 l -1.8369701987210297e-16,1.0 l -1.8369701987210297e-16,1.0 l 1.0,2.4492935982947064e-16 l -1.8369701987210297e-16,1.0 l 1.0,2.4492935982947064e-16 l 3.061616997868383e-16,-1.0 l 3.061616997868383e-16,-1.0 l -1.0,-3.6739403974420594e-16 l -1.0,-3.6739403974420594e-16 l -4.286263797015736e-16,1.0 l -1.0,-3.6739403974420594e-16 l -4.286263797015736e-16,1.0 l 1.0,4.898587196589413e-16 l 1.0,4.898587196589413e-16 l 5.51091059616309e-16,-1.0 l 5.51091059616309e-16,-1.0 l -1.0,-6.123233995736766e-16 l 5.51091059616309e-16,-1.0 l -1.0,-6.123233995736766e-16 l -2.4499125789312946e-15,1.0 l -2.4499125789312946e-15,1.0 l -2.4499125789312946e-15,1.0 l -2.4499125789312946e-15,1.0 l 1.0,7.347880794884119e-16 l -2.4499125789312946e-15,1.0 l 1.0,7.347880794884119e-16 l -9.803364199544708e-16,-1.0 l -9.803364199544708e-16,-1.0 l -9.803364199544708e-16,-1.0 l -9.803364199544708e-16,-1.0 l -1.0,2.6954609193973537e-15 l -9.803364199544708e-16,-1.0 l -1.0,2.6954609193973537e-15 l 4.410585418840236e-15,1.0 l 4.410585418840236e-15,1.0 l 4.410585418840236e-15,1.0 l 4.410585418840236e-15,1.0 l 1.0,-6.125709918283119e-15 l 4.410585418840236e-15,1.0 l 1.0,-6.125709918283119e-15 l -7.840834417726002e-15,-1.0 l -7.840834417726002e-15,-1.0 l -1.0,9.555958917168885e-15 l -1.0,9.555958917168885e-15 l 1.1271083416611768e-14,1.0 l -1.0,9.555958917168885e-15 l 1.1271083416611768e-14,1.0 l 1.0,-1.298620791605465e-14 l 1.0,-1.298620791605465e-14 l 1.1271083416611768e-14,1.0 l 1.1271083416611768e-14,1.0 l 1.0,-1.298620791605465e-14 l 1.1271083416611768e-14,1.0 l 1.0,-1.298620791605465e-14 l -1.4701332415497532e-14,-1.0 l -1.4701332415497532e-14,-1.0 l -1.0,1.6416456914940415e-14 l -1.0,1.6416456914940415e-14 l 1.8131581414383298e-14,1.0 l -1.0,1.6416456914940415e-14 l 1.8131581414383298e-14,1.0 l 1.0,-1.984670591382618e-14 l 1.0,-1.984670591382618e-14 l -2.1561830413269064e-14,-1.0 l -2.1561830413269064e-14,-1.0 l -1.0,2.3276954912711946e-14 l -2.1561830413269064e-14,-1.0 l -1.0,2.3276954912711946e-14 l 2.499207941215483e-14,1.0 l 2.499207941215483e-14,1.0 l 2.499207941215483e-14,1.0 l 2.499207941215483e-14,1.0 l 1.0,-2.6707203911597712e-14 l 2.499207941215483e-14,1.0 l 1.0,-2.6707203911597712e-14 l -2.84223284110406e-14,-1.0 l -2.84223284110406e-14,-1.0 l -1.0,3.013745291048348e-14 l -1.0,3.013745291048348e-14 l 3.1852577409926364e-14,1.0 l -1.0,3.013745291048348e-14 l 3.1852577409926364e-14,1.0 l 1.0,-3.356770190936925e-14 l 1.0,-3.356770190936925e-14 l 1.0,-3.356770190936925e-14 l 1.0,-3.356770190936925e-14 l -3.528282640881213e-14,-1.0 l 1.0,-3.356770190936925e-14 l -3.528282640881213e-14,-1.0 l -1.0,3.699795090825501e-14 l -1.0,3.699795090825501e-14 l 3.8713075407697896e-14,1.0 l 3.8713075407697896e-14,1.0 l 1.0,-4.042819990714078e-14 l 3.8713075407697896e-14,1.0 l 1.0,-4.042819990714078e-14 l -4.214332440658366e-14,-1.0 l -4.214332440658366e-14,-1.0 l 1.0,-4.042819990714078e-14 l 1.0,-4.042819990714078e-14 l -4.214332440658366e-14,-1.0 l 1.0,-4.042819990714078e-14 l -4.214332440658366e-14,-1.0 l -1.0,4.385844890602654e-14 l -1.0,4.385844890602654e-14 l 4.557357340546942e-14,1.0 l 4.557357340546942e-14,1.0 l 1.0,-4.7288697904912304e-14 l 4.557357340546942e-14,1.0 l 1.0,-4.7288697904912304e-14 l -4.9003822404355187e-14,-1.0 l -4.9003822404355187e-14,-1.0 l -1.0,4.361351954619707e-14 l -1.0,4.361351954619707e-14 l 3.822321668803895e-14,1.0 l -1.0,4.361351954619707e-14 l 3.822321668803895e-14,1.0 l 1.0,-3.283291382988083e-14 l 1.0,-3.283291382988083e-14 l 1.0,-3.283291382988083e-14 l 1.0,-3.283291382988083e-14 l -2.7442610971722714e-14,-1.0 l 1.0,-3.283291382988083e-14 l -2.7442610971722714e-14,-1.0 l -1.0,2.2052308113564595e-14 l -1.0,2.2052308113564595e-14 l -2.7442610971722714e-14,-1.0 l -2.7442610971722714e-14,-1.0 l -1.0,2.2052308113564595e-14 l -2.7442610971722714e-14,-1.0 l -1.0,2.2052308113564595e-14 l 1.6662005255406476e-14,1.0 l 1.6662005255406476e-14,1.0 l 1.6662005255406476e-14,1.0 l 1.6662005255406476e-14,1.0 l 1.0,-1.1271702397248355e-14 l 1.6662005255406476e-14,1.0 l 1.0,-1.1271702397248355e-14 l -5.881399539090237e-15,-1.0 l -5.881399539090237e-15,-1.0 l -1.0,4.91096680932118e-16 l -1.0,4.91096680932118e-16 l -4.899206177226001e-15,1.0 l -1.0,4.91096680932118e-16 l -4.899206177226001e-15,1.0 l 1.0,1.028950903538412e-14 l 1.0,1.028950903538412e-14 l -4.899206177226001e-15,1.0 l -4.899206177226001e-15,1.0 l 1.0,1.028950903538412e-14 l -4.899206177226001e-15,1.0 l 1.0,1.028950903538412e-14 l 1.5679811893542238e-14,-1.0 l 1.5679811893542238e-14,-1.0 l -1.0,-2.1070114751700357e-14 l -1.0,-2.1070114751700357e-14 l -2.6460417609858476e-14,1.0 l -1.0,-2.1070114751700357e-14 l -2.6460417609858476e-14,1.0 l 1.0,3.18507204680166e-14 l 1.0,3.18507204680166e-14 l 3.724102332617472e-14,-1.0 l 3.724102332617472e-14,-1.0 l -1.0,-4.2631326184332836e-14 l 3.724102332617472e-14,-1.0 l -1.0,-4.2631326184332836e-14 l -4.8021629042490955e-14,1.0 l -4.8021629042490955e-14,1.0 l -4.8021629042490955e-14,1.0 l -4.8021629042490955e-14,1.0 l 1.0,5.3411931900649074e-14 l -4.8021629042490955e-14,1.0 l 1.0,5.3411931900649074e-14 l 5.880223475880719e-14,-1.0 l 5.880223475880719e-14,-1.0 l -1.0,-6.41925376169653e-14 l -1.0,-6.41925376169653e-14 l -6.958284047512342e-14,1.0 l -1.0,-6.41925376169653e-14 l -6.958284047512342e-14,1.0 l 1.0,7.497314333328154e-14 l 1.0,7.497314333328154e-14 l 1.0,7.497314333328154e-14 l 1.0,7.497314333328154e-14 l 8.036344619143966e-14,-1.0 l 1.0,7.497314333328154e-14 l 8.036344619143966e-14,-1.0 l -1.0,-8.575374904959778e-14 l -1.0,-8.575374904959778e-14 l -9.11440519077559e-14,1.0 l -9.11440519077559e-14,1.0 l 1.0,9.653435476591402e-14 l -9.11440519077559e-14,1.0 l 1.0,9.653435476591402e-14 l 1.0192465762407214e-13,-1.0 l 1.0192465762407214e-13,-1.0 l 1.0,9.653435476591402e-14 l 1.0,9.653435476591402e-14 l 1.0192465762407214e-13,-1.0 l 1.0,9.653435476591402e-14 l 1.0192465762407214e-13,-1.0 l -1.0,-1.0731496048223026e-13 l -1.0,-1.0731496048223026e-13 l -1.1270526334038838e-13,1.0 l -1.1270526334038838e-13,1.0 l 1.0,1.180955661985465e-13 l -1.1270526334038838e-13,1.0 l 1.0,1.180955661985465e-13 l 1.2348586905670463e-13,-1.0 l 1.2348586905670463e-13,-1.0 l -1.0,-1.2887617191486273e-13 l -1.0,-1.2887617191486273e-13 l -1.3426647477302086e-13,1.0 l -1.0,-1.2887617191486273e-13 l -1.3426647477302086e-13,1.0 l 1.0,1.3965677763117897e-13 l 1.0,1.3965677763117897e-13 l 1.0,1.3965677763117897e-13 l 1.0,1.3965677763117897e-13 l 1.450470804893371e-13,-1.0 l 1.0,1.3965677763117897e-13 l 1.450470804893371e-13,-1.0 l -1.0,-1.504373833474952e-13 l -1.0,-1.504373833474952e-13 l -1.5582768620565334e-13,1.0 l -1.5582768620565334e-13,1.0 l 1.0,1.6121798906381145e-13 l -1.5582768620565334e-13,1.0 l 1.0,1.6121798906381145e-13 l 1.6660829192196958e-13,-1.0 l 1.6660829192196958e-13,-1.0 l 1.6660829192196958e-13,-1.0 l 1.6660829192196958e-13,-1.0 l -1.0,-1.5778774006492568e-13 l 1.5239743720676757e-13,-1.0 l -1.0,-1.5778774006492568e-13 l -1.6317804292308381e-13,1.0 l -1.6317804292308381e-13,1.0 l 1.0,1.6856834578124192e-13 l 1.0,1.6856834578124192e-13 l 1.7395864863940005e-13,-1.0 l 1.0,1.6856834578124192e-13 l 1.7395864863940005e-13,-1.0 l -1.0,-1.7934895149755816e-13 l -1.0,-1.7934895149755816e-13 l 1.7395864863940005e-13,-1.0 l 1.7395864863940005e-13,-1.0 l -1.0,-1.7934895149755816e-13 l 1.7395864863940005e-13,-1.0 l -1.0,-1.7934895149755816e-13 l -1.847392543557163e-13,1.0 l -1.847392543557163e-13,1.0 l 1.0,1.901295572138744e-13 l 1.0,1.901295572138744e-13 l 1.9551986007203253e-13,-1.0 l 1.0,1.901295572138744e-13 l 1.9551986007203253e-13,-1.0 l -1.0,-2.0091016293019063e-13 l -1.0,-2.0091016293019063e-13 l -2.0630046578834876e-13,1.0 l -2.0630046578834876e-13,1.0 l 1.0,2.1169076864650687e-13 l -2.0630046578834876e-13,1.0 l 1.0,2.1169076864650687e-13 l 2.17081071504665e-13,-1.0 l 2.17081071504665e-13,-1.0 l 2.17081071504665e-13,-1.0 l 2.17081071504665e-13,-1.0 l -1.0,-2.224713743628231e-13 l 2.17081071504665e-13,-1.0 l -1.0,-2.224713743628231e-13 l -2.278616772209812e-13,1.0 l -2.278616772209812e-13,1.0 l -2.278616772209812e-13,1.0 l -2.278616772209812e-13,1.0 l 1.0,2.3325198007913935e-13 l -2.278616772209812e-13,1.0 l 1.0,2.3325198007913935e-13 l 2.386422829372975e-13,-1.0 l 2.386422829372975e-13,-1.0 l 2.386422829372975e-13,-1.0 l 2.386422829372975e-13,-1.0 l -1.0,-2.440325857954556e-13 l 2.386422829372975e-13,-1.0 l -1.0,-2.440325857954556e-13 l -2.494228886536137e-13,1.0 l -2.494228886536137e-13,1.0 l 1.0,2.548131915117718e-13 l 1.0,2.548131915117718e-13 l 2.6020349436992995e-13,-1.0 l 1.0,2.548131915117718e-13 l 2.6020349436992995e-13,-1.0 l -1.0,-2.655937972280881e-13 l -1.0,-2.655937972280881e-13 l 2.6020349436992995e-13,-1.0 l 2.6020349436992995e-13,-1.0 l -1.0,-2.655937972280881e-13 l 2.6020349436992995e-13,-1.0 l -1.0,-2.655937972280881e-13 l -2.7098410008624617e-13,1.0 l -2.7098410008624617e-13,1.0 l 1.0,2.763744029444043e-13 l 1.0,2.763744029444043e-13 l 2.8176470580256243e-13,-1.0 l 1.0,2.763744029444043e-13 l 2.8176470580256243e-13,-1.0 l -1.0,-2.8715500866072056e-13 l -1.0,-2.8715500866072056e-13 l -2.9254531151887864e-13,1.0 l -2.9254531151887864e-13,1.0 l 1.0,2.9793561437703677e-13 l -2.9254531151887864e-13,1.0 l 1.0,2.9793561437703677e-13 l 3.033259172351949e-13,-1.0 l 3.033259172351949e-13,-1.0 l 3.033259172351949e-13,-1.0 l 3.033259172351949e-13,-1.0 l -1.0,-3.0871622009335304e-13 l 3.033259172351949e-13,-1.0 l -1.0,-3.0871622009335304e-13 l -3.141065229515111e-13,1.0 l -3.141065229515111e-13,1.0 l 1.0,3.1949682580966925e-13 l 1.0,3.1949682580966925e-13 l 3.248871286678274e-13,-1.0 l 1.0,3.1949682580966925e-13 l 3.248871286678274e-13,-1.0 l -1.0,-3.302774315259855e-13 l -1.0,-3.302774315259855e-13 l -1.0,-3.302774315259855e-13 l -1.0,-3.302774315259855e-13 l -3.356677343841436e-13,1.0 l -1.0,-3.302774315259855e-13 l -3.356677343841436e-13,1.0 l 1.0,3.4105803724230173e-13 l 1.0,3.4105803724230173e-13 l 3.4644834010045986e-13,-1.0 l 3.4644834010045986e-13,-1.0 l -1.0,-3.51838642958618e-13 l 3.4644834010045986e-13,-1.0 l -1.0,-3.51838642958618e-13 l -3.5722894581677607e-13,1.0 l -3.5722894581677607e-13,1.0 l -1.0,-3.51838642958618e-13 l -1.0,-3.51838642958618e-13 l -3.5722894581677607e-13,1.0 l -1.0,-3.51838642958618e-13 l -3.5722894581677607e-13,1.0 l 1.0,3.626192486749342e-13 l 1.0,3.626192486749342e-13 l 3.6800955153309233e-13,-1.0 l 3.6800955153309233e-13,-1.0 l -1.0,-3.7339985439125047e-13 l 3.6800955153309233e-13,-1.0 l -1.0,-3.7339985439125047e-13 l -3.7879015724940855e-13,1.0 l -3.7879015724940855e-13,1.0 l 1.0,3.841804601075667e-13 l 1.0,3.841804601075667e-13 l 3.895707629657248e-13,-1.0 l 1.0,3.841804601075667e-13 l 3.895707629657248e-13,-1.0 l -1.0,-3.9496106582388294e-13 l -1.0,-3.9496106582388294e-13 l -1.0,-3.9496106582388294e-13 l -1.0,-3.9496106582388294e-13 l -4.00351368682041e-13,1.0 l -1.0,-3.9496106582388294e-13 l -4.00351368682041e-13,1.0 l 1.0,4.0574167154019915e-13 l 1.0,4.0574167154019915e-13 l 1.0,4.0574167154019915e-13 l 1.0,4.0574167154019915e-13 l 4.111319743983573e-13,-1.0 l 1.0,4.0574167154019915e-13 l 4.111319743983573e-13,-1.0 l -1.0,-4.165222772565154e-13 l -1.0,-4.165222772565154e-13 l -1.0,-4.165222772565154e-13 l -1.0,-4.165222772565154e-13 l -4.219125801146735e-13,1.0 l -1.0,-4.165222772565154e-13 l -4.219125801146735e-13,1.0 l 1.0,4.2730288297283163e-13 l 1.0,4.2730288297283163e-13 l 4.3269318583098976e-13,-1.0 l 4.3269318583098976e-13,-1.0 l -1.0,-4.380834886891479e-13 l 4.3269318583098976e-13,-1.0 l -1.0,-4.380834886891479e-13 l -4.4347379154730597e-13,1.0 l -4.4347379154730597e-13,1.0 l -1.0,-4.380834886891479e-13 l -1.0,-4.380834886891479e-13 l -4.4347379154730597e-13,1.0 l -1.0,-4.380834886891479e-13 l -4.4347379154730597e-13,1.0 l 1.0,4.488640944054641e-13 l 1.0,4.488640944054641e-13 l 4.5425439726362224e-13,-1.0 l 4.5425439726362224e-13,-1.0 l -1.0,-4.596447001217804e-13 l 4.5425439726362224e-13,-1.0 l -1.0,-4.596447001217804e-13 l -4.650350029799385e-13,1.0 l -4.650350029799385e-13,1.0 l 1.0,4.704253058380966e-13 l 1.0,4.704253058380966e-13 l 4.758156086962547e-13,-1.0 l 1.0,4.704253058380966e-13 l 4.758156086962547e-13,-1.0 l -1.0,-4.812059115544128e-13 l -1.0,-4.812059115544128e-13 l -1.0,-4.812059115544128e-13 l -1.0,-4.812059115544128e-13 l -4.865962144125709e-13,1.0 l -1.0,-4.812059115544128e-13 l -4.865962144125709e-13,1.0 l 1.0,4.919865172707291e-13 l 1.0,4.919865172707291e-13 l 4.973768201288872e-13,-1.0 l 4.973768201288872e-13,-1.0 l -1.0,-5.027671229870453e-13 l 4.973768201288872e-13,-1.0 l -1.0,-5.027671229870453e-13 l -5.081574258452035e-13,1.0 l -5.081574258452035e-13,1.0 l -5.081574258452035e-13,1.0 l -5.081574258452035e-13,1.0 l 1.0,5.135477287033616e-13 l -5.081574258452035e-13,1.0 l 1.0,5.135477287033616e-13 l 5.189380315615197e-13,-1.0 l 5.189380315615197e-13,-1.0 l -1.0,-5.243283344196777e-13 l -1.0,-5.243283344196777e-13 l -5.297186372778359e-13,1.0 l -1.0,-5.243283344196777e-13 l -5.297186372778359e-13,1.0 l 1.0,5.35108940135994e-13 l 1.0,5.35108940135994e-13 l -5.297186372778359e-13,1.0 l -5.297186372778359e-13,1.0 l 1.0,5.35108940135994e-13 l -5.297186372778359e-13,1.0 l 1.0,5.35108940135994e-13 l 5.404992429941521e-13,-1.0 l 5.404992429941521e-13,-1.0 l -1.0,-5.458895458523103e-13 l -1.0,-5.458895458523103e-13 l -5.512798487104684e-13,1.0 l -1.0,-5.458895458523103e-13 l -5.512798487104684e-13,1.0 l 1.0,5.566701515686265e-13 l 1.0,5.566701515686265e-13 l 5.620604544267847e-13,-1.0 l 5.620604544267847e-13,-1.0 l -1.0,-5.674507572849427e-13 l 5.620604544267847e-13,-1.0 l -1.0,-5.674507572849427e-13 l -5.728410601431008e-13,1.0 l -5.728410601431008e-13,1.0 l -5.728410601431008e-13,1.0 l -5.728410601431008e-13,1.0 l 1.0,5.78231363001259e-13 l -5.728410601431008e-13,1.0 l 1.0,5.78231363001259e-13 l 5.836216658594171e-13,-1.0 l 5.836216658594171e-13,-1.0 l 1.0,5.78231363001259e-13 l 1.0,5.78231363001259e-13 l 5.836216658594171e-13,-1.0 l 1.0,5.78231363001259e-13 l 5.836216658594171e-13,-1.0 l -1.0,-5.890119687175752e-13 l -1.0,-5.890119687175752e-13 l -1.0,-5.890119687175752e-13 l -1.0,-5.890119687175752e-13 l -5.944022715757334e-13,1.0 l -1.0,-5.890119687175752e-13 l -5.944022715757334e-13,1.0 l 1.0,5.997925744338915e-13 l 1.0,5.997925744338915e-13 l 6.051828772920496e-13,-1.0 l 6.051828772920496e-13,-1.0 l -1.0,-6.105731801502076e-13 l 6.051828772920496e-13,-1.0 l -1.0,-6.105731801502076e-13 l -6.159634830083658e-13,1.0 l -6.159634830083658e-13,1.0 l -1.0,-6.105731801502076e-13 l -1.0,-6.105731801502076e-13 l -6.159634830083658e-13,1.0 l -1.0,-6.105731801502076e-13 l -6.159634830083658e-13,1.0 l 1.0,6.213537858665239e-13 l 1.0,6.213537858665239e-13 l 6.26744088724682e-13,-1.0 l 6.26744088724682e-13,-1.0 l -1.0,-6.321343915828402e-13 l 6.26744088724682e-13,-1.0 l -1.0,-6.321343915828402e-13 l -6.375246944409983e-13,1.0 l -6.375246944409983e-13,1.0 l 1.0,6.429149972991564e-13 l 1.0,6.429149972991564e-13 l 6.483053001573146e-13,-1.0 l 1.0,6.429149972991564e-13 l 6.483053001573146e-13,-1.0 l -1.0,-6.536956030154726e-13 l -1.0,-6.536956030154726e-13 l -1.0,-6.536956030154726e-13 l -1.0,-6.536956030154726e-13 l -6.590859058736307e-13,1.0 l -1.0,-6.536956030154726e-13 l -6.590859058736307e-13,1.0 l 1.0,6.644762087317889e-13 l 1.0,6.644762087317889e-13 l 6.69866511589947e-13,-1.0 l 6.69866511589947e-13,-1.0 l -1.0,-6.752568144481051e-13 l 6.69866511589947e-13,-1.0 l -1.0,-6.752568144481051e-13 l -6.806471173062633e-13,1.0 l -6.806471173062633e-13,1.0 l -6.806471173062633e-13,1.0 l -6.806471173062633e-13,1.0 l 1.0,6.860374201644214e-13 l -6.806471173062633e-13,1.0 l 1.0,6.860374201644214e-13 l 6.914277230225795e-13,-1.0 l 6.914277230225795e-13,-1.0 l -1.0,-6.968180258807376e-13 l -1.0,-6.968180258807376e-13 l -7.022083287388957e-13,1.0 l -1.0,-6.968180258807376e-13 l -7.022083287388957e-13,1.0 l 1.0,7.075986315970538e-13 l 1.0,7.075986315970538e-13 l -7.022083287388957e-13,1.0 l -7.022083287388957e-13,1.0 l 1.0,7.075986315970538e-13 l -7.022083287388957e-13,1.0 l 1.0,7.075986315970538e-13 l 7.129889344552119e-13,-1.0 l 7.129889344552119e-13,-1.0 l -1.0,-7.183792373133701e-13 l -1.0,-7.183792373133701e-13 l -7.237695401715282e-13,1.0 l -1.0,-7.183792373133701e-13 l -7.237695401715282e-13,1.0 l 1.0,7.291598430296863e-13 l 1.0,7.291598430296863e-13 l 7.345501458878445e-13,-1.0 l 7.345501458878445e-13,-1.0 l -1.0,-7.399404487460025e-13 l 7.345501458878445e-13,-1.0 l -1.0,-7.399404487460025e-13 l -7.453307516041606e-13,1.0 l -7.453307516041606e-13,1.0 l -7.453307516041606e-13,1.0 l -7.453307516041606e-13,1.0 l 1.0,7.507210544623188e-13 l -7.453307516041606e-13,1.0 l 1.0,7.507210544623188e-13 l 7.561113573204769e-13,-1.0 l 7.561113573204769e-13,-1.0 l -1.0,-7.61501660178635e-13 l -1.0,-7.61501660178635e-13 l -7.668919630367932e-13,1.0 l -1.0,-7.61501660178635e-13 l -7.668919630367932e-13,1.0 l 1.0,7.722822658949513e-13 l 1.0,7.722822658949513e-13 l 1.0,7.722822658949513e-13 l 1.0,7.722822658949513e-13 l 7.776725687531094e-13,-1.0 l 1.0,7.722822658949513e-13 l 7.776725687531094e-13,-1.0 l -1.0,-7.830628716112675e-13 l -1.0,-7.830628716112675e-13 l -7.884531744694256e-13,1.0 l -7.884531744694256e-13,1.0 l 1.0,7.938434773275837e-13 l -7.884531744694256e-13,1.0 l 1.0,7.938434773275837e-13 l 7.992337801857419e-13,-1.0 l 7.992337801857419e-13,-1.0 l 1.0,7.938434773275837e-13 l 1.0,7.938434773275837e-13 l 7.992337801857419e-13,-1.0 l 1.0,7.938434773275837e-13 l 7.992337801857419e-13,-1.0 l -1.0,-8.046240830439e-13 l -1.0,-8.046240830439e-13 l -8.100143859020581e-13,1.0 l -8.100143859020581e-13,1.0 l 1.0,8.154046887602162e-13 l -8.100143859020581e-13,1.0 l 1.0,8.154046887602162e-13 l 8.207949916183744e-13,-1.0 l 8.207949916183744e-13,-1.0 l -1.0,-8.261852944765324e-13 l -1.0,-8.261852944765324e-13 l -8.315755973346905e-13,1.0 l -1.0,-8.261852944765324e-13 l -8.315755973346905e-13,1.0 l 1.0,8.369659001928487e-13 l 1.0,8.369659001928487e-13 l 1.0,8.369659001928487e-13 l 1.0,8.369659001928487e-13 l 8.423562030510068e-13,-1.0 l 1.0,8.369659001928487e-13 l 8.423562030510068e-13,-1.0 l -1.0,-8.477465059091649e-13 l -1.0,-8.477465059091649e-13 l -1.0,-8.477465059091649e-13 l -1.0,-8.477465059091649e-13 l -8.531368087673231e-13,1.0 l -1.0,-8.477465059091649e-13 l -8.531368087673231e-13,1.0 l 1.0,8.585271116254812e-13 l 1.0,8.585271116254812e-13 l 1.0,8.585271116254812e-13 l 1.0,8.585271116254812e-13 l 8.639174144836393e-13,-1.0 l 1.0,8.585271116254812e-13 l 8.639174144836393e-13,-1.0 l -1.0,-8.693077173417974e-13 l -1.0,-8.693077173417974e-13 l -8.746980201999555e-13,1.0 l -8.746980201999555e-13,1.0 l 1.0,8.800883230581136e-13 l -8.746980201999555e-13,1.0 l 1.0,8.800883230581136e-13 l 8.854786259162718e-13,-1.0 l 8.854786259162718e-13,-1.0 l 1.0,8.800883230581136e-13 l 1.0,8.800883230581136e-13 l 8.854786259162718e-13,-1.0 l 1.0,8.800883230581136e-13 l 8.854786259162718e-13,-1.0 l -1.0,-8.908689287744299e-13 l -1.0,-8.908689287744299e-13 l -8.96259231632588e-13,1.0 l -8.96259231632588e-13,1.0 l 1.0,9.016495344907461e-13 l -8.96259231632588e-13,1.0 l 1.0,9.016495344907461e-13 l 9.070398373489043e-13,-1.0 l 9.070398373489043e-13,-1.0 l -1.0,-9.124301402070623e-13 l -1.0,-9.124301402070623e-13 l -9.178204430652205e-13,1.0 l -1.0,-9.124301402070623e-13 l -9.178204430652205e-13,1.0 l 1.0,9.232107459233786e-13 l 1.0,9.232107459233786e-13 l 1.0,9.232107459233786e-13 l 1.0,9.232107459233786e-13 l 9.286010487815368e-13,-1.0 l 1.0,9.232107459233786e-13 l 9.286010487815368e-13,-1.0 l -1.0,-9.339913516396948e-13 l -1.0,-9.339913516396948e-13 l -9.393816544978529e-13,1.0 l -9.393816544978529e-13,1.0 l 1.0,9.44771957356011e-13 l -9.393816544978529e-13,1.0 l 1.0,9.44771957356011e-13 l 9.501622602141691e-13,-1.0 l 9.501622602141691e-13,-1.0 l 9.501622602141691e-13,-1.0 l 9.501622602141691e-13,-1.0 l -1.0,-9.555525630723274e-13 l 9.501622602141691e-13,-1.0 l -1.0,-9.555525630723274e-13 l -9.609428659304854e-13,1.0 l -9.609428659304854e-13,1.0 l 1.0,9.663331687886436e-13 l 1.0,9.663331687886436e-13 l 9.717234716468017e-13,-1.0 l 1.0,9.663331687886436e-13 l 9.717234716468017e-13,-1.0 l -1.0,-9.771137745049597e-13 l -1.0,-9.771137745049597e-13 l 9.717234716468017e-13,-1.0 l 9.717234716468017e-13,-1.0 l -1.0,-9.771137745049597e-13 l 9.717234716468017e-13,-1.0 l -1.0,-9.771137745049597e-13 l -9.82504077363118e-13,1.0 l -9.82504077363118e-13,1.0 l 1.0,9.87894380221276e-13 l 1.0,9.87894380221276e-13 l 9.932846830794342e-13,-1.0 l 1.0,9.87894380221276e-13 l 9.932846830794342e-13,-1.0 l -1.0,-9.986749859375922e-13 l -1.0,-9.986749859375922e-13 l -1.0040652887957504e-12,1.0 l -1.0040652887957504e-12,1.0 l 1.0,1.0094555916539085e-12 l -1.0040652887957504e-12,1.0 l 1.0,1.0094555916539085e-12 l 1.0148458945120667e-12,-1.0 l 1.0148458945120667e-12,-1.0 l 1.0148458945120667e-12,-1.0 l 1.0148458945120667e-12,-1.0 l -1.0,-1.0202361973702247e-12 l 1.0148458945120667e-12,-1.0 l -1.0,-1.0202361973702247e-12 l -1.0256265002283828e-12,1.0 l -1.0256265002283828e-12,1.0 l -1.0256265002283828e-12,1.0 l -1.0256265002283828e-12,1.0 l 1.0,1.031016803086541e-12 l -1.0256265002283828e-12,1.0 l 1.0,1.031016803086541e-12 l 1.036407105944699e-12,-1.0 l 1.036407105944699e-12,-1.0 l 1.036407105944699e-12,-1.0 l 1.036407105944699e-12,-1.0 l -1.0,-1.0417974088028573e-12 l 1.036407105944699e-12,-1.0 l -1.0,-1.0417974088028573e-12 l -1.0471877116610153e-12,1.0 l -1.0471877116610153e-12,1.0 l 1.0,1.0525780145191735e-12 l 1.0,1.0525780145191735e-12 l 1.0579683173773316e-12,-1.0 l 1.0,1.0525780145191735e-12 l 1.0579683173773316e-12,-1.0 l -1.0,-1.0633586202354896e-12 l -1.0,-1.0633586202354896e-12 l 1.0579683173773316e-12,-1.0 l 1.0579683173773316e-12,-1.0 l -1.0,-1.0633586202354896e-12 l 1.0579683173773316e-12,-1.0 l -1.0,-1.0633586202354896e-12 l -1.0687489230936478e-12,1.0 l -1.0687489230936478e-12,1.0 l 1.0,1.0741392259518059e-12 l 1.0,1.0741392259518059e-12 l 1.079529528809964e-12,-1.0 l 1.0,1.0741392259518059e-12 l 1.079529528809964e-12,-1.0 l -1.0,-1.0849198316681221e-12 l -1.0,-1.0849198316681221e-12 l -1.0903101345262804e-12,1.0 l -1.0903101345262804e-12,1.0 l 1.0,1.0957004373844384e-12 l -1.0903101345262804e-12,1.0 l 1.0,1.0957004373844384e-12 l 1.1010907402425966e-12,-1.0 l 1.1010907402425966e-12,-1.0 l 1.1010907402425966e-12,-1.0 l 1.1010907402425966e-12,-1.0 l -1.0,-1.1064810431007546e-12 l 1.1010907402425966e-12,-1.0 l -1.0,-1.1064810431007546e-12 l -1.1118713459589127e-12,1.0 l -1.1118713459589127e-12,1.0 l 1.0,1.117261648817071e-12 l 1.0,1.117261648817071e-12 l 1.122651951675229e-12,-1.0 l 1.0,1.117261648817071e-12 l 1.122651951675229e-12,-1.0 l -1.0,-1.1280422545333872e-12 l -1.0,-1.1280422545333872e-12 l -1.0,-1.1280422545333872e-12 l -1.0,-1.1280422545333872e-12 l -1.1334325573915452e-12,1.0 l -1.0,-1.1280422545333872e-12 l -1.1334325573915452e-12,1.0 l 1.0,1.1388228602497034e-12 l 1.0,1.1388228602497034e-12 l 1.1442131631078615e-12,-1.0 l 1.1442131631078615e-12,-1.0 l -1.0,-1.1496034659660195e-12 l 1.1442131631078615e-12,-1.0 l -1.0,-1.1496034659660195e-12 l -1.1549937688241777e-12,1.0 l -1.1549937688241777e-12,1.0 l -1.0,-1.1496034659660195e-12 l -1.0,-1.1496034659660195e-12 l -1.1549937688241777e-12,1.0 l -1.0,-1.1496034659660195e-12 l -1.1549937688241777e-12,1.0 l 1.0,1.1603840716823358e-12 l 1.0,1.1603840716823358e-12 l 1.165774374540494e-12,-1.0 l 1.165774374540494e-12,-1.0 l -1.0,-1.171164677398652e-12 l 1.165774374540494e-12,-1.0 l -1.0,-1.171164677398652e-12 l -1.1765549802568103e-12,1.0 l -1.1765549802568103e-12,1.0 l 1.0,1.1819452831149683e-12 l 1.0,1.1819452831149683e-12 l 1.1873355859731265e-12,-1.0 l 1.0,1.1819452831149683e-12 l 1.1873355859731265e-12,-1.0 l -1.0,-1.1927258888312845e-12 l -1.0,-1.1927258888312845e-12 l -1.0,-1.1927258888312845e-12 l -1.0,-1.1927258888312845e-12 l -1.1981161916894426e-12,1.0 l -1.0,-1.1927258888312845e-12 l -1.1981161916894426e-12,1.0 l 1.0,1.2035064945476008e-12 l 1.0,1.2035064945476008e-12 l -1.1981161916894426e-12,1.0 l -1.1981161916894426e-12,1.0 l 1.0,1.2035064945476008e-12 l -1.1981161916894426e-12,1.0 l 1.0,1.2035064945476008e-12 l 1.2088967974057588e-12,-1.0 l 1.2088967974057588e-12,-1.0 l 1.2088967974057588e-12,-1.0 l 1.2088967974057588e-12,-1.0 l -1.0,-1.214287100263917e-12 l 1.2088967974057588e-12,-1.0 l -1.0,-1.214287100263917e-12 l -1.2196774031220751e-12,1.0 l -1.2196774031220751e-12,1.0 l 1.0,1.2250677059802333e-12 l 1.0,1.2250677059802333e-12 l 1.2304580088383914e-12,-1.0 l 1.0,1.2250677059802333e-12 l 1.2304580088383914e-12,-1.0 l -1.0,-1.2358483116965494e-12 l -1.0,-1.2358483116965494e-12 l 1.2304580088383914e-12,-1.0 l 1.2304580088383914e-12,-1.0 l -1.0,-1.2358483116965494e-12 l 1.2304580088383914e-12,-1.0 l -1.0,-1.2358483116965494e-12 l -1.2412386145547076e-12,1.0 l -1.2412386145547076e-12,1.0 l 1.0,1.2466289174128657e-12 l 1.0,1.2466289174128657e-12 l 1.2520192202710239e-12,-1.0 l 1.0,1.2466289174128657e-12 l 1.2520192202710239e-12,-1.0 l -1.0,-1.257409523129182e-12 l -1.0,-1.257409523129182e-12 l -1.2627998259873402e-12,1.0 l -1.2627998259873402e-12,1.0 l 1.0,1.2681901288454982e-12 l -1.2627998259873402e-12,1.0 l 1.0,1.2681901288454982e-12 l 1.2735804317036564e-12,-1.0 l 1.2735804317036564e-12,-1.0 l 1.2735804317036564e-12,-1.0 l 1.2735804317036564e-12,-1.0 l -1.0,-1.2789707345618145e-12 l 1.2735804317036564e-12,-1.0 l -1.0,-1.2789707345618145e-12 l -1.2843610374199725e-12,1.0 l -1.2843610374199725e-12,1.0 l 1.0,1.2897513402781307e-12 l 1.0,1.2897513402781307e-12 l 1.2951416431362887e-12,-1.0 l 1.0,1.2897513402781307e-12 l 1.2951416431362887e-12,-1.0 l -1.0,-1.300531945994447e-12 l -1.0,-1.300531945994447e-12 l -1.0,-1.300531945994447e-12 l -1.0,-1.300531945994447e-12 l -1.305922248852605e-12,1.0 l -1.0,-1.300531945994447e-12 l -1.305922248852605e-12,1.0 l 1.0,1.3113125517107632e-12 l 1.0,1.3113125517107632e-12 l 1.3167028545689213e-12,-1.0 l 1.3167028545689213e-12,-1.0 l -1.0,-1.3220931574270795e-12 l 1.3167028545689213e-12,-1.0 l -1.0,-1.3220931574270795e-12 l -1.3274834602852375e-12,1.0 l -1.3274834602852375e-12,1.0 l -1.0,-1.3220931574270795e-12 l -1.0,-1.3220931574270795e-12 l -1.3274834602852375e-12,1.0 l -1.0,-1.3220931574270795e-12 l -1.3274834602852375e-12,1.0 l 1.0,1.3328737631433956e-12 l 1.0,1.3328737631433956e-12 l 1.3382640660015538e-12,-1.0 l 1.3382640660015538e-12,-1.0 l -1.0,-1.3436543688597118e-12 l 1.3382640660015538e-12,-1.0 l -1.0,-1.3436543688597118e-12 l -1.34904467171787e-12,1.0 l -1.34904467171787e-12,1.0 l 1.0,1.354434974576028e-12 l 1.0,1.354434974576028e-12 l 1.3598252774341863e-12,-1.0 l 1.0,1.354434974576028e-12 l 1.3598252774341863e-12,-1.0 l -1.0,-1.3652155802923444e-12 l -1.0,-1.3652155802923444e-12 l -1.0,-1.3652155802923444e-12 l -1.0,-1.3652155802923444e-12 l -1.3706058831505024e-12,1.0 l -1.0,-1.3652155802923444e-12 l -1.3706058831505024e-12,1.0 l 1.0,1.3759961860086606e-12 l 1.0,1.3759961860086606e-12 l 1.3813864888668186e-12,-1.0 l 1.3813864888668186e-12,-1.0 l -1.0,-1.3867767917249769e-12 l 1.3813864888668186e-12,-1.0 l -1.0,-1.3867767917249769e-12 l -1.392167094583135e-12,1.0 l -1.392167094583135e-12,1.0 l -1.392167094583135e-12,1.0 l -1.392167094583135e-12,1.0 l 1.0,1.3975573974412931e-12 l -1.392167094583135e-12,1.0 l 1.0,1.3975573974412931e-12 l 1.4029477002994512e-12,-1.0 l 1.4029477002994512e-12,-1.0 l -1.0,-1.4083380031576094e-12 l -1.0,-1.4083380031576094e-12 l -1.4137283060157674e-12,1.0 l -1.0,-1.4083380031576094e-12 l -1.4137283060157674e-12,1.0 l 1.0,1.4191186088739255e-12 l 1.0,1.4191186088739255e-12 l -1.4137283060157674e-12,1.0 l -1.4137283060157674e-12,1.0 l 1.0,1.4191186088739255e-12 l -1.4137283060157674e-12,1.0 l 1.0,1.4191186088739255e-12 l 1.4245089117320837e-12,-1.0 l 1.4245089117320837e-12,-1.0 l -1.0,-1.4298992145902417e-12 l -1.0,-1.4298992145902417e-12 l -1.4352895174484e-12,1.0 l -1.0,-1.4298992145902417e-12 l -1.4352895174484e-12,1.0 l 1.0,1.440679820306558e-12 l 1.0,1.440679820306558e-12 l 1.4460701231647162e-12,-1.0 l 1.4460701231647162e-12,-1.0 l -1.0,-1.4514604260228743e-12 l 1.4460701231647162e-12,-1.0 l -1.0,-1.4514604260228743e-12 l -1.4568507288810323e-12,1.0 l -1.4568507288810323e-12,1.0 l -1.4568507288810323e-12,1.0 l -1.4568507288810323e-12,1.0 l 1.0,1.4622410317391905e-12 l -1.4568507288810323e-12,1.0 l 1.0,1.4622410317391905e-12 l 1.4676313345973486e-12,-1.0 l 1.4676313345973486e-12,-1.0 l 1.4676313345973486e-12,-1.0 l 1.4676313345973486e-12,-1.0 l -1.0,-1.4161782185946988e-12 l 1.4107879157365405e-12,-1.0 l -1.0,-1.4161782185946988e-12 l -1.3647251025920488e-12,1.0 l -1.3647251025920488e-12,1.0 l -1.3647251025920488e-12,1.0 l -1.3647251025920488e-12,1.0 l 1.0,1.313271986589399e-12 l -1.3647251025920488e-12,1.0 l 1.0,1.313271986589399e-12 l 1.261818870586749e-12,-1.0 l 1.261818870586749e-12,-1.0 l -1.0,-1.2103657545840992e-12 l -1.0,-1.2103657545840992e-12 l -1.1589126385814493e-12,1.0 l -1.0,-1.2103657545840992e-12 l -1.1589126385814493e-12,1.0 l 1.0,1.1074595225787993e-12 l 1.0,1.1074595225787993e-12 l -1.1589126385814493e-12,1.0 l -1.1589126385814493e-12,1.0 l 1.0,1.1074595225787993e-12 l -1.1589126385814493e-12,1.0 l 1.0,1.1074595225787993e-12 l 1.0560064065761495e-12,-1.0 l 1.0560064065761495e-12,-1.0 l -1.0,-1.0045532905734995e-12 l -1.0,-1.0045532905734995e-12 l -9.531001745708497e-13,1.0 l -1.0,-1.0045532905734995e-12 l -9.531001745708497e-13,1.0 l 1.0,9.016470585681997e-13 l 1.0,9.016470585681997e-13 l 8.501939425655499e-13,-1.0 l 8.501939425655499e-13,-1.0 l -1.0,-7.987408265629e-13 l 8.501939425655499e-13,-1.0 l -1.0,-7.987408265629e-13 l -7.472877105602501e-13,1.0 l -7.472877105602501e-13,1.0 l -7.472877105602501e-13,1.0 l -7.472877105602501e-13,1.0 l 1.0,6.958345945576002e-13 l -7.472877105602501e-13,1.0 l 1.0,6.958345945576002e-13 l 6.443814785549503e-13,-1.0 l 6.443814785549503e-13,-1.0 l -1.0,-5.929283625523004e-13 l -1.0,-5.929283625523004e-13 l -5.414752465496505e-13,1.0 l -1.0,-5.929283625523004e-13 l -5.414752465496505e-13,1.0 l 1.0,4.900221305470006e-13 l 1.0,4.900221305470006e-13 l 1.0,4.900221305470006e-13 l 1.0,4.900221305470006e-13 l 4.385690145443507e-13,-1.0 l 1.0,4.900221305470006e-13 l 4.385690145443507e-13,-1.0 l -1.0,-3.871158985417008e-13 l -1.0,-3.871158985417008e-13 l -3.356627825390509e-13,1.0 l -3.356627825390509e-13,1.0 l 1.0,2.8420966653640104e-13 l -3.356627825390509e-13,1.0 l 1.0,2.8420966653640104e-13 l 2.327565505337511e-13,-1.0 l 2.327565505337511e-13,-1.0 l 1.0,2.8420966653640104e-13 l 1.0,2.8420966653640104e-13 l 2.327565505337511e-13,-1.0 l 1.0,2.8420966653640104e-13 l 2.327565505337511e-13,-1.0 l -1.0,-1.8130343453110122e-13 l -1.0,-1.8130343453110122e-13 l -1.2985031852845133e-13,1.0 l -1.2985031852845133e-13,1.0 l 1.0,7.839720252580143e-14 l -1.2985031852845133e-13,1.0 l 1.0,7.839720252580143e-14 l 2.6944086523151533e-14,-1.0 l 2.6944086523151533e-14,-1.0 l -1.0,2.450902947949836e-14 l -1.0,2.450902947949836e-14 l 7.596214548214826e-14,1.0 l -1.0,2.450902947949836e-14 l 7.596214548214826e-14,1.0 l 1.0,-1.2741526148479816e-13 l 1.0,-1.2741526148479816e-13 l 1.0,-1.2741526148479816e-13 l 1.0,-1.2741526148479816e-13 l -1.7886837748744804e-13,-1.0 l 1.0,-1.2741526148479816e-13 l -1.7886837748744804e-13,-1.0 l -1.0,2.3032149349009795e-13 l -1.0,2.3032149349009795e-13 l -1.0,2.3032149349009795e-13 l -1.0,2.3032149349009795e-13 l 2.8177460949274783e-13,1.0 l -1.0,2.3032149349009795e-13 l 2.8177460949274783e-13,1.0 l 1.0,-3.332277254953977e-13 l 1.0,-3.332277254953977e-13 l 1.0,-3.332277254953977e-13 l 1.0,-3.332277254953977e-13 l -3.8468084149804765e-13,-1.0 l 1.0,-3.332277254953977e-13 l -3.8468084149804765e-13,-1.0 l -1.0,4.3613395750069753e-13 l -1.0,4.3613395750069753e-13 l 4.875870735033474e-13,1.0 l 4.875870735033474e-13,1.0 l 1.0,-5.390401895059973e-13 l 4.875870735033474e-13,1.0 l 1.0,-5.390401895059973e-13 l -5.904933055086472e-13,-1.0 l -5.904933055086472e-13,-1.0 l 1.0,-5.390401895059973e-13 l 1.0,-5.390401895059973e-13 l -5.904933055086472e-13,-1.0 l 1.0,-5.390401895059973e-13 l -5.904933055086472e-13,-1.0 l -1.0,6.419464215112971e-13 l -1.0,6.419464215112971e-13 l 6.93399537513947e-13,1.0 l 6.93399537513947e-13,1.0 l 1.0,-7.448526535165969e-13 l 6.93399537513947e-13,1.0 l 1.0,-7.448526535165969e-13 l -7.963057695192468e-13,-1.0 l -7.963057695192468e-13,-1.0 l -1.0,8.477588855218967e-13 l -1.0,8.477588855218967e-13 l 8.992120015245466e-13,1.0 l -1.0,8.477588855218967e-13 l 8.992120015245466e-13,1.0 l 1.0,-9.506651175271965e-13 l 1.0,-9.506651175271965e-13 l 1.0,-9.506651175271965e-13 l 1.0,-9.506651175271965e-13 l -1.0021182335298465e-12,-1.0 l 1.0,-9.506651175271965e-13 l -1.0021182335298465e-12,-1.0 l -1.0,1.0535713495324962e-12 l -1.0,1.0535713495324962e-12 l 1.1050244655351462e-12,1.0 l 1.1050244655351462e-12,1.0 l 1.0,-1.156477581537796e-12 l 1.1050244655351462e-12,1.0 l 1.0,-1.156477581537796e-12 l -1.207930697540446e-12,-1.0 l -1.207930697540446e-12,-1.0 l -1.207930697540446e-12,-1.0 l -1.207930697540446e-12,-1.0 l -1.0,1.2593838135430958e-12 l -1.207930697540446e-12,-1.0 l -1.0,1.2593838135430958e-12 l 1.3108369295457458e-12,1.0 l 1.3108369295457458e-12,1.0 l 1.0,-1.3622900455483957e-12 l 1.0,-1.3622900455483957e-12 l -1.4137431615510455e-12,-1.0 l 1.0,-1.3622900455483957e-12 l -1.4137431615510455e-12,-1.0 l -1.0,1.4651962775536955e-12 l -1.0,1.4651962775536955e-12 l -1.4137431615510455e-12,-1.0 l -1.4137431615510455e-12,-1.0 l -1.0,1.4651962775536955e-12 l -1.4137431615510455e-12,-1.0 l -1.0,1.4651962775536955e-12 l 1.5166493935563453e-12,1.0 l 1.5166493935563453e-12,1.0 l 1.0,-1.5681025095589953e-12 l 1.0,-1.5681025095589953e-12 l -1.619555625561645e-12,-1.0 l 1.0,-1.5681025095589953e-12 l -1.619555625561645e-12,-1.0 l -1.0,1.671008741564295e-12 l -1.0,1.671008741564295e-12 l 1.722461857566945e-12,1.0 l 1.722461857566945e-12,1.0 l 1.0,-1.7739149735695948e-12 l 1.722461857566945e-12,1.0 l 1.0,-1.7739149735695948e-12 l -1.8253680895722446e-12,-1.0 l -1.8253680895722446e-12,-1.0 l -1.8253680895722446e-12,-1.0 l -1.8253680895722446e-12,-1.0 l -1.0,1.8768212055748948e-12 l -1.8253680895722446e-12,-1.0 l -1.0,1.8768212055748948e-12 l 1.9282743215775446e-12,1.0 l 1.9282743215775446e-12,1.0 l -1.0,1.8768212055748948e-12 l -1.0,1.8768212055748948e-12 l 1.9282743215775446e-12,1.0 l -1.0,1.8768212055748948e-12 l 1.9282743215775446e-12,1.0 l 1.0,-1.9797274375801943e-12 l 1.0,-1.9797274375801943e-12 l 1.0,-1.9797274375801943e-12 l 1.0,-1.9797274375801943e-12 l -2.031180553582844e-12,-1.0 l 1.0,-1.9797274375801943e-12 l -2.031180553582844e-12,-1.0 l -1.0,2.0826336695854943e-12 l -1.0,2.0826336695854943e-12 l 2.134086785588144e-12,1.0 l 2.134086785588144e-12,1.0 l 1.0,-2.185539901590794e-12 l 2.134086785588144e-12,1.0 l 1.0,-2.185539901590794e-12 l -2.236993017593444e-12,-1.0 l -2.236993017593444e-12,-1.0 l 1.0,-2.185539901590794e-12 l 1.0,-2.185539901590794e-12 l -2.236993017593444e-12,-1.0 l 1.0,-2.185539901590794e-12 l -2.236993017593444e-12,-1.0 l -1.0,2.288446133596094e-12 l -1.0,2.288446133596094e-12 l 2.3398992495987436e-12,1.0 l 2.3398992495987436e-12,1.0 l 1.0,-2.3913523656013934e-12 l 2.3398992495987436e-12,1.0 l 1.0,-2.3913523656013934e-12 l -2.4428054816040436e-12,-1.0 l -2.4428054816040436e-12,-1.0 l -1.0,2.4942585976066934e-12 l -1.0,2.4942585976066934e-12 l 2.545711713609343e-12,1.0 l -1.0,2.4942585976066934e-12 l 2.545711713609343e-12,1.0 l 1.0,-2.5971648296119933e-12 l 1.0,-2.5971648296119933e-12 l 1.0,-2.5971648296119933e-12 l 1.0,-2.5971648296119933e-12 l -2.648617945614643e-12,-1.0 l 1.0,-2.5971648296119933e-12 l -2.648617945614643e-12,-1.0 l -1.0,2.700071061617293e-12 l -1.0,2.700071061617293e-12 l 2.7515241776199427e-12,1.0 l 2.7515241776199427e-12,1.0 l 1.0,-2.802977293622593e-12 l 2.7515241776199427e-12,1.0 l 1.0,-2.802977293622593e-12 l -2.8544304096252427e-12,-1.0 l -2.8544304096252427e-12,-1.0 l -2.8544304096252427e-12,-1.0 l -2.8544304096252427e-12,-1.0 l -1.0,2.9058835256278924e-12 l -2.8544304096252427e-12,-1.0 l -1.0,2.9058835256278924e-12 l 2.9573366416305426e-12,1.0 l 2.9573366416305426e-12,1.0 l 1.0,-3.0087897576331924e-12 l 1.0,-3.0087897576331924e-12 l -3.060242873635842e-12,-1.0 l 1.0,-3.0087897576331924e-12 l -3.060242873635842e-12,-1.0 l -1.0,3.111695989638492e-12 l -1.0,3.111695989638492e-12 l -3.060242873635842e-12,-1.0 l -3.060242873635842e-12,-1.0 l -1.0,3.111695989638492e-12 l -3.060242873635842e-12,-1.0 l -1.0,3.111695989638492e-12 l 3.163149105641142e-12,1.0 l 3.163149105641142e-12,1.0 l 1.0,-3.214602221643792e-12 l 1.0,-3.214602221643792e-12 l -3.2660553376464417e-12,-1.0 l 1.0,-3.214602221643792e-12 l -3.2660553376464417e-12,-1.0 l -1.0,3.3175084536490915e-12 l -1.0,3.3175084536490915e-12 l 3.3689615696517417e-12,1.0 l 3.3689615696517417e-12,1.0 l 1.0,-3.4204146856543915e-12 l 3.3689615696517417e-12,1.0 l 1.0,-3.4204146856543915e-12 l -3.4718678016570413e-12,-1.0 l -3.4718678016570413e-12,-1.0 l -3.4718678016570413e-12,-1.0 l -3.4718678016570413e-12,-1.0 l -1.0,3.5233209176596914e-12 l -3.4718678016570413e-12,-1.0 l -1.0,3.5233209176596914e-12 l 3.5747740336623412e-12,1.0 l 3.5747740336623412e-12,1.0 l 1.0,-3.626227149664991e-12 l 1.0,-3.626227149664991e-12 l -3.677680265667641e-12,-1.0 l 1.0,-3.626227149664991e-12 l -3.677680265667641e-12,-1.0 l -1.0,3.729133381670291e-12 l -1.0,3.729133381670291e-12 l -1.0,3.729133381670291e-12 l -1.0,3.729133381670291e-12 l 3.780586497672941e-12,1.0 l -1.0,3.729133381670291e-12 l 3.780586497672941e-12,1.0 l 1.0,-3.8320396136755905e-12 l 1.0,-3.8320396136755905e-12 l -3.883492729678241e-12,-1.0 l -3.883492729678241e-12,-1.0 l -1.0,3.93494584568089e-12 l -3.883492729678241e-12,-1.0 l -1.0,3.93494584568089e-12 l 3.98639896168354e-12,1.0 l 3.98639896168354e-12,1.0 l -1.0,3.93494584568089e-12 l -1.0,3.93494584568089e-12 l 3.98639896168354e-12,1.0 l -1.0,3.93494584568089e-12 l 3.98639896168354e-12,1.0 l 1.0,-4.0378520776861905e-12 l 1.0,-4.0378520776861905e-12 l -4.08930519368884e-12,-1.0 l -4.08930519368884e-12,-1.0 l -1.0,4.14075830969149e-12 l -4.08930519368884e-12,-1.0 l -1.0,4.14075830969149e-12 l 4.19221142569414e-12,1.0 l 4.19221142569414e-12,1.0 l 1.0,-4.24366454169679e-12 l 1.0,-4.24366454169679e-12 l -4.29511765769944e-12,-1.0 l 1.0,-4.24366454169679e-12 l -4.29511765769944e-12,-1.0 l -1.0,4.34657077370209e-12 l -1.0,4.34657077370209e-12 l -1.0,4.34657077370209e-12 l -1.0,4.34657077370209e-12 l 4.398023889704739e-12,1.0 l -1.0,4.34657077370209e-12 l 4.398023889704739e-12,1.0 l 1.0,-4.4494770057073895e-12 l 1.0,-4.4494770057073895e-12 l 1.0,-4.4494770057073895e-12 l 1.0,-4.4494770057073895e-12 l -4.500930121710039e-12,-1.0 l 1.0,-4.4494770057073895e-12 l -4.500930121710039e-12,-1.0 l -1.0,4.552383237712689e-12 l -1.0,4.552383237712689e-12 l -1.0,4.552383237712689e-12 l -1.0,4.552383237712689e-12 l 4.603836353715339e-12,1.0 l -1.0,4.552383237712689e-12 l 4.603836353715339e-12,1.0 l 1.0,-4.655289469717989e-12 l 1.0,-4.655289469717989e-12 l -4.706742585720639e-12,-1.0 l -4.706742585720639e-12,-1.0 l -1.0,4.758195701723289e-12 l -4.706742585720639e-12,-1.0 l -1.0,4.758195701723289e-12 l 4.8096488177259384e-12,1.0 l 4.8096488177259384e-12,1.0 l -1.0,4.758195701723289e-12 l -1.0,4.758195701723289e-12 l 4.8096488177259384e-12,1.0 l -1.0,4.758195701723289e-12 l 4.8096488177259384e-12,1.0 l 1.0,-4.861101933728589e-12 l 1.0,-4.861101933728589e-12 l -4.912555049731239e-12,-1.0 l -4.912555049731239e-12,-1.0 l -1.0,4.964008165733888e-12 l -4.912555049731239e-12,-1.0 l -1.0,4.964008165733888e-12 l 5.015461281736538e-12,1.0 l 5.015461281736538e-12,1.0 l 1.0,-5.0669143977391885e-12 l 1.0,-5.0669143977391885e-12 l -5.118367513741838e-12,-1.0 l 1.0,-5.0669143977391885e-12 l -5.118367513741838e-12,-1.0 l -1.0,5.169820629744488e-12 l -1.0,5.169820629744488e-12 l -1.0,5.169820629744488e-12 l -1.0,5.169820629744488e-12 l 5.2212737457471375e-12,1.0 l -1.0,5.169820629744488e-12 l 5.2212737457471375e-12,1.0 l 1.0,-5.272726861749788e-12 l 1.0,-5.272726861749788e-12 " style="stroke-linecap:square;stroke:#50514F;stroke-width:0.2px;fill:none" /></g></svg>