<?xml version="1.0" encoding="UTF-8"?>
<!DOCTYPE svg PUBLIC "-//W3C//DTD SVG 1.1//EN"
    "http://www.w3.org/Graphics/SVG/1.1/DTD/svg11.dtd">
<svg xmlns="http://www.w3.org/2000/svg" xmlns:xlink="http://www.w3.org/1999/xlink" version="1.1" width="499.9999999999971" height="500" viewBox="-9.699999999999505 -34.69999999999997 44.39999999999946 44.399999999999714"><g><rect x="-9.699999999999505" y="-34.69999999999997" width="44.39999999999946" height="44.399999999999714" fill="#CBD4C2" /><path d="M 0,0 l 6.123233995736766e-17,-1.0 l 1.0,0.0 l 6.123233995736766e-17,-1.0 l 1.0,0.0 l 6.123233995736766e-17,1.0 l -1.0,1.2246467991473532e-16 l -1.8369701987210297e-16,-1.0 l -1.0,1.224646799147353e-16 l -1.8369701987210297e-16,-1.0 l 1.0,-2.4492935982947064e-16 l -1.8369701987210297e-16,-1.0 l 1.0,-2.4492935982947064e-16 l -1.8369701987210297e-16,-1.0 l 1.0,-2.4492935982947064e-16 l 3.061616997868383e-16,1.0 l -1.0,3.67394039744206e-16 l -4.2862637970157366e-16,-1.0 l -1.0,3.67394039744206e-16 l -4.2862637970157366e-16,-1.0 l 1.0,-4.898587196589413e-16 l 5.51091059616309e-16,1.0 l -1.0,6.123233995736766e-16 l 5.51091059616309e-16,1.0 l -1.0,6.123233995736766e-16 l -6.735557395310443e-16,-1.0 l 1.0,-7.34788079488412e-16 l 7.960204194457796e-16,1.0 l 1.0,-7.34788079488412e-16 l 7.960204194457796e-16,1.0 l -1.0,8.572527594031473e-16 l -9.18485099360515e-16,-1.0 l 1.0,-9.797174393178826e-16 l -9.18485099360515e-16,-1.0 l 1.0,-9.797174393178826e-16 l 1.0409497792752501e-15,1.0 l 1.0,-9.797174393178826e-16 l 1.0409497792752501e-15,1.0 l 1.0,-9.797174393178826e-16 l 1.0409497792752501e-15,1.0 l -1.0,1.1021821192326177e-15 l -1.1634144591899853e-15,-1.0 l 1.0,-1.2246467991473529e-15 l -1.1634144591899853e-15,-1.0 l 1.0,-1.2246467991473529e-15 l 1.2858791391047204e-15,1.0 l -1.0,1.347111479062088e-15 l -1.4083438190194556e-15,-1.0 l -1.0,1.347111479062088e-15 l -1.4083438190194556e-15,-1.0 l 1.0,-1.4695761589768232e-15 l -1.4083438190194556e-15,-1.0 l 1.0,-1.4695761589768232e-15 l -1.4083438190194556e-15,-1.0 l 1.0,-1.4695761589768232e-15 l 1.5308084989341907e-15,1.0 l -1.0,1.5920408388915583e-15 l -1.6532731788489259e-15,-1.0 l -1.0,1.5920408388915583e-15 l -1.6532731788489259e-15,-1.0 l 1.0,-1.7145055188062935e-15 l -1.6532731788489259e-15,-1.0 l 1.0,-1.7145055188062935e-15 l -1.6532731788489259e-15,-1.0 l 1.0,-1.7145055188062935e-15 l 1.775737858763661e-15,1.0 l -1.0,1.8369701987210288e-15 l -1.8982025386783964e-15,-1.0 l -1.0,1.8369701987210288e-15 l -1.8982025386783964e-15,-1.0 l 1.0,-1.959434878635764e-15 l 2.0206672185931315e-15,1.0 l -1.0,2.081899558550499e-15 l 2.0206672185931315e-15,1.0 l -1.0,2.081899558550499e-15 l -2.1431318985078667e-15,-1.0 l 1.0,-2.2043642384652342e-15 l 2.265596578422602e-15,1.0 l 1.0,-2.2043642384652342e-15 l 2.265596578422602e-15,1.0 l -1.0,2.3268289183799694e-15 l -2.388061258337337e-15,-1.0 l 1.0,-2.4492935982947045e-15 l -2.388061258337337e-15,-1.0 l 1.0,-2.4492935982947045e-15 l 2.510525938252072e-15,1.0 l 1.0,-2.4492935982947045e-15 l 2.510525938252072e-15,1.0 l 1.0,-2.4492935982947045e-15 l 2.510525938252072e-15,1.0 l -1.0,2.5717582782094397e-15 l -2.6329906181668073e-15,-1.0 l 1.0,-2.694222958124175e-15 l -2.6329906181668073e-15,-1.0 l 1.0,-2.694222958124175e-15 l 2.7554552980815424e-15,1.0 l -1.0,2.81668763803891e-15 l -2.8779199779962776e-15,-1.0 l -1.0,2.81668763803891e-15 l -2.8779199779962776e-15,-1.0 l 1.0,-2.939152317953645e-15 l 3.0003846579110127e-15,1.0 l -1.0,3.0616169978683803e-15 l 3.0003846579110127e-15,1.0 l -1.0,3.0616169978683803e-15 l -3.122849337825748e-15,-1.0 l 1.0,-3.1840816777831154e-15 l 3.245314017740483e-15,1.0 l 1.0,-3.1840816777831154e-15 l 3.245314017740483e-15,1.0 l -1.0,3.3065463576978506e-15 l 3.245314017740483e-15,1.0 l -1.0,3.3065463576978506e-15 l 3.245314017740483e-15,1.0 l -1.0,3.3065463576978506e-15 l -3.367778697655218e-15,-1.0 l 1.0,-3.4290110376125857e-15 l 3.4902433775699533e-15,1.0 l 1.0,-3.4290110376125857e-15 l 3.4902433775699533e-15,1.0 l -1.0,3.551475717527321e-15 l -3.6127080574846884e-15,-1.0 l 1.0,-3.673940397442056e-15 l -3.6127080574846884e-15,-1.0 l 1.0,-3.673940397442056e-15 l 3.7351727373994236e-15,1.0 l -1.0,3.796405077356791e-15 l -3.857637417314159e-15,-1.0 l -1.0,3.796405077356791e-15 l -3.857637417314159e-15,-1.0 l 1.0,-3.918869757271526e-15 l 3.980102097228894e-15,1.0 l -1.0,4.0413344371862615e-15 l 3.980102097228894e-15,1.0 l -1.0,4.0413344371862615e-15 l -4.102566777143629e-15,-1.0 l -1.0,4.0413344371862615e-15 l -4.102566777143629e-15,-1.0 l -1.0,4.0413344371862615e-15 l -4.102566777143629e-15,-1.0 l 1.0,-4.163799117100997e-15 l 4.225031457058364e-15,1.0 l -1.0,4.286263797015732e-15 l 4.225031457058364e-15,1.0 l -1.0,4.286263797015732e-15 l -4.347496136973099e-15,-1.0 l 1.0,-4.408728476930467e-15 l 4.4699608168878345e-15,1.0 l 1.0,-4.408728476930467e-15 l 4.4699608168878345e-15,1.0 l -1.0,4.531193156845202e-15 l -4.59242549680257e-15,-1.0 l 1.0,-4.653657836759937e-15 l -4.59242549680257e-15,-1.0 l 1.0,-4.653657836759937e-15 l 4.714890176717305e-15,1.0 l -1.0,4.776122516674672e-15 l -4.83735485663204e-15,-1.0 l -1.0,4.776122516674672e-15 l -4.83735485663204e-15,-1.0 l 1.0,-4.8985871965894075e-15 l -4.83735485663204e-15,-1.0 l 1.0,-4.8985871965894075e-15 l -4.83735485663204e-15,-1.0 l 1.0,-4.8985871965894075e-15 l 4.959819536546775e-15,1.0 l -1.0,5.021051876504143e-15 l -5.08228421646151e-15,-1.0 l -1.0,5.021051876504143e-15 l -5.08228421646151e-15,-1.0 l 1.0,-5.143516556418878e-15 l 5.204748896376245e-15,1.0 l -1.0,5.265981236333613e-15 l 5.204748896376245e-15,1.0 l -1.0,5.265981236333613e-15 l -5.3272135762909805e-15,-1.0 l -1.0,5.265981236333613e-15 l -5.3272135762909805e-15,-1.0 l -1.0,5.265981236333613e-15 l -5.3272135762909805e-15,-1.0 l 1.0,-5.388445916248348e-15 l 5.449678256205716e-15,1.0 l -1.0,5.510910596163083e-15 l 5.449678256205716e-15,1.0 l -1.0,5.510910596163083e-15 l -5.572142936120451e-15,-1.0 l -1.0,5.510910596163083e-15 l -5.572142936120451e-15,-1.0 l -1.0,5.510910596163083e-15 l -5.572142936120451e-15,-1.0 l 1.0,-5.633375276077818e-15 l 5.694607616035186e-15,1.0 l -1.0,5.7558399559925535e-15 l 5.694607616035186e-15,1.0 l -1.0,5.7558399559925535e-15 l -5.817072295949921e-15,-1.0 l 1.0,-5.878304635907289e-15 l 5.939536975864656e-15,1.0 l 1.0,-5.878304635907289e-15 l 5.939536975864656e-15,1.0 l -1.0,6.000769315822024e-15 l -6.0620016557793914e-15,-1.0 l 1.0,-6.123233995736759e-15 l -6.0620016557793914e-15,-1.0 l 1.0,-6.123233995736759e-15 l 6.1844663356941266e-15,1.0 l -1.0,6.245698675651494e-15 l -6.306931015608862e-15,-1.0 l -1.0,6.245698675651494e-15 l -6.306931015608862e-15,-1.0 l 1.0,-6.368163355566229e-15 l -6.306931015608862e-15,-1.0 l 1.0,-6.368163355566229e-15 l -6.306931015608862e-15,-1.0 l 1.0,-6.368163355566229e-15 l 6.429395695523597e-15,1.0 l -1.0,6.4906280354809644e-15 l -6.551860375438332e-15,-1.0 l -1.0,6.4906280354809644e-15 l -6.551860375438332e-15,-1.0 l 1.0,-6.6130927153956996e-15 l 6.674325055353067e-15,1.0 l -1.0,6.735557395310435e-15 l 6.674325055353067e-15,1.0 l -1.0,6.735557395310435e-15 l -6.796789735267802e-15,-1.0 l 1.0,-6.85802207522517e-15 l 6.9192544151825374e-15,1.0 l 1.0,-6.85802207522517e-15 l 6.9192544151825374e-15,1.0 l -1.0,6.980486755139905e-15 l -7.0417190950972726e-15,-1.0 l 1.0,-7.10295143505464e-15 l -7.0417190950972726e-15,-1.0 l 1.0,-7.10295143505464e-15 l 7.164183775012008e-15,1.0 l 1.0,-7.10295143505464e-15 l 7.164183775012008e-15,1.0 l 1.0,-7.10295143505464e-15 l 7.164183775012008e-15,1.0 l -1.0,7.225416114969375e-15 l -7.286648454926743e-15,-1.0 l 1.0,-7.34788079488411e-15 l -7.286648454926743e-15,-1.0 l 1.0,-7.34788079488411e-15 l 7.409113134841478e-15,1.0 l -1.0,7.470345474798846e-15 l -7.531577814756213e-15,-1.0 l -1.0,7.470345474798846e-15 l -7.531577814756213e-15,-1.0 l 1.0,-7.59281015471358e-15 l -7.531577814756213e-15,-1.0 l 1.0,-7.59281015471358e-15 l -7.531577814756213e-15,-1.0 l 1.0,-7.59281015471358e-15 l 7.654042494670948e-15,1.0 l -1.0,7.715274834628316e-15 l -7.776507174585683e-15,-1.0 l -1.0,7.715274834628316e-15 l -7.776507174585683e-15,-1.0 l 1.0,-7.837739514543051e-15 l -7.776507174585683e-15,-1.0 l 1.0,-7.837739514543051e-15 l -7.776507174585683e-15,-1.0 l 1.0,-7.837739514543051e-15 l 7.898971854500419e-15,1.0 l -1.0,7.960204194457786e-15 l -8.021436534415154e-15,-1.0 l -1.0,7.960204194457786e-15 l -8.021436534415154e-15,-1.0 l 1.0,-8.082668874372521e-15 l 8.143901214329889e-15,1.0 l -1.0,8.205133554287257e-15 l 8.143901214329889e-15,1.0 l -1.0,8.205133554287257e-15 l -8.266365894244624e-15,-1.0 l 1.0,-8.327598234201992e-15 l 8.38883057415936e-15,1.0 l 1.0,-8.327598234201992e-15 l 8.38883057415936e-15,1.0 l -1.0,8.450062914116727e-15 l -8.511295254074094e-15,-1.0 l 1.0,-8.572527594031462e-15 l -8.511295254074094e-15,-1.0 l 1.0,-8.572527594031462e-15 l 8.63375993398883e-15,1.0 l 1.0,-8.572527594031462e-15 l 8.63375993398883e-15,1.0 l 1.0,-8.572527594031462e-15 l 8.63375993398883e-15,1.0 l -1.0,8.694992273946197e-15 l -8.756224613903565e-15,-1.0 l 1.0,-8.817456953860932e-15 l -8.756224613903565e-15,-1.0 l 1.0,-8.817456953860932e-15 l 8.8786892938183e-15,1.0 l -1.0,8.939921633775667e-15 l -9.001153973733035e-15,-1.0 l -1.0,8.939921633775667e-15 l -9.001153973733035e-15,-1.0 l 1.0,-9.062386313690403e-15 l -9.001153973733035e-15,-1.0 l 1.0,-9.062386313690403e-15 l -9.001153973733035e-15,-1.0 l 1.0,-9.062386313690403e-15 l 9.12361865364777e-15,1.0 l -1.0,9.184850993605138e-15 l -9.246083333562505e-15,-1.0 l -1.0,9.184850993605138e-15 l -9.246083333562505e-15,-1.0 l 1.0,-9.307315673519873e-15 l -9.246083333562505e-15,-1.0 l 1.0,-9.307315673519873e-15 l -9.246083333562505e-15,-1.0 l 1.0,-9.307315673519873e-15 l 9.36854801347724e-15,1.0 l -1.0,9.429780353434608e-15 l -9.491012693391976e-15,-1.0 l -1.0,9.429780353434608e-15 l -9.491012693391976e-15,-1.0 l 1.0,-9.552245033349343e-15 l 9.61347737330671e-15,1.0 l -1.0,9.674709713264078e-15 l 9.61347737330671e-15,1.0 l -1.0,9.674709713264078e-15 l -9.735942053221446e-15,-1.0 l 1.0,-9.797174393178813e-15 l 9.858406733136181e-15,1.0 l 1.0,-9.797174393178813e-15 l 9.858406733136181e-15,1.0 l -1.0,9.919639073093549e-15 l -9.980871413050916e-15,-1.0 l 1.0,-1.0042103753008284e-14 l -9.980871413050916e-15,-1.0 l 1.0,-1.0042103753008284e-14 l 1.0103336092965651e-14,1.0 l 1.0,-1.0042103753008284e-14 l 1.0103336092965651e-14,1.0 l 1.0,-1.0042103753008284e-14 l 1.0103336092965651e-14,1.0 l -1.0,1.0164568432923019e-14 l -1.0225800772880386e-14,-1.0 l 1.0,-1.0287033112837754e-14 l -1.0225800772880386e-14,-1.0 l 1.0,-1.0287033112837754e-14 l 1.0348265452795122e-14,1.0 l -1.0,1.0409497792752489e-14 l -1.0470730132709857e-14,-1.0 l -1.0,1.0409497792752489e-14 l -1.0470730132709857e-14,-1.0 l 1.0,-1.0531962472667224e-14 l 1.0593194812624592e-14,1.0 l -1.0,1.065442715258196e-14 l 1.0593194812624592e-14,1.0 l -1.0,1.065442715258196e-14 l -1.0715659492539327e-14,-1.0 l 1.0,-1.0776891832496695e-14 l 1.0838124172454062e-14,1.0 l 1.0,-1.0776891832496695e-14 l 1.0838124172454062e-14,1.0 l -1.0,1.089935651241143e-14 l 1.0838124172454062e-14,1.0 l -1.0,1.089935651241143e-14 l 1.0838124172454062e-14,1.0 l -1.0,1.089935651241143e-14 l -1.0960588852368797e-14,-1.0 l 1.0,-1.1021821192326165e-14 l 1.1083053532283532e-14,1.0 l 1.0,-1.1021821192326165e-14 l 1.1083053532283532e-14,1.0 l -1.0,1.11442858722409e-14 l -1.1205518212198268e-14,-1.0 l 1.0,-1.1266750552155635e-14 l -1.1205518212198268e-14,-1.0 l 1.0,-1.1266750552155635e-14 l 1.1327982892113003e-14,1.0 l -1.0,1.138921523207037e-14 l -1.1450447572027738e-14,-1.0 l -1.0,1.138921523207037e-14 l -1.1450447572027738e-14,-1.0 l 1.0,-1.1511679911985106e-14 l 1.1572912251942473e-14,1.0 l -1.0,1.163414459189984e-14 l 1.1572912251942473e-14,1.0 l -1.0,1.163414459189984e-14 l -1.1695376931857208e-14,-1.0 l -1.0,1.163414459189984e-14 l -1.1695376931857208e-14,-1.0 l -1.0,1.163414459189984e-14 l -1.1695376931857208e-14,-1.0 l 1.0,-1.1756609271814576e-14 l 1.1817841611771943e-14,1.0 l -1.0,1.1879073951729311e-14 l 1.1817841611771943e-14,1.0 l -1.0,1.1879073951729311e-14 l -1.1940306291686679e-14,-1.0 l 1.0,-1.2001538631644046e-14 l 1.2062770971601414e-14,1.0 l 1.0,-1.2001538631644046e-14 l 1.2062770971601414e-14,1.0 l -1.0,1.2124003311558781e-14 l -1.2185235651516149e-14,-1.0 l 1.0,-1.2246467991473516e-14 l -1.2185235651516149e-14,-1.0 l 1.0,-1.2246467991473516e-14 l 1.2307700331430884e-14,1.0 l -1.0,1.2368932671388252e-14 l -1.2430165011345619e-14,-1.0 l -1.0,1.2368932671388252e-14 l -1.2430165011345619e-14,-1.0 l 1.0,-1.2491397351302987e-14 l -1.2430165011345619e-14,-1.0 l 1.0,-1.2491397351302987e-14 l -1.2430165011345619e-14,-1.0 l 1.0,-1.2491397351302987e-14 l 1.2552629691260354e-14,1.0 l -1.0,1.2613862031217722e-14 l -1.267509437117509e-14,-1.0 l -1.0,1.2613862031217722e-14 l -1.267509437117509e-14,-1.0 l 1.0,-1.2736326711132457e-14 l 1.2797559051089825e-14,1.0 l -1.0,1.2858791391047192e-14 l 1.2797559051089825e-14,1.0 l -1.0,1.2858791391047192e-14 l -1.292002373100456e-14,-1.0 l -1.0,1.2858791391047192e-14 l -1.292002373100456e-14,-1.0 l -1.0,1.2858791391047192e-14 l -1.292002373100456e-14,-1.0 l 1.0,-1.2981256070961927e-14 l 1.3042488410919295e-14,1.0 l -1.0,1.3103720750876662e-14 l 1.3042488410919295e-14,1.0 l -1.0,1.3103720750876662e-14 l -1.316495309083403e-14,-1.0 l -1.0,1.3103720750876662e-14 l -1.316495309083403e-14,-1.0 l -1.0,1.3103720750876662e-14 l -1.316495309083403e-14,-1.0 l 1.0,-1.3226185430791398e-14 l 1.3287417770748765e-14,1.0 l -1.0,1.3348650110706133e-14 l 1.3287417770748765e-14,1.0 l -1.0,1.3348650110706133e-14 l -1.34098824506635e-14,-1.0 l 1.0,-1.3471114790620868e-14 l 1.3532347130578235e-14,1.0 l 1.0,-1.3471114790620868e-14 l 1.3532347130578235e-14,1.0 l -1.0,1.3593579470535603e-14 l -1.365481181049297e-14,-1.0 l 1.0,-1.3716044150450338e-14 l -1.365481181049297e-14,-1.0 l 1.0,-1.3716044150450338e-14 l 1.3777276490407706e-14,1.0 l -1.0,1.3838508830365073e-14 l -1.3899741170322441e-14,-1.0 l -1.0,1.3838508830365073e-14 l -1.3899741170322441e-14,-1.0 l 1.0,-1.3960973510279808e-14 l -1.3899741170322441e-14,-1.0 l 1.0,-1.3960973510279808e-14 l -1.3899741170322441e-14,-1.0 l 1.0,-1.3960973510279808e-14 l 1.4022205850237176e-14,1.0 l -1.0,1.4083438190194544e-14 l -1.4144670530151911e-14,-1.0 l -1.0,1.4083438190194544e-14 l -1.4144670530151911e-14,-1.0 l 1.0,-1.4205902870109279e-14 l 1.4267135210066648e-14,1.0 l -1.0,1.4328367550024015e-14 l 1.4267135210066648e-14,1.0 l -1.0,1.4328367550024015e-14 l -1.4389599889981383e-14,-1.0 l 1.0,-1.445083222993875e-14 l 1.4512064569896118e-14,1.0 l 1.0,-1.445083222993875e-14 l 1.4512064569896118e-14,1.0 l -1.0,1.4573296909853486e-14 l -1.4634529249810853e-14,-1.0 l 1.0,-1.469576158976822e-14 l -1.4634529249810853e-14,-1.0 l 1.0,-1.469576158976822e-14 l 1.475699392972559e-14,1.0 l 1.0,-1.469576158976822e-14 l 1.475699392972559e-14,1.0 l 1.0,-1.469576158976822e-14 l 1.475699392972559e-14,1.0 l -1.0,1.4818226269682956e-14 l -1.4879458609640324e-14,-1.0 l 1.0,-1.494069094959769e-14 l -1.4879458609640324e-14,-1.0 l 1.0,-1.494069094959769e-14 l 1.500192328955506e-14,1.0 l -1.0,1.5063155629512426e-14 l -1.5124387969469794e-14,-1.0 l -1.0,1.5063155629512426e-14 l -1.5124387969469794e-14,-1.0 l 1.0,-1.518562030942716e-14 l 1.524685264938453e-14,1.0 l -1.0,1.5308084989341897e-14 l 1.524685264938453e-14,1.0 l -1.0,1.5308084989341897e-14 l -1.5369317329299264e-14,-1.0 l 1.0,-1.5430549669256632e-14 l 1.5491782009214e-14,1.0 l 1.0,-1.5430549669256632e-14 l 1.5491782009214e-14,1.0 l -1.0,1.5553014349171367e-14 l 1.5491782009214e-14,1.0 l -1.0,1.5553014349171367e-14 l 1.5491782009214e-14,1.0 l -1.0,1.5553014349171367e-14 l -1.5614246689128735e-14,-1.0 l 1.0,-1.5675479029086102e-14 l 1.573671136904347e-14,1.0 l 1.0,-1.5675479029086102e-14 l 1.573671136904347e-14,1.0 l -1.0,1.5797943709000837e-14 l -1.5859176048958205e-14,-1.0 l 1.0,-1.5920408388915572e-14 l -1.5859176048958205e-14,-1.0 l 1.0,-1.5920408388915572e-14 l 1.598164072887294e-14,1.0 l -1.0,1.6042873068830308e-14 l -1.6104105408787675e-14,-1.0 l -1.0,1.6042873068830308e-14 l -1.6104105408787675e-14,-1.0 l 1.0,-1.6165337748745043e-14 l 1.622657008870241e-14,1.0 l -1.0,1.6287802428659778e-14 l 1.622657008870241e-14,1.0 l -1.0,1.6287802428659778e-14 l -1.6349034768617145e-14,-1.0 l -1.0,1.6287802428659778e-14 l -1.6349034768617145e-14,-1.0 l -1.0,1.6287802428659778e-14 l -1.6349034768617145e-14,-1.0 l 1.0,-1.6410267108574513e-14 l 1.647149944853188e-14,1.0 l -1.0,1.6532731788489248e-14 l 1.647149944853188e-14,1.0 l -1.0,1.6532731788489248e-14 l -1.6593964128446616e-14,-1.0 l 1.0,-1.6655196468403983e-14 l 1.671642880836135e-14,1.0 l 1.0,-1.6655196468403983e-14 l 1.671642880836135e-14,1.0 l -1.0,1.677766114831872e-14 l 1.671642880836135e-14,1.0 l -1.0,1.677766114831872e-14 l 1.671642880836135e-14,1.0 l -1.0,1.677766114831872e-14 l -1.6838893488276086e-14,-1.0 l 1.0,-1.6900125828233454e-14 l 1.696135816819082e-14,1.0 l 1.0,-1.6900125828233454e-14 l 1.696135816819082e-14,1.0 l -1.0,1.702259050814819e-14 l 1.696135816819082e-14,1.0 l -1.0,1.702259050814819e-14 l 1.696135816819082e-14,1.0 l -1.0,1.702259050814819e-14 l -1.7083822848105556e-14,-1.0 l 1.0,-1.7145055188062924e-14 l 1.720628752802029e-14,1.0 l 1.0,-1.7145055188062924e-14 l 1.720628752802029e-14,1.0 l -1.0,1.726751986797766e-14 l -1.7328752207935027e-14,-1.0 l 1.0,-1.7389984547892394e-14 l -1.7328752207935027e-14,-1.0 l 1.0,-1.7389984547892394e-14 l 1.7451216887849762e-14,1.0 l -1.0,1.751244922780713e-14 l -1.7573681567764497e-14,-1.0 l -1.0,1.751244922780713e-14 l -1.7573681567764497e-14,-1.0 l 1.0,-1.7634913907721864e-14 l 1.7696146247679232e-14,1.0 l -1.0,1.77573785876366e-14 l 1.7696146247679232e-14,1.0 l -1.0,1.77573785876366e-14 l -1.7818610927593967e-14,-1.0 l -1.0,1.77573785876366e-14 l -1.7818610927593967e-14,-1.0 l -1.0,1.77573785876366e-14 l -1.7818610927593967e-14,-1.0 l 1.0,-1.7879843267551335e-14 l 1.7941075607508702e-14,1.0 l -1.0,1.800230794746607e-14 l 1.7941075607508702e-14,1.0 l -1.0,1.800230794746607e-14 l -1.8063540287423438e-14,-1.0 l 1.0,-1.8124772627380805e-14 l 1.8186004967338173e-14,1.0 l 1.0,-1.8124772627380805e-14 l 1.8186004967338173e-14,1.0 l -1.0,1.824723730729554e-14 l -1.8308469647252908e-14,-1.0 l 1.0,-1.8369701987210275e-14 l -1.8308469647252908e-14,-1.0 l 1.0,-1.8369701987210275e-14 l 1.8430934327167643e-14,1.0 l -1.0,1.849216666712501e-14 l -1.8553399007082378e-14,-1.0 l -1.0,1.849216666712501e-14 l -1.8553399007082378e-14,-1.0 l 1.0,-1.8614631347039746e-14 l -1.8553399007082378e-14,-1.0 l 1.0,-1.8614631347039746e-14 l -1.8553399007082378e-14,-1.0 l 1.0,-1.8614631347039746e-14 l 1.8675863686997113e-14,1.0 l -1.0,1.873709602695448e-14 l -1.8798328366911848e-14,-1.0 l -1.0,1.873709602695448e-14 l -1.8798328366911848e-14,-1.0 l 1.0,-1.8859560706869216e-14 l 1.8920793046826584e-14,1.0 l -1.0,1.898202538678395e-14 l 1.8920793046826584e-14,1.0 l -1.0,1.898202538678395e-14 l -1.904325772674132e-14,-1.0 l 1.0,-1.9104490066698686e-14 l 1.9165722406656054e-14,1.0 l 1.0,-1.9104490066698686e-14 l 1.9165722406656054e-14,1.0 l -1.0,1.922695474661342e-14 l -1.928818708657079e-14,-1.0 l 1.0,-1.9349419426528157e-14 l -1.928818708657079e-14,-1.0 l 1.0,-1.9349419426528157e-14 l 1.9410651766485524e-14,1.0 l 1.0,-1.9349419426528157e-14 l 1.9410651766485524e-14,1.0 l 1.0,-1.9349419426528157e-14 l 1.9410651766485524e-14,1.0 l -1.0,1.9471884106442892e-14 l -1.953311644640026e-14,-1.0 l 1.0,-1.9594348786357627e-14 l -1.953311644640026e-14,-1.0 l 1.0,-1.9594348786357627e-14 l 1.9655581126314994e-14,1.0 l -1.0,1.9716813466272362e-14 l -1.977804580622973e-14,-1.0 l -1.0,1.9716813466272362e-14 l -1.977804580622973e-14,-1.0 l 1.0,-1.9839278146187097e-14 l 1.9900510486144465e-14,1.0 l -1.0,1.9961742826101832e-14 l 1.9900510486144465e-14,1.0 l -1.0,1.9961742826101832e-14 l -2.00229751660592e-14,-1.0 l 1.0,-2.0084207506016567e-14 l 2.0145439845973935e-14,1.0 l 1.0,-2.0084207506016567e-14 l 2.0145439845973935e-14,1.0 l -1.0,2.0206672185931303e-14 l 2.0145439845973935e-14,1.0 l -1.0,2.0206672185931303e-14 l 2.0145439845973935e-14,1.0 l -1.0,2.0206672185931303e-14 l -2.026790452588867e-14,-1.0 l 1.0,-2.0329136865846038e-14 l 2.0390369205803405e-14,1.0 l 1.0,-2.0329136865846038e-14 l 2.0390369205803405e-14,1.0 l -1.0,2.0451601545760773e-14 l -2.051283388571814e-14,-1.0 l 1.0,-2.0574066225675508e-14 l -2.051283388571814e-14,-1.0 l 1.0,-2.0574066225675508e-14 l 2.0635298565632876e-14,1.0 l 1.0,-2.0574066225675508e-14 l 2.0635298565632876e-14,1.0 l 1.0,-2.0574066225675508e-14 l 2.0635298565632876e-14,1.0 l -1.0,2.0696530905590243e-14 l -2.075776324554761e-14,-1.0 l 1.0,-2.0818995585504978e-14 l -2.075776324554761e-14,-1.0 l 1.0,-2.0818995585504978e-14 l 2.0880227925462346e-14,1.0 l 1.0,-2.0818995585504978e-14 l 2.0880227925462346e-14,1.0 l 1.0,-2.0818995585504978e-14 l 2.0880227925462346e-14,1.0 l -1.0,2.0941460265419713e-14 l -2.100269260537708e-14,-1.0 l 1.0,-2.106392494533445e-14 l -2.100269260537708e-14,-1.0 l 1.0,-2.106392494533445e-14 l 2.1125157285291816e-14,1.0 l -1.0,2.1186389625249184e-14 l -2.124762196520655e-14,-1.0 l -1.0,2.1186389625249184e-14 l -2.124762196520655e-14,-1.0 l 1.0,-2.130885430516392e-14 l 2.1370086645121287e-14,1.0 l -1.0,2.1431318985078654e-14 l 2.1370086645121287e-14,1.0 l -1.0,2.1431318985078654e-14 l -2.1492551325036022e-14,-1.0 l 1.0,-2.155378366499339e-14 l 2.1615016004950757e-14,1.0 l 1.0,-2.155378366499339e-14 l 2.1615016004950757e-14,1.0 l -1.0,2.1676248344908124e-14 l 2.1615016004950757e-14,1.0 l -1.0,2.1676248344908124e-14 l 2.1615016004950757e-14,1.0 l -1.0,2.1676248344908124e-14 l -2.1737480684865492e-14,-1.0 l 1.0,-2.179871302482286e-14 l 2.1859945364780227e-14,1.0 l 1.0,-2.179871302482286e-14 l 2.1859945364780227e-14,1.0 l -1.0,2.1921177704737595e-14 l -2.1982410044694962e-14,-1.0 l 1.0,-2.204364238465233e-14 l -2.1982410044694962e-14,-1.0 l 1.0,-2.204364238465233e-14 l 2.2104874724609697e-14,1.0 l -1.0,2.2166107064567065e-14 l -2.2227339404524433e-14,-1.0 l -1.0,2.2166107064567065e-14 l -2.2227339404524433e-14,-1.0 l 1.0,-2.22885717444818e-14 l 2.2349804084439168e-14,1.0 l -1.0,2.2411036424396535e-14 l 2.2349804084439168e-14,1.0 l -1.0,2.2411036424396535e-14 l -2.2472268764353903e-14,-1.0 l -1.0,2.2411036424396535e-14 l -2.2472268764353903e-14,-1.0 l -1.0,2.2411036424396535e-14 l -2.2472268764353903e-14,-1.0 l 1.0,-2.253350110431127e-14 l 2.2594733444268638e-14,1.0 l -1.0,2.2655965784226006e-14 l 2.2594733444268638e-14,1.0 l -1.0,2.2655965784226006e-14 l -2.2717198124183373e-14,-1.0 l 1.0,-2.277843046414074e-14 l 2.2839662804098108e-14,1.0 l 1.0,-2.277843046414074e-14 l 2.2839662804098108e-14,1.0 l -1.0,2.2900895144055476e-14 l -2.2962127484012843e-14,-1.0 l 1.0,-2.302335982397021e-14 l -2.2962127484012843e-14,-1.0 l 1.0,-2.302335982397021e-14 l 2.308459216392758e-14,1.0 l -1.0,2.3145824503884946e-14 l -2.3207056843842314e-14,-1.0 l -1.0,2.3145824503884946e-14 l -2.3207056843842314e-14,-1.0 l 1.0,-2.326828918379968e-14 l -2.3207056843842314e-14,-1.0 l 1.0,-2.326828918379968e-14 l -2.3207056843842314e-14,-1.0 l 1.0,-2.326828918379968e-14 l 2.332952152375705e-14,1.0 l -1.0,2.3390753863714416e-14 l -2.3451986203671784e-14,-1.0 l -1.0,2.3390753863714416e-14 l -2.3451986203671784e-14,-1.0 l 1.0,-2.3513218543629152e-14 l 2.357445088358652e-14,1.0 l -1.0,2.3635683223543887e-14 l 2.357445088358652e-14,1.0 l -1.0,2.3635683223543887e-14 l -2.3696915563501254e-14,-1.0 l 1.0,-2.3758147903458622e-14 l 2.381938024341599e-14,1.0 l 1.0,-2.3758147903458622e-14 l 2.381938024341599e-14,1.0 l -1.0,2.3880612583373357e-14 l -2.3941844923330725e-14,-1.0 l 1.0,-2.4003077263288092e-14 l -2.3941844923330725e-14,-1.0 l 1.0,-2.4003077263288092e-14 l 2.406430960324546e-14,1.0 l 1.0,-2.4003077263288092e-14 l 2.406430960324546e-14,1.0 l 1.0,-2.4003077263288092e-14 l 2.406430960324546e-14,1.0 l -1.0,2.4125541943202827e-14 l -2.4186774283160195e-14,-1.0 l 1.0,-2.4248006623117562e-14 l -2.4186774283160195e-14,-1.0 l 1.0,-2.4248006623117562e-14 l 2.430923896307493e-14,1.0 l -1.0,2.4370471303032298e-14 l -2.4431703642989665e-14,-1.0 l -1.0,2.4370471303032298e-14 l -2.4431703642989665e-14,-1.0 l 1.0,-2.4492935982947033e-14 l -2.4431703642989665e-14,-1.0 l 1.0,-2.4492935982947033e-14 l -2.4431703642989665e-14,-1.0 l 1.0,-2.4492935982947033e-14 l 2.45541683229044e-14,1.0 l -1.0,2.4615400662861768e-14 l -2.4676633002819136e-14,-1.0 l -1.0,2.4615400662861768e-14 l -2.4676633002819136e-14,-1.0 l 1.0,-2.4737865342776503e-14 l -2.4676633002819136e-14,-1.0 l 1.0,-2.4737865342776503e-14 l -2.4676633002819136e-14,-1.0 l 1.0,-2.4737865342776503e-14 l 2.479909768273387e-14,1.0 l -1.0,2.4860330022691238e-14 l -2.4921562362648606e-14,-1.0 l -1.0,2.4860330022691238e-14 l -2.4921562362648606e-14,-1.0 l 1.0,-2.4982794702605973e-14 l 2.504402704256334e-14,1.0 l -1.0,2.510525938252071e-14 l 2.504402704256334e-14,1.0 l -1.0,2.510525938252071e-14 l -2.5166491722478076e-14,-1.0 l 1.0,-2.5227724062435444e-14 l 2.528895640239281e-14,1.0 l 1.0,-2.5227724062435444e-14 l 2.528895640239281e-14,1.0 l -1.0,2.535018874235018e-14 l -2.5411421082307546e-14,-1.0 l 1.0,-2.5472653422264914e-14 l -2.5411421082307546e-14,-1.0 l 1.0,-2.5472653422264914e-14 l 2.553388576222228e-14,1.0 l 1.0,-2.5472653422264914e-14 l 2.553388576222228e-14,1.0 l 1.0,-2.5472653422264914e-14 l 2.553388576222228e-14,1.0 l -1.0,2.559511810217965e-14 l -2.5656350442137017e-14,-1.0 l 1.0,-2.5717582782094384e-14 l -2.5656350442137017e-14,-1.0 l 1.0,-2.5717582782094384e-14 l 2.5778815122051752e-14,1.0 l -1.0,2.584004746200912e-14 l -2.5901279801966487e-14,-1.0 l -1.0,2.584004746200912e-14 l -2.5901279801966487e-14,-1.0 l 1.0,-2.5962512141923855e-14 l 2.6023744481881222e-14,1.0 l -1.0,2.608497682183859e-14 l 2.6023744481881222e-14,1.0 l -1.0,2.608497682183859e-14 l -2.6146209161795957e-14,-1.0 l 1.0,-2.6207441501753325e-14 l 2.6268673841710692e-14,1.0 l 1.0,-2.6207441501753325e-14 l 2.6268673841710692e-14,1.0 l -1.0,2.632990618166806e-14 l 2.6268673841710692e-14,1.0 l -1.0,2.632990618166806e-14 l 2.6268673841710692e-14,1.0 l -1.0,2.632990618166806e-14 l -2.6391138521625428e-14,-1.0 l 1.0,-2.6452370861582795e-14 l 2.6513603201540163e-14,1.0 l 1.0,-2.6452370861582795e-14 l 2.6513603201540163e-14,1.0 l -1.0,2.657483554149753e-14 l -2.6636067881454898e-14,-1.0 l 1.0,-2.6697300221412265e-14 l -2.6636067881454898e-14,-1.0 l 1.0,-2.6697300221412265e-14 l 2.6758532561369633e-14,1.0 l 1.0,-2.6697300221412265e-14 l 2.6758532561369633e-14,1.0 l 1.0,-2.6697300221412265e-14 l 2.6758532561369633e-14,1.0 l -1.0,2.6819764901327e-14 l -2.6880997241284368e-14,-1.0 l 1.0,-2.6942229581241736e-14 l -2.6880997241284368e-14,-1.0 l 1.0,-2.6942229581241736e-14 l 2.7003461921199103e-14,1.0 l 1.0,-2.6942229581241736e-14 l 2.7003461921199103e-14,1.0 l 1.0,-2.6942229581241736e-14 l 2.7003461921199103e-14,1.0 l -1.0,2.706469426115647e-14 l -2.712592660111384e-14,-1.0 l 1.0,-2.7187158941071206e-14 l -2.712592660111384e-14,-1.0 l 1.0,-2.7187158941071206e-14 l 2.7248391281028574e-14,1.0 l -1.0,2.730962362098594e-14 l -2.737085596094331e-14,-1.0 l -1.0,2.730962362098594e-14 l -2.737085596094331e-14,-1.0 l 1.0,-2.7432088300900676e-14 l 2.7493320640858044e-14,1.0 l -1.0,2.755455298081541e-14 l 2.7493320640858044e-14,1.0 l -1.0,2.755455298081541e-14 l -2.761578532077278e-14,-1.0 l 1.0,-2.7677017660730147e-14 l 2.7738250000687514e-14,1.0 l 1.0,-2.7677017660730147e-14 l 2.7738250000687514e-14,1.0 l -1.0,2.7799482340644882e-14 l 2.7738250000687514e-14,1.0 l -1.0,2.7799482340644882e-14 l 2.7738250000687514e-14,1.0 l -1.0,2.7799482340644882e-14 l -2.786071468060225e-14,-1.0 l 1.0,-2.7921947020559617e-14 l 2.7983179360516985e-14,1.0 l 1.0,-2.7921947020559617e-14 l 2.7983179360516985e-14,1.0 l -1.0,2.8044411700474352e-14 l -2.810564404043172e-14,-1.0 l 1.0,-2.8166876380389087e-14 l -2.810564404043172e-14,-1.0 l 1.0,-2.8166876380389087e-14 l 2.8228108720346455e-14,1.0 l 1.0,-2.8166876380389087e-14 l 2.8228108720346455e-14,1.0 l 1.0,-2.8166876380389087e-14 l 2.8228108720346455e-14,1.0 l -1.0,2.8289341060303822e-14 l -2.835057340026119e-14,-1.0 l 1.0,-2.8411805740218558e-14 l -2.835057340026119e-14,-1.0 l 1.0,-2.8411805740218558e-14 l 2.847303808017593e-14,1.0 l 1.0,-2.841180574021856e-14 l 2.847303808017593e-14,1.0 l 1.0,-2.841180574021856e-14 l 2.847303808017593e-14,1.0 l -1.0,2.8534270420133296e-14 l -2.8595502760090663e-14,-1.0 l 1.0,-2.865673510004803e-14 l -2.8595502760090663e-14,-1.0 l 1.0,-2.865673510004803e-14 l 2.87179674400054e-14,1.0 l -1.0,2.8779199779962766e-14 l -2.8840432119920134e-14,-1.0 l -1.0,2.8779199779962766e-14 l -2.8840432119920134e-14,-1.0 l 1.0,-2.89016644598775e-14 l 2.896289679983487e-14,1.0 l -1.0,2.9024129139792236e-14 l 2.896289679983487e-14,1.0 l -1.0,2.9024129139792236e-14 l -2.9085361479749604e-14,-1.0 l 1.0,-2.914659381970697e-14 l 2.920782615966434e-14,1.0 l 1.0,-2.914659381970697e-14 l 2.920782615966434e-14,1.0 l -1.0,2.9269058499621707e-14 l 2.920782615966434e-14,1.0 l -1.0,2.9269058499621707e-14 l 2.920782615966434e-14,1.0 l -1.0,2.9269058499621707e-14 l -2.9330290839579074e-14,-1.0 l 1.0,-2.939152317953644e-14 l 2.945275551949381e-14,1.0 l 1.0,-2.939152317953644e-14 l 2.945275551949381e-14,1.0 l -1.0,2.951398785945118e-14 l -2.9575220199408545e-14,-1.0 l 1.0,-2.963645253936591e-14 l -2.9575220199408545e-14,-1.0 l 1.0,-2.963645253936591e-14 l 2.969768487932328e-14,1.0 l -1.0,2.975891721928065e-14 l -2.9820149559238015e-14,-1.0 l -1.0,2.975891721928065e-14 l -2.9820149559238015e-14,-1.0 l 1.0,-2.988138189919538e-14 l 2.994261423915275e-14,1.0 l -1.0,3.000384657911012e-14 l 2.994261423915275e-14,1.0 l -1.0,3.000384657911012e-14 l -3.0065078919067485e-14,-1.0 l -1.0,3.000384657911012e-14 l -3.0065078919067485e-14,-1.0 l -1.0,3.000384657911012e-14 l -3.0065078919067485e-14,-1.0 l 1.0,-3.012631125902485e-14 l 3.018754359898222e-14,1.0 l -1.0,3.024877593893959e-14 l 3.018754359898222e-14,1.0 l -1.0,3.024877593893959e-14 l -3.0310008278896955e-14,-1.0 l 1.0,-3.037124061885432e-14 l 3.043247295881169e-14,1.0 l 1.0,-3.037124061885432e-14 l 3.043247295881169e-14,1.0 l -1.0,3.049370529876906e-14 l -3.0554937638726426e-14,-1.0 l 1.0,-3.0616169978683793e-14 l -3.0554937638726426e-14,-1.0 l 1.0,-3.0616169978683793e-14 l 3.067740231864116e-14,1.0 l -1.0,3.073863465859853e-14 l -3.0799866998555896e-14,-1.0 l -1.0,3.073863465859853e-14 l -3.0799866998555896e-14,-1.0 l 1.0,-3.0861099338513264e-14 l -3.0799866998555896e-14,-1.0 l 1.0,-3.0861099338513264e-14 l -3.0799866998555896e-14,-1.0 l 1.0,-3.0861099338513264e-14 l 3.092233167847063e-14,1.0 l -1.0,3.0983564018428e-14 l -3.1044796358385366e-14,-1.0 l -1.0,3.0983564018428e-14 l -3.1044796358385366e-14,-1.0 l 1.0,-3.1106028698342734e-14 l 3.11672610383001e-14,1.0 l -1.0,3.122849337825747e-14 l 3.11672610383001e-14,1.0 l -1.0,3.122849337825747e-14 l -3.1289725718214837e-14,-1.0 l 1.0,-3.1350958058172204e-14 l 3.141219039812957e-14,1.0 l 1.0,-3.1350958058172204e-14 l 3.141219039812957e-14,1.0 l -1.0,3.147342273808694e-14 l -3.153465507804431e-14,-1.0 l 1.0,-3.1595887418001675e-14 l -3.153465507804431e-14,-1.0 l 1.0,-3.1595887418001675e-14 l 3.165711975795904e-14,1.0 l 1.0,-3.1595887418001675e-14 l 3.165711975795904e-14,1.0 l 1.0,-3.1595887418001675e-14 l 3.165711975795904e-14,1.0 l -1.0,3.171835209791641e-14 l -3.177958443787378e-14,-1.0 l 1.0,-3.1840816777831145e-14 l -3.177958443787378e-14,-1.0 l 1.0,-3.1840816777831145e-14 l 3.190204911778851e-14,1.0 l -1.0,3.196328145774588e-14 l -3.202451379770325e-14,-1.0 l -1.0,3.196328145774588e-14 l -3.202451379770325e-14,-1.0 l 1.0,-3.2085746137660615e-14 l -3.202451379770325e-14,-1.0 l 1.0,-3.2085746137660615e-14 l -3.202451379770325e-14,-1.0 l 1.0,-3.2085746137660615e-14 l 3.214697847761798e-14,1.0 l -1.0,3.220821081757535e-14 l -3.226944315753272e-14,-1.0 l -1.0,3.220821081757535e-14 l -3.226944315753272e-14,-1.0 l 1.0,-3.2330675497490085e-14 l -3.226944315753272e-14,-1.0 l 1.0,-3.2330675497490085e-14 l -3.226944315753272e-14,-1.0 l 1.0,-3.2330675497490085e-14 l 3.239190783744745e-14,1.0 l -1.0,3.245314017740482e-14 l -3.251437251736219e-14,-1.0 l -1.0,3.245314017740482e-14 l -3.251437251736219e-14,-1.0 l 1.0,-3.2575604857319556e-14 l 3.2636837197276923e-14,1.0 l -1.0,3.269806953723429e-14 l 3.2636837197276923e-14,1.0 l -1.0,3.269806953723429e-14 l -3.275930187719166e-14,-1.0 l 1.0,-3.2820534217149026e-14 l 3.2881766557106394e-14,1.0 l 1.0,-3.2820534217149026e-14 l 3.2881766557106394e-14,1.0 l -1.0,3.294299889706376e-14 l -3.300423123702113e-14,-1.0 l 1.0,-3.3065463576978496e-14 l -3.300423123702113e-14,-1.0 l 1.0,-3.3065463576978496e-14 l 3.3126695916935864e-14,1.0 l 1.0,-3.3065463576978496e-14 l 3.3126695916935864e-14,1.0 l 1.0,-3.3065463576978496e-14 l 3.3126695916935864e-14,1.0 l -1.0,3.318792825689323e-14 l -3.32491605968506e-14,-1.0 l 1.0,-3.3310392936807967e-14 l -3.32491605968506e-14,-1.0 l 1.0,-3.3310392936807967e-14 l 3.3371625276765334e-14,1.0 l -1.0,3.34328576167227e-14 l -3.349408995668007e-14,-1.0 l -1.0,3.34328576167227e-14 l -3.349408995668007e-14,-1.0 l 1.0,-3.355532229663744e-14 l 3.3616554636594804e-14,1.0 l -1.0,3.367778697655217e-14 l 3.3616554636594804e-14,1.0 l -1.0,3.367778697655217e-14 l -3.373901931650954e-14,-1.0 l 1.0,-3.380025165646691e-14 l 3.3861483996424275e-14,1.0 l 1.0,-3.380025165646691e-14 l 3.3861483996424275e-14,1.0 l -1.0,3.392271633638164e-14 l 3.3861483996424275e-14,1.0 l -1.0,3.392271633638164e-14 l 3.3861483996424275e-14,1.0 l -1.0,3.392271633638164e-14 l -3.398394867633901e-14,-1.0 l 1.0,-3.404518101629638e-14 l 3.4106413356253745e-14,1.0 l 1.0,-3.404518101629638e-14 l 3.4106413356253745e-14,1.0 l -1.0,3.416764569621111e-14 l -3.422887803616848e-14,-1.0 l 1.0,-3.429011037612585e-14 l -3.422887803616848e-14,-1.0 l 1.0,-3.429011037612585e-14 l 3.4351342716083215e-14,1.0 l -1.0,3.441257505604058e-14 l -3.447380739599795e-14,-1.0 l -1.0,3.441257505604058e-14 l -3.447380739599795e-14,-1.0 l 1.0,-3.453503973595532e-14 l 3.4596272075912686e-14,1.0 l -1.0,3.4657504415870053e-14 l 3.4596272075912686e-14,1.0 l -1.0,3.4657504415870053e-14 l -3.471873675582742e-14,-1.0 l -1.0,3.4657504415870053e-14 l -3.471873675582742e-14,-1.0 l -1.0,3.4657504415870053e-14 l -3.471873675582742e-14,-1.0 l 1.0,-3.477996909578479e-14 l 3.4841201435742156e-14,1.0 l -1.0,3.4902433775699524e-14 l 3.4841201435742156e-14,1.0 l -1.0,3.4902433775699524e-14 l -3.496366611565689e-14,-1.0 l 1.0,-3.502489845561426e-14 l 3.5086130795571626e-14,1.0 l 1.0,-3.502489845561426e-14 l 3.5086130795571626e-14,1.0 l -1.0,3.5147363135528994e-14 l -3.520859547548636e-14,-1.0 l 1.0,-3.526982781544373e-14 l -3.520859547548636e-14,-1.0 l 1.0,-3.526982781544373e-14 l 3.5331060155401097e-14,1.0 l -1.0,3.5392292495358464e-14 l -3.545352483531583e-14,-1.0 l -1.0,3.5392292495358464e-14 l -3.545352483531583e-14,-1.0 l 1.0,-3.55147571752732e-14 l -3.545352483531583e-14,-1.0 l 1.0,-3.55147571752732e-14 l -3.545352483531583e-14,-1.0 l 1.0,-3.55147571752732e-14 l 3.557598951523057e-14,1.0 l -1.0,3.5637221855187934e-14 l -3.56984541951453e-14,-1.0 l -1.0,3.5637221855187934e-14 l -3.56984541951453e-14,-1.0 l 1.0,-3.575968653510267e-14 l 3.582091887506004e-14,1.0 l -1.0,3.5882151215017405e-14 l 3.582091887506004e-14,1.0 l -1.0,3.5882151215017405e-14 l -3.594338355497477e-14,-1.0 l -1.0,3.5882151215017405e-14 l -3.594338355497477e-14,-1.0 l -1.0,3.5882151215017405e-14 l -3.594338355497477e-14,-1.0 l 1.0,-3.600461589493214e-14 l 3.606584823488951e-14,1.0 l -1.0,3.6127080574846875e-14 l 3.606584823488951e-14,1.0 l -1.0,3.6127080574846875e-14 l -3.618831291480424e-14,-1.0 l -1.0,3.6127080574846875e-14 l -3.618831291480424e-14,-1.0 l -1.0,3.6127080574846875e-14 l -3.618831291480424e-14,-1.0 l 1.0,-3.624954525476161e-14 l 3.631077759471898e-14,1.0 l -1.0,3.6372009934676345e-14 l 3.631077759471898e-14,1.0 l -1.0,3.6372009934676345e-14 l -3.643324227463371e-14,-1.0 l 1.0,-3.649447461459108e-14 l 3.655570695454845e-14,1.0 l 1.0,-3.649447461459108e-14 l 3.655570695454845e-14,1.0 l -1.0,3.6616939294505816e-14 l -3.6678171634463183e-14,-1.0 l 1.0,-3.673940397442055e-14 l -3.6678171634463183e-14,-1.0 l 1.0,-3.673940397442055e-14 l 3.680063631437792e-14,1.0 l -1.0,3.6861868654335286e-14 l -3.6923100994292653e-14,-1.0 l -1.0,3.6861868654335286e-14 l -3.6923100994292653e-14,-1.0 l 1.0,-3.698433333425002e-14 l -3.6923100994292653e-14,-1.0 l 1.0,-3.698433333425002e-14 l -3.6923100994292653e-14,-1.0 l 1.0,-3.698433333425002e-14 l 3.704556567420739e-14,1.0 l -1.0,3.7106798014164756e-14 l -3.7168030354122124e-14,-1.0 l -1.0,3.7106798014164756e-14 l -3.7168030354122124e-14,-1.0 l 1.0,-3.722926269407949e-14 l 3.729049503403686e-14,1.0 l -1.0,3.7351727373994226e-14 l 3.729049503403686e-14,1.0 l -1.0,3.7351727373994226e-14 l -3.7412959713951594e-14,-1.0 l 1.0,-3.747419205390896e-14 l 3.753542439386633e-14,1.0 l 1.0,-3.747419205390896e-14 l 3.753542439386633e-14,1.0 l -1.0,3.7596656733823697e-14 l -3.7657889073781064e-14,-1.0 l 1.0,-3.771912141373843e-14 l -3.7657889073781064e-14,-1.0 l 1.0,-3.771912141373843e-14 l 3.77803537536958e-14,1.0 l 1.0,-3.771912141373843e-14 l 3.77803537536958e-14,1.0 l 1.0,-3.771912141373843e-14 l 3.77803537536958e-14,1.0 l -1.0,3.784158609365317e-14 l -3.7902818433610535e-14,-1.0 l 1.0,-3.79640507735679e-14 l -3.7902818433610535e-14,-1.0 l 1.0,-3.79640507735679e-14 l 3.802528311352527e-14,1.0 l -1.0,3.808651545348264e-14 l -3.8147747793440005e-14,-1.0 l -1.0,3.808651545348264e-14 l -3.8147747793440005e-14,-1.0 l 1.0,-3.820898013339737e-14 l 3.827021247335474e-14,1.0 l -1.0,3.833144481331211e-14 l 3.827021247335474e-14,1.0 l -1.0,3.833144481331211e-14 l -3.8392677153269475e-14,-1.0 l 1.0,-3.845390949322684e-14 l 3.851514183318421e-14,1.0 l 1.0,-3.845390949322684e-14 l 3.851514183318421e-14,1.0 l -1.0,3.857637417314158e-14 l 3.851514183318421e-14,1.0 l -1.0,3.857637417314158e-14 l 3.851514183318421e-14,1.0 l -1.0,3.857637417314158e-14 l -3.8637606513098946e-14,-1.0 l 1.0,-3.869883885305631e-14 l 3.876007119301368e-14,1.0 l 1.0,-3.869883885305631e-14 l 3.876007119301368e-14,1.0 l -1.0,3.882130353297105e-14 l -3.8882535872928416e-14,-1.0 l 1.0,-3.8943768212885783e-14 l -3.8882535872928416e-14,-1.0 l 1.0,-3.8943768212885783e-14 l 3.900500055284315e-14,1.0 l -1.0,3.906623289280052e-14 l -3.9127465232757886e-14,-1.0 l -1.0,3.906623289280052e-14 l -3.9127465232757886e-14,-1.0 l 1.0,-3.9188697572715254e-14 l 3.924992991267262e-14,1.0 l -1.0,3.931116225262999e-14 l 3.924992991267262e-14,1.0 l -1.0,3.931116225262999e-14 l -3.9372394592587356e-14,-1.0 l -1.0,3.931116225262999e-14 l -3.9372394592587356e-14,-1.0 l -1.0,3.931116225262999e-14 l -3.9372394592587356e-14,-1.0 l 1.0,-3.9433626932544724e-14 l 3.949485927250209e-14,1.0 l -1.0,3.955609161245946e-14 l 3.949485927250209e-14,1.0 l -1.0,3.955609161245946e-14 l -3.9617323952416827e-14,-1.0 l 1.0,-3.9678556292374194e-14 l 3.973978863233156e-14,1.0 l 1.0,-3.9678556292374194e-14 l 3.973978863233156e-14,1.0 l -1.0,3.980102097228893e-14 l 3.973978863233156e-14,1.0 l -1.0,3.980102097228893e-14 l 3.973978863233156e-14,1.0 l -1.0,3.980102097228893e-14 l -3.98622533122463e-14,-1.0 l 1.0,-3.9923485652203665e-14 l 3.998471799216103e-14,1.0 l 1.0,-3.9923485652203665e-14 l 3.998471799216103e-14,1.0 l -1.0,4.00459503321184e-14 l 3.998471799216103e-14,1.0 l -1.0,4.00459503321184e-14 l 3.998471799216103e-14,1.0 l -1.0,4.00459503321184e-14 l -4.010718267207577e-14,-1.0 l 1.0,-4.0168415012033135e-14 l 4.02296473519905e-14,1.0 l 1.0,-4.0168415012033135e-14 l 4.02296473519905e-14,1.0 l -1.0,4.029087969194787e-14 l -4.035211203190524e-14,-1.0 l 1.0,-4.0413344371862605e-14 l -4.035211203190524e-14,-1.0 l 1.0,-4.0413344371862605e-14 l 4.047457671181997e-14,1.0 l -1.0,4.053580905177734e-14 l -4.059704139173471e-14,-1.0 l -1.0,4.053580905177734e-14 l -4.059704139173471e-14,-1.0 l 1.0,-4.0658273731692075e-14 l 4.071950607164944e-14,1.0 l -1.0,4.078073841160681e-14 l 4.071950607164944e-14,1.0 l -1.0,4.078073841160681e-14 l -4.084197075156418e-14,-1.0 l -1.0,4.078073841160681e-14 l -4.084197075156418e-14,-1.0 l -1.0,4.078073841160681e-14 l -4.084197075156418e-14,-1.0 l 1.0,-4.0903203091521546e-14 l 4.0964435431478913e-14,1.0 l -1.0,4.102566777143628e-14 l 4.0964435431478913e-14,1.0 l -1.0,4.102566777143628e-14 l -4.108690011139365e-14,-1.0 l 1.0,-4.1148132451351016e-14 l 4.1209364791308384e-14,1.0 l 1.0,-4.1148132451351016e-14 l 4.1209364791308384e-14,1.0 l -1.0,4.127059713126575e-14 l -4.133182947122312e-14,-1.0 l 1.0,-4.1393061811180486e-14 l -4.133182947122312e-14,-1.0 l 1.0,-4.1393061811180486e-14 l 4.1454294151137854e-14,1.0 l -1.0,4.151552649109522e-14 l -4.157675883105259e-14,-1.0 l -1.0,4.151552649109522e-14 l -4.157675883105259e-14,-1.0 l 1.0,-4.1637991171009957e-14 l -4.157675883105259e-14,-1.0 l 1.0,-4.1637991171009957e-14 l -4.157675883105259e-14,-1.0 l 1.0,-4.1637991171009957e-14 l 4.1699223510967324e-14,1.0 l -1.0,4.176045585092469e-14 l -4.182168819088206e-14,-1.0 l -1.0,4.176045585092469e-14 l -4.182168819088206e-14,-1.0 l 1.0,-4.188292053083943e-14 l 4.1944152870796795e-14,1.0 l -1.0,4.200538521075416e-14 l 4.1944152870796795e-14,1.0 l -1.0,4.200538521075416e-14 l -4.206661755071153e-14,-1.0 l 1.0,-4.21278498906689e-14 l 4.2189082230626265e-14,1.0 l 1.0,-4.21278498906689e-14 l 4.2189082230626265e-14,1.0 l -1.0,4.225031457058363e-14 l -4.2311546910541e-14,-1.0 l 1.0,-4.237277925049837e-14 l -4.2311546910541e-14,-1.0 l 1.0,-4.237277925049837e-14 l 4.2434011590455735e-14,1.0 l 1.0,-4.237277925049837e-14 l 4.2434011590455735e-14,1.0 l 1.0,-4.237277925049837e-14 l 4.2434011590455735e-14,1.0 l -1.0,4.24952439304131e-14 l -4.255647627037047e-14,-1.0 l 1.0,-4.261770861032784e-14 l -4.255647627037047e-14,-1.0 l 1.0,-4.261770861032784e-14 l 4.2678940950285205e-14,1.0 l -1.0,4.274017329024257e-14 l -4.280140563019994e-14,-1.0 l -1.0,4.274017329024257e-14 l -4.280140563019994e-14,-1.0 l 1.0,-4.286263797015731e-14 l 4.2923870310114676e-14,1.0 l -1.0,4.2985102650072043e-14 l 4.2923870310114676e-14,1.0 l -1.0,4.2985102650072043e-14 l -4.304633499002941e-14,-1.0 l 1.0,-4.310756732998678e-14 l 4.3168799669944146e-14,1.0 l 1.0,-4.310756732998678e-14 l 4.3168799669944146e-14,1.0 l -1.0,4.3230032009901514e-14 l 4.3168799669944146e-14,1.0 l -1.0,4.3230032009901514e-14 l 4.3168799669944146e-14,1.0 l -1.0,4.3230032009901514e-14 l -4.329126434985888e-14,-1.0 l 1.0,-4.335249668981625e-14 l 4.3413729029773616e-14,1.0 l 1.0,-4.335249668981625e-14 l 4.3413729029773616e-14,1.0 l -1.0,4.3474961369730984e-14 l -4.353619370968835e-14,-1.0 l 1.0,-4.359742604964572e-14 l -4.353619370968835e-14,-1.0 l 1.0,-4.359742604964572e-14 l 4.3658658389603087e-14,1.0 l 1.0,-4.359742604964572e-14 l 4.3658658389603087e-14,1.0 l 1.0,-4.359742604964572e-14 l 4.3658658389603087e-14,1.0 l -1.0,4.3719890729560454e-14 l -4.378112306951782e-14,-1.0 l 1.0,-4.384235540947519e-14 l -4.378112306951782e-14,-1.0 l 1.0,-4.384235540947519e-14 l 4.390358774943256e-14,1.0 l 1.0,-4.384235540947519e-14 l 4.390358774943256e-14,1.0 l 1.0,-4.384235540947519e-14 l 4.390358774943256e-14,1.0 l -1.0,4.3964820089389924e-14 l -4.402605242934729e-14,-1.0 l 1.0,-4.408728476930466e-14 l -4.402605242934729e-14,-1.0 l 1.0,-4.408728476930466e-14 l 4.414851710926203e-14,1.0 l -1.0,4.4209749449219395e-14 l -4.427098178917676e-14,-1.0 l -1.0,4.4209749449219395e-14 l -4.427098178917676e-14,-1.0 l 1.0,-4.433221412913413e-14 l 4.43934464690915e-14,1.0 l -1.0,4.4454678809048865e-14 l 4.43934464690915e-14,1.0 l -1.0,4.4454678809048865e-14 l -4.451591114900623e-14,-1.0 l 1.0,-4.45771434889636e-14 l 4.463837582892097e-14,1.0 l 1.0,-4.45771434889636e-14 l 4.463837582892097e-14,1.0 l -1.0,4.4699608168878335e-14 l 4.463837582892097e-14,1.0 l -1.0,4.4699608168878335e-14 l 4.463837582892097e-14,1.0 l -1.0,4.4699608168878335e-14 l -4.47608405088357e-14,-1.0 l 1.0,-4.482207284879307e-14 l 4.488330518875044e-14,1.0 l 1.0,-4.482207284879307e-14 l 4.488330518875044e-14,1.0 l -1.0,4.4944537528707806e-14 l -4.5005769868665173e-14,-1.0 l 1.0,-4.506700220862254e-14 l -4.5005769868665173e-14,-1.0 l 1.0,-4.506700220862254e-14 l 4.512823454857991e-14,1.0 l -1.0,4.5189466888537276e-14 l -4.5250699228494644e-14,-1.0 l -1.0,4.5189466888537276e-14 l -4.5250699228494644e-14,-1.0 l 1.0,-4.531193156845201e-14 l 4.537316390840938e-14,1.0 l -1.0,4.5434396248366746e-14 l 4.537316390840938e-14,1.0 l -1.0,4.5434396248366746e-14 l -4.5495628588324114e-14,-1.0 l -1.0,4.5434396248366746e-14 l -4.5495628588324114e-14,-1.0 l -1.0,4.5434396248366746e-14 l -4.5495628588324114e-14,-1.0 l 1.0,-4.555686092828148e-14 l 4.561809326823885e-14,1.0 l -1.0,4.5679325608196217e-14 l 4.561809326823885e-14,1.0 l -1.0,4.5679325608196217e-14 l -4.5740557948153584e-14,-1.0 l 1.0,-4.580179028811095e-14 l 4.586302262806832e-14,1.0 l 1.0,-4.580179028811095e-14 l 4.586302262806832e-14,1.0 l -1.0,4.592425496802569e-14 l 4.586302262806832e-14,1.0 l -1.0,4.592425496802569e-14 l 4.586302262806832e-14,1.0 l -1.0,4.592425496802569e-14 l -4.5985487307983054e-14,-1.0 l 1.0,-4.604671964794042e-14 l 4.610795198789779e-14,1.0 l 1.0,-4.604671964794042e-14 l 4.610795198789779e-14,1.0 l -1.0,4.616918432785516e-14 l 4.610795198789779e-14,1.0 l -1.0,4.616918432785516e-14 l 4.610795198789779e-14,1.0 l -1.0,4.616918432785516e-14 l -4.6230416667812525e-14,-1.0 l 1.0,-4.629164900776989e-14 l 4.635288134772726e-14,1.0 l 1.0,-4.629164900776989e-14 l 4.635288134772726e-14,1.0 l -1.0,4.641411368768463e-14 l -4.6475346027641995e-14,-1.0 l 1.0,-4.653657836759936e-14 l -4.6475346027641995e-14,-1.0 l 1.0,-4.653657836759936e-14 l 4.659781070755673e-14,1.0 l -1.0,4.66590430475141e-14 l -4.6720275387471465e-14,-1.0 l -1.0,4.66590430475141e-14 l -4.6720275387471465e-14,-1.0 l 1.0,-4.678150772742883e-14 l 4.68427400673862e-14,1.0 l -1.0,4.690397240734357e-14 l 4.68427400673862e-14,1.0 l -1.0,4.690397240734357e-14 l -4.6965204747300936e-14,-1.0 l -1.0,4.690397240734357e-14 l -4.6965204747300936e-14,-1.0 l -1.0,4.690397240734357e-14 l -4.6965204747300936e-14,-1.0 l 1.0,-4.7026437087258303e-14 l 4.708766942721567e-14,1.0 l -1.0,4.714890176717304e-14 l 4.708766942721567e-14,1.0 l -1.0,4.714890176717304e-14 l -4.7210134107130406e-14,-1.0 l 1.0,-4.7271366447087773e-14 l 4.733259878704514e-14,1.0 l 1.0,-4.7271366447087773e-14 l 4.733259878704514e-14,1.0 l -1.0,4.739383112700251e-14 l 4.733259878704514e-14,1.0 l -1.0,4.739383112700251e-14 l 4.733259878704514e-14,1.0 l -1.0,4.739383112700251e-14 l -4.7455063466959876e-14,-1.0 l 1.0,-4.7516295806917244e-14 l 4.757752814687461e-14,1.0 l 1.0,-4.7516295806917244e-14 l 4.757752814687461e-14,1.0 l -1.0,4.763876048683198e-14 l 4.757752814687461e-14,1.0 l -1.0,4.763876048683198e-14 l 4.757752814687461e-14,1.0 l -1.0,4.763876048683198e-14 l -4.7699992826789347e-14,-1.0 l 1.0,-4.7761225166746714e-14 l 4.782245750670408e-14,1.0 l 1.0,-4.7761225166746714e-14 l 4.782245750670408e-14,1.0 l -1.0,4.788368984666145e-14 l -4.7944922186618817e-14,-1.0 l 1.0,-4.8006154526576184e-14 l -4.7944922186618817e-14,-1.0 l 1.0,-4.8006154526576184e-14 l 4.806738686653355e-14,1.0 l -1.0,4.812861920649092e-14 l -4.818985154644829e-14,-1.0 l -1.0,4.812861920649092e-14 l -4.818985154644829e-14,-1.0 l 1.0,-4.8251083886405655e-14 l 4.831231622636302e-14,1.0 l -1.0,4.837354856632039e-14 l 4.831231622636302e-14,1.0 l -1.0,4.837354856632039e-14 l -4.843478090627776e-14,-1.0 l -1.0,4.837354856632039e-14 l -4.843478090627776e-14,-1.0 l -1.0,4.837354856632039e-14 l -4.843478090627776e-14,-1.0 l 1.0,-4.8496013246235125e-14 l 4.855724558619249e-14,1.0 l -1.0,4.861847792614986e-14 l 4.855724558619249e-14,1.0 l -1.0,4.861847792614986e-14 l -4.867971026610723e-14,-1.0 l 1.0,-4.8740942606064595e-14 l 4.880217494602196e-14,1.0 l 1.0,-4.8740942606064595e-14 l 4.880217494602196e-14,1.0 l -1.0,4.886340728597933e-14 l -4.89246396259367e-14,-1.0 l 1.0,-4.8985871965894066e-14 l -4.89246396259367e-14,-1.0 l 1.0,-4.8985871965894066e-14 l 4.904710430585143e-14,1.0 l -1.0,4.91083366458088e-14 l -4.916956898576617e-14,-1.0 l -1.0,4.91083366458088e-14 l -4.916956898576617e-14,-1.0 l 1.0,-4.9230801325723536e-14 l -4.916956898576617e-14,-1.0 l 1.0,-4.9230801325723536e-14 l -4.916956898576617e-14,-1.0 l 1.0,-4.9230801325723536e-14 l 4.9292033665680903e-14,1.0 l -1.0,4.935326600563827e-14 l -4.941449834559564e-14,-1.0 l -1.0,4.935326600563827e-14 l -4.941449834559564e-14,-1.0 l 1.0,-4.9475730685553006e-14 l 4.9536963025510374e-14,1.0 l -1.0,4.959819536546774e-14 l 4.9536963025510374e-14,1.0 l -1.0,4.959819536546774e-14 l -4.965942770542511e-14,-1.0 l 1.0,-4.9720660045382476e-14 l 4.9781892385339844e-14,1.0 l 1.0,-4.9720660045382476e-14 l 4.9781892385339844e-14,1.0 l -1.0,4.984312472529721e-14 l -4.990435706525458e-14,-1.0 l 1.0,-4.9965589405211947e-14 l -4.990435706525458e-14,-1.0 l 1.0,-4.9965589405211947e-14 l 5.0026821745169314e-14,1.0 l 1.0,-4.9965589405211947e-14 l 5.0026821745169314e-14,1.0 l 1.0,-4.9965589405211947e-14 l 5.0026821745169314e-14,1.0 l -1.0,5.008805408512668e-14 l -5.014928642508405e-14,-1.0 l 1.0,-5.021051876504142e-14 l -5.014928642508405e-14,-1.0 l 1.0,-5.021051876504142e-14 l 5.0271751104998785e-14,1.0 l -1.0,5.033298344495615e-14 l -5.039421578491352e-14,-1.0 l -1.0,5.033298344495615e-14 l -5.039421578491352e-14,-1.0 l 1.0,-5.045544812487089e-14 l 5.0516680464828255e-14,1.0 l -1.0,5.057791280478562e-14 l 5.0516680464828255e-14,1.0 l -1.0,5.057791280478562e-14 l -5.063914514474299e-14,-1.0 l 1.0,-5.070037748470036e-14 l 5.0761609824657725e-14,1.0 l 1.0,-5.070037748470036e-14 l 5.0761609824657725e-14,1.0 l -1.0,5.082284216461509e-14 l 5.0761609824657725e-14,1.0 l -1.0,5.082284216461509e-14 l 5.0761609824657725e-14,1.0 l -1.0,5.082284216461509e-14 l -5.088407450457246e-14,-1.0 l 1.0,-5.094530684452983e-14 l 5.1006539184487196e-14,1.0 l 1.0,-5.094530684452983e-14 l 5.1006539184487196e-14,1.0 l -1.0,5.106777152444456e-14 l -5.112900386440193e-14,-1.0 l 1.0,-5.11902362043593e-14 l -5.112900386440193e-14,-1.0 l 1.0,-5.11902362043593e-14 l 5.1251468544316666e-14,1.0 l 1.0,-5.11902362043593e-14 l 5.1251468544316666e-14,1.0 l 1.0,-5.11902362043593e-14 l 5.1251468544316666e-14,1.0 l -1.0,5.1312700884274033e-14 l -5.13739332242314e-14,-1.0 l 1.0,-5.143516556418877e-14 l -5.13739332242314e-14,-1.0 l 1.0,-5.143516556418877e-14 l 5.1496397904146136e-14,1.0 l 1.0,-5.143516556418877e-14 l 5.1496397904146136e-14,1.0 l 1.0,-5.143516556418877e-14 l 5.1496397904146136e-14,1.0 l -1.0,5.1557630244103504e-14 l -5.161886258406087e-14,-1.0 l 1.0,-5.168009492401824e-14 l -5.161886258406087e-14,-1.0 l 1.0,-5.168009492401824e-14 l 5.1741327263975606e-14,1.0 l -1.0,5.1802559603932974e-14 l -5.186379194389034e-14,-1.0 l -1.0,5.1802559603932974e-14 l -5.186379194389034e-14,-1.0 l 1.0,-5.192502428384771e-14 l 5.1986256623805077e-14,1.0 l -1.0,5.2047488963762444e-14 l 5.1986256623805077e-14,1.0 l -1.0,5.2047488963762444e-14 l -5.210872130371981e-14,-1.0 l 1.0,-5.216995364367718e-14 l 5.223118598363455e-14,1.0 l 1.0,-5.216995364367718e-14 l 5.223118598363455e-14,1.0 l -1.0,5.2292418323591915e-14 l 5.223118598363455e-14,1.0 l -1.0,5.2292418323591915e-14 l 5.223118598363455e-14,1.0 l -1.0,5.2292418323591915e-14 l -5.235365066354928e-14,-1.0 l 1.0,-5.241488300350665e-14 l 5.247611534346402e-14,1.0 l 1.0,-5.241488300350665e-14 l 5.247611534346402e-14,1.0 l -1.0,5.2537347683421385e-14 l -5.259858002337875e-14,-1.0 l 1.0,-5.265981236333612e-14 l -5.259858002337875e-14,-1.0 l 1.0,-5.265981236333612e-14 l 5.272104470329349e-14,1.0 l -1.0,5.2782277043250855e-14 l -5.284350938320822e-14,-1.0 l -1.0,5.2782277043250855e-14 l -5.284350938320822e-14,-1.0 l 1.0,-5.290474172316559e-14 l 5.296597406312296e-14,1.0 l -1.0,5.3027206403080325e-14 l 5.296597406312296e-14,1.0 l -1.0,5.3027206403080325e-14 l -5.308843874303769e-14,-1.0 l -1.0,5.3027206403080325e-14 l -5.308843874303769e-14,-1.0 l -1.0,5.3027206403080325e-14 l -5.308843874303769e-14,-1.0 l 1.0,-5.314967108299506e-14 l 5.321090342295243e-14,1.0 l -1.0,5.3272135762909796e-14 l 5.321090342295243e-14,1.0 l -1.0,5.3272135762909796e-14 l -5.3333368102867163e-14,-1.0 l 1.0,-5.339460044282453e-14 l 5.34558327827819e-14,1.0 l 1.0,-5.339460044282453e-14 l 5.34558327827819e-14,1.0 l -1.0,5.3517065122739266e-14 l -5.3578297462696634e-14,-1.0 l 1.0,-5.3639529802654e-14 l -5.3578297462696634e-14,-1.0 l 1.0,-5.3639529802654e-14 l 5.370076214261137e-14,1.0 l -1.0,5.3761994482568736e-14 l -5.3823226822526104e-14,-1.0 l -1.0,5.3761994482568736e-14 l -5.3823226822526104e-14,-1.0 l 1.0,-5.388445916248347e-14 l -5.3823226822526104e-14,-1.0 l 1.0,-5.388445916248347e-14 l -5.3823226822526104e-14,-1.0 l 1.0,-5.388445916248347e-14 l 5.394569150244084e-14,1.0 l -1.0,5.4006923842398207e-14 l -5.4068156182355574e-14,-1.0 l -1.0,5.4006923842398207e-14 l -5.4068156182355574e-14,-1.0 l 1.0,-5.412938852231294e-14 l 5.419062086227031e-14,1.0 l -1.0,5.425185320222768e-14 l 5.419062086227031e-14,1.0 l -1.0,5.425185320222768e-14 l -5.4313085542185045e-14,-1.0 l 1.0,-5.437431788214241e-14 l 5.443555022209978e-14,1.0 l 1.0,-5.437431788214241e-14 l 5.443555022209978e-14,1.0 l -1.0,5.449678256205715e-14 l -5.4558014902014515e-14,-1.0 l 1.0,-5.461924724197188e-14 l -5.4558014902014515e-14,-1.0 l 1.0,-5.461924724197188e-14 l 5.468047958192925e-14,1.0 l 1.0,-5.461924724197188e-14 l 5.468047958192925e-14,1.0 l 1.0,-5.461924724197188e-14 l 5.468047958192925e-14,1.0 l -1.0,5.474171192188662e-14 l -5.4802944261843985e-14,-1.0 l 1.0,-5.486417660180135e-14 l -5.4802944261843985e-14,-1.0 l 1.0,-5.486417660180135e-14 l 5.492540894175872e-14,1.0 l -1.0,5.498664128171609e-14 l -5.5047873621673455e-14,-1.0 l -1.0,5.498664128171609e-14 l -5.5047873621673455e-14,-1.0 l 1.0,-5.510910596163082e-14 l -5.5047873621673455e-14,-1.0 l 1.0,-5.510910596163082e-14 l -5.5047873621673455e-14,-1.0 l 1.0,-5.510910596163082e-14 l 5.517033830158819e-14,1.0 l -1.0,5.523157064154556e-14 l -5.5292802981502926e-14,-1.0 l -1.0,5.523157064154556e-14 l -5.5292802981502926e-14,-1.0 l 1.0,-5.5354035321460293e-14 l -5.5292802981502926e-14,-1.0 l 1.0,-5.5354035321460293e-14 l -5.5292802981502926e-14,-1.0 l 1.0,-5.5354035321460293e-14 l 5.541526766141766e-14,1.0 l -1.0,5.547650000137503e-14 l -5.5537732341332396e-14,-1.0 l -1.0,5.547650000137503e-14 l -5.5537732341332396e-14,-1.0 l 1.0,-5.5598964681289764e-14 l 5.566019702124713e-14,1.0 l -1.0,5.57214293612045e-14 l 5.566019702124713e-14,1.0 l -1.0,5.57214293612045e-14 l -5.5782661701161866e-14,-1.0 l 1.0,-5.5843894041119234e-14 l 5.59051263810766e-14,1.0 l 1.0,-5.5843894041119234e-14 l 5.59051263810766e-14,1.0 l -1.0,5.596635872103397e-14 l -5.6027591060991337e-14,-1.0 l 1.0,-5.6088823400948704e-14 l -5.6027591060991337e-14,-1.0 l 1.0,-5.6088823400948704e-14 l 5.615005574090607e-14,1.0 l 1.0,-5.6088823400948704e-14 l 5.615005574090607e-14,1.0 l 1.0,-5.6088823400948704e-14 l 5.615005574090607e-14,1.0 l -1.0,5.621128808086344e-14 l -5.627252042082081e-14,-1.0 l 1.0,-5.6333752760778174e-14 l -5.627252042082081e-14,-1.0 l 1.0,-5.6333752760778174e-14 l 5.639498510073554e-14,1.0 l -1.0,5.645621744069291e-14 l -5.651744978065028e-14,-1.0 l -1.0,5.645621744069291e-14 l -5.651744978065028e-14,-1.0 l 1.0,-5.6578682120607645e-14 l 5.663991446056501e-14,1.0 l -1.0,5.670114680052238e-14 l 5.663991446056501e-14,1.0 l -1.0,5.670114680052238e-14 l -5.676237914047975e-14,-1.0 l 1.0,-5.6823611480437115e-14 l 5.688484382039449e-14,1.0 l 1.0,-5.682361148043712e-14 l 5.688484382039449e-14,1.0 l -1.0,5.694607616035186e-14 l 5.688484382039449e-14,1.0 l -1.0,5.694607616035186e-14 l 5.688484382039449e-14,1.0 l -1.0,5.694607616035186e-14 l -5.700730850030922e-14,-1.0 l 1.0,-5.706854084026659e-14 l 5.712977318022396e-14,1.0 l 1.0,-5.706854084026659e-14 l 5.712977318022396e-14,1.0 l -1.0,5.719100552018133e-14 l -5.72522378601387e-14,-1.0 l 1.0,-5.731347020009606e-14 l -5.72522378601387e-14,-1.0 l 1.0,-5.731347020009606e-14 l 5.737470254005343e-14,1.0 l -1.0,5.74359348800108e-14 l -5.749716721996816e-14,-1.0 l -1.0,5.74359348800108e-14 l -5.749716721996816e-14,-1.0 l 1.0,-5.755839955992553e-14 l 5.76196318998829e-14,1.0 l -1.0,5.768086423984027e-14 l 5.76196318998829e-14,1.0 l -1.0,5.768086423984027e-14 l -5.774209657979763e-14,-1.0 l -1.0,5.768086423984027e-14 l -5.774209657979763e-14,-1.0 l -1.0,5.768086423984027e-14 l -5.774209657979763e-14,-1.0 l 1.0,-5.7803328919755e-14 l 5.786456125971237e-14,1.0 l -1.0,5.792579359966974e-14 l 5.786456125971237e-14,1.0 l -1.0,5.792579359966974e-14 l -5.79870259396271e-14,-1.0 l 1.0,-5.804825827958447e-14 l 5.810949061954184e-14,1.0 l 1.0,-5.804825827958447e-14 l 5.810949061954184e-14,1.0 l -1.0,5.817072295949921e-14 l -5.823195529945658e-14,-1.0 l 1.0,-5.829318763941394e-14 l -5.823195529945658e-14,-1.0 l 1.0,-5.829318763941394e-14 l 5.835441997937131e-14,1.0 l -1.0,5.841565231932868e-14 l -5.847688465928605e-14,-1.0 l -1.0,5.841565231932868e-14 l -5.847688465928605e-14,-1.0 l 1.0,-5.853811699924341e-14 l -5.847688465928605e-14,-1.0 l 1.0,-5.853811699924341e-14 l -5.847688465928605e-14,-1.0 l 1.0,-5.853811699924341e-14 l 5.859934933920078e-14,1.0 l -1.0,5.866058167915815e-14 l -5.872181401911552e-14,-1.0 l -1.0,5.866058167915815e-14 l -5.872181401911552e-14,-1.0 l 1.0,-5.878304635907288e-14 l 5.884427869903025e-14,1.0 l -1.0,5.890551103898762e-14 l 5.884427869903025e-14,1.0 l -1.0,5.890551103898762e-14 l -5.896674337894499e-14,-1.0 l -1.0,5.890551103898762e-14 l -5.896674337894499e-14,-1.0 l -1.0,5.890551103898762e-14 l -5.896674337894499e-14,-1.0 l 1.0,-5.902797571890235e-14 l 5.908920805885972e-14,1.0 l -1.0,5.915044039881709e-14 l 5.908920805885972e-14,1.0 l -1.0,5.915044039881709e-14 l -5.921167273877446e-14,-1.0 l -1.0,5.915044039881709e-14 l -5.921167273877446e-14,-1.0 l -1.0,5.915044039881709e-14 l -5.921167273877446e-14,-1.0 l 1.0,-5.927290507873182e-14 l 5.933413741868919e-14,1.0 l -1.0,5.939536975864656e-14 l 5.933413741868919e-14,1.0 l -1.0,5.939536975864656e-14 l -5.945660209860393e-14,-1.0 l 1.0,-5.95178344385613e-14 l 5.957906677851866e-14,1.0 l 1.0,-5.95178344385613e-14 l 5.957906677851866e-14,1.0 l -1.0,5.964029911847603e-14 l -5.97015314584334e-14,-1.0 l 1.0,-5.976276379839076e-14 l -5.97015314584334e-14,-1.0 l 1.0,-5.976276379839076e-14 l 5.982399613834813e-14,1.0 l -1.0,5.98852284783055e-14 l -5.994646081826287e-14,-1.0 l -1.0,5.98852284783055e-14 l -5.994646081826287e-14,-1.0 l 1.0,-6.000769315822024e-14 l -5.994646081826287e-14,-1.0 l 1.0,-6.000769315822024e-14 l -5.994646081826287e-14,-1.0 l 1.0,-6.000769315822024e-14 l 6.00689254981776e-14,1.0 l -1.0,6.013015783813497e-14 l -6.019139017809234e-14,-1.0 l -1.0,6.013015783813497e-14 l -6.019139017809234e-14,-1.0 l 1.0,-6.02526225180497e-14 l 6.031385485800707e-14,1.0 l -1.0,6.037508719796444e-14 l 6.031385485800707e-14,1.0 l -1.0,6.037508719796444e-14 l -6.043631953792181e-14,-1.0 l 1.0,-6.049755187787918e-14 l 6.055878421783654e-14,1.0 l 1.0,-6.049755187787918e-14 l 6.055878421783654e-14,1.0 l -1.0,6.062001655779391e-14 l -6.068124889775128e-14,-1.0 l 1.0,-6.074248123770865e-14 l -6.068124889775128e-14,-1.0 l 1.0,-6.074248123770865e-14 l 6.080371357766601e-14,1.0 l 1.0,-6.074248123770865e-14 l 6.080371357766601e-14,1.0 l 1.0,-6.074248123770865e-14 l 6.080371357766601e-14,1.0 l -1.0,6.086494591762338e-14 l -6.092617825758075e-14,-1.0 l 1.0,-6.098741059753812e-14 l -6.092617825758075e-14,-1.0 l 1.0,-6.098741059753812e-14 l 6.104864293749548e-14,1.0 l -1.0,6.110987527745285e-14 l -6.117110761741022e-14,-1.0 l -1.0,6.110987527745285e-14 l -6.117110761741022e-14,-1.0 l 1.0,-6.123233995736759e-14 l 6.129357229732495e-14,1.0 l -1.0,6.135480463728232e-14 l 6.129357229732495e-14,1.0 l -1.0,6.135480463728232e-14 l -6.141603697723969e-14,-1.0 l 1.0,-6.147726931719706e-14 l 6.153850165715442e-14,1.0 l 1.0,-6.147726931719706e-14 l 6.153850165715442e-14,1.0 l -1.0,6.159973399711179e-14 l 6.153850165715442e-14,1.0 l -1.0,6.159973399711179e-14 l 6.153850165715442e-14,1.0 l -1.0,6.159973399711179e-14 l -6.166096633706916e-14,-1.0 l 1.0,-6.172219867702653e-14 l 6.17834310169839e-14,1.0 l 1.0,-6.172219867702653e-14 l 6.17834310169839e-14,1.0 l -1.0,6.184466335694126e-14 l -6.190589569689863e-14,-1.0 l 1.0,-6.1967128036856e-14 l -6.190589569689863e-14,-1.0 l 1.0,-6.1967128036856e-14 l 6.202836037681337e-14,1.0 l -1.0,6.208959271677073e-14 l -6.21508250567281e-14,-1.0 l -1.0,6.208959271677073e-14 l -6.21508250567281e-14,-1.0 l 1.0,-6.221205739668547e-14 l 6.227328973664284e-14,1.0 l -1.0,6.23345220766002e-14 l 6.227328973664284e-14,1.0 l -1.0,6.23345220766002e-14 l -6.239575441655757e-14,-1.0 l -1.0,6.23345220766002e-14 l -6.239575441655757e-14,-1.0 l -1.0,6.23345220766002e-14 l -6.239575441655757e-14,-1.0 l 1.0,-6.245698675651494e-14 l 6.25182190964723e-14,1.0 l -1.0,6.257945143642967e-14 l 6.25182190964723e-14,1.0 l -1.0,6.257945143642967e-14 l -6.264068377638704e-14,-1.0 l 1.0,-6.270191611634441e-14 l 6.276314845630178e-14,1.0 l 1.0,-6.270191611634441e-14 l 6.276314845630178e-14,1.0 l -1.0,6.282438079625914e-14 l 6.276314845630178e-14,1.0 l -1.0,6.282438079625914e-14 l 6.276314845630178e-14,1.0 l -1.0,6.282438079625914e-14 l -6.288561313621651e-14,-1.0 l 1.0,-6.294684547617388e-14 l 6.300807781613125e-14,1.0 l 1.0,-6.294684547617388e-14 l 6.300807781613125e-14,1.0 l -1.0,6.306931015608861e-14 l 6.300807781613125e-14,1.0 l -1.0,6.306931015608861e-14 l 6.300807781613125e-14,1.0 l -1.0,6.306931015608861e-14 l -6.313054249604598e-14,-1.0 l 1.0,-6.319177483600335e-14 l 6.325300717596072e-14,1.0 l 1.0,-6.319177483600335e-14 l 6.325300717596072e-14,1.0 l -1.0,6.331423951591808e-14 l -6.337547185587545e-14,-1.0 l 1.0,-6.343670419583282e-14 l -6.337547185587545e-14,-1.0 l 1.0,-6.343670419583282e-14 l 6.349793653579019e-14,1.0 l -1.0,6.355916887574755e-14 l -6.362040121570492e-14,-1.0 l -1.0,6.355916887574755e-14 l -6.362040121570492e-14,-1.0 l 1.0,-6.368163355566229e-14 l 6.374286589561966e-14,1.0 l -1.0,6.380409823557702e-14 l 6.374286589561966e-14,1.0 l -1.0,6.380409823557702e-14 l -6.386533057553439e-14,-1.0 l -1.0,6.380409823557702e-14 l -6.386533057553439e-14,-1.0 l -1.0,6.380409823557702e-14 l -6.386533057553439e-14,-1.0 l 1.0,-6.392656291549176e-14 l 6.398779525544913e-14,1.0 l -1.0,6.40490275954065e-14 l 6.398779525544913e-14,1.0 l -1.0,6.40490275954065e-14 l -6.411025993536386e-14,-1.0 l 1.0,-6.417149227532123e-14 l 6.42327246152786e-14,1.0 l 1.0,-6.417149227532123e-14 l 6.42327246152786e-14,1.0 l -1.0,6.429395695523597e-14 l -6.435518929519333e-14,-1.0 l 1.0,-6.44164216351507e-14 l -6.435518929519333e-14,-1.0 l 1.0,-6.44164216351507e-14 l 6.447765397510807e-14,1.0 l -1.0,6.453888631506544e-14 l -6.46001186550228e-14,-1.0 l -1.0,6.453888631506544e-14 l -6.46001186550228e-14,-1.0 l 1.0,-6.466135099498017e-14 l -6.46001186550228e-14,-1.0 l 1.0,-6.466135099498017e-14 l -6.46001186550228e-14,-1.0 l 1.0,-6.466135099498017e-14 l 6.472258333493754e-14,1.0 l -1.0,6.47838156748949e-14 l -6.484504801485227e-14,-1.0 l -1.0,6.47838156748949e-14 l -6.484504801485227e-14,-1.0 l 1.0,-6.490628035480964e-14 l 6.496751269476701e-14,1.0 l -1.0,6.502874503472438e-14 l 6.496751269476701e-14,1.0 l -1.0,6.502874503472438e-14 l -6.508997737468174e-14,-1.0 l -1.0,6.502874503472438e-14 l -6.508997737468174e-14,-1.0 l -1.0,6.502874503472438e-14 l -6.508997737468174e-14,-1.0 l 1.0,-6.515120971463911e-14 l 6.521244205459648e-14,1.0 l -1.0,6.527367439455385e-14 l 6.521244205459648e-14,1.0 l -1.0,6.527367439455385e-14 l -6.533490673451121e-14,-1.0 l -1.0,6.527367439455385e-14 l -6.533490673451121e-14,-1.0 l -1.0,6.527367439455385e-14 l -6.533490673451121e-14,-1.0 l 1.0,-6.539613907446858e-14 l 6.545737141442595e-14,1.0 l -1.0,6.551860375438332e-14 l 6.545737141442595e-14,1.0 l -1.0,6.551860375438332e-14 l -6.557983609434068e-14,-1.0 l 1.0,-6.564106843429805e-14 l 6.570230077425542e-14,1.0 l 1.0,-6.564106843429805e-14 l 6.570230077425542e-14,1.0 l -1.0,6.576353311421279e-14 l -6.582476545417015e-14,-1.0 l 1.0,-6.588599779412752e-14 l -6.582476545417015e-14,-1.0 l 1.0,-6.588599779412752e-14 l 6.594723013408489e-14,1.0 l -1.0,6.600846247404226e-14 l -6.606969481399963e-14,-1.0 l -1.0,6.600846247404226e-14 l -6.606969481399963e-14,-1.0 l 1.0,-6.613092715395699e-14 l -6.606969481399963e-14,-1.0 l 1.0,-6.613092715395699e-14 l -6.606969481399963e-14,-1.0 l 1.0,-6.613092715395699e-14 l 6.619215949391436e-14,1.0 l -1.0,6.625339183387173e-14 l -6.63146241738291e-14,-1.0 l -1.0,6.625339183387173e-14 l -6.63146241738291e-14,-1.0 l 1.0,-6.637585651378646e-14 l 6.643708885374383e-14,1.0 l -1.0,6.64983211937012e-14 l 6.643708885374383e-14,1.0 l -1.0,6.64983211937012e-14 l -6.655955353365857e-14,-1.0 l -1.0,6.64983211937012e-14 l -6.655955353365857e-14,-1.0 l -1.0,6.64983211937012e-14 l -6.655955353365857e-14,-1.0 l 1.0,-6.662078587361593e-14 l 6.66820182135733e-14,1.0 l -1.0,6.674325055353067e-14 l 6.66820182135733e-14,1.0 l -1.0,6.674325055353067e-14 l -6.680448289348804e-14,-1.0 l -1.0,6.674325055353067e-14 l -6.680448289348804e-14,-1.0 l -1.0,6.674325055353067e-14 l -6.680448289348804e-14,-1.0 l 1.0,-6.68657152334454e-14 l 6.692694757340277e-14,1.0 l -1.0,6.698817991336014e-14 l 6.692694757340277e-14,1.0 l -1.0,6.698817991336014e-14 l -6.70494122533175e-14,-1.0 l 1.0,-6.711064459327487e-14 l 6.717187693323224e-14,1.0 l 1.0,-6.711064459327487e-14 l 6.717187693323224e-14,1.0 l -1.0,6.723310927318961e-14 l -6.729434161314698e-14,-1.0 l 1.0,-6.735557395310434e-14 l -6.729434161314698e-14,-1.0 l 1.0,-6.735557395310434e-14 l 6.741680629306171e-14,1.0 l -1.0,6.747803863301908e-14 l -6.753927097297645e-14,-1.0 l -1.0,6.747803863301908e-14 l -6.753927097297645e-14,-1.0 l 1.0,-6.760050331293381e-14 l -6.753927097297645e-14,-1.0 l 1.0,-6.760050331293381e-14 l -6.753927097297645e-14,-1.0 l 1.0,-6.760050331293381e-14 l 6.766173565289118e-14,1.0 l -1.0,6.772296799284855e-14 l -6.778420033280592e-14,-1.0 l -1.0,6.772296799284855e-14 l -6.778420033280592e-14,-1.0 l 1.0,-6.784543267276328e-14 l 6.790666501272065e-14,1.0 l -1.0,6.796789735267802e-14 l 6.790666501272065e-14,1.0 l -1.0,6.796789735267802e-14 l -6.802912969263539e-14,-1.0 l 1.0,-6.809036203259275e-14 l 6.815159437255012e-14,1.0 l 1.0,-6.809036203259275e-14 l 6.815159437255012e-14,1.0 l -1.0,6.821282671250749e-14 l -6.827405905246486e-14,-1.0 l 1.0,-6.833529139242223e-14 l -6.827405905246486e-14,-1.0 l 1.0,-6.833529139242223e-14 l 6.839652373237959e-14,1.0 l 1.0,-6.833529139242223e-14 l 6.839652373237959e-14,1.0 l 1.0,-6.833529139242223e-14 l 6.839652373237959e-14,1.0 l -1.0,6.845775607233696e-14 l -6.851898841229433e-14,-1.0 l 1.0,-6.85802207522517e-14 l -6.851898841229433e-14,-1.0 l 1.0,-6.85802207522517e-14 l 6.864145309220906e-14,1.0 l -1.0,6.870268543216643e-14 l -6.87639177721238e-14,-1.0 l -1.0,6.870268543216643e-14 l -6.87639177721238e-14,-1.0 l 1.0,-6.882515011208117e-14 l 6.888638245203853e-14,1.0 l -1.0,6.89476147919959e-14 l 6.888638245203853e-14,1.0 l -1.0,6.89476147919959e-14 l -6.900884713195327e-14,-1.0 l 1.0,-6.907007947191064e-14 l 6.9131311811868e-14,1.0 l 1.0,-6.907007947191064e-14 l 6.9131311811868e-14,1.0 l -1.0,6.919254415182537e-14 l 6.9131311811868e-14,1.0 l -1.0,6.919254415182537e-14 l 6.9131311811868e-14,1.0 l -1.0,6.919254415182537e-14 l -6.925377649178274e-14,-1.0 l 1.0,-6.931500883174011e-14 l 6.937624117169747e-14,1.0 l 1.0,-6.931500883174011e-14 l 6.937624117169747e-14,1.0 l -1.0,6.943747351165484e-14 l -6.949870585161221e-14,-1.0 l 1.0,-6.955993819156958e-14 l -6.949870585161221e-14,-1.0 l 1.0,-6.955993819156958e-14 l 6.962117053152694e-14,1.0 l -1.0,6.968240287148431e-14 l -6.974363521144168e-14,-1.0 l -1.0,6.968240287148431e-14 l -6.974363521144168e-14,-1.0 l 1.0,-6.980486755139905e-14 l 6.986609989135641e-14,1.0 l -1.0,6.992733223131378e-14 l 6.986609989135641e-14,1.0 l -1.0,6.992733223131378e-14 l -6.998856457127115e-14,-1.0 l -1.0,6.992733223131378e-14 l -6.998856457127115e-14,-1.0 l -1.0,6.992733223131378e-14 l -6.998856457127115e-14,-1.0 l 1.0,-7.004979691122852e-14 l 7.011102925118588e-14,1.0 l -1.0,7.017226159114325e-14 l 7.011102925118588e-14,1.0 l -1.0,7.017226159114325e-14 l -7.023349393110062e-14,-1.0 l 1.0,-7.029472627105799e-14 l 7.035595861101536e-14,1.0 l 1.0,-7.029472627105799e-14 l 7.035595861101536e-14,1.0 l -1.0,7.041719095097272e-14 l 7.035595861101536e-14,1.0 l -1.0,7.041719095097272e-14 l 7.035595861101536e-14,1.0 l -1.0,7.041719095097272e-14 l -7.047842329093009e-14,-1.0 l 1.0,-7.053965563088746e-14 l 7.060088797084483e-14,1.0 l 1.0,-7.053965563088746e-14 l 7.060088797084483e-14,1.0 l -1.0,7.066212031080219e-14 l 7.060088797084483e-14,1.0 l -1.0,7.066212031080219e-14 l 7.060088797084483e-14,1.0 l -1.0,7.066212031080219e-14 l -7.072335265075956e-14,-1.0 l 1.0,-7.078458499071693e-14 l 7.08458173306743e-14,1.0 l 1.0,-7.078458499071693e-14 l 7.08458173306743e-14,1.0 l -1.0,7.090704967063166e-14 l -7.096828201058903e-14,-1.0 l 1.0,-7.10295143505464e-14 l -7.096828201058903e-14,-1.0 l 1.0,-7.10295143505464e-14 l 7.109074669050377e-14,1.0 l -1.0,7.115197903046113e-14 l -7.12132113704185e-14,-1.0 l -1.0,7.115197903046113e-14 l -7.12132113704185e-14,-1.0 l 1.0,-7.127444371037587e-14 l 7.133567605033324e-14,1.0 l -1.0,7.13969083902906e-14 l 7.133567605033324e-14,1.0 l -1.0,7.13969083902906e-14 l -7.145814073024797e-14,-1.0 l -1.0,7.13969083902906e-14 l -7.145814073024797e-14,-1.0 l -1.0,7.13969083902906e-14 l -7.145814073024797e-14,-1.0 l 1.0,-7.151937307020534e-14 l 7.158060541016271e-14,1.0 l -1.0,7.164183775012007e-14 l 7.158060541016271e-14,1.0 l -1.0,7.164183775012007e-14 l -7.170307009007744e-14,-1.0 l 1.0,-7.176430243003481e-14 l 7.182553476999218e-14,1.0 l 1.0,-7.176430243003481e-14 l 7.182553476999218e-14,1.0 l -1.0,7.188676710994954e-14 l -7.194799944990691e-14,-1.0 l 1.0,-7.200923178986428e-14 l -7.194799944990691e-14,-1.0 l 1.0,-7.200923178986428e-14 l 7.207046412982165e-14,1.0 l -1.0,7.213169646977901e-14 l -7.219292880973638e-14,-1.0 l -1.0,7.213169646977901e-14 l -7.219292880973638e-14,-1.0 l 1.0,-7.225416114969375e-14 l -7.219292880973638e-14,-1.0 l 1.0,-7.225416114969375e-14 l -7.219292880973638e-14,-1.0 l 1.0,-7.225416114969375e-14 l 7.231539348965112e-14,1.0 l -1.0,7.237662582960849e-14 l -7.243785816956585e-14,-1.0 l -1.0,7.237662582960849e-14 l -7.243785816956585e-14,-1.0 l 1.0,-7.249909050952322e-14 l 7.256032284948059e-14,1.0 l -1.0,7.262155518943796e-14 l 7.256032284948059e-14,1.0 l -1.0,7.262155518943796e-14 l -7.268278752939532e-14,-1.0 l 1.0,-7.274401986935269e-14 l 7.280525220931006e-14,1.0 l 1.0,-7.274401986935269e-14 l 7.280525220931006e-14,1.0 l -1.0,7.286648454926743e-14 l -7.292771688922479e-14,-1.0 l 1.0,-7.298894922918216e-14 l -7.292771688922479e-14,-1.0 l 1.0,-7.298894922918216e-14 l 7.305018156913953e-14,1.0 l 1.0,-7.298894922918216e-14 l 7.305018156913953e-14,1.0 l 1.0,-7.298894922918216e-14 l 7.305018156913953e-14,1.0 l -1.0,7.31114139090969e-14 l -7.317264624905426e-14,-1.0 l 1.0,-7.323387858901163e-14 l -7.317264624905426e-14,-1.0 l 1.0,-7.323387858901163e-14 l 7.3295110928969e-14,1.0 l -1.0,7.335634326892637e-14 l -7.341757560888373e-14,-1.0 l -1.0,7.335634326892637e-14 l -7.341757560888373e-14,-1.0 l 1.0,-7.34788079488411e-14 l 7.354004028879847e-14,1.0 l -1.0,7.360127262875584e-14 l 7.354004028879847e-14,1.0 l -1.0,7.360127262875584e-14 l -7.36625049687132e-14,-1.0 l 1.0,-7.372373730867057e-14 l 7.378496964862794e-14,1.0 l 1.0,-7.372373730867057e-14 l 7.378496964862794e-14,1.0 l -1.0,7.384620198858531e-14 l 7.378496964862794e-14,1.0 l -1.0,7.384620198858531e-14 l 7.378496964862794e-14,1.0 l -1.0,7.384620198858531e-14 l -7.390743432854267e-14,-1.0 l 1.0,-7.396866666850004e-14 l 7.402989900845741e-14,1.0 l 1.0,-7.396866666850004e-14 l 7.402989900845741e-14,1.0 l -1.0,7.409113134841478e-14 l -7.415236368837214e-14,-1.0 l 1.0,-7.421359602832951e-14 l -7.415236368837214e-14,-1.0 l 1.0,-7.421359602832951e-14 l 7.427482836828688e-14,1.0 l 1.0,-7.421359602832951e-14 l 7.427482836828688e-14,1.0 l 1.0,-7.421359602832951e-14 l 7.427482836828688e-14,1.0 l -1.0,7.433606070824425e-14 l -7.439729304820162e-14,-1.0 l 1.0,-7.445852538815898e-14 l -7.439729304820162e-14,-1.0 l 1.0,-7.445852538815898e-14 l 7.451975772811635e-14,1.0 l 1.0,-7.445852538815898e-14 l 7.451975772811635e-14,1.0 l 1.0,-7.445852538815898e-14 l 7.451975772811635e-14,1.0 l -1.0,7.458099006807372e-14 l -7.464222240803109e-14,-1.0 l 1.0,-7.470345474798845e-14 l -7.464222240803109e-14,-1.0 l 1.0,-7.470345474798845e-14 l 7.476468708794582e-14,1.0 l -1.0,7.482591942790319e-14 l -7.488715176786056e-14,-1.0 l -1.0,7.482591942790319e-14 l -7.488715176786056e-14,-1.0 l 1.0,-7.494838410781792e-14 l 7.500961644777529e-14,1.0 l -1.0,7.507084878773266e-14 l 7.500961644777529e-14,1.0 l -1.0,7.507084878773266e-14 l -7.513208112769003e-14,-1.0 l 1.0,-7.519331346764739e-14 l 7.525454580760476e-14,1.0 l 1.0,-7.519331346764739e-14 l 7.525454580760476e-14,1.0 l -1.0,7.531577814756213e-14 l 7.525454580760476e-14,1.0 l -1.0,7.531577814756213e-14 l 7.525454580760476e-14,1.0 l -1.0,7.531577814756213e-14 l -7.53770104875195e-14,-1.0 l 1.0,-7.543824282747686e-14 l 7.549947516743423e-14,1.0 l 1.0,-7.543824282747686e-14 l 7.549947516743423e-14,1.0 l -1.0,7.55607075073916e-14 l -7.562193984734897e-14,-1.0 l 1.0,-7.568317218730633e-14 l -7.562193984734897e-14,-1.0 l 1.0,-7.568317218730633e-14 l 7.57444045272637e-14,1.0 l -1.0,7.580563686722107e-14 l -7.586686920717844e-14,-1.0 l -1.0,7.580563686722107e-14 l -7.586686920717844e-14,-1.0 l 1.0,-7.59281015471358e-14 l 7.598933388709317e-14,1.0 l -1.0,7.605056622705054e-14 l 7.598933388709317e-14,1.0 l -1.0,7.605056622705054e-14 l -7.611179856700791e-14,-1.0 l -1.0,7.605056622705054e-14 l -7.611179856700791e-14,-1.0 l -1.0,7.605056622705054e-14 l -7.611179856700791e-14,-1.0 l 1.0,-7.617303090696527e-14 l 7.623426324692264e-14,1.0 l -1.0,7.629549558688001e-14 l 7.623426324692264e-14,1.0 l -1.0,7.629549558688001e-14 l -7.635672792683738e-14,-1.0 l 1.0,-7.641796026679475e-14 l 7.647919260675211e-14,1.0 l 1.0,-7.641796026679475e-14 l 7.647919260675211e-14,1.0 l -1.0,7.654042494670948e-14 " style="stroke-linecap:square;stroke:#50514F;stroke-width:0.2px;fill:none" /></g></svg>