<?xml version="1.0" encoding="UTF-8"?>
<!DOCTYPE svg PUBLIC "-//W3C//DTD SVG 1.1//EN"
    "http://www.w3.org/Graphics/SVG/1.1/DTD/svg11.dtd">
<svg xmlns="http://www.w3.org/2000/svg" xmlns:xlink="http://www.w3.org/1999/xlink" version="1.1" width="500" height="500" viewBox="0 0 100 100"><g><rect width="100" height="100" fill="#CBD4C2" /></g><g><path d="M 20.0,80.0 l 0.8999999999999999,0.0 l 5.510910596163089e-17,-0.8999999999999999 l 0.8999999999999999,0.0 l 5.510910596163089e-17,0.8999999999999999 l 5.510910596163089e-17,0.8999999999999999 l 0.8999999999999999,0.0 l 5.510910596163089e-17,-0.8999999999999999 l 0.8999999999999999,0.0 l 5.510910596163089e-17,-0.8999999999999999 l -0.8999999999999999,-1.1021821192326178e-16 l 5.510910596163089e-17,-0.8999999999999999 l 0.8999999999999999,0.0 l 0.8999999999999999,0.0 l 5.510910596163089e-17,-0.8999999999999999 l -0.8999999999999999,-1.1021821192326178e-16 l 5.510910596163089e-17,-0.8999999999999999 l 0.8999999999999999,0.0 l 5.510910596163089e-17,-0.8999999999999999 l 0.8999999999999999,0.0 l 5.510910596163089e-17,0.8999999999999999 l 5.510910596163089e-17,0.8999999999999999 l 0.8999999999999999,0.0 l 5.510910596163089e-17,-0.8999999999999999 l 0.8999999999999999,0.0 l 5.510910596163089e-17,0.8999999999999999 l 0.8999999999999999,0.0 l 5.510910596163089e-17,0.8999999999999999 l -0.8999999999999999,1.1021821192326178e-16 l -0.8999999999999999,1.1021821192326178e-16 l 5.510910596163089e-17,0.8999999999999999 l 0.8999999999999999,0.0 l 5.510910596163089e-17,0.8999999999999999 l 5.510910596163089e-17,0.8999999999999999 l 0.8999999999999999,0.0 l 5.510910596163089e-17,0.8999999999999999 l -0.8999999999999999,1.1021821192326178e-16 l -0.8999999999999999,1.1021821192326178e-16 l 5.510910596163089e-17,0.8999999999999999 l 0.8999999999999999,0.0 l 5.510910596163089e-17,0.8999999999999999 l 0.8999999999999999,0.0 l 5.510910596163089e-17,-0.8999999999999999 l 0.8999999999999999,0.0 l 5.510910596163089e-17,0.8999999999999999 l 5.510910596163089e-17,0.8999999999999999 l 0.8999999999999999,0.0 l 5.510910596163089e-17,-0.8999999999999999 l 0.8999999999999999,0.0 l 5.510910596163089e-17,-0.8999999999999999 l -0.8999999999999999,-1.1021821192326178e-16 l 5.510910596163089e-17,-0.8999999999999999 l 0.8999999999999999,0.0 l 0.8999999999999999,0.0 l 5.510910596163089e-17,-0.8999999999999999 l -0.8999999999999999,-1.1021821192326178e-16 l 5.510910596163089e-17,-0.8999999999999999 l 0.8999999999999999,0.0 l 5.510910596163089e-17,-0.8999999999999999 l 0.8999999999999999,0.0 l 5.510910596163089e-17,0.8999999999999999 l 5.510910596163089e-17,0.8999999999999999 l 0.8999999999999999,0.0 l 5.510910596163089e-17,-0.8999999999999999 l 0.8999999999999999,0.0 l 5.510910596163089e-17,-0.8999999999999999 l -0.8999999999999999,-1.1021821192326178e-16 l 5.510910596163089e-17,-0.8999999999999999 l 0.8999999999999999,0.0 l 0.8999999999999999,0.0 l 5.510910596163089e-17,-0.8999999999999999 l -0.8999999999999999,-1.1021821192326178e-16 l 5.510910596163089e-17,-0.8999999999999999 l -0.8999999999999999,-1.1021821192326178e-16 l -1.6532731788489266e-16,0.8999999999999999 l -0.8999999999999999,-1.1021821192326178e-16 l 5.510910596163089e-17,-0.8999999999999999 l 5.510910596163089e-17,-0.8999999999999999 l -0.8999999999999999,-1.1021821192326178e-16 l -1.6532731788489266e-16,0.8999999999999999 l -0.8999999999999999,-1.1021821192326178e-16 l 5.510910596163089e-17,-0.8999999999999999 l -0.8999999999999999,-1.1021821192326178e-16 l 5.510910596163089e-17,-0.8999999999999999 l 0.8999999999999999,0.0 l 0.8999999999999999,0.0 l 5.510910596163089e-17,-0.8999999999999999 l -0.8999999999999999,-1.1021821192326178e-16 l 5.510910596163089e-17,-0.8999999999999999 l 0.8999999999999999,0.0 l 5.510910596163089e-17,-0.8999999999999999 l 0.8999999999999999,0.0 l 5.510910596163089e-17,0.8999999999999999 l 5.510910596163089e-17,0.8999999999999999 l 0.8999999999999999,0.0 l 5.510910596163089e-17,-0.8999999999999999 l 0.8999999999999999,0.0 l 0.8999999999999999,0.0 l 5.510910596163089e-17,-0.8999999999999999 l 0.8999999999999999,0.0 l 5.510910596163089e-17,0.8999999999999999 l 5.510910596163089e-17,0.8999999999999999 l 0.8999999999999999,0.0 l 5.510910596163089e-17,-0.8999999999999999 l 0.8999999999999999,0.0 l 5.510910596163089e-17,-0.8999999999999999 l -0.8999999999999999,-1.1021821192326178e-16 l 5.510910596163089e-17,-0.8999999999999999 l 0.8999999999999999,0.0 l 0.8999999999999999,0.0 l 5.510910596163089e-17,-0.8999999999999999 l -0.8999999999999999,-1.1021821192326178e-16 l 5.510910596163089e-17,-0.8999999999999999 l -0.8999999999999999,-1.1021821192326178e-16 l -1.6532731788489266e-16,0.8999999999999999 l -0.8999999999999999,-1.1021821192326178e-16 l 5.510910596163089e-17,-0.8999999999999999 l 5.510910596163089e-17,-0.8999999999999999 l -0.8999999999999999,-1.1021821192326178e-16 l -1.6532731788489266e-16,0.8999999999999999 l -0.8999999999999999,-1.1021821192326178e-16 l 5.510910596163089e-17,-0.8999999999999999 l -0.8999999999999999,-1.1021821192326178e-16 l 5.510910596163089e-17,-0.8999999999999999 l 0.8999999999999999,0.0 l 0.8999999999999999,0.0 l 5.510910596163089e-17,-0.8999999999999999 l -0.8999999999999999,-1.1021821192326178e-16 l 5.510910596163089e-17,-0.8999999999999999 l 0.8999999999999999,0.0 l 5.510910596163089e-17,-0.8999999999999999 l 0.8999999999999999,0.0 l 5.510910596163089e-17,0.8999999999999999 l 5.510910596163089e-17,0.8999999999999999 l 0.8999999999999999,0.0 l 5.510910596163089e-17,-0.8999999999999999 l 0.8999999999999999,0.0 l 5.510910596163089e-17,-0.8999999999999999 l -0.8999999999999999,-1.1021821192326178e-16 l 5.510910596163089e-17,-0.8999999999999999 l 0.8999999999999999,0.0 l 0.8999999999999999,0.0 l 5.510910596163089e-17,-0.8999999999999999 l -0.8999999999999999,-1.1021821192326178e-16 l 5.510910596163089e-17,-0.8999999999999999 l 0.8999999999999999,0.0 l 5.510910596163089e-17,-0.8999999999999999 l 0.8999999999999999,0.0 l 5.510910596163089e-17,0.8999999999999999 l 5.510910596163089e-17,0.8999999999999999 l 0.8999999999999999,0.0 l 5.510910596163089e-17,-0.8999999999999999 l 0.8999999999999999,0.0 l 5.510910596163089e-17,0.8999999999999999 l 0.8999999999999999,0.0 l 5.510910596163089e-17,0.8999999999999999 l -0.8999999999999999,1.1021821192326178e-16 l -0.8999999999999999,1.1021821192326178e-16 l 5.510910596163089e-17,0.8999999999999999 l 0.8999999999999999,0.0 l 5.510910596163089e-17,0.8999999999999999 l 5.510910596163089e-17,0.8999999999999999 l 0.8999999999999999,0.0 l 5.510910596163089e-17,0.8999999999999999 l -0.8999999999999999,1.1021821192326178e-16 l -0.8999999999999999,1.1021821192326178e-16 l 5.510910596163089e-17,0.8999999999999999 l 0.8999999999999999,0.0 l 5.510910596163089e-17,0.8999999999999999 l 0.8999999999999999,0.0 l 5.510910596163089e-17,-0.8999999999999999 l 0.8999999999999999,0.0 l 5.510910596163089e-17,0.8999999999999999 l 5.510910596163089e-17,0.8999999999999999 l 0.8999999999999999,0.0 l 5.510910596163089e-17,-0.8999999999999999 l 0.8999999999999999,0.0 l 5.510910596163089e-17,-0.8999999999999999 l -0.8999999999999999,-1.1021821192326178e-16 l 5.510910596163089e-17,-0.8999999999999999 l 0.8999999999999999,0.0 l 0.8999999999999999,0.0 l 5.510910596163089e-17,-0.8999999999999999 l -0.8999999999999999,-1.1021821192326178e-16 l 5.510910596163089e-17,-0.8999999999999999 l 0.8999999999999999,0.0 l 5.510910596163089e-17,-0.8999999999999999 l 0.8999999999999999,0.0 l 5.510910596163089e-17,0.8999999999999999 l 5.510910596163089e-17,0.8999999999999999 l 0.8999999999999999,0.0 l 5.510910596163089e-17,-0.8999999999999999 l 0.8999999999999999,0.0 l 5.510910596163089e-17,0.8999999999999999 l 0.8999999999999999,0.0 l 5.510910596163089e-17,0.8999999999999999 l -0.8999999999999999,1.1021821192326178e-16 l -0.8999999999999999,1.1021821192326178e-16 l 5.510910596163089e-17,0.8999999999999999 l 0.8999999999999999,0.0 l 5.510910596163089e-17,0.8999999999999999 l 0.8999999999999999,0.0 l 5.510910596163089e-17,-0.8999999999999999 l 0.8999999999999999,0.0 l 5.510910596163089e-17,0.8999999999999999 l 5.510910596163089e-17,0.8999999999999999 l 0.8999999999999999,0.0 l 5.510910596163089e-17,-0.8999999999999999 l 0.8999999999999999,0.0 l 5.510910596163089e-17,0.8999999999999999 l 0.8999999999999999,0.0 l 5.510910596163089e-17,0.8999999999999999 l -0.8999999999999999,1.1021821192326178e-16 l -0.8999999999999999,1.1021821192326178e-16 l 5.510910596163089e-17,0.8999999999999999 l 0.8999999999999999,0.0 l 5.510910596163089e-17,0.8999999999999999 l -0.8999999999999999,1.1021821192326178e-16 l 5.510910596163089e-17,0.8999999999999999 l -0.8999999999999999,1.1021821192326178e-16 l -1.6532731788489266e-16,-0.8999999999999999 l -1.6532731788489266e-16,-0.8999999999999999 l -0.8999999999999999,1.1021821192326178e-16 l 5.510910596163089e-17,0.8999999999999999 l -0.8999999999999999,1.1021821192326178e-16 l -0.8999999999999999,1.1021821192326178e-16 l 5.510910596163089e-17,0.8999999999999999 l -0.8999999999999999,1.1021821192326178e-16 l -1.6532731788489266e-16,-0.8999999999999999 l -1.6532731788489266e-16,-0.8999999999999999 l -0.8999999999999999,1.1021821192326178e-16 l 5.510910596163089e-17,0.8999999999999999 l -0.8999999999999999,1.1021821192326178e-16 l 5.510910596163089e-17,0.8999999999999999 l 0.8999999999999999,0.0 l 5.510910596163089e-17,0.8999999999999999 l -0.8999999999999999,1.1021821192326178e-16 l -0.8999999999999999,1.1021821192326178e-16 l 5.510910596163089e-17,0.8999999999999999 l 0.8999999999999999,0.0 l 5.510910596163089e-17,0.8999999999999999 l 0.8999999999999999,0.0 l 5.510910596163089e-17,-0.8999999999999999 l 0.8999999999999999,0.0 l 5.510910596163089e-17,0.8999999999999999 l 5.510910596163089e-17,0.8999999999999999 l 0.8999999999999999,0.0 l 5.510910596163089e-17,-0.8999999999999999 l 0.8999999999999999,0.0 l 5.510910596163089e-17,0.8999999999999999 l 0.8999999999999999,0.0 l 5.510910596163089e-17,0.8999999999999999 l -0.8999999999999999,1.1021821192326178e-16 l -0.8999999999999999,1.1021821192326178e-16 l 5.510910596163089e-17,0.8999999999999999 l 0.8999999999999999,0.0 l 5.510910596163089e-17,0.8999999999999999 l 5.510910596163089e-17,0.8999999999999999 l 0.8999999999999999,0.0 l 5.510910596163089e-17,0.8999999999999999 l -0.8999999999999999,1.1021821192326178e-16 l -0.8999999999999999,1.1021821192326178e-16 l 5.510910596163089e-17,0.8999999999999999 l 0.8999999999999999,0.0 l 5.510910596163089e-17,0.8999999999999999 l 0.8999999999999999,0.0 l 5.510910596163089e-17,-0.8999999999999999 l 0.8999999999999999,0.0 l 5.510910596163089e-17,0.8999999999999999 l 5.510910596163089e-17,0.8999999999999999 l 0.8999999999999999,0.0 l 5.510910596163089e-17,-0.8999999999999999 l 0.8999999999999999,0.0 l 5.510910596163089e-17,0.8999999999999999 l 0.8999999999999999,0.0 l 5.510910596163089e-17,0.8999999999999999 l -0.8999999999999999,1.1021821192326178e-16 l -0.8999999999999999,1.1021821192326178e-16 l 5.510910596163089e-17,0.8999999999999999 l 0.8999999999999999,0.0 l 5.510910596163089e-17,0.8999999999999999 l -0.8999999999999999,1.1021821192326178e-16 l 5.510910596163089e-17,0.8999999999999999 l -0.8999999999999999,1.1021821192326178e-16 l -1.6532731788489266e-16,-0.8999999999999999 l -1.6532731788489266e-16,-0.8999999999999999 l -0.8999999999999999,1.1021821192326178e-16 l 5.510910596163089e-17,0.8999999999999999 l -0.8999999999999999,1.1021821192326178e-16 l -0.8999999999999999,1.1021821192326178e-16 l 5.510910596163089e-17,0.8999999999999999 l -0.8999999999999999,1.1021821192326178e-16 l -1.6532731788489266e-16,-0.8999999999999999 l -1.6532731788489266e-16,-0.8999999999999999 l -0.8999999999999999,1.1021821192326178e-16 l 5.510910596163089e-17,0.8999999999999999 l -0.8999999999999999,1.1021821192326178e-16 l 5.510910596163089e-17,0.8999999999999999 l 0.8999999999999999,0.0 l 5.510910596163089e-17,0.8999999999999999 l -0.8999999999999999,1.1021821192326178e-16 l -0.8999999999999999,1.1021821192326178e-16 l 5.510910596163089e-17,0.8999999999999999 l 0.8999999999999999,0.0 l 5.510910596163089e-17,0.8999999999999999 l 0.8999999999999999,0.0 l 5.510910596163089e-17,-0.8999999999999999 l 0.8999999999999999,0.0 l 5.510910596163089e-17,0.8999999999999999 l 5.510910596163089e-17,0.8999999999999999 l 0.8999999999999999,0.0 l 5.510910596163089e-17,-0.8999999999999999 l 0.8999999999999999,0.0 l 5.510910596163089e-17,0.8999999999999999 l 0.8999999999999999,0.0 l 5.510910596163089e-17,0.8999999999999999 l -0.8999999999999999,1.1021821192326178e-16 l -0.8999999999999999,1.1021821192326178e-16 l 5.510910596163089e-17,0.8999999999999999 l 0.8999999999999999,0.0 l 5.510910596163089e-17,0.8999999999999999 l 0.8999999999999999,0.0 l 5.510910596163089e-17,-0.8999999999999999 l 0.8999999999999999,0.0 l 5.510910596163089e-17,0.8999999999999999 l 5.510910596163089e-17,0.8999999999999999 l 0.8999999999999999,0.0 l 5.510910596163089e-17,-0.8999999999999999 l 0.8999999999999999,0.0 l 5.510910596163089e-17,-0.8999999999999999 l -0.8999999999999999,-1.1021821192326178e-16 l 5.510910596163089e-17,-0.8999999999999999 l 0.8999999999999999,0.0 l 0.8999999999999999,0.0 l 5.510910596163089e-17,-0.8999999999999999 l -0.8999999999999999,-1.1021821192326178e-16 l 5.510910596163089e-17,-0.8999999999999999 l 0.8999999999999999,0.0 l 5.510910596163089e-17,-0.8999999999999999 l 0.8999999999999999,0.0 l 5.510910596163089e-17,0.8999999999999999 l 5.510910596163089e-17,0.8999999999999999 l 0.8999999999999999,0.0 l 5.510910596163089e-17,-0.8999999999999999 l 0.8999999999999999,0.0 l 5.510910596163089e-17,0.8999999999999999 l 0.8999999999999999,0.0 l 5.510910596163089e-17,0.8999999999999999 l -0.8999999999999999,1.1021821192326178e-16 l -0.8999999999999999,1.1021821192326178e-16 l 5.510910596163089e-17,0.8999999999999999 l 0.8999999999999999,0.0 l 5.510910596163089e-17,0.8999999999999999 l 5.510910596163089e-17,0.8999999999999999 l 0.8999999999999999,0.0 l 5.510910596163089e-17,0.8999999999999999 l -0.8999999999999999,1.1021821192326178e-16 l -0.8999999999999999,1.1021821192326178e-16 l 5.510910596163089e-17,0.8999999999999999 l 0.8999999999999999,0.0 l 5.510910596163089e-17,0.8999999999999999 l 0.8999999999999999,0.0 l 5.510910596163089e-17,-0.8999999999999999 l 0.8999999999999999,0.0 l 5.510910596163089e-17,0.8999999999999999 l 5.510910596163089e-17,0.8999999999999999 l 0.8999999999999999,0.0 l 5.510910596163089e-17,-0.8999999999999999 l 0.8999999999999999,0.0 l 5.510910596163089e-17,-0.8999999999999999 l -0.8999999999999999,-1.1021821192326178e-16 l 5.510910596163089e-17,-0.8999999999999999 l 0.8999999999999999,0.0 l 0.8999999999999999,0.0 l 5.510910596163089e-17,-0.8999999999999999 l -0.8999999999999999,-1.1021821192326178e-16 l 5.510910596163089e-17,-0.8999999999999999 l 0.8999999999999999,0.0 l 5.510910596163089e-17,-0.8999999999999999 l 0.8999999999999999,0.0 l 5.510910596163089e-17,0.8999999999999999 l 5.510910596163089e-17,0.8999999999999999 l 0.8999999999999999,0.0 l 5.510910596163089e-17,-0.8999999999999999 l 0.8999999999999999,0.0 l 5.510910596163089e-17,-0.8999999999999999 l -0.8999999999999999,-1.1021821192326178e-16 l 5.510910596163089e-17,-0.8999999999999999 l 0.8999999999999999,0.0 l 0.8999999999999999,0.0 l 5.510910596163089e-17,-0.8999999999999999 l -0.8999999999999999,-1.1021821192326178e-16 l 5.510910596163089e-17,-0.8999999999999999 l -0.8999999999999999,-1.1021821192326178e-16 l -1.6532731788489266e-16,0.8999999999999999 l -0.8999999999999999,-1.1021821192326178e-16 l 5.510910596163089e-17,-0.8999999999999999 l 5.510910596163089e-17,-0.8999999999999999 l -0.8999999999999999,-1.1021821192326178e-16 l -1.6532731788489266e-16,0.8999999999999999 l -0.8999999999999999,-1.1021821192326178e-16 l 5.510910596163089e-17,-0.8999999999999999 l -0.8999999999999999,-1.1021821192326178e-16 l 5.510910596163089e-17,-0.8999999999999999 l 0.8999999999999999,0.0 l 0.8999999999999999,0.0 l 5.510910596163089e-17,-0.8999999999999999 l -0.8999999999999999,-1.1021821192326178e-16 l 5.510910596163089e-17,-0.8999999999999999 l 0.8999999999999999,0.0 l 5.510910596163089e-17,-0.8999999999999999 l 0.8999999999999999,0.0 l 5.510910596163089e-17,0.8999999999999999 l 5.510910596163089e-17,0.8999999999999999 l 0.8999999999999999,0.0 l 5.510910596163089e-17,-0.8999999999999999 l 0.8999999999999999,0.0 l 0.8999999999999999,0.0 l 5.510910596163089e-17,-0.8999999999999999 l 0.8999999999999999,0.0 l 5.510910596163089e-17,0.8999999999999999 l 5.510910596163089e-17,0.8999999999999999 l 0.8999999999999999,0.0 l 5.510910596163089e-17,-0.8999999999999999 l 0.8999999999999999,0.0 l 5.510910596163089e-17,-0.8999999999999999 l -0.8999999999999999,-1.1021821192326178e-16 l 5.510910596163089e-17,-0.8999999999999999 l 0.8999999999999999,0.0 l 0.8999999999999999,0.0 l 5.510910596163089e-17,-0.8999999999999999 l -0.8999999999999999,-1.1021821192326178e-16 l 5.510910596163089e-17,-0.8999999999999999 l -0.8999999999999999,-1.1021821192326178e-16 l -1.6532731788489266e-16,0.8999999999999999 l -0.8999999999999999,-1.1021821192326178e-16 l 5.510910596163089e-17,-0.8999999999999999 l 5.510910596163089e-17,-0.8999999999999999 l -0.8999999999999999,-1.1021821192326178e-16 l -1.6532731788489266e-16,0.8999999999999999 l -0.8999999999999999,-1.1021821192326178e-16 l 5.510910596163089e-17,-0.8999999999999999 l -0.8999999999999999,-1.1021821192326178e-16 l 5.510910596163089e-17,-0.8999999999999999 l 0.8999999999999999,0.0 l 0.8999999999999999,0.0 l 5.510910596163089e-17,-0.8999999999999999 l -0.8999999999999999,-1.1021821192326178e-16 l 5.510910596163089e-17,-0.8999999999999999 l 0.8999999999999999,0.0 l 5.510910596163089e-17,-0.8999999999999999 l 0.8999999999999999,0.0 l 5.510910596163089e-17,0.8999999999999999 l 5.510910596163089e-17,0.8999999999999999 l 0.8999999999999999,0.0 l 5.510910596163089e-17,-0.8999999999999999 l 0.8999999999999999,0.0 l 5.510910596163089e-17,-0.8999999999999999 l -0.8999999999999999,-1.1021821192326178e-16 l 5.510910596163089e-17,-0.8999999999999999 l 0.8999999999999999,0.0 l 0.8999999999999999,0.0 l 5.510910596163089e-17,-0.8999999999999999 l -0.8999999999999999,-1.1021821192326178e-16 l 5.510910596163089e-17,-0.8999999999999999 l 0.8999999999999999,0.0 l 5.510910596163089e-17,-0.8999999999999999 l 0.8999999999999999,0.0 l 5.510910596163089e-17,0.8999999999999999 l 5.510910596163089e-17,0.8999999999999999 l 0.8999999999999999,0.0 l 5.510910596163089e-17,-0.8999999999999999 l 0.8999999999999999,0.0 l 5.510910596163089e-17,0.8999999999999999 l 0.8999999999999999,0.0 l 5.510910596163089e-17,0.8999999999999999 l -0.8999999999999999,1.1021821192326178e-16 l -0.8999999999999999,1.1021821192326178e-16 l 5.510910596163089e-17,0.8999999999999999 l 0.8999999999999999,0.0 l 5.510910596163089e-17,0.8999999999999999 l 5.510910596163089e-17,0.8999999999999999 l 0.8999999999999999,0.0 l 5.510910596163089e-17,0.8999999999999999 l -0.8999999999999999,1.1021821192326178e-16 l -0.8999999999999999,1.1021821192326178e-16 l 5.510910596163089e-17,0.8999999999999999 l 0.8999999999999999,0.0 l 5.510910596163089e-17,0.8999999999999999 l 0.8999999999999999,0.0 l 5.510910596163089e-17,-0.8999999999999999 l 0.8999999999999999,0.0 l 5.510910596163089e-17,0.8999999999999999 l 5.510910596163089e-17,0.8999999999999999 l 0.8999999999999999,0.0 l 5.510910596163089e-17,-0.8999999999999999 l 0.8999999999999999,0.0 l 5.510910596163089e-17,-0.8999999999999999 l -0.8999999999999999,-1.1021821192326178e-16 l 5.510910596163089e-17,-0.8999999999999999 l 0.8999999999999999,0.0 l 0.8999999999999999,0.0 l 5.510910596163089e-17,-0.8999999999999999 l -0.8999999999999999,-1.1021821192326178e-16 l 5.510910596163089e-17,-0.8999999999999999 l 0.8999999999999999,0.0 l 5.510910596163089e-17,-0.8999999999999999 l 0.8999999999999999,0.0 l 5.510910596163089e-17,0.8999999999999999 l 5.510910596163089e-17,0.8999999999999999 l 0.8999999999999999,0.0 l 5.510910596163089e-17,-0.8999999999999999 l 0.8999999999999999,0.0 l 5.510910596163089e-17,-0.8999999999999999 l -0.8999999999999999,-1.1021821192326178e-16 l 5.510910596163089e-17,-0.8999999999999999 l 0.8999999999999999,0.0 l 0.8999999999999999,0.0 l 5.510910596163089e-17,-0.8999999999999999 l -0.8999999999999999,-1.1021821192326178e-16 l 5.510910596163089e-17,-0.8999999999999999 l -0.8999999999999999,-1.1021821192326178e-16 l -1.6532731788489266e-16,0.8999999999999999 l -0.8999999999999999,-1.1021821192326178e-16 l 5.510910596163089e-17,-0.8999999999999999 l 5.510910596163089e-17,-0.8999999999999999 l -0.8999999999999999,-1.1021821192326178e-16 l -1.6532731788489266e-16,0.8999999999999999 l -0.8999999999999999,-1.1021821192326178e-16 l 5.510910596163089e-17,-0.8999999999999999 l -0.8999999999999999,-1.1021821192326178e-16 l 5.510910596163089e-17,-0.8999999999999999 l 0.8999999999999999,0.0 l 0.8999999999999999,0.0 l 5.510910596163089e-17,-0.8999999999999999 l -0.8999999999999999,-1.1021821192326178e-16 l 5.510910596163089e-17,-0.8999999999999999 l 0.8999999999999999,0.0 l 5.510910596163089e-17,-0.8999999999999999 l 0.8999999999999999,0.0 l 5.510910596163089e-17,0.8999999999999999 l 5.510910596163089e-17,0.8999999999999999 l 0.8999999999999999,0.0 l 5.510910596163089e-17,-0.8999999999999999 l 0.8999999999999999,0.0 l 0.8999999999999999,0.0 l 5.510910596163089e-17,-0.8999999999999999 l 0.8999999999999999,0.0 l 5.510910596163089e-17,0.8999999999999999 l 5.510910596163089e-17,0.8999999999999999 l 0.8999999999999999,0.0 l 5.510910596163089e-17,-0.8999999999999999 l 0.8999999999999999,0.0 l 5.510910596163089e-17,-0.8999999999999999 l -0.8999999999999999,-1.1021821192326178e-16 l 5.510910596163089e-17,-0.8999999999999999 l 0.8999999999999999,0.0 l 0.8999999999999999,0.0 l 5.510910596163089e-17,-0.8999999999999999 l -0.8999999999999999,-1.1021821192326178e-16 l 5.510910596163089e-17,-0.8999999999999999 l -0.8999999999999999,-1.1021821192326178e-16 l -1.6532731788489266e-16,0.8999999999999999 l -0.8999999999999999,-1.1021821192326178e-16 l 5.510910596163089e-17,-0.8999999999999999 l 5.510910596163089e-17,-0.8999999999999999 l -0.8999999999999999,-1.1021821192326178e-16 l -1.6532731788489266e-16,0.8999999999999999 l -0.8999999999999999,-1.1021821192326178e-16 l 5.510910596163089e-17,-0.8999999999999999 l -0.8999999999999999,-1.1021821192326178e-16 l 5.510910596163089e-17,-0.8999999999999999 l 0.8999999999999999,0.0 l 0.8999999999999999,0.0 l 5.510910596163089e-17,-0.8999999999999999 l -0.8999999999999999,-1.1021821192326178e-16 l 5.510910596163089e-17,-0.8999999999999999 l -0.8999999999999999,-1.1021821192326178e-16 l -1.6532731788489266e-16,0.8999999999999999 l -0.8999999999999999,-1.1021821192326178e-16 l 5.510910596163089e-17,-0.8999999999999999 l 5.510910596163089e-17,-0.8999999999999999 l -0.8999999999999999,-1.1021821192326178e-16 l -1.6532731788489266e-16,0.8999999999999999 l -0.8999999999999999,-1.1021821192326178e-16 l -1.6532731788489266e-16,0.8999999999999999 l 0.8999999999999999,2.2043642384652356e-16 l -1.6532731788489266e-16,0.8999999999999999 l -0.8999999999999999,-1.1021821192326178e-16 l -0.8999999999999999,-1.1021821192326178e-16 l -1.6532731788489266e-16,0.8999999999999999 l 0.8999999999999999,2.2043642384652356e-16 l -1.6532731788489266e-16,0.8999999999999999 l -0.8999999999999999,-1.1021821192326178e-16 l -1.6532731788489266e-16,0.8999999999999999 l -0.8999999999999999,-1.1021821192326178e-16 l 5.510910596163089e-17,-0.8999999999999999 l 5.510910596163089e-17,-0.8999999999999999 l -0.8999999999999999,-1.1021821192326178e-16 l -1.6532731788489266e-16,0.8999999999999999 l -0.8999999999999999,-1.1021821192326178e-16 l 5.510910596163089e-17,-0.8999999999999999 l -0.8999999999999999,-1.1021821192326178e-16 l 5.510910596163089e-17,-0.8999999999999999 l 0.8999999999999999,0.0 l 0.8999999999999999,0.0 l 5.510910596163089e-17,-0.8999999999999999 l -0.8999999999999999,-1.1021821192326178e-16 l 5.510910596163089e-17,-0.8999999999999999 l 5.510910596163089e-17,-0.8999999999999999 l -0.8999999999999999,-1.1021821192326178e-16 l 5.510910596163089e-17,-0.8999999999999999 l 0.8999999999999999,0.0 l 0.8999999999999999,0.0 l 5.510910596163089e-17,-0.8999999999999999 l -0.8999999999999999,-1.1021821192326178e-16 l 5.510910596163089e-17,-0.8999999999999999 l -0.8999999999999999,-1.1021821192326178e-16 l -1.6532731788489266e-16,0.8999999999999999 l -0.8999999999999999,-1.1021821192326178e-16 l 5.510910596163089e-17,-0.8999999999999999 l 5.510910596163089e-17,-0.8999999999999999 l -0.8999999999999999,-1.1021821192326178e-16 l -1.6532731788489266e-16,0.8999999999999999 l -0.8999999999999999,-1.1021821192326178e-16 l -1.6532731788489266e-16,0.8999999999999999 l 0.8999999999999999,2.2043642384652356e-16 l -1.6532731788489266e-16,0.8999999999999999 l -0.8999999999999999,-1.1021821192326178e-16 l -0.8999999999999999,-1.1021821192326178e-16 l -1.6532731788489266e-16,0.8999999999999999 l 0.8999999999999999,2.2043642384652356e-16 l -1.6532731788489266e-16,0.8999999999999999 l -0.8999999999999999,-1.1021821192326178e-16 l -1.6532731788489266e-16,0.8999999999999999 l -0.8999999999999999,-1.1021821192326178e-16 l 5.510910596163089e-17,-0.8999999999999999 l 5.510910596163089e-17,-0.8999999999999999 l -0.8999999999999999,-1.1021821192326178e-16 l -1.6532731788489266e-16,0.8999999999999999 l -0.8999999999999999,-1.1021821192326178e-16 l 5.510910596163089e-17,-0.8999999999999999 l -0.8999999999999999,-1.1021821192326178e-16 l 5.510910596163089e-17,-0.8999999999999999 l 0.8999999999999999,0.0 l 0.8999999999999999,0.0 l 5.510910596163089e-17,-0.8999999999999999 l -0.8999999999999999,-1.1021821192326178e-16 l 5.510910596163089e-17,-0.8999999999999999 l -0.8999999999999999,-1.1021821192326178e-16 l -1.6532731788489266e-16,0.8999999999999999 l -0.8999999999999999,-1.1021821192326178e-16 l 5.510910596163089e-17,-0.8999999999999999 l 5.510910596163089e-17,-0.8999999999999999 l -0.8999999999999999,-1.1021821192326178e-16 l -1.6532731788489266e-16,0.8999999999999999 l -0.8999999999999999,-1.1021821192326178e-16 l 5.510910596163089e-17,-0.8999999999999999 l -0.8999999999999999,-1.1021821192326178e-16 l 5.510910596163089e-17,-0.8999999999999999 l 0.8999999999999999,0.0 l 0.8999999999999999,0.0 l 5.510910596163089e-17,-0.8999999999999999 l -0.8999999999999999,-1.1021821192326178e-16 l 5.510910596163089e-17,-0.8999999999999999 l 0.8999999999999999,0.0 l 5.510910596163089e-17,-0.8999999999999999 l 0.8999999999999999,0.0 l 5.510910596163089e-17,0.8999999999999999 l 5.510910596163089e-17,0.8999999999999999 l 0.8999999999999999,0.0 l 5.510910596163089e-17,-0.8999999999999999 l 0.8999999999999999,0.0 l 0.8999999999999999,0.0 l 5.510910596163089e-17,-0.8999999999999999 l 0.8999999999999999,0.0 l 5.510910596163089e-17,0.8999999999999999 l 5.510910596163089e-17,0.8999999999999999 l 0.8999999999999999,0.0 l 5.510910596163089e-17,-0.8999999999999999 l 0.8999999999999999,0.0 l 5.510910596163089e-17,-0.8999999999999999 l -0.8999999999999999,-1.1021821192326178e-16 l 5.510910596163089e-17,-0.8999999999999999 l 0.8999999999999999,0.0 l 0.8999999999999999,0.0 l 5.510910596163089e-17,-0.8999999999999999 l -0.8999999999999999,-1.1021821192326178e-16 l 5.510910596163089e-17,-0.8999999999999999 l -0.8999999999999999,-1.1021821192326178e-16 l -1.6532731788489266e-16,0.8999999999999999 l -0.8999999999999999,-1.1021821192326178e-16 l 5.510910596163089e-17,-0.8999999999999999 l 5.510910596163089e-17,-0.8999999999999999 l -0.8999999999999999,-1.1021821192326178e-16 l -1.6532731788489266e-16,0.8999999999999999 l -0.8999999999999999,-1.1021821192326178e-16 l 5.510910596163089e-17,-0.8999999999999999 l -0.8999999999999999,-1.1021821192326178e-16 l 5.510910596163089e-17,-0.8999999999999999 l 0.8999999999999999,0.0 l 0.8999999999999999,0.0 l 5.510910596163089e-17,-0.8999999999999999 l -0.8999999999999999,-1.1021821192326178e-16 l 5.510910596163089e-17,-0.8999999999999999 l 0.8999999999999999,0.0 l 5.510910596163089e-17,-0.8999999999999999 l 0.8999999999999999,0.0 l 5.510910596163089e-17,0.8999999999999999 l 5.510910596163089e-17,0.8999999999999999 l 0.8999999999999999,0.0 l 5.510910596163089e-17,-0.8999999999999999 l 0.8999999999999999,0.0 l 5.510910596163089e-17,-0.8999999999999999 l -0.8999999999999999,-1.1021821192326178e-16 l 5.510910596163089e-17,-0.8999999999999999 l 0.8999999999999999,0.0 l 0.8999999999999999,0.0 l 5.510910596163089e-17,-0.8999999999999999 l -0.8999999999999999,-1.1021821192326178e-16 l 5.510910596163089e-17,-0.8999999999999999 l 0.8999999999999999,0.0 l 5.510910596163089e-17,-0.8999999999999999 l 0.8999999999999999,0.0 l 5.510910596163089e-17,0.8999999999999999 l 5.510910596163089e-17,0.8999999999999999 l 0.8999999999999999,0.0 l 5.510910596163089e-17,-0.8999999999999999 l 0.8999999999999999,0.0 l 5.510910596163089e-17,0.8999999999999999 l 0.8999999999999999,0.0 l 5.510910596163089e-17,0.8999999999999999 l -0.8999999999999999,1.1021821192326178e-16 l -0.8999999999999999,1.1021821192326178e-16 l 5.510910596163089e-17,0.8999999999999999 l 0.8999999999999999,0.0 l 5.510910596163089e-17,0.8999999999999999 l 5.510910596163089e-17,0.8999999999999999 l 0.8999999999999999,0.0 l 5.510910596163089e-17,0.8999999999999999 l -0.8999999999999999,1.1021821192326178e-16 l -0.8999999999999999,1.1021821192326178e-16 l 5.510910596163089e-17,0.8999999999999999 l 0.8999999999999999,0.0 l 5.510910596163089e-17,0.8999999999999999 l 0.8999999999999999,0.0 l 5.510910596163089e-17,-0.8999999999999999 l 0.8999999999999999,0.0 l 5.510910596163089e-17,0.8999999999999999 l 5.510910596163089e-17,0.8999999999999999 l 0.8999999999999999,0.0 l 5.510910596163089e-17,-0.8999999999999999 l 0.8999999999999999,0.0 l 5.510910596163089e-17,-0.8999999999999999 l -0.8999999999999999,-1.1021821192326178e-16 l 5.510910596163089e-17,-0.8999999999999999 l 0.8999999999999999,0.0 l 0.8999999999999999,0.0 l 5.510910596163089e-17,-0.8999999999999999 l -0.8999999999999999,-1.1021821192326178e-16 l 5.510910596163089e-17,-0.8999999999999999 l 0.8999999999999999,0.0 l 5.510910596163089e-17,-0.8999999999999999 l 0.8999999999999999,0.0 l 5.510910596163089e-17,0.8999999999999999 l 5.510910596163089e-17,0.8999999999999999 l 0.8999999999999999,0.0 l 5.510910596163089e-17,-0.8999999999999999 l 0.8999999999999999,0.0 l 0.8999999999999999,0.0 l 5.510910596163089e-17,-0.8999999999999999 l 0.8999999999999999,0.0 l 5.510910596163089e-17,0.8999999999999999 l 5.510910596163089e-17,0.8999999999999999 l 0.8999999999999999,0.0 l 5.510910596163089e-17,-0.8999999999999999 l 0.8999999999999999,0.0 l 5.510910596163089e-17,-0.8999999999999999 l -0.8999999999999999,-1.1021821192326178e-16 l 5.510910596163089e-17,-0.8999999999999999 l 0.8999999999999999,0.0 l 0.8999999999999999,0.0 l 5.510910596163089e-17,-0.8999999999999999 l -0.8999999999999999,-1.1021821192326178e-16 l 5.510910596163089e-17,-0.8999999999999999 l 0.8999999999999999,0.0 l 5.510910596163089e-17,-0.8999999999999999 l 0.8999999999999999,0.0 l 5.510910596163089e-17,0.8999999999999999 l 5.510910596163089e-17,0.8999999999999999 l 0.8999999999999999,0.0 l 5.510910596163089e-17,-0.8999999999999999 l 0.8999999999999999,0.0 l 5.510910596163089e-17,0.8999999999999999 l 0.8999999999999999,0.0 l 5.510910596163089e-17,0.8999999999999999 l -0.8999999999999999,1.1021821192326178e-16 l -0.8999999999999999,1.1021821192326178e-16 l 5.510910596163089e-17,0.8999999999999999 l 0.8999999999999999,0.0 l 5.510910596163089e-17,0.8999999999999999 l 5.510910596163089e-17,0.8999999999999999 l 0.8999999999999999,0.0 l 5.510910596163089e-17,0.8999999999999999 l -0.8999999999999999,1.1021821192326178e-16 l -0.8999999999999999,1.1021821192326178e-16 l 5.510910596163089e-17,0.8999999999999999 l 0.8999999999999999,0.0 l 5.510910596163089e-17,0.8999999999999999 l 0.8999999999999999,0.0 l 5.510910596163089e-17,-0.8999999999999999 l 0.8999999999999999,0.0 l 5.510910596163089e-17,0.8999999999999999 l 5.510910596163089e-17,0.8999999999999999 l 0.8999999999999999,0.0 l 5.510910596163089e-17,-0.8999999999999999 l 0.8999999999999999,0.0 l 5.510910596163089e-17,-0.8999999999999999 l -0.8999999999999999,-1.1021821192326178e-16 l 5.510910596163089e-17,-0.8999999999999999 l 0.8999999999999999,0.0 l 0.8999999999999999,0.0 l 5.510910596163089e-17,-0.8999999999999999 l -0.8999999999999999,-1.1021821192326178e-16 l 5.510910596163089e-17,-0.8999999999999999 l 0.8999999999999999,0.0 l 5.510910596163089e-17,-0.8999999999999999 l 0.8999999999999999,0.0 l 5.510910596163089e-17,0.8999999999999999 l 5.510910596163089e-17,0.8999999999999999 l 0.8999999999999999,0.0 l 5.510910596163089e-17,-0.8999999999999999 l 0.8999999999999999,0.0 l 5.510910596163089e-17,-0.8999999999999999 l -0.8999999999999999,-1.1021821192326178e-16 l 5.510910596163089e-17,-0.8999999999999999 l 0.8999999999999999,0.0 l 0.8999999999999999,0.0 l 5.510910596163089e-17,-0.8999999999999999 l -0.8999999999999999,-1.1021821192326178e-16 l 5.510910596163089e-17,-0.8999999999999999 l -0.8999999999999999,-1.1021821192326178e-16 l -1.6532731788489266e-16,0.8999999999999999 l -0.8999999999999999,-1.1021821192326178e-16 l 5.510910596163089e-17,-0.8999999999999999 l 5.510910596163089e-17,-0.8999999999999999 l -0.8999999999999999,-1.1021821192326178e-16 l -1.6532731788489266e-16,0.8999999999999999 l -0.8999999999999999,-1.1021821192326178e-16 l 5.510910596163089e-17,-0.8999999999999999 l -0.8999999999999999,-1.1021821192326178e-16 l 5.510910596163089e-17,-0.8999999999999999 l 0.8999999999999999,0.0 l 0.8999999999999999,0.0 l 5.510910596163089e-17,-0.8999999999999999 l -0.8999999999999999,-1.1021821192326178e-16 l 5.510910596163089e-17,-0.8999999999999999 l 0.8999999999999999,0.0 l 5.510910596163089e-17,-0.8999999999999999 l 0.8999999999999999,0.0 l 5.510910596163089e-17,0.8999999999999999 l 5.510910596163089e-17,0.8999999999999999 l 0.8999999999999999,0.0 l 5.510910596163089e-17,-0.8999999999999999 l 0.8999999999999999,0.0 l 0.8999999999999999,0.0 l 5.510910596163089e-17,-0.8999999999999999 l 0.8999999999999999,0.0 l 5.510910596163089e-17,0.8999999999999999 l 5.510910596163089e-17,0.8999999999999999 l 0.8999999999999999,0.0 l 5.510910596163089e-17,-0.8999999999999999 l 0.8999999999999999,0.0 l 5.510910596163089e-17,-0.8999999999999999 l -0.8999999999999999,-1.1021821192326178e-16 l 5.510910596163089e-17,-0.8999999999999999 l 0.8999999999999999,0.0 l 0.8999999999999999,0.0 l 5.510910596163089e-17,-0.8999999999999999 l -0.8999999999999999,-1.1021821192326178e-16 l 5.510910596163089e-17,-0.8999999999999999 l -0.8999999999999999,-1.1021821192326178e-16 l -1.6532731788489266e-16,0.8999999999999999 l -0.8999999999999999,-1.1021821192326178e-16 l 5.510910596163089e-17,-0.8999999999999999 l 5.510910596163089e-17,-0.8999999999999999 l -0.8999999999999999,-1.1021821192326178e-16 l -1.6532731788489266e-16,0.8999999999999999 l -0.8999999999999999,-1.1021821192326178e-16 l 5.510910596163089e-17,-0.8999999999999999 l -0.8999999999999999,-1.1021821192326178e-16 l 5.510910596163089e-17,-0.8999999999999999 l 0.8999999999999999,0.0 l 0.8999999999999999,0.0 l 5.510910596163089e-17,-0.8999999999999999 l -0.8999999999999999,-1.1021821192326178e-16 l 5.510910596163089e-17,-0.8999999999999999 l -0.8999999999999999,-1.1021821192326178e-16 l -1.6532731788489266e-16,0.8999999999999999 l -0.8999999999999999,-1.1021821192326178e-16 l 5.510910596163089e-17,-0.8999999999999999 l 5.510910596163089e-17,-0.8999999999999999 l -0.8999999999999999,-1.1021821192326178e-16 l -1.6532731788489266e-16,0.8999999999999999 l -0.8999999999999999,-1.1021821192326178e-16 l -1.6532731788489266e-16,0.8999999999999999 l 0.8999999999999999,2.2043642384652356e-16 l -1.6532731788489266e-16,0.8999999999999999 l -0.8999999999999999,-1.1021821192326178e-16 l -0.8999999999999999,-1.1021821192326178e-16 l -1.6532731788489266e-16,0.8999999999999999 l 0.8999999999999999,2.2043642384652356e-16 l -1.6532731788489266e-16,0.8999999999999999 l -0.8999999999999999,-1.1021821192326178e-16 l -1.6532731788489266e-16,0.8999999999999999 l -0.8999999999999999,-1.1021821192326178e-16 l 5.510910596163089e-17,-0.8999999999999999 l 5.510910596163089e-17,-0.8999999999999999 l -0.8999999999999999,-1.1021821192326178e-16 l -1.6532731788489266e-16,0.8999999999999999 l -0.8999999999999999,-1.1021821192326178e-16 l 5.510910596163089e-17,-0.8999999999999999 l -0.8999999999999999,-1.1021821192326178e-16 l 5.510910596163089e-17,-0.8999999999999999 l 0.8999999999999999,0.0 l 0.8999999999999999,0.0 l 5.510910596163089e-17,-0.8999999999999999 l -0.8999999999999999,-1.1021821192326178e-16 l 5.510910596163089e-17,-0.8999999999999999 l 5.510910596163089e-17,-0.8999999999999999 l -0.8999999999999999,-1.1021821192326178e-16 l 5.510910596163089e-17,-0.8999999999999999 l 0.8999999999999999,0.0 l 0.8999999999999999,0.0 l 5.510910596163089e-17,-0.8999999999999999 l -0.8999999999999999,-1.1021821192326178e-16 l 5.510910596163089e-17,-0.8999999999999999 l -0.8999999999999999,-1.1021821192326178e-16 l -1.6532731788489266e-16,0.8999999999999999 l -0.8999999999999999,-1.1021821192326178e-16 l 5.510910596163089e-17,-0.8999999999999999 l 5.510910596163089e-17,-0.8999999999999999 l -0.8999999999999999,-1.1021821192326178e-16 l -1.6532731788489266e-16,0.8999999999999999 l -0.8999999999999999,-1.1021821192326178e-16 l -1.6532731788489266e-16,0.8999999999999999 l 0.8999999999999999,2.2043642384652356e-16 l -1.6532731788489266e-16,0.8999999999999999 l -0.8999999999999999,-1.1021821192326178e-16 l -0.8999999999999999,-1.1021821192326178e-16 l -1.6532731788489266e-16,0.8999999999999999 l 0.8999999999999999,2.2043642384652356e-16 l -1.6532731788489266e-16,0.8999999999999999 l -0.8999999999999999,-1.1021821192326178e-16 l -1.6532731788489266e-16,0.8999999999999999 l -0.8999999999999999,-1.1021821192326178e-16 l 5.510910596163089e-17,-0.8999999999999999 l 5.510910596163089e-17,-0.8999999999999999 l -0.8999999999999999,-1.1021821192326178e-16 l -1.6532731788489266e-16,0.8999999999999999 l -0.8999999999999999,-1.1021821192326178e-16 l 5.510910596163089e-17,-0.8999999999999999 l -0.8999999999999999,-1.1021821192326178e-16 l 5.510910596163089e-17,-0.8999999999999999 l 0.8999999999999999,0.0 l 0.8999999999999999,0.0 l 5.510910596163089e-17,-0.8999999999999999 l -0.8999999999999999,-1.1021821192326178e-16 l 5.510910596163089e-17,-0.8999999999999999 l -0.8999999999999999,-1.1021821192326178e-16 l -1.6532731788489266e-16,0.8999999999999999 l -0.8999999999999999,-1.1021821192326178e-16 l 5.510910596163089e-17,-0.8999999999999999 l 5.510910596163089e-17,-0.8999999999999999 l -0.8999999999999999,-1.1021821192326178e-16 l -1.6532731788489266e-16,0.8999999999999999 l -0.8999999999999999,-1.1021821192326178e-16 l 5.510910596163089e-17,-0.8999999999999999 l -0.8999999999999999,-1.1021821192326178e-16 l 5.510910596163089e-17,-0.8999999999999999 l 0.8999999999999999,0.0 l 0.8999999999999999,0.0 l 5.510910596163089e-17,-0.8999999999999999 l -0.8999999999999999,-1.1021821192326178e-16 l 5.510910596163089e-17,-0.8999999999999999 l 0.8999999999999999,0.0 l 5.510910596163089e-17,-0.8999999999999999 l 0.8999999999999999,0.0 l 5.510910596163089e-17,0.8999999999999999 l 5.510910596163089e-17,0.8999999999999999 l 0.8999999999999999,0.0 l 5.510910596163089e-17,-0.8999999999999999 l 0.8999999999999999,0.0 l 0.8999999999999999,0.0 l 5.510910596163089e-17,-0.8999999999999999 l 0.8999999999999999,0.0 l 5.510910596163089e-17,0.8999999999999999 l 5.510910596163089e-17,0.8999999999999999 l 0.8999999999999999,0.0 l 5.510910596163089e-17,-0.8999999999999999 l 0.8999999999999999,0.0 l 5.510910596163089e-17,-0.8999999999999999 l -0.8999999999999999,-1.1021821192326178e-16 l 5.510910596163089e-17,-0.8999999999999999 l 0.8999999999999999,0.0 l 0.8999999999999999,0.0 l 5.510910596163089e-17,-0.8999999999999999 l -0.8999999999999999,-1.1021821192326178e-16 l 5.510910596163089e-17,-0.8999999999999999 l -0.8999999999999999,-1.1021821192326178e-16 l -1.6532731788489266e-16,0.8999999999999999 l -0.8999999999999999,-1.1021821192326178e-16 l 5.510910596163089e-17,-0.8999999999999999 l 5.510910596163089e-17,-0.8999999999999999 l -0.8999999999999999,-1.1021821192326178e-16 l -1.6532731788489266e-16,0.8999999999999999 l -0.8999999999999999,-1.1021821192326178e-16 l 5.510910596163089e-17,-0.8999999999999999 l -0.8999999999999999,-1.1021821192326178e-16 l 5.510910596163089e-17,-0.8999999999999999 l 0.8999999999999999,0.0 l 0.8999999999999999,0.0 l 5.510910596163089e-17,-0.8999999999999999 l -0.8999999999999999,-1.1021821192326178e-16 l 5.510910596163089e-17,-0.8999999999999999 l -0.8999999999999999,-1.1021821192326178e-16 l -1.6532731788489266e-16,0.8999999999999999 l -0.8999999999999999,-1.1021821192326178e-16 l 5.510910596163089e-17,-0.8999999999999999 l 5.510910596163089e-17,-0.8999999999999999 l -0.8999999999999999,-1.1021821192326178e-16 l -1.6532731788489266e-16,0.8999999999999999 l -0.8999999999999999,-1.1021821192326178e-16 l -1.6532731788489266e-16,0.8999999999999999 l 0.8999999999999999,2.2043642384652356e-16 l -1.6532731788489266e-16,0.8999999999999999 l -0.8999999999999999,-1.1021821192326178e-16 l -0.8999999999999999,-1.1021821192326178e-16 l -1.6532731788489266e-16,0.8999999999999999 l 0.8999999999999999,2.2043642384652356e-16 l -1.6532731788489266e-16,0.8999999999999999 l -0.8999999999999999,-1.1021821192326178e-16 l -1.6532731788489266e-16,0.8999999999999999 l -0.8999999999999999,-1.1021821192326178e-16 l 5.510910596163089e-17,-0.8999999999999999 l 5.510910596163089e-17,-0.8999999999999999 l -0.8999999999999999,-1.1021821192326178e-16 l -1.6532731788489266e-16,0.8999999999999999 l -0.8999999999999999,-1.1021821192326178e-16 l 5.510910596163089e-17,-0.8999999999999999 l -0.8999999999999999,-1.1021821192326178e-16 l 5.510910596163089e-17,-0.8999999999999999 l 0.8999999999999999,0.0 l 0.8999999999999999,0.0 l 5.510910596163089e-17,-0.8999999999999999 l -0.8999999999999999,-1.1021821192326178e-16 l 5.510910596163089e-17,-0.8999999999999999 l 5.510910596163089e-17,-0.8999999999999999 l -0.8999999999999999,-1.1021821192326178e-16 l 5.510910596163089e-17,-0.8999999999999999 l 0.8999999999999999,0.0 l 0.8999999999999999,0.0 l 5.510910596163089e-17,-0.8999999999999999 l -0.8999999999999999,-1.1021821192326178e-16 l 5.510910596163089e-17,-0.8999999999999999 l -0.8999999999999999,-1.1021821192326178e-16 l -1.6532731788489266e-16,0.8999999999999999 l -0.8999999999999999,-1.1021821192326178e-16 l 5.510910596163089e-17,-0.8999999999999999 l 5.510910596163089e-17,-0.8999999999999999 l -0.8999999999999999,-1.1021821192326178e-16 l -1.6532731788489266e-16,0.8999999999999999 l -0.8999999999999999,-1.1021821192326178e-16 l -1.6532731788489266e-16,0.8999999999999999 l 0.8999999999999999,2.2043642384652356e-16 l -1.6532731788489266e-16,0.8999999999999999 l -0.8999999999999999,-1.1021821192326178e-16 l -0.8999999999999999,-1.1021821192326178e-16 l -1.6532731788489266e-16,0.8999999999999999 l 0.8999999999999999,2.2043642384652356e-16 l -1.6532731788489266e-16,0.8999999999999999 l -0.8999999999999999,-1.1021821192326178e-16 l -1.6532731788489266e-16,0.8999999999999999 l -0.8999999999999999,-1.1021821192326178e-16 l 5.510910596163089e-17,-0.8999999999999999 l 5.510910596163089e-17,-0.8999999999999999 l -0.8999999999999999,-1.1021821192326178e-16 l -1.6532731788489266e-16,0.8999999999999999 l -0.8999999999999999,-1.1021821192326178e-16 l -1.6532731788489266e-16,0.8999999999999999 l 0.8999999999999999,2.2043642384652356e-16 l -1.6532731788489266e-16,0.8999999999999999 l -0.8999999999999999,-1.1021821192326178e-16 l -0.8999999999999999,-1.1021821192326178e-16 l -1.6532731788489266e-16,0.8999999999999999 l 0.8999999999999999,2.2043642384652356e-16 l -1.6532731788489266e-16,0.8999999999999999 l 0.8999999999999999,2.2043642384652356e-16 l 2.755455298081545e-16,-0.8999999999999999 l 0.8999999999999999,2.2043642384652356e-16 l -1.6532731788489266e-16,0.8999999999999999 l -1.6532731788489266e-16,0.8999999999999999 l 0.8999999999999999,2.2043642384652356e-16 l 2.755455298081545e-16,-0.8999999999999999 l 0.8999999999999999,2.2043642384652356e-16 l -1.6532731788489266e-16,0.8999999999999999 l 0.8999999999999999,2.2043642384652356e-16 l -1.6532731788489266e-16,0.8999999999999999 l -0.8999999999999999,-1.1021821192326178e-16 l -0.8999999999999999,-1.1021821192326178e-16 l -1.6532731788489266e-16,0.8999999999999999 l 0.8999999999999999,2.2043642384652356e-16 l -1.6532731788489266e-16,0.8999999999999999 l -0.8999999999999999,-1.1021821192326178e-16 l -1.6532731788489266e-16,0.8999999999999999 l -0.8999999999999999,-1.1021821192326178e-16 l 5.510910596163089e-17,-0.8999999999999999 l 5.510910596163089e-17,-0.8999999999999999 l -0.8999999999999999,-1.1021821192326178e-16 l -1.6532731788489266e-16,0.8999999999999999 l -0.8999999999999999,-1.1021821192326178e-16 l -0.8999999999999999,-1.1021821192326178e-16 l -1.6532731788489266e-16,0.8999999999999999 l -0.8999999999999999,-1.1021821192326178e-16 l 5.510910596163089e-17,-0.8999999999999999 l 5.510910596163089e-17,-0.8999999999999999 l -0.8999999999999999,-1.1021821192326178e-16 l -1.6532731788489266e-16,0.8999999999999999 l -0.8999999999999999,-1.1021821192326178e-16 l -1.6532731788489266e-16,0.8999999999999999 l 0.8999999999999999,2.2043642384652356e-16 l -1.6532731788489266e-16,0.8999999999999999 l -0.8999999999999999,-1.1021821192326178e-16 l -0.8999999999999999,-1.1021821192326178e-16 l -1.6532731788489266e-16,0.8999999999999999 l 0.8999999999999999,2.2043642384652356e-16 l -1.6532731788489266e-16,0.8999999999999999 l 0.8999999999999999,2.2043642384652356e-16 l 2.755455298081545e-16,-0.8999999999999999 l 0.8999999999999999,2.2043642384652356e-16 l -1.6532731788489266e-16,0.8999999999999999 l -1.6532731788489266e-16,0.8999999999999999 l 0.8999999999999999,2.2043642384652356e-16 l 2.755455298081545e-16,-0.8999999999999999 l 0.8999999999999999,2.2043642384652356e-16 l -1.6532731788489266e-16,0.8999999999999999 l 0.8999999999999999,2.2043642384652356e-16 l -1.6532731788489266e-16,0.8999999999999999 l -0.8999999999999999,-1.1021821192326178e-16 l -0.8999999999999999,-1.1021821192326178e-16 l -1.6532731788489266e-16,0.8999999999999999 l 0.8999999999999999,2.2043642384652356e-16 l -1.6532731788489266e-16,0.8999999999999999 l -0.8999999999999999,-1.1021821192326178e-16 l -1.6532731788489266e-16,0.8999999999999999 l -0.8999999999999999,-1.1021821192326178e-16 l 5.510910596163089e-17,-0.8999999999999999 l 5.510910596163089e-17,-0.8999999999999999 l -0.8999999999999999,-1.1021821192326178e-16 l -1.6532731788489266e-16,0.8999999999999999 l -0.8999999999999999,-1.1021821192326178e-16 l -1.6532731788489266e-16,0.8999999999999999 l 0.8999999999999999,2.2043642384652356e-16 l -1.6532731788489266e-16,0.8999999999999999 l -0.8999999999999999,-1.1021821192326178e-16 l -0.8999999999999999,-1.1021821192326178e-16 l -1.6532731788489266e-16,0.8999999999999999 l 0.8999999999999999,2.2043642384652356e-16 l -1.6532731788489266e-16,0.8999999999999999 l -0.8999999999999999,-1.1021821192326178e-16 l -1.6532731788489266e-16,0.8999999999999999 l -0.8999999999999999,-1.1021821192326178e-16 l 5.510910596163089e-17,-0.8999999999999999 l 5.510910596163089e-17,-0.8999999999999999 l -0.8999999999999999,-1.1021821192326178e-16 l -1.6532731788489266e-16,0.8999999999999999 l -0.8999999999999999,-1.1021821192326178e-16 l 5.510910596163089e-17,-0.8999999999999999 l -0.8999999999999999,-1.1021821192326178e-16 l 5.510910596163089e-17,-0.8999999999999999 l 0.8999999999999999,0.0 l 0.8999999999999999,0.0 l 5.510910596163089e-17,-0.8999999999999999 l -0.8999999999999999,-1.1021821192326178e-16 l 5.510910596163089e-17,-0.8999999999999999 l 5.510910596163089e-17,-0.8999999999999999 l -0.8999999999999999,-1.1021821192326178e-16 l 5.510910596163089e-17,-0.8999999999999999 l 0.8999999999999999,0.0 l 0.8999999999999999,0.0 l 5.510910596163089e-17,-0.8999999999999999 l -0.8999999999999999,-1.1021821192326178e-16 l 5.510910596163089e-17,-0.8999999999999999 l -0.8999999999999999,-1.1021821192326178e-16 l -1.6532731788489266e-16,0.8999999999999999 l -0.8999999999999999,-1.1021821192326178e-16 l 5.510910596163089e-17,-0.8999999999999999 l 5.510910596163089e-17,-0.8999999999999999 l -0.8999999999999999,-1.1021821192326178e-16 l -1.6532731788489266e-16,0.8999999999999999 l -0.8999999999999999,-1.1021821192326178e-16 l -1.6532731788489266e-16,0.8999999999999999 l 0.8999999999999999,2.2043642384652356e-16 l -1.6532731788489266e-16,0.8999999999999999 l -0.8999999999999999,-1.1021821192326178e-16 l -0.8999999999999999,-1.1021821192326178e-16 l -1.6532731788489266e-16,0.8999999999999999 l 0.8999999999999999,2.2043642384652356e-16 l -1.6532731788489266e-16,0.8999999999999999 l -0.8999999999999999,-1.1021821192326178e-16 l -1.6532731788489266e-16,0.8999999999999999 l -0.8999999999999999,-1.1021821192326178e-16 l 5.510910596163089e-17,-0.8999999999999999 l 5.510910596163089e-17,-0.8999999999999999 l -0.8999999999999999,-1.1021821192326178e-16 l -1.6532731788489266e-16,0.8999999999999999 l -0.8999999999999999,-1.1021821192326178e-16 l 5.510910596163089e-17,-0.8999999999999999 l -0.8999999999999999,-1.1021821192326178e-16 l 5.510910596163089e-17,-0.8999999999999999 l 0.8999999999999999,0.0 l 0.8999999999999999,0.0 l 5.510910596163089e-17,-0.8999999999999999 l -0.8999999999999999,-1.1021821192326178e-16 l 5.510910596163089e-17,-0.8999999999999999 l -0.8999999999999999,-1.1021821192326178e-16 l -1.6532731788489266e-16,0.8999999999999999 l -0.8999999999999999,-1.1021821192326178e-16 l 5.510910596163089e-17,-0.8999999999999999 l 5.510910596163089e-17,-0.8999999999999999 l -0.8999999999999999,-1.1021821192326178e-16 l -1.6532731788489266e-16,0.8999999999999999 l -0.8999999999999999,-1.1021821192326178e-16 l 5.510910596163089e-17,-0.8999999999999999 l -0.8999999999999999,-1.1021821192326178e-16 l 5.510910596163089e-17,-0.8999999999999999 l 0.8999999999999999,0.0 l 0.8999999999999999,0.0 l 5.510910596163089e-17,-0.8999999999999999 l -0.8999999999999999,-1.1021821192326178e-16 l 5.510910596163089e-17,-0.8999999999999999 l 0.8999999999999999,0.0 l 5.510910596163089e-17,-0.8999999999999999 l 0.8999999999999999,0.0 l 5.510910596163089e-17,0.8999999999999999 l 5.510910596163089e-17,0.8999999999999999 l 0.8999999999999999,0.0 l 5.510910596163089e-17,-0.8999999999999999 l 0.8999999999999999,0.0 l 0.8999999999999999,0.0 l 5.510910596163089e-17,-0.8999999999999999 l 0.8999999999999999,0.0 l 5.510910596163089e-17,0.8999999999999999 l 5.510910596163089e-17,0.8999999999999999 l 0.8999999999999999,0.0 l 5.510910596163089e-17,-0.8999999999999999 l 0.8999999999999999,0.0 l 5.510910596163089e-17,-0.8999999999999999 l -0.8999999999999999,-1.1021821192326178e-16 l 5.510910596163089e-17,-0.8999999999999999 l 0.8999999999999999,0.0 l 0.8999999999999999,0.0 l 5.510910596163089e-17,-0.8999999999999999 l -0.8999999999999999,-1.1021821192326178e-16 l 5.510910596163089e-17,-0.8999999999999999 l -0.8999999999999999,-1.1021821192326178e-16 l -1.6532731788489266e-16,0.8999999999999999 l -0.8999999999999999,-1.1021821192326178e-16 l 5.510910596163089e-17,-0.8999999999999999 l 5.510910596163089e-17,-0.8999999999999999 l -0.8999999999999999,-1.1021821192326178e-16 l -1.6532731788489266e-16,0.8999999999999999 l -0.8999999999999999,-1.1021821192326178e-16 l 5.510910596163089e-17,-0.8999999999999999 l -0.8999999999999999,-1.1021821192326178e-16 l 5.510910596163089e-17,-0.8999999999999999 l 0.8999999999999999,0.0 l 0.8999999999999999,0.0 l 5.510910596163089e-17,-0.8999999999999999 l -0.8999999999999999,-1.1021821192326178e-16 l 5.510910596163089e-17,-0.8999999999999999 l 5.510910596163089e-17,-0.8999999999999999 l -0.8999999999999999,-1.1021821192326178e-16 l 5.510910596163089e-17,-0.8999999999999999 l 0.8999999999999999,0.0 l 0.8999999999999999,0.0 l 5.510910596163089e-17,-0.8999999999999999 l -0.8999999999999999,-1.1021821192326178e-16 l 5.510910596163089e-17,-0.8999999999999999 l -0.8999999999999999,-1.1021821192326178e-16 l -1.6532731788489266e-16,0.8999999999999999 l -0.8999999999999999,-1.1021821192326178e-16 l 5.510910596163089e-17,-0.8999999999999999 l 5.510910596163089e-17,-0.8999999999999999 l -0.8999999999999999,-1.1021821192326178e-16 l -1.6532731788489266e-16,0.8999999999999999 l -0.8999999999999999,-1.1021821192326178e-16 l 5.510910596163089e-17,-0.8999999999999999 l -0.8999999999999999,-1.1021821192326178e-16 l 5.510910596163089e-17,-0.8999999999999999 l 0.8999999999999999,0.0 l 0.8999999999999999,0.0 l 5.510910596163089e-17,-0.8999999999999999 l -0.8999999999999999,-1.1021821192326178e-16 l 5.510910596163089e-17,-0.8999999999999999 l 0.8999999999999999,0.0 l 5.510910596163089e-17,-0.8999999999999999 l 0.8999999999999999,0.0 l 5.510910596163089e-17,0.8999999999999999 l 5.510910596163089e-17,0.8999999999999999 l 0.8999999999999999,0.0 l 5.510910596163089e-17,-0.8999999999999999 l 0.8999999999999999,0.0 l 0.8999999999999999,0.0 l 5.510910596163089e-17,-0.8999999999999999 l 0.8999999999999999,0.0 l 5.510910596163089e-17,0.8999999999999999 l 5.510910596163089e-17,0.8999999999999999 l 0.8999999999999999,0.0 l 5.510910596163089e-17,-0.8999999999999999 l 0.8999999999999999,0.0 l 5.510910596163089e-17,-0.8999999999999999 l -0.8999999999999999,-1.1021821192326178e-16 l 5.510910596163089e-17,-0.8999999999999999 l 0.8999999999999999,0.0 l 0.8999999999999999,0.0 l 5.510910596163089e-17,-0.8999999999999999 l -0.8999999999999999,-1.1021821192326178e-16 l 5.510910596163089e-17,-0.8999999999999999 l -0.8999999999999999,-1.1021821192326178e-16 l -1.6532731788489266e-16,0.8999999999999999 l -0.8999999999999999,-1.1021821192326178e-16 l 5.510910596163089e-17,-0.8999999999999999 l 5.510910596163089e-17,-0.8999999999999999 l -0.8999999999999999,-1.1021821192326178e-16 l -1.6532731788489266e-16,0.8999999999999999 l -0.8999999999999999,-1.1021821192326178e-16 l 5.510910596163089e-17,-0.8999999999999999 l -0.8999999999999999,-1.1021821192326178e-16 l 5.510910596163089e-17,-0.8999999999999999 l 0.8999999999999999,0.0 l 0.8999999999999999,0.0 l 5.510910596163089e-17,-0.8999999999999999 l -0.8999999999999999,-1.1021821192326178e-16 l 5.510910596163089e-17,-0.8999999999999999 l -0.8999999999999999,-1.1021821192326178e-16 l -1.6532731788489266e-16,0.8999999999999999 l -0.8999999999999999,-1.1021821192326178e-16 l 5.510910596163089e-17,-0.8999999999999999 l 5.510910596163089e-17,-0.8999999999999999 l -0.8999999999999999,-1.1021821192326178e-16 l -1.6532731788489266e-16,0.8999999999999999 l -0.8999999999999999,-1.1021821192326178e-16 l -1.6532731788489266e-16,0.8999999999999999 l 0.8999999999999999,2.2043642384652356e-16 l -1.6532731788489266e-16,0.8999999999999999 l -0.8999999999999999,-1.1021821192326178e-16 l -0.8999999999999999,-1.1021821192326178e-16 l -1.6532731788489266e-16,0.8999999999999999 l 0.8999999999999999,2.2043642384652356e-16 l -1.6532731788489266e-16,0.8999999999999999 l -0.8999999999999999,-1.1021821192326178e-16 l -1.6532731788489266e-16,0.8999999999999999 l -0.8999999999999999,-1.1021821192326178e-16 l 5.510910596163089e-17,-0.8999999999999999 l 5.510910596163089e-17,-0.8999999999999999 l -0.8999999999999999,-1.1021821192326178e-16 l -1.6532731788489266e-16,0.8999999999999999 l -0.8999999999999999,-1.1021821192326178e-16 l 5.510910596163089e-17,-0.8999999999999999 l -0.8999999999999999,-1.1021821192326178e-16 l 5.510910596163089e-17,-0.8999999999999999 l 0.8999999999999999,0.0 l 0.8999999999999999,0.0 l 5.510910596163089e-17,-0.8999999999999999 l -0.8999999999999999,-1.1021821192326178e-16 l 5.510910596163089e-17,-0.8999999999999999 l 5.510910596163089e-17,-0.8999999999999999 l -0.8999999999999999,-1.1021821192326178e-16 l 5.510910596163089e-17,-0.8999999999999999 l 0.8999999999999999,0.0 l 0.8999999999999999,0.0 l 5.510910596163089e-17,-0.8999999999999999 l -0.8999999999999999,-1.1021821192326178e-16 l 5.510910596163089e-17,-0.8999999999999999 l -0.8999999999999999,-1.1021821192326178e-16 l -1.6532731788489266e-16,0.8999999999999999 l -0.8999999999999999,-1.1021821192326178e-16 l 5.510910596163089e-17,-0.8999999999999999 l 5.510910596163089e-17,-0.8999999999999999 l -0.8999999999999999,-1.1021821192326178e-16 l -1.6532731788489266e-16,0.8999999999999999 l -0.8999999999999999,-1.1021821192326178e-16 l -1.6532731788489266e-16,0.8999999999999999 l 0.8999999999999999,2.2043642384652356e-16 l -1.6532731788489266e-16,0.8999999999999999 l -0.8999999999999999,-1.1021821192326178e-16 l -0.8999999999999999,-1.1021821192326178e-16 l -1.6532731788489266e-16,0.8999999999999999 l 0.8999999999999999,2.2043642384652356e-16 l -1.6532731788489266e-16,0.8999999999999999 l -0.8999999999999999,-1.1021821192326178e-16 l -1.6532731788489266e-16,0.8999999999999999 l -0.8999999999999999,-1.1021821192326178e-16 l 5.510910596163089e-17,-0.8999999999999999 l 5.510910596163089e-17,-0.8999999999999999 l -0.8999999999999999,-1.1021821192326178e-16 l -1.6532731788489266e-16,0.8999999999999999 l -0.8999999999999999,-1.1021821192326178e-16 l -1.6532731788489266e-16,0.8999999999999999 l 0.8999999999999999,2.2043642384652356e-16 l -1.6532731788489266e-16,0.8999999999999999 l -0.8999999999999999,-1.1021821192326178e-16 l -0.8999999999999999,-1.1021821192326178e-16 l -1.6532731788489266e-16,0.8999999999999999 l 0.8999999999999999,2.2043642384652356e-16 l -1.6532731788489266e-16,0.8999999999999999 l 0.8999999999999999,2.2043642384652356e-16 l 2.755455298081545e-16,-0.8999999999999999 l 0.8999999999999999,2.2043642384652356e-16 l -1.6532731788489266e-16,0.8999999999999999 l -1.6532731788489266e-16,0.8999999999999999 l 0.8999999999999999,2.2043642384652356e-16 l 2.755455298081545e-16,-0.8999999999999999 l 0.8999999999999999,2.2043642384652356e-16 l -1.6532731788489266e-16,0.8999999999999999 l 0.8999999999999999,2.2043642384652356e-16 l -1.6532731788489266e-16,0.8999999999999999 l -0.8999999999999999,-1.1021821192326178e-16 l -0.8999999999999999,-1.1021821192326178e-16 l -1.6532731788489266e-16,0.8999999999999999 l 0.8999999999999999,2.2043642384652356e-16 l -1.6532731788489266e-16,0.8999999999999999 l -0.8999999999999999,-1.1021821192326178e-16 l -1.6532731788489266e-16,0.8999999999999999 l -0.8999999999999999,-1.1021821192326178e-16 l 5.510910596163089e-17,-0.8999999999999999 l 5.510910596163089e-17,-0.8999999999999999 l -0.8999999999999999,-1.1021821192326178e-16 l -1.6532731788489266e-16,0.8999999999999999 l -0.8999999999999999,-1.1021821192326178e-16 l -0.8999999999999999,-1.1021821192326178e-16 l -1.6532731788489266e-16,0.8999999999999999 l -0.8999999999999999,-1.1021821192326178e-16 l 5.510910596163089e-17,-0.8999999999999999 l 5.510910596163089e-17,-0.8999999999999999 l -0.8999999999999999,-1.1021821192326178e-16 l -1.6532731788489266e-16,0.8999999999999999 l -0.8999999999999999,-1.1021821192326178e-16 l -1.6532731788489266e-16,0.8999999999999999 l 0.8999999999999999,2.2043642384652356e-16 l -1.6532731788489266e-16,0.8999999999999999 l -0.8999999999999999,-1.1021821192326178e-16 l -0.8999999999999999,-1.1021821192326178e-16 l -1.6532731788489266e-16,0.8999999999999999 l 0.8999999999999999,2.2043642384652356e-16 l -1.6532731788489266e-16,0.8999999999999999 l 0.8999999999999999,2.2043642384652356e-16 l 2.755455298081545e-16,-0.8999999999999999 l 0.8999999999999999,2.2043642384652356e-16 l -1.6532731788489266e-16,0.8999999999999999 l -1.6532731788489266e-16,0.8999999999999999 l 0.8999999999999999,2.2043642384652356e-16 l 2.755455298081545e-16,-0.8999999999999999 l 0.8999999999999999,2.2043642384652356e-16 l -1.6532731788489266e-16,0.8999999999999999 l 0.8999999999999999,2.2043642384652356e-16 l -1.6532731788489266e-16,0.8999999999999999 l -0.8999999999999999,-1.1021821192326178e-16 l -0.8999999999999999,-1.1021821192326178e-16 l -1.6532731788489266e-16,0.8999999999999999 l 0.8999999999999999,2.2043642384652356e-16 l -1.6532731788489266e-16,0.8999999999999999 l -0.8999999999999999,-1.1021821192326178e-16 l -1.6532731788489266e-16,0.8999999999999999 l -0.8999999999999999,-1.1021821192326178e-16 l 5.510910596163089e-17,-0.8999999999999999 l 5.510910596163089e-17,-0.8999999999999999 l -0.8999999999999999,-1.1021821192326178e-16 l -1.6532731788489266e-16,0.8999999999999999 l -0.8999999999999999,-1.1021821192326178e-16 l -1.6532731788489266e-16,0.8999999999999999 l 0.8999999999999999,2.2043642384652356e-16 l -1.6532731788489266e-16,0.8999999999999999 l -0.8999999999999999,-1.1021821192326178e-16 l -0.8999999999999999,-1.1021821192326178e-16 l -1.6532731788489266e-16,0.8999999999999999 l 0.8999999999999999,2.2043642384652356e-16 l -1.6532731788489266e-16,0.8999999999999999 l -0.8999999999999999,-1.1021821192326178e-16 l -1.6532731788489266e-16,0.8999999999999999 l -0.8999999999999999,-1.1021821192326178e-16 l 5.510910596163089e-17,-0.8999999999999999 l 5.510910596163089e-17,-0.8999999999999999 l -0.8999999999999999,-1.1021821192326178e-16 l -1.6532731788489266e-16,0.8999999999999999 l -0.8999999999999999,-1.1021821192326178e-16 l 5.510910596163089e-17,-0.8999999999999999 l -0.8999999999999999,-1.1021821192326178e-16 l 5.510910596163089e-17,-0.8999999999999999 l 0.8999999999999999,0.0 l 0.8999999999999999,0.0 l 5.510910596163089e-17,-0.8999999999999999 l -0.8999999999999999,-1.1021821192326178e-16 l 5.510910596163089e-17,-0.8999999999999999 l 5.510910596163089e-17,-0.8999999999999999 l -0.8999999999999999,-1.1021821192326178e-16 l 5.510910596163089e-17,-0.8999999999999999 l 0.8999999999999999,0.0 l 0.8999999999999999,0.0 l 5.510910596163089e-17,-0.8999999999999999 l -0.8999999999999999,-1.1021821192326178e-16 l 5.510910596163089e-17,-0.8999999999999999 l -0.8999999999999999,-1.1021821192326178e-16 l -1.6532731788489266e-16,0.8999999999999999 l -0.8999999999999999,-1.1021821192326178e-16 l 5.510910596163089e-17,-0.8999999999999999 l 5.510910596163089e-17,-0.8999999999999999 l -0.8999999999999999,-1.1021821192326178e-16 l -1.6532731788489266e-16,0.8999999999999999 l -0.8999999999999999,-1.1021821192326178e-16 l -1.6532731788489266e-16,0.8999999999999999 l 0.8999999999999999,2.2043642384652356e-16 l -1.6532731788489266e-16,0.8999999999999999 l -0.8999999999999999,-1.1021821192326178e-16 l -0.8999999999999999,-1.1021821192326178e-16 l -1.6532731788489266e-16,0.8999999999999999 l 0.8999999999999999,2.2043642384652356e-16 l -1.6532731788489266e-16,0.8999999999999999 l -0.8999999999999999,-1.1021821192326178e-16 l -1.6532731788489266e-16,0.8999999999999999 l -0.8999999999999999,-1.1021821192326178e-16 l 5.510910596163089e-17,-0.8999999999999999 l 5.510910596163089e-17,-0.8999999999999999 l -0.8999999999999999,-1.1021821192326178e-16 l -1.6532731788489266e-16,0.8999999999999999 l -0.8999999999999999,-1.1021821192326178e-16 l -1.6532731788489266e-16,0.8999999999999999 l 0.8999999999999999,2.2043642384652356e-16 l -1.6532731788489266e-16,0.8999999999999999 l -0.8999999999999999,-1.1021821192326178e-16 l -0.8999999999999999,-1.1021821192326178e-16 l -1.6532731788489266e-16,0.8999999999999999 l 0.8999999999999999,2.2043642384652356e-16 l -1.6532731788489266e-16,0.8999999999999999 l 0.8999999999999999,2.2043642384652356e-16 l 2.755455298081545e-16,-0.8999999999999999 l 0.8999999999999999,2.2043642384652356e-16 l -1.6532731788489266e-16,0.8999999999999999 l -1.6532731788489266e-16,0.8999999999999999 l 0.8999999999999999,2.2043642384652356e-16 l 2.755455298081545e-16,-0.8999999999999999 l 0.8999999999999999,2.2043642384652356e-16 l -1.6532731788489266e-16,0.8999999999999999 l 0.8999999999999999,2.2043642384652356e-16 l -1.6532731788489266e-16,0.8999999999999999 l -0.8999999999999999,-1.1021821192326178e-16 l -0.8999999999999999,-1.1021821192326178e-16 l -1.6532731788489266e-16,0.8999999999999999 l 0.8999999999999999,2.2043642384652356e-16 l -1.6532731788489266e-16,0.8999999999999999 l -0.8999999999999999,-1.1021821192326178e-16 l -1.6532731788489266e-16,0.8999999999999999 l -0.8999999999999999,-1.1021821192326178e-16 l 5.510910596163089e-17,-0.8999999999999999 l 5.510910596163089e-17,-0.8999999999999999 l -0.8999999999999999,-1.1021821192326178e-16 l -1.6532731788489266e-16,0.8999999999999999 l -0.8999999999999999,-1.1021821192326178e-16 l -0.8999999999999999,-1.1021821192326178e-16 l -1.6532731788489266e-16,0.8999999999999999 l -0.8999999999999999,-1.1021821192326178e-16 l 5.510910596163089e-17,-0.8999999999999999 l 5.510910596163089e-17,-0.8999999999999999 l -0.8999999999999999,-1.1021821192326178e-16 l -1.6532731788489266e-16,0.8999999999999999 l -0.8999999999999999,-1.1021821192326178e-16 l -1.6532731788489266e-16,0.8999999999999999 l 0.8999999999999999,2.2043642384652356e-16 l -1.6532731788489266e-16,0.8999999999999999 l -0.8999999999999999,-1.1021821192326178e-16 l -0.8999999999999999,-1.1021821192326178e-16 l -1.6532731788489266e-16,0.8999999999999999 l 0.8999999999999999,2.2043642384652356e-16 l -1.6532731788489266e-16,0.8999999999999999 l 0.8999999999999999,2.2043642384652356e-16 l 2.755455298081545e-16,-0.8999999999999999 l 0.8999999999999999,2.2043642384652356e-16 l -1.6532731788489266e-16,0.8999999999999999 l -1.6532731788489266e-16,0.8999999999999999 l 0.8999999999999999,2.2043642384652356e-16 l 2.755455298081545e-16,-0.8999999999999999 l 0.8999999999999999,2.2043642384652356e-16 l -1.6532731788489266e-16,0.8999999999999999 l 0.8999999999999999,2.2043642384652356e-16 l -1.6532731788489266e-16,0.8999999999999999 l -0.8999999999999999,-1.1021821192326178e-16 l -0.8999999999999999,-1.1021821192326178e-16 l -1.6532731788489266e-16,0.8999999999999999 l 0.8999999999999999,2.2043642384652356e-16 l -1.6532731788489266e-16,0.8999999999999999 l 0.8999999999999999,2.2043642384652356e-16 l 2.755455298081545e-16,-0.8999999999999999 l 0.8999999999999999,2.2043642384652356e-16 l -1.6532731788489266e-16,0.8999999999999999 l -1.6532731788489266e-16,0.8999999999999999 l 0.8999999999999999,2.2043642384652356e-16 l 2.755455298081545e-16,-0.8999999999999999 l 0.8999999999999999,2.2043642384652356e-16 l 2.755455298081545e-16,-0.8999999999999999 l -0.8999999999999999,-3.306546357697853e-16 l 2.755455298081545e-16,-0.8999999999999999 l 0.8999999999999999,2.2043642384652356e-16 l 0.8999999999999999,2.2043642384652356e-16 l 2.755455298081545e-16,-0.8999999999999999 l -0.8999999999999999,-3.306546357697853e-16 l 2.755455298081545e-16,-0.8999999999999999 l 0.8999999999999999,2.2043642384652356e-16 l 2.755455298081545e-16,-0.8999999999999999 l 0.8999999999999999,2.2043642384652356e-16 l -1.6532731788489266e-16,0.8999999999999999 l -1.6532731788489266e-16,0.8999999999999999 l 0.8999999999999999,2.2043642384652356e-16 l 2.755455298081545e-16,-0.8999999999999999 l 0.8999999999999999,2.2043642384652356e-16 l -1.6532731788489266e-16,0.8999999999999999 l 0.8999999999999999,2.2043642384652356e-16 l -1.6532731788489266e-16,0.8999999999999999 l -0.8999999999999999,-1.1021821192326178e-16 l -0.8999999999999999,-1.1021821192326178e-16 l -1.6532731788489266e-16,0.8999999999999999 l 0.8999999999999999,2.2043642384652356e-16 l -1.6532731788489266e-16,0.8999999999999999 l -1.6532731788489266e-16,0.8999999999999999 l 0.8999999999999999,2.2043642384652356e-16 l -1.6532731788489266e-16,0.8999999999999999 l -0.8999999999999999,-1.1021821192326178e-16 l -0.8999999999999999,-1.1021821192326178e-16 l -1.6532731788489266e-16,0.8999999999999999 l 0.8999999999999999,2.2043642384652356e-16 l -1.6532731788489266e-16,0.8999999999999999 l 0.8999999999999999,2.2043642384652356e-16 l 2.755455298081545e-16,-0.8999999999999999 l 0.8999999999999999,2.2043642384652356e-16 l -1.6532731788489266e-16,0.8999999999999999 l -1.6532731788489266e-16,0.8999999999999999 l 0.8999999999999999,2.2043642384652356e-16 l 2.755455298081545e-16,-0.8999999999999999 l 0.8999999999999999,2.2043642384652356e-16 l 2.755455298081545e-16,-0.8999999999999999 l -0.8999999999999999,-3.306546357697853e-16 l 2.755455298081545e-16,-0.8999999999999999 l 0.8999999999999999,2.2043642384652356e-16 l 0.8999999999999999,2.2043642384652356e-16 l 2.755455298081545e-16,-0.8999999999999999 l -0.8999999999999999,-3.306546357697853e-16 l 2.755455298081545e-16,-0.8999999999999999 l 0.8999999999999999,2.2043642384652356e-16 l 2.755455298081545e-16,-0.8999999999999999 l 0.8999999999999999,2.2043642384652356e-16 l -1.6532731788489266e-16,0.8999999999999999 l -1.6532731788489266e-16,0.8999999999999999 l 0.8999999999999999,2.2043642384652356e-16 l 2.755455298081545e-16,-0.8999999999999999 l 0.8999999999999999,2.2043642384652356e-16 l -1.6532731788489266e-16,0.8999999999999999 l 0.8999999999999999,2.2043642384652356e-16 l -1.6532731788489266e-16,0.8999999999999999 l -0.8999999999999999,-1.1021821192326178e-16 l -0.8999999999999999,-1.1021821192326178e-16 l -1.6532731788489266e-16,0.8999999999999999 l 0.8999999999999999,2.2043642384652356e-16 l -1.6532731788489266e-16,0.8999999999999999 l 0.8999999999999999,2.2043642384652356e-16 l 2.755455298081545e-16,-0.8999999999999999 l 0.8999999999999999,2.2043642384652356e-16 l -1.6532731788489266e-16,0.8999999999999999 l -1.6532731788489266e-16,0.8999999999999999 l 0.8999999999999999,2.2043642384652356e-16 l 2.755455298081545e-16,-0.8999999999999999 l 0.8999999999999999,2.2043642384652356e-16 l -1.6532731788489266e-16,0.8999999999999999 l 0.8999999999999999,2.2043642384652356e-16 l -1.6532731788489266e-16,0.8999999999999999 l -0.8999999999999999,-1.1021821192326178e-16 l -0.8999999999999999,-1.1021821192326178e-16 l -1.6532731788489266e-16,0.8999999999999999 l 0.8999999999999999,2.2043642384652356e-16 l -1.6532731788489266e-16,0.8999999999999999 l -0.8999999999999999,-1.1021821192326178e-16 l -1.6532731788489266e-16,0.8999999999999999 l -0.8999999999999999,-1.1021821192326178e-16 l 5.510910596163089e-17,-0.8999999999999999 l 5.510910596163089e-17,-0.8999999999999999 l -0.8999999999999999,-1.1021821192326178e-16 l -1.6532731788489266e-16,0.8999999999999999 l -0.8999999999999999,-1.1021821192326178e-16 l -0.8999999999999999,-1.1021821192326178e-16 l -1.6532731788489266e-16,0.8999999999999999 l -0.8999999999999999,-1.1021821192326178e-16 l 5.510910596163089e-17,-0.8999999999999999 l 5.510910596163089e-17,-0.8999999999999999 l -0.8999999999999999,-1.1021821192326178e-16 l -1.6532731788489266e-16,0.8999999999999999 l -0.8999999999999999,-1.1021821192326178e-16 l -1.6532731788489266e-16,0.8999999999999999 l 0.8999999999999999,2.2043642384652356e-16 l -1.6532731788489266e-16,0.8999999999999999 l -0.8999999999999999,-1.1021821192326178e-16 l -0.8999999999999999,-1.1021821192326178e-16 l -1.6532731788489266e-16,0.8999999999999999 l 0.8999999999999999,2.2043642384652356e-16 l -1.6532731788489266e-16,0.8999999999999999 l 0.8999999999999999,2.2043642384652356e-16 l 2.755455298081545e-16,-0.8999999999999999 l 0.8999999999999999,2.2043642384652356e-16 l -1.6532731788489266e-16,0.8999999999999999 l -1.6532731788489266e-16,0.8999999999999999 l 0.8999999999999999,2.2043642384652356e-16 l 2.755455298081545e-16,-0.8999999999999999 l 0.8999999999999999,2.2043642384652356e-16 l -1.6532731788489266e-16,0.8999999999999999 l 0.8999999999999999,2.2043642384652356e-16 l -1.6532731788489266e-16,0.8999999999999999 l -0.8999999999999999,-1.1021821192326178e-16 l -0.8999999999999999,-1.1021821192326178e-16 l -1.6532731788489266e-16,0.8999999999999999 l 0.8999999999999999,2.2043642384652356e-16 l -1.6532731788489266e-16,0.8999999999999999 l -0.8999999999999999,-1.1021821192326178e-16 l -1.6532731788489266e-16,0.8999999999999999 l -0.8999999999999999,-1.1021821192326178e-16 l 5.510910596163089e-17,-0.8999999999999999 l 5.510910596163089e-17,-0.8999999999999999 l -0.8999999999999999,-1.1021821192326178e-16 l -1.6532731788489266e-16,0.8999999999999999 l -0.8999999999999999,-1.1021821192326178e-16 l -1.6532731788489266e-16,0.8999999999999999 l 0.8999999999999999,2.2043642384652356e-16 l -1.6532731788489266e-16,0.8999999999999999 l -0.8999999999999999,-1.1021821192326178e-16 l -0.8999999999999999,-1.1021821192326178e-16 l -1.6532731788489266e-16,0.8999999999999999 l 0.8999999999999999,2.2043642384652356e-16 l -1.6532731788489266e-16,0.8999999999999999 l -0.8999999999999999,-1.1021821192326178e-16 l -1.6532731788489266e-16,0.8999999999999999 l -0.8999999999999999,-1.1021821192326178e-16 l 5.510910596163089e-17,-0.8999999999999999 l 5.510910596163089e-17,-0.8999999999999999 l -0.8999999999999999,-1.1021821192326178e-16 l -1.6532731788489266e-16,0.8999999999999999 l -0.8999999999999999,-1.1021821192326178e-16 l 5.510910596163089e-17,-0.8999999999999999 l -0.8999999999999999,-1.1021821192326178e-16 l 5.510910596163089e-17,-0.8999999999999999 l 0.8999999999999999,0.0 l 0.8999999999999999,0.0 l 5.510910596163089e-17,-0.8999999999999999 l -0.8999999999999999,-1.1021821192326178e-16 l 5.510910596163089e-17,-0.8999999999999999 l 5.510910596163089e-17,-0.8999999999999999 l -0.8999999999999999,-1.1021821192326178e-16 l 5.510910596163089e-17,-0.8999999999999999 l 0.8999999999999999,0.0 l 0.8999999999999999,0.0 l 5.510910596163089e-17,-0.8999999999999999 l -0.8999999999999999,-1.1021821192326178e-16 l 5.510910596163089e-17,-0.8999999999999999 l -0.8999999999999999,-1.1021821192326178e-16 l -1.6532731788489266e-16,0.8999999999999999 l -0.8999999999999999,-1.1021821192326178e-16 l 5.510910596163089e-17,-0.8999999999999999 l 5.510910596163089e-17,-0.8999999999999999 l -0.8999999999999999,-1.1021821192326178e-16 l -1.6532731788489266e-16,0.8999999999999999 l -0.8999999999999999,-1.1021821192326178e-16 l -1.6532731788489266e-16,0.8999999999999999 l 0.8999999999999999,2.2043642384652356e-16 l -1.6532731788489266e-16,0.8999999999999999 l -0.8999999999999999,-1.1021821192326178e-16 l -0.8999999999999999,-1.1021821192326178e-16 l -1.6532731788489266e-16,0.8999999999999999 l 0.8999999999999999,2.2043642384652356e-16 l -1.6532731788489266e-16,0.8999999999999999 l -0.8999999999999999,-1.1021821192326178e-16 l -1.6532731788489266e-16,0.8999999999999999 l -0.8999999999999999,-1.1021821192326178e-16 l 5.510910596163089e-17,-0.8999999999999999 l 5.510910596163089e-17,-0.8999999999999999 l -0.8999999999999999,-1.1021821192326178e-16 l -1.6532731788489266e-16,0.8999999999999999 l -0.8999999999999999,-1.1021821192326178e-16 l -0.8999999999999999,-1.1021821192326178e-16 l -1.6532731788489266e-16,0.8999999999999999 l -0.8999999999999999,-1.1021821192326178e-16 l 5.510910596163089e-17,-0.8999999999999999 l 5.510910596163089e-17,-0.8999999999999999 l -0.8999999999999999,-1.1021821192326178e-16 l -1.6532731788489266e-16,0.8999999999999999 l -0.8999999999999999,-1.1021821192326178e-16 l -1.6532731788489266e-16,0.8999999999999999 l 0.8999999999999999,2.2043642384652356e-16 l -1.6532731788489266e-16,0.8999999999999999 l -0.8999999999999999,-1.1021821192326178e-16 l -0.8999999999999999,-1.1021821192326178e-16 l -1.6532731788489266e-16,0.8999999999999999 l 0.8999999999999999,2.2043642384652356e-16 l -1.6532731788489266e-16,0.8999999999999999 l -0.8999999999999999,-1.1021821192326178e-16 l -1.6532731788489266e-16,0.8999999999999999 l -0.8999999999999999,-1.1021821192326178e-16 l 5.510910596163089e-17,-0.8999999999999999 l 5.510910596163089e-17,-0.8999999999999999 l -0.8999999999999999,-1.1021821192326178e-16 l -1.6532731788489266e-16,0.8999999999999999 l -0.8999999999999999,-1.1021821192326178e-16 l 5.510910596163089e-17,-0.8999999999999999 l -0.8999999999999999,-1.1021821192326178e-16 l 5.510910596163089e-17,-0.8999999999999999 l 0.8999999999999999,0.0 l 0.8999999999999999,0.0 l 5.510910596163089e-17,-0.8999999999999999 l -0.8999999999999999,-1.1021821192326178e-16 l 5.510910596163089e-17,-0.8999999999999999 l 5.510910596163089e-17,-0.8999999999999999 l -0.8999999999999999,-1.1021821192326178e-16 l 5.510910596163089e-17,-0.8999999999999999 l 0.8999999999999999,0.0 l 0.8999999999999999,0.0 l 5.510910596163089e-17,-0.8999999999999999 l -0.8999999999999999,-1.1021821192326178e-16 l 5.510910596163089e-17,-0.8999999999999999 l -0.8999999999999999,-1.1021821192326178e-16 l -1.6532731788489266e-16,0.8999999999999999 l -0.8999999999999999,-1.1021821192326178e-16 l 5.510910596163089e-17,-0.8999999999999999 l 5.510910596163089e-17,-0.8999999999999999 l -0.8999999999999999,-1.1021821192326178e-16 l -1.6532731788489266e-16,0.8999999999999999 l -0.8999999999999999,-1.1021821192326178e-16 l -1.6532731788489266e-16,0.8999999999999999 l 0.8999999999999999,2.2043642384652356e-16 l -1.6532731788489266e-16,0.8999999999999999 l -0.8999999999999999,-1.1021821192326178e-16 l -0.8999999999999999,-1.1021821192326178e-16 l -1.6532731788489266e-16,0.8999999999999999 l 0.8999999999999999,2.2043642384652356e-16 l -1.6532731788489266e-16,0.8999999999999999 l -0.8999999999999999,-1.1021821192326178e-16 l -1.6532731788489266e-16,0.8999999999999999 l -0.8999999999999999,-1.1021821192326178e-16 l 5.510910596163089e-17,-0.8999999999999999 l 5.510910596163089e-17,-0.8999999999999999 l -0.8999999999999999,-1.1021821192326178e-16 l -1.6532731788489266e-16,0.8999999999999999 l -0.8999999999999999,-1.1021821192326178e-16 l -1.6532731788489266e-16,0.8999999999999999 l 0.8999999999999999,2.2043642384652356e-16 l -1.6532731788489266e-16,0.8999999999999999 l -0.8999999999999999,-1.1021821192326178e-16 l -0.8999999999999999,-1.1021821192326178e-16 l -1.6532731788489266e-16,0.8999999999999999 l 0.8999999999999999,2.2043642384652356e-16 l -1.6532731788489266e-16,0.8999999999999999 l 0.8999999999999999,2.2043642384652356e-16 l 2.755455298081545e-16,-0.8999999999999999 l 0.8999999999999999,2.2043642384652356e-16 l -1.6532731788489266e-16,0.8999999999999999 l -1.6532731788489266e-16,0.8999999999999999 l 0.8999999999999999,2.2043642384652356e-16 l 2.755455298081545e-16,-0.8999999999999999 l 0.8999999999999999,2.2043642384652356e-16 l -1.6532731788489266e-16,0.8999999999999999 l 0.8999999999999999,2.2043642384652356e-16 l -1.6532731788489266e-16,0.8999999999999999 l -0.8999999999999999,-1.1021821192326178e-16 l -0.8999999999999999,-1.1021821192326178e-16 l -1.6532731788489266e-16,0.8999999999999999 l 0.8999999999999999,2.2043642384652356e-16 l -1.6532731788489266e-16,0.8999999999999999 l -0.8999999999999999,-1.1021821192326178e-16 l -1.6532731788489266e-16,0.8999999999999999 l -0.8999999999999999,-1.1021821192326178e-16 l 5.510910596163089e-17,-0.8999999999999999 l 5.510910596163089e-17,-0.8999999999999999 l -0.8999999999999999,-1.1021821192326178e-16 l -1.6532731788489266e-16,0.8999999999999999 l -0.8999999999999999,-1.1021821192326178e-16 l -0.8999999999999999,-1.1021821192326178e-16 l -1.6532731788489266e-16,0.8999999999999999 l -0.8999999999999999,-1.1021821192326178e-16 l 5.510910596163089e-17,-0.8999999999999999 l 5.510910596163089e-17,-0.8999999999999999 l -0.8999999999999999,-1.1021821192326178e-16 l -1.6532731788489266e-16,0.8999999999999999 l -0.8999999999999999,-1.1021821192326178e-16 l -1.6532731788489266e-16,0.8999999999999999 l 0.8999999999999999,2.2043642384652356e-16 l -1.6532731788489266e-16,0.8999999999999999 l -0.8999999999999999,-1.1021821192326178e-16 l -0.8999999999999999,-1.1021821192326178e-16 l -1.6532731788489266e-16,0.8999999999999999 l 0.8999999999999999,2.2043642384652356e-16 l -1.6532731788489266e-16,0.8999999999999999 l 0.8999999999999999,2.2043642384652356e-16 l 2.755455298081545e-16,-0.8999999999999999 l 0.8999999999999999,2.2043642384652356e-16 l -1.6532731788489266e-16,0.8999999999999999 l -1.6532731788489266e-16,0.8999999999999999 l 0.8999999999999999,2.2043642384652356e-16 l 2.755455298081545e-16,-0.8999999999999999 l 0.8999999999999999,2.2043642384652356e-16 l -1.6532731788489266e-16,0.8999999999999999 l 0.8999999999999999,2.2043642384652356e-16 l -1.6532731788489266e-16,0.8999999999999999 l -0.8999999999999999,-1.1021821192326178e-16 l -0.8999999999999999,-1.1021821192326178e-16 l -1.6532731788489266e-16,0.8999999999999999 l 0.8999999999999999,2.2043642384652356e-16 l -1.6532731788489266e-16,0.8999999999999999 l 0.8999999999999999,2.2043642384652356e-16 l 2.755455298081545e-16,-0.8999999999999999 l 0.8999999999999999,2.2043642384652356e-16 l -1.6532731788489266e-16,0.8999999999999999 l -1.6532731788489266e-16,0.8999999999999999 l 0.8999999999999999,2.2043642384652356e-16 l 2.755455298081545e-16,-0.8999999999999999 l 0.8999999999999999,2.2043642384652356e-16 l 2.755455298081545e-16,-0.8999999999999999 l -0.8999999999999999,-3.306546357697853e-16 l 2.755455298081545e-16,-0.8999999999999999 l 0.8999999999999999,2.2043642384652356e-16 l 0.8999999999999999,2.2043642384652356e-16 l 2.755455298081545e-16,-0.8999999999999999 l -0.8999999999999999,-3.306546357697853e-16 l 2.755455298081545e-16,-0.8999999999999999 l 0.8999999999999999,2.2043642384652356e-16 l 2.755455298081545e-16,-0.8999999999999999 l 0.8999999999999999,2.2043642384652356e-16 l -1.6532731788489266e-16,0.8999999999999999 l -1.6532731788489266e-16,0.8999999999999999 l 0.8999999999999999,2.2043642384652356e-16 l 2.755455298081545e-16,-0.8999999999999999 l 0.8999999999999999,2.2043642384652356e-16 l -1.6532731788489266e-16,0.8999999999999999 l 0.8999999999999999,2.2043642384652356e-16 l -1.6532731788489266e-16,0.8999999999999999 l -0.8999999999999999,-1.1021821192326178e-16 l -0.8999999999999999,-1.1021821192326178e-16 l -1.6532731788489266e-16,0.8999999999999999 l 0.8999999999999999,2.2043642384652356e-16 l -1.6532731788489266e-16,0.8999999999999999 l -1.6532731788489266e-16,0.8999999999999999 l 0.8999999999999999,2.2043642384652356e-16 l -1.6532731788489266e-16,0.8999999999999999 l -0.8999999999999999,-1.1021821192326178e-16 l -0.8999999999999999,-1.1021821192326178e-16 l -1.6532731788489266e-16,0.8999999999999999 l 0.8999999999999999,2.2043642384652356e-16 l -1.6532731788489266e-16,0.8999999999999999 l 0.8999999999999999,2.2043642384652356e-16 l 2.755455298081545e-16,-0.8999999999999999 l 0.8999999999999999,2.2043642384652356e-16 l -1.6532731788489266e-16,0.8999999999999999 l -1.6532731788489266e-16,0.8999999999999999 l 0.8999999999999999,2.2043642384652356e-16 l 2.755455298081545e-16,-0.8999999999999999 l 0.8999999999999999,2.2043642384652356e-16 l 2.755455298081545e-16,-0.8999999999999999 l -0.8999999999999999,-3.306546357697853e-16 l 2.755455298081545e-16,-0.8999999999999999 l 0.8999999999999999,2.2043642384652356e-16 l 0.8999999999999999,2.2043642384652356e-16 l 2.755455298081545e-16,-0.8999999999999999 l -0.8999999999999999,-3.306546357697853e-16 l 2.755455298081545e-16,-0.8999999999999999 l 0.8999999999999999,2.2043642384652356e-16 l 2.755455298081545e-16,-0.8999999999999999 l 0.8999999999999999,2.2043642384652356e-16 l -1.6532731788489266e-16,0.8999999999999999 l -1.6532731788489266e-16,0.8999999999999999 l 0.8999999999999999,2.2043642384652356e-16 l 2.755455298081545e-16,-0.8999999999999999 l 0.8999999999999999,2.2043642384652356e-16 l -1.6532731788489266e-16,0.8999999999999999 l 0.8999999999999999,2.2043642384652356e-16 l -1.6532731788489266e-16,0.8999999999999999 l -0.8999999999999999,-1.1021821192326178e-16 l -0.8999999999999999,-1.1021821192326178e-16 l -1.6532731788489266e-16,0.8999999999999999 l 0.8999999999999999,2.2043642384652356e-16 l -1.6532731788489266e-16,0.8999999999999999 l 0.8999999999999999,2.2043642384652356e-16 l 2.755455298081545e-16,-0.8999999999999999 l 0.8999999999999999,2.2043642384652356e-16 l -1.6532731788489266e-16,0.8999999999999999 l -1.6532731788489266e-16,0.8999999999999999 l 0.8999999999999999,2.2043642384652356e-16 l 2.755455298081545e-16,-0.8999999999999999 l 0.8999999999999999,2.2043642384652356e-16 l -1.6532731788489266e-16,0.8999999999999999 l 0.8999999999999999,2.2043642384652356e-16 l -1.6532731788489266e-16,0.8999999999999999 l -0.8999999999999999,-1.1021821192326178e-16 l -0.8999999999999999,-1.1021821192326178e-16 l -1.6532731788489266e-16,0.8999999999999999 l 0.8999999999999999,2.2043642384652356e-16 l -1.6532731788489266e-16,0.8999999999999999 l -0.8999999999999999,-1.1021821192326178e-16 l -1.6532731788489266e-16,0.8999999999999999 l -0.8999999999999999,-1.1021821192326178e-16 l 5.510910596163089e-17,-0.8999999999999999 l 5.510910596163089e-17,-0.8999999999999999 l -0.8999999999999999,-1.1021821192326178e-16 l -1.6532731788489266e-16,0.8999999999999999 l -0.8999999999999999,-1.1021821192326178e-16 l -0.8999999999999999,-1.1021821192326178e-16 l -1.6532731788489266e-16,0.8999999999999999 l -0.8999999999999999,-1.1021821192326178e-16 l 5.510910596163089e-17,-0.8999999999999999 l 5.510910596163089e-17,-0.8999999999999999 l -0.8999999999999999,-1.1021821192326178e-16 l -1.6532731788489266e-16,0.8999999999999999 l -0.8999999999999999,-1.1021821192326178e-16 l -1.6532731788489266e-16,0.8999999999999999 l 0.8999999999999999,2.2043642384652356e-16 l -1.6532731788489266e-16,0.8999999999999999 l -0.8999999999999999,-1.1021821192326178e-16 l -0.8999999999999999,-1.1021821192326178e-16 l -1.6532731788489266e-16,0.8999999999999999 l 0.8999999999999999,2.2043642384652356e-16 l -1.6532731788489266e-16,0.8999999999999999 l 0.8999999999999999,2.2043642384652356e-16 l 2.755455298081545e-16,-0.8999999999999999 l 0.8999999999999999,2.2043642384652356e-16 l -1.6532731788489266e-16,0.8999999999999999 l -1.6532731788489266e-16,0.8999999999999999 l 0.8999999999999999,2.2043642384652356e-16 l 2.755455298081545e-16,-0.8999999999999999 l 0.8999999999999999,2.2043642384652356e-16 l -1.6532731788489266e-16,0.8999999999999999 l 0.8999999999999999,2.2043642384652356e-16 l -1.6532731788489266e-16,0.8999999999999999 l -0.8999999999999999,-1.1021821192326178e-16 l -0.8999999999999999,-1.1021821192326178e-16 l -1.6532731788489266e-16,0.8999999999999999 l 0.8999999999999999,2.2043642384652356e-16 l -1.6532731788489266e-16,0.8999999999999999 " style="stroke:#50514F;stroke-width:0.2;fill:none" /></g></svg>