<?xml version="1.0" encoding="UTF-8"?>
<!DOCTYPE svg PUBLIC "-//W3C//DTD SVG 1.1//EN"
    "http://www.w3.org/Graphics/SVG/1.1/DTD/svg11.dtd">
<svg xmlns="http://www.w3.org/2000/svg" xmlns:xlink="http://www.w3.org/1999/xlink" version="1.1" width="500.0" height="500" viewBox="-31.6 -95.6 127.19999999999999 127.19999999999999"><g><rect x="-31.6" y="-95.6" width="127.19999999999999" height="127.19999999999999" fill="#CBD4C2" /><path d="M 0,0 l 6.123233995736766e-17,-1.0 l 1.0,0.0 l 6.123233995736766e-17,-1.0 l -1.0,-1.2246467991473532e-16 l -1.0,-1.2246467991473532e-16 l 6.123233995736766e-17,-1.0 l 1.0,0.0 l 6.123233995736766e-17,-1.0 l 1.0,0.0 l 6.123233995736766e-17,1.0 l 1.0,0.0 l 6.123233995736766e-17,-1.0 l 6.123233995736766e-17,-1.0 l 1.0,0.0 l 6.123233995736766e-17,1.0 l 1.0,0.0 l 6.123233995736766e-17,-1.0 l 1.0,0.0 l 6.123233995736766e-17,-1.0 l -1.0,-1.2246467991473532e-16 l -1.0,-1.2246467991473532e-16 l 6.123233995736766e-17,-1.0 l 1.0,0.0 l 6.123233995736766e-17,-1.0 l -1.0,-1.2246467991473532e-16 l 6.123233995736766e-17,-1.0 l -1.0,-1.2246467991473532e-16 l -1.8369701987210297e-16,1.0 l -1.8369701987210297e-16,1.0 l -1.0,-1.224646799147353e-16 l 6.123233995736764e-17,-1.0 l -1.0,-1.224646799147353e-16 l -1.0,-1.224646799147353e-16 l 6.123233995736764e-17,-1.0 l -1.0,-1.224646799147353e-16 l -1.8369701987210297e-16,1.0 l -1.8369701987210297e-16,1.0 l -1.0,-1.224646799147353e-16 l 6.123233995736764e-17,-1.0 l -1.0,-1.224646799147353e-16 l 6.123233995736764e-17,-1.0 l 1.0,-2.465190328815662e-32 l 6.123233995736764e-17,-1.0 l -1.0,-1.224646799147353e-16 l -1.0,-1.224646799147353e-16 l 6.123233995736764e-17,-1.0 l 1.0,-2.465190328815662e-32 l 6.123233995736764e-17,-1.0 l 1.0,-2.465190328815662e-32 l 6.123233995736769e-17,1.0 l 1.0,-2.465190328815662e-32 l 6.123233995736764e-17,-1.0 l 6.123233995736764e-17,-1.0 l 1.0,-2.465190328815662e-32 l 6.123233995736769e-17,1.0 l 1.0,-2.465190328815662e-32 l 6.123233995736764e-17,-1.0 l 1.0,-2.465190328815662e-32 l 6.123233995736764e-17,-1.0 l -1.0,-1.224646799147353e-16 l -1.0,-1.224646799147353e-16 l 6.123233995736764e-17,-1.0 l 1.0,-2.465190328815662e-32 l 6.123233995736764e-17,-1.0 l 1.0,-2.465190328815662e-32 l 6.123233995736769e-17,1.0 l 1.0,-2.465190328815662e-32 l 6.123233995736764e-17,-1.0 l 6.123233995736764e-17,-1.0 l 1.0,-2.465190328815662e-32 l 6.123233995736769e-17,1.0 l 1.0,-2.465190328815662e-32 l 6.123233995736769e-17,1.0 l -1.0,1.2246467991473535e-16 l 6.123233995736769e-17,1.0 l 1.0,-2.465190328815662e-32 l 1.0,-2.465190328815662e-32 l 6.123233995736769e-17,1.0 l -1.0,1.2246467991473535e-16 l 6.123233995736769e-17,1.0 l 1.0,-2.465190328815662e-32 l 6.123233995736769e-17,1.0 l 1.0,-2.465190328815662e-32 l 6.123233995736764e-17,-1.0 l 6.123233995736764e-17,-1.0 l 1.0,-2.465190328815662e-32 l 6.123233995736769e-17,1.0 l 1.0,-2.465190328815662e-32 l 6.123233995736764e-17,-1.0 l 1.0,-2.465190328815662e-32 l 6.123233995736764e-17,-1.0 l -1.0,-1.224646799147353e-16 l -1.0,-1.224646799147353e-16 l 6.123233995736764e-17,-1.0 l 1.0,-2.465190328815662e-32 l 6.123233995736764e-17,-1.0 l 6.123233995736764e-17,-1.0 l 1.0,-2.465190328815662e-32 l 6.123233995736764e-17,-1.0 l -1.0,-1.224646799147353e-16 l -1.0,-1.224646799147353e-16 l 6.123233995736764e-17,-1.0 l 1.0,-2.465190328815662e-32 l 6.123233995736764e-17,-1.0 l 1.0,-2.465190328815662e-32 l 6.123233995736769e-17,1.0 l 1.0,-2.465190328815662e-32 l 6.123233995736764e-17,-1.0 l 6.123233995736764e-17,-1.0 l 1.0,-2.465190328815662e-32 l 6.123233995736769e-17,1.0 l 1.0,-2.465190328815662e-32 l 6.123233995736769e-17,1.0 l -1.0,1.2246467991473535e-16 l 6.123233995736769e-17,1.0 l 1.0,-2.465190328815662e-32 l 1.0,-2.465190328815662e-32 l 6.123233995736769e-17,1.0 l -1.0,1.2246467991473535e-16 l 6.123233995736769e-17,1.0 l 1.0,-2.465190328815662e-32 l 6.123233995736769e-17,1.0 l 1.0,-2.465190328815662e-32 l 6.123233995736764e-17,-1.0 l 6.123233995736764e-17,-1.0 l 1.0,-2.465190328815662e-32 l 6.123233995736769e-17,1.0 l 1.0,-2.465190328815662e-32 l 6.123233995736764e-17,-1.0 l 1.0,-2.465190328815662e-32 l 6.123233995736764e-17,-1.0 l -1.0,-1.224646799147353e-16 l -1.0,-1.224646799147353e-16 l 6.123233995736764e-17,-1.0 l 1.0,-2.465190328815662e-32 l 6.123233995736764e-17,-1.0 l 1.0,-2.465190328815662e-32 l 6.123233995736769e-17,1.0 l 1.0,-2.465190328815662e-32 l 6.123233995736764e-17,-1.0 l 6.123233995736764e-17,-1.0 l 1.0,-2.465190328815662e-32 l 6.123233995736769e-17,1.0 l 1.0,-2.465190328815662e-32 l 6.123233995736764e-17,-1.0 l 1.0,-2.465190328815662e-32 l 6.123233995736764e-17,-1.0 l -1.0,-1.224646799147353e-16 l -1.0,-1.224646799147353e-16 l 6.123233995736764e-17,-1.0 l 1.0,-2.465190328815662e-32 l 6.123233995736764e-17,-1.0 l -1.0,-1.224646799147353e-16 l 6.123233995736764e-17,-1.0 l -1.0,-1.224646799147353e-16 l -1.8369701987210297e-16,1.0 l -1.8369701987210297e-16,1.0 l -1.0,-1.224646799147353e-16 l 6.123233995736764e-17,-1.0 l -1.0,-1.224646799147353e-16 l -1.0,-1.224646799147353e-16 l 6.123233995736764e-17,-1.0 l -1.0,-1.224646799147353e-16 l -1.8369701987210297e-16,1.0 l -1.8369701987210297e-16,1.0 l -1.0,-1.224646799147353e-16 l 6.123233995736764e-17,-1.0 l -1.0,-1.224646799147353e-16 l 6.123233995736764e-17,-1.0 l 1.0,-2.465190328815662e-32 l 6.123233995736764e-17,-1.0 l -1.0,-1.224646799147353e-16 l -1.0,-1.224646799147353e-16 l 6.123233995736764e-17,-1.0 l 1.0,-2.465190328815662e-32 l 6.123233995736764e-17,-1.0 l 1.0,-2.465190328815662e-32 l 6.123233995736769e-17,1.0 l 1.0,-2.465190328815662e-32 l 6.123233995736764e-17,-1.0 l 6.123233995736764e-17,-1.0 l 1.0,-2.465190328815662e-32 l 6.123233995736769e-17,1.0 l 1.0,-2.465190328815662e-32 l 6.123233995736764e-17,-1.0 l 1.0,-2.465190328815662e-32 l 6.123233995736764e-17,-1.0 l -1.0,-1.224646799147353e-16 l -1.0,-1.224646799147353e-16 l 6.123233995736764e-17,-1.0 l 1.0,-2.465190328815662e-32 l 6.123233995736764e-17,-1.0 l -1.0,-1.224646799147353e-16 l 6.123233995736764e-17,-1.0 l -1.0,-1.224646799147353e-16 l -1.8369701987210297e-16,1.0 l -1.8369701987210297e-16,1.0 l -1.0,-1.224646799147353e-16 l 6.123233995736764e-17,-1.0 l -1.0,-1.224646799147353e-16 l 6.123233995736764e-17,-1.0 l 1.0,-2.465190328815662e-32 l 6.123233995736764e-17,-1.0 l -1.0,-1.224646799147353e-16 l -1.0,-1.224646799147353e-16 l 6.123233995736764e-17,-1.0 l 1.0,-2.465190328815662e-32 l 6.123233995736764e-17,-1.0 l -1.0,-1.224646799147353e-16 l 6.123233995736764e-17,-1.0 l -1.0,-1.224646799147353e-16 l -1.8369701987210297e-16,1.0 l -1.8369701987210297e-16,1.0 l -1.0,-1.224646799147353e-16 l 6.123233995736764e-17,-1.0 l -1.0,-1.224646799147353e-16 l -1.8369701987210297e-16,1.0 l -1.0,-1.224646799147353e-16 l -1.8369701987210297e-16,1.0 l 1.0,2.4492935982947064e-16 l 1.0,2.4492935982947064e-16 l -1.8369701987210297e-16,1.0 l -1.0,-1.224646799147353e-16 l -1.8369701987210297e-16,1.0 l -1.8369701987210297e-16,1.0 l -1.0,-1.224646799147353e-16 l -1.8369701987210297e-16,1.0 l 1.0,2.4492935982947064e-16 l 1.0,2.4492935982947064e-16 l -1.8369701987210297e-16,1.0 l -1.0,-1.224646799147353e-16 l -1.8369701987210297e-16,1.0 l -1.0,-1.224646799147353e-16 l 6.123233995736764e-17,-1.0 l -1.0,-1.224646799147353e-16 l -1.8369701987210297e-16,1.0 l -1.8369701987210297e-16,1.0 l -1.0,-1.224646799147353e-16 l 6.123233995736764e-17,-1.0 l -1.0,-1.224646799147353e-16 l 6.123233995736764e-17,-1.0 l 1.0,-2.465190328815662e-32 l 6.123233995736764e-17,-1.0 l -1.0,-1.224646799147353e-16 l -1.0,-1.224646799147353e-16 l 6.123233995736764e-17,-1.0 l 1.0,-2.465190328815662e-32 l 6.123233995736764e-17,-1.0 l -1.0,-1.224646799147353e-16 l 6.123233995736764e-17,-1.0 l -1.0,-1.224646799147353e-16 l -1.8369701987210297e-16,1.0 l -1.8369701987210297e-16,1.0 l -1.0,-1.224646799147353e-16 l 6.123233995736764e-17,-1.0 l -1.0,-1.224646799147353e-16 l -1.0,-1.224646799147353e-16 l 6.123233995736764e-17,-1.0 l -1.0,-1.224646799147353e-16 l -1.8369701987210297e-16,1.0 l -1.8369701987210297e-16,1.0 l -1.0,-1.224646799147353e-16 l 6.123233995736764e-17,-1.0 l -1.0,-1.224646799147353e-16 l 6.123233995736764e-17,-1.0 l 1.0,-2.465190328815662e-32 l 6.123233995736764e-17,-1.0 l -1.0,-1.224646799147353e-16 l -1.0,-1.224646799147353e-16 l 6.123233995736764e-17,-1.0 l 1.0,-2.465190328815662e-32 l 6.123233995736764e-17,-1.0 l -1.0,-1.224646799147353e-16 l 6.123233995736764e-17,-1.0 l -1.0,-1.224646799147353e-16 l -1.8369701987210297e-16,1.0 l -1.8369701987210297e-16,1.0 l -1.0,-1.224646799147353e-16 l 6.123233995736764e-17,-1.0 l -1.0,-1.224646799147353e-16 l -1.8369701987210297e-16,1.0 l -1.0,-1.224646799147353e-16 l -1.8369701987210297e-16,1.0 l 1.0,2.4492935982947064e-16 l 1.0,2.4492935982947064e-16 l -1.8369701987210297e-16,1.0 l -1.0,-1.224646799147353e-16 l -1.8369701987210297e-16,1.0 l -1.8369701987210297e-16,1.0 l -1.0,-1.224646799147353e-16 l -1.8369701987210297e-16,1.0 l 1.0,2.4492935982947064e-16 l 1.0,2.4492935982947064e-16 l -1.8369701987210297e-16,1.0 l -1.0,-1.224646799147353e-16 l -1.8369701987210297e-16,1.0 l -1.0,-1.224646799147353e-16 l 6.123233995736764e-17,-1.0 l -1.0,-1.224646799147353e-16 l -1.8369701987210297e-16,1.0 l -1.8369701987210297e-16,1.0 l -1.0,-1.224646799147353e-16 l 6.123233995736764e-17,-1.0 l -1.0,-1.224646799147353e-16 l 6.123233995736764e-17,-1.0 l 1.0,-2.465190328815662e-32 l 6.123233995736764e-17,-1.0 l -1.0,-1.224646799147353e-16 l -1.0,-1.224646799147353e-16 l 6.123233995736764e-17,-1.0 l 1.0,-2.465190328815662e-32 l 6.123233995736764e-17,-1.0 l -1.0,-1.224646799147353e-16 l 6.123233995736764e-17,-1.0 l -1.0,-1.224646799147353e-16 l -1.8369701987210297e-16,1.0 l -1.8369701987210297e-16,1.0 l -1.0,-1.224646799147353e-16 l 6.123233995736764e-17,-1.0 l -1.0,-1.224646799147353e-16 l 6.123233995736764e-17,-1.0 l 1.0,-2.465190328815662e-32 l 6.123233995736764e-17,-1.0 l -1.0,-1.224646799147353e-16 l -1.0,-1.224646799147353e-16 l 6.123233995736764e-17,-1.0 l 1.0,-2.465190328815662e-32 l 6.123233995736764e-17,-1.0 l 1.0,-2.465190328815662e-32 l 6.123233995736769e-17,1.0 l 1.0,-2.465190328815662e-32 l 6.123233995736764e-17,-1.0 l 6.123233995736764e-17,-1.0 l 1.0,-2.465190328815662e-32 l 6.123233995736769e-17,1.0 l 1.0,-2.465190328815662e-32 l 6.123233995736764e-17,-1.0 l 1.0,-2.465190328815662e-32 l 6.123233995736764e-17,-1.0 l -1.0,-1.224646799147353e-16 l -1.0,-1.224646799147353e-16 l 6.123233995736764e-17,-1.0 l 1.0,-2.465190328815662e-32 l 6.123233995736764e-17,-1.0 l -1.0,-1.224646799147353e-16 l 6.123233995736764e-17,-1.0 l -1.0,-1.224646799147353e-16 l -1.8369701987210297e-16,1.0 l -1.8369701987210297e-16,1.0 l -1.0,-1.224646799147353e-16 l 6.123233995736764e-17,-1.0 l -1.0,-1.224646799147353e-16 l -1.0,-1.224646799147353e-16 l 6.123233995736764e-17,-1.0 l -1.0,-1.224646799147353e-16 l -1.8369701987210297e-16,1.0 l -1.8369701987210297e-16,1.0 l -1.0,-1.224646799147353e-16 l 6.123233995736764e-17,-1.0 l -1.0,-1.224646799147353e-16 l 6.123233995736764e-17,-1.0 l 1.0,-2.465190328815662e-32 l 6.123233995736764e-17,-1.0 l -1.0,-1.224646799147353e-16 l -1.0,-1.224646799147353e-16 l 6.123233995736764e-17,-1.0 l 1.0,-2.465190328815662e-32 l 6.123233995736764e-17,-1.0 l 1.0,-2.465190328815662e-32 l 6.123233995736769e-17,1.0 l 1.0,-2.465190328815662e-32 l 6.123233995736764e-17,-1.0 l 6.123233995736764e-17,-1.0 l 1.0,-2.465190328815662e-32 l 6.123233995736769e-17,1.0 l 1.0,-2.465190328815662e-32 l 6.123233995736764e-17,-1.0 l 1.0,-2.465190328815662e-32 l 6.123233995736764e-17,-1.0 l -1.0,-1.224646799147353e-16 l -1.0,-1.224646799147353e-16 l 6.123233995736764e-17,-1.0 l 1.0,-2.465190328815662e-32 l 6.123233995736764e-17,-1.0 l 1.0,-2.465190328815662e-32 l 6.123233995736769e-17,1.0 l 1.0,-2.465190328815662e-32 l 6.123233995736764e-17,-1.0 l 6.123233995736764e-17,-1.0 l 1.0,-2.465190328815662e-32 l 6.123233995736769e-17,1.0 l 1.0,-2.465190328815662e-32 l 6.123233995736769e-17,1.0 l -1.0,1.2246467991473535e-16 l 6.123233995736769e-17,1.0 l 1.0,-2.465190328815662e-32 l 1.0,-2.465190328815662e-32 l 6.123233995736769e-17,1.0 l -1.0,1.2246467991473535e-16 l 6.123233995736769e-17,1.0 l 1.0,-2.465190328815662e-32 l 6.123233995736769e-17,1.0 l 1.0,-2.465190328815662e-32 l 6.123233995736764e-17,-1.0 l 6.123233995736764e-17,-1.0 l 1.0,-2.465190328815662e-32 l 6.123233995736769e-17,1.0 l 1.0,-2.465190328815662e-32 l 6.123233995736764e-17,-1.0 l 1.0,-2.465190328815662e-32 l 6.123233995736764e-17,-1.0 l -1.0,-1.224646799147353e-16 l -1.0,-1.224646799147353e-16 l 6.123233995736764e-17,-1.0 l 1.0,-2.465190328815662e-32 l 6.123233995736764e-17,-1.0 l 6.123233995736764e-17,-1.0 l 1.0,-2.465190328815662e-32 l 6.123233995736764e-17,-1.0 l -1.0,-1.224646799147353e-16 l -1.0,-1.224646799147353e-16 l 6.123233995736764e-17,-1.0 l 1.0,-2.465190328815662e-32 l 6.123233995736764e-17,-1.0 l 1.0,-2.465190328815662e-32 l 6.123233995736769e-17,1.0 l 1.0,-2.465190328815662e-32 l 6.123233995736764e-17,-1.0 l 6.123233995736764e-17,-1.0 l 1.0,-2.465190328815662e-32 l 6.123233995736769e-17,1.0 l 1.0,-2.465190328815662e-32 l 6.123233995736769e-17,1.0 l -1.0,1.2246467991473535e-16 l 6.123233995736769e-17,1.0 l 1.0,-2.465190328815662e-32 l 1.0,-2.465190328815662e-32 l 6.123233995736769e-17,1.0 l -1.0,1.2246467991473535e-16 l 6.123233995736769e-17,1.0 l 1.0,-2.465190328815662e-32 l 6.123233995736769e-17,1.0 l 1.0,-2.465190328815662e-32 l 6.123233995736764e-17,-1.0 l 6.123233995736764e-17,-1.0 l 1.0,-2.465190328815662e-32 l 6.123233995736769e-17,1.0 l 1.0,-2.465190328815662e-32 l 6.123233995736764e-17,-1.0 l 1.0,-2.465190328815662e-32 l 6.123233995736764e-17,-1.0 l -1.0,-1.224646799147353e-16 l -1.0,-1.224646799147353e-16 l 6.123233995736764e-17,-1.0 l 1.0,-2.465190328815662e-32 l 6.123233995736764e-17,-1.0 l 1.0,-2.465190328815662e-32 l 6.123233995736769e-17,1.0 l 1.0,-2.465190328815662e-32 l 6.123233995736764e-17,-1.0 l 6.123233995736764e-17,-1.0 l 1.0,-2.465190328815662e-32 l 6.123233995736769e-17,1.0 l 1.0,-2.465190328815662e-32 l 6.123233995736764e-17,-1.0 l 1.0,-2.465190328815662e-32 l 6.123233995736764e-17,-1.0 l -1.0,-1.224646799147353e-16 l -1.0,-1.224646799147353e-16 l 6.123233995736764e-17,-1.0 l 1.0,-2.465190328815662e-32 l 6.123233995736764e-17,-1.0 l -1.0,-1.224646799147353e-16 l 6.123233995736764e-17,-1.0 l -1.0,-1.224646799147353e-16 l -1.8369701987210297e-16,1.0 l -1.8369701987210297e-16,1.0 l -1.0,-1.224646799147353e-16 l 6.123233995736764e-17,-1.0 l -1.0,-1.224646799147353e-16 l -1.0,-1.224646799147353e-16 l 6.123233995736764e-17,-1.0 l -1.0,-1.224646799147353e-16 l -1.8369701987210297e-16,1.0 l -1.8369701987210297e-16,1.0 l -1.0,-1.224646799147353e-16 l 6.123233995736764e-17,-1.0 l -1.0,-1.224646799147353e-16 l 6.123233995736764e-17,-1.0 l 1.0,-2.465190328815662e-32 l 6.123233995736764e-17,-1.0 l -1.0,-1.224646799147353e-16 l -1.0,-1.224646799147353e-16 l 6.123233995736764e-17,-1.0 l 1.0,-2.465190328815662e-32 l 6.123233995736764e-17,-1.0 l 1.0,-2.465190328815662e-32 l 6.123233995736769e-17,1.0 l 1.0,-2.465190328815662e-32 l 6.123233995736764e-17,-1.0 l 6.123233995736764e-17,-1.0 l 1.0,-2.465190328815662e-32 l 6.123233995736769e-17,1.0 l 1.0,-2.465190328815662e-32 l 6.123233995736764e-17,-1.0 l 1.0,-2.465190328815662e-32 l 6.123233995736764e-17,-1.0 l -1.0,-1.224646799147353e-16 l -1.0,-1.224646799147353e-16 l 6.123233995736764e-17,-1.0 l 1.0,-2.465190328815662e-32 l 6.123233995736764e-17,-1.0 l 1.0,-2.465190328815662e-32 l 6.123233995736769e-17,1.0 l 1.0,-2.465190328815662e-32 l 6.123233995736764e-17,-1.0 l 6.123233995736764e-17,-1.0 l 1.0,-2.465190328815662e-32 l 6.123233995736769e-17,1.0 l 1.0,-2.465190328815662e-32 l 6.123233995736769e-17,1.0 l -1.0,1.2246467991473535e-16 l 6.123233995736769e-17,1.0 l 1.0,-2.465190328815662e-32 l 1.0,-2.465190328815662e-32 l 6.123233995736769e-17,1.0 l -1.0,1.2246467991473535e-16 l 6.123233995736769e-17,1.0 l 1.0,-2.465190328815662e-32 l 6.123233995736769e-17,1.0 l 1.0,-2.465190328815662e-32 l 6.123233995736764e-17,-1.0 l 6.123233995736764e-17,-1.0 l 1.0,-2.465190328815662e-32 l 6.123233995736769e-17,1.0 l 1.0,-2.465190328815662e-32 l 6.123233995736764e-17,-1.0 l 1.0,-2.465190328815662e-32 l 6.123233995736764e-17,-1.0 l -1.0,-1.224646799147353e-16 l -1.0,-1.224646799147353e-16 l 6.123233995736764e-17,-1.0 l 1.0,-2.465190328815662e-32 l 6.123233995736764e-17,-1.0 l 6.123233995736764e-17,-1.0 l 1.0,-2.465190328815662e-32 l 6.123233995736764e-17,-1.0 l -1.0,-1.224646799147353e-16 l -1.0,-1.224646799147353e-16 l 6.123233995736764e-17,-1.0 l 1.0,-2.465190328815662e-32 l 6.123233995736764e-17,-1.0 l 1.0,-2.465190328815662e-32 l 6.123233995736769e-17,1.0 l 1.0,-2.465190328815662e-32 l 6.123233995736764e-17,-1.0 l 6.123233995736764e-17,-1.0 l 1.0,-2.465190328815662e-32 l 6.123233995736769e-17,1.0 l 1.0,-2.465190328815662e-32 l 6.123233995736769e-17,1.0 l -1.0,1.2246467991473535e-16 l 6.123233995736769e-17,1.0 l 1.0,-2.465190328815662e-32 l 1.0,-2.465190328815662e-32 l 6.123233995736769e-17,1.0 l -1.0,1.2246467991473535e-16 l 6.123233995736769e-17,1.0 l 1.0,-2.465190328815662e-32 l 6.123233995736769e-17,1.0 l 1.0,-2.465190328815662e-32 l 6.123233995736764e-17,-1.0 l 6.123233995736764e-17,-1.0 l 1.0,-2.465190328815662e-32 l 6.123233995736769e-17,1.0 l 1.0,-2.465190328815662e-32 l 6.123233995736769e-17,1.0 l -1.0,1.2246467991473535e-16 l 6.123233995736769e-17,1.0 l 1.0,-2.465190328815662e-32 l 1.0,-2.465190328815662e-32 l 6.123233995736769e-17,1.0 l -1.0,1.2246467991473535e-16 l 6.123233995736769e-17,1.0 l -1.0,1.2246467991473535e-16 l -1.8369701987210302e-16,-1.0 l -1.0,1.2246467991473535e-16 l 6.123233995736769e-17,1.0 l 6.123233995736769e-17,1.0 l -1.0,1.2246467991473535e-16 l -1.8369701987210302e-16,-1.0 l -1.0,1.2246467991473535e-16 l 6.123233995736769e-17,1.0 l -1.0,1.2246467991473535e-16 l 6.123233995736769e-17,1.0 l 1.0,-2.465190328815662e-32 l 1.0,-2.465190328815662e-32 l 6.123233995736769e-17,1.0 l -1.0,1.2246467991473535e-16 l 6.123233995736769e-17,1.0 l 1.0,-2.465190328815662e-32 l 6.123233995736769e-17,1.0 l 1.0,-2.465190328815662e-32 l 6.123233995736764e-17,-1.0 l 6.123233995736764e-17,-1.0 l 1.0,-2.465190328815662e-32 l 6.123233995736769e-17,1.0 l 1.0,-2.465190328815662e-32 l 1.0,-2.465190328815662e-32 l 6.123233995736769e-17,1.0 l 1.0,-2.465190328815662e-32 l 6.123233995736764e-17,-1.0 l 6.123233995736764e-17,-1.0 l 1.0,-2.465190328815662e-32 l 6.123233995736769e-17,1.0 l 1.0,-2.465190328815662e-32 l 6.123233995736769e-17,1.0 l -1.0,1.2246467991473535e-16 l 6.123233995736769e-17,1.0 l 1.0,-2.465190328815662e-32 l 1.0,-2.465190328815662e-32 l 6.123233995736769e-17,1.0 l -1.0,1.2246467991473535e-16 l 6.123233995736769e-17,1.0 l -1.0,1.2246467991473535e-16 l -1.8369701987210302e-16,-1.0 l -1.0,1.2246467991473535e-16 l 6.123233995736769e-17,1.0 l 6.123233995736769e-17,1.0 l -1.0,1.2246467991473535e-16 l -1.8369701987210302e-16,-1.0 l -1.0,1.2246467991473535e-16 l 6.123233995736769e-17,1.0 l -1.0,1.2246467991473535e-16 l 6.123233995736769e-17,1.0 l 1.0,-2.465190328815662e-32 l 1.0,-2.465190328815662e-32 l 6.123233995736769e-17,1.0 l -1.0,1.2246467991473535e-16 l 6.123233995736769e-17,1.0 l 1.0,-2.465190328815662e-32 l 6.123233995736769e-17,1.0 l 1.0,-2.465190328815662e-32 l 6.123233995736764e-17,-1.0 l 6.123233995736764e-17,-1.0 l 1.0,-2.465190328815662e-32 l 6.123233995736769e-17,1.0 l 1.0,-2.465190328815662e-32 l 6.123233995736769e-17,1.0 l -1.0,1.2246467991473535e-16 l 6.123233995736769e-17,1.0 l 1.0,-2.465190328815662e-32 l 1.0,-2.465190328815662e-32 l 6.123233995736769e-17,1.0 l -1.0,1.2246467991473535e-16 l 6.123233995736769e-17,1.0 l 1.0,-2.465190328815662e-32 l 6.123233995736769e-17,1.0 l 1.0,-2.465190328815662e-32 l 6.123233995736764e-17,-1.0 l 6.123233995736764e-17,-1.0 l 1.0,-2.465190328815662e-32 l 6.123233995736769e-17,1.0 l 1.0,-2.465190328815662e-32 l 6.123233995736764e-17,-1.0 l 1.0,-2.465190328815662e-32 l 6.123233995736764e-17,-1.0 l -1.0,-1.224646799147353e-16 l -1.0,-1.224646799147353e-16 l 6.123233995736764e-17,-1.0 l 1.0,-2.465190328815662e-32 l 6.123233995736764e-17,-1.0 l 6.123233995736764e-17,-1.0 l 1.0,-2.465190328815662e-32 l 6.123233995736764e-17,-1.0 l -1.0,-1.224646799147353e-16 l -1.0,-1.224646799147353e-16 l 6.123233995736764e-17,-1.0 l 1.0,-2.465190328815662e-32 l 6.123233995736764e-17,-1.0 l 1.0,-2.465190328815662e-32 l 6.123233995736769e-17,1.0 l 1.0,-2.465190328815662e-32 l 6.123233995736764e-17,-1.0 l 6.123233995736764e-17,-1.0 l 1.0,-2.465190328815662e-32 l 6.123233995736769e-17,1.0 l 1.0,-2.465190328815662e-32 l 6.123233995736769e-17,1.0 l -1.0,1.2246467991473535e-16 l 6.123233995736769e-17,1.0 l 1.0,-2.465190328815662e-32 l 1.0,-2.465190328815662e-32 l 6.123233995736769e-17,1.0 l -1.0,1.2246467991473535e-16 l 6.123233995736769e-17,1.0 l 1.0,-2.465190328815662e-32 l 6.123233995736769e-17,1.0 l 1.0,-2.465190328815662e-32 l 6.123233995736764e-17,-1.0 l 6.123233995736764e-17,-1.0 l 1.0,-2.465190328815662e-32 l 6.123233995736769e-17,1.0 l 1.0,-2.465190328815662e-32 l 6.123233995736764e-17,-1.0 l 1.0,-2.465190328815662e-32 l 6.123233995736764e-17,-1.0 l -1.0,-1.224646799147353e-16 l -1.0,-1.224646799147353e-16 l 6.123233995736764e-17,-1.0 l 1.0,-2.465190328815662e-32 l 6.123233995736764e-17,-1.0 l 1.0,-2.465190328815662e-32 l 6.123233995736769e-17,1.0 l 1.0,-2.465190328815662e-32 l 6.123233995736764e-17,-1.0 l 6.123233995736764e-17,-1.0 l 1.0,-2.465190328815662e-32 l 6.123233995736769e-17,1.0 l 1.0,-2.465190328815662e-32 l 6.123233995736764e-17,-1.0 l 1.0,-2.465190328815662e-32 l 6.123233995736764e-17,-1.0 l -1.0,-1.224646799147353e-16 l -1.0,-1.224646799147353e-16 l 6.123233995736764e-17,-1.0 l 1.0,-2.465190328815662e-32 l 6.123233995736764e-17,-1.0 l -1.0,-1.224646799147353e-16 l 6.123233995736764e-17,-1.0 l -1.0,-1.224646799147353e-16 l -1.8369701987210297e-16,1.0 l -1.8369701987210297e-16,1.0 l -1.0,-1.224646799147353e-16 l 6.123233995736764e-17,-1.0 l -1.0,-1.224646799147353e-16 l -1.0,-1.224646799147353e-16 l 6.123233995736764e-17,-1.0 l -1.0,-1.224646799147353e-16 l -1.8369701987210297e-16,1.0 l -1.8369701987210297e-16,1.0 l -1.0,-1.224646799147353e-16 l 6.123233995736764e-17,-1.0 l -1.0,-1.224646799147353e-16 l 6.123233995736764e-17,-1.0 l 1.0,-2.465190328815662e-32 l 6.123233995736764e-17,-1.0 l -1.0,-1.224646799147353e-16 l -1.0,-1.224646799147353e-16 l 6.123233995736764e-17,-1.0 l 1.0,-2.465190328815662e-32 l 6.123233995736764e-17,-1.0 l 1.0,-2.465190328815662e-32 l 6.123233995736769e-17,1.0 l 1.0,-2.465190328815662e-32 l 6.123233995736764e-17,-1.0 l 6.123233995736764e-17,-1.0 l 1.0,-2.465190328815662e-32 l 6.123233995736769e-17,1.0 l 1.0,-2.465190328815662e-32 l 6.123233995736764e-17,-1.0 l 1.0,-2.465190328815662e-32 l 6.123233995736764e-17,-1.0 l -1.0,-1.224646799147353e-16 l -1.0,-1.224646799147353e-16 l 6.123233995736764e-17,-1.0 l 1.0,-2.465190328815662e-32 l 6.123233995736764e-17,-1.0 l 6.123233995736764e-17,-1.0 l 1.0,-2.465190328815662e-32 l 6.123233995736764e-17,-1.0 l -1.0,-1.224646799147353e-16 l -1.0,-1.224646799147353e-16 l 6.123233995736764e-17,-1.0 l 1.0,-2.465190328815662e-32 l 6.123233995736764e-17,-1.0 l 1.0,-2.465190328815662e-32 l 6.123233995736769e-17,1.0 l 1.0,-2.465190328815662e-32 l 6.123233995736764e-17,-1.0 l 6.123233995736764e-17,-1.0 l 1.0,-2.465190328815662e-32 l 6.123233995736769e-17,1.0 l 1.0,-2.465190328815662e-32 l 6.123233995736764e-17,-1.0 l 1.0,-2.465190328815662e-32 l 6.123233995736764e-17,-1.0 l -1.0,-1.224646799147353e-16 l -1.0,-1.224646799147353e-16 l 6.123233995736764e-17,-1.0 l 1.0,-2.465190328815662e-32 l 6.123233995736764e-17,-1.0 l -1.0,-1.224646799147353e-16 l 6.123233995736764e-17,-1.0 l -1.0,-1.224646799147353e-16 l -1.8369701987210297e-16,1.0 l -1.8369701987210297e-16,1.0 l -1.0,-1.224646799147353e-16 l 6.123233995736764e-17,-1.0 l -1.0,-1.224646799147353e-16 l -1.0,-1.224646799147353e-16 l 6.123233995736764e-17,-1.0 l -1.0,-1.224646799147353e-16 l -1.8369701987210297e-16,1.0 l -1.8369701987210297e-16,1.0 l -1.0,-1.224646799147353e-16 l 6.123233995736764e-17,-1.0 l -1.0,-1.224646799147353e-16 l 6.123233995736764e-17,-1.0 l 1.0,-2.465190328815662e-32 l 6.123233995736764e-17,-1.0 l -1.0,-1.224646799147353e-16 l -1.0,-1.224646799147353e-16 l 6.123233995736764e-17,-1.0 l 1.0,-2.465190328815662e-32 l 6.123233995736764e-17,-1.0 l 1.0,-2.465190328815662e-32 l 6.123233995736769e-17,1.0 l 1.0,-2.465190328815662e-32 l 6.123233995736764e-17,-1.0 l 6.123233995736764e-17,-1.0 l 1.0,-2.465190328815662e-32 l 6.123233995736769e-17,1.0 l 1.0,-2.465190328815662e-32 l 6.123233995736764e-17,-1.0 l 1.0,-2.465190328815662e-32 l 6.123233995736764e-17,-1.0 l -1.0,-1.224646799147353e-16 l -1.0,-1.224646799147353e-16 l 6.123233995736764e-17,-1.0 l 1.0,-2.465190328815662e-32 l 6.123233995736764e-17,-1.0 l 1.0,-2.465190328815662e-32 l 6.123233995736769e-17,1.0 l 1.0,-2.465190328815662e-32 l 6.123233995736764e-17,-1.0 l 6.123233995736764e-17,-1.0 l 1.0,-2.465190328815662e-32 l 6.123233995736769e-17,1.0 l 1.0,-2.465190328815662e-32 l 6.123233995736769e-17,1.0 l -1.0,1.2246467991473535e-16 l 6.123233995736769e-17,1.0 l 1.0,-2.465190328815662e-32 l 1.0,-2.465190328815662e-32 l 6.123233995736769e-17,1.0 l -1.0,1.2246467991473535e-16 l 6.123233995736769e-17,1.0 l 1.0,-2.465190328815662e-32 l 6.123233995736769e-17,1.0 l 1.0,-2.465190328815662e-32 l 6.123233995736764e-17,-1.0 l 6.123233995736764e-17,-1.0 l 1.0,-2.465190328815662e-32 l 6.123233995736769e-17,1.0 l 1.0,-2.465190328815662e-32 l 6.123233995736764e-17,-1.0 l 1.0,-2.465190328815662e-32 l 6.123233995736764e-17,-1.0 l -1.0,-1.224646799147353e-16 l -1.0,-1.224646799147353e-16 l 6.123233995736764e-17,-1.0 l 1.0,-2.465190328815662e-32 l 6.123233995736764e-17,-1.0 l 6.123233995736764e-17,-1.0 l 1.0,-2.465190328815662e-32 l 6.123233995736764e-17,-1.0 l -1.0,-1.224646799147353e-16 l -1.0,-1.224646799147353e-16 l 6.123233995736764e-17,-1.0 l 1.0,-2.465190328815662e-32 l 6.123233995736764e-17,-1.0 l 1.0,-2.465190328815662e-32 l 6.123233995736769e-17,1.0 l 1.0,-2.465190328815662e-32 l 6.123233995736764e-17,-1.0 l 6.123233995736764e-17,-1.0 l 1.0,-2.465190328815662e-32 l 6.123233995736769e-17,1.0 l 1.0,-2.465190328815662e-32 l 6.123233995736769e-17,1.0 l -1.0,1.2246467991473535e-16 l 6.123233995736769e-17,1.0 l 1.0,-2.465190328815662e-32 l 1.0,-2.465190328815662e-32 l 6.123233995736769e-17,1.0 l -1.0,1.2246467991473535e-16 l 6.123233995736769e-17,1.0 l 1.0,-2.465190328815662e-32 l 6.123233995736769e-17,1.0 l 1.0,-2.465190328815662e-32 l 6.123233995736764e-17,-1.0 l 6.123233995736764e-17,-1.0 l 1.0,-2.465190328815662e-32 l 6.123233995736769e-17,1.0 l 1.0,-2.465190328815662e-32 l 6.123233995736769e-17,1.0 l -1.0,1.2246467991473535e-16 l 6.123233995736769e-17,1.0 l 1.0,-2.465190328815662e-32 l 1.0,-2.465190328815662e-32 l 6.123233995736769e-17,1.0 l -1.0,1.2246467991473535e-16 l 6.123233995736769e-17,1.0 l -1.0,1.2246467991473535e-16 l -1.8369701987210302e-16,-1.0 l -1.0,1.2246467991473535e-16 l 6.123233995736769e-17,1.0 l 6.123233995736769e-17,1.0 l -1.0,1.2246467991473535e-16 l -1.8369701987210302e-16,-1.0 l -1.0,1.2246467991473535e-16 l 6.123233995736769e-17,1.0 l -1.0,1.2246467991473535e-16 l 6.123233995736769e-17,1.0 l 1.0,-2.465190328815662e-32 l 1.0,-2.465190328815662e-32 l 6.123233995736769e-17,1.0 l -1.0,1.2246467991473535e-16 l 6.123233995736769e-17,1.0 l 1.0,-2.465190328815662e-32 l 6.123233995736769e-17,1.0 l 1.0,-2.465190328815662e-32 l 6.123233995736764e-17,-1.0 l 6.123233995736764e-17,-1.0 l 1.0,-2.465190328815662e-32 l 6.123233995736769e-17,1.0 l 1.0,-2.465190328815662e-32 l 1.0,-2.465190328815662e-32 l 6.123233995736769e-17,1.0 l 1.0,-2.465190328815662e-32 l 6.123233995736764e-17,-1.0 l 6.123233995736764e-17,-1.0 l 1.0,-2.465190328815662e-32 l 6.123233995736769e-17,1.0 l 1.0,-2.465190328815662e-32 l 6.123233995736769e-17,1.0 l -1.0,1.2246467991473535e-16 l 6.123233995736769e-17,1.0 l 1.0,-2.465190328815662e-32 l 1.0,-2.465190328815662e-32 l 6.123233995736769e-17,1.0 l -1.0,1.2246467991473535e-16 l 6.123233995736769e-17,1.0 l -1.0,1.2246467991473535e-16 l -1.8369701987210302e-16,-1.0 l -1.0,1.2246467991473535e-16 l 6.123233995736769e-17,1.0 l 6.123233995736769e-17,1.0 l -1.0,1.2246467991473535e-16 l -1.8369701987210302e-16,-1.0 l -1.0,1.2246467991473535e-16 l 6.123233995736769e-17,1.0 l -1.0,1.2246467991473535e-16 l 6.123233995736769e-17,1.0 l 1.0,-2.465190328815662e-32 l 1.0,-2.465190328815662e-32 l 6.123233995736769e-17,1.0 l -1.0,1.2246467991473535e-16 l 6.123233995736769e-17,1.0 l 1.0,-2.465190328815662e-32 l 6.123233995736769e-17,1.0 l 1.0,-2.465190328815662e-32 l 6.123233995736764e-17,-1.0 l 6.123233995736764e-17,-1.0 l 1.0,-2.465190328815662e-32 l 6.123233995736769e-17,1.0 l 1.0,-2.465190328815662e-32 l 6.123233995736769e-17,1.0 l -1.0,1.2246467991473535e-16 l 6.123233995736769e-17,1.0 l 1.0,-2.465190328815662e-32 l 1.0,-2.465190328815662e-32 l 6.123233995736769e-17,1.0 l -1.0,1.2246467991473535e-16 l 6.123233995736769e-17,1.0 l 1.0,-2.465190328815662e-32 l 6.123233995736769e-17,1.0 l 1.0,-2.465190328815662e-32 l 6.123233995736764e-17,-1.0 l 6.123233995736764e-17,-1.0 l 1.0,-2.465190328815662e-32 l 6.123233995736769e-17,1.0 l 1.0,-2.465190328815662e-32 l 6.123233995736764e-17,-1.0 l 1.0,-2.465190328815662e-32 l 6.123233995736764e-17,-1.0 l -1.0,-1.224646799147353e-16 l -1.0,-1.224646799147353e-16 l 6.123233995736764e-17,-1.0 l 1.0,-2.465190328815662e-32 l 6.123233995736764e-17,-1.0 l 6.123233995736764e-17,-1.0 l 1.0,-2.465190328815662e-32 l 6.123233995736764e-17,-1.0 l -1.0,-1.224646799147353e-16 l -1.0,-1.224646799147353e-16 l 6.123233995736764e-17,-1.0 l 1.0,-2.465190328815662e-32 l 6.123233995736764e-17,-1.0 l 1.0,-2.465190328815662e-32 l 6.123233995736769e-17,1.0 l 1.0,-2.465190328815662e-32 l 6.123233995736764e-17,-1.0 l 6.123233995736764e-17,-1.0 l 1.0,-2.465190328815662e-32 l 6.123233995736769e-17,1.0 l 1.0,-2.465190328815662e-32 l 6.123233995736769e-17,1.0 l -1.0,1.2246467991473535e-16 l 6.123233995736769e-17,1.0 l 1.0,-2.465190328815662e-32 l 1.0,-2.465190328815662e-32 l 6.123233995736769e-17,1.0 l -1.0,1.2246467991473535e-16 l 6.123233995736769e-17,1.0 l 1.0,-2.465190328815662e-32 l 6.123233995736769e-17,1.0 l 1.0,-2.465190328815662e-32 l 6.123233995736764e-17,-1.0 l 6.123233995736764e-17,-1.0 l 1.0,-2.465190328815662e-32 l 6.123233995736769e-17,1.0 l 1.0,-2.465190328815662e-32 l 6.123233995736769e-17,1.0 l -1.0,1.2246467991473535e-16 l 6.123233995736769e-17,1.0 l 1.0,-2.465190328815662e-32 l 1.0,-2.465190328815662e-32 l 6.123233995736769e-17,1.0 l -1.0,1.2246467991473535e-16 l 6.123233995736769e-17,1.0 l -1.0,1.2246467991473535e-16 l -1.8369701987210302e-16,-1.0 l -1.0,1.2246467991473535e-16 l 6.123233995736769e-17,1.0 l 6.123233995736769e-17,1.0 l -1.0,1.2246467991473535e-16 l -1.8369701987210302e-16,-1.0 l -1.0,1.2246467991473535e-16 l 6.123233995736769e-17,1.0 l -1.0,1.2246467991473535e-16 l 6.123233995736769e-17,1.0 l 1.0,-2.465190328815662e-32 l 1.0,-2.465190328815662e-32 l 6.123233995736769e-17,1.0 l -1.0,1.2246467991473535e-16 l 6.123233995736769e-17,1.0 l 1.0,-2.465190328815662e-32 l 6.123233995736769e-17,1.0 l 1.0,-2.465190328815662e-32 l 6.123233995736764e-17,-1.0 l 6.123233995736764e-17,-1.0 l 1.0,-2.465190328815662e-32 l 6.123233995736769e-17,1.0 l 1.0,-2.465190328815662e-32 l 1.0,-2.465190328815662e-32 l 6.123233995736769e-17,1.0 l 1.0,-2.465190328815662e-32 l 6.123233995736764e-17,-1.0 l 6.123233995736764e-17,-1.0 l 1.0,-2.465190328815662e-32 l 6.123233995736769e-17,1.0 l 1.0,-2.465190328815662e-32 l 6.123233995736769e-17,1.0 l -1.0,1.2246467991473535e-16 l 6.123233995736769e-17,1.0 l 1.0,-2.465190328815662e-32 l 1.0,-2.465190328815662e-32 l 6.123233995736769e-17,1.0 l -1.0,1.2246467991473535e-16 l 6.123233995736769e-17,1.0 l -1.0,1.2246467991473535e-16 l -1.8369701987210302e-16,-1.0 l -1.0,1.2246467991473535e-16 l 6.123233995736769e-17,1.0 l 6.123233995736769e-17,1.0 l -1.0,1.2246467991473535e-16 l -1.8369701987210302e-16,-1.0 l -1.0,1.2246467991473535e-16 l 6.123233995736769e-17,1.0 l -1.0,1.2246467991473535e-16 l 6.123233995736769e-17,1.0 l 1.0,-2.465190328815662e-32 l 1.0,-2.465190328815662e-32 l 6.123233995736769e-17,1.0 l -1.0,1.2246467991473535e-16 l 6.123233995736769e-17,1.0 l -1.0,1.2246467991473535e-16 l -1.8369701987210302e-16,-1.0 l -1.0,1.2246467991473535e-16 l 6.123233995736769e-17,1.0 l 6.123233995736769e-17,1.0 l -1.0,1.2246467991473535e-16 l -1.8369701987210302e-16,-1.0 l -1.0,1.2246467991473535e-16 l -1.8369701987210302e-16,-1.0 l 1.0,-2.449293598294707e-16 l -1.8369701987210302e-16,-1.0 l -1.0,1.2246467991473535e-16 l -1.0,1.2246467991473535e-16 l -1.8369701987210302e-16,-1.0 l 1.0,-2.449293598294707e-16 l -1.8369701987210302e-16,-1.0 l -1.0,1.2246467991473535e-16 l -1.8369701987210302e-16,-1.0 l -1.0,1.2246467991473535e-16 l 6.123233995736769e-17,1.0 l 6.123233995736769e-17,1.0 l -1.0,1.2246467991473535e-16 l -1.8369701987210302e-16,-1.0 l -1.0,1.2246467991473535e-16 l 6.123233995736769e-17,1.0 l -1.0,1.2246467991473535e-16 l 6.123233995736769e-17,1.0 l 1.0,-2.465190328815662e-32 l 1.0,-2.465190328815662e-32 l 6.123233995736769e-17,1.0 l -1.0,1.2246467991473535e-16 l 6.123233995736769e-17,1.0 l 6.123233995736769e-17,1.0 l -1.0,1.2246467991473535e-16 l 6.123233995736769e-17,1.0 l 1.0,-2.465190328815662e-32 l 1.0,-2.465190328815662e-32 l 6.123233995736769e-17,1.0 l -1.0,1.2246467991473535e-16 l 6.123233995736769e-17,1.0 l -1.0,1.2246467991473535e-16 l -1.8369701987210302e-16,-1.0 l -1.0,1.2246467991473535e-16 l 6.123233995736769e-17,1.0 l 6.123233995736769e-17,1.0 l -1.0,1.2246467991473535e-16 l -1.8369701987210302e-16,-1.0 l -1.0,1.2246467991473535e-16 l -1.8369701987210302e-16,-1.0 l 1.0,-2.449293598294707e-16 l -1.8369701987210302e-16,-1.0 l -1.0,1.2246467991473535e-16 l -1.0,1.2246467991473535e-16 l -1.8369701987210302e-16,-1.0 l 1.0,-2.449293598294707e-16 l -1.8369701987210302e-16,-1.0 l -1.0,1.2246467991473535e-16 l -1.8369701987210302e-16,-1.0 l -1.0,1.2246467991473535e-16 l 6.123233995736769e-17,1.0 l 6.123233995736769e-17,1.0 l -1.0,1.2246467991473535e-16 l -1.8369701987210302e-16,-1.0 l -1.0,1.2246467991473535e-16 l 6.123233995736769e-17,1.0 l -1.0,1.2246467991473535e-16 l 6.123233995736769e-17,1.0 l 1.0,-2.465190328815662e-32 l 1.0,-2.465190328815662e-32 l 6.123233995736769e-17,1.0 l -1.0,1.2246467991473535e-16 l 6.123233995736769e-17,1.0 l -1.0,1.2246467991473535e-16 l -1.8369701987210302e-16,-1.0 l -1.0,1.2246467991473535e-16 l 6.123233995736769e-17,1.0 l 6.123233995736769e-17,1.0 l -1.0,1.2246467991473535e-16 l -1.8369701987210302e-16,-1.0 l -1.0,1.2246467991473535e-16 l 6.123233995736769e-17,1.0 l -1.0,1.2246467991473535e-16 l 6.123233995736769e-17,1.0 l 1.0,-2.465190328815662e-32 l 1.0,-2.465190328815662e-32 l 6.123233995736769e-17,1.0 l -1.0,1.2246467991473535e-16 l 6.123233995736769e-17,1.0 l 1.0,-2.465190328815662e-32 l 6.123233995736769e-17,1.0 l 1.0,-2.465190328815662e-32 l 6.123233995736764e-17,-1.0 l 6.123233995736764e-17,-1.0 l 1.0,-2.465190328815662e-32 l 6.123233995736769e-17,1.0 l 1.0,-2.465190328815662e-32 l 1.0,-2.465190328815662e-32 l 6.123233995736769e-17,1.0 l 1.0,-2.465190328815662e-32 l 6.123233995736764e-17,-1.0 l 6.123233995736764e-17,-1.0 l 1.0,-2.465190328815662e-32 l 6.123233995736769e-17,1.0 l 1.0,-2.465190328815662e-32 l 6.123233995736769e-17,1.0 l -1.0,1.2246467991473535e-16 l 6.123233995736769e-17,1.0 l 1.0,-2.465190328815662e-32 l 1.0,-2.465190328815662e-32 l 6.123233995736769e-17,1.0 l -1.0,1.2246467991473535e-16 l 6.123233995736769e-17,1.0 l -1.0,1.2246467991473535e-16 l -1.8369701987210302e-16,-1.0 l -1.0,1.2246467991473535e-16 l 6.123233995736769e-17,1.0 l 6.123233995736769e-17,1.0 l -1.0,1.2246467991473535e-16 l -1.8369701987210302e-16,-1.0 l -1.0,1.2246467991473535e-16 l 6.123233995736769e-17,1.0 l -1.0,1.2246467991473535e-16 l 6.123233995736769e-17,1.0 l 1.0,-2.465190328815662e-32 l 1.0,-2.465190328815662e-32 l 6.123233995736769e-17,1.0 l -1.0,1.2246467991473535e-16 l 6.123233995736769e-17,1.0 l 1.0,-2.465190328815662e-32 l 6.123233995736769e-17,1.0 l 1.0,-2.465190328815662e-32 l 6.123233995736764e-17,-1.0 l 6.123233995736764e-17,-1.0 l 1.0,-2.465190328815662e-32 l 6.123233995736769e-17,1.0 l 1.0,-2.465190328815662e-32 l 6.123233995736769e-17,1.0 l -1.0,1.2246467991473535e-16 l 6.123233995736769e-17,1.0 l 1.0,-2.465190328815662e-32 l 1.0,-2.465190328815662e-32 l 6.123233995736769e-17,1.0 l -1.0,1.2246467991473535e-16 l 6.123233995736769e-17,1.0 l 1.0,-2.465190328815662e-32 l 6.123233995736769e-17,1.0 l 1.0,-2.465190328815662e-32 l 6.123233995736764e-17,-1.0 l 6.123233995736764e-17,-1.0 l 1.0,-2.465190328815662e-32 l 6.123233995736769e-17,1.0 l 1.0,-2.465190328815662e-32 l 6.123233995736764e-17,-1.0 l 1.0,-2.465190328815662e-32 l 6.123233995736764e-17,-1.0 l -1.0,-1.224646799147353e-16 l -1.0,-1.224646799147353e-16 l 6.123233995736764e-17,-1.0 l 1.0,-2.465190328815662e-32 l 6.123233995736764e-17,-1.0 l 6.123233995736764e-17,-1.0 l 1.0,-2.465190328815662e-32 l 6.123233995736764e-17,-1.0 l -1.0,-1.224646799147353e-16 l -1.0,-1.224646799147353e-16 l 6.123233995736764e-17,-1.0 l 1.0,-2.465190328815662e-32 l 6.123233995736764e-17,-1.0 l 1.0,-2.465190328815662e-32 l 6.123233995736769e-17,1.0 l 1.0,-2.465190328815662e-32 l 6.123233995736764e-17,-1.0 l 6.123233995736764e-17,-1.0 l 1.0,-2.465190328815662e-32 l 6.123233995736769e-17,1.0 l 1.0,-2.465190328815662e-32 l 6.123233995736769e-17,1.0 l -1.0,1.2246467991473535e-16 l 6.123233995736769e-17,1.0 l 1.0,-2.465190328815662e-32 l 1.0,-2.465190328815662e-32 l 6.123233995736769e-17,1.0 l -1.0,1.2246467991473535e-16 l 6.123233995736769e-17,1.0 l 1.0,-2.465190328815662e-32 l 6.123233995736769e-17,1.0 l 1.0,-2.465190328815662e-32 l 6.123233995736764e-17,-1.0 l 6.123233995736764e-17,-1.0 l 1.0,-2.465190328815662e-32 l 6.123233995736769e-17,1.0 l 1.0,-2.465190328815662e-32 l 1.0,-2.465190328815662e-32 l 6.123233995736769e-17,1.0 l 1.0,-2.465190328815662e-32 l 6.123233995736764e-17,-1.0 l 6.123233995736764e-17,-1.0 l 1.0,-2.465190328815662e-32 l 6.123233995736769e-17,1.0 l 1.0,-2.465190328815662e-32 l 6.123233995736769e-17,1.0 l -1.0,1.2246467991473535e-16 l 6.123233995736769e-17,1.0 l 1.0,-2.465190328815662e-32 l 1.0,-2.465190328815662e-32 l 6.123233995736769e-17,1.0 l -1.0,1.2246467991473535e-16 l 6.123233995736769e-17,1.0 l 1.0,-2.465190328815662e-32 l 6.123233995736769e-17,1.0 l 1.0,-2.465190328815662e-32 l 6.123233995736764e-17,-1.0 l 6.123233995736764e-17,-1.0 l 1.0,-2.465190328815662e-32 l 6.123233995736769e-17,1.0 l 1.0,-2.465190328815662e-32 l 6.123233995736764e-17,-1.0 l 1.0,-2.465190328815662e-32 l 6.123233995736764e-17,-1.0 l -1.0,-1.224646799147353e-16 l -1.0,-1.224646799147353e-16 l 6.123233995736764e-17,-1.0 l 1.0,-2.465190328815662e-32 l 6.123233995736764e-17,-1.0 l 6.123233995736764e-17,-1.0 l 1.0,-2.465190328815662e-32 l 6.123233995736764e-17,-1.0 l -1.0,-1.224646799147353e-16 l -1.0,-1.224646799147353e-16 l 6.123233995736764e-17,-1.0 l 1.0,-2.465190328815662e-32 l 6.123233995736764e-17,-1.0 l 1.0,-2.465190328815662e-32 l 6.123233995736769e-17,1.0 l 1.0,-2.465190328815662e-32 l 6.123233995736764e-17,-1.0 l 6.123233995736764e-17,-1.0 l 1.0,-2.465190328815662e-32 l 6.123233995736769e-17,1.0 l 1.0,-2.465190328815662e-32 l 6.123233995736769e-17,1.0 l -1.0,1.2246467991473535e-16 l 6.123233995736769e-17,1.0 l 1.0,-2.465190328815662e-32 l 1.0,-2.465190328815662e-32 l 6.123233995736769e-17,1.0 l -1.0,1.2246467991473535e-16 l 6.123233995736769e-17,1.0 l 1.0,-2.465190328815662e-32 l 6.123233995736769e-17,1.0 l 1.0,-2.465190328815662e-32 l 6.123233995736764e-17,-1.0 l 6.123233995736764e-17,-1.0 l 1.0,-2.465190328815662e-32 l 6.123233995736769e-17,1.0 l 1.0,-2.465190328815662e-32 l 6.123233995736769e-17,1.0 l -1.0,1.2246467991473535e-16 l 6.123233995736769e-17,1.0 l 1.0,-2.465190328815662e-32 l 1.0,-2.465190328815662e-32 l 6.123233995736769e-17,1.0 l -1.0,1.2246467991473535e-16 l 6.123233995736769e-17,1.0 l -1.0,1.2246467991473535e-16 l -1.8369701987210302e-16,-1.0 l -1.0,1.2246467991473535e-16 l 6.123233995736769e-17,1.0 l 6.123233995736769e-17,1.0 l -1.0,1.2246467991473535e-16 l -1.8369701987210302e-16,-1.0 l -1.0,1.2246467991473535e-16 l 6.123233995736769e-17,1.0 l -1.0,1.2246467991473535e-16 l 6.123233995736769e-17,1.0 l 1.0,-2.465190328815662e-32 l 1.0,-2.465190328815662e-32 l 6.123233995736769e-17,1.0 l -1.0,1.2246467991473535e-16 l 6.123233995736769e-17,1.0 l 1.0,-2.465190328815662e-32 l 6.123233995736769e-17,1.0 l 1.0,-2.465190328815662e-32 l 6.123233995736764e-17,-1.0 l 6.123233995736764e-17,-1.0 l 1.0,-2.465190328815662e-32 l 6.123233995736769e-17,1.0 l 1.0,-2.465190328815662e-32 l 1.0,-2.465190328815662e-32 l 6.123233995736769e-17,1.0 l 1.0,-2.465190328815662e-32 l 6.123233995736764e-17,-1.0 l 6.123233995736764e-17,-1.0 l 1.0,-2.465190328815662e-32 l 6.123233995736769e-17,1.0 l 1.0,-2.465190328815662e-32 l 6.123233995736769e-17,1.0 l -1.0,1.2246467991473535e-16 l 6.123233995736769e-17,1.0 l 1.0,-2.465190328815662e-32 l 1.0,-2.465190328815662e-32 l 6.123233995736769e-17,1.0 l -1.0,1.2246467991473535e-16 l 6.123233995736769e-17,1.0 l -1.0,1.2246467991473535e-16 l -1.8369701987210302e-16,-1.0 l -1.0,1.2246467991473535e-16 l 6.123233995736769e-17,1.0 l 6.123233995736769e-17,1.0 l -1.0,1.2246467991473535e-16 l -1.8369701987210302e-16,-1.0 l -1.0,1.2246467991473535e-16 l 6.123233995736769e-17,1.0 l -1.0,1.2246467991473535e-16 l 6.123233995736769e-17,1.0 l 1.0,-2.465190328815662e-32 l 1.0,-2.465190328815662e-32 l 6.123233995736769e-17,1.0 l -1.0,1.2246467991473535e-16 l 6.123233995736769e-17,1.0 l -1.0,1.2246467991473535e-16 l -1.8369701987210302e-16,-1.0 l -1.0,1.2246467991473535e-16 l 6.123233995736769e-17,1.0 l 6.123233995736769e-17,1.0 l -1.0,1.2246467991473535e-16 l -1.8369701987210302e-16,-1.0 l -1.0,1.2246467991473535e-16 l -1.8369701987210302e-16,-1.0 l 1.0,-2.449293598294707e-16 l -1.8369701987210302e-16,-1.0 l -1.0,1.2246467991473535e-16 l -1.0,1.2246467991473535e-16 l -1.8369701987210302e-16,-1.0 l 1.0,-2.449293598294707e-16 l -1.8369701987210302e-16,-1.0 l -1.0,1.2246467991473535e-16 l -1.8369701987210302e-16,-1.0 l -1.0,1.2246467991473535e-16 l 6.123233995736769e-17,1.0 l 6.123233995736769e-17,1.0 l -1.0,1.2246467991473535e-16 l -1.8369701987210302e-16,-1.0 l -1.0,1.2246467991473535e-16 l 6.123233995736769e-17,1.0 l -1.0,1.2246467991473535e-16 l 6.123233995736769e-17,1.0 l 1.0,-2.465190328815662e-32 l 1.0,-2.465190328815662e-32 l 6.123233995736769e-17,1.0 l -1.0,1.2246467991473535e-16 l 6.123233995736769e-17,1.0 l 6.123233995736769e-17,1.0 l -1.0,1.2246467991473535e-16 l 6.123233995736769e-17,1.0 l 1.0,-2.465190328815662e-32 l 1.0,-2.465190328815662e-32 l 6.123233995736769e-17,1.0 l -1.0,1.2246467991473535e-16 l 6.123233995736769e-17,1.0 l -1.0,1.2246467991473535e-16 l -1.8369701987210302e-16,-1.0 l -1.0,1.2246467991473535e-16 l 6.123233995736769e-17,1.0 l 6.123233995736769e-17,1.0 l -1.0,1.2246467991473535e-16 l -1.8369701987210302e-16,-1.0 l -1.0,1.2246467991473535e-16 l -1.8369701987210302e-16,-1.0 l 1.0,-2.449293598294707e-16 l -1.8369701987210302e-16,-1.0 l -1.0,1.2246467991473535e-16 l -1.0,1.2246467991473535e-16 l -1.8369701987210302e-16,-1.0 l 1.0,-2.449293598294707e-16 l -1.8369701987210302e-16,-1.0 l -1.0,1.2246467991473535e-16 l -1.8369701987210302e-16,-1.0 l -1.0,1.2246467991473535e-16 l 6.123233995736769e-17,1.0 l 6.123233995736769e-17,1.0 l -1.0,1.2246467991473535e-16 l -1.8369701987210302e-16,-1.0 l -1.0,1.2246467991473535e-16 l 6.123233995736769e-17,1.0 l -1.0,1.2246467991473535e-16 l 6.123233995736769e-17,1.0 l 1.0,-2.465190328815662e-32 l 1.0,-2.465190328815662e-32 l 6.123233995736769e-17,1.0 l -1.0,1.2246467991473535e-16 l 6.123233995736769e-17,1.0 l -1.0,1.2246467991473535e-16 l -1.8369701987210302e-16,-1.0 l -1.0,1.2246467991473535e-16 l 6.123233995736769e-17,1.0 l 6.123233995736769e-17,1.0 l -1.0,1.2246467991473535e-16 l -1.8369701987210302e-16,-1.0 l -1.0,1.2246467991473535e-16 l 6.123233995736769e-17,1.0 l -1.0,1.2246467991473535e-16 l 6.123233995736769e-17,1.0 l 1.0,-2.465190328815662e-32 l 1.0,-2.465190328815662e-32 l 6.123233995736769e-17,1.0 l -1.0,1.2246467991473535e-16 l 6.123233995736769e-17,1.0 l 1.0,-2.465190328815662e-32 l 6.123233995736769e-17,1.0 l 1.0,-2.465190328815662e-32 l 6.123233995736764e-17,-1.0 l 6.123233995736764e-17,-1.0 l 1.0,-2.465190328815662e-32 l 6.123233995736769e-17,1.0 l 1.0,-2.465190328815662e-32 l 1.0,-2.465190328815662e-32 l 6.123233995736769e-17,1.0 l 1.0,-2.465190328815662e-32 l 6.123233995736764e-17,-1.0 l 6.123233995736764e-17,-1.0 l 1.0,-2.465190328815662e-32 l 6.123233995736769e-17,1.0 l 1.0,-2.465190328815662e-32 l 6.123233995736769e-17,1.0 l -1.0,1.2246467991473535e-16 l 6.123233995736769e-17,1.0 l 1.0,-2.465190328815662e-32 l 1.0,-2.465190328815662e-32 l 6.123233995736769e-17,1.0 l -1.0,1.2246467991473535e-16 l 6.123233995736769e-17,1.0 l -1.0,1.2246467991473535e-16 l -1.8369701987210302e-16,-1.0 l -1.0,1.2246467991473535e-16 l 6.123233995736769e-17,1.0 l 6.123233995736769e-17,1.0 l -1.0,1.2246467991473535e-16 l -1.8369701987210302e-16,-1.0 l -1.0,1.2246467991473535e-16 l 6.123233995736769e-17,1.0 l -1.0,1.2246467991473535e-16 l 6.123233995736769e-17,1.0 l 1.0,-2.465190328815662e-32 l 1.0,-2.465190328815662e-32 l 6.123233995736769e-17,1.0 l -1.0,1.2246467991473535e-16 l 6.123233995736769e-17,1.0 l -1.0,1.2246467991473535e-16 l -1.8369701987210302e-16,-1.0 l -1.0,1.2246467991473535e-16 l 6.123233995736769e-17,1.0 l 6.123233995736769e-17,1.0 l -1.0,1.2246467991473535e-16 l -1.8369701987210302e-16,-1.0 l -1.0,1.2246467991473535e-16 l -1.8369701987210302e-16,-1.0 l 1.0,-2.449293598294707e-16 l -1.8369701987210302e-16,-1.0 l -1.0,1.2246467991473535e-16 l -1.0,1.2246467991473535e-16 l -1.8369701987210302e-16,-1.0 l 1.0,-2.449293598294707e-16 l -1.8369701987210302e-16,-1.0 l -1.0,1.2246467991473535e-16 l -1.8369701987210302e-16,-1.0 l -1.0,1.2246467991473535e-16 l 6.123233995736769e-17,1.0 l 6.123233995736769e-17,1.0 l -1.0,1.2246467991473535e-16 l -1.8369701987210302e-16,-1.0 l -1.0,1.2246467991473535e-16 l 6.123233995736769e-17,1.0 l -1.0,1.2246467991473535e-16 l 6.123233995736769e-17,1.0 l 1.0,-2.465190328815662e-32 l 1.0,-2.465190328815662e-32 l 6.123233995736769e-17,1.0 l -1.0,1.2246467991473535e-16 l 6.123233995736769e-17,1.0 l 6.123233995736769e-17,1.0 l -1.0,1.2246467991473535e-16 l 6.123233995736769e-17,1.0 l 1.0,-2.465190328815662e-32 l 1.0,-2.465190328815662e-32 l 6.123233995736769e-17,1.0 l -1.0,1.2246467991473535e-16 l 6.123233995736769e-17,1.0 l -1.0,1.2246467991473535e-16 l -1.8369701987210302e-16,-1.0 l -1.0,1.2246467991473535e-16 l 6.123233995736769e-17,1.0 l 6.123233995736769e-17,1.0 l -1.0,1.2246467991473535e-16 l -1.8369701987210302e-16,-1.0 l -1.0,1.2246467991473535e-16 l -1.8369701987210302e-16,-1.0 l 1.0,-2.449293598294707e-16 l -1.8369701987210302e-16,-1.0 l -1.0,1.2246467991473535e-16 l -1.0,1.2246467991473535e-16 l -1.8369701987210302e-16,-1.0 l 1.0,-2.449293598294707e-16 l -1.8369701987210302e-16,-1.0 l -1.0,1.2246467991473535e-16 l -1.8369701987210302e-16,-1.0 l -1.0,1.2246467991473535e-16 l 6.123233995736769e-17,1.0 l 6.123233995736769e-17,1.0 l -1.0,1.2246467991473535e-16 l -1.8369701987210302e-16,-1.0 l -1.0,1.2246467991473535e-16 l -1.8369701987210302e-16,-1.0 l 1.0,-2.449293598294707e-16 l -1.8369701987210302e-16,-1.0 l -1.0,1.2246467991473535e-16 l -1.0,1.2246467991473535e-16 l -1.8369701987210302e-16,-1.0 l 1.0,-2.449293598294707e-16 l -1.8369701987210302e-16,-1.0 l 1.0,-2.449293598294707e-16 l 3.0616169978683836e-16,1.0 l 1.0,-2.449293598294707e-16 l -1.8369701987210302e-16,-1.0 l -1.8369701987210302e-16,-1.0 l 1.0,-2.449293598294707e-16 l 3.0616169978683836e-16,1.0 l 1.0,-2.449293598294707e-16 l -1.8369701987210302e-16,-1.0 l 1.0,-2.449293598294707e-16 l -1.8369701987210302e-16,-1.0 l -1.0,1.2246467991473535e-16 l -1.0,1.2246467991473535e-16 l -1.8369701987210302e-16,-1.0 l 1.0,-2.449293598294707e-16 l -1.8369701987210302e-16,-1.0 l -1.0,1.2246467991473535e-16 l -1.8369701987210302e-16,-1.0 l -1.0,1.2246467991473535e-16 l 6.123233995736769e-17,1.0 l 6.123233995736769e-17,1.0 l -1.0,1.2246467991473535e-16 l -1.8369701987210302e-16,-1.0 l -1.0,1.2246467991473535e-16 l -1.0,1.2246467991473535e-16 l -1.8369701987210302e-16,-1.0 l -1.0,1.2246467991473535e-16 l 6.123233995736769e-17,1.0 l 6.123233995736769e-17,1.0 l -1.0,1.2246467991473535e-16 l -1.8369701987210302e-16,-1.0 l -1.0,1.2246467991473535e-16 l -1.8369701987210302e-16,-1.0 l 1.0,-2.449293598294707e-16 l -1.8369701987210302e-16,-1.0 l -1.0,1.2246467991473535e-16 l -1.0,1.2246467991473535e-16 l -1.8369701987210302e-16,-1.0 l 1.0,-2.449293598294707e-16 l -1.8369701987210302e-16,-1.0 l 1.0,-2.449293598294707e-16 l 3.0616169978683836e-16,1.0 l 1.0,-2.449293598294707e-16 l -1.8369701987210302e-16,-1.0 l -1.8369701987210302e-16,-1.0 l 1.0,-2.449293598294707e-16 l 3.0616169978683836e-16,1.0 l 1.0,-2.449293598294707e-16 l -1.8369701987210302e-16,-1.0 l 1.0,-2.449293598294707e-16 l -1.8369701987210302e-16,-1.0 l -1.0,1.2246467991473535e-16 l -1.0,1.2246467991473535e-16 l -1.8369701987210302e-16,-1.0 l 1.0,-2.449293598294707e-16 l -1.8369701987210302e-16,-1.0 l -1.0,1.2246467991473535e-16 l -1.8369701987210302e-16,-1.0 l -1.0,1.2246467991473535e-16 l 6.123233995736769e-17,1.0 l 6.123233995736769e-17,1.0 l -1.0,1.2246467991473535e-16 l -1.8369701987210302e-16,-1.0 l -1.0,1.2246467991473535e-16 l -1.8369701987210302e-16,-1.0 l 1.0,-2.449293598294707e-16 l -1.8369701987210302e-16,-1.0 l -1.0,1.2246467991473535e-16 l -1.0,1.2246467991473535e-16 l -1.8369701987210302e-16,-1.0 l 1.0,-2.449293598294707e-16 l -1.8369701987210302e-16,-1.0 l -1.0,1.2246467991473535e-16 l -1.8369701987210302e-16,-1.0 l -1.0,1.2246467991473535e-16 l 6.123233995736769e-17,1.0 l 6.123233995736769e-17,1.0 l -1.0,1.2246467991473535e-16 l -1.8369701987210302e-16,-1.0 l -1.0,1.2246467991473535e-16 l 6.123233995736769e-17,1.0 l -1.0,1.2246467991473535e-16 l 6.123233995736769e-17,1.0 l 1.0,-2.465190328815662e-32 l 1.0,-2.465190328815662e-32 l 6.123233995736769e-17,1.0 l -1.0,1.2246467991473535e-16 l 6.123233995736769e-17,1.0 l 6.123233995736769e-17,1.0 l -1.0,1.2246467991473535e-16 l 6.123233995736769e-17,1.0 l 1.0,-2.465190328815662e-32 l 1.0,-2.465190328815662e-32 l 6.123233995736769e-17,1.0 l -1.0,1.2246467991473535e-16 l 6.123233995736769e-17,1.0 l -1.0,1.2246467991473535e-16 l -1.8369701987210302e-16,-1.0 l -1.0,1.2246467991473535e-16 l 6.123233995736769e-17,1.0 l 6.123233995736769e-17,1.0 l -1.0,1.2246467991473535e-16 l -1.8369701987210302e-16,-1.0 l -1.0,1.2246467991473535e-16 l -1.8369701987210302e-16,-1.0 l 1.0,-2.449293598294707e-16 l -1.8369701987210302e-16,-1.0 l -1.0,1.2246467991473535e-16 l -1.0,1.2246467991473535e-16 l -1.8369701987210302e-16,-1.0 l 1.0,-2.449293598294707e-16 l -1.8369701987210302e-16,-1.0 l -1.0,1.2246467991473535e-16 l -1.8369701987210302e-16,-1.0 l -1.0,1.2246467991473535e-16 l 6.123233995736769e-17,1.0 l 6.123233995736769e-17,1.0 l -1.0,1.2246467991473535e-16 l -1.8369701987210302e-16,-1.0 l -1.0,1.2246467991473535e-16 l 6.123233995736769e-17,1.0 l -1.0,1.2246467991473535e-16 l 6.123233995736769e-17,1.0 l 1.0,-2.465190328815662e-32 l 1.0,-2.465190328815662e-32 l 6.123233995736769e-17,1.0 l -1.0,1.2246467991473535e-16 l 6.123233995736769e-17,1.0 l -1.0,1.2246467991473535e-16 l -1.8369701987210302e-16,-1.0 l -1.0,1.2246467991473535e-16 l 6.123233995736769e-17,1.0 l 6.123233995736769e-17,1.0 l -1.0,1.2246467991473535e-16 l -1.8369701987210302e-16,-1.0 l -1.0,1.2246467991473535e-16 l 6.123233995736769e-17,1.0 l -1.0,1.2246467991473535e-16 l 6.123233995736769e-17,1.0 l 1.0,-2.465190328815662e-32 l 1.0,-2.465190328815662e-32 l 6.123233995736769e-17,1.0 l -1.0,1.2246467991473535e-16 l 6.123233995736769e-17,1.0 l 1.0,-2.465190328815662e-32 l 6.123233995736769e-17,1.0 l 1.0,-2.465190328815662e-32 l 6.123233995736764e-17,-1.0 l 6.123233995736764e-17,-1.0 l 1.0,-2.465190328815662e-32 l 6.123233995736769e-17,1.0 l 1.0,-2.465190328815662e-32 l 1.0,-2.465190328815662e-32 l 6.123233995736769e-17,1.0 l 1.0,-2.465190328815662e-32 l 6.123233995736764e-17,-1.0 l 6.123233995736764e-17,-1.0 l 1.0,-2.465190328815662e-32 l 6.123233995736769e-17,1.0 l 1.0,-2.465190328815662e-32 l 6.123233995736769e-17,1.0 l -1.0,1.2246467991473535e-16 l 6.123233995736769e-17,1.0 l 1.0,-2.465190328815662e-32 l 1.0,-2.465190328815662e-32 l 6.123233995736769e-17,1.0 l -1.0,1.2246467991473535e-16 l 6.123233995736769e-17,1.0 l -1.0,1.2246467991473535e-16 l -1.8369701987210302e-16,-1.0 l -1.0,1.2246467991473535e-16 l 6.123233995736769e-17,1.0 l 6.123233995736769e-17,1.0 l -1.0,1.2246467991473535e-16 l -1.8369701987210302e-16,-1.0 l -1.0,1.2246467991473535e-16 l 6.123233995736769e-17,1.0 l -1.0,1.2246467991473535e-16 l 6.123233995736769e-17,1.0 l 1.0,-2.465190328815662e-32 l 1.0,-2.465190328815662e-32 l 6.123233995736769e-17,1.0 l -1.0,1.2246467991473535e-16 l 6.123233995736769e-17,1.0 l 6.123233995736769e-17,1.0 l -1.0,1.2246467991473535e-16 l 6.123233995736769e-17,1.0 l 1.0,-2.465190328815662e-32 l 1.0,-2.465190328815662e-32 l 6.123233995736769e-17,1.0 l -1.0,1.2246467991473535e-16 l 6.123233995736769e-17,1.0 l -1.0,1.2246467991473535e-16 l -1.8369701987210302e-16,-1.0 l -1.0,1.2246467991473535e-16 l 6.123233995736769e-17,1.0 l 6.123233995736769e-17,1.0 l -1.0,1.2246467991473535e-16 l -1.8369701987210302e-16,-1.0 l -1.0,1.2246467991473535e-16 l 6.123233995736769e-17,1.0 l -1.0,1.2246467991473535e-16 l 6.123233995736769e-17,1.0 l 1.0,-2.465190328815662e-32 l 1.0,-2.465190328815662e-32 l 6.123233995736769e-17,1.0 l -1.0,1.2246467991473535e-16 l 6.123233995736769e-17,1.0 l 1.0,-2.465190328815662e-32 l 6.123233995736769e-17,1.0 l 1.0,-2.465190328815662e-32 l 6.123233995736764e-17,-1.0 l 6.123233995736764e-17,-1.0 l 1.0,-2.465190328815662e-32 l 6.123233995736769e-17,1.0 l 1.0,-2.465190328815662e-32 l 1.0,-2.465190328815662e-32 l 6.123233995736769e-17,1.0 l 1.0,-2.465190328815662e-32 l 6.123233995736764e-17,-1.0 l 6.123233995736764e-17,-1.0 l 1.0,-2.465190328815662e-32 l 6.123233995736769e-17,1.0 l 1.0,-2.465190328815662e-32 l 6.123233995736769e-17,1.0 l -1.0,1.2246467991473535e-16 l 6.123233995736769e-17,1.0 l 1.0,-2.465190328815662e-32 l 1.0,-2.465190328815662e-32 l 6.123233995736769e-17,1.0 l -1.0,1.2246467991473535e-16 l 6.123233995736769e-17,1.0 l -1.0,1.2246467991473535e-16 l -1.8369701987210302e-16,-1.0 l -1.0,1.2246467991473535e-16 l 6.123233995736769e-17,1.0 l 6.123233995736769e-17,1.0 l -1.0,1.2246467991473535e-16 l -1.8369701987210302e-16,-1.0 l -1.0,1.2246467991473535e-16 l 6.123233995736769e-17,1.0 l -1.0,1.2246467991473535e-16 l 6.123233995736769e-17,1.0 l 1.0,-2.465190328815662e-32 l 1.0,-2.465190328815662e-32 l 6.123233995736769e-17,1.0 l -1.0,1.2246467991473535e-16 l 6.123233995736769e-17,1.0 l -1.0,1.2246467991473535e-16 l -1.8369701987210302e-16,-1.0 l -1.0,1.2246467991473535e-16 l 6.123233995736769e-17,1.0 l 6.123233995736769e-17,1.0 l -1.0,1.2246467991473535e-16 l -1.8369701987210302e-16,-1.0 l -1.0,1.2246467991473535e-16 l -1.8369701987210302e-16,-1.0 l 1.0,-2.449293598294707e-16 l -1.8369701987210302e-16,-1.0 l -1.0,1.2246467991473535e-16 l -1.0,1.2246467991473535e-16 l -1.8369701987210302e-16,-1.0 l 1.0,-2.449293598294707e-16 l -1.8369701987210302e-16,-1.0 l -1.0,1.2246467991473535e-16 l -1.8369701987210302e-16,-1.0 l -1.0,1.2246467991473535e-16 l 6.123233995736769e-17,1.0 l 6.123233995736769e-17,1.0 l -1.0,1.2246467991473535e-16 l -1.8369701987210302e-16,-1.0 l -1.0,1.2246467991473535e-16 l 6.123233995736769e-17,1.0 l -1.0,1.2246467991473535e-16 l 6.123233995736769e-17,1.0 l 1.0,-2.465190328815662e-32 l 1.0,-2.465190328815662e-32 l 6.123233995736769e-17,1.0 l -1.0,1.2246467991473535e-16 l 6.123233995736769e-17,1.0 l 6.123233995736769e-17,1.0 l -1.0,1.2246467991473535e-16 l 6.123233995736769e-17,1.0 l 1.0,-2.465190328815662e-32 l 1.0,-2.465190328815662e-32 l 6.123233995736769e-17,1.0 l -1.0,1.2246467991473535e-16 l 6.123233995736769e-17,1.0 l -1.0,1.2246467991473535e-16 l -1.8369701987210302e-16,-1.0 l -1.0,1.2246467991473535e-16 l 6.123233995736769e-17,1.0 l 6.123233995736769e-17,1.0 l -1.0,1.2246467991473535e-16 l -1.8369701987210302e-16,-1.0 l -1.0,1.2246467991473535e-16 l -1.8369701987210302e-16,-1.0 l 1.0,-2.449293598294707e-16 l -1.8369701987210302e-16,-1.0 l -1.0,1.2246467991473535e-16 l -1.0,1.2246467991473535e-16 l -1.8369701987210302e-16,-1.0 l 1.0,-2.449293598294707e-16 l -1.8369701987210302e-16,-1.0 l -1.0,1.2246467991473535e-16 l -1.8369701987210302e-16,-1.0 l -1.0,1.2246467991473535e-16 l 6.123233995736769e-17,1.0 l 6.123233995736769e-17,1.0 l -1.0,1.2246467991473535e-16 l -1.8369701987210302e-16,-1.0 l -1.0,1.2246467991473535e-16 l -1.8369701987210302e-16,-1.0 l 1.0,-2.449293598294707e-16 l -1.8369701987210302e-16,-1.0 l -1.0,1.2246467991473535e-16 l -1.0,1.2246467991473535e-16 l -1.8369701987210302e-16,-1.0 l 1.0,-2.449293598294707e-16 l -1.8369701987210302e-16,-1.0 l 1.0,-2.449293598294707e-16 l 3.0616169978683836e-16,1.0 l 1.0,-2.449293598294707e-16 l -1.8369701987210302e-16,-1.0 l -1.8369701987210302e-16,-1.0 l 1.0,-2.449293598294707e-16 l 3.0616169978683836e-16,1.0 l 1.0,-2.449293598294707e-16 l -1.8369701987210302e-16,-1.0 l 1.0,-2.449293598294707e-16 l -1.8369701987210302e-16,-1.0 l -1.0,1.2246467991473535e-16 l -1.0,1.2246467991473535e-16 l -1.8369701987210302e-16,-1.0 l 1.0,-2.449293598294707e-16 l -1.8369701987210302e-16,-1.0 l -1.0,1.2246467991473535e-16 l -1.8369701987210302e-16,-1.0 l -1.0,1.2246467991473535e-16 l 6.123233995736769e-17,1.0 l 6.123233995736769e-17,1.0 l -1.0,1.2246467991473535e-16 l -1.8369701987210302e-16,-1.0 l -1.0,1.2246467991473535e-16 l -1.0,1.2246467991473535e-16 l -1.8369701987210302e-16,-1.0 l -1.0,1.2246467991473535e-16 l 6.123233995736769e-17,1.0 l 6.123233995736769e-17,1.0 l -1.0,1.2246467991473535e-16 l -1.8369701987210302e-16,-1.0 l -1.0,1.2246467991473535e-16 l -1.8369701987210302e-16,-1.0 l 1.0,-2.449293598294707e-16 l -1.8369701987210302e-16,-1.0 l -1.0,1.2246467991473535e-16 l -1.0,1.2246467991473535e-16 l -1.8369701987210302e-16,-1.0 l 1.0,-2.449293598294707e-16 l -1.8369701987210302e-16,-1.0 l 1.0,-2.449293598294707e-16 l 3.0616169978683836e-16,1.0 l 1.0,-2.449293598294707e-16 l -1.8369701987210302e-16,-1.0 l -1.8369701987210302e-16,-1.0 l 1.0,-2.449293598294707e-16 l 3.0616169978683836e-16,1.0 l 1.0,-2.449293598294707e-16 l -1.8369701987210302e-16,-1.0 l 1.0,-2.449293598294707e-16 l -1.8369701987210302e-16,-1.0 l -1.0,1.2246467991473535e-16 l -1.0,1.2246467991473535e-16 l -1.8369701987210302e-16,-1.0 l 1.0,-2.449293598294707e-16 l -1.8369701987210302e-16,-1.0 l -1.0,1.2246467991473535e-16 l -1.8369701987210302e-16,-1.0 l -1.0,1.2246467991473535e-16 l 6.123233995736769e-17,1.0 l 6.123233995736769e-17,1.0 l -1.0,1.2246467991473535e-16 l -1.8369701987210302e-16,-1.0 l -1.0,1.2246467991473535e-16 l -1.8369701987210302e-16,-1.0 l 1.0,-2.449293598294707e-16 l -1.8369701987210302e-16,-1.0 l -1.0,1.2246467991473535e-16 l -1.0,1.2246467991473535e-16 l -1.8369701987210302e-16,-1.0 l 1.0,-2.449293598294707e-16 l -1.8369701987210302e-16,-1.0 l -1.0,1.2246467991473535e-16 l -1.8369701987210302e-16,-1.0 l -1.0,1.2246467991473535e-16 l 6.123233995736769e-17,1.0 l 6.123233995736769e-17,1.0 l -1.0,1.2246467991473535e-16 l -1.8369701987210302e-16,-1.0 l -1.0,1.2246467991473535e-16 l 6.123233995736769e-17,1.0 l -1.0,1.2246467991473535e-16 l 6.123233995736769e-17,1.0 l 1.0,-2.465190328815662e-32 l 1.0,-2.465190328815662e-32 l 6.123233995736769e-17,1.0 l -1.0,1.2246467991473535e-16 l 6.123233995736769e-17,1.0 l 6.123233995736769e-17,1.0 l -1.0,1.2246467991473535e-16 l 6.123233995736769e-17,1.0 l 1.0,-2.465190328815662e-32 l 1.0,-2.465190328815662e-32 l 6.123233995736769e-17,1.0 l -1.0,1.2246467991473535e-16 l 6.123233995736769e-17,1.0 l -1.0,1.2246467991473535e-16 l -1.8369701987210302e-16,-1.0 l -1.0,1.2246467991473535e-16 l 6.123233995736769e-17,1.0 l 6.123233995736769e-17,1.0 l -1.0,1.2246467991473535e-16 l -1.8369701987210302e-16,-1.0 l -1.0,1.2246467991473535e-16 l -1.8369701987210302e-16,-1.0 l 1.0,-2.449293598294707e-16 l -1.8369701987210302e-16,-1.0 l -1.0,1.2246467991473535e-16 l -1.0,1.2246467991473535e-16 l -1.8369701987210302e-16,-1.0 l 1.0,-2.449293598294707e-16 l -1.8369701987210302e-16,-1.0 l -1.0,1.2246467991473535e-16 l -1.8369701987210302e-16,-1.0 l -1.0,1.2246467991473535e-16 l 6.123233995736769e-17,1.0 l 6.123233995736769e-17,1.0 l -1.0,1.2246467991473535e-16 l -1.8369701987210302e-16,-1.0 l -1.0,1.2246467991473535e-16 " style="stroke-linecap:square;stroke:#50514F;stroke-width:0.2px;fill:none" /></g></svg>