<?xml version="1.0" encoding="UTF-8"?>
<!DOCTYPE svg PUBLIC "-//W3C//DTD SVG 1.1//EN"
    "http://www.w3.org/Graphics/SVG/1.1/DTD/svg11.dtd">
<svg xmlns="http://www.w3.org/2000/svg" xmlns:xlink="http://www.w3.org/1999/xlink" version="1.1" width="500.00000000000256" height="500" viewBox="-15.100000000000298 -5.100000000000211 25.200000000000422 25.20000000000029"><g><rect x="-15.100000000000298" y="-5.100000000000211" width="25.200000000000422" height="25.20000000000029" fill="#CBD4C2" /><path d="M 0,0 l 6.123233995736766e-17,-1.0 l 6.123233995736766e-17,-1.0 l 1.0,0.0 l 6.123233995736766e-17,-1.0 l 1.0,0.0 l 6.123233995736766e-17,1.0 l 6.123233995736766e-17,1.0 l 6.123233995736766e-17,1.0 l 6.123233995736766e-17,1.0 l -1.0,1.2246467991473532e-16 l 6.123233995736766e-17,1.0 l -1.0,1.2246467991473532e-16 l -1.8369701987210297e-16,-1.0 l -1.8369701987210297e-16,-1.0 l 1.0,-2.4492935982947064e-16 l 1.0,-2.4492935982947064e-16 l 3.061616997868383e-16,1.0 l 1.0,-2.4492935982947064e-16 l 3.061616997868383e-16,1.0 l -1.0,3.67394039744206e-16 l -1.0,3.67394039744206e-16 l 3.061616997868383e-16,1.0 l 3.061616997868383e-16,1.0 l -1.0,3.67394039744206e-16 l 3.061616997868383e-16,1.0 l -1.0,3.67394039744206e-16 l -4.2862637970157366e-16,-1.0 l -4.2862637970157366e-16,-1.0 l 1.0,-4.898587196589413e-16 l 1.0,-4.898587196589413e-16 l 5.51091059616309e-16,1.0 l 1.0,-4.898587196589413e-16 l 5.51091059616309e-16,1.0 l -1.0,6.123233995736766e-16 l -1.0,6.123233995736766e-16 l -6.735557395310443e-16,-1.0 l -6.735557395310443e-16,-1.0 l 1.0,-7.34788079488412e-16 l -6.735557395310443e-16,-1.0 l 1.0,-7.34788079488412e-16 l 7.960204194457796e-16,1.0 l 7.960204194457796e-16,1.0 l 7.960204194457796e-16,1.0 l 7.960204194457796e-16,1.0 l -1.0,8.572527594031473e-16 l 7.960204194457796e-16,1.0 l -1.0,8.572527594031473e-16 l -9.18485099360515e-16,-1.0 l -9.18485099360515e-16,-1.0 l -9.18485099360515e-16,-1.0 l -9.18485099360515e-16,-1.0 l 1.0,-9.797174393178826e-16 l -9.18485099360515e-16,-1.0 l 1.0,-9.797174393178826e-16 l 1.0409497792752501e-15,1.0 l 1.0409497792752501e-15,1.0 l 1.0409497792752501e-15,1.0 l 1.0409497792752501e-15,1.0 l -1.0,1.1021821192326177e-15 l 1.0409497792752501e-15,1.0 l -1.0,1.1021821192326177e-15 l -1.1634144591899853e-15,-1.0 l -1.1634144591899853e-15,-1.0 l 1.0,-1.2246467991473529e-15 l 1.0,-1.2246467991473529e-15 l 1.2858791391047204e-15,1.0 l 1.0,-1.2246467991473529e-15 l 1.2858791391047204e-15,1.0 l -1.0,1.347111479062088e-15 l -1.0,1.347111479062088e-15 l 1.2858791391047204e-15,1.0 l 1.2858791391047204e-15,1.0 l -1.0,1.347111479062088e-15 l 1.2858791391047204e-15,1.0 l -1.0,1.347111479062088e-15 l -1.4083438190194556e-15,-1.0 l -1.4083438190194556e-15,-1.0 l 1.0,-1.4695761589768232e-15 l 1.0,-1.4695761589768232e-15 l 1.5308084989341907e-15,1.0 l 1.0,-1.4695761589768232e-15 l 1.5308084989341907e-15,1.0 l -1.0,1.5920408388915583e-15 l -1.0,1.5920408388915583e-15 l -1.6532731788489259e-15,-1.0 l -1.6532731788489259e-15,-1.0 l 1.0,-1.7145055188062935e-15 l -1.6532731788489259e-15,-1.0 l 1.0,-1.7145055188062935e-15 l 1.775737858763661e-15,1.0 l 1.775737858763661e-15,1.0 l 1.775737858763661e-15,1.0 l 1.775737858763661e-15,1.0 l -1.0,1.8369701987210288e-15 l 1.7757378587636612e-15,1.0 l -1.0,1.8369701987210288e-15 l -1.8982025386783964e-15,-1.0 l -1.8982025386783964e-15,-1.0 l 1.0,-1.959434878635764e-15 l 1.0,-1.959434878635764e-15 l 2.0206672185931315e-15,1.0 l 1.0,-1.959434878635764e-15 l 2.0206672185931315e-15,1.0 l -1.0,2.081899558550499e-15 l -1.0,2.081899558550499e-15 l -1.0,2.081899558550499e-15 l -1.0,2.081899558550499e-15 l -2.1431318985078667e-15,-1.0 l -1.0,2.081899558550499e-15 l -2.1431318985078667e-15,-1.0 l 1.0,-2.2043642384652342e-15 l 1.0,-2.2043642384652342e-15 l 2.265596578422602e-15,1.0 l 2.265596578422602e-15,1.0 l -1.0,2.3268289183799694e-15 l 2.265596578422602e-15,1.0 l -1.0,2.3268289183799694e-15 l -2.388061258337337e-15,-1.0 l -2.388061258337337e-15,-1.0 l -1.0,2.3268289183799694e-15 l -1.0,2.3268289183799694e-15 l -2.388061258337337e-15,-1.0 l -1.0,2.3268289183799694e-15 l -2.388061258337337e-15,-1.0 l 1.0,-2.4492935982947045e-15 l 1.0,-2.4492935982947045e-15 l 2.510525938252072e-15,1.0 l 2.510525938252072e-15,1.0 l -1.0,2.5717582782094397e-15 l 2.510525938252072e-15,1.0 l -1.0,2.5717582782094397e-15 l -2.6329906181668073e-15,-1.0 l -2.6329906181668073e-15,-1.0 l 1.0,-2.694222958124175e-15 l 1.0,-2.694222958124175e-15 l 2.7554552980815424e-15,1.0 l 1.0,-2.694222958124175e-15 l 2.7554552980815424e-15,1.0 l -1.0,2.81668763803891e-15 l -1.0,2.81668763803891e-15 l -1.0,2.81668763803891e-15 l -1.0,2.81668763803891e-15 l -2.8779199779962776e-15,-1.0 l -1.0,2.81668763803891e-15 l -2.8779199779962776e-15,-1.0 l 1.0,-2.939152317953645e-15 l 1.0,-2.939152317953645e-15 l -2.8779199779962776e-15,-1.0 l -2.8779199779962776e-15,-1.0 l 1.0,-2.939152317953645e-15 l -2.8779199779962776e-15,-1.0 l 1.0,-2.939152317953645e-15 l 3.0003846579110127e-15,1.0 l 3.0003846579110127e-15,1.0 l 3.0003846579110127e-15,1.0 l 3.0003846579110127e-15,1.0 l -1.0,3.0616169978683803e-15 l 3.0003846579110127e-15,1.0 l -1.0,3.0616169978683803e-15 l -3.122849337825748e-15,-1.0 l -3.122849337825748e-15,-1.0 l 1.0,-3.1840816777831154e-15 l 1.0,-3.1840816777831154e-15 l 3.245314017740483e-15,1.0 l 1.0,-3.1840816777831154e-15 l 3.245314017740483e-15,1.0 l -1.0,3.3065463576978506e-15 l -1.0,3.3065463576978506e-15 l 3.245314017740483e-15,1.0 l 3.245314017740483e-15,1.0 l -1.0,3.3065463576978506e-15 l 3.245314017740483e-15,1.0 l -1.0,3.3065463576978506e-15 l -3.367778697655218e-15,-1.0 l -3.367778697655218e-15,-1.0 l 1.0,-3.4290110376125857e-15 l 1.0,-3.4290110376125857e-15 l 3.4902433775699533e-15,1.0 l 1.0,-3.4290110376125857e-15 l 3.4902433775699533e-15,1.0 l -1.0,3.551475717527321e-15 l -1.0,3.551475717527321e-15 l -3.6127080574846884e-15,-1.0 l -3.6127080574846884e-15,-1.0 l 1.0,-3.673940397442056e-15 l -3.6127080574846884e-15,-1.0 l 1.0,-3.673940397442056e-15 l 3.7351727373994236e-15,1.0 l 3.7351727373994236e-15,1.0 l 3.7351727373994236e-15,1.0 l 3.7351727373994236e-15,1.0 l -1.0,3.796405077356791e-15 l 3.7351727373994236e-15,1.0 l -1.0,3.796405077356791e-15 l -3.857637417314159e-15,-1.0 l -3.857637417314159e-15,-1.0 l 1.0,-3.918869757271526e-15 l 1.0,-3.918869757271526e-15 l 3.980102097228894e-15,1.0 l 1.0,-3.918869757271526e-15 l 3.980102097228894e-15,1.0 l -1.0,4.0413344371862615e-15 l -1.0,4.0413344371862615e-15 l -1.0,4.0413344371862615e-15 l -1.0,4.0413344371862615e-15 l -4.102566777143629e-15,-1.0 l -1.0,4.0413344371862615e-15 l -4.102566777143629e-15,-1.0 l 1.0,-4.163799117100997e-15 l 1.0,-4.163799117100997e-15 l 4.225031457058364e-15,1.0 l 4.225031457058364e-15,1.0 l -1.0,4.286263797015732e-15 l 4.225031457058364e-15,1.0 l -1.0,4.286263797015732e-15 l -4.347496136973099e-15,-1.0 l -4.347496136973099e-15,-1.0 l -1.0,4.286263797015732e-15 l -1.0,4.286263797015732e-15 l -4.347496136973099e-15,-1.0 l -1.0,4.286263797015732e-15 l -4.347496136973099e-15,-1.0 l 1.0,-4.408728476930467e-15 l 1.0,-4.408728476930467e-15 l 4.4699608168878345e-15,1.0 l 4.4699608168878345e-15,1.0 l -1.0,4.531193156845202e-15 l 4.4699608168878345e-15,1.0 l -1.0,4.531193156845202e-15 l -4.59242549680257e-15,-1.0 l -4.59242549680257e-15,-1.0 l 1.0,-4.653657836759937e-15 l 1.0,-4.653657836759937e-15 l 4.714890176717305e-15,1.0 l 1.0,-4.653657836759937e-15 l 4.714890176717305e-15,1.0 l -1.0,4.776122516674672e-15 l -1.0,4.776122516674672e-15 l -1.0,4.776122516674672e-15 l -1.0,4.776122516674672e-15 l -4.83735485663204e-15,-1.0 l -1.0,4.776122516674672e-15 l -4.83735485663204e-15,-1.0 l 1.0,-4.8985871965894075e-15 l 1.0,-4.8985871965894075e-15 l 4.959819536546775e-15,1.0 l 4.959819536546775e-15,1.0 l -1.0,5.021051876504143e-15 l 4.959819536546775e-15,1.0 l -1.0,5.021051876504143e-15 l -5.08228421646151e-15,-1.0 l -5.08228421646151e-15,-1.0 l -5.08228421646151e-15,-1.0 l -5.08228421646151e-15,-1.0 l 1.0,-5.143516556418878e-15 l -5.08228421646151e-15,-1.0 l 1.0,-5.143516556418878e-15 l 5.204748896376245e-15,1.0 l 5.204748896376245e-15,1.0 l -1.0,5.265981236333613e-15 l -1.0,5.265981236333613e-15 l -5.3272135762909805e-15,-1.0 l -1.0,5.265981236333613e-15 l -5.3272135762909805e-15,-1.0 l 1.0,-5.388445916248348e-15 l 1.0,-5.388445916248348e-15 l -5.3272135762909805e-15,-1.0 l -5.3272135762909805e-15,-1.0 l 1.0,-5.388445916248348e-15 l -5.3272135762909805e-15,-1.0 l 1.0,-5.388445916248348e-15 l 5.449678256205716e-15,1.0 l 5.449678256205716e-15,1.0 l -1.0,5.510910596163083e-15 l -1.0,5.510910596163083e-15 l -5.572142936120451e-15,-1.0 l -1.0,5.510910596163083e-15 l -5.572142936120451e-15,-1.0 l 1.0,-5.633375276077818e-15 l 1.0,-5.633375276077818e-15 l 5.694607616035186e-15,1.0 l 5.694607616035186e-15,1.0 l -1.0,5.7558399559925535e-15 l 5.694607616035186e-15,1.0 l -1.0,5.7558399559925535e-15 l -5.817072295949921e-15,-1.0 l -5.817072295949921e-15,-1.0 l -5.817072295949921e-15,-1.0 l -5.817072295949921e-15,-1.0 l 1.0,-5.878304635907289e-15 l -5.817072295949921e-15,-1.0 l 1.0,-5.878304635907289e-15 l 5.939536975864656e-15,1.0 l 5.939536975864656e-15,1.0 l 5.939536975864656e-15,1.0 l 5.939536975864656e-15,1.0 l -1.0,6.000769315822024e-15 l 5.939536975864656e-15,1.0 l -1.0,6.000769315822024e-15 l -6.0620016557793914e-15,-1.0 l -6.0620016557793914e-15,-1.0 l -6.0620016557793914e-15,-1.0 l -6.0620016557793914e-15,-1.0 l 1.0,-6.123233995736759e-15 l -6.0620016557793914e-15,-1.0 l 1.0,-6.123233995736759e-15 l 6.1844663356941266e-15,1.0 l 6.1844663356941266e-15,1.0 l -1.0,6.245698675651494e-15 l -1.0,6.245698675651494e-15 l -6.306931015608862e-15,-1.0 l -1.0,6.245698675651494e-15 l -6.306931015608862e-15,-1.0 l 1.0,-6.368163355566229e-15 l 1.0,-6.368163355566229e-15 l -6.306931015608862e-15,-1.0 l -6.306931015608862e-15,-1.0 l 1.0,-6.368163355566229e-15 l -6.306931015608862e-15,-1.0 l 1.0,-6.368163355566229e-15 l 6.429395695523597e-15,1.0 l 6.429395695523597e-15,1.0 l -1.0,6.4906280354809644e-15 l -1.0,6.4906280354809644e-15 l -6.551860375438332e-15,-1.0 l -1.0,6.4906280354809644e-15 l -6.551860375438332e-15,-1.0 l 1.0,-6.6130927153956996e-15 l 1.0,-6.6130927153956996e-15 l 6.674325055353067e-15,1.0 l 6.674325055353067e-15,1.0 l -1.0,6.735557395310435e-15 l 6.674325055353067e-15,1.0 l -1.0,6.735557395310435e-15 l -6.796789735267802e-15,-1.0 l -6.796789735267802e-15,-1.0 l -6.796789735267802e-15,-1.0 l -6.796789735267802e-15,-1.0 l 1.0,-6.85802207522517e-15 l -6.796789735267802e-15,-1.0 l 1.0,-6.85802207522517e-15 l 6.9192544151825374e-15,1.0 l 6.9192544151825374e-15,1.0 l -1.0,6.980486755139905e-15 l -1.0,6.980486755139905e-15 l -7.0417190950972726e-15,-1.0 l -1.0,6.980486755139905e-15 l -7.0417190950972726e-15,-1.0 l 1.0,-7.10295143505464e-15 l 1.0,-7.10295143505464e-15 l 1.0,-7.10295143505464e-15 l 1.0,-7.10295143505464e-15 l 7.164183775012008e-15,1.0 l 1.0,-7.10295143505464e-15 l 7.164183775012008e-15,1.0 l -1.0,7.225416114969375e-15 l -1.0,7.225416114969375e-15 l -7.286648454926743e-15,-1.0 l -7.286648454926743e-15,-1.0 l 1.0,-7.34788079488411e-15 l -7.286648454926743e-15,-1.0 l 1.0,-7.34788079488411e-15 l 7.409113134841478e-15,1.0 l 7.409113134841478e-15,1.0 l 1.0,-7.34788079488411e-15 l 1.0,-7.34788079488411e-15 l 7.409113134841478e-15,1.0 l 1.0,-7.34788079488411e-15 l 7.409113134841478e-15,1.0 l -1.0,7.470345474798846e-15 l -1.0,7.470345474798846e-15 l -7.531577814756213e-15,-1.0 l -7.531577814756213e-15,-1.0 l 1.0,-7.59281015471358e-15 l -7.531577814756213e-15,-1.0 l 1.0,-7.59281015471358e-15 l 7.654042494670948e-15,1.0 l 7.654042494670948e-15,1.0 l -1.0,7.715274834628316e-15 l -1.0,7.715274834628316e-15 l -7.776507174585683e-15,-1.0 l -1.0,7.715274834628316e-15 l -7.776507174585683e-15,-1.0 l 1.0,-7.837739514543051e-15 l 1.0,-7.837739514543051e-15 l 1.0,-7.837739514543051e-15 l 1.0,-7.837739514543051e-15 l 7.898971854500419e-15,1.0 l 1.0,-7.837739514543051e-15 l 7.898971854500419e-15,1.0 l -1.0,7.960204194457786e-15 l -1.0,7.960204194457786e-15 l -1.0,7.960204194457786e-15 l -1.0,7.960204194457786e-15 l -8.021436534415154e-15,-1.0 l -1.0,7.960204194457786e-15 l -8.021436534415154e-15,-1.0 l 1.0,-8.082668874372521e-15 l 1.0,-8.082668874372521e-15 l 1.0,-8.082668874372521e-15 l 1.0,-8.082668874372521e-15 l 8.143901214329889e-15,1.0 l 1.0,-8.082668874372521e-15 l 8.143901214329889e-15,1.0 l -1.0,8.205133554287257e-15 l -1.0,8.205133554287257e-15 l -8.266365894244624e-15,-1.0 l -8.266365894244624e-15,-1.0 l 1.0,-8.327598234201992e-15 l -8.266365894244624e-15,-1.0 l 1.0,-8.327598234201992e-15 l 8.38883057415936e-15,1.0 l 8.38883057415936e-15,1.0 l 1.0,-8.327598234201992e-15 l 1.0,-8.327598234201992e-15 l 8.38883057415936e-15,1.0 l 1.0,-8.327598234201992e-15 l 8.38883057415936e-15,1.0 l -1.0,8.450062914116727e-15 l -1.0,8.450062914116727e-15 l -8.511295254074094e-15,-1.0 l -8.511295254074094e-15,-1.0 l 1.0,-8.572527594031462e-15 l -8.511295254074094e-15,-1.0 l 1.0,-8.572527594031462e-15 l 8.63375993398883e-15,1.0 l 8.63375993398883e-15,1.0 l -1.0,8.694992273946197e-15 l -1.0,8.694992273946197e-15 l -8.756224613903565e-15,-1.0 l -1.0,8.694992273946197e-15 l -8.756224613903565e-15,-1.0 l 1.0,-8.817456953860932e-15 l 1.0,-8.817456953860932e-15 l 1.0,-8.817456953860932e-15 l 1.0,-8.817456953860932e-15 l 8.8786892938183e-15,1.0 l 1.0,-8.817456953860932e-15 l 8.8786892938183e-15,1.0 l -1.0,8.939921633775667e-15 l -1.0,8.939921633775667e-15 l -9.001153973733035e-15,-1.0 l -9.001153973733035e-15,-1.0 l 1.0,-9.062386313690403e-15 l -9.001153973733035e-15,-1.0 l 1.0,-9.062386313690403e-15 l 9.12361865364777e-15,1.0 l 9.12361865364777e-15,1.0 l 9.12361865364777e-15,1.0 l 9.12361865364777e-15,1.0 l -1.0,9.184850993605138e-15 l 9.12361865364777e-15,1.0 l -1.0,9.184850993605138e-15 l -9.246083333562505e-15,-1.0 l -9.246083333562505e-15,-1.0 l 1.0,-9.307315673519873e-15 l 1.0,-9.307315673519873e-15 l 9.36854801347724e-15,1.0 l 1.0,-9.307315673519873e-15 l 9.36854801347724e-15,1.0 l -1.0,9.429780353434608e-15 l -1.0,9.429780353434608e-15 l 9.36854801347724e-15,1.0 l 9.36854801347724e-15,1.0 l -1.0,9.429780353434608e-15 l 9.36854801347724e-15,1.0 l -1.0,9.429780353434608e-15 l -9.491012693391976e-15,-1.0 l -9.491012693391976e-15,-1.0 l 1.0,-9.552245033349343e-15 l 1.0,-9.552245033349343e-15 l 9.61347737330671e-15,1.0 l 1.0,-9.552245033349343e-15 l 9.61347737330671e-15,1.0 l -1.0,9.674709713264078e-15 l -1.0,9.674709713264078e-15 l -9.735942053221446e-15,-1.0 l -9.735942053221446e-15,-1.0 l 1.0,-9.797174393178813e-15 l -9.735942053221446e-15,-1.0 l 1.0,-9.797174393178813e-15 l 9.858406733136181e-15,1.0 l 9.858406733136181e-15,1.0 l 9.858406733136181e-15,1.0 l 9.858406733136181e-15,1.0 l -1.0,9.919639073093549e-15 l 9.858406733136181e-15,1.0 l -1.0,9.919639073093549e-15 l -9.980871413050916e-15,-1.0 l -9.980871413050916e-15,-1.0 l -1.0,9.919639073093549e-15 l -1.0,9.919639073093549e-15 l -9.980871413050916e-15,-1.0 l -1.0,9.919639073093549e-15 l -9.980871413050916e-15,-1.0 l 1.0,-1.0042103753008284e-14 l 1.0,-1.0042103753008284e-14 l 1.0,-1.0042103753008284e-14 l 1.0,-1.0042103753008284e-14 l 1.0103336092965651e-14,1.0 l 1.0,-1.0042103753008284e-14 l 1.0103336092965651e-14,1.0 l -1.0,1.0164568432923019e-14 l -1.0,1.0164568432923019e-14 l -1.0225800772880386e-14,-1.0 l -1.0225800772880386e-14,-1.0 l 1.0,-1.0287033112837754e-14 l -1.0225800772880386e-14,-1.0 l 1.0,-1.0287033112837754e-14 l 1.0348265452795122e-14,1.0 l 1.0348265452795122e-14,1.0 l 1.0,-1.0287033112837754e-14 l 1.0,-1.0287033112837754e-14 l 1.0348265452795122e-14,1.0 l 1.0,-1.0287033112837754e-14 l 1.0348265452795122e-14,1.0 l -1.0,1.0409497792752489e-14 l -1.0,1.0409497792752489e-14 l -1.0470730132709857e-14,-1.0 l -1.0470730132709857e-14,-1.0 l 1.0,-1.0531962472667224e-14 l -1.0470730132709857e-14,-1.0 l 1.0,-1.0531962472667224e-14 l 1.0593194812624592e-14,1.0 l 1.0593194812624592e-14,1.0 l -1.0,1.065442715258196e-14 l -1.0,1.065442715258196e-14 l -1.0715659492539327e-14,-1.0 l -1.0,1.065442715258196e-14 l -1.0715659492539327e-14,-1.0 l 1.0,-1.0776891832496695e-14 l 1.0,-1.0776891832496695e-14 l 1.0,-1.0776891832496695e-14 l 1.0,-1.0776891832496695e-14 l 1.0838124172454062e-14,1.0 l 1.0,-1.0776891832496695e-14 l 1.0838124172454062e-14,1.0 l -1.0,1.089935651241143e-14 l -1.0,1.089935651241143e-14 l -1.0960588852368797e-14,-1.0 l -1.0960588852368797e-14,-1.0 l 1.0,-1.1021821192326165e-14 l -1.0960588852368797e-14,-1.0 l 1.0,-1.1021821192326165e-14 l 1.1083053532283532e-14,1.0 l 1.1083053532283532e-14,1.0 l 1.1083053532283532e-14,1.0 l 1.1083053532283532e-14,1.0 l -1.0,1.11442858722409e-14 l 1.1083053532283532e-14,1.0 l -1.0,1.11442858722409e-14 l -1.1205518212198268e-14,-1.0 l -1.1205518212198268e-14,-1.0 l 1.0,-1.1266750552155635e-14 l 1.0,-1.1266750552155635e-14 l 1.1327982892113003e-14,1.0 l 1.0,-1.1266750552155635e-14 l 1.1327982892113003e-14,1.0 l -1.0,1.138921523207037e-14 l -1.0,1.138921523207037e-14 l 1.1327982892113003e-14,1.0 l 1.1327982892113003e-14,1.0 l -1.0,1.138921523207037e-14 l 1.1327982892113003e-14,1.0 l -1.0,1.138921523207037e-14 l -1.1450447572027738e-14,-1.0 l -1.1450447572027738e-14,-1.0 l 1.0,-1.1511679911985106e-14 l 1.0,-1.1511679911985106e-14 l 1.1572912251942473e-14,1.0 l 1.0,-1.1511679911985106e-14 l 1.1572912251942473e-14,1.0 l -1.0,1.163414459189984e-14 l -1.0,1.163414459189984e-14 l -1.1695376931857208e-14,-1.0 l -1.1695376931857208e-14,-1.0 l 1.0,-1.1756609271814576e-14 l -1.1695376931857208e-14,-1.0 l 1.0,-1.1756609271814576e-14 l 1.1817841611771943e-14,1.0 l 1.1817841611771943e-14,1.0 l 1.1817841611771943e-14,1.0 l 1.1817841611771943e-14,1.0 l -1.0,1.1879073951729311e-14 l 1.1817841611771943e-14,1.0 l -1.0,1.1879073951729311e-14 l -1.1940306291686679e-14,-1.0 l -1.1940306291686679e-14,-1.0 l 1.0,-1.2001538631644046e-14 l 1.0,-1.2001538631644046e-14 l 1.2062770971601414e-14,1.0 l 1.0,-1.2001538631644046e-14 l 1.2062770971601414e-14,1.0 l -1.0,1.2124003311558781e-14 l -1.0,1.2124003311558781e-14 l -1.0,1.2124003311558781e-14 l -1.0,1.2124003311558781e-14 l -1.2185235651516149e-14,-1.0 l -1.0,1.2124003311558781e-14 l -1.2185235651516149e-14,-1.0 l 1.0,-1.2246467991473516e-14 l 1.0,-1.2246467991473516e-14 l 1.2307700331430884e-14,1.0 l 1.2307700331430884e-14,1.0 l -1.0,1.2368932671388252e-14 l 1.2307700331430884e-14,1.0 l -1.0,1.2368932671388252e-14 l -1.2430165011345619e-14,-1.0 l -1.2430165011345619e-14,-1.0 l -1.0,1.2368932671388252e-14 l -1.0,1.2368932671388252e-14 l -1.2430165011345619e-14,-1.0 l -1.0,1.2368932671388252e-14 l -1.2430165011345619e-14,-1.0 l 1.0,-1.2491397351302987e-14 l 1.0,-1.2491397351302987e-14 l 1.2552629691260354e-14,1.0 l 1.2552629691260354e-14,1.0 l -1.0,1.2613862031217722e-14 l 1.2552629691260354e-14,1.0 l -1.0,1.2613862031217722e-14 l -1.267509437117509e-14,-1.0 l -1.267509437117509e-14,-1.0 l 1.0,-1.2736326711132457e-14 l 1.0,-1.2736326711132457e-14 l 1.2797559051089825e-14,1.0 l 1.0,-1.2736326711132457e-14 l 1.2797559051089825e-14,1.0 l -1.0,1.2858791391047192e-14 l -1.0,1.2858791391047192e-14 l -1.0,1.2858791391047192e-14 l -1.0,1.2858791391047192e-14 l -1.292002373100456e-14,-1.0 l -1.0,1.2858791391047192e-14 l -1.292002373100456e-14,-1.0 l 1.0,-1.2981256070961927e-14 l 1.0,-1.2981256070961927e-14 l 1.0,-1.2981256070961927e-14 l 1.0,-1.2981256070961927e-14 l 1.3042488410919295e-14,1.0 l 1.0,-1.2981256070961927e-14 l 1.3042488410919295e-14,1.0 l -1.0,1.3103720750876662e-14 l -1.0,1.3103720750876662e-14 l -1.0,1.3103720750876662e-14 l -1.0,1.3103720750876662e-14 l -1.316495309083403e-14,-1.0 l -1.0,1.3103720750876662e-14 l -1.316495309083403e-14,-1.0 l 1.0,-1.3226185430791398e-14 l 1.0,-1.3226185430791398e-14 l 1.3287417770748765e-14,1.0 l 1.3287417770748765e-14,1.0 l -1.0,1.3348650110706133e-14 l 1.3287417770748765e-14,1.0 l -1.0,1.3348650110706133e-14 l -1.34098824506635e-14,-1.0 l -1.34098824506635e-14,-1.0 l -1.0,1.3348650110706133e-14 l -1.0,1.3348650110706133e-14 l -1.34098824506635e-14,-1.0 l -1.0,1.3348650110706133e-14 l -1.34098824506635e-14,-1.0 l 1.0,-1.3471114790620868e-14 l 1.0,-1.3471114790620868e-14 l 1.3532347130578235e-14,1.0 l 1.3532347130578235e-14,1.0 l -1.0,1.3593579470535603e-14 l 1.3532347130578235e-14,1.0 l -1.0,1.3593579470535603e-14 l -1.365481181049297e-14,-1.0 l -1.365481181049297e-14,-1.0 l 1.0,-1.3716044150450338e-14 l 1.0,-1.3716044150450338e-14 l 1.3777276490407706e-14,1.0 l 1.0,-1.3716044150450338e-14 l 1.3777276490407706e-14,1.0 l -1.0,1.3838508830365073e-14 l -1.0,1.3838508830365073e-14 l -1.0,1.3838508830365073e-14 l -1.0,1.3838508830365073e-14 l -1.3899741170322441e-14,-1.0 l -1.0,1.3838508830365073e-14 l -1.3899741170322441e-14,-1.0 l 1.0,-1.3960973510279808e-14 l 1.0,-1.3960973510279808e-14 l 1.4022205850237176e-14,1.0 l 1.4022205850237176e-14,1.0 l -1.0,1.4083438190194544e-14 l 1.4022205850237176e-14,1.0 l -1.0,1.4083438190194544e-14 l -1.4144670530151911e-14,-1.0 l -1.4144670530151911e-14,-1.0 l -1.4144670530151911e-14,-1.0 l -1.4144670530151911e-14,-1.0 l 1.0,-1.4205902870109279e-14 l -1.4144670530151911e-14,-1.0 l 1.0,-1.4205902870109279e-14 l 1.4267135210066648e-14,1.0 l 1.4267135210066648e-14,1.0 l -1.0,1.4328367550024015e-14 l -1.0,1.4328367550024015e-14 l -1.4389599889981383e-14,-1.0 l -1.0,1.4328367550024015e-14 l -1.4389599889981383e-14,-1.0 l 1.0,-1.445083222993875e-14 l 1.0,-1.445083222993875e-14 l -1.4389599889981383e-14,-1.0 l -1.4389599889981383e-14,-1.0 l 1.0,-1.445083222993875e-14 l -1.4389599889981383e-14,-1.0 l 1.0,-1.445083222993875e-14 l 1.4512064569896118e-14,1.0 l 1.4512064569896118e-14,1.0 l -1.0,1.4573296909853486e-14 l -1.0,1.4573296909853486e-14 l -1.4634529249810853e-14,-1.0 l -1.0,1.4573296909853486e-14 l -1.4634529249810853e-14,-1.0 l 1.0,-1.469576158976822e-14 l 1.0,-1.469576158976822e-14 l 1.475699392972559e-14,1.0 l 1.475699392972559e-14,1.0 l -1.0,1.4818226269682956e-14 l 1.475699392972559e-14,1.0 l -1.0,1.4818226269682956e-14 l -1.4879458609640324e-14,-1.0 l -1.4879458609640324e-14,-1.0 l -1.4879458609640324e-14,-1.0 l -1.4879458609640324e-14,-1.0 l 1.0,-1.494069094959769e-14 l -1.4879458609640324e-14,-1.0 l 1.0,-1.494069094959769e-14 l 1.500192328955506e-14,1.0 l 1.500192328955506e-14,1.0 l 1.500192328955506e-14,1.0 l 1.500192328955506e-14,1.0 l -1.0,1.5063155629512426e-14 l 1.500192328955506e-14,1.0 l -1.0,1.5063155629512426e-14 l -1.5124387969469794e-14,-1.0 l -1.5124387969469794e-14,-1.0 l -1.5124387969469794e-14,-1.0 l -1.5124387969469794e-14,-1.0 l 1.0,-1.518562030942716e-14 l -1.5124387969469794e-14,-1.0 l 1.0,-1.518562030942716e-14 l 1.524685264938453e-14,1.0 l 1.524685264938453e-14,1.0 l -1.0,1.5308084989341897e-14 l -1.0,1.5308084989341897e-14 l -1.5369317329299264e-14,-1.0 l -1.0,1.5308084989341897e-14 l -1.5369317329299264e-14,-1.0 l 1.0,-1.5430549669256632e-14 l 1.0,-1.5430549669256632e-14 l -1.5369317329299264e-14,-1.0 l -1.5369317329299264e-14,-1.0 l 1.0,-1.5430549669256632e-14 l -1.5369317329299264e-14,-1.0 l 1.0,-1.5430549669256632e-14 l 1.5491782009214e-14,1.0 l 1.5491782009214e-14,1.0 l -1.0,1.5553014349171367e-14 l -1.0,1.5553014349171367e-14 l -1.5614246689128735e-14,-1.0 l -1.0,1.5553014349171367e-14 l -1.5614246689128735e-14,-1.0 l 1.0,-1.5675479029086102e-14 l 1.0,-1.5675479029086102e-14 l 1.573671136904347e-14,1.0 l 1.573671136904347e-14,1.0 l -1.0,1.5797943709000837e-14 l 1.573671136904347e-14,1.0 l -1.0,1.5797943709000837e-14 l -1.5859176048958205e-14,-1.0 l -1.5859176048958205e-14,-1.0 l -1.5859176048958205e-14,-1.0 l -1.5859176048958205e-14,-1.0 l 1.0,-1.5920408388915572e-14 l -1.5859176048958205e-14,-1.0 l 1.0,-1.5920408388915572e-14 l 1.598164072887294e-14,1.0 l 1.598164072887294e-14,1.0 l -1.0,1.6042873068830308e-14 l -1.0,1.6042873068830308e-14 l -1.6104105408787675e-14,-1.0 l -1.0,1.6042873068830308e-14 l -1.6104105408787675e-14,-1.0 l 1.0,-1.6165337748745043e-14 l 1.0,-1.6165337748745043e-14 l 1.0,-1.6165337748745043e-14 l 1.0,-1.6165337748745043e-14 l 1.622657008870241e-14,1.0 l 1.0,-1.6165337748745043e-14 l 1.622657008870241e-14,1.0 l -1.0,1.6287802428659778e-14 l -1.0,1.6287802428659778e-14 l -1.6349034768617145e-14,-1.0 l -1.6349034768617145e-14,-1.0 l 1.0,-1.6410267108574513e-14 l -1.6349034768617145e-14,-1.0 l 1.0,-1.6410267108574513e-14 l 1.647149944853188e-14,1.0 l 1.647149944853188e-14,1.0 l 1.0,-1.6410267108574513e-14 l 1.0,-1.6410267108574513e-14 l 1.647149944853188e-14,1.0 l 1.0,-1.6410267108574513e-14 l 1.647149944853188e-14,1.0 l -1.0,1.6532731788489248e-14 l -1.0,1.6532731788489248e-14 l -1.6593964128446616e-14,-1.0 l -1.6593964128446616e-14,-1.0 l 1.0,-1.6655196468403983e-14 l -1.6593964128446616e-14,-1.0 l 1.0,-1.6655196468403983e-14 l 1.671642880836135e-14,1.0 l 1.671642880836135e-14,1.0 l -1.0,1.677766114831872e-14 l -1.0,1.677766114831872e-14 l -1.6838893488276086e-14,-1.0 l -1.0,1.677766114831872e-14 l -1.6838893488276086e-14,-1.0 l 1.0,-1.6900125828233454e-14 l 1.0,-1.6900125828233454e-14 l 1.0,-1.6900125828233454e-14 l 1.0,-1.6900125828233454e-14 l 1.696135816819082e-14,1.0 l 1.0,-1.6900125828233454e-14 l 1.696135816819082e-14,1.0 l -1.0,1.702259050814819e-14 l -1.0,1.702259050814819e-14 l 1.696135816819082e-14,1.0 l 1.696135816819082e-14,1.0 l -1.0,1.702259050814819e-14 l 1.696135816819082e-14,1.0 l -1.0,1.702259050814819e-14 l -1.7083822848105556e-14,-1.0 l -1.7083822848105556e-14,-1.0 l -1.7083822848105556e-14,-1.0 l -1.7083822848105556e-14,-1.0 l 1.0,-1.7145055188062924e-14 l -1.7083822848105556e-14,-1.0 l 1.0,-1.7145055188062924e-14 l 1.720628752802029e-14,1.0 l 1.720628752802029e-14,1.0 l -1.0,1.726751986797766e-14 l -1.0,1.726751986797766e-14 l -1.7328752207935027e-14,-1.0 l -1.0,1.726751986797766e-14 l -1.7328752207935027e-14,-1.0 l 1.0,-1.7389984547892394e-14 l 1.0,-1.7389984547892394e-14 l -1.7328752207935027e-14,-1.0 l -1.7328752207935027e-14,-1.0 l 1.0,-1.7389984547892394e-14 l -1.7328752207935027e-14,-1.0 l 1.0,-1.7389984547892394e-14 l 1.7451216887849762e-14,1.0 l 1.7451216887849762e-14,1.0 l -1.0,1.751244922780713e-14 l -1.0,1.751244922780713e-14 l -1.7573681567764497e-14,-1.0 l -1.0,1.751244922780713e-14 l -1.7573681567764497e-14,-1.0 l 1.0,-1.7634913907721864e-14 l 1.0,-1.7634913907721864e-14 l 1.7696146247679232e-14,1.0 l 1.7696146247679232e-14,1.0 l -1.0,1.77573785876366e-14 l 1.7696146247679232e-14,1.0 l -1.0,1.77573785876366e-14 l -1.7818610927593967e-14,-1.0 l -1.7818610927593967e-14,-1.0 l -1.7818610927593967e-14,-1.0 l -1.7818610927593967e-14,-1.0 l 1.0,-1.7879843267551335e-14 l -1.7818610927593967e-14,-1.0 l 1.0,-1.7879843267551335e-14 l 1.7941075607508702e-14,1.0 l 1.7941075607508702e-14,1.0 l -1.0,1.800230794746607e-14 l -1.0,1.800230794746607e-14 l -1.8063540287423438e-14,-1.0 l -1.0,1.800230794746607e-14 l -1.8063540287423438e-14,-1.0 l 1.0,-1.8124772627380805e-14 l 1.0,-1.8124772627380805e-14 l 1.0,-1.8124772627380805e-14 l 1.0,-1.8124772627380805e-14 l 1.8186004967338173e-14,1.0 l 1.0,-1.8124772627380805e-14 l 1.8186004967338173e-14,1.0 l -1.0,1.824723730729554e-14 l -1.0,1.824723730729554e-14 l -1.8308469647252908e-14,-1.0 l -1.8308469647252908e-14,-1.0 l 1.0,-1.8369701987210275e-14 l -1.8308469647252908e-14,-1.0 l 1.0,-1.8369701987210275e-14 l 1.8430934327167643e-14,1.0 l 1.8430934327167643e-14,1.0 l 1.0,-1.8369701987210275e-14 l 1.0,-1.8369701987210275e-14 l 1.8430934327167643e-14,1.0 l 1.0,-1.8369701987210275e-14 l 1.8430934327167643e-14,1.0 l -1.0,1.849216666712501e-14 l -1.0,1.849216666712501e-14 l -1.8553399007082378e-14,-1.0 l -1.8553399007082378e-14,-1.0 l 1.0,-1.8614631347039746e-14 l -1.8553399007082378e-14,-1.0 l 1.0,-1.8614631347039746e-14 l 1.8675863686997113e-14,1.0 l 1.8675863686997113e-14,1.0 l -1.0,1.873709602695448e-14 l -1.0,1.873709602695448e-14 l -1.8798328366911848e-14,-1.0 l -1.0,1.873709602695448e-14 l -1.8798328366911848e-14,-1.0 l 1.0,-1.8859560706869216e-14 l 1.0,-1.8859560706869216e-14 l 1.0,-1.8859560706869216e-14 l 1.0,-1.8859560706869216e-14 l 1.8920793046826584e-14,1.0 l 1.0,-1.8859560706869216e-14 l 1.8920793046826584e-14,1.0 l -1.0,1.898202538678395e-14 l -1.0,1.898202538678395e-14 l -1.904325772674132e-14,-1.0 l -1.904325772674132e-14,-1.0 l 1.0,-1.9104490066698686e-14 l -1.904325772674132e-14,-1.0 l 1.0,-1.9104490066698686e-14 l 1.9165722406656054e-14,1.0 l 1.9165722406656054e-14,1.0 l 1.9165722406656054e-14,1.0 l 1.9165722406656054e-14,1.0 l -1.0,1.922695474661342e-14 l 1.9165722406656054e-14,1.0 l -1.0,1.922695474661342e-14 l -1.928818708657079e-14,-1.0 l -1.928818708657079e-14,-1.0 l 1.0,-1.9349419426528157e-14 l 1.0,-1.9349419426528157e-14 l 1.9410651766485524e-14,1.0 l 1.0,-1.9349419426528157e-14 l 1.9410651766485524e-14,1.0 l -1.0,1.9471884106442892e-14 l -1.0,1.9471884106442892e-14 l 1.9410651766485524e-14,1.0 l 1.9410651766485524e-14,1.0 l -1.0,1.9471884106442892e-14 l 1.9410651766485524e-14,1.0 l -1.0,1.9471884106442892e-14 l -1.953311644640026e-14,-1.0 l -1.953311644640026e-14,-1.0 l 1.0,-1.9594348786357627e-14 l 1.0,-1.9594348786357627e-14 l 1.9655581126314994e-14,1.0 l 1.0,-1.9594348786357627e-14 l 1.9655581126314994e-14,1.0 l -1.0,1.9716813466272362e-14 l -1.0,1.9716813466272362e-14 l -1.977804580622973e-14,-1.0 l -1.977804580622973e-14,-1.0 l 1.0,-1.9839278146187097e-14 l -1.977804580622973e-14,-1.0 l 1.0,-1.9839278146187097e-14 l 1.9900510486144465e-14,1.0 l 1.9900510486144465e-14,1.0 l 1.9900510486144465e-14,1.0 l 1.9900510486144465e-14,1.0 l -1.0,1.9961742826101832e-14 l 1.9900510486144465e-14,1.0 l -1.0,1.9961742826101832e-14 l -2.00229751660592e-14,-1.0 l -2.00229751660592e-14,-1.0 l -2.00229751660592e-14,-1.0 l -2.00229751660592e-14,-1.0 l 1.0,-2.0084207506016567e-14 l -2.00229751660592e-14,-1.0 l 1.0,-2.0084207506016567e-14 l 2.0145439845973935e-14,1.0 l 2.0145439845973935e-14,1.0 l 2.0145439845973935e-14,1.0 l 2.0145439845973935e-14,1.0 l -1.0,2.0206672185931303e-14 l 2.0145439845973935e-14,1.0 l -1.0,2.0206672185931303e-14 l -2.026790452588867e-14,-1.0 l -2.026790452588867e-14,-1.0 l 1.0,-2.0329136865846038e-14 l 1.0,-2.0329136865846038e-14 l 2.0390369205803405e-14,1.0 l 1.0,-2.0329136865846038e-14 l 2.0390369205803405e-14,1.0 l -1.0,2.0451601545760773e-14 l -1.0,2.0451601545760773e-14 l 2.0390369205803405e-14,1.0 l 2.0390369205803405e-14,1.0 l -1.0,2.0451601545760773e-14 l 2.0390369205803405e-14,1.0 l -1.0,2.0451601545760773e-14 l -2.051283388571814e-14,-1.0 l -2.051283388571814e-14,-1.0 l 1.0,-2.0574066225675508e-14 l 1.0,-2.0574066225675508e-14 l 2.0635298565632876e-14,1.0 l 1.0,-2.0574066225675508e-14 l 2.0635298565632876e-14,1.0 l -1.0,2.0696530905590243e-14 l -1.0,2.0696530905590243e-14 l -2.075776324554761e-14,-1.0 l -2.075776324554761e-14,-1.0 l 1.0,-2.0818995585504978e-14 l -2.075776324554761e-14,-1.0 l 1.0,-2.0818995585504978e-14 l 2.0880227925462346e-14,1.0 l 2.0880227925462346e-14,1.0 l 2.0880227925462346e-14,1.0 l 2.0880227925462346e-14,1.0 l -1.0,2.0941460265419713e-14 l 2.0880227925462346e-14,1.0 l -1.0,2.0941460265419713e-14 l -2.100269260537708e-14,-1.0 l -2.100269260537708e-14,-1.0 l 1.0,-2.106392494533445e-14 l 1.0,-2.106392494533445e-14 l 2.1125157285291816e-14,1.0 l 1.0,-2.106392494533445e-14 l 2.1125157285291816e-14,1.0 l -1.0,2.1186389625249184e-14 l -1.0,2.1186389625249184e-14 l -1.0,2.1186389625249184e-14 l -1.0,2.1186389625249184e-14 l -2.124762196520655e-14,-1.0 l -1.0,2.1186389625249184e-14 l -2.124762196520655e-14,-1.0 l 1.0,-2.130885430516392e-14 l 1.0,-2.130885430516392e-14 l 2.1370086645121287e-14,1.0 l 2.1370086645121287e-14,1.0 l -1.0,2.1431318985078654e-14 l 2.1370086645121287e-14,1.0 l -1.0,2.1431318985078654e-14 l -2.1492551325036022e-14,-1.0 l -2.1492551325036022e-14,-1.0 l -1.0,2.1431318985078654e-14 l -1.0,2.1431318985078654e-14 l -2.1492551325036022e-14,-1.0 l -1.0,2.1431318985078654e-14 l -2.1492551325036022e-14,-1.0 l 1.0,-2.155378366499339e-14 l 1.0,-2.155378366499339e-14 l 2.1615016004950757e-14,1.0 l 2.1615016004950757e-14,1.0 l -1.0,2.1676248344908124e-14 l 2.1615016004950757e-14,1.0 l -1.0,2.1676248344908124e-14 l -2.1737480684865492e-14,-1.0 l -2.1737480684865492e-14,-1.0 l 1.0,-2.179871302482286e-14 l 1.0,-2.179871302482286e-14 l 2.1859945364780227e-14,1.0 l 1.0,-2.179871302482286e-14 l 2.1859945364780227e-14,1.0 l -1.0,2.1921177704737595e-14 l -1.0,2.1921177704737595e-14 l -1.0,2.1921177704737595e-14 l -1.0,2.1921177704737595e-14 l -2.1982410044694962e-14,-1.0 l -1.0,2.1921177704737595e-14 l -2.1982410044694962e-14,-1.0 l 1.0,-2.204364238465233e-14 l 1.0,-2.204364238465233e-14 l 1.0,-2.204364238465233e-14 l 1.0,-2.204364238465233e-14 l 2.2104874724609697e-14,1.0 l 1.0,-2.204364238465233e-14 l 2.2104874724609697e-14,1.0 l -1.0,2.2166107064567065e-14 l -1.0,2.2166107064567065e-14 l -1.0,2.2166107064567065e-14 l -1.0,2.2166107064567065e-14 l -2.2227339404524433e-14,-1.0 l -1.0,2.2166107064567065e-14 l -2.2227339404524433e-14,-1.0 l 1.0,-2.22885717444818e-14 l 1.0,-2.22885717444818e-14 l 2.2349804084439168e-14,1.0 l 2.2349804084439168e-14,1.0 l -1.0,2.2411036424396535e-14 l 2.2349804084439168e-14,1.0 l -1.0,2.2411036424396535e-14 l -2.2472268764353903e-14,-1.0 l -2.2472268764353903e-14,-1.0 l -1.0,2.2411036424396535e-14 l -1.0,2.2411036424396535e-14 l -2.2472268764353903e-14,-1.0 l -1.0,2.2411036424396535e-14 l -2.2472268764353903e-14,-1.0 l 1.0,-2.253350110431127e-14 l 1.0,-2.253350110431127e-14 l 2.2594733444268638e-14,1.0 l 2.2594733444268638e-14,1.0 l -1.0,2.2655965784226006e-14 l 2.2594733444268638e-14,1.0 l -1.0,2.2655965784226006e-14 l -2.2717198124183373e-14,-1.0 l -2.2717198124183373e-14,-1.0 l 1.0,-2.277843046414074e-14 l 1.0,-2.277843046414074e-14 l 2.2839662804098108e-14,1.0 l 1.0,-2.277843046414074e-14 l 2.2839662804098108e-14,1.0 l -1.0,2.2900895144055476e-14 l -1.0,2.2900895144055476e-14 l -1.0,2.2900895144055476e-14 l -1.0,2.2900895144055476e-14 l -2.2962127484012843e-14,-1.0 l -1.0,2.2900895144055476e-14 l -2.2962127484012843e-14,-1.0 l 1.0,-2.302335982397021e-14 l 1.0,-2.302335982397021e-14 l 2.308459216392758e-14,1.0 l 2.308459216392758e-14,1.0 l -1.0,2.3145824503884946e-14 l 2.308459216392758e-14,1.0 l -1.0,2.3145824503884946e-14 l -2.3207056843842314e-14,-1.0 l -2.3207056843842314e-14,-1.0 l -2.3207056843842314e-14,-1.0 l -2.3207056843842314e-14,-1.0 l 1.0,-2.326828918379968e-14 l -2.3207056843842314e-14,-1.0 l 1.0,-2.326828918379968e-14 l 2.332952152375705e-14,1.0 l 2.332952152375705e-14,1.0 l -1.0,2.3390753863714416e-14 l -1.0,2.3390753863714416e-14 l -2.3451986203671784e-14,-1.0 l -1.0,2.3390753863714416e-14 l -2.3451986203671784e-14,-1.0 l 1.0,-2.3513218543629152e-14 l 1.0,-2.3513218543629152e-14 l -2.3451986203671784e-14,-1.0 l -2.3451986203671784e-14,-1.0 l 1.0,-2.3513218543629152e-14 l -2.3451986203671784e-14,-1.0 l 1.0,-2.3513218543629152e-14 l 2.357445088358652e-14,1.0 l 2.357445088358652e-14,1.0 l -1.0,2.3635683223543887e-14 l -1.0,2.3635683223543887e-14 l -2.3696915563501254e-14,-1.0 l -1.0,2.3635683223543887e-14 l -2.3696915563501254e-14,-1.0 l 1.0,-2.3758147903458622e-14 l 1.0,-2.3758147903458622e-14 l 2.381938024341599e-14,1.0 l 2.381938024341599e-14,1.0 l -1.0,2.3880612583373357e-14 l 2.381938024341599e-14,1.0 l -1.0,2.3880612583373357e-14 l -2.3941844923330725e-14,-1.0 l -2.3941844923330725e-14,-1.0 l -2.3941844923330725e-14,-1.0 l -2.3941844923330725e-14,-1.0 l 1.0,-2.4003077263288092e-14 l -2.3941844923330725e-14,-1.0 l 1.0,-2.4003077263288092e-14 l 2.406430960324546e-14,1.0 l 2.406430960324546e-14,1.0 l 1.0,-2.4003077263288092e-14 l 1.0,-2.4003077263288092e-14 l 2.406430960324546e-14,1.0 l 1.0,-2.4003077263288092e-14 l 2.406430960324546e-14,1.0 l -1.0,2.4125541943202827e-14 l -1.0,2.4125541943202827e-14 l -1.0,2.4125541943202827e-14 l -1.0,2.4125541943202827e-14 l -2.4186774283160195e-14,-1.0 l -1.0,2.4125541943202827e-14 l -2.4186774283160195e-14,-1.0 l 1.0,-2.4248006623117562e-14 l 1.0,-2.4248006623117562e-14 l 2.430923896307493e-14,1.0 l 2.430923896307493e-14,1.0 l -1.0,2.4370471303032298e-14 l 2.430923896307493e-14,1.0 l -1.0,2.4370471303032298e-14 l -2.4431703642989665e-14,-1.0 l -2.4431703642989665e-14,-1.0 l -1.0,2.4370471303032298e-14 l -1.0,2.4370471303032298e-14 l -2.4431703642989665e-14,-1.0 l -1.0,2.4370471303032298e-14 l -2.4431703642989665e-14,-1.0 l 1.0,-2.4492935982947033e-14 l 1.0,-2.4492935982947033e-14 l 2.45541683229044e-14,1.0 l 2.45541683229044e-14,1.0 l -1.0,2.4615400662861768e-14 l 2.45541683229044e-14,1.0 l -1.0,2.4615400662861768e-14 l -2.4676633002819136e-14,-1.0 l -2.4676633002819136e-14,-1.0 l 1.0,-2.4737865342776503e-14 l 1.0,-2.4737865342776503e-14 l 2.479909768273387e-14,1.0 l 1.0,-2.4737865342776503e-14 l 2.479909768273387e-14,1.0 l -1.0,2.4860330022691238e-14 l -1.0,2.4860330022691238e-14 l -1.0,2.4860330022691238e-14 l -1.0,2.4860330022691238e-14 l -2.4921562362648606e-14,-1.0 l -1.0,2.4860330022691238e-14 l -2.4921562362648606e-14,-1.0 l 1.0,-2.4982794702605973e-14 l 1.0,-2.4982794702605973e-14 l 2.504402704256334e-14,1.0 l 2.504402704256334e-14,1.0 l -1.0,2.510525938252071e-14 l 2.504402704256334e-14,1.0 l -1.0,2.510525938252071e-14 l -2.5166491722478076e-14,-1.0 l -2.5166491722478076e-14,-1.0 l -2.5166491722478076e-14,-1.0 l -2.5166491722478076e-14,-1.0 l 1.0,-2.5227724062435444e-14 l -2.5166491722478076e-14,-1.0 l 1.0,-2.5227724062435444e-14 l 2.528895640239281e-14,1.0 l 2.528895640239281e-14,1.0 l -1.0,2.535018874235018e-14 l -1.0,2.535018874235018e-14 l -2.5411421082307546e-14,-1.0 l -1.0,2.535018874235018e-14 l -2.5411421082307546e-14,-1.0 l 1.0,-2.5472653422264914e-14 l 1.0,-2.5472653422264914e-14 l -2.5411421082307546e-14,-1.0 l -2.5411421082307546e-14,-1.0 l 1.0,-2.5472653422264914e-14 l -2.5411421082307546e-14,-1.0 l 1.0,-2.5472653422264914e-14 l 2.553388576222228e-14,1.0 l 2.553388576222228e-14,1.0 l -1.0,2.559511810217965e-14 l -1.0,2.559511810217965e-14 l -2.5656350442137017e-14,-1.0 l -1.0,2.559511810217965e-14 l -2.5656350442137017e-14,-1.0 l 1.0,-2.5717582782094384e-14 l 1.0,-2.5717582782094384e-14 l 2.5778815122051752e-14,1.0 l 2.5778815122051752e-14,1.0 l -1.0,2.584004746200912e-14 l 2.5778815122051752e-14,1.0 l -1.0,2.584004746200912e-14 l -2.5901279801966487e-14,-1.0 l -2.5901279801966487e-14,-1.0 l -2.5901279801966487e-14,-1.0 l -2.5901279801966487e-14,-1.0 l 1.0,-2.5962512141923855e-14 l -2.5901279801966487e-14,-1.0 l 1.0,-2.5962512141923855e-14 l 2.6023744481881222e-14,1.0 l 2.6023744481881222e-14,1.0 l -1.0,2.608497682183859e-14 l -1.0,2.608497682183859e-14 l -2.6146209161795957e-14,-1.0 l -1.0,2.608497682183859e-14 l -2.6146209161795957e-14,-1.0 l 1.0,-2.6207441501753325e-14 l 1.0,-2.6207441501753325e-14 l 1.0,-2.6207441501753325e-14 l 1.0,-2.6207441501753325e-14 l 2.6268673841710692e-14,1.0 l 1.0,-2.6207441501753325e-14 l 2.6268673841710692e-14,1.0 l -1.0,2.632990618166806e-14 l -1.0,2.632990618166806e-14 l -2.6391138521625428e-14,-1.0 l -2.6391138521625428e-14,-1.0 l 1.0,-2.6452370861582795e-14 l -2.6391138521625428e-14,-1.0 l 1.0,-2.6452370861582795e-14 l 2.6513603201540163e-14,1.0 l 2.6513603201540163e-14,1.0 l 1.0,-2.6452370861582795e-14 l 1.0,-2.6452370861582795e-14 l 2.6513603201540163e-14,1.0 l 1.0,-2.6452370861582795e-14 l 2.6513603201540163e-14,1.0 l -1.0,2.657483554149753e-14 l -1.0,2.657483554149753e-14 l -2.6636067881454898e-14,-1.0 l -2.6636067881454898e-14,-1.0 l 1.0,-2.6697300221412265e-14 l -2.6636067881454898e-14,-1.0 l 1.0,-2.6697300221412265e-14 l 2.6758532561369633e-14,1.0 l 2.6758532561369633e-14,1.0 l -1.0,2.6819764901327e-14 l -1.0,2.6819764901327e-14 l -2.6880997241284368e-14,-1.0 l -1.0,2.6819764901327e-14 l -2.6880997241284368e-14,-1.0 l 1.0,-2.6942229581241736e-14 l 1.0,-2.6942229581241736e-14 l 1.0,-2.6942229581241736e-14 l 1.0,-2.6942229581241736e-14 l 2.7003461921199103e-14,1.0 l 1.0,-2.6942229581241736e-14 l 2.7003461921199103e-14,1.0 l -1.0,2.706469426115647e-14 l -1.0,2.706469426115647e-14 l -1.0,2.706469426115647e-14 l -1.0,2.706469426115647e-14 l -2.712592660111384e-14,-1.0 l -1.0,2.706469426115647e-14 l -2.712592660111384e-14,-1.0 l 1.0,-2.7187158941071206e-14 l 1.0,-2.7187158941071206e-14 l 1.0,-2.7187158941071206e-14 l 1.0,-2.7187158941071206e-14 l 2.7248391281028574e-14,1.0 l 1.0,-2.7187158941071206e-14 l 2.7248391281028574e-14,1.0 l -1.0,2.730962362098594e-14 l -1.0,2.730962362098594e-14 l -2.737085596094331e-14,-1.0 l -2.737085596094331e-14,-1.0 l 1.0,-2.7432088300900676e-14 l -2.737085596094331e-14,-1.0 l 1.0,-2.7432088300900676e-14 l 2.7493320640858044e-14,1.0 l 2.7493320640858044e-14,1.0 l 1.0,-2.7432088300900676e-14 l 1.0,-2.7432088300900676e-14 l 2.7493320640858044e-14,1.0 l 1.0,-2.7432088300900676e-14 l 2.7493320640858044e-14,1.0 l -1.0,2.755455298081541e-14 l -1.0,2.755455298081541e-14 l -2.761578532077278e-14,-1.0 l -2.761578532077278e-14,-1.0 l 1.0,-2.7677017660730147e-14 l -2.761578532077278e-14,-1.0 l 1.0,-2.7677017660730147e-14 l 2.7738250000687514e-14,1.0 l 2.7738250000687514e-14,1.0 l -1.0,2.7799482340644882e-14 l -1.0,2.7799482340644882e-14 l -2.786071468060225e-14,-1.0 l -1.0,2.7799482340644882e-14 l -2.786071468060225e-14,-1.0 l 1.0,-2.7921947020559617e-14 l 1.0,-2.7921947020559617e-14 l 1.0,-2.7921947020559617e-14 l 1.0,-2.7921947020559617e-14 l 2.7983179360516985e-14,1.0 l 1.0,-2.7921947020559617e-14 l 2.7983179360516985e-14,1.0 l -1.0,2.8044411700474352e-14 l -1.0,2.8044411700474352e-14 " style="stroke-linecap:square;stroke:#50514F;stroke-width:0.2px;fill:none" /></g></svg>