<?xml version="1.0" encoding="UTF-8"?>
<!DOCTYPE svg PUBLIC "-//W3C//DTD SVG 1.1//EN"
    "http://www.w3.org/Graphics/SVG/1.1/DTD/svg11.dtd">

<svg xmlns="http://www.w3.org/2000/svg" xmlns:xlink="http://www.w3.org/1999/xlink" version="1.1" width="525.7311121191334" height="500" viewBox="-2.116026908252903 -2.071478174124758 4.232053816505806 4.024922359499622">
    <g>
        <rect x="-2.116026908252903" y="-2.071478174124758" width="4.232053816505806" height="4.024922359499622" fill="#CBD4C2" />
        <path style="stroke-linecap:square;fill:none;stroke-width:0.01px;stroke:#109648" d="M 0.0,0.0 M -0.9510565162951536,-1.3090169943749475 M 0.0,0.0 " />
        <path style="stroke-linecap:square;fill:none;stroke-width:0.01px;stroke:#50514F" d="M 0.0,0.0 M -0.9510565162951536,-1.3090169943749475 " />
        <path style="stroke-linecap:square;fill:none;stroke-width:0.01px;stroke:#109648" d="M -0.9510565162951536,-1.3090169943749475 M -2.220446049250313e-16,4.440892098500626e-16 M -0.9510565162951536,-1.3090169943749475 " />
        <path style="stroke-linecap:square;fill:none;stroke-width:0.01px;stroke:#50514F" d="M -0.9510565162951536,-1.3090169943749475 M -2.220446049250313e-16,4.440892098500626e-16 " />
        <path style="stroke-linecap:square;fill:none;stroke-width:0.01px;stroke:#109648" d="M -2.220446049250313e-16,4.440892098500626e-16 M 1.1102230246251565e-16,-0.9999999999999998 M -2.220446049250313e-16,4.440892098500626e-16 " />
        <path style="stroke-linecap:square;fill:none;stroke-width:0.01px;stroke:#50514F" d="M -2.220446049250313e-16,4.440892098500626e-16 M 1.1102230246251565e-16,-0.9999999999999998 L -6.297528093776614e-17,-0.6180339887498946 L -0.3632712640026806,-0.49999999999999983 L -0.3632712640026805,-0.8819660112501051 L 5.551115123125783e-17,-0.9999999999999999 M 1.1102230246251565e-16,-0.9999999999999998 " />
        <path style="stroke-linecap:square;fill:none;stroke-width:0.01px;stroke:#50514F" d="M 1.1102230246251565e-16,-0.9999999999999998 M -6.297528093776614e-17,-0.6180339887498946 L -0.22451398828979288,-0.3090169943749472 L -0.5877852522924735,-0.19098300562505244 L -0.3632712640026806,-0.4999999999999999 L -5.551115123125783e-17,-0.6180339887498947 M -6.297528093776614e-17,-0.6180339887498946 " />
        <path style="stroke-linecap:square;fill:none;stroke-width:0.01px;stroke:#50514F" d="M -6.297528093776614e-17,-0.6180339887498946 L -0.22451398828979288,-0.3090169943749472 L -2.7755575615628914e-16,3.885780586188048e-16 L 0.22451398828979263,-0.30901699437494706 L 2.7755575615628914e-17,-0.6180339887498947 M -2.220446049250313e-16,4.440892098500626e-16 " />
        <path style="stroke-linecap:square;fill:none;stroke-width:0.01px;stroke:#50514F" d="M -2.220446049250313e-16,4.440892098500626e-16 M -0.3632712640026805,-0.4999999999999998 " />
        <path style="stroke-linecap:square;fill:none;stroke-width:0.01px;stroke:#109648" d="M -0.3632712640026805,-0.4999999999999998 M 1.1102230246251565e-16,-0.9999999999999998 M -0.3632712640026805,-0.4999999999999998 " />
        <path style="stroke-linecap:square;fill:none;stroke-width:0.01px;stroke:#50514F" d="M -0.3632712640026805,-0.4999999999999998 M 1.1102230246251565e-16,-0.9999999999999998 L -0.3632712640026804,-0.8819660112501051 L -0.36327126400268056,-0.4999999999999999 L 0.0,-0.6180339887498946 L 2.1203373015704913e-16,-0.9999999999999998 M 1.1102230246251565e-16,-0.9999999999999998 " />
        <path style="stroke-linecap:square;fill:none;stroke-width:0.01px;stroke:#50514F" d="M 1.1102230246251565e-16,-0.9999999999999998 L -0.3632712640026804,-0.8819660112501051 L -0.7265425280053608,-1.0 L -0.3632712640026803,-1.1180339887498947 L 1.6653345369377348e-16,-0.9999999999999998 M -0.3632712640026805,-0.4999999999999998 " />
        <path style="stroke-linecap:square;fill:none;stroke-width:0.01px;stroke:#109648" d="M -0.3632712640026805,-0.4999999999999998 M -0.9510565162951535,-1.3090169943749477 M -0.3632712640026805,-0.4999999999999998 " />
        <path style="stroke-linecap:square;fill:none;stroke-width:0.01px;stroke:#50514F" d="M -0.3632712640026805,-0.4999999999999998 M -0.9510565162951535,-1.3090169943749477 L -0.726542528005361,-1.0 L -0.3632712640026804,-1.1180339887498947 L -0.5877852522924729,-1.4270509831248424 L -0.9510565162951536,-1.3090169943749477 M -0.9510565162951535,-1.3090169943749477 " />
        <path style="stroke-linecap:square;fill:none;stroke-width:0.01px;stroke:#50514F" d="M -0.9510565162951535,-1.3090169943749477 M -0.726542528005361,-1.0 L -0.3632712640026805,-0.881966011250105 L 1.1102230246251565e-16,-0.9999999999999997 L -0.3632712640026804,-1.1180339887498947 L -0.726542528005361,-1.0 M -0.726542528005361,-1.0 " />
        <path style="stroke-linecap:square;fill:none;stroke-width:0.01px;stroke:#50514F" d="M -0.726542528005361,-1.0 L -0.3632712640026805,-0.881966011250105 L -0.36327126400268067,-0.4999999999999997 L -0.7265425280053612,-0.6180339887498948 L -0.726542528005361,-1.0 M -0.9510565162951536,-1.3090169943749475 " />
        <path style="stroke-linecap:square;fill:none;stroke-width:0.01px;stroke:#109648" d="M -0.9510565162951536,-1.3090169943749475 M 1.1102230246251565e-16,-1.6180339887498947 M -0.9510565162951536,-1.3090169943749475 " />
        <path style="stroke-linecap:square;fill:none;stroke-width:0.01px;stroke:#50514F" d="M -0.9510565162951536,-1.3090169943749475 M 1.1102230246251565e-16,-1.6180339887498947 " />
        <path style="stroke-linecap:square;fill:none;stroke-width:0.01px;stroke:#109648" d="M 1.1102230246251565e-16,-1.6180339887498947 M -0.9510565162951536,-1.3090169943749475 M 1.1102230246251565e-16,-1.6180339887498947 " />
        <path style="stroke-linecap:square;fill:none;stroke-width:0.01px;stroke:#50514F" d="M 1.1102230246251565e-16,-1.6180339887498947 M -0.9510565162951536,-1.3090169943749475 L -0.5877852522924731,-1.4270509831248421 L -0.36327126400268056,-1.1180339887498947 L -0.726542528005361,-0.9999999999999999 L -0.9510565162951536,-1.3090169943749475 M -0.9510565162951536,-1.3090169943749475 " />
        <path style="stroke-linecap:square;fill:none;stroke-width:0.01px;stroke:#50514F" d="M -0.9510565162951536,-1.3090169943749475 M -0.5877852522924731,-1.4270509831248421 L -0.22451398828979274,-1.3090169943749472 L -1.6653345369377348e-16,-0.9999999999999998 L -0.3632712640026806,-1.1180339887498947 L -0.5877852522924732,-1.4270509831248421 M -0.5877852522924731,-1.4270509831248421 " />
        <path style="stroke-linecap:square;fill:none;stroke-width:0.01px;stroke:#50514F" d="M -0.5877852522924731,-1.4270509831248421 L -0.22451398828979274,-1.3090169943749472 L 8.326672684688674e-17,-1.6180339887498945 L -0.3632712640026803,-1.7360679774997896 L -0.5877852522924731,-1.4270509831248424 M 1.1102230246251565e-16,-1.6180339887498947 " />
        <path style="stroke-linecap:square;fill:none;stroke-width:0.01px;stroke:#109648" d="M 1.1102230246251565e-16,-1.6180339887498947 M -2.620881039969598e-17,-0.9999999999999999 M 1.1102230246251565e-16,-1.6180339887498947 " />
        <path style="stroke-linecap:square;fill:none;stroke-width:0.01px;stroke:#50514F" d="M 1.1102230246251565e-16,-1.6180339887498947 M -2.620881039969598e-17,-0.9999999999999999 L -0.22451398828979255,-1.3090169943749475 L 2.220446049250313e-16,-1.6180339887498947 L 0.2245139882897928,-1.3090169943749472 L 5.551115123125783e-17,-0.9999999999999999 M -2.620881039969598e-17,-0.9999999999999999 " />
        <path style="stroke-linecap:square;fill:none;stroke-width:0.01px;stroke:#50514F" d="M -2.620881039969598e-17,-0.9999999999999999 L -0.22451398828979255,-1.3090169943749475 L -0.5877852522924729,-1.4270509831248424 L -0.3632712640026804,-1.1180339887498947 L 0.0,-0.9999999999999996 M 0.0,0.0 " />
        <path style="stroke-linecap:square;fill:none;stroke-width:0.01px;stroke:#109648" d="M 0.0,0.0 M 0.9510565162951536,-1.3090169943749475 M 0.0,0.0 " />
        <path style="stroke-linecap:square;fill:none;stroke-width:0.01px;stroke:#50514F" d="M 0.0,0.0 M 0.9510565162951536,-1.3090169943749475 " />
        <path style="stroke-linecap:square;fill:none;stroke-width:0.01px;stroke:#109648" d="M 0.9510565162951536,-1.3090169943749475 M -1.1102230246251565e-16,-2.220446049250313e-16 M 0.9510565162951536,-1.3090169943749475 " />
        <path style="stroke-linecap:square;fill:none;stroke-width:0.01px;stroke:#50514F" d="M 0.9510565162951536,-1.3090169943749475 M -1.1102230246251565e-16,-2.220446049250313e-16 " />
        <path style="stroke-linecap:square;fill:none;stroke-width:0.01px;stroke:#109648" d="M -1.1102230246251565e-16,-2.220446049250313e-16 M 2.220446049250313e-16,-1.0000000000000002 M -1.1102230246251565e-16,-2.220446049250313e-16 " />
        <path style="stroke-linecap:square;fill:none;stroke-width:0.01px;stroke:#50514F" d="M -1.1102230246251565e-16,-2.220446049250313e-16 M 2.220446049250313e-16,-1.0000000000000002 L 4.804702152474951e-17,-0.6180339887498951 L 0.3632712640026804,-0.5000000000000001 L 0.36327126400268056,-0.8819660112501053 L 1.6653345369377348e-16,-1.0000000000000004 M 2.220446049250313e-16,-1.0000000000000002 " />
        <path style="stroke-linecap:square;fill:none;stroke-width:0.01px;stroke:#50514F" d="M 2.220446049250313e-16,-1.0000000000000002 M 4.804702152474951e-17,-0.6180339887498951 L 0.22451398828979258,-0.3090169943749477 L 0.5877852522924729,-0.1909830056250527 L 0.3632712640026804,-0.5000000000000003 L 0.0,-0.6180339887498953 M 4.804702152474951e-17,-0.6180339887498951 " />
        <path style="stroke-linecap:square;fill:none;stroke-width:0.01px;stroke:#50514F" d="M 4.804702152474951e-17,-0.6180339887498951 L 0.22451398828979258,-0.3090169943749477 L -1.942890293094024e-16,-3.885780586188048e-16 L -0.22451398828979277,-0.30901699437494784 L -2.7755575615628914e-17,-0.6180339887498951 M -1.1102230246251565e-16,-2.220446049250313e-16 " />
        <path style="stroke-linecap:square;fill:none;stroke-width:0.01px;stroke:#50514F" d="M -1.1102230246251565e-16,-2.220446049250313e-16 M 0.36327126400268045,-0.5 " />
        <path style="stroke-linecap:square;fill:none;stroke-width:0.01px;stroke:#109648" d="M 0.36327126400268045,-0.5 M 1.6653345369377348e-16,-1.0 M 0.36327126400268045,-0.5 " />
        <path style="stroke-linecap:square;fill:none;stroke-width:0.01px;stroke:#50514F" d="M 0.36327126400268045,-0.5 M 1.6653345369377348e-16,-1.0 L 0.36327126400268056,-0.881966011250105 L 0.3632712640026804,-0.4999999999999997 L -1.6653345369377348e-16,-0.6180339887498947 L -3.9313215599544006e-17,-1.0 M 1.6653345369377348e-16,-1.0 " />
        <path style="stroke-linecap:square;fill:none;stroke-width:0.01px;stroke:#50514F" d="M 1.6653345369377348e-16,-1.0 L 0.36327126400268056,-0.881966011250105 L 0.726542528005361,-0.9999999999999997 L 0.3632712640026806,-1.1180339887498947 L 5.551115123125783e-17,-1.0 M 0.36327126400268045,-0.5 " />
        <path style="stroke-linecap:square;fill:none;stroke-width:0.01px;stroke:#109648" d="M 0.36327126400268045,-0.5 M 0.9510565162951539,-1.3090169943749472 M 0.36327126400268045,-0.5 " />
        <path style="stroke-linecap:square;fill:none;stroke-width:0.01px;stroke:#50514F" d="M 0.36327126400268045,-0.5 M 0.9510565162951539,-1.3090169943749472 L 0.7265425280053611,-1.0 L 0.3632712640026808,-1.118033988749895 L 0.5877852522924736,-1.4270509831248421 L 0.951056516295154,-1.3090169943749472 M 0.9510565162951539,-1.3090169943749472 " />
        <path style="stroke-linecap:square;fill:none;stroke-width:0.01px;stroke:#50514F" d="M 0.9510565162951539,-1.3090169943749472 M 0.7265425280053611,-1.0 L 0.3632712640026807,-0.8819660112501053 L 3.885780586188048e-16,-1.0000000000000002 L 0.36327126400268084,-1.118033988749895 L 0.7265425280053612,-0.9999999999999999 M 0.7265425280053611,-1.0 " />
        <path style="stroke-linecap:square;fill:none;stroke-width:0.01px;stroke:#50514F" d="M 0.7265425280053611,-1.0 L 0.3632712640026807,-0.8819660112501053 L 0.36327126400268056,-0.5000000000000002 L 0.726542528005361,-0.6180339887498949 L 0.7265425280053612,-1.0 M 0.9510565162951536,-1.3090169943749475 " />
        <path style="stroke-linecap:square;fill:none;stroke-width:0.01px;stroke:#109648" d="M 0.9510565162951536,-1.3090169943749475 M 1.1102230246251565e-16,-1.618033988749895 M 0.9510565162951536,-1.3090169943749475 " />
        <path style="stroke-linecap:square;fill:none;stroke-width:0.01px;stroke:#50514F" d="M 0.9510565162951536,-1.3090169943749475 M 1.1102230246251565e-16,-1.618033988749895 " />
        <path style="stroke-linecap:square;fill:none;stroke-width:0.01px;stroke:#109648" d="M 1.1102230246251565e-16,-1.618033988749895 M 0.9510565162951538,-1.3090169943749472 M 1.1102230246251565e-16,-1.618033988749895 " />
        <path style="stroke-linecap:square;fill:none;stroke-width:0.01px;stroke:#50514F" d="M 1.1102230246251565e-16,-1.618033988749895 M 0.9510565162951538,-1.3090169943749472 L 0.5877852522924734,-1.4270509831248421 L 0.3632712640026805,-1.118033988749895 L 0.7265425280053609,-0.9999999999999999 L 0.9510565162951539,-1.3090169943749472 M 0.9510565162951538,-1.3090169943749472 " />
        <path style="stroke-linecap:square;fill:none;stroke-width:0.01px;stroke:#50514F" d="M 0.9510565162951538,-1.3090169943749472 M 0.5877852522924734,-1.4270509831248421 L 0.22451398828979285,-1.3090169943749475 L 2.7755575615628914e-17,-1.0 L 0.3632712640026806,-1.1180339887498947 L 0.5877852522924736,-1.427050983124842 M 0.5877852522924734,-1.4270509831248421 " />
        <path style="stroke-linecap:square;fill:none;stroke-width:0.01px;stroke:#50514F" d="M 0.5877852522924734,-1.4270509831248421 L 0.22451398828979285,-1.3090169943749475 L 2.7755575615628914e-16,-1.618033988749895 L 0.3632712640026807,-1.7360679774997896 L 0.5877852522924734,-1.4270509831248421 M 1.1102230246251565e-16,-1.618033988749895 " />
        <path style="stroke-linecap:square;fill:none;stroke-width:0.01px;stroke:#109648" d="M 1.1102230246251565e-16,-1.618033988749895 M -2.620881039969598e-17,-1.0 M 1.1102230246251565e-16,-1.618033988749895 " />
        <path style="stroke-linecap:square;fill:none;stroke-width:0.01px;stroke:#50514F" d="M 1.1102230246251565e-16,-1.618033988749895 M -2.620881039969598e-17,-1.0 L 0.2245139882897928,-1.3090169943749475 L 1.942890293094024e-16,-1.618033988749895 L -0.22451398828979272,-1.3090169943749475 L -1.1102230246251565e-16,-0.9999999999999998 M -2.620881039969598e-17,-1.0 " />
        <path style="stroke-linecap:square;fill:none;stroke-width:0.01px;stroke:#50514F" d="M -2.620881039969598e-17,-1.0 L 0.2245139882897928,-1.3090169943749475 L 0.5877852522924734,-1.4270509831248421 L 0.3632712640026805,-1.1180339887498947 L -5.551115123125783e-17,-0.9999999999999999 M 0.0,0.0 " />
        <path style="stroke-linecap:square;fill:none;stroke-width:0.01px;stroke:#109648" d="M 0.0,0.0 M -1.5388417685876268,0.49999999999999994 M 0.0,0.0 " />
        <path style="stroke-linecap:square;fill:none;stroke-width:0.01px;stroke:#50514F" d="M 0.0,0.0 M -1.5388417685876268,0.49999999999999994 " />
        <path style="stroke-linecap:square;fill:none;stroke-width:0.01px;stroke:#109648" d="M -1.5388417685876268,0.49999999999999994 M 0.0,2.220446049250313e-16 M -1.5388417685876268,0.49999999999999994 " />
        <path style="stroke-linecap:square;fill:none;stroke-width:0.01px;stroke:#50514F" d="M -1.5388417685876268,0.49999999999999994 M 0.0,2.220446049250313e-16 " />
        <path style="stroke-linecap:square;fill:none;stroke-width:0.01px;stroke:#109648" d="M 0.0,2.220446049250313e-16 M -0.9510565162951534,-0.30901699437494745 M 0.0,2.220446049250313e-16 " />
        <path style="stroke-linecap:square;fill:none;stroke-width:0.01px;stroke:#50514F" d="M 0.0,2.220446049250313e-16 M -0.9510565162951534,-0.30901699437494745 L -0.5877852522924731,-0.1909830056250525 L -0.5877852522924732,0.1909830056250526 L -0.9510565162951536,7.294901687515763e-2 L -0.9510565162951535,-0.30901699437494745 M -0.9510565162951534,-0.30901699437494745 " />
        <path style="stroke-linecap:square;fill:none;stroke-width:0.01px;stroke:#50514F" d="M -0.9510565162951534,-0.30901699437494745 M -0.5877852522924731,-0.1909830056250525 L -0.3632712640026806,0.11803398874989496 L -0.3632712640026808,0.5 L -0.5877852522924734,0.19098300562505255 L -0.5877852522924732,-0.19098300562505255 M -0.5877852522924731,-0.1909830056250525 " />
        <path style="stroke-linecap:square;fill:none;stroke-width:0.01px;stroke:#50514F" d="M -0.5877852522924731,-0.1909830056250525 L -0.3632712640026806,0.11803398874989496 L -1.6653345369377348e-16,2.914335439641036e-16 L -0.2245139882897927,-0.30901699437494734 L -0.5877852522924732,-0.1909830056250527 M 0.0,2.220446049250313e-16 " />
        <path style="stroke-linecap:square;fill:none;stroke-width:0.01px;stroke:#50514F" d="M 0.0,2.220446049250313e-16 M -0.5877852522924731,0.1909830056250526 " />
        <path style="stroke-linecap:square;fill:none;stroke-width:0.01px;stroke:#109648" d="M -0.5877852522924731,0.1909830056250526 M -0.9510565162951534,-0.3090169943749474 M -0.5877852522924731,0.1909830056250526 " />
        <path style="stroke-linecap:square;fill:none;stroke-width:0.01px;stroke:#50514F" d="M -0.5877852522924731,0.1909830056250526 M -0.9510565162951534,-0.3090169943749474 L -0.9510565162951535,7.29490168751577e-2 L -0.5877852522924731,0.1909830056250527 L -0.5877852522924729,-0.19098300562505252 L -0.9510565162951533,-0.30901699437494756 M -0.9510565162951534,-0.3090169943749474 " />
        <path style="stroke-linecap:square;fill:none;stroke-width:0.01px;stroke:#50514F" d="M -0.9510565162951534,-0.3090169943749474 L -0.9510565162951535,7.29490168751577e-2 L -1.1755705045849463,0.381966011250105 L -1.1755705045849463,-1.1102230246251565e-16 L -0.9510565162951535,-0.30901699437494745 M -0.5877852522924731,0.1909830056250526 " />
        <path style="stroke-linecap:square;fill:none;stroke-width:0.01px;stroke:#109648" d="M -0.5877852522924731,0.1909830056250526 M -1.5388417685876268,0.4999999999999997 M -0.5877852522924731,0.1909830056250526 " />
        <path style="stroke-linecap:square;fill:none;stroke-width:0.01px;stroke:#50514F" d="M -0.5877852522924731,0.1909830056250526 M -1.5388417685876268,0.4999999999999997 L -1.1755705045849463,0.38196601125010504 L -1.175570504584946,-5.551115123125783e-17 L -1.5388417685876266,0.11803398874989461 L -1.5388417685876268,0.49999999999999983 M -1.5388417685876268,0.4999999999999997 " />
        <path style="stroke-linecap:square;fill:none;stroke-width:0.01px;stroke:#50514F" d="M -1.5388417685876268,0.4999999999999997 M -1.1755705045849463,0.38196601125010504 L -0.9510565162951535,7.294901687515776e-2 L -0.9510565162951534,-0.30901699437494734 L -1.1755705045849463,-5.551115123125783e-17 L -1.1755705045849465,0.38196601125010515 M -1.1755705045849463,0.38196601125010504 " />
        <path style="stroke-linecap:square;fill:none;stroke-width:0.01px;stroke:#50514F" d="M -1.1755705045849463,0.38196601125010504 L -0.9510565162951535,7.294901687515776e-2 L -0.5877852522924731,0.19098300562505272 L -0.8122992405822659,0.5 L -1.1755705045849463,0.38196601125010504 M -1.5388417685876268,0.49999999999999994 " />
        <path style="stroke-linecap:square;fill:none;stroke-width:0.01px;stroke:#109648" d="M -1.5388417685876268,0.49999999999999994 M -1.5388417685876266,-0.5 M -1.5388417685876268,0.49999999999999994 " />
        <path style="stroke-linecap:square;fill:none;stroke-width:0.01px;stroke:#50514F" d="M -1.5388417685876268,0.49999999999999994 M -1.5388417685876266,-0.5 " />
        <path style="stroke-linecap:square;fill:none;stroke-width:0.01px;stroke:#109648" d="M -1.5388417685876266,-0.5 M -1.5388417685876268,0.5 M -1.5388417685876266,-0.5 " />
        <path style="stroke-linecap:square;fill:none;stroke-width:0.01px;stroke:#50514F" d="M -1.5388417685876266,-0.5 M -1.5388417685876268,0.5 L -1.5388417685876266,0.1180339887498949 L -1.175570504584946,1.942890293094024e-16 L -1.175570504584946,0.3819660112501053 L -1.5388417685876266,0.5 M -1.5388417685876268,0.5 " />
        <path style="stroke-linecap:square;fill:none;stroke-width:0.01px;stroke:#50514F" d="M -1.5388417685876268,0.5 M -1.5388417685876266,0.1180339887498949 L -1.3143277802978337,-0.19098300562505238 L -0.9510565162951532,-0.3090169943749471 L -1.1755705045849458,2.220446049250313e-16 L -1.5388417685876263,0.11803398874989496 M -1.5388417685876266,0.1180339887498949 " />
        <path style="stroke-linecap:square;fill:none;stroke-width:0.01px;stroke:#50514F" d="M -1.5388417685876266,0.1180339887498949 L -1.3143277802978337,-0.19098300562505238 L -1.5388417685876261,-0.49999999999999983 L -1.763355756877419,-0.19098300562505255 L -1.5388417685876266,0.11803398874989507 M -1.5388417685876266,-0.5 " />
        <path style="stroke-linecap:square;fill:none;stroke-width:0.01px;stroke:#109648" d="M -1.5388417685876266,-0.5 M -0.9510565162951535,-0.3090169943749473 M -1.5388417685876266,-0.5 " />
        <path style="stroke-linecap:square;fill:none;stroke-width:0.01px;stroke:#50514F" d="M -1.5388417685876266,-0.5 M -0.9510565162951535,-0.3090169943749473 L -1.314327780297834,-0.19098300562505255 L -1.5388417685876266,-0.5 L -1.175570504584946,-0.6180339887498947 L -0.9510565162951534,-0.30901699437494723 M -0.9510565162951535,-0.3090169943749473 " />
        <path style="stroke-linecap:square;fill:none;stroke-width:0.01px;stroke:#50514F" d="M -0.9510565162951535,-0.3090169943749473 L -1.314327780297834,-0.19098300562505255 L -1.5388417685876268,0.11803398874989479 L -1.1755705045849463,1.3877787807814457e-16 L -0.9510565162951534,-0.30901699437494723 M 0.0,0.0 " />
        <path style="stroke-linecap:square;fill:none;stroke-width:0.01px;stroke:#109648" d="M 0.0,0.0 M -0.9510565162951536,-1.3090169943749475 M 0.0,0.0 " />
        <path style="stroke-linecap:square;fill:none;stroke-width:0.01px;stroke:#50514F" d="M 0.0,0.0 M -0.9510565162951536,-1.3090169943749475 " />
        <path style="stroke-linecap:square;fill:none;stroke-width:0.01px;stroke:#109648" d="M -0.9510565162951536,-1.3090169943749475 M -2.220446049250313e-16,2.220446049250313e-16 M -0.9510565162951536,-1.3090169943749475 " />
        <path style="stroke-linecap:square;fill:none;stroke-width:0.01px;stroke:#50514F" d="M -0.9510565162951536,-1.3090169943749475 M -2.220446049250313e-16,2.220446049250313e-16 " />
        <path style="stroke-linecap:square;fill:none;stroke-width:0.01px;stroke:#109648" d="M -2.220446049250313e-16,2.220446049250313e-16 M -0.9510565162951539,-0.30901699437494756 M -2.220446049250313e-16,2.220446049250313e-16 " />
        <path style="stroke-linecap:square;fill:none;stroke-width:0.01px;stroke:#50514F" d="M -2.220446049250313e-16,2.220446049250313e-16 M -0.9510565162951539,-0.30901699437494756 L -0.5877852522924735,-0.19098300562505255 L -0.3632712640026806,-0.49999999999999983 L -0.726542528005361,-0.6180339887498949 L -0.9510565162951539,-0.30901699437494756 M -0.9510565162951539,-0.30901699437494756 " />
        <path style="stroke-linecap:square;fill:none;stroke-width:0.01px;stroke:#50514F" d="M -0.9510565162951539,-0.30901699437494756 M -0.5877852522924735,-0.19098300562505255 L -0.22451398828979297,-0.30901699437494723 L -1.3877787807814457e-16,-0.6180339887498945 L -0.3632712640026807,-0.4999999999999998 L -0.5877852522924736,-0.19098300562505244 M -0.5877852522924735,-0.19098300562505255 " />
        <path style="stroke-linecap:square;fill:none;stroke-width:0.01px;stroke:#50514F" d="M -0.5877852522924735,-0.19098300562505255 L -0.22451398828979297,-0.30901699437494723 L -3.885780586188048e-16,2.7755575615628914e-16 L -0.3632712640026809,0.11803398874989504 L -0.5877852522924736,-0.19098300562505247 M -2.220446049250313e-16,2.220446049250313e-16 " />
        <path style="stroke-linecap:square;fill:none;stroke-width:0.01px;stroke:#50514F" d="M -2.220446049250313e-16,2.220446049250313e-16 M -0.3632712640026805,-0.4999999999999999 " />
        <path style="stroke-linecap:square;fill:none;stroke-width:0.01px;stroke:#109648" d="M -0.3632712640026805,-0.4999999999999999 M -0.9510565162951538,-0.30901699437494745 M -0.3632712640026805,-0.4999999999999999 " />
        <path style="stroke-linecap:square;fill:none;stroke-width:0.01px;stroke:#50514F" d="M -0.3632712640026805,-0.4999999999999999 M -0.9510565162951538,-0.30901699437494745 L -0.7265425280053609,-0.6180339887498947 L -0.3632712640026805,-0.49999999999999967 L -0.5877852522924732,-0.19098300562505227 L -0.9510565162951536,-0.30901699437494723 M -0.9510565162951538,-0.30901699437494745 " />
        <path style="stroke-linecap:square;fill:none;stroke-width:0.01px;stroke:#50514F" d="M -0.9510565162951538,-0.30901699437494745 L -0.7265425280053609,-0.6180339887498947 L -0.7265425280053607,-0.9999999999999999 L -0.9510565162951536,-0.6909830056250525 L -0.9510565162951539,-0.30901699437494734 M -0.3632712640026805,-0.4999999999999999 " />
        <path style="stroke-linecap:square;fill:none;stroke-width:0.01px;stroke:#109648" d="M -0.3632712640026805,-0.4999999999999999 M -0.9510565162951534,-1.3090169943749475 M -0.3632712640026805,-0.4999999999999999 " />
        <path style="stroke-linecap:square;fill:none;stroke-width:0.01px;stroke:#50514F" d="M -0.3632712640026805,-0.4999999999999999 M -0.9510565162951534,-1.3090169943749475 L -0.7265425280053609,-1.0 L -0.9510565162951538,-0.6909830056250525 L -1.1755705045849465,-1.0 L -0.9510565162951536,-1.3090169943749475 M -0.9510565162951534,-1.3090169943749475 " />
        <path style="stroke-linecap:square;fill:none;stroke-width:0.01px;stroke:#50514F" d="M -0.9510565162951534,-1.3090169943749475 M -0.7265425280053609,-1.0 L -0.7265425280053611,-0.6180339887498948 L -0.951056516295154,-0.3090169943749474 L -0.9510565162951539,-0.6909830056250527 L -0.726542528005361,-1.0 M -0.7265425280053609,-1.0 " />
        <path style="stroke-linecap:square;fill:none;stroke-width:0.01px;stroke:#50514F" d="M -0.7265425280053609,-1.0 L -0.7265425280053611,-0.6180339887498948 L -0.3632712640026807,-0.4999999999999997 L -0.3632712640026805,-0.8819660112501049 L -0.7265425280053609,-1.0 M -0.9510565162951536,-1.3090169943749475 " />
        <path style="stroke-linecap:square;fill:none;stroke-width:0.01px;stroke:#109648" d="M -0.9510565162951536,-1.3090169943749475 M -1.538841768587627,-0.5000000000000001 M -0.9510565162951536,-1.3090169943749475 " />
        <path style="stroke-linecap:square;fill:none;stroke-width:0.01px;stroke:#50514F" d="M -0.9510565162951536,-1.3090169943749475 M -1.538841768587627,-0.5000000000000001 " />
        <path style="stroke-linecap:square;fill:none;stroke-width:0.01px;stroke:#109648" d="M -1.538841768587627,-0.5000000000000001 M -0.9510565162951536,-1.3090169943749475 M -1.538841768587627,-0.5000000000000001 " />
        <path style="stroke-linecap:square;fill:none;stroke-width:0.01px;stroke:#50514F" d="M -1.538841768587627,-0.5000000000000001 M -0.9510565162951536,-1.3090169943749475 L -1.1755705045849465,-1.0000000000000002 L -0.951056516295154,-0.6909830056250528 L -0.7265425280053611,-1.0 L -0.9510565162951535,-1.3090169943749475 M -0.9510565162951536,-1.3090169943749475 " />
        <path style="stroke-linecap:square;fill:none;stroke-width:0.01px;stroke:#50514F" d="M -0.9510565162951536,-1.3090169943749475 M -1.1755705045849465,-1.0000000000000002 L -1.1755705045849467,-0.6180339887498951 L -0.9510565162951542,-0.3090169943749476 L -0.951056516295154,-0.6909830056250528 L -1.1755705045849465,-1.0000000000000004 M -1.1755705045849465,-1.0000000000000002 " />
        <path style="stroke-linecap:square;fill:none;stroke-width:0.01px;stroke:#50514F" d="M -1.1755705045849465,-1.0000000000000002 L -1.1755705045849467,-0.6180339887498951 L -1.5388417685876272,-0.5000000000000004 L -1.538841768587627,-0.8819660112501055 L -1.1755705045849465,-1.0000000000000002 M -1.538841768587627,-0.5000000000000001 " />
        <path style="stroke-linecap:square;fill:none;stroke-width:0.01px;stroke:#109648" d="M -1.538841768587627,-0.5000000000000001 M -0.951056516295154,-0.3090169943749474 M -1.538841768587627,-0.5000000000000001 " />
        <path style="stroke-linecap:square;fill:none;stroke-width:0.01px;stroke:#50514F" d="M -1.538841768587627,-0.5000000000000001 M -0.951056516295154,-0.3090169943749474 L -1.1755705045849465,-0.6180339887498949 L -1.538841768587627,-0.5000000000000002 L -1.3143277802978344,-0.1909830056250526 L -0.9510565162951539,-0.30901699437494723 M -0.951056516295154,-0.3090169943749474 " />
        <path style="stroke-linecap:square;fill:none;stroke-width:0.01px;stroke:#50514F" d="M -0.951056516295154,-0.3090169943749474 L -1.1755705045849465,-0.6180339887498949 L -1.1755705045849463,-1.0 L -0.9510565162951536,-0.6909830056250525 L -0.9510565162951538,-0.30901699437494745 M 0.0,0.0 " />
        <path style="stroke-linecap:square;fill:none;stroke-width:0.01px;stroke:#109648" d="M 0.0,0.0 M 0.0,1.618033988749895 M 0.0,0.0 " />
        <path style="stroke-linecap:square;fill:none;stroke-width:0.01px;stroke:#50514F" d="M 0.0,0.0 M 0.0,1.618033988749895 " />
        <path style="stroke-linecap:square;fill:none;stroke-width:0.01px;stroke:#109648" d="M 0.0,1.618033988749895 M 2.694567883404322e-16,0.0 M 0.0,1.618033988749895 " />
        <path style="stroke-linecap:square;fill:none;stroke-width:0.01px;stroke:#50514F" d="M 0.0,1.618033988749895 M 2.694567883404322e-16,0.0 " />
        <path style="stroke-linecap:square;fill:none;stroke-width:0.01px;stroke:#109648" d="M 2.694567883404322e-16,0.0 M -0.5877852522924731,0.8090169943749472 M 2.694567883404322e-16,0.0 " />
        <path style="stroke-linecap:square;fill:none;stroke-width:0.01px;stroke:#50514F" d="M 2.694567883404322e-16,0.0 M -0.5877852522924731,0.8090169943749472 L -0.3632712640026804,0.49999999999999994 L -5.551115123125783e-17,0.6180339887498949 L -0.22451398828979283,0.9270509831248421 L -0.5877852522924732,0.8090169943749471 M -0.5877852522924731,0.8090169943749472 " />
        <path style="stroke-linecap:square;fill:none;stroke-width:0.01px;stroke:#50514F" d="M -0.5877852522924731,0.8090169943749472 M -0.3632712640026804,0.49999999999999994 L 0.0,0.38196601125010526 L 0.36327126400268034,0.5000000000000002 L -1.1102230246251565e-16,0.6180339887498949 L -0.3632712640026805,0.49999999999999994 M -0.3632712640026804,0.49999999999999994 " />
        <path style="stroke-linecap:square;fill:none;stroke-width:0.01px;stroke:#50514F" d="M -0.3632712640026804,0.49999999999999994 L 0.0,0.38196601125010526 L 1.484236111099344e-16,1.6653345369377348e-16 L -0.3632712640026803,0.11803398874989483 L -0.36327126400268045,0.5 M 2.694567883404322e-16,0.0 " />
        <path style="stroke-linecap:square;fill:none;stroke-width:0.01px;stroke:#50514F" d="M 2.694567883404322e-16,0.0 M 9.084611908509048e-17,0.6180339887498948 " />
        <path style="stroke-linecap:square;fill:none;stroke-width:0.01px;stroke:#109648" d="M 9.084611908509048e-17,0.6180339887498948 M -0.587785252292473,0.8090169943749472 M 9.084611908509048e-17,0.6180339887498948 " />
        <path style="stroke-linecap:square;fill:none;stroke-width:0.01px;stroke:#50514F" d="M 9.084611908509048e-17,0.6180339887498948 M -0.587785252292473,0.8090169943749472 L -0.2245139882897927,0.9270509831248421 L 5.551115123125783e-17,0.6180339887498949 L -0.36327126400268034,0.49999999999999994 L -0.5877852522924731,0.8090169943749472 M -0.587785252292473,0.8090169943749472 " />
        <path style="stroke-linecap:square;fill:none;stroke-width:0.01px;stroke:#50514F" d="M -0.587785252292473,0.8090169943749472 L -0.2245139882897927,0.9270509831248421 L -1.1102230246251565e-16,1.2360679774997896 L -0.3632712640026805,1.1180339887498947 L -0.5877852522924731,0.8090169943749472 M 9.084611908509048e-17,0.6180339887498948 " />
        <path style="stroke-linecap:square;fill:none;stroke-width:0.01px;stroke:#109648" d="M 9.084611908509048e-17,0.6180339887498948 M -2.422207883024565e-16,1.618033988749895 M 9.084611908509048e-17,0.6180339887498948 " />
        <path style="stroke-linecap:square;fill:none;stroke-width:0.01px;stroke:#50514F" d="M 9.084611908509048e-17,0.6180339887498948 M -2.422207883024565e-16,1.618033988749895 L -6.822320490217471e-17,1.2360679774997898 L -0.3632712640026804,1.118033988749895 L -0.36327126400268056,1.5 L -1.6653345369377348e-16,1.6180339887498951 M -2.422207883024565e-16,1.618033988749895 " />
        <path style="stroke-linecap:square;fill:none;stroke-width:0.01px;stroke:#50514F" d="M -2.422207883024565e-16,1.618033988749895 M -6.822320490217471e-17,1.2360679774997898 L -0.22451398828979258,0.9270509831248424 L -0.5877852522924729,0.8090169943749473 L -0.3632712640026804,1.118033988749895 L 0.0,1.23606797749979 M -6.822320490217471e-17,1.2360679774997898 " />
        <path style="stroke-linecap:square;fill:none;stroke-width:0.01px;stroke:#50514F" d="M -6.822320490217471e-17,1.2360679774997898 L -0.22451398828979258,0.9270509831248424 L 1.942890293094024e-16,0.6180339887498951 L 0.22451398828979277,0.9270509831248426 L 2.7755575615628914e-17,1.2360679774997898 M 0.0,1.618033988749895 " />
        <path style="stroke-linecap:square;fill:none;stroke-width:0.01px;stroke:#109648" d="M 0.0,1.618033988749895 M -0.9510565162951536,1.3090169943749472 M 0.0,1.618033988749895 " />
        <path style="stroke-linecap:square;fill:none;stroke-width:0.01px;stroke:#50514F" d="M 0.0,1.618033988749895 M -0.9510565162951536,1.3090169943749472 " />
        <path style="stroke-linecap:square;fill:none;stroke-width:0.01px;stroke:#109648" d="M -0.9510565162951536,1.3090169943749472 M 0.0,1.618033988749895 M -0.9510565162951536,1.3090169943749472 " />
        <path style="stroke-linecap:square;fill:none;stroke-width:0.01px;stroke:#50514F" d="M -0.9510565162951536,1.3090169943749472 M 0.0,1.618033988749895 L -0.3632712640026804,1.5 L -0.3632712640026802,1.1180339887498947 L 3.3306690738754696e-16,1.2360679774997898 L 2.0584666929331749e-16,1.6180339887498951 M 0.0,1.618033988749895 " />
        <path style="stroke-linecap:square;fill:none;stroke-width:0.01px;stroke:#50514F" d="M 0.0,1.618033988749895 M -0.3632712640026804,1.5 L -0.5877852522924729,1.1909830056250525 L -0.5877852522924728,0.8090169943749472 L -0.3632712640026801,1.118033988749895 L -0.3632712640026802,1.5000000000000002 M -0.3632712640026804,1.5 " />
        <path style="stroke-linecap:square;fill:none;stroke-width:0.01px;stroke:#50514F" d="M -0.3632712640026804,1.5 L -0.5877852522924729,1.1909830056250525 L -0.9510565162951534,1.3090169943749472 L -0.7265425280053609,1.618033988749895 L -0.36327126400268034,1.5000000000000002 M -0.9510565162951536,1.3090169943749472 " />
        <path style="stroke-linecap:square;fill:none;stroke-width:0.01px;stroke:#109648" d="M -0.9510565162951536,1.3090169943749472 M -0.5877852522924731,0.8090169943749473 M -0.9510565162951536,1.3090169943749472 " />
        <path style="stroke-linecap:square;fill:none;stroke-width:0.01px;stroke:#50514F" d="M -0.9510565162951536,1.3090169943749472 M -0.5877852522924731,0.8090169943749473 L -0.5877852522924734,1.1909830056250525 L -0.9510565162951539,1.3090169943749472 L -0.9510565162951538,0.9270509831248421 L -0.5877852522924734,0.8090169943749475 M -0.5877852522924731,0.8090169943749473 " />
        <path style="stroke-linecap:square;fill:none;stroke-width:0.01px;stroke:#50514F" d="M -0.5877852522924731,0.8090169943749473 L -0.5877852522924734,1.1909830056250525 L -0.36327126400268084,1.5 L -0.36327126400268067,1.118033988749895 L -0.5877852522924731,0.8090169943749472 M 0.0,0.0 " />
        <path style="stroke-linecap:square;fill:none;stroke-width:0.01px;stroke:#109648" d="M 0.0,0.0 M -1.5388417685876268,0.5000000000000001 M 0.0,0.0 " />
        <path style="stroke-linecap:square;fill:none;stroke-width:0.01px;stroke:#50514F" d="M 0.0,0.0 M -1.5388417685876268,0.5000000000000001 " />
        <path style="stroke-linecap:square;fill:none;stroke-width:0.01px;stroke:#109648" d="M -1.5388417685876268,0.5000000000000001 M 0.0,1.6653345369377348e-16 M -1.5388417685876268,0.5000000000000001 " />
        <path style="stroke-linecap:square;fill:none;stroke-width:0.01px;stroke:#50514F" d="M -1.5388417685876268,0.5000000000000001 M 0.0,1.6653345369377348e-16 " />
        <path style="stroke-linecap:square;fill:none;stroke-width:0.01px;stroke:#109648" d="M 0.0,1.6653345369377348e-16 M -0.5877852522924732,0.8090169943749475 M 0.0,1.6653345369377348e-16 " />
        <path style="stroke-linecap:square;fill:none;stroke-width:0.01px;stroke:#50514F" d="M 0.0,1.6653345369377348e-16 M -0.5877852522924732,0.8090169943749475 L -0.3632712640026805,0.5000000000000002 L -0.5877852522924731,0.19098300562505277 L -0.812299240582266,0.5000000000000001 L -0.5877852522924734,0.8090169943749477 M -0.5877852522924732,0.8090169943749475 " />
        <path style="stroke-linecap:square;fill:none;stroke-width:0.01px;stroke:#50514F" d="M -0.5877852522924732,0.8090169943749475 M -0.3632712640026805,0.5000000000000002 L -0.3632712640026804,0.11803398874989512 L -0.5877852522924729,-0.19098300562505233 L -0.587785252292473,0.19098300562505288 L -0.36327126400268045,0.5000000000000004 M -0.3632712640026805,0.5000000000000002 " />
        <path style="stroke-linecap:square;fill:none;stroke-width:0.01px;stroke:#50514F" d="M -0.3632712640026805,0.5000000000000002 L -0.3632712640026804,0.11803398874989512 L 0.0,3.885780586188048e-16 L -8.481349206281965e-17,0.3819660112501055 L -0.36327126400268056,0.5000000000000002 M 0.0,1.6653345369377348e-16 " />
        <path style="stroke-linecap:square;fill:none;stroke-width:0.01px;stroke:#50514F" d="M 0.0,1.6653345369377348e-16 M -0.5877852522924731,0.19098300562505263 " />
        <path style="stroke-linecap:square;fill:none;stroke-width:0.01px;stroke:#109648" d="M -0.5877852522924731,0.19098300562505263 M -0.5877852522924732,0.8090169943749475 M -0.5877852522924731,0.19098300562505263 " />
        <path style="stroke-linecap:square;fill:none;stroke-width:0.01px;stroke:#50514F" d="M -0.5877852522924731,0.19098300562505263 M -0.5877852522924732,0.8090169943749475 L -0.8122992405822658,0.5 L -0.587785252292473,0.19098300562505266 L -0.36327126400268045,0.5000000000000001 L -0.5877852522924731,0.8090169943749475 M -0.5877852522924732,0.8090169943749475 " />
        <path style="stroke-linecap:square;fill:none;stroke-width:0.01px;stroke:#50514F" d="M -0.5877852522924732,0.8090169943749475 L -0.8122992405822658,0.5 L -1.1755705045849463,0.3819660112501051 L -0.9510565162951536,0.6909830056250525 L -0.5877852522924731,0.8090169943749476 M -0.5877852522924731,0.19098300562505263 " />
        <path style="stroke-linecap:square;fill:none;stroke-width:0.01px;stroke:#109648" d="M -0.5877852522924731,0.19098300562505263 M -1.5388417685876268,0.4999999999999999 M -0.5877852522924731,0.19098300562505263 " />
        <path style="stroke-linecap:square;fill:none;stroke-width:0.01px;stroke:#50514F" d="M -0.5877852522924731,0.19098300562505263 M -1.5388417685876268,0.4999999999999999 L -1.1755705045849463,0.3819660112501052 L -0.9510565162951536,0.6909830056250527 L -1.3143277802978341,0.8090169943749475 L -1.5388417685876268,0.5 M -1.5388417685876268,0.4999999999999999 " />
        <path style="stroke-linecap:square;fill:none;stroke-width:0.01px;stroke:#50514F" d="M -1.5388417685876268,0.4999999999999999 M -1.1755705045849463,0.3819660112501052 L -0.812299240582266,0.5000000000000001 L -0.5877852522924734,0.8090169943749476 L -0.9510565162951538,0.6909830056250525 L -1.1755705045849463,0.3819660112501051 M -1.1755705045849463,0.3819660112501052 " />
        <path style="stroke-linecap:square;fill:none;stroke-width:0.01px;stroke:#50514F" d="M -1.1755705045849463,0.3819660112501052 L -0.812299240582266,0.5000000000000001 L -0.5877852522924732,0.19098300562505283 L -0.9510565162951536,7.294901687515785e-2 L -1.1755705045849465,0.3819660112501052 M -1.5388417685876268,0.5000000000000001 " />
        <path style="stroke-linecap:square;fill:none;stroke-width:0.01px;stroke:#109648" d="M -1.5388417685876268,0.5000000000000001 M -0.9510565162951536,1.3090169943749475 M -1.5388417685876268,0.5000000000000001 " />
        <path style="stroke-linecap:square;fill:none;stroke-width:0.01px;stroke:#50514F" d="M -1.5388417685876268,0.5000000000000001 M -0.9510565162951536,1.3090169943749475 " />
        <path style="stroke-linecap:square;fill:none;stroke-width:0.01px;stroke:#109648" d="M -0.9510565162951536,1.3090169943749475 M -1.5388417685876266,0.4999999999999999 M -0.9510565162951536,1.3090169943749475 " />
        <path style="stroke-linecap:square;fill:none;stroke-width:0.01px;stroke:#50514F" d="M -0.9510565162951536,1.3090169943749475 M -1.5388417685876266,0.4999999999999999 L -1.314327780297834,0.8090169943749473 L -0.9510565162951534,0.6909830056250525 L -1.175570504584946,0.381966011250105 L -1.5388417685876266,0.49999999999999967 M -1.5388417685876266,0.4999999999999999 " />
        <path style="stroke-linecap:square;fill:none;stroke-width:0.01px;stroke:#50514F" d="M -1.5388417685876266,0.4999999999999999 M -1.314327780297834,0.8090169943749473 L -0.9510565162951535,0.9270509831248424 L -0.587785252292473,0.8090169943749477 L -0.9510565162951534,0.6909830056250527 L -1.314327780297834,0.8090169943749473 M -1.314327780297834,0.8090169943749473 " />
        <path style="stroke-linecap:square;fill:none;stroke-width:0.01px;stroke:#50514F" d="M -1.314327780297834,0.8090169943749473 L -0.9510565162951535,0.9270509831248424 L -0.9510565162951536,1.3090169943749475 L -1.314327780297834,1.1909830056250525 L -1.314327780297834,0.8090169943749475 M -0.9510565162951536,1.3090169943749475 " />
        <path style="stroke-linecap:square;fill:none;stroke-width:0.01px;stroke:#109648" d="M -0.9510565162951536,1.3090169943749475 M -0.5877852522924731,0.8090169943749476 M -0.9510565162951536,1.3090169943749475 " />
        <path style="stroke-linecap:square;fill:none;stroke-width:0.01px;stroke:#50514F" d="M -0.9510565162951536,1.3090169943749475 M -0.5877852522924731,0.8090169943749476 L -0.9510565162951535,0.9270509831248424 L -0.9510565162951536,1.3090169943749475 L -0.5877852522924731,1.1909830056250528 L -0.587785252292473,0.8090169943749476 M -0.5877852522924731,0.8090169943749476 " />
        <path style="stroke-linecap:square;fill:none;stroke-width:0.01px;stroke:#50514F" d="M -0.5877852522924731,0.8090169943749476 L -0.9510565162951535,0.9270509831248424 L -1.314327780297834,0.8090169943749475 L -0.9510565162951534,0.6909830056250528 L -0.587785252292473,0.8090169943749478 M 0.0,0.0 " />
        <path style="stroke-linecap:square;fill:none;stroke-width:0.01px;stroke:#109648" d="M 0.0,0.0 M 1.5388417685876268,0.5000000000000001 M 0.0,0.0 " />
        <path style="stroke-linecap:square;fill:none;stroke-width:0.01px;stroke:#50514F" d="M 0.0,0.0 M 1.5388417685876268,0.5000000000000001 " />
        <path style="stroke-linecap:square;fill:none;stroke-width:0.01px;stroke:#109648" d="M 1.5388417685876268,0.5000000000000001 M 0.0,0.0 M 1.5388417685876268,0.5000000000000001 " />
        <path style="stroke-linecap:square;fill:none;stroke-width:0.01px;stroke:#50514F" d="M 1.5388417685876268,0.5000000000000001 M 0.0,0.0 " />
        <path style="stroke-linecap:square;fill:none;stroke-width:0.01px;stroke:#109648" d="M 0.0,0.0 M 0.587785252292473,0.8090169943749477 M 0.0,0.0 " />
        <path style="stroke-linecap:square;fill:none;stroke-width:0.01px;stroke:#50514F" d="M 0.0,0.0 M 0.587785252292473,0.8090169943749477 L 0.36327126400268045,0.5000000000000002 L 0.5877852522924732,0.19098300562505283 L 0.8122992405822659,0.5000000000000003 L 0.5877852522924731,0.8090169943749478 M 0.587785252292473,0.8090169943749477 " />
        <path style="stroke-linecap:square;fill:none;stroke-width:0.01px;stroke:#50514F" d="M 0.587785252292473,0.8090169943749477 M 0.36327126400268045,0.5000000000000002 L 0.36327126400268056,0.11803398874989501 L 0.5877852522924734,-0.19098300562505238 L 0.5877852522924732,0.19098300562505288 L 0.3632712640026805,0.5000000000000003 M 0.36327126400268045,0.5000000000000002 " />
        <path style="stroke-linecap:square;fill:none;stroke-width:0.01px;stroke:#50514F" d="M 0.36327126400268045,0.5000000000000002 L 0.36327126400268056,0.11803398874989501 L 1.1102230246251565e-16,-1.3877787807814457e-17 L -5.860468166312365e-17,0.38196601125010526 L 0.36327126400268045,0.5000000000000003 M 0.0,0.0 " />
        <path style="stroke-linecap:square;fill:none;stroke-width:0.01px;stroke:#50514F" d="M 0.0,0.0 M 0.587785252292473,0.1909830056250527 " />
        <path style="stroke-linecap:square;fill:none;stroke-width:0.01px;stroke:#109648" d="M 0.587785252292473,0.1909830056250527 M 0.5877852522924729,0.8090169943749476 M 0.587785252292473,0.1909830056250527 " />
        <path style="stroke-linecap:square;fill:none;stroke-width:0.01px;stroke:#50514F" d="M 0.587785252292473,0.1909830056250527 M 0.5877852522924729,0.8090169943749476 L 0.8122992405822658,0.5000000000000002 L 0.5877852522924731,0.19098300562505266 L 0.3632712640026802,0.5000000000000001 L 0.5877852522924728,0.8090169943749477 M 0.5877852522924729,0.8090169943749476 " />
        <path style="stroke-linecap:square;fill:none;stroke-width:0.01px;stroke:#50514F" d="M 0.5877852522924729,0.8090169943749476 L 0.8122992405822658,0.5000000000000002 L 1.1755705045849463,0.3819660112501055 L 0.9510565162951534,0.690983005625053 L 0.5877852522924729,0.8090169943749478 M 0.587785252292473,0.1909830056250527 " />
        <path style="stroke-linecap:square;fill:none;stroke-width:0.01px;stroke:#109648" d="M 0.587785252292473,0.1909830056250527 M 1.5388417685876266,0.5000000000000004 M 0.587785252292473,0.1909830056250527 " />
        <path style="stroke-linecap:square;fill:none;stroke-width:0.01px;stroke:#50514F" d="M 0.587785252292473,0.1909830056250527 M 1.5388417685876266,0.5000000000000004 L 1.1755705045849463,0.38196601125010543 L 0.9510565162951534,0.6909830056250528 L 1.314327780297834,0.8090169943749478 L 1.5388417685876268,0.5000000000000004 M 1.5388417685876266,0.5000000000000004 " />
        <path style="stroke-linecap:square;fill:none;stroke-width:0.01px;stroke:#50514F" d="M 1.5388417685876266,0.5000000000000004 M 1.1755705045849463,0.38196601125010543 L 0.8122992405822658,0.5000000000000001 L 0.5877852522924729,0.8090169943749475 L 0.9510565162951534,0.6909830056250528 L 1.1755705045849463,0.38196601125010543 M 1.1755705045849463,0.38196601125010543 " />
        <path style="stroke-linecap:square;fill:none;stroke-width:0.01px;stroke:#50514F" d="M 1.1755705045849463,0.38196601125010543 L 0.8122992405822658,0.5000000000000001 L 0.5877852522924731,0.19098300562505266 L 0.9510565162951536,7.294901687515792e-2 L 1.1755705045849463,0.3819660112501054 M 1.5388417685876268,0.5000000000000001 " />
        <path style="stroke-linecap:square;fill:none;stroke-width:0.01px;stroke:#109648" d="M 1.5388417685876268,0.5000000000000001 M 0.9510565162951535,1.3090169943749475 M 1.5388417685876268,0.5000000000000001 " />
        <path style="stroke-linecap:square;fill:none;stroke-width:0.01px;stroke:#50514F" d="M 1.5388417685876268,0.5000000000000001 M 0.9510565162951535,1.3090169943749475 " />
        <path style="stroke-linecap:square;fill:none;stroke-width:0.01px;stroke:#109648" d="M 0.9510565162951535,1.3090169943749475 M 1.538841768587627,0.5000000000000001 M 0.9510565162951535,1.3090169943749475 " />
        <path style="stroke-linecap:square;fill:none;stroke-width:0.01px;stroke:#50514F" d="M 0.9510565162951535,1.3090169943749475 M 1.538841768587627,0.5000000000000001 L 1.3143277802978341,0.8090169943749475 L 0.9510565162951538,0.6909830056250524 L 1.1755705045849465,0.3819660112501051 L 1.538841768587627,0.5000000000000001 M 1.538841768587627,0.5000000000000001 " />
        <path style="stroke-linecap:square;fill:none;stroke-width:0.01px;stroke:#50514F" d="M 1.538841768587627,0.5000000000000001 M 1.3143277802978341,0.8090169943749475 L 0.9510565162951536,0.9270509831248421 L 0.5877852522924732,0.8090169943749471 L 0.9510565162951536,0.6909830056250523 L 1.314327780297834,0.8090169943749473 M 1.3143277802978341,0.8090169943749475 " />
        <path style="stroke-linecap:square;fill:none;stroke-width:0.01px;stroke:#50514F" d="M 1.3143277802978341,0.8090169943749475 L 0.9510565162951536,0.9270509831248421 L 0.9510565162951535,1.3090169943749472 L 1.314327780297834,1.1909830056250525 L 1.3143277802978341,0.8090169943749473 M 0.9510565162951535,1.3090169943749475 " />
        <path style="stroke-linecap:square;fill:none;stroke-width:0.01px;stroke:#109648" d="M 0.9510565162951535,1.3090169943749475 M 0.5877852522924732,0.8090169943749475 M 0.9510565162951535,1.3090169943749475 " />
        <path style="stroke-linecap:square;fill:none;stroke-width:0.01px;stroke:#50514F" d="M 0.9510565162951535,1.3090169943749475 M 0.5877852522924732,0.8090169943749475 L 0.9510565162951536,0.9270509831248425 L 0.9510565162951535,1.3090169943749475 L 0.5877852522924731,1.1909830056250525 L 0.5877852522924732,0.8090169943749475 M 0.5877852522924732,0.8090169943749475 " />
        <path style="stroke-linecap:square;fill:none;stroke-width:0.01px;stroke:#50514F" d="M 0.5877852522924732,0.8090169943749475 L 0.9510565162951536,0.9270509831248425 L 1.3143277802978341,0.8090169943749478 L 0.9510565162951538,0.6909830056250528 L 0.5877852522924731,0.8090169943749475 M 0.0,0.0 " />
        <path style="stroke-linecap:square;fill:none;stroke-width:0.01px;stroke:#109648" d="M 0.0,0.0 M 0.0,1.618033988749895 M 0.0,0.0 " />
        <path style="stroke-linecap:square;fill:none;stroke-width:0.01px;stroke:#50514F" d="M 0.0,0.0 M 0.0,1.618033988749895 " />
        <path style="stroke-linecap:square;fill:none;stroke-width:0.01px;stroke:#109648" d="M 0.0,1.618033988749895 M 1.7963785889362148e-16,0.0 M 0.0,1.618033988749895 " />
        <path style="stroke-linecap:square;fill:none;stroke-width:0.01px;stroke:#50514F" d="M 0.0,1.618033988749895 M 1.7963785889362148e-16,0.0 " />
        <path style="stroke-linecap:square;fill:none;stroke-width:0.01px;stroke:#109648" d="M 1.7963785889362148e-16,0.0 M 0.5877852522924731,0.8090169943749476 M 1.7963785889362148e-16,0.0 " />
        <path style="stroke-linecap:square;fill:none;stroke-width:0.01px;stroke:#50514F" d="M 1.7963785889362148e-16,0.0 M 0.5877852522924731,0.8090169943749476 L 0.3632712640026806,0.5000000000000001 L 1.6653345369377348e-16,0.6180339887498948 L 0.2245139882897927,0.9270509831248424 L 0.5877852522924732,0.8090169943749477 M 0.5877852522924731,0.8090169943749476 " />
        <path style="stroke-linecap:square;fill:none;stroke-width:0.01px;stroke:#50514F" d="M 0.5877852522924731,0.8090169943749476 M 0.3632712640026806,0.5000000000000001 L 2.7755575615628914e-16,0.3819660112501051 L -0.36327126400268017,0.4999999999999998 L 2.220446049250313e-16,0.6180339887498949 L 0.3632712640026808,0.5000000000000002 M 0.3632712640026806,0.5000000000000001 " />
        <path style="stroke-linecap:square;fill:none;stroke-width:0.01px;stroke:#50514F" d="M 0.3632712640026806,0.5000000000000001 L 2.7755575615628914e-16,0.3819660112501051 L 4.259793672662235e-16,0.0 L 0.36327126400268084,0.11803398874989497 L 0.3632712640026807,0.5000000000000001 M 1.7963785889362148e-16,0.0 " />
        <path style="stroke-linecap:square;fill:none;stroke-width:0.01px;stroke:#50514F" d="M 1.7963785889362148e-16,0.0 M 3.5334967853832655e-17,0.6180339887498948 " />
        <path style="stroke-linecap:square;fill:none;stroke-width:0.01px;stroke:#109648" d="M 3.5334967853832655e-17,0.6180339887498948 M 0.587785252292473,0.8090169943749475 M 3.5334967853832655e-17,0.6180339887498948 " />
        <path style="stroke-linecap:square;fill:none;stroke-width:0.01px;stroke:#50514F" d="M 3.5334967853832655e-17,0.6180339887498948 M 0.587785252292473,0.8090169943749475 L 0.22451398828979252,0.9270509831248421 L -5.551115123125783e-17,0.6180339887498947 L 0.3632712640026804,0.49999999999999994 L 0.5877852522924729,0.8090169943749475 M 0.587785252292473,0.8090169943749475 " />
        <path style="stroke-linecap:square;fill:none;stroke-width:0.01px;stroke:#50514F" d="M 0.587785252292473,0.8090169943749475 L 0.22451398828979252,0.9270509831248421 L -3.0531133177191805e-16,1.2360679774997894 L 0.3632712640026803,1.1180339887498947 L 0.5877852522924731,0.8090169943749473 M 3.5334967853832655e-17,0.6180339887498948 " />
        <path style="stroke-linecap:square;fill:none;stroke-width:0.01px;stroke:#109648" d="M 3.5334967853832655e-17,0.6180339887498948 M -1.8670963707119865e-16,1.618033988749895 M 3.5334967853832655e-17,0.6180339887498948 " />
        <path style="stroke-linecap:square;fill:none;stroke-width:0.01px;stroke:#50514F" d="M 3.5334967853832655e-17,0.6180339887498948 M -1.8670963707119865e-16,1.618033988749895 L -5.511879970232668e-17,1.2360679774997898 L 0.3632712640026804,1.1180339887498951 L 0.3632712640026803,1.5000000000000002 L -1.6653345369377348e-16,1.618033988749895 M -1.8670963707119865e-16,1.618033988749895 " />
        <path style="stroke-linecap:square;fill:none;stroke-width:0.01px;stroke:#50514F" d="M -1.8670963707119865e-16,1.618033988749895 M -5.511879970232668e-17,1.2360679774997898 L 0.22451398828979272,0.9270509831248426 L 0.5877852522924731,0.8090169943749479 L 0.3632712640026804,1.1180339887498953 L -5.551115123125783e-17,1.23606797749979 M -5.511879970232668e-17,1.2360679774997898 " />
        <path style="stroke-linecap:square;fill:none;stroke-width:0.01px;stroke:#50514F" d="M -5.511879970232668e-17,1.2360679774997898 L 0.22451398828979272,0.9270509831248426 L 1.942890293094024e-16,0.6180339887498951 L -0.22451398828979263,0.9270509831248424 L -1.1102230246251565e-16,1.23606797749979 M 0.0,1.618033988749895 " />
        <path style="stroke-linecap:square;fill:none;stroke-width:0.01px;stroke:#109648" d="M 0.0,1.618033988749895 M 0.9510565162951536,1.3090169943749477 M 0.0,1.618033988749895 " />
        <path style="stroke-linecap:square;fill:none;stroke-width:0.01px;stroke:#50514F" d="M 0.0,1.618033988749895 M 0.9510565162951536,1.3090169943749477 " />
        <path style="stroke-linecap:square;fill:none;stroke-width:0.01px;stroke:#109648" d="M 0.9510565162951536,1.3090169943749477 M 0.0,1.618033988749895 M 0.9510565162951536,1.3090169943749477 " />
        <path style="stroke-linecap:square;fill:none;stroke-width:0.01px;stroke:#50514F" d="M 0.9510565162951536,1.3090169943749477 M 0.0,1.618033988749895 L 0.3632712640026804,1.5000000000000002 L 0.36327126400268056,1.1180339887498951 L 1.1102230246251565e-16,1.2360679774997898 L -7.980805467882856e-17,1.618033988749895 M 0.0,1.618033988749895 " />
        <path style="stroke-linecap:square;fill:none;stroke-width:0.01px;stroke:#50514F" d="M 0.0,1.618033988749895 M 0.3632712640026804,1.5000000000000002 L 0.5877852522924731,1.190983005625053 L 0.5877852522924732,0.8090169943749479 L 0.3632712640026804,1.1180339887498951 L 0.3632712640026802,1.5000000000000004 M 0.3632712640026804,1.5000000000000002 " />
        <path style="stroke-linecap:square;fill:none;stroke-width:0.01px;stroke:#50514F" d="M 0.3632712640026804,1.5000000000000002 L 0.5877852522924731,1.190983005625053 L 0.9510565162951534,1.309016994374948 L 0.7265425280053607,1.6180339887498953 L 0.3632712640026803,1.5000000000000004 M 0.9510565162951536,1.3090169943749477 " />
        <path style="stroke-linecap:square;fill:none;stroke-width:0.01px;stroke:#109648" d="M 0.9510565162951536,1.3090169943749477 M 0.5877852522924734,0.8090169943749477 M 0.9510565162951536,1.3090169943749477 " />
        <path style="stroke-linecap:square;fill:none;stroke-width:0.01px;stroke:#50514F" d="M 0.9510565162951536,1.3090169943749477 M 0.5877852522924734,0.8090169943749477 L 0.5877852522924732,1.1909830056250528 L 0.9510565162951536,1.3090169943749477 L 0.9510565162951539,0.9270509831248425 L 0.5877852522924735,0.8090169943749475 M 0.5877852522924734,0.8090169943749477 " />
        <path style="stroke-linecap:square;fill:none;stroke-width:0.01px;stroke:#50514F" d="M 0.5877852522924734,0.8090169943749477 L 0.5877852522924732,1.1909830056250528 L 0.3632712640026805,1.5 L 0.3632712640026806,1.118033988749895 L 0.5877852522924734,0.8090169943749476 M 0.0,0.0 " />
        <path style="stroke-linecap:square;fill:none;stroke-width:0.01px;stroke:#109648" d="M 0.0,0.0 M 0.9510565162951536,-1.3090169943749475 M 0.0,0.0 " />
        <path style="stroke-linecap:square;fill:none;stroke-width:0.01px;stroke:#50514F" d="M 0.0,0.0 M 0.9510565162951536,-1.3090169943749475 " />
        <path style="stroke-linecap:square;fill:none;stroke-width:0.01px;stroke:#109648" d="M 0.9510565162951536,-1.3090169943749475 M -1.1102230246251565e-16,-2.220446049250313e-16 M 0.9510565162951536,-1.3090169943749475 " />
        <path style="stroke-linecap:square;fill:none;stroke-width:0.01px;stroke:#50514F" d="M 0.9510565162951536,-1.3090169943749475 M -1.1102230246251565e-16,-2.220446049250313e-16 " />
        <path style="stroke-linecap:square;fill:none;stroke-width:0.01px;stroke:#109648" d="M -1.1102230246251565e-16,-2.220446049250313e-16 M 0.9510565162951535,-0.3090169943749474 M -1.1102230246251565e-16,-2.220446049250313e-16 " />
        <path style="stroke-linecap:square;fill:none;stroke-width:0.01px;stroke:#50514F" d="M -1.1102230246251565e-16,-2.220446049250313e-16 M 0.9510565162951535,-0.3090169943749474 L 0.5877852522924731,-0.19098300562505272 L 0.36327126400268056,-0.5000000000000002 L 0.726542528005361,-0.6180339887498949 L 0.9510565162951536,-0.30901699437494745 M 0.9510565162951535,-0.3090169943749474 " />
        <path style="stroke-linecap:square;fill:none;stroke-width:0.01px;stroke:#50514F" d="M 0.9510565162951535,-0.3090169943749474 M 0.5877852522924731,-0.19098300562505272 L 0.2245139882897928,-0.3090169943749477 L 2.220446049250313e-16,-0.6180339887498951 L 0.3632712640026806,-0.5000000000000001 L 0.5877852522924731,-0.19098300562505266 M 0.5877852522924731,-0.19098300562505272 " />
        <path style="stroke-linecap:square;fill:none;stroke-width:0.01px;stroke:#50514F" d="M 0.5877852522924731,-0.19098300562505272 L 0.2245139882897928,-0.3090169943749477 L 5.551115123125783e-17,-3.885780586188048e-16 L 0.36327126400268045,0.11803398874989458 L 0.5877852522924732,-0.19098300562505277 M -1.1102230246251565e-16,-2.220446049250313e-16 " />
        <path style="stroke-linecap:square;fill:none;stroke-width:0.01px;stroke:#50514F" d="M -1.1102230246251565e-16,-2.220446049250313e-16 M 0.36327126400268045,-0.5 " />
        <path style="stroke-linecap:square;fill:none;stroke-width:0.01px;stroke:#109648" d="M 0.36327126400268045,-0.5 M 0.9510565162951534,-0.3090169943749473 M 0.36327126400268045,-0.5 " />
        <path style="stroke-linecap:square;fill:none;stroke-width:0.01px;stroke:#50514F" d="M 0.36327126400268045,-0.5 M 0.9510565162951534,-0.3090169943749473 L 0.7265425280053609,-0.6180339887498947 L 0.36327126400268045,-0.5 L 0.5877852522924729,-0.19098300562505238 L 0.9510565162951534,-0.309016994374947 M 0.9510565162951534,-0.3090169943749473 " />
        <path style="stroke-linecap:square;fill:none;stroke-width:0.01px;stroke:#50514F" d="M 0.9510565162951534,-0.3090169943749473 L 0.7265425280053609,-0.6180339887498947 L 0.726542528005361,-0.9999999999999998 L 0.9510565162951536,-0.6909830056250523 L 0.9510565162951535,-0.30901699437494723 M 0.36327126400268045,-0.5 " />
        <path style="stroke-linecap:square;fill:none;stroke-width:0.01px;stroke:#109648" d="M 0.36327126400268045,-0.5 M 0.9510565162951539,-1.3090169943749472 M 0.36327126400268045,-0.5 " />
        <path style="stroke-linecap:square;fill:none;stroke-width:0.01px;stroke:#50514F" d="M 0.36327126400268045,-0.5 M 0.9510565162951539,-1.3090169943749472 L 0.7265425280053611,-1.0 L 0.9510565162951536,-0.6909830056250525 L 1.1755705045849465,-0.9999999999999998 L 0.9510565162951541,-1.3090169943749475 M 0.9510565162951539,-1.3090169943749472 " />
        <path style="stroke-linecap:square;fill:none;stroke-width:0.01px;stroke:#50514F" d="M 0.9510565162951539,-1.3090169943749472 M 0.7265425280053611,-1.0 L 0.7265425280053609,-0.6180339887498949 L 0.9510565162951534,-0.3090169943749474 L 0.9510565162951536,-0.6909830056250525 L 0.7265425280053612,-1.0 M 0.7265425280053611,-1.0 " />
        <path style="stroke-linecap:square;fill:none;stroke-width:0.01px;stroke:#50514F" d="M 0.7265425280053611,-1.0 L 0.7265425280053609,-0.6180339887498949 L 0.36327126400268045,-0.5000000000000002 L 0.3632712640026806,-0.8819660112501053 L 0.726542528005361,-1.0 M 0.9510565162951536,-1.3090169943749475 " />
        <path style="stroke-linecap:square;fill:none;stroke-width:0.01px;stroke:#109648" d="M 0.9510565162951536,-1.3090169943749475 M 1.5388417685876266,-0.4999999999999999 M 0.9510565162951536,-1.3090169943749475 " />
        <path style="stroke-linecap:square;fill:none;stroke-width:0.01px;stroke:#50514F" d="M 0.9510565162951536,-1.3090169943749475 M 1.5388417685876266,-0.4999999999999999 " />
        <path style="stroke-linecap:square;fill:none;stroke-width:0.01px;stroke:#109648" d="M 1.5388417685876266,-0.4999999999999999 M 0.9510565162951536,-1.3090169943749475 M 1.5388417685876266,-0.4999999999999999 " />
        <path style="stroke-linecap:square;fill:none;stroke-width:0.01px;stroke:#50514F" d="M 1.5388417685876266,-0.4999999999999999 M 0.9510565162951536,-1.3090169943749475 L 1.1755705045849463,-1.0 L 0.9510565162951534,-0.6909830056250525 L 0.7265425280053608,-1.0 L 0.9510565162951536,-1.3090169943749475 M 0.9510565162951536,-1.3090169943749475 " />
        <path style="stroke-linecap:square;fill:none;stroke-width:0.01px;stroke:#50514F" d="M 0.9510565162951536,-1.3090169943749475 M 1.1755705045849463,-1.0 L 1.175570504584946,-0.6180339887498948 L 0.9510565162951532,-0.3090169943749474 L 0.9510565162951533,-0.6909830056250527 L 1.175570504584946,-1.0 M 1.1755705045849463,-1.0 " />
        <path style="stroke-linecap:square;fill:none;stroke-width:0.01px;stroke:#50514F" d="M 1.1755705045849463,-1.0 L 1.175570504584946,-0.6180339887498948 L 1.5388417685876266,-0.4999999999999997 L 1.5388417685876268,-0.8819660112501049 L 1.1755705045849463,-1.0 M 1.5388417685876266,-0.4999999999999999 " />
        <path style="stroke-linecap:square;fill:none;stroke-width:0.01px;stroke:#109648" d="M 1.5388417685876266,-0.4999999999999999 M 0.9510565162951533,-0.30901699437494745 M 1.5388417685876266,-0.4999999999999999 " />
        <path style="stroke-linecap:square;fill:none;stroke-width:0.01px;stroke:#50514F" d="M 1.5388417685876266,-0.4999999999999999 M 0.9510565162951533,-0.30901699437494745 L 1.175570504584946,-0.6180339887498947 L 1.5388417685876266,-0.49999999999999967 L 1.3143277802978337,-0.19098300562505227 L 0.9510565162951532,-0.30901699437494723 M 0.9510565162951533,-0.30901699437494745 " />
        <path style="stroke-linecap:square;fill:none;stroke-width:0.01px;stroke:#50514F" d="M 0.9510565162951533,-0.30901699437494745 L 1.175570504584946,-0.6180339887498947 L 1.1755705045849463,-0.9999999999999999 L 0.9510565162951534,-0.6909830056250525 L 0.9510565162951532,-0.30901699437494734 M 0.0,0.0 " />
        <path style="stroke-linecap:square;fill:none;stroke-width:0.01px;stroke:#109648" d="M 0.0,0.0 M 1.5388417685876268,0.5000000000000001 M 0.0,0.0 " />
        <path style="stroke-linecap:square;fill:none;stroke-width:0.01px;stroke:#50514F" d="M 0.0,0.0 M 1.5388417685876268,0.5000000000000001 " />
        <path style="stroke-linecap:square;fill:none;stroke-width:0.01px;stroke:#109648" d="M 1.5388417685876268,0.5000000000000001 M 0.0,-1.1102230246251565e-16 M 1.5388417685876268,0.5000000000000001 " />
        <path style="stroke-linecap:square;fill:none;stroke-width:0.01px;stroke:#50514F" d="M 1.5388417685876268,0.5000000000000001 M 0.0,-1.1102230246251565e-16 " />
        <path style="stroke-linecap:square;fill:none;stroke-width:0.01px;stroke:#109648" d="M 0.0,-1.1102230246251565e-16 M 0.9510565162951538,-0.30901699437494734 M 0.0,-1.1102230246251565e-16 " />
        <path style="stroke-linecap:square;fill:none;stroke-width:0.01px;stroke:#50514F" d="M 0.0,-1.1102230246251565e-16 M 0.9510565162951538,-0.30901699437494734 L 0.5877852522924734,-0.19098300562505263 L 0.5877852522924732,0.19098300562505247 L 0.9510565162951538,7.294901687515773e-2 L 0.9510565162951539,-0.30901699437494745 M 0.9510565162951538,-0.30901699437494734 " />
        <path style="stroke-linecap:square;fill:none;stroke-width:0.01px;stroke:#50514F" d="M 0.9510565162951538,-0.30901699437494734 M 0.5877852522924734,-0.19098300562505263 L 0.3632712640026806,0.11803398874989471 L 0.3632712640026805,0.4999999999999998 L 0.5877852522924734,0.19098300562505244 L 0.5877852522924735,-0.19098300562505277 M 0.5877852522924734,-0.19098300562505263 " />
        <path style="stroke-linecap:square;fill:none;stroke-width:0.01px;stroke:#50514F" d="M 0.5877852522924734,-0.19098300562505263 L 0.3632712640026806,0.11803398874989471 L 2.220446049250313e-16,-2.636779683484747e-16 L 0.22451398828979297,-0.3090169943749476 L 0.5877852522924734,-0.19098300562505266 M 0.0,-1.1102230246251565e-16 " />
        <path style="stroke-linecap:square;fill:none;stroke-width:0.01px;stroke:#50514F" d="M 0.0,-1.1102230246251565e-16 M 0.5877852522924731,0.1909830056250526 " />
        <path style="stroke-linecap:square;fill:none;stroke-width:0.01px;stroke:#109648" d="M 0.5877852522924731,0.1909830056250526 M 0.9510565162951536,-0.30901699437494734 M 0.5877852522924731,0.1909830056250526 " />
        <path style="stroke-linecap:square;fill:none;stroke-width:0.01px;stroke:#50514F" d="M 0.5877852522924731,0.1909830056250526 M 0.9510565162951536,-0.30901699437494734 L 0.9510565162951535,7.294901687515776e-2 L 0.5877852522924731,0.1909830056250525 L 0.5877852522924732,-0.1909830056250526 L 0.9510565162951536,-0.30901699437494734 M 0.9510565162951536,-0.30901699437494734 " />
        <path style="stroke-linecap:square;fill:none;stroke-width:0.01px;stroke:#50514F" d="M 0.9510565162951536,-0.30901699437494734 L 0.9510565162951535,7.294901687515776e-2 L 1.175570504584946,0.3819660112501052 L 1.1755705045849463,0.0 L 0.9510565162951536,-0.30901699437494756 M 0.5877852522924731,0.1909830056250526 " />
        <path style="stroke-linecap:square;fill:none;stroke-width:0.01px;stroke:#109648" d="M 0.5877852522924731,0.1909830056250526 M 1.5388417685876268,0.5000000000000002 M 0.5877852522924731,0.1909830056250526 " />
        <path style="stroke-linecap:square;fill:none;stroke-width:0.01px;stroke:#50514F" d="M 0.5877852522924731,0.1909830056250526 M 1.5388417685876268,0.5000000000000002 L 1.1755705045849463,0.38196601125010526 L 1.1755705045849463,1.6653345369377348e-16 L 1.5388417685876266,0.11803398874989514 L 1.5388417685876266,0.5000000000000002 M 1.5388417685876268,0.5000000000000002 " />
        <path style="stroke-linecap:square;fill:none;stroke-width:0.01px;stroke:#50514F" d="M 1.5388417685876268,0.5000000000000002 M 1.1755705045849463,0.38196601125010526 L 0.9510565162951536,7.294901687515781e-2 L 0.9510565162951538,-0.3090169943749473 L 1.1755705045849463,1.6653345369377348e-16 L 1.1755705045849463,0.38196601125010526 M 1.1755705045849463,0.38196601125010526 " />
        <path style="stroke-linecap:square;fill:none;stroke-width:0.01px;stroke:#50514F" d="M 1.1755705045849463,0.38196601125010526 L 0.9510565162951536,7.294901687515781e-2 L 0.5877852522924731,0.19098300562505255 L 0.8122992405822658,0.5000000000000001 L 1.1755705045849463,0.38196601125010543 M 1.5388417685876268,0.5000000000000001 " />
        <path style="stroke-linecap:square;fill:none;stroke-width:0.01px;stroke:#109648" d="M 1.5388417685876268,0.5000000000000001 M 1.5388417685876268,-0.4999999999999999 M 1.5388417685876268,0.5000000000000001 " />
        <path style="stroke-linecap:square;fill:none;stroke-width:0.01px;stroke:#50514F" d="M 1.5388417685876268,0.5000000000000001 M 1.5388417685876268,-0.4999999999999999 " />
        <path style="stroke-linecap:square;fill:none;stroke-width:0.01px;stroke:#109648" d="M 1.5388417685876268,-0.4999999999999999 M 1.5388417685876266,0.5000000000000001 M 1.5388417685876268,-0.4999999999999999 " />
        <path style="stroke-linecap:square;fill:none;stroke-width:0.01px;stroke:#50514F" d="M 1.5388417685876268,-0.4999999999999999 M 1.5388417685876266,0.5000000000000001 L 1.5388417685876266,0.11803398874989501 L 1.1755705045849463,8.326672684688674e-17 L 1.1755705045849463,0.3819660112501053 L 1.5388417685876268,0.5000000000000003 M 1.5388417685876266,0.5000000000000001 " />
        <path style="stroke-linecap:square;fill:none;stroke-width:0.01px;stroke:#50514F" d="M 1.5388417685876266,0.5000000000000001 M 1.5388417685876266,0.11803398874989501 L 1.314327780297834,-0.19098300562505244 L 0.9510565162951535,-0.30901699437494734 L 1.1755705045849463,1.6653345369377348e-16 L 1.5388417685876268,0.11803398874989514 M 1.5388417685876266,0.11803398874989501 " />
        <path style="stroke-linecap:square;fill:none;stroke-width:0.01px;stroke:#50514F" d="M 1.5388417685876266,0.11803398874989501 L 1.314327780297834,-0.19098300562505244 L 1.5388417685876266,-0.4999999999999998 L 1.7633557568774192,-0.19098300562505233 L 1.5388417685876266,0.11803398874989501 M 1.5388417685876268,-0.4999999999999999 " />
        <path style="stroke-linecap:square;fill:none;stroke-width:0.01px;stroke:#109648" d="M 1.5388417685876268,-0.4999999999999999 M 0.9510565162951536,-0.30901699437494745 M 1.5388417685876268,-0.4999999999999999 " />
        <path style="stroke-linecap:square;fill:none;stroke-width:0.01px;stroke:#50514F" d="M 1.5388417685876268,-0.4999999999999999 M 0.9510565162951536,-0.30901699437494745 L 1.314327780297834,-0.19098300562505252 L 1.5388417685876266,-0.4999999999999998 L 1.1755705045849463,-0.6180339887498948 L 0.9510565162951534,-0.30901699437494745 M 0.9510565162951536,-0.30901699437494745 " />
        <path style="stroke-linecap:square;fill:none;stroke-width:0.01px;stroke:#50514F" d="M 0.9510565162951536,-0.30901699437494745 L 1.314327780297834,-0.19098300562505252 L 1.5388417685876266,0.11803398874989493 L 1.1755705045849463,-4.163336342344337e-17 L 0.9510565162951536,-0.3090169943749475 M 0.0,0.0 " />
    </g>
</svg>
