<?xml version="1.0" encoding="UTF-8"?>
<!DOCTYPE svg PUBLIC "-//W3C//DTD SVG 1.1//EN"
    "http://www.w3.org/Graphics/SVG/1.1/DTD/svg11.dtd">

<svg xmlns="http://www.w3.org/2000/svg" xmlns:xlink="http://www.w3.org/1999/xlink" version="1.1" width="236.88744737551352" height="500" viewBox="-6.573596278729064 -31.790063073184236 16.43054594904695 34.680068807110075">
    <g>
        <rect x="-6.573596278729064" y="-31.790063073184236" width="16.43054594904695" height="34.680068807110075" fill="#CBD4C2" />
        <path style="stroke-linecap:square;fill:none;stroke:#50514F;stroke-width:0.1px" d="M 0.0,0.0 L -4.3297802811774677e-17,-0.816496580927726 L -8.659560562354935e-17,-1.632993161855452 L -1.2989340843532405e-16,-2.449489742783178 L -1.731912112470987e-16,-3.265986323710904 " />
        <path style="stroke-linecap:square;fill:#109648;stroke:#109648;stroke-width:0.1px" d="M -1.731912112470987e-16,-3.265986323710904 L -0.6004754757420583,-3.768490342652828 L -1.1810241162051054,-4.482137235535399 L -1.6848177755403935,-5.337070272212996 L -1.0843422997983354,-4.834566253271072 L -0.5037936593352886,-4.1209193603885 L -8.174101600993299e-16,-3.265986323710904 " />
        <path style="stroke-linecap:square;fill:#109648;stroke:#109648;stroke-width:0.1px" d="M -1.731912112470987e-16,-3.265986323710904 L 0.5037936593352879,-3.6675123296738805 L 1.084342299798335,-4.274984656430449 L 1.684817775540393,-5.028939680129098 L 1.181024116205105,-4.627413674166121 L 0.6004754757420581,-4.019941347409553 L 8.539300364384067e-17,-3.265986323710904 " />
        <path style="stroke-linecap:square;fill:#109648;stroke:#50514F;stroke-width:0.1px" d="M -1.731912112470987e-16,-3.265986323710904 L -2.1648901405887338e-16,-4.08248290463863 L -2.5978681687064806e-16,-4.898979485566356 L -3.0308461968242274e-16,-5.715476066494082 L -3.463824224941974e-16,-6.531972647421808 L -0.21850801222441094,-7.182351381567982 L -0.4370160244488216,-7.832730115714156 " />
        <path style="stroke-linecap:square;fill:#109648;stroke:#109648;stroke-width:0.1px" d="M -0.4370160244488216,-7.832730115714156 L -1.1855924084594023,-8.072997520143248 L -1.9309608812756331,-8.571984133048822 L -2.600159583490739,-9.280845668115516 L -1.8515831994801584,-9.040578263686422 L -1.106214726663928,-8.54159165078085 L -0.4370160244488226,-7.832730115714156 " />
        <path style="stroke-linecap:square;fill:#109648;stroke:#109648;stroke-width:0.1px" d="M -0.4370160244488216,-7.832730115714156 L -0.10406657821569443,-8.12469854215274 L 0.2877485040072624,-8.678046826655809 L 0.7000756320358642,-9.438609383731993 L 0.36712618580273726,-9.146640957293407 L -2.4688896420219486e-2,-8.593292672790342 L -0.43701602444882126,-7.832730115714156 " />
        <path style="stroke-linecap:square;fill:#109648;stroke:#50514F;stroke-width:0.1px" d="M -0.4370160244488216,-7.832730115714156 L -0.6555240366732321,-8.48310884986033 L -0.8740320488976427,-9.133487584006502 L -1.2896589866750963,-9.5540848694178 " />
        <path style="stroke-linecap:square;fill:#109648;stroke:#50514F;stroke-width:0.1px" d="M -1.2896589866750963,-9.5540848694178 L -1.7052859244525496,-9.974682154829097 L -2.4123927056390975,-9.566433864365234 " />
        <path style="stroke-linecap:square;fill:#109648;stroke:#50514F;stroke-width:0.1px" d="M -1.7052859244525496,-9.974682154829097 L -2.085991068362428,-10.651397493539017 " />
        <path style="stroke-linecap:square;fill:#109648;stroke:#50514F;stroke-width:0.1px" d="M -1.7052859244525496,-9.974682154829097 L -2.1151501955847665,-10.097990394172111 " />
        <path style="stroke-linecap:square;fill:#109648;stroke:#109648;stroke-width:0.1px" d="M -1.7052859244525496,-9.974682154829097 L -1.8734105524435392,-10.82752615331741 L -1.9746945862201866,-11.79935310346228 L -1.9992236388690752,-12.795033812267022 L -1.831099010878086,-11.942189813778707 L -1.7298149771014388,-10.970362863633838 L -1.7052859244525505,-9.974682154829093 " />
        <path style="stroke-linecap:square;fill:#109648;stroke:#50514F;stroke-width:0.1px" d="M -1.7052859244525496,-9.974682154829097 L -1.9237939366769605,-10.62506088897527 " />
        <path style="stroke-linecap:square;fill:#109648;stroke:#50514F;stroke-width:0.1px" d="M -1.9237939366769605,-10.62506088897527 L -2.142301948901371,-11.275439623121445 " />
        <path style="stroke-linecap:square;fill:#109648;stroke:#109648;stroke-width:0.1px" d="M -2.142301948901371,-11.275439623121445 L -2.3746444704389864,-11.044324970988237 L -2.6269138272556125,-11.124832918252006 L -2.8744161370420764,-11.509082786102717 L -2.6420736155044615,-11.740197438235922 L -2.3898042586878345,-11.659689490972156 L -2.1423019489013706,-11.275439623121445 " />
        <path style="stroke-linecap:square;fill:#109648;stroke:#50514F;stroke-width:0.1px" d="M -2.142301948901371,-11.275439623121445 L -2.389804258687835,-11.659689490972156 " />
        <path style="stroke-linecap:square;fill:#109648;stroke:#50514F;stroke-width:0.1px" d="M -2.142301948901371,-11.275439623121445 L -2.35624768095232,-12.249081299618146 " />
        <path style="stroke-linecap:square;fill:#109648;stroke:#50514F;stroke-width:0.1px" d="M -2.142301948901371,-11.275439623121445 L -2.1210098974903002,-12.150322653917794 " />
        <path style="stroke-linecap:square;fill:#109648;stroke:#50514F;stroke-width:0.1px" d="M -2.142301948901371,-11.275439623121445 L -2.3746444704389864,-11.044324970988237 " />
        <path style="stroke-linecap:square;fill:#109648;stroke:#50514F;stroke-width:0.1px" d="M -2.142301948901371,-11.275439623121445 L -2.4937109931321984,-12.075137523682914 " />
        <path style="stroke-linecap:square;fill:#109648;stroke:#50514F;stroke-width:0.1px" d="M -2.142301948901371,-11.275439623121445 L -2.206519842447997,-11.712835588898997 " />
        <path style="stroke-linecap:square;fill:#109648;stroke:#50514F;stroke-width:0.1px" d="M -2.206519842447997,-11.712835588898997 L -2.844092938084014,-11.428763701014255 L -3.4816660337200305,-11.144691813129516 " />
        <path style="stroke-linecap:square;fill:#109648;stroke:#CB793A;stroke-width:0.1px" d="M -3.4816660337200305,-11.144691813129516 L -3.965055183748735,-11.08294177953112 " />
        <path style="stroke-linecap:square;fill:#109648;stroke:#109648;stroke-width:0.1px" d="M -3.4816660337200305,-11.144691813129516 L -4.232848842167935,-10.661742200430714 L -4.808359891178578,-9.932513322564798 L -4.057177082730675,-10.4154629352636 L -3.4816660337200305,-11.144691813129512 " />
        <path style="stroke-linecap:square;fill:#109648;stroke:#CB793A;stroke-width:0.1px" d="M -3.4816660337200305,-11.144691813129516 L -4.243894182605683,-11.139209556644897 " />
        <path style="stroke-linecap:square;fill:#109648;stroke:#109648;stroke-width:0.1px" d="M -3.4816660337200305,-11.144691813129516 L -3.3927832830062012,-10.153312972303729 L -3.1101161357123877,-9.250909683141296 L -3.1989988864262173,-10.242288523967083 L -3.4816660337200305,-11.144691813129516 " />
        <path style="stroke-linecap:square;fill:#109648;stroke:#CB793A;stroke-width:0.1px" d="M -3.4816660337200305,-11.144691813129516 L -4.30733981844948,-10.829690052036806 " />
        <path style="stroke-linecap:square;fill:#109648;stroke:#109648;stroke-width:0.1px" d="M -3.4816660337200305,-11.144691813129516 L -2.934500735017807,-10.899559917070734 L -2.4565679987819236,-10.94975971167526 L -3.0037332974841466,-11.194891607734041 L -3.4816660337200305,-11.144691813129516 " />
        <path style="stroke-linecap:square;fill:#109648;stroke:#CB793A;stroke-width:0.1px" d="M -3.4816660337200305,-11.144691813129516 L -4.067712378981847,-10.582128700894202 " />
        <path style="stroke-linecap:square;fill:#109648;stroke:#109648;stroke-width:0.1px" d="M -3.4816660337200305,-11.144691813129516 L -3.491332103071807,-11.869195121064497 L -3.750896792340916,-12.681310410521478 L -3.741230722989139,-11.956807102586499 L -3.481666033720031,-11.144691813129516 " />
        <path style="stroke-linecap:square;fill:#109648;stroke:#CB793A;stroke-width:0.1px" d="M -3.4816660337200305,-11.144691813129516 L -3.8561688409099446,-10.738646876195311 " />
        <path style="stroke-linecap:square;fill:#109648;stroke:#109648;stroke-width:0.1px" d="M -3.4816660337200305,-11.144691813129516 L -4.293755362519676,-11.722215689054075 L -5.204384116308485,-12.052617567118116 L -4.392294787508839,-11.475093691193559 L -3.4816660337200305,-11.144691813129516 " />
        <path style="stroke-linecap:square;fill:#109648;stroke:#109648;stroke-width:0.1px" d="M -0.8740320488976427,-9.133487584006502 L -0.8256911406942579,-10.086236486698366 L -0.7337412691933476,-11.081976010366947 L -0.6071831284698472,-12.023236232710357 L -0.6555240366732321,-11.070487330018493 L -0.7474739081741424,-10.074747806349913 L -0.8740320488976427,-9.133487584006502 " />
        <path style="stroke-linecap:square;fill:#109648;stroke:#50514F;stroke-width:0.1px" d="M -0.8740320488976427,-9.133487584006502 L -0.8740320488976429,-9.949984164934229 L -0.874032048897643,-10.766480745861955 " />
        <path style="stroke-linecap:square;fill:#109648;stroke:#109648;stroke-width:0.1px" d="M -0.874032048897643,-10.766480745861955 L -1.2318290583135982,-11.089220058465427 L -1.7555495529278973,-11.59571437224305 L -2.393928121752442,-12.236384494808874 L -2.036131112336487,-11.9136451822054 L -1.512410617722188,-11.40715086842778 L -0.8740320488976425,-10.766480745861955 " />
        <path style="stroke-linecap:square;fill:#109648;stroke:#109648;stroke-width:0.1px" d="M -0.874032048897643,-10.766480745861955 L -0.23565348007309778,-11.382269665936704 L 0.2880670145412013,-12.196894571798222 L 0.6458640239571565,-13.13061430183532 L 7.485455132611542e-3,-12.514825381760572 L -0.5162350394816875,-11.700200475899052 L -0.8740320488976424,-10.766480745861955 " />
        <path style="stroke-linecap:square;fill:#109648;stroke:#50514F;stroke-width:0.1px" d="M -0.874032048897643,-10.766480745861955 L -0.8740320488976431,-11.582977326789681 L -0.8740320488976431,-12.399473907717407 " />
        <path style="stroke-linecap:square;fill:#109648;stroke:#109648;stroke-width:0.1px" d="M -0.8740320488976431,-12.399473907717407 L -1.0005901896211433,-12.418062983007086 L -1.092540061122054,-12.743442678977647 L -1.1408809693254387,-13.343762563933836 L -1.0143228286019381,-13.325173488644156 L -0.9223729571010281,-12.9997937926736 L -0.8740320488976431,-12.399473907717407 " />
        <path style="stroke-linecap:square;fill:#109648;stroke:#50514F;stroke-width:0.1px" d="M -0.8740320488976431,-12.399473907717407 L -0.8256911406942582,-13.352222810409272 " />
        <path style="stroke-linecap:square;fill:#109648;stroke:#50514F;stroke-width:0.1px" d="M -0.8256911406942582,-13.352222810409272 L -0.7773502324908732,-14.304971713101134 L -0.8693001039917834,-14.630351409071693 " />
        <path style="stroke-linecap:square;fill:#109648;stroke:#50514F;stroke-width:0.1px" d="M -0.7773502324908732,-14.304971713101134 L -0.8735801883673564,-15.299999931450511 " />
        <path style="stroke-linecap:square;fill:#109648;stroke:#50514F;stroke-width:0.1px" d="M -0.7773502324908732,-14.304971713101134 L -0.5891704051134798,-15.122179599348064 " />
        <path style="stroke-linecap:square;fill:#109648;stroke:#109648;stroke-width:0.1px" d="M -0.7773502324908732,-14.304971713101134 L -0.8376605688109082,-15.263733879448012 L -1.0443275170260617,-16.09166836754234 L -1.3771210763117359,-16.707731181130676 L -1.3168107399917006,-15.748969014783798 L -1.110143791776547,-14.921034526689466 L -0.7773502324908728,-14.304971713101132 " />
        <path style="stroke-linecap:square;fill:#109648;stroke:#50514F;stroke-width:0.1px" d="M -0.7773502324908732,-14.304971713101134 L -0.685400360989963,-15.300711236769715 " />
        <path style="stroke-linecap:square;fill:#109648;stroke:#50514F;stroke-width:0.1px" d="M -0.685400360989963,-15.300711236769715 L -0.5934504894890529,-16.296450760438294 " />
        <path style="stroke-linecap:square;fill:#109648;stroke:#109648;stroke-width:0.1px" d="M -0.5934504894890529,-16.296450760438294 L -0.15256337336653286,-16.85094996112421 L 0.20288159219827834,-17.634155866267278 L 0.43809097744519876,-18.56940282495567 L -2.7961386773213137e-3,-18.014903624269753 L -0.3582411042421323,-17.231697719126693 L -0.5934504894890527,-16.296450760438294 " />
        <path style="stroke-linecap:square;fill:#109648;stroke:#50514F;stroke-width:0.1px" d="M -0.5934504894890529,-16.296450760438294 L -0.3582411042421326,-17.231697719126693 " />
        <path style="stroke-linecap:square;fill:#109648;stroke:#50514F;stroke-width:0.1px" d="M -0.5934504894890529,-16.296450760438294 L -1.0588730710429048,-16.96049489171963 " />
        <path style="stroke-linecap:square;fill:#109648;stroke:#50514F;stroke-width:0.1px" d="M -0.5934504894890529,-16.296450760438294 L -0.5211318035409098,-17.207231609092165 " />
        <path style="stroke-linecap:square;fill:#109648;stroke:#50514F;stroke-width:0.1px" d="M -0.5934504894890529,-16.296450760438294 L -0.15256337336653283,-16.85094996112421 " />
        <path style="stroke-linecap:square;fill:#109648;stroke:#50514F;stroke-width:0.1px" d="M -0.5934504894890529,-16.296450760438294 L -0.7841900582062875,-17.268223865752127 " />
        <path style="stroke-linecap:square;fill:#109648;stroke:#50514F;stroke-width:0.1px" d="M -0.5934504894890529,-16.296450760438294 L -0.22781187184493323,-17.218686780159736 " />
        <path style="stroke-linecap:square;fill:#109648;stroke:#50514F;stroke-width:0.1px" d="M -0.22781187184493323,-17.218686780159736 L -0.357193446423954,-17.79764570455788 L -0.48657502100297495,-18.376604628956024 " />
        <path style="stroke-linecap:square;fill:#109648;stroke:#CB793A;stroke-width:0.1px" d="M -0.48657502100297495,-18.376604628956024 L -0.5282163641195387,-19.175288711360377 " />
        <path style="stroke-linecap:square;fill:#109648;stroke:#109648;stroke-width:0.1px" d="M -0.48657502100297495,-18.376604628956024 L -1.058292042775756,-17.864814382509323 L -1.3488207369737122,-17.280267966222077 L -0.7771037152009308,-17.792058212668778 L -0.48657502100297456,-18.376604628956024 " />
        <path style="stroke-linecap:square;fill:#109648;stroke:#CB793A;stroke-width:0.1px" d="M -0.48657502100297495,-18.376604628956024 L -0.8654173290135623,-19.045868234222507 " />
        <path style="stroke-linecap:square;fill:#109648;stroke:#109648;stroke-width:0.1px" d="M -0.48657502100297495,-18.376604628956024 L 5.54106893525578e-2,-17.97720984880036 L 0.8026798535285482,-17.790978704373693 L 0.26069414317301565,-18.190373484529356 L -0.4865750210029747,-18.376604628956024 " />
        <path style="stroke-linecap:square;fill:#109648;stroke:#CB793A;stroke-width:0.1px" d="M -0.48657502100297495,-18.376604628956024 L -0.8491208983412939,-18.752490000027482 " />
        <path style="stroke-linecap:square;fill:#109648;stroke:#109648;stroke-width:0.1px" d="M -0.48657502100297495,-18.376604628956024 L 0.36755931379834256,-18.876699273645702 L 1.064673221579575,-19.593393490766605 L 0.21053888677825716,-19.093298846076927 L -0.48657502100297506,-18.376604628956024 " />
        <path style="stroke-linecap:square;fill:#109648;stroke:#CB793A;stroke-width:0.1px" d="M -0.48657502100297495,-18.376604628956024 L -0.5018481853965023,-18.7005927568734 " />
        <path style="stroke-linecap:square;fill:#109648;stroke:#109648;stroke-width:0.1px" d="M -0.48657502100297495,-18.376604628956024 L -0.5532249588809492,-19.320218844430176 L -0.9249065626400891,-20.196636352431184 L -0.8582566247621148,-19.25302213695703 L -0.48657502100297495,-18.376604628956024 " />
        <path style="stroke-linecap:square;fill:#109648;stroke:#CB793A;stroke-width:0.1px" d="M -0.48657502100297495,-18.376604628956024 L -0.303518276103504,-18.961896730876777 " />
        <path style="stroke-linecap:square;fill:#109648;stroke:#109648;stroke-width:0.1px" d="M -0.48657502100297495,-18.376604628956024 L -1.4344495601488876,-18.694839589005404 L -2.4165278606685496,-18.767046158017738 L -1.468653321522637,-18.448811197968354 L -0.48657502100297506,-18.376604628956024 " />
        <path style="stroke-linecap:square;fill:#109648;stroke:#50514F;stroke-width:0.1px" d="M -0.8740320488976431,-12.399473907717407 L -0.9223729571010283,-12.9997937926736 " />
        <path style="stroke-linecap:square;fill:#109648;stroke:#50514F;stroke-width:0.1px" d="M -0.9223729571010283,-12.9997937926736 L -0.9707138653044132,-13.600113677629787 L -1.1194918826540712,-13.310092504031532 " />
        <path style="stroke-linecap:square;fill:#109648;stroke:#50514F;stroke-width:0.1px" d="M -0.9707138653044132,-13.600113677629787 L -1.1588936926818063,-14.38611764180801 " />
        <path style="stroke-linecap:square;fill:#109648;stroke:#50514F;stroke-width:0.1px" d="M -0.9707138653044132,-13.600113677629787 L -0.87448390942793,-13.955985990349852 " />
        <path style="stroke-linecap:square;fill:#109648;stroke:#109648;stroke-width:0.1px" d="M -0.9707138653044132,-13.600113677629787 L -1.111004645008708,-14.535613476434992 L -1.3778535654365034,-15.498543254800252 L -1.745139595010572,-16.394644736892904 L -1.6048488153062768,-15.459144938087702 L -1.3379998948784813,-14.496215159722443 L -0.970713865304413,-13.600113677629787 " />
        <path style="stroke-linecap:square;fill:#109648;stroke:#50514F;stroke-width:0.1px" d="M -0.9707138653044132,-13.600113677629787 L -0.970713865304413,-14.416610258557514 " />
        <path style="stroke-linecap:square;fill:#109648;stroke:#50514F;stroke-width:0.1px" d="M -0.970713865304413,-14.416610258557514 L -0.970713865304413,-15.233106839485242 " />
        <path style="stroke-linecap:square;fill:#109648;stroke:#109648;stroke-width:0.1px" d="M -0.970713865304413,-15.233106839485242 L -0.6034278357303446,-15.296854655025676 L -0.33657891530254935,-15.655044096299559 L -0.19628813559825442,-16.27261308514241 L -0.5635741651723228,-16.208865269601972 L -0.830423085600118,-15.850675828328093 L -0.9707138653044132,-15.233106839485242 " />
        <path style="stroke-linecap:square;fill:#109648;stroke:#50514F;stroke-width:0.1px" d="M -0.970713865304413,-15.233106839485242 L -0.830423085600118,-15.850675828328093 " />
        <path style="stroke-linecap:square;fill:#109648;stroke:#50514F;stroke-width:0.1px" d="M -0.970713865304413,-15.233106839485242 L -1.4781623104753832,-16.085361731328693 " />
        <path style="stroke-linecap:square;fill:#109648;stroke:#50514F;stroke-width:0.1px" d="M -0.970713865304413,-15.233106839485242 L -0.9708422294118058,-16.212453228539648 " />
        <path style="stroke-linecap:square;fill:#109648;stroke:#50514F;stroke-width:0.1px" d="M -0.970713865304413,-15.233106839485242 L -0.6034278357303446,-15.296854655025676 " />
        <path style="stroke-linecap:square;fill:#109648;stroke:#50514F;stroke-width:0.1px" d="M -0.970713865304413,-15.233106839485242 L -1.246050023377571,-16.090638152736364 " />
        <path style="stroke-linecap:square;fill:#109648;stroke:#50514F;stroke-width:0.1px" d="M -0.970713865304413,-15.233106839485242 L -0.6953777072312548,-15.92864431388217 " />
        <path style="stroke-linecap:square;fill:#109648;stroke:#50514F;stroke-width:0.1px" d="M -0.6953777072312548,-15.92864431388217 L -0.9008252036670518,-15.921294150473333 L -1.106272700102849,-15.913943987064492 " />
        <path style="stroke-linecap:square;fill:#109648;stroke:#CB793A;stroke-width:0.1px" d="M -1.106272700102849,-15.913943987064492 L -1.2386941550781743,-16.209089775421088 " />
        <path style="stroke-linecap:square;fill:#109648;stroke:#109648;stroke-width:0.1px" d="M -1.106272700102849,-15.913943987064492 L -1.6467673146631274,-15.09222357153747 L -1.9040580469901587,-14.160072609209012 L -1.36356343242988,-14.98179302473603 L -1.1062727001028485,-15.91394398706449 " />
        <path style="stroke-linecap:square;fill:#109648;stroke:#CB793A;stroke-width:0.1px" d="M -1.106272700102849,-15.913943987064492 L -1.563525127651788,-16.061954699833734 " />
        <path style="stroke-linecap:square;fill:#109648;stroke:#109648;stroke-width:0.1px" d="M -1.106272700102849,-15.913943987064492 L -0.5514688009049153,-15.190765718549475 L 0.19096740342249108,-14.711449956097269 L -0.3638364957754425,-15.434628224612286 L -1.106272700102849,-15.913943987064492 " />
        <path style="stroke-linecap:square;fill:#109648;stroke:#CB793A;stroke-width:0.1px" d="M -1.106272700102849,-15.913943987064492 L -1.5264741387493745,-15.70061332594041 " />
        <path style="stroke-linecap:square;fill:#109648;stroke:#109648;stroke-width:0.1px" d="M -1.106272700102849,-15.913943987064492 L -0.3063328414144395,-16.285730386646353 L 0.3220721443319463,-16.91850902192591 L -0.47786771435646336,-16.54672262234405 L -1.106272700102849,-15.913943987064492 " />
        <path style="stroke-linecap:square;fill:#109648;stroke:#CB793A;stroke-width:0.1px" d="M -1.106272700102849,-15.913943987064492 L -1.1787443957172743,-15.624427150920116 " />
        <path style="stroke-linecap:square;fill:#109648;stroke:#109648;stroke-width:0.1px" d="M -1.106272700102849,-15.913943987064492 L -1.2501290003427203,-16.86391362099847 L -1.6919261201124118,-17.731169192898342 L -1.5480698198725407,-16.781199558964364 L -1.1062727001028492,-15.913943987064492 " />
        <path style="stroke-linecap:square;fill:#109648;stroke:#CB793A;stroke-width:0.1px" d="M -1.106272700102849,-15.913943987064492 L -1.0008865845265829,-15.938682879178044 " />
        <path style="stroke-linecap:square;fill:#109648;stroke:#109648;stroke-width:0.1px" d="M -1.106272700102849,-15.913943987064492 L -2.078563064502471,-16.126285843456543 L -3.0677502417317783,-16.026361734033966 L -2.0954598773321558,-15.81401987764191 L -1.1062727001028487,-15.913943987064492 " />
        <path style="stroke-linecap:square;fill:#109648;stroke:#50514F;stroke-width:0.1px" d="M -0.6953777072312548,-15.92864431388217 L -0.7548285537477186,-15.810177368614546 L -0.8142794002641829,-15.691710423346917 " />
        <path style="stroke-linecap:square;fill:#109648;stroke:#CB793A;stroke-width:0.1px" d="M -0.8142794002641829,-15.691710423346917 L -0.7367076774723429,-15.854410161191936 " />
        <path style="stroke-linecap:square;fill:#109648;stroke:#109648;stroke-width:0.1px" d="M -0.8142794002641829,-15.691710423346917 L -1.5020975072624079,-14.98624064591957 L -1.9332257020963592,-14.102135253278448 L -1.2454075950981345,-14.807605030705796 L -0.8142794002641829,-15.691710423346917 " />
        <path style="stroke-linecap:square;fill:#109648;stroke:#CB793A;stroke-width:0.1px" d="M -0.8142794002641829,-15.691710423346917 L -1.09357214629002,-15.792874419896842 " />
        <path style="stroke-linecap:square;fill:#109648;stroke:#109648;stroke-width:0.1px" d="M -0.8142794002641829,-15.691710423346917 L -0.39313716002084287,-14.810933381521973 L 0.274050545828163,-14.116215526812635 L -0.14709169441517678,-14.996992568637584 L -0.8142794002641829,-15.691710423346917 " />
        <path style="stroke-linecap:square;fill:#109648;stroke:#CB793A;stroke-width:0.1px" d="M -0.8142794002641829,-15.691710423346917 L -1.1426014320500935,-15.435829076595269 " />
        <path style="stroke-linecap:square;fill:#109648;stroke:#109648;stroke-width:0.1px" d="M -0.8142794002641829,-15.691710423346917 L 0.10967298656405178,-15.804714747578364 L 0.9277573180362957,-16.208869467973372 L 3.8049312080614683e-3,-16.095865143741925 L -0.8142794002641824,-15.691710423346917 " />
        <path style="stroke-linecap:square;fill:#109648;stroke:#CB793A;stroke-width:0.1px" d="M -0.8142794002641829,-15.691710423346917 L -0.8160387282762722,-15.276698660205113 " />
        <path style="stroke-linecap:square;fill:#109648;stroke:#109648;stroke-width:0.1px" d="M -0.8142794002641829,-15.691710423346917 L -0.6885336001997311,-16.594212673585115 L -0.8755059259876146,-17.48812045676794 L -1.0012517260520661,-16.585618206529748 L -0.8142794002641829,-15.691710423346917 " />
        <path style="stroke-linecap:square;fill:#109648;stroke:#CB793A;stroke-width:0.1px" d="M -0.8142794002641829,-15.691710423346917 L -0.5651825921259144,-15.535395997533652 " />
        <path style="stroke-linecap:square;fill:#109648;stroke:#109648;stroke-width:0.1px" d="M -0.8142794002641829,-15.691710423346917 L -1.684662547448685,-16.088367859848447 L -2.6436906736659194,-16.18608710682416 L -1.773307526481417,-15.789429670322633 L -0.8142794002641829,-15.691710423346917 " />
        <path style="stroke-linecap:square;fill:#109648;stroke:#109648;stroke-width:0.1px" d="M -3.463824224941974e-16,-6.531972647421808 L 0.24750230978646368,-7.498623310640539 L 0.49977166660309014,-8.434612081609071 L 0.7321141881407053,-9.248317858007768 L 0.48461187835424124,-8.281667194789039 L 0.23234252153761498,-7.345678423820506 L -3.394940417845453e-16,-6.531972647421808 " />
        <path style="stroke-linecap:square;fill:#109648;stroke:#50514F;stroke-width:0.1px" d="M -3.463824224941974e-16,-6.531972647421808 L 0.21850801222441013,-7.434662700923689 L 0.4370160244488207,-8.33735275442557 L 0.6555240366732312,-9.24004280792745 L 0.8740320488976417,-10.14273286142933 " />
        <path style="stroke-linecap:square;fill:#109648;stroke:#109648;stroke-width:0.1px" d="M 0.8740320488976417,-10.14273286142933 L 0.7060641832291449,-10.702558944351619 L 0.37846699455281396,-11.431001328500606 L -7.669202179988416e-2,-12.256754997959261 L 9.127584386861287e-2,-11.696928915036974 L 0.4188730325449438,-10.968486530887986 L 0.874032048897642,-10.14273286142933 " />
        <path style="stroke-linecap:square;fill:#109648;stroke:#109648;stroke-width:0.1px" d="M 0.8740320488976417,-10.14273286142933 L 1.6654403212323183,-10.706076350387969 L 2.3465909005019228,-11.438217154111483 L 2.8508080221523984,-12.267488229606487 L 2.0593997498177217,-11.70414474064785 L 1.3782491705481172,-10.972003936924335 L 0.8740320488976421,-10.14273286142933 " />
        <path style="stroke-linecap:square;fill:#109648;stroke:#50514F;stroke-width:0.1px" d="M 0.8740320488976417,-10.14273286142933 L 1.0925400611220522,-11.045422914931212 L 1.311048073346463,-11.948112968433092 L 1.5295560855708732,-12.850803021934974 L 1.7480640977952837,-13.753493075436852 " />
        <path style="stroke-linecap:square;fill:#109648;stroke:#109648;stroke-width:0.1px" d="M 1.7480640977952837,-13.753493075436852 L 1.7725931504441723,-14.00096310071717 L 1.8738771842208193,-14.525557517621143 L 2.0420018122118084,-15.275925369557978 L 2.01747275956292,-15.028455344277662 L 1.9161887257862729,-14.50386092737369 L 1.748064097795284,-13.753493075436852 " />
        <path style="stroke-linecap:square;fill:#109648;stroke:#50514F;stroke-width:0.1px" d="M 1.7480640977952837,-13.753493075436852 L 1.9955664075817476,-14.720143738655583 L 2.243068717368212,-15.686794401874314 " />
        <path style="stroke-linecap:square;fill:#109648;stroke:#109648;stroke-width:0.1px" d="M 2.243068717368212,-15.686794401874314 L 2.140114099601183,-16.467136464058015 L 1.861474098110277,-17.34961528658154 L 1.4344239376404717,-18.24784769370478 L 1.5373785554075008,-17.467505631521075 L 1.8160185568984066,-16.58502680899755 L 2.2430687173682116,-15.686794401874314 " />
        <path style="stroke-linecap:square;fill:#109648;stroke:#109648;stroke-width:0.1px" d="M 2.243068717368212,-15.686794401874314 L 3.050985769959342,-16.27608441094499 L 3.730092920978852,-16.957679216757004 L 4.213914430867207,-17.664859570767216 L 3.4059973782760773,-17.07556956169654 L 2.726890227256567,-16.393974755884525 L 2.243068717368213,-15.686794401874314 " />
        <path style="stroke-linecap:square;fill:#109648;stroke:#50514F;stroke-width:0.1px" d="M 2.243068717368212,-15.686794401874314 L 2.4905710271546764,-16.653445065093045 L 2.7380733369411403,-17.620095728311778 L 2.956581349165551,-18.522785781813656 " />
        <path style="stroke-linecap:square;fill:#109648;stroke:#50514F;stroke-width:0.1px" d="M 2.956581349165551,-18.522785781813656 L 3.175089361389962,-19.425475835315538 L 3.1996184140388495,-19.672945860595853 " />
        <path style="stroke-linecap:square;fill:#109648;stroke:#50514F;stroke-width:0.1px" d="M 3.175089361389962,-19.425475835315538 L 3.2393072549365876,-20.416948886161506 " />
        <path style="stroke-linecap:square;fill:#109648;stroke:#50514F;stroke-width:0.1px" d="M 3.175089361389962,-19.425475835315538 L 3.5264984056207886,-20.151021299625135 " />
        <path style="stroke-linecap:square;fill:#109648;stroke:#109648;stroke-width:0.1px" d="M 3.175089361389962,-19.425475835315538 L 3.2484302745590927,-20.40376042002051 L 3.1404306715337054,-21.29791761495131 L 2.8616623059354067,-22.020421083908595 L 2.7883213927662758,-21.04213649920362 L 2.896320995791663,-20.147979304272827 L 3.1750893613899613,-19.425475835315538 " />
        <path style="stroke-linecap:square;fill:#109648;stroke:#50514F;stroke-width:0.1px" d="M 3.175089361389962,-19.425475835315538 L 3.422591671176426,-20.392126498534267 " />
        <path style="stroke-linecap:square;fill:#109648;stroke:#50514F;stroke-width:0.1px" d="M 3.422591671176426,-20.392126498534267 L 3.6700939809628905,-21.358777161752997 " />
        <path style="stroke-linecap:square;fill:#109648;stroke:#109648;stroke-width:0.1px" d="M 3.6700939809628905,-21.358777161752997 L 4.239818761762802,-21.77263970071313 L 4.748285514316794,-22.442556134117865 L 5.145721970188701,-23.302950373883302 L 4.575997189388789,-22.88908783492317 L 4.067530436834797,-22.219171401518434 L 3.670093980962891,-21.358777161752997 " />
        <path style="stroke-linecap:square;fill:#109648;stroke:#50514F;stroke-width:0.1px" d="M 3.6700939809628905,-21.358777161752997 L 4.067530436834796,-22.219171401518434 " />
        <path style="stroke-linecap:square;fill:#109648;stroke:#50514F;stroke-width:0.1px" d="M 3.6700939809628905,-21.358777161752997 L 3.276968986328362,-22.13674384137517 " />
        <path style="stroke-linecap:square;fill:#109648;stroke:#50514F;stroke-width:0.1px" d="M 3.6700939809628905,-21.358777161752997 L 3.8577915231682507,-22.281598535793083 " />
        <path style="stroke-linecap:square;fill:#109648;stroke:#50514F;stroke-width:0.1px" d="M 3.6700939809628905,-21.358777161752997 L 4.239818761762802,-21.77263970071313 " />
        <path style="stroke-linecap:square;fill:#109648;stroke:#50514F;stroke-width:0.1px" d="M 3.6700939809628905,-21.358777161752997 L 3.626403191339584,-22.35684250778369 " />
        <path style="stroke-linecap:square;fill:#109648;stroke:#50514F;stroke-width:0.1px" d="M 3.6700939809628905,-21.358777161752997 L 4.184562139627234,-22.19939064019272 " />
        <path style="stroke-linecap:square;fill:#109648;stroke:#50514F;stroke-width:0.1px" d="M 4.184562139627234,-22.19939064019272 L 4.330409134960306,-22.592178603056315 L 4.47625613029338,-22.984966565919915 " />
        <path style="stroke-linecap:square;fill:#109648;stroke:#CB793A;stroke-width:0.1px" d="M 4.47625613029338,-22.984966565919915 L 4.7935231560024505,-23.57829122666752 " />
        <path style="stroke-linecap:square;fill:#109648;stroke:#109648;stroke-width:0.1px" d="M 4.47625613029338,-22.984966565919915 L 3.7483227165272104,-22.63732949671784 L 3.2438460058257617,-22.082352504705106 L 3.9717794195919307,-22.42998957390718 L 4.476256130293379,-22.984966565919915 " />
        <path style="stroke-linecap:square;fill:#109648;stroke:#CB793A;stroke-width:0.1px" d="M 4.47625613029338,-22.984966565919915 L 4.434140066683244,-23.59779894000047 " />
        <path style="stroke-linecap:square;fill:#109648;stroke:#109648;stroke-width:0.1px" d="M 4.47625613029338,-22.984966565919915 L 4.801902056244225,-22.246724658278275 L 5.40349276307968,-21.631709098092788 L 5.077846837128834,-22.36995100573443 L 4.47625613029338,-22.984966565919915 " />
        <path style="stroke-linecap:square;fill:#109648;stroke:#CB793A;stroke-width:0.1px" d="M 4.47625613029338,-22.984966565919915 L 4.324650703440118,-23.2866452731186 " />
        <path style="stroke-linecap:square;fill:#109648;stroke:#109648;stroke-width:0.1px" d="M 4.47625613029338,-22.984966565919915 L 5.464685496370232,-23.03587572625187 L 6.403249813954859,-23.378492684160424 L 5.4148204478780055,-23.327583523828466 L 4.47625613029338,-22.984966565919915 " />
        <path style="stroke-linecap:square;fill:#109648;stroke:#CB793A;stroke-width:0.1px" d="M 4.47625613029338,-22.984966565919915 L 4.616365644868489,-23.0748340179285 " />
        <path style="stroke-linecap:square;fill:#109648;stroke:#109648;stroke-width:0.1px" d="M 4.47625613029338,-22.984966565919915 L 4.820728849831671,-23.914202746957397 L 4.861486894634158,-24.908707717952964 L 4.517014175095866,-23.979471536915483 L 4.47625613029338,-22.984966565919915 " />
        <path style="stroke-linecap:square;fill:#109648;stroke:#CB793A;stroke-width:0.1px" d="M 4.47625613029338,-22.984966565919915 L 4.906144756940533,-23.255081129903104 " />
        <path style="stroke-linecap:square;fill:#109648;stroke:#109648;stroke-width:0.1px" d="M 4.47625613029338,-22.984966565919915 L 3.7599583148634315,-23.667887631017255 L 2.908867957024527,-24.107649032865194 L 3.625165772454476,-23.424727967767854 L 4.47625613029338,-22.984966565919915 " />
        <path style="stroke-linecap:square;fill:#109648;stroke:#109648;stroke-width:0.1px" d="M 2.7380733369411403,-17.620095728311778 L 2.7961589673255447,-18.493882000109473 L 2.654375045069316,-19.219933484425837 L 2.3266003683495704,-19.727179203277835 L 2.2685147379651665,-18.853392931480137 L 2.410298660221395,-18.127341447163772 L 2.7380733369411416,-17.620095728311775 " />
        <path style="stroke-linecap:square;fill:#109648;stroke:#50514F;stroke-width:0.1px" d="M 2.7380733369411403,-17.620095728311778 L 2.990342693757767,-18.556084499280306 L 3.242612050574393,-19.492073270248838 " />
        <path style="stroke-linecap:square;fill:#109648;stroke:#109648;stroke-width:0.1px" d="M 3.242612050574393,-19.492073270248838 L 3.5692876728758196,-20.337111800426907 L 3.611385504871741,-21.278158130723725 L 3.364784717453553,-22.22309608967453 L 3.0381090951521275,-21.37805755949647 L 2.996011263156206,-20.437011229199644 L 3.242612050574393,-19.492073270248838 " />
        <path style="stroke-linecap:square;fill:#109648;stroke:#109648;stroke-width:0.1px" d="M 3.242612050574393,-19.492073270248838 L 3.8774154611967413,-19.987473926993413 L 4.243498022850197,-20.560889241211914 L 4.305025023752931,-21.156189326729226 L 3.6702216131305834,-20.66078866998465 L 3.3041390514771294,-20.087373355766154 L 3.242612050574395,-19.492073270248838 " />
        <path style="stroke-linecap:square;fill:#109648;stroke:#50514F;stroke-width:0.1px" d="M 3.242612050574393,-19.492073270248838 L 3.4948814073910195,-20.428062041217373 L 3.747150764207646,-21.36405081218591 " />
        <path style="stroke-linecap:square;fill:#109648;stroke:#109648;stroke-width:0.1px" d="M 3.747150764207646,-21.36405081218591 L 4.371485856011633,-21.957125885107235 L 4.921450171917238,-22.745536045306192 L 5.343209372856913,-23.652106213125922 L 4.718874281052926,-23.0590311402046 L 4.168909965147322,-22.27062098000564 L 3.7471507642076465,-21.36405081218591 " />
        <path style="stroke-linecap:square;fill:#109648;stroke:#50514F;stroke-width:0.1px" d="M 3.747150764207646,-21.36405081218591 L 3.8052363945920495,-22.237837083983603 " />
        <path style="stroke-linecap:square;fill:#109648;stroke:#50514F;stroke-width:0.1px" d="M 3.8052363945920495,-22.237837083983603 L 3.863322024976452,-23.111623355781298 L 4.413286340882056,-23.90003351598026 " />
        <path style="stroke-linecap:square;fill:#109648;stroke:#50514F;stroke-width:0.1px" d="M 3.863322024976452,-23.111623355781298 L 3.6196376871594036,-23.920933145994653 " />
        <path style="stroke-linecap:square;fill:#109648;stroke:#50514F;stroke-width:0.1px" d="M 3.863322024976452,-23.111623355781298 L 4.217491797353899,-23.96435382085284 " />
        <path style="stroke-linecap:square;fill:#109648;stroke:#109648;stroke-width:0.1px" d="M 3.863322024976452,-23.111623355781298 L 3.432864573490093,-23.717081661774007 L 2.7558697672985075,-24.142680311976427 L 1.898606574931902,-24.346758745186577 L 2.3290640264182607,-23.74130043919387 L 3.006058832609846,-23.31570178899145 L 3.8633220249764504,-23.111623355781298 " />
        <path style="stroke-linecap:square;fill:#109648;stroke:#50514F;stroke-width:0.1px" d="M 3.863322024976452,-23.111623355781298 L 3.7215381027202246,-23.837674840097662 " />
        <path style="stroke-linecap:square;fill:#109648;stroke:#50514F;stroke-width:0.1px" d="M 3.7215381027202246,-23.837674840097662 L 3.5797541804639974,-24.563726324414027 " />
        <path style="stroke-linecap:square;fill:#109648;stroke:#109648;stroke-width:0.1px" d="M 3.5797541804639974,-24.563726324414027 L 4.2703403758018155,-25.213172600976318 L 4.717923976724553,-25.96234992998009 L 4.878692381875569,-26.737923614637076 L 4.18810618653775,-26.08847733807479 L 3.7405225856150146,-25.339300009071014 L 3.5797541804639974,-24.563726324414027 " />
        <path style="stroke-linecap:square;fill:#109648;stroke:#50514F;stroke-width:0.1px" d="M 3.5797541804639974,-24.563726324414027 L 3.7405225856150146,-25.339300009071014 " />
        <path style="stroke-linecap:square;fill:#109648;stroke:#50514F;stroke-width:0.1px" d="M 3.5797541804639974,-24.563726324414027 L 2.717021580488373,-24.920590285175773 " />
        <path style="stroke-linecap:square;fill:#109648;stroke:#50514F;stroke-width:0.1px" d="M 3.5797541804639974,-24.563726324414027 L 3.154766136586657,-25.016399102855143 " />
        <path style="stroke-linecap:square;fill:#109648;stroke:#50514F;stroke-width:0.1px" d="M 3.5797541804639974,-24.563726324414027 L 4.2703403758018155,-25.213172600976318 " />
        <path style="stroke-linecap:square;fill:#109648;stroke:#50514F;stroke-width:0.1px" d="M 3.5797541804639974,-24.563726324414027 L 3.159528045314877,-25.2998863638678 " />
        <path style="stroke-linecap:square;fill:#109648;stroke:#50514F;stroke-width:0.1px" d="M 3.5797541804639974,-24.563726324414027 L 3.730291269277774,-25.20859827560996 " />
        <path style="stroke-linecap:square;fill:#109648;stroke:#50514F;stroke-width:0.1px" d="M 3.730291269277774,-25.20859827560996 L 4.1071058016103335,-26.130971431368682 L 4.483920333942893,-27.05334458712741 " />
        <path style="stroke-linecap:square;fill:#109648;stroke:#CB793A;stroke-width:0.1px" d="M 4.483920333942893,-27.05334458712741 L 4.728463158770774,-28.002725990890823 " />
        <path style="stroke-linecap:square;fill:#109648;stroke:#109648;stroke-width:0.1px" d="M 4.483920333942893,-27.05334458712741 L 4.6652146876312885,-27.208329512871877 L 5.1319867030621396,-27.271296228665136 L 4.950692349373746,-27.11631130292068 L 4.483920333942893,-27.05334458712741 " />
        <path style="stroke-linecap:square;fill:#109648;stroke:#CB793A;stroke-width:0.1px" d="M 4.483920333942893,-27.05334458712741 L 4.557339048835811,-28.043315400322985 " />
        <path style="stroke-linecap:square;fill:#109648;stroke:#109648;stroke-width:0.1px" d="M 4.483920333942893,-27.05334458712741 L 5.455835977204259,-26.95518873063489 L 6.449273848595714,-26.893234089235126 L 5.47735820533435,-26.991389945727644 L 4.483920333942893,-27.05334458712741 " />
        <path style="stroke-linecap:square;fill:#109648;stroke:#CB793A;stroke-width:0.1px" d="M 4.483920333942893,-27.05334458712741 L 4.780010578193792,-27.928099456203913 " />
        <path style="stroke-linecap:square;fill:#109648;stroke:#109648;stroke-width:0.1px" d="M 4.483920333942893,-27.05334458712741 L 5.05634596121479,-27.212317512853854 L 5.364471332503552,-27.504961085889455 L 4.792045705231655,-27.34598816016301 L 4.483920333942892,-27.05334458712741 " />
        <path style="stroke-linecap:square;fill:#109648;stroke:#CB793A;stroke-width:0.1px" d="M 4.483920333942893,-27.05334458712741 L 5.088753261598908,-27.816302677260264 " />
        <path style="stroke-linecap:square;fill:#109648;stroke:#109648;stroke-width:0.1px" d="M 4.483920333942893,-27.05334458712741 L 4.0188262635940895,-27.62437262198803 L 3.376739360943616,-28.26109130108773 L 3.8418334312924216,-27.690063266227117 L 4.483920333942893,-27.05334458712741 " />
        <path style="stroke-linecap:square;fill:#109648;stroke:#CB793A;stroke-width:0.1px" d="M 4.483920333942893,-27.05334458712741 L 5.056895204363137,-27.862424412159395 " />
        <path style="stroke-linecap:square;fill:#109648;stroke:#109648;stroke-width:0.1px" d="M 4.483920333942893,-27.05334458712741 L 3.77709384245645,-27.621907902452033 L 3.233055958086897,-28.116678477346717 L 3.939882449573343,-27.5481151620221 L 4.483920333942893,-27.05334458712741 " />
        <path style="stroke-linecap:square;fill:#109648;stroke:#50514F;stroke-width:0.1px" d="M 3.747150764207646,-21.36405081218591 L 4.168909965147322,-22.270620980005642 " />
        <path style="stroke-linecap:square;fill:#109648;stroke:#50514F;stroke-width:0.1px" d="M 4.168909965147322,-22.270620980005642 L 4.590669166086998,-23.177191147825372 L 5.228260765005223,-23.51687681313451 " />
        <path style="stroke-linecap:square;fill:#109648;stroke:#50514F;stroke-width:0.1px" d="M 4.590669166086998,-23.177191147825372 L 4.7318367065590525,-24.162298494366727 " />
        <path style="stroke-linecap:square;fill:#109648;stroke:#50514F;stroke-width:0.1px" d="M 4.590669166086998,-23.177191147825372 L 5.251735298337174,-23.91648273245151 " />
        <path style="stroke-linecap:square;fill:#109648;stroke:#109648;stroke-width:0.1px" d="M 4.590669166086998,-23.177191147825372 L 4.543953376889231,-24.117319082020458 L 4.202825308611789,-24.969559906986593 L 3.600676953356681,-25.65049035286512 L 3.647392742554448,-24.710362418670037 L 3.9885208108318895,-23.858121593703903 L 4.590669166086998,-23.177191147825372 " />
        <path style="stroke-linecap:square;fill:#109648;stroke:#50514F;stroke-width:0.1px" d="M 4.590669166086998,-23.177191147825372 L 4.842938522903624,-24.113179918793904 " />
        <path style="stroke-linecap:square;fill:#109648;stroke:#50514F;stroke-width:0.1px" d="M 4.842938522903624,-24.113179918793904 L 5.095207879720251,-25.04916868976244 " />
        <path style="stroke-linecap:square;fill:#109648;stroke:#109648;stroke-width:0.1px" d="M 5.095207879720251,-25.04916868976244 L 5.9939166500595995,-25.468559035657233 L 6.743225111986416,-26.13077985520642 L 7.269785732508262,-26.97100836062876 L 6.371076962168913,-26.551618014733968 L 5.621768500242096,-25.88939719518478 L 5.095207879720251,-25.04916868976244 " />
        <path style="stroke-linecap:square;fill:#109648;stroke:#50514F;stroke-width:0.1px" d="M 5.095207879720251,-25.04916868976244 L 5.621768500242096,-25.88939719518478 " />
        <path style="stroke-linecap:square;fill:#109648;stroke:#50514F;stroke-width:0.1px" d="M 5.095207879720251,-25.04916868976244 L 4.496040221217899,-25.81165240913931 " />
        <path style="stroke-linecap:square;fill:#109648;stroke:#50514F;stroke-width:0.1px" d="M 5.095207879720251,-25.04916868976244 L 5.045511393769725,-25.907743350459178 " />
        <path style="stroke-linecap:square;fill:#109648;stroke:#50514F;stroke-width:0.1px" d="M 5.095207879720251,-25.04916868976244 L 5.9939166500595995,-25.468559035657233 " />
        <path style="stroke-linecap:square;fill:#109648;stroke:#50514F;stroke-width:0.1px" d="M 5.095207879720251,-25.04916868976244 L 5.053176722722503,-26.03655919318766 " />
        <path style="stroke-linecap:square;fill:#109648;stroke:#50514F;stroke-width:0.1px" d="M 5.095207879720251,-25.04916868976244 L 5.617083868042077,-25.842134625954635 " />
        <path style="stroke-linecap:square;fill:#109648;stroke:#50514F;stroke-width:0.1px" d="M 5.617083868042077,-25.842134625954635 L 6.184544570467884,-26.436045178226173 L 6.752005272893692,-27.02995573049772 " />
        <path style="stroke-linecap:square;fill:#109648;stroke:#CB793A;stroke-width:0.1px" d="M 6.752005272893692,-27.02995573049772 L 7.284687709865483,-27.8122345220071 " />
        <path style="stroke-linecap:square;fill:#109648;stroke:#109648;stroke-width:0.1px" d="M 6.752005272893692,-27.02995573049772 L 6.6849327796956715,-26.6885961192895 L 6.881846220494891,-26.20292448088486 L 6.948918713692912,-26.54428409209308 L 6.752005272893693,-27.029955730497715 " />
        <path style="stroke-linecap:square;fill:#109648;stroke:#CB793A;stroke-width:0.1px" d="M 6.752005272893692,-27.02995573049772 L 7.047628269102364,-27.776631581484867 " />
        <path style="stroke-linecap:square;fill:#109648;stroke:#109648;stroke-width:0.1px" d="M 6.752005272893692,-27.02995573049772 L 7.56123012892946,-26.50272136714431 L 8.48773750789731,-26.12662431265997 L 7.678512651861544,-26.653858676013378 L 6.752005272893692,-27.02995573049772 " />
        <path style="stroke-linecap:square;fill:#109648;stroke:#CB793A;stroke-width:0.1px" d="M 6.752005272893692,-27.02995573049772 L 7.147857260860503,-27.489741131339656 " />
        <path style="stroke-linecap:square;fill:#109648;stroke:#109648;stroke-width:0.1px" d="M 6.752005272893692,-27.02995573049772 L 7.54968018048344,-27.286683130408598 L 8.167714441569588,-27.793544091308974 L 7.37003953397984,-27.536816691398087 L 6.752005272893694,-27.02995573049772 " />
        <path style="stroke-linecap:square;fill:#109648;stroke:#CB793A;stroke-width:0.1px" d="M 6.752005272893692,-27.02995573049772 L 7.446861625188288,-27.34803602262439 " />
        <path style="stroke-linecap:square;fill:#109648;stroke:#109648;stroke-width:0.1px" d="M 6.752005272893692,-27.02995573049772 L 6.666244570541702,-27.95707289813142 L 6.364038021992673,-28.900057339258396 L 6.449798724344664,-27.972940171624693 L 6.752005272893692,-27.02995573049772 " />
        <path style="stroke-linecap:square;fill:#109648;stroke:#CB793A;stroke-width:0.1px" d="M 6.752005272893692,-27.02995573049772 L 7.531427493369276,-27.547347899204066 " />
        <path style="stroke-linecap:square;fill:#109648;stroke:#109648;stroke-width:0.1px" d="M 6.752005272893692,-27.02995573049772 L 6.131801285171733,-27.587434797029974 L 5.569327756315147,-27.917000356844177 L 6.189531744037106,-27.35952129031192 L 6.752005272893692,-27.02995573049772 " />
        <path style="stroke-linecap:square;fill:#109648;stroke:#50514F;stroke-width:0.1px" d="M 5.617083868042077,-25.842134625954635 L 6.184544570467884,-26.436045178226173 L 6.752005272893692,-27.02995573049772 " />
        <path style="stroke-linecap:square;fill:#109648;stroke:#CB793A;stroke-width:0.1px" d="M 6.752005272893692,-27.02995573049772 L 7.284687709865483,-27.8122345220071 " />
        <path style="stroke-linecap:square;fill:#109648;stroke:#109648;stroke-width:0.1px" d="M 6.752005272893692,-27.02995573049772 L 6.6849327796956715,-26.6885961192895 L 6.881846220494891,-26.20292448088486 L 6.948918713692912,-26.54428409209308 L 6.752005272893693,-27.029955730497715 " />
        <path style="stroke-linecap:square;fill:#109648;stroke:#CB793A;stroke-width:0.1px" d="M 6.752005272893692,-27.02995573049772 L 7.047628269102364,-27.776631581484867 " />
        <path style="stroke-linecap:square;fill:#109648;stroke:#109648;stroke-width:0.1px" d="M 6.752005272893692,-27.02995573049772 L 7.56123012892946,-26.50272136714431 L 8.48773750789731,-26.12662431265997 L 7.678512651861544,-26.653858676013378 L 6.752005272893692,-27.02995573049772 " />
        <path style="stroke-linecap:square;fill:#109648;stroke:#CB793A;stroke-width:0.1px" d="M 6.752005272893692,-27.02995573049772 L 7.147857260860503,-27.489741131339656 " />
        <path style="stroke-linecap:square;fill:#109648;stroke:#109648;stroke-width:0.1px" d="M 6.752005272893692,-27.02995573049772 L 7.54968018048344,-27.286683130408598 L 8.167714441569588,-27.793544091308974 L 7.37003953397984,-27.536816691398087 L 6.752005272893694,-27.02995573049772 " />
        <path style="stroke-linecap:square;fill:#109648;stroke:#CB793A;stroke-width:0.1px" d="M 6.752005272893692,-27.02995573049772 L 7.446861625188288,-27.34803602262439 " />
        <path style="stroke-linecap:square;fill:#109648;stroke:#109648;stroke-width:0.1px" d="M 6.752005272893692,-27.02995573049772 L 6.666244570541702,-27.95707289813142 L 6.364038021992673,-28.900057339258396 L 6.449798724344664,-27.972940171624693 L 6.752005272893692,-27.02995573049772 " />
        <path style="stroke-linecap:square;fill:#109648;stroke:#CB793A;stroke-width:0.1px" d="M 6.752005272893692,-27.02995573049772 L 7.531427493369276,-27.547347899204066 " />
        <path style="stroke-linecap:square;fill:#109648;stroke:#109648;stroke-width:0.1px" d="M 6.752005272893692,-27.02995573049772 L 6.131801285171733,-27.587434797029974 L 5.569327756315147,-27.917000356844177 L 6.189531744037106,-27.35952129031192 L 6.752005272893692,-27.02995573049772 " />
        <path style="stroke-linecap:square;fill:#109648;stroke:#50514F;stroke-width:0.1px" d="M 1.7480640977952837,-13.753493075436852 L 1.9161887257862733,-14.50386092737369 L 2.0843133537772625,-15.254228779310527 " />
        <path style="stroke-linecap:square;fill:#109648;stroke:#109648;stroke-width:0.1px" d="M 2.0843133537772625,-15.254228779310527 L 1.842149072199993,-15.54537143475232 L 1.4526341464419166,-16.060126449955106 L 0.9538970113463027,-16.74810601752175 L 1.1960612929235719,-16.456963362079954 L 1.5855762186816484,-15.94220834687717 L 2.084313353777262,-15.254228779310527 " />
        <path style="stroke-linecap:square;fill:#109648;stroke:#109648;stroke-width:0.1px" d="M 2.0843133537772625,-15.254228779310527 L 2.8417676887536665,-15.720946604109665 L 3.503313976947096,-16.420312277405934 L 4.004195458405156,-17.283867014329918 L 3.2467411234287513,-16.81714918953078 L 2.5851948352353227,-16.117783516234514 L 2.0843133537772633,-15.25422877931053 " />
        <path style="stroke-linecap:square;fill:#109648;stroke:#50514F;stroke-width:0.1px" d="M 2.0843133537772625,-15.254228779310527 L 2.2524379817682516,-16.004596631247367 L 2.4205626097592408,-16.754964483184203 L 2.5218466435358886,-17.279558900088176 " />
        <path style="stroke-linecap:square;fill:#109648;stroke:#50514F;stroke-width:0.1px" d="M 2.5218466435358886,-17.279558900088176 L 2.6231306773125356,-17.804153316992146 L 2.494694890219284,-17.454200377155658 " />
        <path style="stroke-linecap:square;fill:#109648;stroke:#50514F;stroke-width:0.1px" d="M 2.6231306773125356,-17.804153316992146 L 2.6018386259014648,-18.55197425800946 " />
        <path style="stroke-linecap:square;fill:#109648;stroke:#50514F;stroke-width:0.1px" d="M 2.6231306773125356,-17.804153316992146 L 2.837076409363484,-18.054170253191984 " />
        <path style="stroke-linecap:square;fill:#109648;stroke:#109648;stroke-width:0.1px" d="M 2.6231306773125356,-17.804153316992146 L 2.6547402735538923,-18.71621400825749 L 2.5467406705285054,-19.7006886836898 L 2.3097036218579805,-20.661210102819357 L 2.278094025616624,-19.749149411554008 L 2.386093628642011,-18.7646747361217 L 2.623130677312536,-17.804153316992146 " />
        <path style="stroke-linecap:square;fill:#109648;stroke:#50514F;stroke-width:0.1px" d="M 2.6231306773125356,-17.804153316992146 L 2.7912553053035247,-18.554521168928982 " />
        <path style="stroke-linecap:square;fill:#109648;stroke:#50514F;stroke-width:0.1px" d="M 2.7912553053035247,-18.554521168928982 L 2.959379933294514,-19.304889020865815 " />
        <path style="stroke-linecap:square;fill:#109648;stroke:#109648;stroke-width:0.1px" d="M 2.959379933294514,-19.304889020865815 L 3.3940593357255624,-19.226477916061974 L 3.774090301186302,-19.456123929128708 L 4.062272750946002,-19.971347708269214 L 3.6275933485149543,-20.049758813073062 L 3.2475623830542153,-19.82011280000632 L 2.9593799332945148,-19.304889020865815 " />
        <path style="stroke-linecap:square;fill:#109648;stroke:#50514F;stroke-width:0.1px" d="M 2.959379933294514,-19.304889020865815 L 3.2475623830542153,-19.82011280000632 " />
        <path style="stroke-linecap:square;fill:#109648;stroke:#50514F;stroke-width:0.1px" d="M 2.959379933294514,-19.304889020865815 L 2.585598467852479,-20.232258936917425 " />
        <path style="stroke-linecap:square;fill:#109648;stroke:#50514F;stroke-width:0.1px" d="M 2.959379933294514,-19.304889020865815 L 3.127733946307381,-20.250101215209128 " />
        <path style="stroke-linecap:square;fill:#109648;stroke:#50514F;stroke-width:0.1px" d="M 2.959379933294514,-19.304889020865815 L 3.3940593357255624,-19.226477916061974 " />
        <path style="stroke-linecap:square;fill:#109648;stroke:#50514F;stroke-width:0.1px" d="M 2.959379933294514,-19.304889020865815 L 2.853092168279547,-20.15053124367407 " />
        <path style="stroke-linecap:square;fill:#109648;stroke:#50514F;stroke-width:0.1px" d="M 2.959379933294514,-19.304889020865815 L 3.3854597443105394,-19.88653126846342 " />
        <path style="stroke-linecap:square;fill:#109648;stroke:#50514F;stroke-width:0.1px" d="M 3.3854597443105394,-19.88653126846342 L 3.375235859039532,-19.6876538111441 L 3.365011973768524,-19.48877635382477 " />
        <path style="stroke-linecap:square;fill:#109648;stroke:#CB793A;stroke-width:0.1px" d="M 3.365011973768524,-19.48877635382477 L 3.5337012392057128,-19.546532906017262 " />
        <path style="stroke-linecap:square;fill:#109648;stroke:#109648;stroke-width:0.1px" d="M 3.365011973768524,-19.48877635382477 L 2.5874936832902837,-18.883008752983507 L 2.0352363204249224,-18.061671392059008 L 2.8127546109031627,-18.66743899290027 L 3.365011973768524,-19.48877635382477 " />
        <path style="stroke-linecap:square;fill:#109648;stroke:#CB793A;stroke-width:0.1px" d="M 3.365011973768524,-19.48877635382477 L 3.170478695988177,-19.542716424347034 " />
        <path style="stroke-linecap:square;fill:#109648;stroke:#109648;stroke-width:0.1px" d="M 3.365011973768524,-19.48877635382477 L 3.655312297622424,-18.538185556352417 L 4.220938976348599,-17.7285941182343 L 3.9306386524946997,-18.679184915706657 L 3.3650119737685245,-19.48877635382477 " />
        <path style="stroke-linecap:square;fill:#109648;stroke:#CB793A;stroke-width:0.1px" d="M 3.365011973768524,-19.48877635382477 L 3.062656994285893,-19.202966431540812 " />
        <path style="stroke-linecap:square;fill:#109648;stroke:#109648;stroke-width:0.1px" d="M 3.365011973768524,-19.48877635382477 L 4.317793304212857,-19.42627252866054 L 5.215261059218372,-19.662324050157544 L 4.26247972877404,-19.724827875321775 L 3.3650119737685245,-19.48877635382477 " />
        <path style="stroke-linecap:square;fill:#109648;stroke:#CB793A;stroke-width:0.1px" d="M 3.365011973768524,-19.48877635382477 L 3.359242061126565,-18.996805869979262 " />
        <path style="stroke-linecap:square;fill:#109648;stroke:#109648;stroke-width:0.1px" d="M 3.365011973768524,-19.48877635382477 L 3.659410468854847,-20.31996365914403 L 3.644083246272805,-21.190512146973834 L 3.349684751186482,-20.359324841654566 L 3.365011973768524,-19.48877635382477 " />
        <path style="stroke-linecap:square;fill:#109648;stroke:#CB793A;stroke-width:0.1px" d="M 3.365011973768524,-19.48877635382477 L 3.6503634146920434,-19.20914162860068 " />
        <path style="stroke-linecap:square;fill:#109648;stroke:#109648;stroke-width:0.1px" d="M 3.365011973768524,-19.48877635382477 L 2.5900264924036387,-19.984208180919026 L 1.6787198726329469,-20.20125440008607 L 2.453705353997832,-19.70582257299181 L 3.3650119737685236,-19.48877635382477 " />
        <path style="stroke-linecap:square;fill:#109648;stroke:#109648;stroke-width:0.1px" d="M 2.4205626097592408,-16.754964483184203 L 2.484780503305867,-17.74643753403017 L 2.3884221833219907,-18.72964129200448 L 2.140919873535527,-19.608332922893208 L 2.076701979988901,-18.61685987204724 L 2.1730602999727773,-17.63365611407293 L 2.420562609759241,-16.754964483184203 " />
        <path style="stroke-linecap:square;fill:#109648;stroke:#50514F;stroke-width:0.1px" d="M 2.4205626097592408,-16.754964483184203 L 2.6390706219836515,-17.65765453668608 L 2.857578634208062,-18.560344590187963 " />
        <path style="stroke-linecap:square;fill:#109648;stroke:#109648;stroke-width:0.1px" d="M 2.857578634208062,-18.560344590187963 L 3.0623459401138855,-19.005089619845343 L 2.9916203256240577,-19.58522713149059 L 2.6523249066591763,-20.24396922342814 L 2.4475576007533535,-19.79922419377077 L 2.518283215243181,-19.21908668212552 L 2.8575786342080622,-18.560344590187963 " />
        <path style="stroke-linecap:square;fill:#109648;stroke:#109648;stroke-width:0.1px" d="M 2.857578634208062,-18.560344590187963 L 3.5331233091549223,-19.2906996566677 L 3.957402314238023,-20.17114533289496 L 4.088884264314177,-21.115497461654872 L 3.4133395893673177,-20.385142395175137 L 2.9890605842842173,-19.50469671894788 L 2.8575786342080622,-18.560344590187963 " />
        <path style="stroke-linecap:square;fill:#109648;stroke:#50514F;stroke-width:0.1px" d="M 2.857578634208062,-18.560344590187963 L 3.0760866464324725,-19.46303464368984 L 3.294594658656883,-20.365724697191723 " />
        <path style="stroke-linecap:square;fill:#109648;stroke:#109648;stroke-width:0.1px" d="M 3.294594658656883,-20.365724697191723 L 3.7989685426298503,-20.548208867982012 L 4.248880253207,-21.02558829788021 L 4.600289297437827,-21.75113376218981 L 4.095915413464859,-21.56864959139952 L 3.64600370288771,-21.091270161501324 L 3.294594658656883,-20.365724697191723 " />
        <path style="stroke-linecap:square;fill:#109648;stroke:#50514F;stroke-width:0.1px" d="M 3.294594658656883,-20.365724697191723 L 3.358812552203509,-21.357197748037695 " />
        <path style="stroke-linecap:square;fill:#109648;stroke:#50514F;stroke-width:0.1px" d="M 3.358812552203509,-21.357197748037695 L 3.423030445750135,-22.34867079888366 L 3.8729421563272846,-22.826050228781856 " />
        <path style="stroke-linecap:square;fill:#109648;stroke:#50514F;stroke-width:0.1px" d="M 3.423030445750135,-22.34867079888366 L 3.200879083347351,-23.323614744970463 " />
        <path style="stroke-linecap:square;fill:#109648;stroke:#50514F;stroke-width:0.1px" d="M 3.423030445750135,-22.34867079888366 L 3.767331500393453,-23.259620664273044 " />
        <path style="stroke-linecap:square;fill:#109648;stroke:#109648;stroke-width:0.1px" d="M 3.423030445750135,-22.34867079888366 L 3.0494346649704287,-23.237560659803005 L 2.4351715814124755,-23.945125890820773 L 1.6403695455174896,-24.402105077228093 L 2.0139653262971953,-23.513215216308748 L 2.628228409855149,-22.805649985290984 L 3.4230304457501353,-22.34867079888366 " />
        <path style="stroke-linecap:square;fill:#109648;stroke:#50514F;stroke-width:0.1px" d="M 3.423030445750135,-22.34867079888366 L 3.326672125766258,-23.331874556857965 " />
        <path style="stroke-linecap:square;fill:#109648;stroke:#50514F;stroke-width:0.1px" d="M 3.326672125766258,-23.331874556857965 L 3.230313805782382,-24.315078314832274 " />
        <path style="stroke-linecap:square;fill:#109648;stroke:#109648;stroke-width:0.1px" d="M 3.230313805782382,-24.315078314832274 L 3.9118398428329657,-25.01392446629663 L 4.3701918895581695,-25.897216333547913 L 4.560503254098037,-26.87849115436326 L 3.878977217047454,-26.179645002898912 L 3.42062517032225,-25.29635313564762 L 3.230313805782383,-24.315078314832277 " />
        <path style="stroke-linecap:square;fill:#109648;stroke:#50514F;stroke-width:0.1px" d="M 3.230313805782382,-24.315078314832274 L 3.42062517032225,-25.29635313564762 " />
        <path style="stroke-linecap:square;fill:#109648;stroke:#50514F;stroke-width:0.1px" d="M 3.230313805782382,-24.315078314832274 L 2.4034882579424357,-24.832321509317882 " />
        <path style="stroke-linecap:square;fill:#109648;stroke:#50514F;stroke-width:0.1px" d="M 3.230313805782382,-24.315078314832274 L 2.8887415369476352,-25.143704167673334 " />
        <path style="stroke-linecap:square;fill:#109648;stroke:#50514F;stroke-width:0.1px" d="M 3.230313805782382,-24.315078314832274 L 3.911839842832965,-25.01392446629663 " />
        <path style="stroke-linecap:square;fill:#109648;stroke:#50514F;stroke-width:0.1px" d="M 3.230313805782382,-24.315078314832274 L 2.8383212355160095,-25.23181036309773 " />
        <path style="stroke-linecap:square;fill:#109648;stroke:#50514F;stroke-width:0.1px" d="M 3.230313805782382,-24.315078314832274 L 3.439021959808916,-25.268510948301515 " />
        <path style="stroke-linecap:square;fill:#109648;stroke:#50514F;stroke-width:0.1px" d="M 3.439021959808916,-25.268510948301515 L 3.7352503085434527,-25.96854520546803 L 4.031478657277988,-26.668579462634536 " />
        <path style="stroke-linecap:square;fill:#109648;stroke:#CB793A;stroke-width:0.1px" d="M 4.031478657277988,-26.668579462634536 L 4.2346597838865145,-27.554850973215917 " />
        <path style="stroke-linecap:square;fill:#109648;stroke:#109648;stroke-width:0.1px" d="M 4.031478657277988,-26.668579462634536 L 4.063951009587042,-26.237625863892784 L 4.397238874526738,-25.7753210690784 L 4.364766522217686,-26.20627466782016 L 4.03147865727799,-26.668579462634536 " />
        <path style="stroke-linecap:square;fill:#109648;stroke:#CB793A;stroke-width:0.1px" d="M 4.031478657277988,-26.668579462634536 L 4.01835698877858,-27.410787043607513 " />
        <path style="stroke-linecap:square;fill:#109648;stroke:#109648;stroke-width:0.1px" d="M 4.031478657277988,-26.668579462634536 L 4.9683715490143205,-26.443572564818936 L 5.967370965502699,-26.424650954461114 L 5.030478073766368,-26.649657852276714 L 4.03147865727799,-26.668579462634536 " />
        <path style="stroke-linecap:square;fill:#109648;stroke:#CB793A;stroke-width:0.1px" d="M 4.031478657277988,-26.668579462634536 L 4.209529041601277,-27.161091935156392 " />
        <path style="stroke-linecap:square;fill:#109648;stroke:#109648;stroke-width:0.1px" d="M 4.031478657277988,-26.668579462634536 L 4.698350987238166,-27.244789798562035 L 5.108983323986132,-27.99435071279742 L 4.442110994025955,-27.41814037686992 L 4.031478657277988,-26.668579462634536 " />
        <path style="stroke-linecap:square;fill:#109648;stroke:#CB793A;stroke-width:0.1px" d="M 4.031478657277988,-26.668579462634536 L 4.543982663052728,-27.15083580091741 " />
        <path style="stroke-linecap:square;fill:#109648;stroke:#109648;stroke-width:0.1px" d="M 4.031478657277988,-26.668579462634536 L 3.6270485629718836,-27.534022580461283 L 3.0083384950300736,-28.315148630199047 L 3.4127685893361788,-27.449705512372297 L 4.031478657277988,-26.668579462634536 " />
        <path style="stroke-linecap:square;fill:#109648;stroke:#CB793A;stroke-width:0.1px" d="M 4.031478657277988,-26.668579462634536 L 4.559514315947519,-27.39419226981566 " />
        <path style="stroke-linecap:square;fill:#109648;stroke:#109648;stroke-width:0.1px" d="M 4.031478657277988,-26.668579462634536 L 3.234967814321316,-26.91156103659261 L 2.5684562339600867,-26.943712888337128 L 3.36496707691676,-26.700731314379052 L 4.031478657277989,-26.668579462634536 " />
        <path style="stroke-linecap:square;fill:#109648;stroke:#50514F;stroke-width:0.1px" d="M 3.294594658656883,-20.365724697191723 L 3.64600370288771,-21.091270161501324 " />
        <path style="stroke-linecap:square;fill:#109648;stroke:#50514F;stroke-width:0.1px" d="M 3.64600370288771,-21.091270161501324 L 3.9974127471185374,-21.816815625810925 L 4.506877174544561,-21.686541715414375 " />
        <path style="stroke-linecap:square;fill:#109648;stroke:#50514F;stroke-width:0.1px" d="M 3.9974127471185374,-21.816815625810925 L 4.082157744588482,-22.678320691452328 " />
        <path style="stroke-linecap:square;fill:#109648;stroke:#50514F;stroke-width:0.1px" d="M 3.9974127471185374,-21.816815625810925 L 4.581087472450152,-22.335380043569597 " />
        <path style="stroke-linecap:square;fill:#109648;stroke:#109648;stroke-width:0.1px" d="M 3.9974127471185374,-21.816815625810925 L 3.9331948535719117,-22.782323414528797 L 3.592537149106967,-23.71613830901463 L 3.008785583338525,-24.526852001125206 L 3.0730034768851513,-23.56134421240733 L 3.4136611813500957,-22.627529317921496 L 3.9974127471185383,-21.816815625810925 " />
        <path style="stroke-linecap:square;fill:#109648;stroke:#50514F;stroke-width:0.1px" d="M 3.9974127471185374,-21.816815625810925 L 4.215920759342948,-22.719505679312803 " />
        <path style="stroke-linecap:square;fill:#109648;stroke:#50514F;stroke-width:0.1px" d="M 4.215920759342948,-22.719505679312803 L 4.434428771567359,-23.62219573281469 " />
        <path style="stroke-linecap:square;fill:#109648;stroke:#109648;stroke-width:0.1px" d="M 4.434428771567359,-23.62219573281469 L 5.275051911522304,-23.872657842383127 L 5.969263006580523,-24.399426135769797 L 6.4491078379046005,-25.150936862207494 L 5.608484697949655,-24.90047475263905 L 4.914273602891438,-24.37370645925238 L 4.434428771567359,-23.62219573281469 " />
        <path style="stroke-linecap:square;fill:#109648;stroke:#50514F;stroke-width:0.1px" d="M 4.434428771567359,-23.62219573281469 L 4.914273602891438,-24.37370645925238 " />
        <path style="stroke-linecap:square;fill:#109648;stroke:#50514F;stroke-width:0.1px" d="M 4.434428771567359,-23.62219573281469 L 3.8238058370500174,-24.401290782634103 " />
        <path style="stroke-linecap:square;fill:#109648;stroke:#50514F;stroke-width:0.1px" d="M 4.434428771567359,-23.62219573281469 L 4.3970822467696316,-24.619322163823718 " />
        <path style="stroke-linecap:square;fill:#109648;stroke:#50514F;stroke-width:0.1px" d="M 4.434428771567359,-23.62219573281469 L 5.275051911522304,-23.872657842383127 " />
        <path style="stroke-linecap:square;fill:#109648;stroke:#50514F;stroke-width:0.1px" d="M 4.434428771567359,-23.62219573281469 L 4.3456818253718446,-24.520868457255265 " />
        <path style="stroke-linecap:square;fill:#109648;stroke:#50514F;stroke-width:0.1px" d="M 4.434428771567359,-23.62219573281469 L 4.938802655540326,-24.440541523529674 " />
        <path style="stroke-linecap:square;fill:#109648;stroke:#50514F;stroke-width:0.1px" d="M 4.938802655540326,-24.440541523529674 L 5.378281536885532,-24.589700273877437 L 5.817760418230738,-24.738859024225196 " />
        <path style="stroke-linecap:square;fill:#109648;stroke:#CB793A;stroke-width:0.1px" d="M 5.817760418230738,-24.738859024225196 L 6.244405190162502,-25.184590513657703 " />
        <path style="stroke-linecap:square;fill:#109648;stroke:#109648;stroke-width:0.1px" d="M 5.817760418230738,-24.738859024225196 L 5.644086527038654,-23.925308009550196 L 5.7531924709510225,-23.03617539808743 L 5.926866362143105,-23.849726412762426 L 5.817760418230738,-24.738859024225196 " />
        <path style="stroke-linecap:square;fill:#109648;stroke:#CB793A;stroke-width:0.1px" d="M 5.817760418230738,-24.738859024225196 L 5.974549615331025,-25.00511438236555 " />
        <path style="stroke-linecap:square;fill:#109648;stroke:#109648;stroke-width:0.1px" d="M 5.817760418230738,-24.738859024225196 L 6.617422838547396,-24.139487395215316 L 7.557058842533569,-23.802725518346303 L 6.75739642221691,-24.402097147356184 L 5.817760418230739,-24.738859024225196 " />
        <path style="stroke-linecap:square;fill:#109648;stroke:#CB793A;stroke-width:0.1px" d="M 5.817760418230738,-24.738859024225196 L 6.065636001781976,-24.65372588506677 " />
        <path style="stroke-linecap:square;fill:#109648;stroke:#109648;stroke-width:0.1px" d="M 5.817760418230738,-24.738859024225196 L 6.664147045488846,-25.242558770096537 L 7.323447977434142,-25.987259486516734 L 6.477061350176033,-25.48355974064539 L 5.817760418230738,-24.738859024225196 " />
        <path style="stroke-linecap:square;fill:#109648;stroke:#CB793A;stroke-width:0.1px" d="M 5.817760418230738,-24.738859024225196 L 6.391786059352551,-24.616031981772526 " />
        <path style="stroke-linecap:square;fill:#109648;stroke:#109648;stroke-width:0.1px" d="M 5.817760418230738,-24.738859024225196 L 5.719687881967307,-25.71011498612509 L 5.375202151078884,-26.570825608165862 L 5.4732746873423155,-25.599569646265966 L 5.817760418230738,-24.738859024225196 " />
        <path style="stroke-linecap:square;fill:#109648;stroke:#CB793A;stroke-width:0.1px" d="M 5.817760418230738,-24.738859024225196 L 6.502271493912948,-24.94412436566681 " />
        <path style="stroke-linecap:square;fill:#109648;stroke:#109648;stroke-width:0.1px" d="M 5.817760418230738,-24.738859024225196 L 5.089255810983248,-24.8960092444008 L 4.4047308770506355,-24.74695533785755 L 5.133235484298124,-24.58980511768194 L 5.817760418230738,-24.738859024225196 " />
        <path style="stroke-linecap:square;fill:#109648;stroke:#50514F;stroke-width:0.1px" d="M 4.938802655540326,-24.440541523529674 L 5.378281536885532,-24.589700273877437 L 5.817760418230738,-24.738859024225196 " />
        <path style="stroke-linecap:square;fill:#109648;stroke:#CB793A;stroke-width:0.1px" d="M 5.817760418230738,-24.738859024225196 L 6.244405190162502,-25.184590513657703 " />
        <path style="stroke-linecap:square;fill:#109648;stroke:#109648;stroke-width:0.1px" d="M 5.817760418230738,-24.738859024225196 L 5.644086527038654,-23.925308009550196 L 5.7531924709510225,-23.03617539808743 L 5.926866362143105,-23.849726412762426 L 5.817760418230738,-24.738859024225196 " />
        <path style="stroke-linecap:square;fill:#109648;stroke:#CB793A;stroke-width:0.1px" d="M 5.817760418230738,-24.738859024225196 L 5.974549615331025,-25.00511438236555 " />
        <path style="stroke-linecap:square;fill:#109648;stroke:#109648;stroke-width:0.1px" d="M 5.817760418230738,-24.738859024225196 L 6.617422838547396,-24.139487395215316 L 7.557058842533569,-23.802725518346303 L 6.75739642221691,-24.402097147356184 L 5.817760418230739,-24.738859024225196 " />
        <path style="stroke-linecap:square;fill:#109648;stroke:#CB793A;stroke-width:0.1px" d="M 5.817760418230738,-24.738859024225196 L 6.065636001781976,-24.65372588506677 " />
        <path style="stroke-linecap:square;fill:#109648;stroke:#109648;stroke-width:0.1px" d="M 5.817760418230738,-24.738859024225196 L 6.664147045488846,-25.242558770096537 L 7.323447977434142,-25.987259486516734 L 6.477061350176033,-25.48355974064539 L 5.817760418230738,-24.738859024225196 " />
        <path style="stroke-linecap:square;fill:#109648;stroke:#CB793A;stroke-width:0.1px" d="M 5.817760418230738,-24.738859024225196 L 6.391786059352551,-24.616031981772526 " />
        <path style="stroke-linecap:square;fill:#109648;stroke:#109648;stroke-width:0.1px" d="M 5.817760418230738,-24.738859024225196 L 5.719687881967307,-25.71011498612509 L 5.375202151078884,-26.570825608165862 L 5.4732746873423155,-25.599569646265966 L 5.817760418230738,-24.738859024225196 " />
        <path style="stroke-linecap:square;fill:#109648;stroke:#CB793A;stroke-width:0.1px" d="M 5.817760418230738,-24.738859024225196 L 6.502271493912948,-24.94412436566681 " />
        <path style="stroke-linecap:square;fill:#109648;stroke:#109648;stroke-width:0.1px" d="M 5.817760418230738,-24.738859024225196 L 5.089255810983248,-24.8960092444008 L 4.4047308770506355,-24.74695533785755 L 5.133235484298124,-24.58980511768194 L 5.817760418230738,-24.738859024225196 " />
    </g>
</svg>
