<?xml version="1.0" encoding="UTF-8"?>
<!DOCTYPE svg PUBLIC "-//W3C//DTD SVG 1.1//EN"
    "http://www.w3.org/Graphics/SVG/1.1/DTD/svg11.dtd">

<svg xmlns="http://www.w3.org/2000/svg" xmlns:xlink="http://www.w3.org/1999/xlink" version="1.1" width="59.02513016664785" height="500" viewBox="-0.49581109339984175 -7.7 0.991622186799684 8.4">
    <g>
        <rect x="-0.49581109339984175" y="-7.7" width="0.991622186799684" height="8.4" fill="#CBD4C2" />
        <path style="stroke-linecap:square;stroke-width:0.1px;fill:none;stroke:#50514F" d="M 0.0,0.0 M 0.0,0.0 " />
        <path style="stroke-linecap:square;stroke-width:0.1px;fill:none;stroke:#50514F" d="M 0.0,0.0 M 0.0,0.0 " />
        <path style="stroke-linecap:square;stroke-width:0.1px;fill:none;stroke:#50514F" d="M 0.0,0.0 L 6.123233995736766e-17,-1.0 " />
        <path style="stroke-linecap:square;stroke-width:0.1px;fill:none;stroke:#109648" d="M 6.123233995736766e-17,-1.0 L 0.41317591116653496,-1.7660444431189781 M 6.123233995736766e-17,-1.0 " />
        <path style="stroke-linecap:square;stroke-width:0.1px;fill:none;stroke:#50514F" d="M 6.123233995736766e-17,-1.0 M 6.123233995736766e-17,-1.0 " />
        <path style="stroke-linecap:square;stroke-width:0.1px;fill:none;stroke:#50514F" d="M 6.123233995736766e-17,-1.0 " />
        <path style="stroke-linecap:square;stroke-width:0.1px;fill:none;stroke:#109648" d="M 6.123233995736766e-17,-1.0 L -0.41317591116653474,-1.7660444431189781 M 6.123233995736766e-17,-1.0 " />
        <path style="stroke-linecap:square;stroke-width:0.1px;fill:none;stroke:#50514F" d="M 6.123233995736766e-17,-1.0 M 6.123233995736766e-17,-1.0 " />
        <path style="stroke-linecap:square;stroke-width:0.1px;fill:none;stroke:#50514F" d="M 6.123233995736766e-17,-1.0 L 1.2246467991473532e-16,-2.0 M 1.2246467991473532e-16,-2.0 " />
        <path style="stroke-linecap:square;stroke-width:0.1px;fill:none;stroke:#50514F" d="M 1.2246467991473532e-16,-2.0 M 1.2246467991473532e-16,-2.0 " />
        <path style="stroke-linecap:square;stroke-width:0.1px;fill:none;stroke:#50514F" d="M 1.2246467991473532e-16,-2.0 L 1.8369701987210297e-16,-3.0 " />
        <path style="stroke-linecap:square;stroke-width:0.1px;fill:none;stroke:#109648" d="M 1.8369701987210297e-16,-3.0 L 0.41317591116653507,-3.766044443118978 M 1.8369701987210297e-16,-3.0 " />
        <path style="stroke-linecap:square;stroke-width:0.1px;fill:none;stroke:#50514F" d="M 1.8369701987210297e-16,-3.0 M 1.8369701987210297e-16,-3.0 " />
        <path style="stroke-linecap:square;stroke-width:0.1px;fill:none;stroke:#50514F" d="M 1.8369701987210297e-16,-3.0 " />
        <path style="stroke-linecap:square;stroke-width:0.1px;fill:none;stroke:#109648" d="M 1.8369701987210297e-16,-3.0 L -0.4131759111665346,-3.766044443118978 M 1.8369701987210297e-16,-3.0 " />
        <path style="stroke-linecap:square;stroke-width:0.1px;fill:none;stroke:#50514F" d="M 1.8369701987210297e-16,-3.0 M 1.8369701987210297e-16,-3.0 " />
        <path style="stroke-linecap:square;stroke-width:0.1px;fill:none;stroke:#50514F" d="M 1.8369701987210297e-16,-3.0 L 2.4492935982947064e-16,-4.0 M 2.4492935982947064e-16,-4.0 " />
        <path style="stroke-linecap:square;stroke-width:0.1px;fill:none;stroke:#50514F" d="M 2.4492935982947064e-16,-4.0 M 2.4492935982947064e-16,-4.0 " />
        <path style="stroke-linecap:square;stroke-width:0.1px;fill:none;stroke:#50514F" d="M 2.4492935982947064e-16,-4.0 L 3.061616997868383e-16,-5.0 " />
        <path style="stroke-linecap:square;stroke-width:0.1px;fill:none;stroke:#109648" d="M 3.061616997868383e-16,-5.0 L 0.41317591116653524,-5.766044443118978 M 3.061616997868383e-16,-5.0 " />
        <path style="stroke-linecap:square;stroke-width:0.1px;fill:none;stroke:#50514F" d="M 3.061616997868383e-16,-5.0 M 3.061616997868383e-16,-5.0 " />
        <path style="stroke-linecap:square;stroke-width:0.1px;fill:none;stroke:#50514F" d="M 3.061616997868383e-16,-5.0 " />
        <path style="stroke-linecap:square;stroke-width:0.1px;fill:none;stroke:#109648" d="M 3.061616997868383e-16,-5.0 L -0.41317591116653446,-5.766044443118978 M 3.061616997868383e-16,-5.0 " />
        <path style="stroke-linecap:square;stroke-width:0.1px;fill:none;stroke:#50514F" d="M 3.061616997868383e-16,-5.0 M 3.061616997868383e-16,-5.0 " />
        <path style="stroke-linecap:square;stroke-width:0.1px;fill:none;stroke:#50514F" d="M 3.061616997868383e-16,-5.0 L 3.67394039744206e-16,-6.0 M 3.67394039744206e-16,-6.0 " />
        <path style="stroke-linecap:square;stroke-width:0.1px;fill:none;stroke:#50514F" d="M 3.67394039744206e-16,-6.0 M 3.67394039744206e-16,-6.0 " />
        <path style="stroke-linecap:square;stroke-width:0.1px;fill:none;stroke:#50514F" d="M 3.67394039744206e-16,-6.0 L 4.2862637970157366e-16,-7.0 " />
    </g>
</svg>
